<?xml version="1.0" encoding="UTF-8"?>
<svg xmlns="http://www.w3.org/2000/svg" xmlns:xlink="http://www.w3.org/1999/xlink" viewBox="0 0 1433.35 442.73">
  <defs>
    <style>
      .cls-1 {
        fill: url(#linear-gradient-2);
      }

      .cls-1, .cls-2 {
        mix-blend-mode: multiply;
      }

      .cls-1, .cls-2, .cls-3, .cls-4, .cls-5, .cls-6, .cls-7, .cls-8, .cls-9, .cls-10, .cls-11, .cls-12, .cls-13, .cls-14, .cls-15, .cls-16 {
        stroke-width: 0px;
      }

      .cls-2 {
        fill: url(#linear-gradient);
      }

      .cls-17 {
        opacity: .2;
      }

      .cls-18 {
        opacity: .3;
      }

      .cls-19 {
        isolation: isolate;
      }

      .cls-4 {
        fill: #774f44;
      }

      .cls-5 {
        fill: #263238;
      }

      .cls-6 {
        fill: #894943;
      }

      .cls-7 {
        fill: #455a64;
      }

      .cls-8 {
        fill: #e0e0e0;
      }

      .cls-9 {
        fill: #ae7461;
      }

      .cls-10 {
        fill: #9f6b5b;
      }

      .cls-11 {
        fill: #ffae8e;
      }

      .cls-12 {
        fill: #fff;
      }

      .cls-13 {
        fill: #ffbe9d;
      }

      .cls-14 {
        fill: #ebebeb;
      }

      .cls-15 {
        fill: #eb996e;
      }

      .cls-16 {
        fill: #00bcd4;
      }
    </style>
    <linearGradient id="linear-gradient" x1="239.51" y1="159.25" x2="252.03" y2="180.93" gradientUnits="userSpaceOnUse">
      <stop offset=".08" stop-color="#a4a7a6"/>
      <stop offset=".09" stop-color="#a9abaa"/>
      <stop offset=".16" stop-color="#c3c5c4"/>
      <stop offset=".23" stop-color="#d9dada"/>
      <stop offset=".32" stop-color="#eaebea"/>
      <stop offset=".43" stop-color="#f6f6f6"/>
      <stop offset=".58" stop-color="#fdfdfd"/>
      <stop offset="1" stop-color="#fff"/>
    </linearGradient>
    <linearGradient id="linear-gradient-2" x1="233.82" y1="156.49" x2="223.82" y2="182.53" gradientUnits="userSpaceOnUse">
      <stop offset=".03" stop-color="#a4a7a6"/>
      <stop offset=".04" stop-color="#a9abaa"/>
      <stop offset=".11" stop-color="#c3c5c4"/>
      <stop offset=".19" stop-color="#d9dada"/>
      <stop offset=".28" stop-color="#eaebea"/>
      <stop offset=".4" stop-color="#f6f6f6"/>
      <stop offset=".56" stop-color="#fdfdfd"/>
      <stop offset="1" stop-color="#fff"/>
    </linearGradient>
  </defs>
  <g class="cls-19">
    <g id="Layer_27" data-name="Layer 27">
      <g>
        <g>
          <g>
            <g>
              <path class="cls-5" d="m1114.38,76.81c-.65-3.84-3.99-7.06-7.85-7.56-3.19-4.76-9.9-6.79-15.19-4.58-2.61-2.95-6.82-4.39-10.69-3.67-3.87.72-7.27,3.59-8.64,7.29-3.56-1.8-8.24-1.07-11.07,1.74-2.83,2.81-3.61,7.48-1.84,11.05-4.51.01-8.69,3.81-9.14,8.3-.44,4.49,2.92,9.03,7.34,9.92l52.14-12.78c3.48-1.74,5.58-5.88,4.93-9.72Z"/>
              <g>
                <g>
                  <path class="cls-13" d="m1038.78,145.96c2.98-9.67,9.62-28.34,16.86-45.83,7.78-18.8,28.69-28.48,48.06-22.24l1.92.62c20.36,7.9,25.03,29.6,16.57,49.74l-27.18,68.76h0c-22.86,16.81-48.67,6.12-48.22-9.99l-.37-1.31,4-9.45s-17.82-10.27-11.64-30.3Z"/>
                  <path class="cls-15" d="m1050.27,176.17s12.49,4.87,28.6.77c0,0-10.96,12.1-30.28,3.89l1.69-4.66Z"/>
                  <path class="cls-5" d="m1066.32,120.83c-.15-.52-2.93-.06-5.79-1.55-2.88-1.44-4.22-4-4.71-3.81-.23.08-.22.88.35,2.01.56,1.13,1.76,2.56,3.55,3.48,1.79.91,3.63,1.03,4.83.8,1.23-.22,1.85-.69,1.77-.93Z"/>
                  <path class="cls-5" d="m1093.52,129.9c-.23-.49-2.91.4-5.97-.61-3.07-.97-4.8-3.28-5.25-3.01-.22.11-.08.9.67,1.93.73,1.02,2.15,2.25,4.05,2.87,1.91.61,3.74.44,4.9.02,1.17-.41,1.72-.98,1.6-1.2Z"/>
                  <path class="cls-5" d="m1068.28,140.69c.07-.17-1.73-1.11-4.69-2.5-.76-.33-1.45-.73-1.41-1.3,0-.62.6-1.36,1.27-2.15,1.35-1.66,2.76-3.39,4.23-5.21,5.95-7.45,10.52-13.68,10.22-13.91-.3-.24-5.37,5.61-11.32,13.06-1.45,1.84-2.83,3.6-4.15,5.28-.58.79-1.42,1.64-1.4,2.94.02.65.46,1.26.92,1.56.45.31.89.47,1.27.61,3.05,1.17,4.98,1.8,5.04,1.63Z"/>
                  <path class="cls-5" d="m1076.62,145.72c-.49-.19-1.57,3.13-5.18,4.58-3.61,1.45-7.03-.06-7.21.39-.11.19.58.9,2.07,1.42,1.45.52,3.75.74,5.96-.14,2.2-.89,3.57-2.58,4.13-3.91.58-1.35.47-2.29.24-2.35Z"/>
                  <path class="cls-5" d="m1086.64,111.27c.03.93,3.22,1.52,6.68,3.11,3.49,1.52,6.05,3.51,6.77,2.92.33-.29.07-1.24-.84-2.42-.9-1.18-2.51-2.54-4.59-3.48-2.08-.93-4.17-1.23-5.65-1.11-1.49.11-2.37.55-2.36.98Z"/>
                  <path class="cls-5" d="m1059.72,102.21c.41.9,3.14.98,6.15,1.91,3.04.84,5.39,2.25,6.2,1.71.37-.27.2-1.1-.7-2.11-.88-1.01-2.54-2.13-4.61-2.75-2.08-.61-4.07-.55-5.34-.18-1.29.37-1.87.98-1.7,1.41Z"/>
                  <path class="cls-5" d="m1060.5,91.6s9.28-10.8,16.25-11.77c8.43-1.18,8.99,7.83,16.56,8.13,7.57.3,15.63-.85,21,6.81,5.88,8.38.91,11.34-1.46,20.34-9.61,36.51-6.33,48.76.98,32.46.8-1.79,6.41-1.6,9.7-9.18,4.26-9.83,8.61-22.02,8.67-29.95.05-6.68-2.06-11.99-6.78-18.61-7.44-10.45-20.84-14.94-30.28-16.96-9.43-2.02-30.43,2.82-34.64,18.72Z"/>
                  <path class="cls-13" d="m1112.73,146.62c1.12-3.04,4.55-4.61,7.53-3.33,3.61,1.55,7.06,5,4.34,12.61-4.83,13.5-17.38,5.86-17.27,5.47.08-.27,3.33-9.11,5.4-14.74Z"/>
                  <path class="cls-15" d="m1112.09,157.33c.07-.02.18.25.51.57.32.32.95.68,1.74.66,1.61-.01,3.62-1.85,4.56-4.26.47-1.22.63-2.48.55-3.6-.06-1.14-.45-2.05-1.12-2.44-.66-.42-1.32-.17-1.62.15-.32.31-.33.61-.41.61-.05.02-.21-.33.1-.85.15-.25.42-.51.83-.65.42-.15.94-.11,1.42.12,1.01.44,1.61,1.74,1.71,2.97.15,1.26,0,2.69-.53,4.05-1.06,2.69-3.36,4.74-5.52,4.6-1.04-.09-1.73-.66-2.02-1.13-.3-.48-.26-.81-.21-.82Z"/>
                </g>
                <path class="cls-5" d="m1120.98,120.11c-2.16.64-4.43,1.28-6.63.81-2.2-.48-4.25-2.49-3.93-4.72.14-1,.73-2.03.34-2.96-.46-1.11-1.93-1.28-3.11-1.53-4.1-.86-7.26-4.97-7.02-9.15-1.5,1.19-3.84.36-5.05-1.12-1.21-1.48-1.68-3.41-2.43-5.17-.76-1.76-2.04-3.53-3.93-3.85-1.05-.18-2.19.11-3.18-.3-1.74-.74-1.94-3.11-1.64-4.98.3-1.86.76-4.01-.45-5.46-1.12-1.35-3.11-1.42-4.83-1.71-1.73-.29-3.73-1.36-3.63-3.11.05-.92.7-1.69,1.41-2.28,3.2-2.66,8.31-2.65,11.5.01,2.79-4.08,8.13-6.23,12.96-5.21,4.83,1.01,8.86,5.13,9.78,9.98,3.72-1.69,8.27-1.43,11.78.65,3.52,2.09,5.91,5.95,6.21,10.03,3.6.2,6.97,2.7,8.19,6.08,1.23,3.39.25,7.47-2.39,9.92,2,2.19,3.31,5.3,2.46,8.14-.86,2.84-4.51,4.77-7,3.15.39,2.55-1.46,5.25-3.99,5.79-2.52.54-5.32-1.15-6.01-3.64"/>
              </g>
              <path class="cls-7" d="m1131.4,117.64c.06-.02-.12,1.23-1.69,2.35-.77.52-1.94.95-3.26.75-1.29-.19-2.7-.98-3.52-2.38l.6.1c-1.05.96-2.33,1.87-3.82,2.52-.96.42-1.96.71-2.98.74-1.01.07-2.04-.23-2.83-.63-1.67-.75-2.88-2.16-3.21-3.52-.37-1.35-.26-2.46-.19-3.19.09-.74.2-1.14.25-1.14.06,0,.06.42.07,1.15.02.73.02,1.81.42,3,.66,2.37,4.55,4.73,8.13,2.83,1.38-.61,2.61-1.46,3.62-2.35l.37-.32.24.42c.65,1.18,1.84,1.9,2.95,2.11,1.12.22,2.15-.09,2.89-.51,1.49-.89,1.85-2.01,1.95-1.93Z"/>
            </g>
            <path class="cls-8" d="m1079.9,61.17c-.02-.15-1.7.34-3.47,2.31-.87.96-1.81,2.24-2.44,3.9-.66,1.63-.79,3.74-.08,5.69.74,1.95,2.07,3.43,3.35,4.55,1.29,1.14,2.56,2,3.63,2.7,2.15,1.38,3.49,2.19,3.57,2.08.09-.11-1.12-1.15-3.15-2.67-1-.77-2.21-1.68-3.41-2.8-1.2-1.11-2.38-2.51-3.03-4.21-.61-1.72-.55-3.52,0-5.02.52-1.52,1.34-2.78,2.1-3.75,1.54-1.98,2.97-2.65,2.92-2.78Z"/>
            <path class="cls-8" d="m1069.69,75.38c1.16,1.9,2.77,3.2,4.06,3.84,1.29.65,2.19.74,2.22.63.05-.16-.75-.49-1.85-1.25-1.11-.75-2.49-2.02-3.56-3.76-1.06-1.74-1.55-3.55-1.71-4.88-.17-1.33-.1-2.19-.26-2.22-.11-.03-.45.82-.46,2.27"/>
          </g>
          <path class="cls-11" d="m1085.23,136.93c1.86-.09,3.75-.1,5.51.43,1.91.58,3.68,1.91,4.29,3.8.87,2.72-1.05,5.88-3.74,7.02-2.7,1.14-5.85.56-8.33-.86-1.18-.68-2.29-1.58-2.84-2.82-.78-1.77-.25-3.97,1.04-5.48,1.28-1.5,2.15-1.75,4.07-2.09Z"/>
        </g>
        <g>
          <path class="cls-16" d="m962.64,262.49c-9.63,2.98-17.59,10.89-20.64,20.5-3.05,9.61-1.1,20.66,5.05,28.66l30.08-16.88c-4.83-10.76-9.65-21.52-14.48-32.28Z"/>
          <path class="cls-16" d="m982.84,304.37l-.04.02.32.71c-.09-.24-.19-.48-.28-.73Z"/>
        </g>
        <g>
          <path class="cls-16" d="m1117.27,233.61c-2.39-6.52-16.28-43.99-16.28-43.99l.33-8.6-54.69,3.06-5,15.83s-3.76,2.65-10.53,11.49c-11.01,14.36-9.89,15.55-17.1,25.29-10.05,13.58-17.55,28.86-22.14,45.12l-35.61,130.2,127.3.03c.96-7.18-2.82-20.64-2.82-20.64,0,0,3.03-.96,6.86-4.31,3.83-3.35,21-96.99,25.31-107.05,4.31-10.05,6.77-39.92,4.37-46.43Z"/>
          <g class="cls-18">
            <path class="cls-3" d="m1007.01,329.76c-10.57-1.36-17.52-1.38-28.09-2.75l-2.3,9.55c8.04,7.88,22.13,11.22,33.33,12.39.41-6.58-3.35-12.61-2.94-19.19Z"/>
          </g>
          <g class="cls-18">
            <path class="cls-3" d="m1017.36,277.48c-3.16-4.33-3.97-10.03-3.34-15.35.63-5.33,2.56-10.4,4.48-15.4,2.53-6.59,5.05-13.18,7.58-19.78l-4.59,2.12c-5.95,9.66-11.23,19.73-15.79,30.12-1.45,3.32-2.86,6.84-2.53,10.45.58,6.33,6.17,10.85,11.3,14.61,1.18.86,2.62,1.76,3.99,1.26,1.49-.55,1.95-2.54,1.46-4.05-.49-1.51-1.64-2.7-2.57-3.98Z"/>
          </g>
          <g>
            <g class="cls-18">
              <path class="cls-3" d="m1067.88,379.95c-.74-.43-1.51-.75-2.3-.99-.19.14-.4.27-.64.34l2.95.65Z"/>
            </g>
            <g class="cls-18">
              <path class="cls-3" d="m1057.71,330.87c10.03-10.42,18.96-21.91,26.57-34.22,4.75-7.68,9.06-15.87,10.45-24.79-10.34,5.62-18.06,15.02-24.8,24.67-6.74,9.65-12.85,19.86-21.16,28.19-2.92,2.93-6.19,5.74-7.71,9.58-1.4,3.54-1.13,7.49-.83,11.29.52,6.73,1.05,13.46,1.57,20.19.23,2.96.53,6.1,2.34,8.45,2.56,3.32,7.26,3.98,11.45,3.97,3.34,0,6.86-.23,9.98.74,1.1-.82,1.41-2.59.83-3.9-.69-1.54-2.2-2.54-3.7-3.33s-3.1-1.49-4.23-2.75c-1.24-1.38-1.75-3.25-2.21-5.05-1.48-5.84-2.75-11.74-3.82-17.67-.44-2.44-.84-4.97-.23-7.38.8-3.18,3.23-5.64,5.5-8.01Z"/>
            </g>
          </g>
          <path class="cls-5" d="m1102.73,231.15s-.16-.13-.44-.42c-.28-.28-.66-.72-1.21-1.25-1.06-1.06-2.66-2.55-4.84-4.13-2.17-1.57-4.93-3.23-8.25-4.49-3.3-1.29-7.16-2.13-11.25-2.19-4.09-.01-7.97.75-11.29,1.98-3.34,1.2-6.13,2.81-8.33,4.35-2.2,1.54-3.82,3-4.9,4.05-.55.51-.94.95-1.22,1.23-.28.28-.43.42-.45.41-.01-.01.12-.17.38-.48.27-.3.63-.76,1.16-1.29,1.04-1.09,2.64-2.6,4.84-4.2,2.19-1.59,5-3.25,8.37-4.49,3.36-1.27,7.29-2.06,11.44-2.05,4.15.07,8.07.93,11.4,2.26,3.35,1.3,6.13,3.01,8.29,4.63,2.17,1.63,3.74,3.16,4.77,4.27.52.55.88,1.01,1.14,1.31.25.31.38.47.37.48Z"/>
          <path class="cls-5" d="m1102.73,191.7s-.22.06-.64.14c-.47.08-1.09.18-1.86.31-1.62.24-3.97.54-6.87.84-5.81.63-13.87,1.18-22.7,2.28-6.2.77-11.94,1.86-16.6,3.31l-.16.05-.08-.14c-2.18-4.01-4-7.35-5.31-9.75-.61-1.15-1.1-2.06-1.46-2.74-.15-.29-.27-.53-.37-.73-.08-.17-.12-.25-.11-.26,0,0,.06.07.16.23.11.19.25.42.42.7.38.66.9,1.56,1.55,2.68,1.34,2.37,3.21,5.69,5.46,9.66l-.24-.09c4.68-1.51,10.45-2.63,16.67-3.4,8.86-1.1,16.92-1.6,22.73-2.15,2.91-.26,5.26-.51,6.88-.69.77-.09,1.39-.16,1.87-.22.43-.04.65-.06.66-.04Z"/>
          <path class="cls-5" d="m1102.97,256.66c-.08-.03.27-1.04.65-2.72.38-1.68.74-4.03.73-6.65-.02-2.62-.4-4.97-.8-6.65-.4-1.67-.75-2.68-.68-2.71.03-.01.15.23.34.68.19.45.43,1.11.67,1.95.49,1.67.93,4.06.95,6.73,0,2.67-.41,5.06-.88,6.74-.23.84-.46,1.51-.65,1.96-.18.45-.3.69-.33.68Z"/>
          <path class="cls-5" d="m1098.38,204.41c.11.06-1.92,3.87-4.54,8.51-2.62,4.64-4.84,8.34-4.95,8.28-.11-.06,1.92-3.87,4.54-8.51,2.62-4.63,4.84-8.34,4.95-8.27Z"/>
          <g class="cls-18">
            <path class="cls-3" d="m1093.14,202.78c-.58-.37-1.34-.16-1.99.07-6.67,2.29-13.34,4.58-20.01,6.88-6.37,2.19-12.9,4.41-19.64,4.36-5.07-.04-10.02-1.36-14.92-2.67-10.79-2.89-21.57-5.78-32.36-8.67l-2.37,1.29c.25,5.84,4.23,10.99,9.13,14.18,4.89,3.19,10.65,4.74,16.29,6.24,10.75,2.86,22,5.72,32.87,3.34,12.79-2.8,22.87-12.35,32.23-21.5.49-.48,1-.99,1.24-1.64.23-.65.11-1.49-.48-1.86Z"/>
          </g>
        </g>
        <g>
          <g>
            <path class="cls-5" d="m1052.72,118.15c-1.2-6.8-5.75-12.94-11.91-16.06-4.76-2.42-10.41-2.98-15.59-1.71-6.76-2.44-15.23-1.46-20.1.69-12.41,5.48-18.26,20.66-31.4,24.05-1.11.29-2.31.5-3.17,1.26-1.96,1.75-.71,5.3,1.65,6.48,1.89.94,4.08.82,6.2.48-3.42,4.62-6.97,9.13-11.1,13.11-2.27,2.18-4.95,4.97-4.03,7.98.88,2.88,4.42,3.8,7.4,4.25-1.47,1.64-2.94,3.29-4.41,4.93,2.97,2.95,7.56,4.16,11.6,3.06-1.38.88-1.29,3.09-.2,4.3,1.09,1.21,2.81,1.64,4.43,1.81,5.59.61,11.26-.97,16.21-3.64,4.95-2.67,9.25-6.39,13.3-10.28,10.72-10.3,20.03-22.07,27.58-34.88l-1.88-8.94c5.14,1.03,10.27,2.07,15.41,3.1Z"/>
            <path class="cls-16" d="m1050.68,113.12c-2.81-3.94-6.88-6.86-11.26-8.91-7.07-3.31-15.17-4.48-22.83-2.96-9.39,1.87-17.89,7.85-22.81,16.07-4.92,8.22-6.18,18.54-3.38,27.7l63.67-18.18c.89-4.76-.58-9.78-3.39-13.71Z"/>
            <g>
              <g>
                <g>
                  <path class="cls-13" d="m1025.63,196.34l3.61-12.59c11.15,1.44,18.38-3.85,22.36-16.11,2.12-6.53,3.58-12.42,4.84-20.65,2.48-16.17,1.16-21.34,1.16-21.34,0,0-4.47-14.29-21.31-17.41-11.35-2.11-23,2.62-29.74,8.42-3.34,2.88-5.5,6.86-6.08,11.23-1.32,10-3.81,28.97-4.4,34.1-.82,7.06-1.6,9.46-1.6,9.46l-2.2,11.13c-2.99,10.29,2.84,21.08,13.08,24.23h0c9.94,3.06,17.31-2.36,20.28-10.46Z"/>
                  <g>
                    <path class="cls-5" d="m1026.09,134.45c-.55.55-2.43-.46-4.83-1.01-2.38-.61-4.52-.57-4.76-1.31-.1-.35.39-.87,1.38-1.22.98-.36,2.47-.5,4.02-.13,1.56.38,2.82,1.18,3.52,1.95.72.77.91,1.45.67,1.72Z"/>
                    <path class="cls-5" d="m1052.62,142.65c-.55.55-2.43-.46-4.83-1.01-2.38-.61-4.52-.57-4.76-1.31-.1-.35.39-.87,1.38-1.22.98-.36,2.47-.5,4.02-.13,1.56.38,2.82,1.18,3.52,1.95.72.77.92,1.45.67,1.72Z"/>
                  </g>
                  <path class="cls-5" d="m1026.53,166.57c0,.17-.44.36-1.18.27-.73-.09-1.75-.53-2.49-1.46-.73-.94-.92-2.03-.82-2.76.09-.74.38-1.13.54-1.08.35.07.22,1.69,1.3,3.05,1.06,1.37,2.66,1.64,2.65,1.99Z"/>
                  <path class="cls-15" d="m1029.24,183.88s-13.91-3.42-16.55-6.67c0,0,.68,7.23,15.54,10.38l1.02-3.71Z"/>
                  <path class="cls-5" d="m1033.59,153.86c.18,0,.34.68.46,1.78.06.55.11,1.21.14,1.93.01.37.03.75.04,1.14.02.38.05.85-.06,1.38-.1.52-.44,1.1-.95,1.4-.5.3-1.02.35-1.48.31-.46-.05-.87-.21-1.21-.43-.32-.22-.57-.47-.76-.71-.73-.98-.85-1.67-.72-1.76.16-.12.62.46,1.38,1.12.39.32.85.59,1.4.58.27,0,.53-.06.72-.19.18-.12.29-.3.36-.6.07-.3.06-.66.06-1.07.01-.39.02-.77.03-1.15.03-.73.08-1.39.13-1.94.11-1.11.27-1.79.45-1.79Z"/>
                </g>
                <path class="cls-11" d="m1042.79,158.81c1.31-.07,2.64-.07,3.89.31,1.35.41,2.6,1.35,3.02,2.68.62,1.92-.74,4.14-2.64,4.95-1.9.8-4.12.4-5.87-.61-.83-.48-1.61-1.12-2-1.99-.55-1.25-.17-2.8.73-3.86.9-1.06,1.52-1.23,2.87-1.47Z"/>
                <path class="cls-11" d="m1014.59,151.45c1.32.65,2.63,1.36,3.66,2.42,1.66,1.71,2.48,4.46.35,6.56-.69.68-1.6,1.12-2.56,1.27-2.87.44-5.41-1.41-6.84-3.76-1.04-1.71-1.63-3.86.53-5.79.42-.38.93-.65,1.46-.85,1.31-.49,2.01-.32,3.4.15Z"/>
              </g>
              <path class="cls-5" d="m1042.55,108.21c-9.31-3.76-17.1-5.74-27.64-2.1-1.76.61-7.96,3.93-10.63,6.36-8.79,7.98-11.26,15.66-10.75,24.08-.21,1.65-.34,3.32-.4,4.98l1.06.27s0,.03,0,.04l.69.13,4.16,1.05c.03,7.17,8.49,8.21,11.9.08,1.23-2.92,3.19-5.98,5.98-7.17,1.65-.7,3.45-.32,5.18-.16,5.62.54,11.45-1.45,16.03-5.24-.47.68-.98,1.32-1.53,1.88-.49.5-1.27,1.11-1.92,1.59-.67.48-1.31.88-1.92,1.17-1.21.58-2.54.82-3.73.96-2.4.24-4.12.39-4.2.99-.07.54,1.32,1.43,4.06,1.98,1.37.24,3.17.34,5.18-.3.98-.32,1.93-.8,2.82-1.37.89-.58,1.68-1.13,2.61-2.04,1.68-1.73,2.63-3.58,3.41-5.26.74-1.7,1.22-3.26,1.53-4.6.17-.76.28-1.44.34-2.04.5,1.83,1.63,4.91,4.22,7.75,3.68,4.04,8.99,4.76,8.76,6.99,2.01-16.57-1.72-24.57-15.2-30.02Z"/>
              <path class="cls-15" d="m1057.82,135.93s.02.18,0,.51c-.02.33-.04.82-.09,1.45-.1,1.26-.27,3.08-.56,5.33-.57,4.49-1.64,10.65-3.32,17.35-.83,3.35-1.73,6.53-2.87,9.31-1.1,2.79-2.47,5.16-3.86,6.97-1.4,1.8-2.81,3.02-3.85,3.74-.5.39-.94.61-1.22.79-.29.17-.44.25-.45.24-.03-.04.57-.41,1.56-1.18,1-.76,2.35-2,3.69-3.8,1.33-1.8,2.65-4.15,3.72-6.92,1.1-2.76,1.98-5.92,2.81-9.26,1.67-6.68,2.8-12.82,3.45-17.28.33-2.23.55-4.04.71-5.3.07-.58.13-1.06.18-1.44.05-.33.08-.5.09-.5Z"/>
              <path class="cls-5" d="m1027.55,148.19c.16.19-.22.86-1.25,1.51-1,.64-2.81,1.15-4.69.61-1.88-.52-3.14-1.77-3.79-2.74-.66-.99-.78-1.74-.56-1.86.23-.14.75.32,1.56.96.8.63,1.93,1.44,3.3,1.81,1.36.39,2.69.23,3.65-.01.97-.23,1.62-.49,1.79-.28Z"/>
              <path class="cls-5" d="m1049.47,153.11c.14.21-.23.78-1.17,1.3-.92.51-2.46.88-4.1.48-1.64-.39-2.84-1.39-3.46-2.22-.63-.85-.74-1.52-.53-1.66.44-.31,1.99,1.46,4.43,2.03,2.43.61,4.55-.38,4.83.08Z"/>
              <g>
                <path class="cls-13" d="m999.78,141.86c-.26-.17-10.66-5.17-12.15,6.04-1.49,11.21,10.08,10.4,10.14,10.08.06-.32,2.01-16.12,2.01-16.12Z"/>
                <path class="cls-15" d="m994.91,153.27s-.21.11-.56.22c-.34.1-.91.13-1.46-.16-1.13-.59-1.87-2.61-1.66-4.63.11-1.02.45-1.97.92-2.72.45-.78,1.06-1.28,1.67-1.3.61-.06.99.35,1.08.69.11.33,0,.55.06.58.03.03.27-.16.24-.63-.02-.23-.11-.51-.35-.76-.24-.25-.62-.42-1.04-.43-.87-.06-1.76.64-2.27,1.47-.56.83-.97,1.89-1.09,3.04-.23,2.27.65,4.54,2.21,5.22.76.31,1.45.16,1.83-.06.38-.23.48-.47.44-.5Z"/>
              </g>
            </g>
          </g>
          <g>
            <polygon class="cls-13" points="1038.07 324.6 1044.7 371.13 1022.12 379.67 1006.7 331.52 1038.07 324.6"/>
            <path class="cls-5" d="m1004.84,274.21l12.1,7.41c6.27,3.84,17.26,10.81,18.63,18.03,5.28,27.77,12.67,64.84,12.67,64.84l-34.62,10.07-11.73-54.57s-66.37-22.83-63.42-55.51c1.18-13.06,8.36-22.83,8.36-22.83,0,0-.79,6.26,4.09,15.4,5.12,9.6,9.95,11.1,19.97,12.55,7.62,1.1,22.57-1.28,27.68,1.28,5.1,2.56,6.28,3.33,6.28,3.33Z"/>
            <g>
              <g>
                <path class="cls-7" d="m1044.6,369.5l.4,1.63s12.18,1.52,20.62,4.09c3.38,1.03,3.38,5.82,0,6.88l-36.6,11.5c-1.97.62-4.05-.57-4.51-2.58l-3.3-14.24c8.13.89,15.53-2.21,23.38-7.27Z"/>
                <path class="cls-5" d="m1045.21,371.23c.06.27-1.09.76-2.03,1.99-.97,1.2-1.29,2.55-1.53,2.51-.23.02-.26-1.7.91-3.16,1.16-1.47,2.65-1.6,2.66-1.34Z"/>
                <path class="cls-5" d="m1050.83,372.03c.12.24-.79,1.02-1.31,2.4-.56,1.37-.47,2.66-.7,2.72-.21.11-.75-1.41-.07-3.12.67-1.71,2.02-2.26,2.09-2.01Z"/>
                <path class="cls-5" d="m1055.34,378.03c-.2.12-.85-1.11-.6-2.77.24-1.66,1.21-2.59,1.36-2.4.19.18-.34,1.19-.52,2.56-.21,1.36,0,2.51-.24,2.61Z"/>
              </g>
              <path class="cls-12" d="m1068.15,378.45s-.14.07-.43.16c-.34.1-.76.23-1.26.38-1.17.34-2.75.79-4.66,1.34-4,1.15-9.4,2.7-15.37,4.42-5.96,1.77-11.35,3.37-15.33,4.56-1.91.57-3.48,1.04-4.65,1.38-.51.14-.93.26-1.27.36-.29.08-.45.11-.45.09,0-.02.14-.08.42-.19.34-.12.75-.27,1.24-.44,1.08-.38,2.65-.9,4.6-1.53,3.9-1.26,9.3-2.94,15.3-4.69,6-1.75,11.46-3.25,15.42-4.28,1.98-.52,3.59-.93,4.7-1.19.51-.12.94-.22,1.29-.3.3-.06.45-.09.46-.07Z"/>
              <path class="cls-12" d="m1057.75,381.33c-.11.05-.71-1.76-.22-3.99.47-2.23,1.76-3.64,1.83-3.55.12.08-.93,1.54-1.37,3.65-.47,2.1-.1,3.86-.25,3.89Z"/>
              <path class="cls-12" d="m1034.16,388.33c-.07.04-.44-.57-1.22-1.4-.77-.82-2.01-1.83-3.61-2.46-1.6-.64-3.19-.75-4.32-.69-1.13.06-1.83.25-1.85.18-.02-.05.65-.36,1.82-.51,1.16-.16,2.84-.09,4.53.58,1.69.67,2.96,1.77,3.69,2.68.75.91,1.02,1.6.97,1.62Z"/>
            </g>
          </g>
          <g>
            <path class="cls-7" d="m1033.72,199.56l-3.46-8.96s-29.81-14.57-37.76-13.56c0,0-6.7,6.83-16.91,18.31-5.96,6.7-14.02,20.82-21.06,33.18-3.57,3.93-7.15,7.87-10.72,11.8-.9.99-1.82,2.02-2.17,3.31-.63,2.36.83,4.7,1.87,6.91,1.68,3.56,2.38,7.51,3.82,11.18,1.45,3.67,3.94,7.26,7.7,8.46,3.1.99,6.53.19,9.7.92,3.34.77,6.14,3.16,9.48,3.92,5.72,1.29,11.79-2.43,17.42-.78,2.89.85,5.56,3.09,8.53,2.58,3.11-.54,4.86-3.81,6.07-6.73,2.3-5.57,4.3-11.26,6.02-17.04l18.43-35.83,3.05-17.67Z"/>
            <path class="cls-5" d="m999.69,220.84s-.05.19-.18.54c-.16.39-.36.89-.6,1.51-.56,1.36-1.34,3.24-2.29,5.53-2,4.7-4.72,11.1-7.73,18.17-3.06,7.08-5.76,13.52-8.01,18.06-1.12,2.27-2.1,4.07-2.81,5.29-.36.61-.64,1.08-.84,1.39-.2.31-.31.48-.33.47-.01,0,.07-.19.24-.51.2-.37.45-.85.76-1.44.66-1.25,1.6-3.06,2.67-5.35,2.17-4.56,4.82-11.02,7.88-18.1,3.06-7.05,5.82-13.43,7.85-18.12,1.01-2.27,1.83-4.12,2.43-5.47.28-.6.51-1.09.68-1.48.16-.34.25-.51.27-.5Z"/>
            <path class="cls-5" d="m991.63,249.32c-.12-.05,2.63-6.4,6.15-14.16,3.52-7.77,6.46-14.02,6.58-13.97.12.05-2.63,6.4-6.15,14.17-3.52,7.77-6.46,14.02-6.58,13.97Z"/>
            <path class="cls-5" d="m975.81,238.06s-.12.35-.4.96c-.28.61-.75,1.45-1.38,2.47-1.25,2.03-3.28,4.68-5.98,7.14-2.71,2.45-5.55,4.21-7.69,5.26-1.07.53-1.96.91-2.59,1.13-.63.23-.98.34-.99.31-.03-.08,1.34-.62,3.42-1.73,2.08-1.11,4.85-2.89,7.52-5.31,2.67-2.43,4.71-5,6.02-6.97,1.32-1.97,1.98-3.28,2.06-3.24Z"/>
            <path class="cls-12" d="m979.2,266.44s-.33,0-.91-.06c-.58-.06-1.42-.23-2.43-.49-2.03-.52-4.77-1.59-7.45-3.38-2.67-1.79-4.72-3.91-5.98-5.59-.63-.84-1.1-1.54-1.39-2.06-.29-.51-.44-.8-.41-.81.07-.05.74,1.06,2.06,2.66,1.31,1.6,3.35,3.64,5.98,5.4,2.63,1.75,5.3,2.85,7.28,3.45,1.98.6,3.26.79,3.25.88Z"/>
            <path class="cls-12" d="m986.46,263.85c-.12.06-.59-.9-1.75-1.29-1.14-.44-2.12-.01-2.17-.13-.03-.05.18-.25.61-.38.43-.14,1.08-.17,1.73.07.65.24,1.13.68,1.37,1.06.24.38.27.66.22.68Z"/>
            <path class="cls-12" d="m1005.76,271.25s-.22.14-.65.26c-.43.13-1.09.22-1.91.2-1.64-.04-3.82-.78-5.9-2.08-2.07-1.3-3.82-2.62-5.22-3.37-1.38-.77-2.33-1.05-2.3-1.13,0-.05,1.01.12,2.46.83,1.46.68,3.27,1.98,5.31,3.26,2.04,1.27,4.11,2.03,5.67,2.15,1.56.14,2.51-.21,2.53-.12Z"/>
            <path class="cls-12" d="m987.29,247.14c-.11.12-2.16-2.58-5.82-4.36-3.63-1.83-7.02-1.83-6.99-1.99,0-.05.83-.13,2.18.03,1.34.16,3.17.61,5.03,1.53,1.85.92,3.33,2.11,4.26,3.08.94.97,1.38,1.68,1.34,1.71Z"/>
            <path class="cls-12" d="m992.78,246.13c-.13.04-.42-.74-1.18-1.34-.75-.61-1.57-.72-1.57-.85-.03-.13.97-.24,1.86.48.9.71,1.02,1.71.89,1.71Z"/>
            <path class="cls-12" d="m1011.31,253.91c-.02.05-1.07-.31-2.69-1.06-1.62-.75-3.81-1.9-6.1-3.39-2.29-1.49-4.23-3.03-5.57-4.21-1.34-1.18-2.1-1.99-2.06-2.03.05-.05.89.66,2.27,1.77,1.39,1.11,3.34,2.59,5.61,4.07,2.27,1.47,4.41,2.67,5.99,3.49,1.57.82,2.57,1.3,2.54,1.36Z"/>
            <path class="cls-12" d="m999.87,229.4c-.01.12-.96.05-1.91-.59-.95-.64-1.37-1.49-1.26-1.55.11-.08.67.58,1.53,1.16.85.59,1.67.85,1.64.99Z"/>
            <path class="cls-12" d="m1020.74,234.4c0,.06-1.12-.03-2.9-.34-1.78-.31-4.22-.87-6.84-1.72-2.62-.86-4.92-1.84-6.54-2.64-1.62-.8-2.57-1.38-2.55-1.44.03-.06,1.04.41,2.69,1.13,1.65.72,3.95,1.65,6.55,2.5,2.6.85,5.01,1.45,6.76,1.84,1.75.39,2.85.6,2.84.67Z"/>
            <path class="cls-12" d="m1026.1,223.62s-.2-.02-.58-.1c-.43-.1-.97-.23-1.65-.38-.72-.17-1.59-.38-2.59-.68-1-.29-2.15-.59-3.4-1.02-2.51-.79-5.45-1.88-8.66-3.23-3.19-1.38-6.64-3.05-10.15-5.01-3.49-1.99-6.7-4.08-9.53-6.1-2.81-2.05-5.27-4-7.24-5.75-1.01-.84-1.86-1.67-2.63-2.38-.77-.7-1.41-1.34-1.92-1.87-.48-.5-.88-.9-1.18-1.21-.27-.28-.4-.43-.39-.45.01-.01.17.12.46.38.32.3.73.68,1.24,1.15.53.51,1.19,1.12,1.97,1.8.78.69,1.65,1.5,2.67,2.32,1.99,1.7,4.46,3.62,7.27,5.64,2.84,1.99,6.03,4.07,9.51,6.05,3.49,1.96,6.92,3.62,10.09,5.02,3.18,1.37,6.1,2.49,8.59,3.31,1.23.45,2.37.77,3.37,1.09.99.32,1.86.56,2.56.76.67.19,1.21.35,1.62.47.37.11.56.18.56.2Z"/>
            <path class="cls-12" d="m999.87,189.92c-.06.12-2.99-1.31-6.55-3.18-3.56-1.88-6.39-3.49-6.33-3.61.06-.12,2.99,1.31,6.55,3.18,3.55,1.87,6.39,3.49,6.33,3.61Z"/>
            <path class="cls-12" d="m995.04,229.29s-.13,0-.37-.07c-.24-.05-.58-.16-1.01-.33-.86-.34-2.06-.98-3.34-2.03-2.63-2.03-5.37-5.75-9.53-8.52-4.09-2.85-8.27-4.68-11.25-6.02-1.44-.63-2.64-1.15-3.56-1.55-.84-.37-1.3-.59-1.29-.62s.49.13,1.36.44c.86.32,2.1.79,3.63,1.41,3.02,1.26,7.25,3.05,11.39,5.94,4.23,2.82,6.95,6.6,9.47,8.65,2.48,2.16,4.55,2.59,4.5,2.69Z"/>
            <path class="cls-12" d="m972.15,243.03s-.29-.14-.78-.46c-.48-.32-1.16-.81-1.99-1.44-1.65-1.26-3.86-3.09-6.14-5.29-2.28-2.2-4.2-4.34-5.51-5.95-.66-.8-1.17-1.46-1.51-1.94-.34-.47-.52-.74-.49-.76.06-.04.89.93,2.26,2.48,1.38,1.54,3.32,3.64,5.59,5.83,2.27,2.19,4.43,4.05,6.02,5.37,1.59,1.32,2.6,2.11,2.56,2.17Z"/>
            <path class="cls-12" d="m955.19,253.93s-.24-.1-.63-.36c-.39-.25-.93-.66-1.57-1.2-1.28-1.07-2.91-2.74-4.34-4.87-1.42-2.13-2.35-4.27-2.85-5.87-.25-.8-.42-1.45-.51-1.91-.09-.46-.12-.71-.09-.72.08-.02.33.98.91,2.52.58,1.54,1.53,3.62,2.93,5.71,1.4,2.09,2.96,3.76,4.16,4.88,1.21,1.12,2.03,1.74,1.98,1.8Z"/>
          </g>
        </g>
        <g>
          <path class="cls-13" d="m969.28,280.29s-1.03-1.22-2.89-.56-6.71-.59-8.09.66c-1.63,1.46-1.97,3.72-1.86,6.89.11,3.17-5.03,6.04-5.03,6.04l9.88,17.57,5.61-.7,37.47-13.91s4.89-6.24-1.7-5.67c-1.86.16-6.68,1.51-6.68,1.51,0,0,8.06-5.87,8.44-8.4.47-3.12-2.21-3.95-6.28-2.38-3.48,1.34-5.19,1.9-5.19,1.9,0,0,3.72-4.37,2.41-5.79s-2.08-2.95-7.22,0c-5.14,2.95-16.07,8.64-17.27,10.06s-5.47,4.48-5.47,4.48l-.28-3.3s4.12-.99,4.76-3.46c.96-3.73-.61-4.91-.61-4.91Z"/>
          <g>
            <path class="cls-13" d="m1040.06,326.22s-3.76,10.18-46.13,8.48c-9.9-.4-42.83-1.17-42.83-1.17,0,0-4.9-4.55-4.9-11.56,0-4.18-.25-12.02-.45-17.68-.15-4.2,1.67-8.22,4.91-10.9l.8-.66,9.8,16.97,5.61-.7s46.99-15.74,54.7-18.9l13.19-29.17,5.32,65.27Z"/>
            <path class="cls-15" d="m1040.06,326.22s-.05-.4-.12-1.18c-.07-.79-.17-1.94-.31-3.45-.26-3.03-.64-7.47-1.12-13.14-.95-11.36-2.3-27.67-3.95-47.49l.37.06c-3.99,8.84-8.44,18.69-13.17,29.18l-.04.08-.08.03c-8.33,3.18-17.18,6.15-26.33,9.31-9.17,3.1-18.66,6.32-28.38,9.61h-.02s-.02.01-.02.01c-.76.1-1.58.2-2.41.3-1.07.13-2.13.27-3.2.4l-.16.02-.08-.14c-3.33-5.76-6.6-11.43-9.8-16.97l.35.06c-1.54,1.19-2.87,2.56-3.82,4.21-.96,1.63-1.54,3.46-1.74,5.31-.1.93-.07,1.85-.05,2.8.02.94.05,1.88.07,2.81.05,1.87.09,3.72.14,5.56.05,1.84.09,3.66.14,5.46.02.9.04,1.8.07,2.69l.05,1.32c.03.44.1.87.15,1.3.58,3.44,2.3,6.61,4.63,8.99l-.14-.06c13.47.38,25.89.73,36.95,1.05,2.76.08,5.44.15,8.03.22,2.59.05,5.08.18,7.48.12,2.4-.02,4.71,0,6.91-.14,1.1-.05,2.18-.1,3.23-.15,1.05-.09,2.07-.18,3.07-.26,3.99-.31,7.52-.92,10.58-1.55,3.04-.71,5.57-1.54,7.54-2.42,1.95-.92,3.32-1.88,4.13-2.65.81-.77,1.06-1.32,1.06-1.32,0,0,0,.03-.04.1-.04.07-.09.16-.16.28-.16.24-.41.59-.81.98-.79.8-2.16,1.78-4.12,2.73-1.97.91-4.51,1.76-7.55,2.49-3.06.66-6.6,1.28-10.6,1.62-1,.09-2.02.18-3.07.27-1.05.05-2.13.1-3.24.16-2.21.15-4.52.14-6.92.17-2.41.07-4.91-.06-7.5-.1-2.59-.07-5.27-.13-8.03-.2-11.06-.29-23.48-.62-36.94-.97h-.09s-.05-.06-.05-.06c-2.42-2.47-4.16-5.68-4.77-9.23-.05-.45-.13-.89-.16-1.34l-.06-1.35c-.02-.89-.05-1.79-.07-2.69-.05-1.8-.09-3.62-.14-5.46-.05-1.83-.09-3.68-.14-5.55-.02-.93-.05-1.87-.07-2.81-.03-.93-.06-1.9.05-2.86.2-1.92.8-3.81,1.79-5.5.97-1.7,2.39-3.15,3.93-4.34l.22-.17.13.23c3.2,5.54,6.48,11.21,9.8,16.97l-.24-.12c1.06-.13,2.13-.27,3.2-.4.83-.1,1.65-.21,2.41-.3h-.05c9.72-3.28,19.21-6.49,28.38-9.59,9.15-3.15,18.02-6.11,26.31-9.28l-.12.11c4.75-10.47,9.21-20.32,13.21-29.15l.31-.68.06.74c1.58,19.84,2.88,36.16,3.79,47.54.44,5.67.78,10.1,1.02,13.14.11,1.5.19,2.65.25,3.44.05.78.07,1.17.07,1.17Z"/>
          </g>
          <g>
            <path class="cls-16" d="m1046.57,238.82l-28.94,45.2s-3.45-1.22-6.18,3.06c-1.31,2.06-.44,5.31-.44,5.31l27.23,37.74c2.64,3.66,7.56,5.06,11.59,3.04,2.06-1.04,3.87-2.93,4.61-6.28l39.37-54.78"/>
            <path class="cls-5" d="m1093.8,272.1s-.05.1-.17.28c-.13.19-.31.45-.54.79-.5.71-1.22,1.73-2.14,3.04-1.89,2.66-4.64,6.52-8.1,11.38-6.96,9.72-16.78,23.43-28.23,39.42l.04-.08c-.29,1.28-.76,2.55-1.54,3.67-.76,1.12-1.83,2.05-3.05,2.69-2.45,1.31-5.55,1.36-8.15.16-1.29-.61-2.48-1.48-3.41-2.59-.9-1.14-1.68-2.3-2.54-3.46-1.68-2.33-3.38-4.69-5.1-7.07-7.06-9.8-13.83-19.19-20.05-27.81l-.03-.04v-.04c-.27-1.12-.37-2.26-.24-3.38.07-.56.2-1.12.45-1.64.26-.52.59-.95.93-1.39.69-.85,1.56-1.57,2.57-2,1.02-.4,2.13-.53,3.2-.22l-.25.08c8.66-13.46,15.92-24.74,21.02-32.67,2.55-3.94,4.56-7.04,5.95-9.18.69-1.05,1.22-1.85,1.58-2.42.18-.26.31-.46.41-.62.09-.14.14-.21.15-.2,0,0-.04.08-.12.22-.1.16-.22.36-.39.63-.36.57-.87,1.39-1.53,2.45-1.36,2.15-3.34,5.28-5.85,9.24-5.07,7.95-12.27,19.26-20.88,32.76l-.08.13-.16-.05c-.91-.26-1.97-.16-2.89.22-.93.4-1.74,1.06-2.39,1.88-1.51,1.55-1.54,3.92-1.05,6.01l-.03-.07c6.22,8.61,13,18,20.07,27.79,1.72,2.38,3.42,4.74,5.1,7.07.85,1.15,1.66,2.36,2.52,3.44.89,1.06,2.02,1.89,3.25,2.47,2.48,1.14,5.41,1.1,7.74-.14,1.16-.61,2.16-1.48,2.89-2.54.74-1.06,1.19-2.27,1.47-3.51v-.05s.04-.04.04-.04c11.51-15.95,21.37-29.62,28.37-39.32,3.5-4.82,6.28-8.66,8.2-11.3.95-1.3,1.69-2.3,2.2-3,.25-.33.44-.58.57-.77.13-.17.21-.25.21-.25Z"/>
          </g>
          <path class="cls-5" d="m1051.91,322.01s-.13-.12-.35-.38c-.25-.3-.56-.67-.94-1.13-.85-1.04-2-2.46-3.41-4.19-2.89-3.53-6.95-8.36-11.62-13.52-4.68-5.16-9.09-9.67-12.32-12.89-1.58-1.57-2.88-2.86-3.84-3.81-.42-.42-.76-.77-1.04-1.04-.23-.24-.35-.38-.34-.39s.15.1.4.32c.29.26.65.58,1.1.98.95.86,2.3,2.12,3.94,3.7,3.29,3.17,7.75,7.64,12.44,12.81,4.68,5.17,8.7,10.04,11.53,13.63,1.41,1.79,2.54,3.26,3.3,4.29.35.48.64.87.87,1.19.19.27.29.42.28.43Z"/>
          <path class="cls-5" d="m1050.1,317.35s-.25-.32-.62-.94c-.42-.7-.95-1.58-1.58-2.62-1.34-2.21-3.24-5.22-5.5-8.44-2.26-3.22-4.44-6.04-6.06-8.05-.76-.94-1.41-1.74-1.92-2.38-.45-.56-.69-.88-.67-.9.02-.02.31.26.81.78.5.52,1.2,1.3,2.04,2.28,1.69,1.96,3.92,4.76,6.19,7.99,2.27,3.24,4.13,6.29,5.4,8.54.63,1.13,1.13,2.05,1.45,2.7.32.65.49,1.01.46,1.03Z"/>
          <path class="cls-15" d="m967.7,287.68c.07.1-1.29.91-3.18.93-1.89.04-3.27-.73-3.2-.83.05-.13,1.43.4,3.2.36,1.77-.01,3.13-.59,3.18-.45Z"/>
          <path class="cls-15" d="m993.14,282.6s-.63.74-1.78,1.78c-1.15,1.04-2.8,2.42-4.69,3.84-1.9,1.42-3.69,2.61-5.01,3.42-1.32.81-2.18,1.26-2.21,1.2-.04-.06.75-.6,2.02-1.49,1.27-.88,3.02-2.11,4.91-3.52,1.89-1.41,3.56-2.75,4.76-3.72,1.2-.97,1.95-1.58,2-1.52Z"/>
          <path class="cls-15" d="m996.82,291.45s-.23.23-.69.56c-.46.34-1.14.8-1.99,1.37-1.7,1.13-4.09,2.64-6.77,4.22-2.69,1.58-5.16,2.94-6.98,3.88-.91.47-1.65.84-2.16,1.08-.52.24-.81.36-.83.33-.03-.06,1.06-.7,2.83-1.71,1.88-1.09,4.26-2.46,6.9-3.99,2.61-1.57,4.97-2.98,6.83-4.1,1.74-1.06,2.83-1.7,2.87-1.64Z"/>
        </g>
      </g>
      <g id="Layer_28" data-name="Layer 28">
        <g>
          <path class="cls-5" d="m949.71,252.48s-15.28-7.87-10.75-27.93c4.53-20.07,19.01-27.97,19.01-27.97l3.07,1.29s20.38-20.5,31.32-20.72c10.94-.22,13.09,5.51,13.09,5.51,0,0-22.16,48.21-23.39,48.29-1.23.08,38.54-16.79,38.54-16.79l-1.39,5.74-69.48,32.57Z"/>
          <path class="cls-5" d="m1030.79,214.96s4.04-8.48,3.15-16.38c-.89-7.91-16.52-17.8-28.5-15.92l-5.03,10.86s16.53-3.8,25.08,1.5c8.56,5.3,4.26,20.67,4.26,20.67"/>
          <g>
            <rect class="cls-12" x="963.17" y="199.41" width="20.45" height="34.68" rx="4.23" ry="4.23" transform="translate(206.33 -420.51) rotate(27.17)"/>
            <path class="cls-12" d="m984.32,195.46c-4.33-2.22-9.64-.51-11.86,3.82l15.68,8.05c2.22-4.33.51-9.64-3.82-11.86Z"/>
            <path class="cls-12" d="m978.31,195.63c-.87-1.63-1.44-4.84-.93-6.62.29-1,.96-2.06,2-2.15.86-.08,1.66.59,2,1.39s.31,1.7.23,2.57-.98,4.17-.81,5.02"/>
            <path class="cls-12" d="m986.82,199.23c.67-1.31,2.97-4.14,4.22-4.91.63-.39,1.35-.7,2.09-.68.74.02,1.51.44,1.76,1.14.24.67-.03,1.41-.4,2.02-1.33,2.16-3.83,3.26-6.17,4.22"/>
            <path class="cls-5" d="m987.68,207.19c-.06.12-3.54-1.54-7.77-3.71-4.23-2.17-7.61-4.03-7.55-4.15.06-.12,3.54,1.54,7.77,3.71,4.23,2.17,7.61,4.03,7.55,4.15Z"/>
          </g>
          <path class="cls-5" d="m964.43,209.66l20.82,10.69-6.31,11.32c-3.1,5.56-10.15,7.53-15.68,4.37h0c-5.3-3.03-7.3-9.68-4.53-15.13l5.71-11.25Z"/>
        </g>
      </g>
      <g>
        <path class="cls-13" d="m1094.68,203.93l-17.81,12.79s-12.69,9.6-21.46,8.71c-12.02-1.22-38.47-8.62-38.47-8.62,0,0-8.98-2.09-14.5-7.37-5.07-4.85-6.73-21.36,3.83-23.51,10.56-2.15,19.94,4.51,28.37,7.22,6.05,1.94,23.68,8.97,23.68,8.97l24.78-8.68"/>
        <g>
          <path class="cls-13" d="m1083.11,193.43s2.71-8.64,2.85-9.44c.14-.8,1.51-3.16,2.71-2.96,1.2.21,3.44-.09,3.73,2.98l7.93.61s1.6,2.14,1.41,4.03c0,0,1.52,2.32,1.72,4.27.21,1.96,1.21,4.87,1.21,4.87,0,0,1.79,1.54.49,3.51-1.3,1.97-4.57,2.63-4.57,2.63l-7.24.66-18.57,13.84"/>
          <path class="cls-15" d="m1074.77,218.44s.1-.11.33-.29c.25-.2.58-.46.99-.78.91-.69,2.18-1.66,3.77-2.88,3.29-2.48,7.9-5.95,13.36-10.06l.05-.04h.06c2.28-.22,4.71-.45,7.24-.68h-.02c1.38-.33,2.83-.9,3.9-1.92.52-.52.93-1.17.95-1.89.03-.71-.36-1.43-.88-1.93l-.05-.05-.02-.05c-.09-.27-.18-.56-.28-.85-.44-1.44-.83-2.92-.99-4.38-.26-1.38-.92-2.69-1.64-3.86l-.04-.07v-.08c.11-1.39-.6-2.76-1.35-3.87l.16.09c-2.81-.22-5.46-.43-7.93-.63h-.17s-.01-.18-.01-.18c-.06-.71-.26-1.38-.68-1.88-.43-.49-1.06-.71-1.7-.8-.32-.05-.65-.07-.98-.12-.18-.03-.3-.05-.43-.03-.13.02-.26.07-.39.13-.5.28-.9.77-1.22,1.24-.31.48-.6.99-.7,1.5-.14.56-.3,1.06-.44,1.56-.3.98-.59,1.88-.84,2.7-.52,1.59-.93,2.86-1.22,3.77-.14.4-.25.73-.34.99-.08.22-.13.33-.14.33-.01,0,.02-.12.08-.35.07-.26.17-.59.28-1,.27-.92.64-2.19,1.11-3.8.24-.82.5-1.73.79-2.71.14-.49.29-1.01.42-1.54.12-.59.4-1.11.73-1.62.34-.5.73-1.02,1.33-1.37.15-.08.32-.15.51-.18.19-.03.39,0,.53.02.31.04.65.06.99.11.67.08,1.42.33,1.94.91.5.58.72,1.35.79,2.1l-.19-.18c2.47.18,5.12.38,7.93.59h.1s.06.09.06.09c.43.6.78,1.24,1.06,1.93.27.69.47,1.45.4,2.26l-.04-.15c.75,1.22,1.42,2.54,1.72,4.04.16,1.46.54,2.88.98,4.32.09.29.19.58.27.84l-.07-.1c.63.6,1.06,1.41,1.04,2.3-.03.89-.52,1.65-1.09,2.21-1.2,1.12-2.68,1.68-4.14,2.04h0s-.02,0-.02,0c-2.53.23-4.97.44-7.24.65l.11-.04c-5.5,4.06-10.15,7.48-13.46,9.93-1.62,1.18-2.91,2.11-3.84,2.79-.42.3-.76.54-1.03.72-.24.16-.36.24-.37.23Z"/>
        </g>
        <g>
          <path class="cls-13" d="m1063.22,216.78c-1.07,1.37-2.69,2.3-4.41,2.52s-3.53-.27-4.91-1.32"/>
          <path class="cls-15" d="m1053.9,217.98c.05-.06.52.28,1.38.63.85.34,2.12.64,3.5.46,1.38-.18,2.54-.79,3.27-1.33.74-.55,1.12-1,1.18-.95.04.03-.24.57-.96,1.21-.71.64-1.93,1.35-3.42,1.54-1.49.19-2.84-.19-3.7-.63-.87-.44-1.28-.89-1.24-.93Z"/>
        </g>
      </g>
    </g>
    <g id="Layer_14" data-name="Layer 14">
      <g>
        <g>
          <ellipse class="cls-12" cx="237.74" cy="165.7" rx="38.42" ry="39.19"/>
          <path class="cls-5" d="m199.32,165.7s.04-.21.07-.63c.03-.45.07-1.07.13-1.86.03-.41.05-.87.09-1.37.05-.5.16-1.04.25-1.63.19-1.18.36-2.55.81-4.04.68-3.02,2.07-6.59,4.27-10.37,2.21-3.77,5.39-7.7,9.72-11.04,4.32-3.31,9.77-6.12,16.05-7.25,6.24-1.09,13.29-.9,20.01,1.71,1.71.56,3.31,1.42,4.96,2.23.8.45,1.57.96,2.37,1.45.81.46,1.55,1.04,2.3,1.62,1.55,1.08,2.9,2.44,4.32,3.75,1.28,1.45,2.63,2.86,3.73,4.5,2.27,3.21,4.24,6.77,5.44,10.7,1.24,3.9,1.91,8.04,1.96,12.25-.05,4.21-.72,8.35-1.96,12.25-1.2,3.92-3.17,7.49-5.44,10.7-1.1,1.64-2.45,3.06-3.73,4.5-1.42,1.31-2.77,2.66-4.32,3.75-.74.58-1.49,1.15-2.3,1.62-.8.48-1.57,1-2.37,1.45-1.65.81-3.26,1.67-4.97,2.23-6.71,2.6-13.76,2.8-20.01,1.71-6.29-1.13-11.74-3.95-16.05-7.25-4.33-3.34-7.51-7.27-9.72-11.04-2.19-3.78-3.58-7.35-4.27-10.37-.45-1.49-.62-2.86-.81-4.04-.09-.59-.19-1.13-.25-1.63-.03-.5-.06-.96-.09-1.37-.05-.79-.1-1.41-.13-1.86-.03-.42-.06-.63-.07-.63s-.01.22,0,.64c.01.45.03,1.07.06,1.87.02.41.03.87.05,1.38.04.5.14,1.05.22,1.65.16,1.19.32,2.57.75,4.08.64,3.05,2.01,6.67,4.19,10.51,2.2,3.83,5.39,7.83,9.76,11.24,4.36,3.38,9.87,6.26,16.25,7.44,6.34,1.14,13.51.96,20.35-1.67,1.74-.57,3.38-1.44,5.06-2.26.82-.45,1.61-.98,2.42-1.47.83-.47,1.58-1.05,2.34-1.64,1.58-1.1,2.96-2.48,4.4-3.81,1.31-1.47,2.68-2.91,3.81-4.58,2.31-3.27,4.33-6.9,5.55-10.9,1.27-3.97,1.95-8.19,2-12.48-.05-4.29-.74-8.51-2-12.48-1.22-3.99-3.24-7.63-5.55-10.89-1.13-1.67-2.5-3.11-3.8-4.58-1.44-1.33-2.83-2.71-4.4-3.81-.76-.59-1.52-1.17-2.34-1.64-.81-.49-1.6-1.01-2.42-1.47-1.68-.82-3.32-1.69-5.06-2.26-6.84-2.63-14.01-2.81-20.35-1.67-6.38,1.18-11.9,4.06-16.25,7.44-4.37,3.41-7.56,7.41-9.76,11.24-2.18,3.84-3.55,7.46-4.19,10.51-.43,1.5-.58,2.89-.75,4.08-.08.6-.17,1.14-.22,1.65-.02.5-.04.96-.05,1.38-.02.79-.04,1.41-.06,1.87,0,.42,0,.64,0,.64Z"/>
        </g>
        <g>
          <path class="cls-12" d="m261.15,206.43c0,3.36,2.67,6.09,5.97,6.09,3.3,0,5.97-2.73,5.97-6.09s-2.67-6.09-5.97-6.09c-3.3,0-5.97,2.73-5.97,6.09Z"/>
          <path class="cls-5" d="m261.15,206.43c.07,0,.07-.54.32-1.45.26-.89.87-2.19,2.19-3.18,1.28-.99,3.36-1.54,5.37-.77,1.99.71,3.71,2.87,3.68,5.39.02,2.52-1.69,4.69-3.68,5.4-2.01.77-4.1.23-5.37-.77-1.32-.99-1.93-2.29-2.19-3.18-.26-.91-.26-1.45-.32-1.45-.03,0-.13.54.05,1.52.18.96.75,2.39,2.15,3.53,1.35,1.14,3.65,1.82,5.91.99,2.25-.75,4.21-3.19,4.18-6.04.03-2.85-1.94-5.29-4.18-6.04-2.27-.83-4.56-.15-5.91.99-1.4,1.14-1.97,2.57-2.15,3.53-.18.98-.08,1.53-.05,1.52Z"/>
        </g>
      </g>
      <g id="Layer_26" data-name="Layer 26">
        <g>
          <path class="cls-16" d="m237.32,145.14c-11.37,0-20.58,9.22-20.58,20.58s9.22,20.58,20.58,20.58,20.58-9.22,20.58-20.58-9.22-20.58-20.58-20.58Zm0,29.39c-4.86,0-8.81-3.94-8.81-8.81,0-3.3,1.82-6.18,4.51-7.69l4.29,2.37,4.29-2.37c2.69,1.5,4.51,4.38,4.51,7.69,0,4.86-3.94,8.81-8.81,8.81Z"/>
          <path class="cls-2" d="m252.56,151.99l-10.95,6.05c2.69,1.5,4.51,4.38,4.51,7.69,0,4.86-3.94,8.81-8.81,8.81v11.71c11.33,0,20.52-9.19,20.52-20.52,0-5.28-2-10.1-5.28-13.74Z"/>
          <path class="cls-1" d="m228.52,165.73c0-3.3,1.82-6.18,4.51-7.69l-10.95-6.05c-3.28,3.64-5.28,8.46-5.28,13.74,0,11.33,9.19,20.52,20.52,20.52v-11.71c-4.86,0-8.81-3.94-8.81-8.81Z"/>
        </g>
      </g>
      <g>
        <g>
          <path class="cls-5" d="m340.96,98.67l77.44-10.7c14.58,19.38,22.99,43.33,23.73,67.57-30.04,12.99-62.64,20-95.36,20.51-4.83-25.49-6.49-51.45-5.81-77.38Z"/>
          <path class="cls-5" d="m415.36,83.62c-9.67-10.56-22.18-16.26-36.5-15.71-8.08.31-11.33,2.17-17.05,4.06-5.73,1.89-10.8,5.29-14,10.4-3.8,6.07-6.9,12.8-7.29,19.94-.4,7.34-.8,14.73.15,22.02.95,7.29,3.35,14.55,7.98,20.25l18.81,2.21c10.31-.22,20.76-.46,30.66-3.35,9.9-2.9,19.34-8.83,24.23-17.9,6.79-12.61,2.66-31.34-7.01-41.91Z"/>
          <path class="cls-13" d="m398.77,84.42l-25.38-8.5-6.45,1.11c-14.6.86-23.79,17.51-23.24,29.33.61,13.14,1.88,29.15,4.5,38.71,5.26,19.23,21.97,19.93,21.97,19.93l3.01,18.66-4.29,6.27.52,41.85,30.74,1.65,9.31-59.15-.83-11.62-2.93-71.94c-.32-3.58-3.33-6.32-6.93-6.3Z"/>
          <path class="cls-15" d="m377.17,138.9c-.19-1.02-.81-1.89-1.57-2.48-1.52-1.17-3.66-1.17-5.16,0-1.5,1.16-2.27,3.41-1.86,5.44h0c.94,1.15,2.32,1.89,3.81,1.94.23,0,.46,0,.69-.02,1.12-.09,2.24-.53,3.05-1.41.81-.87,1.27-2.21,1.04-3.47Z"/>
          <path class="cls-5" d="m349.94,122.85c.1,1.33,1.31,2.34,2.7,2.27,1.39-.08,2.44-1.22,2.34-2.55-.1-1.33-1.31-2.34-2.7-2.27-1.39.08-2.44,1.22-2.34,2.55Z"/>
          <path class="cls-5" d="m348.52,112.68c.35.29,2.1-1.32,4.8-1.62,2.7-.33,4.83.84,5.09.48.13-.16-.25-.72-1.19-1.25-.92-.53-2.44-.98-4.12-.79-1.68.2-3.03.97-3.78,1.69-.76.73-.98,1.35-.81,1.48Z"/>
          <path class="cls-5" d="m367.1,132.96c0-.15-1.72-.26-4.48-.31-.7,0-1.37-.06-1.53-.52-.22-.48-.01-1.26.24-2.09.47-1.74.95-3.57,1.46-5.48,2.01-7.79,3.39-14.17,3.07-14.24-.32-.08-2.2,6.17-4.21,13.96-.48,1.92-.94,3.75-1.37,5.5-.18.81-.53,1.75-.06,2.75.24.5.79.81,1.25.88.46.09.85.05,1.19.03,2.76-.15,4.46-.33,4.45-.48Z"/>
          <path class="cls-15" d="m370.15,164.98s13.27-.6,25.46-9.89c0,0-4.71,15.26-24.51,15.59l-.95-5.7Z"/>
          <path class="cls-5" d="m375.26,133.95c-.44.02-.13,2.96-2.41,5.31-2.28,2.36-5.44,2.38-5.42,2.79-.02.19.76.49,2.08.38,1.3-.1,3.15-.72,4.54-2.17,1.39-1.44,1.86-3.22,1.83-4.43-.02-1.24-.43-1.93-.63-1.89Z"/>
          <path class="cls-5" d="m348.92,103.14c.53.61,2.55-.06,4.99-.13,2.44-.14,4.51.35,4.98-.3.2-.32-.13-.93-1.04-1.5-.9-.57-2.39-1.02-4.07-.95-1.68.07-3.12.65-3.96,1.3-.85.65-1.13,1.29-.9,1.58Z"/>
          <path class="cls-5" d="m379.2,119.93c.14,1.33-.86,2.54-2.25,2.72-1.38.18-2.62-.75-2.76-2.08-.14-1.33.86-2.54,2.24-2.72,1.38-.18,2.62.76,2.77,2.08Z"/>
          <path class="cls-5" d="m385.15,109.6c-.29.35-2.3-.92-5.01-.72-2.71.17-4.6,1.7-4.92,1.39-.16-.14.12-.75.94-1.45.81-.69,2.22-1.41,3.91-1.52,1.69-.11,3.16.41,4.02.98.88.58,1.21,1.15,1.06,1.31Z"/>
          <path class="cls-5" d="m383.04,101.01c-.49.65-2.63.17-5.15.32-2.52.07-4.62.75-5.15.14-.24-.3.05-.94.94-1.59.88-.65,2.38-1.23,4.11-1.31,1.73-.08,3.27.37,4.19.94.94.57,1.27,1.18,1.06,1.5Z"/>
          <path class="cls-13" d="m404.14,123.89c-.16-1.46,1.15-5.08,2.57-5.46,3.78-1.02,10.75-1.48,11.89,8.27,1.56,13.33-12.16,12.15-12.23,11.77-.05-.3-1.68-9.55-2.22-14.58Z"/>
          <path class="cls-15" d="m409.48,133.17c.05-.05.25.14.66.27.4.13,1.08.17,1.74-.17,1.35-.68,2.28-3.06,2.06-5.47-.11-1.22-.5-2.34-1.04-3.25-.52-.93-1.23-1.54-1.96-1.58-.72-.08-1.18.4-1.3.8-.14.39-.02.65-.09.68-.03.04-.31-.19-.27-.75.02-.27.14-.61.43-.9.29-.3.74-.48,1.25-.49,1.04-.05,2.07.79,2.67,1.78.65.99,1.12,2.26,1.24,3.62.23,2.7-.85,5.37-2.72,6.16-.91.35-1.73.16-2.17-.1-.45-.28-.56-.57-.51-.6Z"/>
          <path class="cls-5" d="m407.25,118.44l-3.21,3.71c-15.46-13.24-46.1-46.84-44.38-44.83,0,0,9.84-4.69,20.86-3.43,11.03,1.26,32.05,5.58,32.43,18.47.39,12.89-5.7,26.08-5.7,26.08Z"/>
        </g>
        <g>
          <g>
            <path class="cls-13" d="m316.35,253.29s-5.73-14.03-7.51-16c-.02-.02-.04-.04-.05-.06-2.67-2.93-8.31-4.74-12.15-3.76-2.02.52-3.48,1.29-3.83,2.2-.38.99,1.02,6.56,1.02,6.56l-19.96,4.94s18.58,12.05,23.71,15.22c5.14,3.16,9.68,4.74,9.68,4.74l42.29,39.24-4.25-31.34-28.95-21.74Z"/>
            <path class="cls-5" d="m258.02,225.99c.66.32,43.44,33.73,43.44,33.73l4-4.52-43.73-34.16-3.71,4.95Z"/>
            <path class="cls-13" d="m265.23,231.41c-.41.27-2.42.62-1.73,2.81s4.24,9.17,5.47,9.17h3.15s1.09,4.93,2.87,6.02c1.78,1.09,4.24,1.24,4.24,1.24,0,0,1.78,3.69,3.56,4.65,1.78.96,5.47,2.19,5.47,2.19,0,0,3.42,5.64,6.71,5.47,3.28-.16,4.31.43,4.31.43l-.75-3.99s5.2-8.62,6.3-10.26c1.09-1.64.82-4.11-1.09-4.38-1.92-.27-9.44,9.17-9.44,9.17l-5.2-2.05.27-4.98s2.19-6.65,1.64-7.61c-.55-.96-3.15-1.78-4.79-.82-1.64.96-4.25,6.71-4.25,6.71h0c.06.96-1.04,1.53-1.8.94l-.48-.38s-.62-5.35-1.4-9.19c-.21-1.02-1.23-2.48-2.31-2.47-2.16,0-3.69.61-3.89,2.76h0l-6.86-5.42Z"/>
            <path class="cls-15" d="m303.59,237.9c.04.1-.76.52-2.16,1.16l.18-.32c.2.97.54,2.26.31,3.83-.12.77-.47,1.63-1.09,2.29-.61.66-1.54,1.21-2.62,1.13-.94-.08-1.68-.63-2.2-1.19-.53-.58-.9-1.19-1.25-1.76-.69-1.17-1.15-2.3-1.46-3.27-.61-1.95-.61-3.22-.5-3.24.14-.02.38,1.19,1.11,3.01.37.91.88,1.96,1.57,3.05.68,1.05,1.54,2.37,2.79,2.48.7.05,1.4-.31,1.89-.83.51-.52.8-1.16.93-1.83.26-1.34.04-2.61-.06-3.58l-.03-.25.2-.07c1.46-.49,2.33-.72,2.37-.62Z"/>
            <path class="cls-15" d="m298.53,259.4c-.11-.07.7-1.61,2.1-4.04.76-1.3,1.6-2.73,2.49-4.25.48-.8.97-1.62,1.47-2.47.41-.79.66-1.85.4-2.65-.2-.78-1.25-.95-1.95-.52-.8.44-1.54,1.08-2.21,1.68-1.34,1.24-2.47,2.46-3.42,3.49-1.89,2.06-3.02,3.37-3.13,3.29-.1-.07.86-1.53,2.64-3.72.89-1.09,1.98-2.37,3.33-3.68.69-.65,1.41-1.32,2.38-1.87.44-.3,1.22-.44,1.79-.29.64.11,1.28.67,1.45,1.31.36,1.27,0,2.4-.48,3.38-.53.86-1.05,1.69-1.55,2.5-.95,1.49-1.84,2.87-2.66,4.14-1.54,2.35-2.54,3.76-2.65,3.7Z"/>
          </g>
          <path class="cls-16" d="m324.9,259.71c.36.27-9.92,23.99-9.92,23.99l32.69,33.8,3.88-10.08-5.59-34.54-21.06-13.18Z"/>
          <path class="cls-16" d="m359.75,199.46s-22.67,36.56-22,51.1c.66,14.53,11.94,30.96,10.62,47.39-1.32,16.43-1.38,48.66-3.31,65.72-1.52,13.43-.66,47.39-.66,47.39,0,0,116.19,1.26,118.85-3.16,2.66-4.42-2.66-63.19-7.97-89.1-5.31-25.91-20.48-108.5-22.47-133.14-1.99-24.65-26.42-21.74-26.42-21.74l-36.41,17.57-10.22,17.97Z"/>
          <path class="cls-5" d="m347.73,322.23c-.06,0-.09-.76-.08-2.12.03-1.56.06-3.49.1-5.77.08-4.87.19-11.6-.34-19-.51-7.4-2.09-13.94-3.36-18.64-.63-2.36-1.12-4.27-1.43-5.6-.31-1.33-.45-2.07-.39-2.09.06-.02.32.69.74,1.99.46,1.49,1.04,3.33,1.72,5.52,1.44,4.65,3.14,11.27,3.66,18.75.53,7.46.32,14.22.07,19.09-.11,2.44-.28,4.41-.39,5.77-.12,1.36-.22,2.11-.28,2.11Z"/>
          <path class="cls-15" d="m281.03,251.82c-.24.06-.77-1.53-.49-3.54.27-2.01,1.22-3.39,1.44-3.27.24.12-.28,1.56-.52,3.4-.27,1.83-.17,3.36-.43,3.41Z"/>
          <path class="cls-15" d="m272.34,235.77c.27.01.27,1.86.07,4.03-.18,2.16-.05,3.92-.31,3.97-.24.06-.8-1.76-.61-4.04.2-2.24.62-3.97.85-3.96Z"/>
        </g>
        <path class="cls-5" d="m382.34,304.08s20.92,103.13,38.2,110.1c17.28,6.97,112.57-35.07,115.41-47.04,3.14-13.2-44.78-97.57-49.13-100.62-4.36-3.05-104.48,37.55-104.48,37.55Z"/>
        <path class="cls-7" d="m387.94,314.83s-14.48-80.64-13.6-101.07c.88-20.43,14.68-45.93,39.96-50.82,25.29-4.88,70.97,104.59,70.97,104.59l-9.85,2.67s-43.17-109.38-63-104.18c-46.18,12.1-21.35,114.15-15.65,144.32l-8.83,4.49Z"/>
        <path class="cls-3" d="m391.11,229.17s18.22,60.25,42.31,67.06c24.09,6.8,27.59-10.3,27.59-10.3l-69.9-56.76Z"/>
        <g>
          <path class="cls-13" d="m386.2,222.17c.75.06-4.29-1.27-6.67-3.34s-8.1-8.1-8.1-8.1c0,0-6.83.64-7.15-1.43-.32-2.07-.79-5.72,0-7.31.79-1.59,2.07-3.34,2.07-3.34,0,0-2.07-4.13,0-5.56l2.07-1.43s-1.11-4.29,1.27-4.92c2.38-.64,3.49-.79,3.49-.79,0,0-.64-3.18,2.86-2.7,3.49.48,6.67,1.43,10.24,3.34,3.58,1.91,14.56,16.84,14.56,16.84l-.65,16.52-13.98,2.22Z"/>
          <g>
            <path class="cls-16" d="m412.48,167.16s3.28-6.07,18.05,6.91c14.78,12.98,38.36,88.46,37.02,99.2-1.34,10.75-12.99,47.46-51.04-3.13-4.5-5.98-29.55-47.91-29.55-47.91l13.88-18.81,13.43,17.91s-19.7-40.75-1.79-54.18Z"/>
            <path class="cls-5" d="m412.48,167.16s-.24.25-.74.7c-.54.42-1.22,1.15-2.07,2.14-1.63,2.02-3.52,5.56-4.15,10.51-1.39,9.89,1.69,24.52,9.06,40.69l1.28,2.81-1.85-2.46c-4.11-5.46-8.65-11.49-13.47-17.88h.61c-4.37,5.94-9.01,12.24-13.85,18.82l.02-.46c6.01,10,12.45,20.67,19.28,31.77,1.72,2.77,3.46,5.56,5.22,8.38,1.8,2.79,3.53,5.69,5.57,8.35,4.09,5.38,8.52,10.68,13.62,15.41,4.55,4.17,9.61,8.05,15.46,9.43,1.45.36,2.93.42,4.39.36,1.44-.2,2.89-.47,4.18-1.15,2.66-1.2,4.72-3.4,6.38-5.75,3.2-4.83,5.06-10.5,5.72-16,.09-2.72-.47-5.54-.98-8.24-.54-2.71-1.14-5.39-1.81-8.02-2.64-10.51-5.71-20.36-8.79-29.5-3.09-9.14-6.26-17.55-9.43-25.11-3.18-7.55-6.37-14.27-9.71-19.84-1.7-2.76-3.42-5.27-5.37-7.23-2-1.92-4.02-3.49-5.86-4.84-3.71-2.65-7.05-4.17-9.46-4.19-1.2-.03-2.08.33-2.57.68-.5.35-.66.65-.67.63,0,0,.12-.32.62-.71.49-.39,1.39-.79,2.63-.79,2.49-.04,5.9,1.46,9.67,4.09,1.87,1.35,3.91,2.89,5.96,4.82,2.02,1.99,3.77,4.5,5.5,7.27,3.41,5.59,6.65,12.3,9.87,19.86,3.22,7.56,6.43,15.97,9.55,25.12,3.12,9.14,6.22,18.99,8.89,29.54.67,2.63,1.28,5.32,1.84,8.05.51,2.75,1.1,5.5,1.01,8.47-.28,2.9-1.02,5.7-1.95,8.48-.97,2.76-2.21,5.48-3.9,7.97-1.72,2.43-3.88,4.76-6.74,6.06-1.38.73-2.95,1.03-4.49,1.24-1.56.07-3.14,0-4.66-.38-6.15-1.46-11.27-5.43-15.88-9.64-5.17-4.78-9.62-10.12-13.73-15.53-2.09-2.73-3.81-5.62-5.61-8.42-1.76-2.83-3.5-5.63-5.22-8.4-6.82-11.11-13.24-21.79-19.23-31.81l-.14-.24.17-.22c4.86-6.57,9.52-12.86,13.91-18.79l.31-.41.31.41c4.79,6.42,9.31,12.46,13.4,17.94l-.57.35c-7.34-16.31-10.34-31.02-8.82-41.04.7-5,2.68-8.57,4.37-10.57.89-.98,1.6-1.7,2.15-2.09.52-.43.81-.63.81-.63Z"/>
          </g>
          <path class="cls-5" d="m445.08,256.07s-.53-.38-1.35-1.19c-.83-.8-2-2-3.41-3.49-2.84-2.99-6.65-7.23-10.79-11.97-4.05-4.65-7.71-8.85-10.58-12.14-1.24-1.43-2.3-2.66-3.19-3.69-.75-.88-1.14-1.39-1.09-1.43.05-.04.53.38,1.35,1.19.83.8,2,2,3.41,3.49,2.84,2.99,6.65,7.23,10.79,11.97,4.05,4.65,7.71,8.85,10.57,12.13,1.24,1.43,2.3,2.66,3.19,3.69.75.88,1.14,1.39,1.09,1.43Z"/>
          <g class="cls-18">
            <path class="cls-3" d="m422.71,230.98s30.25,23.28,26.84,26.35c-3.41,3.07-26.84-26.35-26.84-26.35Z"/>
          </g>
        </g>
      </g>
    </g>
    <g id="Character_4" data-name="Character 4">
      <g>
        <g>
          <path class="cls-5" d="m489.69,67.47c3.16-3.52,7.01-6.86,8.05-11.48.96-4.24-.63-9.06,1.54-12.83,2.66-4.64,9.52-5.16,12.75-9.43,1.56-2.07,2.07-4.78,3.61-6.86,2.63-3.55,7.64-4.43,12.02-3.91,4.39.53,8.6,2.16,13,2.53,6.04.5,12.3-1.39,18.09.43,6.38,2,10.22,7.72,14.31,13.26l5.35,6.44c1.11,1.1,2.29,2.12,3.58,2.98,2.27,1.51,4.87,2.56,6.81,4.47,4.15,4.09,3.69,11.84-.91,15.41,4.63,1.55,7.91,6.45,7.56,11.33-.19,2.68-1.34,5.18-2.18,7.74-.84,2.55-1.36,5.4-.32,7.88,1.04,2.48,4.17,4.21,6.53,2.92-.87,3.47-3.41,6.48-6.67,7.93,1.24,1.31,3,2.13,4.81,2.22-5.06,11.45-18.49,17.31-31,17.2-12.52-.11-24.43-5.03-35.97-9.87l-33.57-9.25c-2.95-.72-4.13-4.34-4.04-7.37.09-3.03.9-6.18-.14-9.03-1.43-3.91-5.92-6.04-7.42-9.92-1.7-4.41,1.06-9.27,4.22-12.79Z"/>
          <g>
            <g>
              <path class="cls-13" d="m538.09,31.4l1.86-.08c20.05.31,31,17.51,30.13,37.55l.75,69.03c.14,12.49-9.53,22.9-21.99,23.69h0c-13.08.83-24.31-9.22-24.94-22.32-.17-3.63-.3-6.16-.32-6.16,0,0-19.36-2.16-20.42-21.38-.51-9.28-.02-28.49.64-45.86.7-18.67,15.63-33.67,34.3-34.47Z"/>
              <path class="cls-15" d="m523.58,133.11s12.15.19,24.72-8.48c0,0-5.2,14.29-24.46,13.38l-.26-4.9Z"/>
              <path class="cls-5" d="m511.85,81.24c.01,1.45,1.25,2.64,2.77,2.66,1.51.02,2.74-1.14,2.72-2.6-.01-1.45-1.25-2.64-2.76-2.66-1.52-.02-2.74,1.15-2.73,2.6Z"/>
              <path class="cls-5" d="m508.24,73.68c.36.34,2.37-1.29,5.33-1.4,2.95-.16,5.18,1.27,5.49.89.15-.17-.22-.8-1.2-1.45-.96-.64-2.57-1.24-4.41-1.16-1.84.09-3.36.83-4.22,1.56-.88.74-1.16,1.4-.98,1.55Z"/>
              <path class="cls-5" d="m539.89,81.24c.01,1.45,1.25,2.64,2.77,2.66,1.51.02,2.73-1.14,2.72-2.6-.01-1.45-1.25-2.64-2.76-2.66-1.52-.02-2.74,1.15-2.73,2.6Z"/>
              <path class="cls-5" d="m537.24,73.63c.36.34,2.37-1.29,5.33-1.4,2.95-.16,5.18,1.27,5.49.89.15-.17-.22-.8-1.2-1.44-.96-.65-2.57-1.24-4.41-1.16-1.84.09-3.36.83-4.22,1.56-.88.74-1.16,1.4-.98,1.55Z"/>
              <path class="cls-5" d="m527.61,96.79c0-.17-1.84-.41-4.84-.66-.76-.05-1.48-.16-1.63-.67-.2-.54.08-1.36.41-2.26.63-1.86,1.29-3.8,1.98-5.84,2.75-8.31,4.7-15.14,4.37-15.24-.34-.11-2.84,6.54-5.58,14.86-.66,2.05-1.29,4-1.89,5.87-.25.87-.7,1.86-.26,2.98.23.56.8.94,1.29,1.05.49.13.92.12,1.29.12,3,.03,4.86-.03,4.86-.2Z"/>
              <path class="cls-5" d="m536.4,98.46c-.48,0-.35,3.2-3,5.59-2.64,2.4-6.08,2.19-6.08,2.64-.04.2.79.59,2.23.57,1.42-.01,3.47-.56,5.09-2.02,1.61-1.47,2.25-3.36,2.31-4.68.06-1.35-.33-2.13-.55-2.1Z"/>
              <path class="cls-5" d="m536.89,61.63c.33.79,3.26.28,6.74.55,3.49.2,6.33,1.09,6.76.35.19-.35-.33-1.09-1.49-1.82-1.15-.73-2.97-1.39-5.06-1.53-2.09-.14-3.98.27-5.22.84-1.25.57-1.86,1.23-1.72,1.6Z"/>
              <path class="cls-5" d="m509.04,63.8c.55.65,2.55-.14,5-.27,2.44-.22,4.54.26,4.99-.47.19-.35-.16-1.01-1.09-1.6-.92-.59-2.43-1.05-4.11-.92-1.68.13-3.11.8-3.93,1.52-.84.73-1.09,1.43-.85,1.75Z"/>
              <path class="cls-13" d="m569.12,83.18c.32-.16,13.04-4.47,13.19,8.69.14,13.16-13.1,10.59-13.13,10.22-.03-.38-.06-18.9-.06-18.9Z"/>
              <path class="cls-15" d="m573.15,97.05c.06-.04.23.16.62.33.38.17,1.03.28,1.71.02,1.39-.53,2.53-2.75,2.57-5.12.02-1.2-.24-2.34-.68-3.28-.41-.96-1.04-1.62-1.74-1.74-.7-.15-1.19.27-1.35.64-.17.37-.09.63-.16.66-.04.03-.28-.22-.18-.76.05-.26.2-.57.51-.83.31-.26.78-.4,1.26-.35,1.02.06,1.94.98,2.42,2.01.53,1.04.86,2.31.84,3.66-.06,2.65-1.39,5.15-3.28,5.72-.92.25-1.7-.02-2.1-.33-.41-.32-.48-.61-.44-.64Z"/>
            </g>
            <path class="cls-5" d="m569.55,44.6c-2.2-3.97-5.11-7.04-8.56-9.43-3.78-3.11-8.03-5.63-12.66-7.17-7.24-2.4-15.47-2.26-22.24,1.27-2.46,1.28-4.73,3.1-6.29,5.36-4.71,2.93-9.41,8.39-7.54,9.42l2.61-2.77s1.14,2.36,5.91,5.97c.1.08.22.15.34.22.42.31.89.57,1.39.78l.26.16c5.62,1.88,9.27,1.12,14.86-.83,3.87-1.35,7.39-3.55,11.14-5.19,3.26,0,6.48,1.15,9.01,3.36.47.41.85.78,1.07,1.08,1.39,1.82,1.46,4.34.95,6.57-.52,2.23-1.55,4.3-2.19,6.5-1.18,4.03-1,8.32-.81,12.52.27,5.91.6,12.06,3.51,17.21,1.36,2.41,4.31,4.81,6.71,2.24,1-1.07,1.42-2.55,1.36-4.02-.16-4.01,3.36-5.86,5.19-8.77,1.48-2.36,1.77-5.26,1.84-8.05.24-9.13-1.44-18.44-5.87-26.42Z"/>
          </g>
        </g>
        <path class="cls-16" d="m569.12,136.61s-15.82,14.68-28.57,14.61c-12.75-.07-15.81-6.77-15.81-6.77l-7.18,9.14s-.68,59.62-1.48,60.66c-.8,1.04,7.5,6.23,7.5,6.23l42.31-60.73,3.23-23.14Z"/>
        <g>
          <path class="cls-14" d="m475.51,264.05l6-37.12s5.89-50.99,13.05-54.64l11.1,50.49-8.16,118.41-18.01,14.47s-5.99-1.98-7.62-7.53,2.83-61.05,2.83-61.05"/>
          <path class="cls-14" d="m524.73,144.45h0l-.84-5.18c-1.92,1.51-7.04,9.51-7.04,9.51-7.03,5.94-21.69,20.96-24.36,26.83-3.79,8.34-4.17,46.63-4.17,46.63l1.88,189.38,126.65.19-2.04-85.8-4.03-169.26-31.09-15.64-8.33-9.16-52.37,85.36.37-57.48c.04-5.58,1.92-10.98,5.37-15.37Z"/>
          <path class="cls-14" d="m658.29,299.75c3.32-6.42,3.92-13.89,1.85-20.82-7.12-23.8-29.28-97.48-33.32-106.64-4.43-10.06-17.07-16.06-17.07-16.06l-19.45,51.08,4.94,23.82,17.82,50.87h0l-52.13,60.99,37.26,30.65s56.18-66.46,59.97-73.67c.04-.07.08-.14.11-.22Z"/>
          <path class="cls-13" d="m521.47,348.61c.39-.15,13.62,2.25,16.13,1.59,2.51-.66,8.06-2.12,14.15-2.64,6.08-.53,12.75-1.64,12.75-1.64l25.72,21.16-10.58,3.75s-6.74,1.06-16.26-1.85c-9.52-2.91-24.99-10.84-24.99-10.84,0,0-6.08.26-10.58-.53-4.49-.79-11.9-6.87-6.35-8.99Z"/>
          <path class="cls-5" d="m516.88,411.82s.02-.18.03-.52c0-.37.01-.88.02-1.52,0-1.37,0-3.34,0-5.85-.03-5.11-.07-12.45-.13-21.5-.13-18.15-.44-43.23-.39-70.92.03-13.85.16-27.05.38-39.04.14-6,.26-11.7.38-17.03.24-5.33.47-10.29.67-14.83.39-9.04.71-16.37.93-21.47.09-2.51.17-4.47.22-5.84.02-.64.03-1.15.04-1.52,0-.34,0-.52,0-.52-.01,0-.03.17-.06.52-.03.37-.06.88-.11,1.52-.08,1.37-.2,3.33-.34,5.84-.27,5.11-.66,12.43-1.14,21.47-.23,4.54-.48,9.5-.75,14.83-.14,5.34-.29,11.04-.45,17.04-.26,12-.41,25.2-.44,39.05-.05,27.7.33,52.78.58,70.93.14,9.05.26,16.38.34,21.5.05,2.51.09,4.47.12,5.84.02.64.04,1.15.05,1.52.01.34.03.52.04.52Z"/>
          <path class="cls-5" d="m579.7,141.11s-.16.19-.43.57c-.29.43-.68,1-1.17,1.71-1.04,1.56-2.49,3.75-4.31,6.49-3.68,5.63-8.82,13.5-14.83,22.7l.19-.13c-3.51.88-7.24,1.81-11.11,2.77l-.4.1.19.37c1.24,2.43,2.54,4.97,3.87,7.56.2.4.41.79.59,1.16l.03-.36c-9.52,12.36-18.1,23.49-24.34,31.6-3.05,4.01-5.53,7.27-7.29,9.58-.82,1.1-1.47,1.98-1.95,2.62-.2.28-.36.5-.49.69-.11.16-.16.24-.15.25,0,0,.08-.06.2-.21.15-.18.33-.39.55-.65.5-.63,1.19-1.48,2.05-2.55,1.8-2.28,4.33-5.49,7.46-9.45,6.28-8.07,14.92-19.16,24.5-31.47l.13-.17-.1-.19c-.19-.37-.39-.76-.59-1.16-1.33-2.59-2.63-5.13-3.88-7.55l-.21.47c3.86-.98,7.59-1.92,11.1-2.81l.12-.03.07-.1c5.93-9.25,11-17.17,14.63-22.83,1.75-2.78,3.16-5.01,4.16-6.59.45-.74.81-1.32,1.08-1.77.24-.4.36-.62.34-.63Z"/>
          <path class="cls-5" d="m518.09,228.81s-.08-.3-.29-.85c-.19-.56-.55-1.34-.91-2.4-.76-2.1-1.74-5.19-2.8-9.05-2.09-7.74-4.48-18.61-6.57-30.8l-.04.23c.31-.5.64-1.04.97-1.58,1.81-2.94,3.57-5.81,5.25-8.56l.41-.67-.77.18c-2.15.52-4.23,1.02-6.23,1.5l.37.41c2.77-8.26,5.14-15.32,6.84-20.41.8-2.46,1.44-4.44,1.91-5.88.2-.64.35-1.16.48-1.57.1-.36.15-.55.13-.56-.02,0-.09.17-.23.52-.15.4-.34.91-.57,1.54-.51,1.42-1.21,3.38-2.08,5.82-1.76,5.06-4.21,12.11-7.07,20.33l-.19.54.56-.13c2-.47,4.09-.96,6.24-1.47l-.35-.49c-1.69,2.75-3.46,5.61-5.27,8.55-.33.54-.67,1.08-.97,1.58l-.07.11.02.12c2.1,12.22,4.57,23.08,6.78,30.82,1.12,3.86,2.17,6.94,3.01,9.02.39,1.05.79,1.83,1.03,2.37.25.53.39.81.41.8Z"/>
          <path class="cls-13" d="m481.75,332.05s9.57.65,12.61,2.03c3.04,1.38,5.16,6.08,7.56,8.02,2.4,1.94,6,2.9,5.17,5.32-.83,2.42-4.15,4.08-7.19,2.98-3.04-1.11-6.64-2.98-6.64-2.98h-15.21s-3.04-12.03-3.32-11.86c-.28.17,4.27-3.53,7.03-3.52Z"/>
          <path class="cls-5" d="m489.01,203.05c-.18,0-.33,29.03-.33,64.82,0,35.81.15,64.83.33,64.83s.33-29.02.33-64.83c0-35.8-.15-64.82-.33-64.82Z"/>
          <path class="cls-5" d="m629.59,336.09s-.21.21-.6.65c-.4.46-.96,1.12-1.69,1.96-1.49,1.75-3.64,4.28-6.38,7.51-5.5,6.54-13.38,15.89-22.94,27.25l.38-.04c-10.72-8.84-23.44-19.33-37.22-30.69l.04.47c3.86-4.51,7.89-9.23,12-14.04,14.78-17.32,28.56-33.47,40.09-46.98l.11-.12-.05-.15c-5.4-15.28-9.9-27.97-13.05-36.88-1.58-4.41-2.82-7.88-3.68-10.28-.43-1.16-.76-2.06-.99-2.7-.23-.61-.37-.91-.37-.91,0,0,.08.33.28.94.22.65.52,1.55.91,2.72.83,2.41,2.02,5.9,3.54,10.33,3.1,8.93,7.51,21.65,12.82,36.96l.05-.28c-11.55,13.49-25.36,29.62-40.17,46.92-4.11,4.81-8.14,9.53-12,14.04l-.22.26.26.21c13.81,11.33,26.56,21.79,37.3,30.61l.21.17.17-.21c9.48-11.42,17.29-20.82,22.76-27.4,2.69-3.27,4.8-5.83,6.26-7.61.7-.86,1.24-1.53,1.63-2.01.36-.46.53-.7.53-.7Z"/>
          <path class="cls-5" d="m618.58,163.22s-.19-.04-.54-.05c-.36,0-.89-.04-1.56,0-1.36.04-3.33.23-5.7.76-4.73,1.02-11.19,3.73-16.54,9-5.34,5.28-8.13,11.71-9.2,16.43-.56,2.37-.78,4.34-.83,5.69-.05.68-.02,1.21-.02,1.56,0,.36.02.54.05.54.06,0,.1-.75.24-2.09.13-1.34.42-3.27,1.03-5.6,1.18-4.63,3.99-10.9,9.22-16.07,5.23-5.16,11.54-7.9,16.18-9.02,2.33-.58,4.27-.84,5.61-.96,1.34-.12,2.09-.16,2.09-.21Z"/>
          <path class="cls-5" d="m633.15,285.8c.04-.06-.86-.83-2.53-1.74-1.67-.91-4.15-1.9-7.03-2.38-2.88-.47-5.55-.34-7.42,0-1.88.33-2.98.76-2.96.83.03.23,4.62-1.14,10.27-.17,5.66.9,9.57,3.67,9.67,3.46Z"/>
          <polygon class="cls-14" points="489.56 347.42 476.76 347.42 492.76 395.45 497.51 361.94 489.56 347.42"/>
          <path class="cls-5" d="m493.26,347.42s-.41-.06-1.18-.09c-.86-.02-1.98-.05-3.35-.08-2.99-.03-7.08-.07-11.97-.12h-.4s.13.38.13.38c1.56,4.72,3.39,10.27,5.35,16.2,2.93,8.8,5.62,16.74,7.6,22.49.98,2.8,1.78,5.09,2.37,6.79.27.74.5,1.34.68,1.84.16.42.26.63.28.63s-.03-.24-.15-.67c-.15-.5-.33-1.12-.56-1.88-.54-1.71-1.28-4.03-2.17-6.86-1.86-5.78-4.48-13.75-7.41-22.55-1.99-5.92-3.85-11.46-5.44-16.17l-.27.38c4.88-.05,8.98-.09,11.97-.12,1.37-.03,2.49-.06,3.35-.08.77-.03,1.18-.06,1.18-.09Z"/>
          <path class="cls-5" d="m489.01,332.71s-.51-.24-1.5-.46c-.98-.23-2.43-.5-4.26-.52-1.8,0-4.06.25-6.21,1.49-2.17,1.21-3.85,3.51-4.83,6.12-1.99,5.32-.48,10.92,2.2,13.49,1.32,1.3,2.67,1.96,3.59,2.37.94.39,1.48.52,1.5.48.02-.05-.5-.26-1.39-.72-.87-.47-2.15-1.18-3.37-2.46-2.44-2.49-3.81-7.85-1.91-12.93.94-2.5,2.52-4.67,4.51-5.82,1.99-1.19,4.15-1.49,5.9-1.54,3.56-.04,5.73.65,5.75.51Z"/>
          <path class="cls-5" d="m585.8,369.4c-.04-.15-2.6,1.26-7.12,1.49-2.25.12-4.94-.09-7.85-.73-2.92-.63-6.04-1.68-9.29-2.88-6.5-2.41-12.4-4.57-16.69-6.09-2.06-.72-3.77-1.32-5.08-1.78-1.21-.41-1.88-.61-1.9-.57s.63.33,1.8.81c1.3.51,2.98,1.18,5.01,1.98,4.24,1.64,10.11,3.87,16.62,6.28,3.26,1.2,6.42,2.25,9.39,2.86,2.97.62,5.72.79,8.01.6,2.29-.17,4.1-.67,5.3-1.11.6-.22,1.05-.43,1.35-.58.3-.15.45-.25.44-.27Z"/>
          <path class="cls-5" d="m583.03,411.32c.18.02,1.11-7.92,2.06-17.72.96-9.81,1.58-17.77,1.4-17.79-.18-.02-1.11,7.92-2.06,17.72-.96,9.8-1.58,17.77-1.4,17.79Z"/>
          <path class="cls-5" d="m548.74,409.72c.02-.06-.67-.27-1.85-.77-1.18-.49-2.83-1.4-4.52-2.94-1.66-1.56-3.35-3.75-4.61-6.51-1.3-2.73-2.24-5.97-2.86-9.42-1.22-6.93-1.14-13.36-.97-17.96.1-2.31.23-4.18.32-5.47.09-1.29.14-2.01.09-2.01-.04,0-.18.7-.35,1.99-.18,1.29-.38,3.15-.54,5.47-.29,4.62-.46,11.09.78,18.11.63,3.49,1.6,6.78,2.96,9.57,1.32,2.8,3.09,5.04,4.85,6.6,1.78,1.54,3.51,2.4,4.74,2.83.6.26,1.11.34,1.43.44.33.08.51.12.51.09Z"/>
          <path class="cls-5" d="m585.67,372.4c-.09-.07-1.12,1.24-3.01,3.13-1.88,1.89-4.69,4.31-8.16,6.44-3.48,2.12-6.92,3.5-9.46,4.31-2.55.81-4.18,1.13-4.16,1.24,0,.05.42,0,1.17-.11.75-.1,1.82-.33,3.12-.68,2.61-.7,6.14-2.04,9.68-4.19,3.53-2.16,6.34-4.68,8.16-6.68.91-1,1.6-1.85,2.04-2.46.44-.61.67-.96.63-.99Z"/>
          <path class="cls-5" d="m540.55,229.54s-1.62,1.24-1.49,3.24c.12,1.99,0,15.56,0,15.56,0,0-.5,1.99,1.49,1.99v-16.19s0-4.6,0-4.6Z"/>
          <rect class="cls-5" x="540.15" y="227.32" width="4.16" height="6.81"/>
          <path class="cls-5" d="m543.48,228.1h-2.55v-2.62c0-.7.57-1.27,1.27-1.27h0c.7,0,1.27.57,1.27,1.27v2.62Z"/>
          <path class="cls-5" d="m575.72,233.72c0-.18-9.34-.33-20.87-.33s-20.87.15-20.87.33c0,.18,9.34.33,20.87.33s20.87-.15,20.87-.33Z"/>
          <g class="cls-17">
            <polyline class="cls-3" points="521.66 224.2 523.58 222.37 558.7 188.79 554.85 177.8 560.95 177.8 573.16 151.22 559.22 172.76 548.12 175.55 552.59 184.27"/>
          </g>
          <g class="cls-17">
            <path class="cls-3" d="m550.94,269.44c-3.46-.27-6.97-1.04-9.83-3.01-2.85-1.97-4.82-5.87-5.56-8.25.34,2.77.69,6.18,1.63,8.81.94,2.62,2.55,5.1,4.92,6.57,2.73,1.7,6.13,1.88,9.33,1.63,4.29-.35,8.52-1.41,12.47-3.13,2.81-1.23,5.76-3.15,6.34-6.16-5.99,2.81-12.7,4.04-19.3,3.53Z"/>
          </g>
        </g>
      </g>
      <g id="Layer_30" data-name="Layer 30">
        <g>
          <g>
            <g>
              <rect class="cls-12" x="494.86" y="224.04" width="16.39" height="11.68" rx=".77" ry=".77"/>
              <path class="cls-5" d="m495.62,235.71s-.22.09-.54-.15c-.15-.12-.3-.34-.31-.64,0-.28-.01-.58-.02-.92-.02-1.46-.05-3.45-.08-5.87,0-.62-.01-1.27-.02-1.95,0-.34,0-.68,0-1.04,0-.18-.03-.34.03-.58.05-.22.19-.43.38-.56.18-.14.45-.2.65-.19h.56c.38,0,.76,0,1.15,0,.78,0,1.58,0,2.4,0,3.29,0,6.89,0,10.67-.01.32,0,.63.15.82.4.21.23.23.63.21.83,0,.47,0,.93,0,1.39,0,.92,0,1.83,0,2.72,0,1.78-.01,3.5-.02,5.14v.61c.01.22-.07.52-.24.71-.17.2-.41.33-.67.36-.25.01-.41,0-.61,0-.78,0-1.53,0-2.26-.01-1.45-.01-2.81-.02-4.06-.03-2.42-.04-4.41-.07-5.87-.09-.65-.02-1.17-.04-1.6-.05-.37-.02-.56-.03-.56-.05s.19-.04.56-.05c.42-.01.95-.03,1.6-.05,1.46-.02,3.45-.05,5.87-.08,1.25,0,2.6-.02,4.06-.03.73,0,1.48,0,2.26-.01h.56c.14-.02.27-.09.36-.2.09-.12.13-.23.12-.41v-.61c0-1.64,0-3.36-.01-5.14,0-.89,0-1.8,0-2.72,0-.46,0-.92,0-1.39,0-.27,0-.36-.11-.51-.09-.13-.25-.2-.41-.2-3.78-.01-7.38-.02-10.67-.03-.82,0-1.62,0-2.4-.01-.39,0-.77,0-1.15,0h-.56c-.17-.01-.28.02-.4.1-.24.17-.25.41-.24.79,0,.35,0,.7,0,1.04,0,.68-.01,1.32-.02,1.95-.04,2.42-.07,4.41-.09,5.87,0,.34-.02.64-.02.92-.01.25.1.44.22.56.26.24.48.2.47.23Z"/>
            </g>
            <path class="cls-16" d="m497.58,230.21c0,.99.8,1.8,1.8,1.8s1.8-.8,1.8-1.8-.8-1.8-1.8-1.8-1.8.8-1.8,1.8Z"/>
            <rect class="cls-8" x="502.31" y="229.64" width="6.7" height="1.15" rx=".45" ry=".45" transform="translate(1011.14 460.81) rotate(-179.96)"/>
          </g>
          <polyline class="cls-5" points="504.34 225.85 506.07 221.21 500.05 221.2 501.51 225.85 504.34 225.85"/>
        </g>
      </g>
    </g>
    <g id="Character_2" data-name="Character 2">
      <g>
        <g>
          <path class="cls-5" d="m917.42,68.61s8.25,30.83,8.96,52.64l.24,7.27s-18.19,15.11-33.46,16.04l-12.79-31.45,37.06-44.5Z"/>
          <g>
            <g>
              <g>
                <path class="cls-5" d="m836.6,87.52c3.48-15.04,4.81-32.54,17.32-42.34,9.28-7.28,19.85-9.3,31.63-8.81,5.8.24,12.35,2.92,17.4,5.78,6.93,3.92,9.86,11.87,13.2,19.1,6.7,14.47,5.85,34.08,1.31,39.52l-60.49,31.94c-12.08-6.29-19.64-8.79-21.58-24.89-.81-6.78-.35-13.65,1.19-20.3Z"/>
                <g>
                  <path class="cls-9" d="m855.22,57.13l38.07-11.23c12.26-1.79,21.05,13.05,22.31,25.38,1.41,13.7,2.58,30.47,1.36,40.78-2.46,20.73-18.14,23.97-18.14,23.97,0-.07-.04.31.09,6.43l.4,9.92c.16,4.01-.9,8.05-3.35,11.23-5.61,7.27-15.85,8.25-27.91,3.78-6.99-2.59-11.86-7.79-12.39-14.88l-6.62-87.78c-.22-3.76,2.47-7.06,6.19-7.6Z"/>
                  <path class="cls-5" d="m908.56,90.08c.1,1.39-.99,2.63-2.44,2.77-1.45.14-2.71-.88-2.82-2.27-.1-1.39.99-2.63,2.44-2.77,1.45-.14,2.72.88,2.82,2.28Z"/>
                  <path class="cls-5" d="m912.42,83.7c-.31.36-2.37-1.04-5.22-.93-2.84.08-4.87,1.62-5.19,1.29-.16-.15.15-.78,1.03-1.48.87-.69,2.37-1.39,4.14-1.46,1.77-.06,3.29.53,4.17,1.17.9.64,1.22,1.25,1.07,1.41Z"/>
                  <path class="cls-5" d="m882.07,89.82c.1,1.39-.99,2.63-2.44,2.77-1.45.13-2.71-.88-2.82-2.27-.1-1.39.99-2.63,2.44-2.77,1.45-.14,2.72.88,2.82,2.28Z"/>
                  <path class="cls-5" d="m884.45,84.03c-.31.36-2.38-1.04-5.22-.92-2.84.08-4.87,1.62-5.19,1.29-.16-.15.15-.78,1.03-1.48.87-.69,2.37-1.39,4.14-1.46,1.77-.06,3.29.53,4.17,1.17.9.64,1.22,1.25,1.07,1.41Z"/>
                  <path class="cls-5" d="m895.53,102.46c-.02-.16,1.74-.54,4.58-1.02.72-.1,1.4-.27,1.51-.77.15-.53-.18-1.3-.57-2.13-.75-1.73-1.54-3.54-2.36-5.44-3.29-7.75-5.7-14.14-5.39-14.27.31-.13,3.24,6.05,6.53,13.8.79,1.91,1.55,3.74,2.28,5.48.31.81.82,1.73.49,2.83-.17.55-.69.96-1.15,1.11-.46.16-.87.18-1.23.22-2.88.27-4.66.35-4.68.19Z"/>
                  <path class="cls-4" d="m898.82,136.03s-13.82,1.44-27.88-6.27c0,0,7.39,14.15,27.93,11.41l-.05-5.13Z"/>
                  <path class="cls-4" d="m886.35,108.14c.76-1.36,2.21-2.11,3.72-2.22,2.17-.16,4.03.52,5.52,2.47.51.56.53,2.2.35,2.66-.18.46-.04.23-.37.56-1.23,1.17-2.53,2.35-4.14,2.8-1.62.45-3.65,0-4.78-1.55-1-1.38-1.05-3.36-.28-4.72Z"/>
                  <path class="cls-5" d="m886.73,104.88c.46-.05.61,3.04,3.34,5.11,2.73,2.08,6.01,1.58,6.05,2.01.05.19-.71.63-2.09.73-1.36.11-3.37-.24-5.04-1.51-1.67-1.27-2.45-3.03-2.61-4.29-.18-1.28.13-2.06.35-2.06Z"/>
                  <path class="cls-5" d="m885.53,73.63c-.2.8-3.07.71-6.35,1.43-3.3.66-5.88,1.89-6.39,1.24-.23-.31.17-1.08,1.18-1.93,1-.85,2.65-1.72,4.62-2.14,1.97-.41,3.83-.27,5.09.1,1.27.37,1.94.92,1.86,1.3Z"/>
                  <path class="cls-5" d="m912.18,76.05c-.65.56-2.72-.42-5.32-.83-2.59-.49-4.87-.27-5.29-1.01-.18-.36.26-.95,1.32-1.41,1.04-.47,2.7-.73,4.48-.42,1.78.31,3.25,1.11,4.06,1.9.83.79,1.03,1.49.74,1.77Z"/>
                </g>
              </g>
              <path class="cls-5" d="m892.76,43.68c.04.15.06.3.1.45l-.07.03c0-.16-.02-.32-.03-.48Z"/>
            </g>
            <g>
              <g>
                <path class="cls-8" d="m899.77,90.07c.18,5.07,2.75,10.41,7.63,12.47,4.74,1.99,9.84-.24,12.53-4.4,1.47-2.28,2.25-4.98,2.34-7.69.07-2.3-.25-4.87-1.81-6.67-2.74-3.16-8.05-2.9-11.82-2.56-2.2.2-4.6.64-6.37,2.07-2.04,1.65-2.55,4.28-2.5,6.78.01.53-.81.55-.82.02-.05-2.39.37-4.9,2.04-6.73,1.46-1.6,3.6-2.36,5.69-2.72,2.45-.43,5.04-.51,7.51-.29,2.1.19,4.27.67,5.96,2,1.81,1.43,2.63,3.64,2.87,5.88.31,2.94-.19,5.99-1.45,8.66-2.24,4.74-7.17,8.11-12.52,7.01-6.31-1.29-9.89-7.79-10.1-13.81-.02-.53.81-.55.82-.02Z"/>
                <path class="cls-8" d="m865.34,90.21c.2,5.56,3.57,11.07,8.84,13.16,5.19,2.06,11.14,0,14.43-4.39,1.64-2.19,2.59-4.89,2.71-7.63.1-2.37-.31-4.96-2.06-6.7-1.52-1.52-3.67-2.14-5.75-2.44-2.58-.37-5.24-.27-7.84-.12-2.47.14-5.19.36-7.37,1.66-2.33,1.39-3.02,3.89-2.97,6.47.01.53-.81.55-.82.02-.05-2.4.48-4.86,2.38-6.49,1.73-1.48,4.07-1.99,6.27-2.27,2.89-.36,5.91-.46,8.82-.25,2.38.17,4.89.61,6.88,2.02,4.49,3.19,3.84,10.18,1.5,14.48-2.76,5.08-8.64,8.21-14.4,7.03-6.68-1.37-11.22-7.94-11.46-14.53-.02-.53.81-.55.82-.02Z"/>
                <path class="cls-8" d="m900.23,84.9c-2.81-2.58-7.17-2.48-9.87.22-.37.38-.97-.19-.6-.57,3.01-3.03,7.89-3.14,11.03-.26.39.36-.18.96-.57.6h0Z"/>
              </g>
              <path class="cls-8" d="m849.45,91.33c.14-.51,1.24-.79,1.64-.97,1.31-.57,2.62-1.11,3.94-1.65,3.12-1.28,6.26-2.53,9.39-3.78.73-.29,1.47-.58,2.2-.87.49-.2.73.6.24.79-4.83,1.9-9.65,3.81-14.43,5.83-.55.23-1.09.46-1.63.71-.16.07-.31.15-.47.22-.27.13-.16.19-.09-.08-.14.51-.94.32-.8-.2h0Z"/>
              <g class="cls-18">
                <path class="cls-12" d="m908.56,83.77c.1-.46.56-.81.99-1,.43-.18,1.35-.26,1.82-.3,1.53-.16,3.09-.18,4.57.2,1.49.39,2.9,1.21,3.77,2.47.77,1.12,1.07,2.51,1.09,3.86.02,1.36-.23,2.7-.48,4.04-.17.91-.5,2-1.4,2.21-.74.17-1.44-.36-2.01-.86-3.03-2.65-6.14-5.4-7.84-9.05-.19-.41-.61-1.13-.51-1.57Z"/>
              </g>
              <g class="cls-18">
                <path class="cls-12" d="m877.16,84.34c.1-.46.56-.81.99-1,.43-.18,1.35-.26,1.82-.3,1.53-.16,3.09-.18,4.57.2,1.49.39,2.9,1.21,3.77,2.47.77,1.12,1.07,2.51,1.09,3.86.02,1.36-.23,2.7-.48,4.04-.17.91-.5,2-1.4,2.21-.74.17-1.44-.36-2.01-.86-3.03-2.65-6.14-5.4-7.84-9.05-.19-.41-.61-1.13-.51-1.57Z"/>
              </g>
            </g>
            <path class="cls-5" d="m866.14,144.34c-.58-5.4,1.59-10.83.96-16.22-.67-5.72-4.37-10.62-5.89-16.18-2.44-8.9.91-18.36,2.13-27.55,5.15-.64,9.96-3.73,13.4-7.73,4.13-4.82,6.63-10.79,9.06-16.65-.14,5.75-2.13,11.43-5.61,16.01,2.29.48,4.7-.5,6.42-2.09s2.84-3.7,3.77-5.85c2.24-5.2,3.46-10.82,3.65-16.48.76,8.09-.14,16.35-2.69,24.07,1.44-.44,2.99-.05,4.48.17,1.49.22,3.21.17,4.26-.91.71-.72.96-1.76,1.17-2.75,1.42-6.88,1.65-14.01.68-20.97,1.84,3.76,3.66,7.57,4.73,11.62,1.07,4.05,1.34,8.4.09,12.4.59.75,1.85.63,2.56-.02.7-.65.97-1.64,1.12-2.59.54-3.46-.07-6.99-.68-10.44,2.06,3.65,2.74,7.89,3.88,11.92,1.14,4.03,2.95,8.17,6.46,10.47.61-6.04.39-10.16-.51-15.81-.69-4.32-2.74-8.6-4.63-12.55-2.12-4.42-5.06-8.75-8.35-11.63-6.07-5.32-8.61-3.03-12.48-1l-.46.19c-.01-.09-.02-.19-.03-.29l-.17-.82c-10.09-2.27-20.79-1.77-30.62,1.43-7.31,2.38-16.3,9.9-20.02,16.62-.07.13-.14.25-.21.38-8.62,15.55-14.3,33.57-14.72,72.54h0l38.28,10.68Z"/>
          </g>
        </g>
        <g>
          <path class="cls-5" d="m849.92,193.26s.05-.56-.04-1.55c-.09-1-.3-2.43-.76-4.17-.88-3.46-2.92-8.14-6.63-12.23-3.71-4.09-8.18-6.57-11.53-7.78-1.68-.62-3.09-.97-4.08-1.15-.98-.18-1.53-.23-1.54-.19-.03.13,2.17.46,5.45,1.79,3.26,1.3,7.58,3.8,11.21,7.79,3.62,3.99,5.69,8.53,6.67,11.9,1.01,3.39,1.12,5.61,1.25,5.59Z"/>
          <path class="cls-14" d="m940.22,306.09s2.38,40.02-8.15,55.68l-7.78-26.37v-29.02s15.93-.29,15.93-.29Z"/>
          <path class="cls-16" d="m859.02,145.67s22.17,16.76,32.96,14.86c8.65-1.52,7.16-14.66,7.16-14.66l4.2,9.08,9.06,36.28-3.83,17.07-20.59-12.71-28.96-49.92Z"/>
          <path class="cls-14" d="m934.69,218.14c-2.33-23.94-31.12-65.4-31.12-65.4l-4.55-7.36,4.54,20.33s4.51,29.68,5.15,30.3c.03.03-25.38-24.58-25.38-24.58l-28.53-30.22-5.65,8.09-25.05,13.88,2.56,78.64,8.97,23.04s-26.45,72.41-29.88,98.09l-5.73,48.68,135.06-.22s-4.74-76.14-5.27-92.39c-.53-16.25-1.7-52.23-1.7-52.23,0,0,8.91-24.71,6.58-48.65Z"/>
          <path class="cls-5" d="m800.02,411.63s.04-.15.09-.44c.05-.33.11-.76.19-1.3.15-1.19.37-2.87.65-5.01.54-4.4,1.32-10.69,2.28-18.44.47-3.9.99-8.16,1.54-12.74.27-2.29.56-4.66.85-7.1.29-2.44.57-4.95,1.04-7.49,1.93-10.16,5.12-21.13,8.56-32.58,1.91-6.21,3.79-12.27,5.75-18.03,1.97-5.76,3.87-11.29,5.65-16.51,3.56-10.44,6.69-19.65,9.22-27.06l.03-.08-.03-.07c-2.52-6.3-4.54-11.33-5.94-14.83-.69-1.7-1.23-3.02-1.62-3.95-.18-.42-.32-.76-.43-1.02-.1-.23-.16-.34-.17-.34,0,0,.03.13.11.36.1.26.22.61.38,1.04.36.95.86,2.28,1.51,4,1.36,3.52,3.31,8.57,5.75,14.9v-.15c-2.57,7.39-5.76,16.59-9.38,27.01-1.8,5.22-3.71,10.74-5.7,16.5-1.98,5.77-3.86,11.82-5.77,18.04-3.45,11.46-6.62,22.44-8.53,32.67-.46,2.57-.74,5.09-1.01,7.53-.28,2.44-.55,4.81-.82,7.1-.52,4.58-1.01,8.85-1.46,12.75-.87,7.76-1.57,14.06-2.07,18.46-.23,2.15-.4,3.83-.53,5.02-.05.55-.09.98-.12,1.31-.02.3-.03.45-.02.45Z"/>
          <g class="cls-17">
            <path class="cls-3" d="m820.79,307.94s18.25,23.58,22.58,22.82c4.32-.75,8.6-8.99,8.6-8.99l4.76-2.22,4.65-8.49-10.05-8.98-30.54,5.85Z"/>
          </g>
          <path class="cls-14" d="m907.73,158.79s10.68,4.54,14.16,9.99c3.48,5.45,5.81,29.15,5.81,29.15l-16.96-28.56-3.01-10.59Z"/>
          <path class="cls-10" d="m892.09,309.27l-16.78-6.22-12.78-8.6-10.88,17.43,4.93,2.95s.14,4.22.15,4.73c.02.51,1.67,4.68,15.2,4.41,13.52-.27,16.68-7.14,16.68-7.14,0,0,7.03,8.06,9.95,9.32,2.92,1.26,5.67-2.55,5.67-2.55l-12.14-14.32Z"/>
          <path class="cls-10" d="m928.35,274.25s6.39,6.7,7.94,11.95c1.55,5.25.65,20.01.65,20.01l-1.84.06s.04,9.67-2.67,9.99c-2.71.32-5.28.4-5.43-3.97-.14-4.37,1.22-12.02,1.22-12.02l.12-26.03Z"/>
          <path class="cls-5" d="m915.42,411.63s.03-.19.04-.56c.01-.4.03-.95.06-1.64.04-1.48.09-3.6.16-6.32.11-5.52.27-13.45.47-23.24.33-19.65.79-46.74,1.3-76.66.97-29.94,1.14-57.09-.5-76.68-.92-9.79-2.84-17.58-4.77-22.73-.45-1.3-.92-2.43-1.34-3.4-.4-.98-.77-1.79-1.11-2.43-.31-.62-.56-1.11-.74-1.47-.17-.33-.26-.5-.27-.49s.06.18.21.52c.17.36.39.86.68,1.5.32.65.67,1.47,1.05,2.45.41.97.85,2.11,1.28,3.41,1.86,5.15,3.69,12.92,4.55,22.68,1.52,19.55,1.28,46.7.31,76.62-.43,29.93-.82,57.02-1.1,76.67-.11,9.79-.2,17.72-.26,23.24-.02,2.72-.03,4.84-.04,6.32,0,.7,0,1.24,0,1.64,0,.37.01.56.03.56Z"/>
          <path class="cls-5" d="m868.25,382.95s.24-.06.66-.23c.42-.19,1.07-.39,1.83-.81,1.57-.75,3.74-2.09,6.1-4.14,2.37-2.04,4.82-4.89,6.97-8.42,2.15-3.53,3.95-7.75,5.12-12.37,2.27-9.29,1.92-18.02,1.52-24.18-.22-3.1-.48-5.6-.69-7.32-.1-.8-.19-1.45-.25-1.98-.07-.45-.11-.69-.14-.69s-.02.24,0,.7c.03.53.08,1.19.13,1.99.12,1.73.31,4.23.47,7.32.29,6.16.55,14.82-1.69,23.99-1.15,4.55-2.91,8.72-5,12.21-2.09,3.49-4.47,6.33-6.76,8.39-4.59,4.16-8.38,5.35-8.28,5.53Z"/>
          <path class="cls-5" d="m907.73,158.79s0,.3.03.87c.04.62.11,1.45.18,2.51.19,2.25.45,5.43.79,9.43v.1s.1.05.1.05c.9.52,1.87,1.07,2.88,1.65l-.11-.21c-.49,6.6-1.1,15.01-1.8,24.53l.41-.27c-7.02-2.54-14.73-5.33-22.8-8.24-2.47-.89-4.9-1.76-7.29-2.62l.22.36c.36-2.5.72-4.95,1.06-7.34l.08-.53-.51.18c-2.99,1.06-5.89,2.09-8.68,3.08l.36.11c-6.84-9.72-12.67-18.01-16.83-23.92-2.06-2.89-3.7-5.19-4.87-6.82-.55-.76-.99-1.35-1.32-1.8-.3-.41-.47-.61-.48-.6-.02,0,.12.23.4.66.31.46.72,1.08,1.23,1.85,1.13,1.65,2.72,3.99,4.72,6.92,4.11,5.95,9.88,14.29,16.64,24.07l.13.19.22-.08c2.79-.98,5.7-2,8.69-3.05l-.43-.35c-.35,2.4-.71,4.85-1.08,7.34l-.04.27.26.09c2.39.86,4.82,1.74,7.28,2.63,8.08,2.9,15.79,5.67,22.82,8.2l.39.14.03-.41c.63-9.53,1.19-17.94,1.62-24.54v-.14s-.11-.07-.11-.07c-1.02-.57-1.99-1.11-2.9-1.61l.1.15c-.41-3.99-.74-7.17-.97-9.41-.12-1.05-.21-1.88-.29-2.5-.07-.57-.12-.86-.14-.86Z"/>
          <path class="cls-5" d="m928.23,300.28s.03-.2.05-.6c.01-.44.03-1.02.05-1.76.03-1.59.06-3.84.11-6.68.06-5.81.13-14.04.23-23.93v.08c1.5-5.27,2.85-11.12,4.14-17.38.65-3.13,1.26-6.37,1.85-9.69.63-3.31,1.07-6.77,1.18-10.29.28-9.82-1.53-19.16-4.65-27.08v.02c-2.08-6.07-4.74-11.39-7.13-16.09-2.42-4.69-4.7-8.73-6.64-12.05-1.94-3.32-3.53-5.91-4.65-7.66-.55-.84-.98-1.51-1.29-2-.3-.45-.46-.68-.48-.67-.01,0,.12.26.39.72.3.5.7,1.19,1.21,2.05,1.06,1.79,2.6,4.41,4.49,7.75,1.88,3.34,4.12,7.4,6.5,12.1,2.35,4.71,4.97,10.03,7.01,16.05h0s0,.03,0,.03c3.04,7.81,4.83,17.11,4.55,26.81-.11,3.49-.54,6.88-1.16,10.2-.59,3.31-1.19,6.55-1.83,9.67-1.28,6.25-2.6,12.11-4.07,17.35v.04s-.01.04-.01.04c0,9.89,0,18.12,0,23.93.02,2.84.04,5.09.05,6.68.01.73.03,1.32.03,1.76.01.4.03.6.04.6Z"/>
          <g class="cls-17">
            <path class="cls-3" d="m827.68,247.99c13.97-9.98,22.34-27.4,22.57-44.58l-22.57,44.58Z"/>
          </g>
          <g>
            <path class="cls-14" d="m833.96,158.7s-11.93,2.32-16.63,12.55c-4.7,10.22-35.88,87.54-36.48,92.98-.6,5.44,1.95,12.33,8.37,19.09,6.42,6.76,54.78,40.82,54.78,40.82l20.98-33.6-42.71-30.76,27.83-57.45s-2.06-39.44-16.14-43.63Z"/>
            <path class="cls-5" d="m804.45,267.44c.13.17,3.3-2.61,7.94-4.8,4.62-2.22,8.77-2.92,8.73-3.13-.01-.08-1.07-.01-2.73.35-1.66.36-3.93,1.06-6.28,2.18-2.35,1.12-4.32,2.44-5.65,3.5-1.33,1.06-2.05,1.84-2,1.9Z"/>
            <path class="cls-5" d="m806.04,255.25c0,.21,3.55.08,7.72,1.2,4.18,1.09,7.19,2.96,7.3,2.78.11-.12-2.83-2.3-7.13-3.42-4.29-1.16-7.92-.71-7.89-.56Z"/>
            <path class="cls-5" d="m789.21,283.32s-.09-.12-.28-.34c-.22-.24-.5-.56-.86-.96-.38-.42-.86-.93-1.36-1.6-.51-.65-1.12-1.39-1.68-2.3-1.19-1.78-2.5-4.1-3.29-7.04-.43-1.46-.66-3.08-.71-4.79,0-1.71.12-3.55.94-5.29,5.59-14.41,13.29-34.26,21.79-56.18,3.32-8.02,6.52-15.76,9.53-23.03,1.5-3.64,2.96-7.15,4.36-10.53,1.5-3.26,4.03-5.83,6.6-7.84l-.03.02c10.07-5.64,18.32-10.26,24.06-13.47l.03-.02.02-.03c2.09-2.79,3.71-4.95,4.84-6.45.52-.71.93-1.27,1.23-1.68.27-.38.41-.58.39-.59s-.17.17-.46.53c-.32.4-.74.93-1.3,1.63-1.15,1.48-2.81,3.61-4.96,6.35l.05-.04c-5.76,3.16-14.05,7.71-24.17,13.26h-.02s-.01.02-.01.02c-2.65,2.06-5.23,4.63-6.82,8.04-1.41,3.38-2.88,6.9-4.39,10.53-3.02,7.27-6.23,15.01-9.56,23.03-8.54,21.93-16.11,41.86-21.61,56.27-.82,1.78-.95,3.73-.92,5.46.06,1.75.31,3.41.77,4.88.84,2.98,2.2,5.31,3.43,7.08.59.91,1.22,1.64,1.75,2.28.51.66,1.01,1.16,1.41,1.56.38.38.68.69.91.92.21.2.32.3.33.3Z"/>
            <path class="cls-5" d="m819.67,306.74s.13.12.41.34c.31.23.72.54,1.24.93,1.13.83,2.75,2.01,4.81,3.52,4.23,3.05,10.28,7.43,17.71,12.8l.21.15.14-.22c5.88-9.37,13.07-20.83,21.05-33.56l.16-.26-.25-.18c-6.06-4.37-12.54-9.04-19.23-13.86-8.25-5.93-16.19-11.65-23.48-16.89l.1.4c8.27-16.76,15.38-31.17,20.43-41.43,2.49-5.1,4.47-9.16,5.85-11.99.66-1.37,1.17-2.45,1.54-3.21.16-.34.28-.62.38-.83.08-.19.12-.29.11-.29,0,0-.06.09-.16.27-.11.21-.25.47-.43.81-.39.75-.93,1.81-1.63,3.16-1.42,2.81-3.46,6.84-6.01,11.9-5.11,10.23-12.29,24.6-20.65,41.32l-.12.24.22.16c7.28,5.25,15.22,10.97,23.46,16.91,6.69,4.82,13.18,9.48,19.25,13.85l-.09-.43c-7.93,12.76-15.08,24.25-20.92,33.64l.35-.07c-7.49-5.3-13.58-9.61-17.84-12.62-2.1-1.46-3.74-2.61-4.89-3.42-.54-.37-.97-.66-1.28-.88-.29-.19-.44-.29-.45-.28Z"/>
            <path class="cls-5" d="m849.92,193.26s.05-.56-.04-1.55c-.09-1-.3-2.43-.76-4.17-.88-3.46-2.92-8.14-6.63-12.23-3.71-4.09-8.18-6.57-11.53-7.78-1.68-.62-3.09-.97-4.08-1.15-.98-.18-1.53-.23-1.54-.19-.03.13,2.17.46,5.45,1.79,3.26,1.3,7.58,3.8,11.21,7.79,3.62,3.99,5.69,8.53,6.67,11.9,1.01,3.39,1.12,5.61,1.25,5.59Z"/>
            <path class="cls-5" d="m819.67,306.74s.13.12.41.34c.31.23.72.54,1.24.93,1.13.83,2.75,2.01,4.81,3.52,4.23,3.05,10.28,7.43,17.71,12.8l.21.15.14-.22c5.88-9.37,13.07-20.83,21.05-33.56l.16-.26-.25-.18c-6.06-4.37-12.54-9.04-19.23-13.86-8.25-5.93-16.19-11.65-23.48-16.89l.1.4c8.27-16.76,15.38-31.17,20.43-41.43,2.49-5.1,4.47-9.16,5.85-11.99.66-1.37,1.17-2.45,1.54-3.21.16-.34.28-.62.38-.83.08-.19.12-.29.11-.29,0,0-.06.09-.16.27-.11.21-.25.47-.43.81-.39.75-.93,1.81-1.63,3.16-1.42,2.81-3.46,6.84-6.01,11.9-5.11,10.23-12.29,24.6-20.65,41.32l-.12.24.22.16c7.28,5.25,15.22,10.97,23.46,16.91,6.69,4.82,13.18,9.48,19.25,13.85l-.09-.43c-7.93,12.76-15.08,24.25-20.92,33.64l.35-.07c-7.49-5.3-13.58-9.61-17.84-12.62-2.1-1.46-3.74-2.61-4.89-3.42-.54-.37-.97-.66-1.28-.88-.29-.19-.44-.29-.45-.28Z"/>
          </g>
          <g class="cls-17">
            <polygon class="cls-3" points="872.39 182.62 879.51 182.39 878.02 189.59 910.1 197.74 880.01 186.9 881.08 179.55 872.39 182.62"/>
          </g>
          <path class="cls-5" d="m935.08,411.41s.02-.34,0-.99c-.03-.71-.07-1.65-.11-2.84-.13-2.53-.31-6.1-.53-10.52-.51-8.97-1.23-21.36-2.03-35.31l-.07.22c1.22-1.61,2.17-3.52,2.96-5.51,2.07-5.33,3.02-10.77,3.75-15.86.69-5.11,1.04-9.94,1.26-14.33.41-8.79.26-15.84.05-20.19v-.14s-.14,0-.14,0c-1.62.09-2.88.16-3.81.21-.4.03-.72.05-.98.07-.22.02-.33.04-.33.05,0,.01.11.02.33.02.26,0,.59,0,.98,0,.92-.02,2.19-.04,3.81-.07l-.14-.13c.09,4.34.14,11.39-.33,20.15-.24,4.38-.63,9.19-1.33,14.27-.74,5.06-1.7,10.47-3.74,15.7-.77,1.95-1.7,3.81-2.87,5.35l-.08.1v.12c.89,13.95,1.68,26.33,2.25,35.3.31,4.41.56,7.97.74,10.51.1,1.19.17,2.13.23,2.83.06.65.1.98.12.98Z"/>
        </g>
      </g>
      <g id="Layer_31" data-name="Layer 31">
        <g>
          <g>
            <g>
              <path class="cls-12" d="m873.59,230.32h17.91c.51,0,.93-.42.93-.94v-12.36c0-.52-.42-.94-.93-.94h-17.91c-.51,0-.93.42-.93.94v12.36c0,.52.42.94.93.94Z"/>
              <path class="cls-5" d="m873.59,230.32s-.27.1-.66-.19c-.18-.14-.37-.42-.37-.78,0-.34-.02-.71-.03-1.12-.02-1.78-.06-4.21-.1-7.16,0-.76-.01-1.55-.02-2.37,0-.41,0-.83,0-1.26,0-.22-.03-.41.03-.71.07-.27.23-.52.46-.68.22-.17.54-.24.78-.23h.68c.45,0,.92,0,1.38-.01.94,0,1.9,0,2.89-.01,3.96,0,8.31-.02,12.87-.03.38,0,.76.18.99.49.25.28.28.77.26,1.01,0,.57,0,1.14,0,1.7,0,1.12,0,2.23,0,3.32,0,2.17-.01,4.27-.02,6.27v.75c.02.27-.08.64-.28.87-.2.24-.5.4-.8.44-.3.01-.49,0-.74,0-.94,0-1.85-.01-2.73-.02-1.75-.01-3.39-.03-4.89-.04-2.92-.04-5.32-.08-7.08-.1-.78-.02-1.42-.04-1.93-.06-.44-.02-.67-.04-.67-.06s.23-.04.67-.06c.51-.02,1.15-.04,1.93-.06,1.76-.03,4.16-.06,7.08-.1,1.5-.01,3.14-.02,4.89-.04.88,0,1.79-.01,2.73-.02h.68c.17-.03.32-.11.43-.25.11-.14.16-.28.15-.5v-.75c0-2-.02-4.1-.02-6.27,0-1.09,0-2.2,0-3.32,0-.56,0-1.13,0-1.7,0-.33,0-.44-.13-.62-.11-.15-.3-.24-.49-.24-4.56,0-8.9-.02-12.87-.03-.99,0-1.95,0-2.89-.01-.47,0-.93,0-1.38,0h-.68c-.21-.01-.34.03-.48.12-.29.2-.3.49-.29.97,0,.43,0,.85,0,1.26,0,.82-.01,1.62-.02,2.37-.04,2.96-.08,5.38-.1,7.16-.01.41-.02.79-.03,1.12-.02.3.12.54.27.68.31.29.58.25.57.28Z"/>
            </g>
            <path class="cls-16" d="m875.94,223.61c0,1.21.97,2.19,2.17,2.19s2.17-.98,2.17-2.19-.97-2.19-2.17-2.19-2.17.98-2.17,2.19Z"/>
            <rect class="cls-8" x="881.64" y="222.91" width="8.08" height="1.41" rx=".45" ry=".45" transform="translate(1771.37 447.22) rotate(180)"/>
          </g>
          <polyline class="cls-5" points="884.09 218.29 886.17 212.62 878.91 212.62 880.68 218.29 884.09 218.29"/>
        </g>
      </g>
    </g>
    <g id="Layer_11" data-name="Layer 11">
      <g>
        <g>
          <path class="cls-7" d="m619,219.29s-39.57,15.86-41.44,29.39c-1.87,13.53-.93,96.56,12.59,113.82,13.53,17.26,24.26,20.06,36.85,17.73,12.59-2.33,23.46-7.66,23.46-7.66l16.64-66.51-48.12-86.76Z"/>
          <path class="cls-5" d="m649.96,351.39c0,.06-.86.04-2.38-.06-1.52-.11-3.74-.2-6.46-.23-5.45-.06-13.01.4-21.15,2.14-8.14,1.76-15.22,4.44-20.17,6.73-2.48,1.14-4.46,2.13-5.8,2.86-1.35.71-2.12,1.08-2.15,1.03-.03-.06.67-.53,1.97-1.35,1.29-.83,3.24-1.92,5.7-3.14,4.91-2.47,12.04-5.27,20.26-7.05,8.23-1.75,15.88-2.12,21.37-1.89,2.75.11,4.96.3,6.48.53,1.52.21,2.36.36,2.35.42Z"/>
          <path class="cls-5" d="m604.55,356.05s-.16-.4-.39-1.18c-.22-.78-.55-1.94-.9-3.45-.73-3.01-1.66-7.39-2.52-12.86-1.81-10.93-2.93-26.19-4.03-43-1.09-16.78-2.08-31.96-2.8-43.09-.31-5.43-.56-9.87-.74-13.06-.06-1.47-.11-2.65-.15-3.56-.02-.81-.02-1.24.01-1.24.03,0,.09.42.18,1.23.08.91.19,2.08.33,3.54.25,3.19.61,7.62,1.04,13.04.79,11.12,1.88,26.3,3.07,43.07,1.11,16.82,2.12,32.05,3.75,42.97.77,5.46,1.59,9.85,2.21,12.88.3,1.44.54,2.59.72,3.48.16.8.23,1.22.2,1.23Z"/>
          <path class="cls-5" d="m599.07,305.76c.08.24-4.3,1.95-9.9,3.45-5.6,1.51-10.24,2.24-10.29,1.99-.05-.26,4.48-1.4,10.05-2.9,5.56-1.49,10.06-2.8,10.14-2.54Z"/>
          <path class="cls-5" d="m610.6,222.45s.07.38.11,1.12c.03.83.08,1.89.13,3.2.08,2.78.23,6.8.45,11.76.44,9.92,1.35,23.62,3.09,38.67,1.75,15.06,4,28.6,5.83,38.36.92,4.88,1.69,8.83,2.25,11.55.25,1.28.45,2.32.61,3.14.13.72.18,1.1.15,1.11-.03,0-.15-.36-.33-1.07-.2-.81-.46-1.84-.78-3.11-.67-2.7-1.54-6.63-2.54-11.5-2.01-9.74-4.36-23.29-6.12-38.38-1.74-15.08-2.55-28.81-2.82-38.76-.14-4.97-.19-9-.15-11.78.02-1.31.04-2.37.05-3.2.02-.73.05-1.12.08-1.12Z"/>
        </g>
        <path class="cls-16" d="m770.83,152.41c-.84-2.63-3.36-4.33-5.83-5.57-7.13-3.57-15.13-5.03-23.05-5.96-16.44-1.92-33.12-1.73-49.51.58-7.26,1.02-14.54,2.49-21.18,5.6-2.18,1.02-4.33,2.26-5.86,4.11-1.53,1.85-2.36,4.44-1.62,6.73.75,2.29,3.36,3.97,5.64,3.22l90.57,3.58c2.86-1.03,5.79-2.11,8.05-4.14,2.26-2.03,3.72-5.25,2.8-8.15Z"/>
        <g>
          <path class="cls-13" d="m737.8,78.01l.96,77.2c.16,13.13-2.28,32.45-23.05,31.76h0c-17.97-1.96-22.74-18.97-22.88-31.22-.07-5.81-.13-10.66-.18-11.25,0,0-19.68-1.6-21.34-21.04-.8-9.39-.88-28.87-.75-46.49.14-18.93,14.82-34.56,33.7-35.94l1.88-.14c20.32-.3,31.93,16.8,31.66,37.12Z"/>
          <path class="cls-15" d="m692.65,144.49s12.31-.18,24.78-9.34c0,0-5.14,14.66-24.68,14.32l-.1-4.99Z"/>
          <path class="cls-5" d="m703.79,84.93c.39.39,2.63-1.41,5.89-1.5,3.25-.14,5.69,1.51,6.03,1.09.17-.19-.23-.9-1.29-1.65-1.05-.74-2.81-1.44-4.84-1.37-2.03.07-3.71.89-4.67,1.7-.98.82-1.3,1.56-1.11,1.73Z"/>
          <path class="cls-5" d="m707.11,91.62c.05,1.39,1.27,2.49,2.73,2.47,1.45-.03,2.59-1.18,2.54-2.57-.05-1.39-1.27-2.5-2.72-2.47-1.45.03-2.59,1.18-2.54,2.57Z"/>
          <path class="cls-5" d="m695.64,107.58c0-.17-1.88-.36-4.92-.52-.77-.02-1.5-.12-1.67-.63-.22-.54.04-1.38.34-2.3.58-1.9,1.19-3.89,1.83-5.98,2.53-8.5,4.3-15.47,3.96-15.57-.34-.1-2.67,6.71-5.2,15.22-.61,2.1-1.19,4.09-1.74,6-.23.89-.65,1.91-.18,3.03.25.55.84.93,1.34,1.02.5.11.93.09,1.31.09,3.04-.06,4.92-.18,4.92-.35Z"/>
          <path class="cls-5" d="m705.18,72.68c.31.72,2.92.18,6.04.34,3.12.09,5.69.85,6.05.15.16-.33-.33-1-1.39-1.64-1.05-.64-2.7-1.21-4.57-1.29-1.87-.07-3.55.35-4.64.91-1.1.56-1.63,1.18-1.49,1.52Z"/>
          <path class="cls-5" d="m674.26,78.72c.34.59,2.88-.06,5.96-.16,3.08-.15,5.63.3,5.96-.32.14-.29-.37-.82-1.44-1.29-1.06-.47-2.71-.82-4.55-.75-1.85.08-3.48.56-4.53,1.12-1.06.55-1.55,1.12-1.4,1.4Z"/>
          <path class="cls-13" d="m737.27,92.53c.32-.17,13.08-4.93,13.62,8.4.55,13.33-12.95,11.13-12.99,10.75-.04-.38-.64-19.15-.64-19.15Z"/>
          <path class="cls-15" d="m741.77,106.46c.06-.05.24.15.64.32.39.16,1.05.25,1.74-.04,1.39-.57,2.48-2.86,2.45-5.26-.02-1.21-.32-2.36-.79-3.3-.45-.96-1.11-1.61-1.82-1.71-.71-.13-1.2.31-1.34.69-.16.38-.07.64-.14.67-.04.03-.3-.21-.21-.77.04-.27.19-.59.49-.86.31-.27.77-.43,1.27-.39,1.03.03,1.99.94,2.51,1.97.57,1.03.94,2.32.96,3.68.02,2.69-1.25,5.26-3.15,5.9-.93.28-1.72.03-2.14-.27-.43-.31-.51-.61-.46-.63Z"/>
          <path class="cls-5" d="m698.78,116.81c-.15-.34,2.47-1.12,4.3-3.57.92-1.21,1.45-2.52,1.84-3.48.39-.97.68-1.58.83-1.53.14.04.1.7-.11,1.75-.22,1.04-.68,2.53-1.72,3.9-1.02,1.38-2.4,2.21-3.4,2.61-1.02.41-1.71.44-1.74.32Z"/>
          <path class="cls-5" d="m754.99,70.95c-2.78-4.7-3.43-10.31-4.94-15.56-1.52-5.25-4.44-10.68-9.58-12.51l-.12.05c-4.62-1.86-10.31-1.88-14.1,1.32-.94-6.93-7.01-12.41-13.77-14.19-6.76-1.77-17.61-.72-24.09,1.89-5.01,2.02-9.86,6.15-15.75,12.23-2.48,2.56-4.77,5.31-6.8,8.24l-5.88,18.16,5.04,9.52c.3.65.61,1.3.99,1.94v-.04s4.55,20.07,4.55,20.07c.29-5.47-.11-24.51.18-29.98,8.44-.36,16.08-3.77,21.75-10.05,2.99-3.31,5.34-7.46,9.34-9.44,5.15-2.55,11.3-.69,16.73,1.19l-.23-.21c2.83,1.31,5.4,3.16,7.53,5.43-1.22,10.77-.1,21.81,3.28,32.11.51,1.55,1.9,4.75,3.42,5.34,2.99,1.16,3.8-1.89,5.6-3.51,1.33-1.19,3.29-1.35,5.44-1.34,1.26-3.32,2.57-8.93,3.66-13.83,1.81.55,3.73.7,5.6.37-.57-1.37-1.15-2.75-1.72-4.12.75.47,1.52.96,2.39,1.08.87.13,1.88-.2,2.27-.99.51-1.02-.18-2.2-.76-3.18Z"/>
          <path class="cls-7" d="m720.13,46.49s.81.51,1.95,1.78c1.13,1.26,2.39,3.46,2.98,6.45.31,1.49.5,3.15.5,4.94,0,1.79-.14,3.71-.27,5.73-.13,2.02-.28,4.15-.15,6.37.07,1.11.2,2.24.44,3.36.24,1.11.54,2.31,1.37,3.26.67.78,1.78,1.12,2.74.92.97-.17,1.84-.69,2.47-1.39,1.25-1.46,1.56-3.31,1.87-4.94l-.41.05c.67,1.47,1.35,2.92,2.37,4.07,1,1.16,2.38,1.93,3.78,2.06.7.06,1.4-.05,2-.35.61-.3,1.06-.81,1.36-1.34.29-.55.44-1.15.41-1.72-.03-.58-.26-1.12-.62-1.51l-.21.18c1.5,1.71,3.08,2.63,4.18,3.13.55.25.99.41,1.29.5.3.09.46.13.46.11,0-.01-.15-.07-.44-.19-.29-.12-.72-.29-1.25-.56-1.06-.54-2.59-1.48-4.03-3.18l-.21.18c.65.69.69,1.91.13,2.89-.28.48-.69.93-1.23,1.19-.54.26-1.18.36-1.82.3-1.29-.13-2.58-.85-3.51-1.96-.96-1.11-1.62-2.52-2.28-3.99l-.28-.62-.13.67c-.31,1.63-.64,3.41-1.78,4.72-.57.63-1.36,1.1-2.21,1.25-.85.16-1.75-.12-2.33-.78-.73-.82-1.03-1.96-1.27-3.05-.24-1.1-.37-2.2-.44-3.29-.13-2.18,0-4.3.12-6.32.13-2.02.26-3.95.23-5.76-.02-1.81-.23-3.5-.56-5.01-.65-3.03-1.98-5.26-3.17-6.5-1.2-1.25-2.08-1.67-2.08-1.67Z"/>
          <path class="cls-7" d="m659.99,65.4s.05.05.16.13c.13.1.29.21.49.35.21.16.48.34.82.53.34.19.72.43,1.18.62,1.81.86,4.7,1.71,8.32,1.5,3.59-.2,7.89-1.47,11.73-4.33,3.88-2.79,7.29-6.91,10.08-11.62,1.41-2.35,2.57-4.77,3.84-7,1.26-2.23,2.66-4.29,4.34-5.92,1.67-1.64,3.61-2.84,5.6-3.4.99-.3,2-.36,2.95-.34.96.05,1.87.24,2.7.52,1.68.56,3.03,1.49,4.05,2.44,1.03.96,1.72,1.98,2.19,2.85.88,1.79.93,2.93,1,2.91,0,0,0-.07-.02-.2-.02-.16-.06-.36-.09-.6-.09-.52-.32-1.28-.74-2.2-.46-.9-1.14-1.95-2.18-2.95-1.03-.99-2.4-1.96-4.12-2.56-.86-.29-1.8-.5-2.79-.57-.99-.03-2.04.03-3.07.33-2.07.56-4.08,1.8-5.79,3.46-1.74,1.66-3.16,3.76-4.44,6-1.29,2.24-2.44,4.65-3.84,6.98-2.77,4.68-6.13,8.74-9.94,11.51-3.77,2.84-7.97,4.11-11.51,4.35-3.56.25-6.42-.54-8.23-1.34-1.82-.81-2.69-1.53-2.72-1.48Z"/>
          <path class="cls-5" d="m674.11,86.15c.39.39,2.63-1.41,5.89-1.5,3.25-.14,5.69,1.51,6.03,1.09.17-.19-.23-.91-1.29-1.65-1.05-.74-2.81-1.44-4.84-1.37-2.03.07-3.71.89-4.67,1.7-.98.82-1.3,1.56-1.11,1.73Z"/>
          <path class="cls-5" d="m678.58,91.62c.05,1.39,1.27,2.49,2.73,2.47,1.45-.03,2.59-1.18,2.54-2.57-.05-1.39-1.27-2.5-2.72-2.47-1.45.03-2.59,1.18-2.54,2.57Z"/>
          <path class="cls-5" d="m667.45,50.19c-1.63,2.21-4.15,4.23-6.88,3.97-.81-.08-2.91-.81-2.91-.81-.94.59-.68,3.85-.01,4.74.67.89,2.07,2.09,2.07,2.09-3.17,1.76-6.1.95-9.52-.26.67,5.79,4.69,11.08,10.09,13.27,1.73.7,3.82,1.07,5.37.04,1.37-.91,1.91-2.62,2.31-4.21,1.46-5.85,2.18-11.88,2.16-17.9l-2.68-.92Z"/>
        </g>
        <g>
          <path class="cls-8" d="m690.2,156.48l-40.03,8.66,7.84,134.97-18.33,102.29c2.47,9.87,54.06,10.46,82.94,9.63,27.4-.79,72.47-12.19,75.65-17.29,3.19-5.1-13.74-115.08-13.74-115.08v-114.06l-44.34-10.12s-25.14,15.02-49.99,1Z"/>
          <path class="cls-16" d="m640.89,385.95s75.15,4.09,94.05,2.78c29.85-2.07,63.73-12.93,63.73-12.93v-10.42s4.05-5.56,3.97-16.39c-.01-1.5-.22-10.37-1.48-17.63-4.46-25.68-9.91-75.54-9.91-75.54l-6.71-90.23-19.65-6.4-23.75-8.59-25.1,22.43s-16.96-17.18-24.97-21.77l-41.63,14.33-4.52,124.43s-3.12,24.65-5.24,41.34c-1.13,8.9-5.69,15.78-5.69,22.81,0,8.91,8.91,17.09,8.91,17.09l-2.02,14.68Z"/>
          <g class="cls-18">
            <path class="cls-3" d="m642.07,315.1c16.22,10.45,36.46,11.8,55.72,12.86,11.12.61,22.3,1.21,33.38.08,11.08-1.13,22.15-4.09,31.52-10.11,5.12-3.29,9.72-7.48,15.27-9.96,3.73-1.67,7.82-2.53,11.33-4.63,3.51-2.1,6.44-5.99,5.68-10-.64-3.41-3.82-5.9-7.18-6.78-3.36-.88-6.91-.47-10.36-.06-5.01.6-10.39,1.36-14.1,4.79-3.18,2.94-4.55,7.3-6.83,10.98-4.59,7.42-12.9,11.92-21.42,13.8-8.52,1.88-17.36,1.46-26.07,1.04-21.29-1.05-42.57-2.09-63.86-3.14"/>
          </g>
          <path class="cls-16" d="m830.59,242.93s-15.47-53.76-26.3-64.59c-10.83-10.83-19.75-12.74-19.75-12.74l5.25,79.54,3.91,8.06,36.89-10.26Z"/>
          <path class="cls-5" d="m786.98,200.53c.72-.13,1.67,12.82,2.66,28.69.5,7.84.96,14.94,1.31,20.34.18,2.45.33,4.51.45,6.16.11,1.45.16,2.26.09,2.27-.06,0-.24-.78-.46-2.23-.22-1.45-.48-3.54-.75-6.14-.54-5.2-1.08-12.39-1.58-20.34-.44-7.85-.85-14.94-1.15-20.35-.14-2.45-.26-4.52-.35-6.16-.05-.63-.09-1.18-.13-1.67-.03-.39-.08-.55-.09-.56Z"/>
          <g>
            <rect class="cls-7" x="759.49" y="204.27" width="14.77" height="95.61" transform="translate(27.67 -72.28) rotate(5.5)"/>
            <rect class="cls-5" x="746.72" y="191.8" width="13.78" height="109.94" transform="translate(27.1 -71.04) rotate(5.5)"/>
            <rect class="cls-5" x="774.09" y="193.88" width="5.92" height="109.94" transform="translate(27.4 -73.27) rotate(5.5)"/>
          </g>
          <path class="cls-13" d="m723.73,292.37l4.83-2.46,19.23-14.53,5.06,3.62-3.9,7.82s46.29,6.23,46.26,9.35c-.03,3.12-3.31,3.64-3.31,3.64h-23.73s1.56,5.85-1.04,7.34c0,0,0,4.09-3.9,5.9,0,0,1.29,2.6-3.77,4.41-5.06,1.82-33.87,3.03-33.87,3.03l-1.87-28.12Z"/>
          <g>
            <path class="cls-13" d="m772.29,248.75c-3.16-.65-12.74-3.75-16.77-3.08-4.03.67-5.29,3.24-5.29,3.24,0,0-8.52,3.73-6.38,9.5-.63,1-1.44,2.56-1.93,4.65-.9,3.8,2.4,5.15,2.4,5.15,0,0-3.02,1.5-3.66,5.64-.67,4.34,3.96,7.22,3.96,7.22-.89,4.92,4.11,5.9,6.57,6.95,4.25,1.82,33.09.22,33.09.22l1.57-29.11s-11.15-9.9-13.56-10.4Z"/>
            <path class="cls-6" d="m782.29,287.72c0,.06-.63.2-1.8.38-1.38.2-3.02.44-4.94.72-4.17.54-10,1.35-16.49.92-3.92-.33-7.55-.95-10.66-2.11-1.53-.61-2.89-1.61-3.6-2.89-.74-1.24-.86-2.68-.44-3.74l.08.3c-2.09-1.88-3.27-3.01-3.2-3.09.07-.08,1.37.91,3.56,2.67l.14.12-.06.19c-.3.91-.15,2.12.53,3.19.66,1.09,1.85,1.93,3.3,2.48,2.95,1.03,6.6,1.62,10.42,1.94,6.36.42,12.16-.27,16.34-.64,2.1-.2,3.8-.35,4.97-.42,1.18-.07,1.83-.08,1.84-.01Z"/>
            <path class="cls-6" d="m747.21,268.68c-.04.26-.85.33-1.8.17-.95-.16-1.69-.5-1.64-.76.04-.26.85-.33,1.8-.17.95.16,1.68.5,1.64.76Z"/>
            <path class="cls-6" d="m747.07,257.62c0,.26-.68.5-1.51.67-.84.17-1.56.22-1.66-.02-.09-.24.54-.71,1.47-.9.92-.19,1.7,0,1.7.25Z"/>
          </g>
          <path class="cls-16" d="m829.63,240.31s7.93,23.05,10.16,37.9c2.51,16.78-11.62,28.85-27.26,22.52-7.05-2.85-29.56-11.32-29.56-11.32l1.8-30.57,10.06,1.61-4.08-13.67,38.87-6.46Z"/>
          <path class="cls-5" d="m808.25,298.52s-.66-.15-1.86-.54c-1.31-.44-3.04-1.02-5.18-1.75-4.56-1.6-10.87-3.81-18.37-6.45l-.29-.1.02-.31c.38-7.5.83-16.26,1.31-25.59.1-1.91.21-3.8.3-5.58l.03-.62.6.21c3.05,1.07,6.23,1.59,9.27,2.07,3.05.44,5.98.86,8.78,1.27,5.58.81,10.57,1.71,14.62,2.99,4.06,1.23,7.14,2.86,8.95,4.37.98.66,1.54,1.41,1.96,1.85.41.46.61.71.59.72s-.27-.19-.72-.6c-.46-.4-1.04-1.09-2.04-1.7-1.84-1.4-4.9-2.9-8.93-4.04-4.02-1.18-8.98-2.01-14.56-2.77-2.8-.38-5.74-.79-8.8-1.2-3.06-.47-6.26-.97-9.45-2.08l.63-.42c-.09,1.78-.19,3.67-.3,5.58-.52,9.33-1.01,18.08-1.43,25.58l-.27-.41c7.46,2.77,13.72,5.09,18.26,6.77,2.11.81,3.81,1.47,5.1,1.96,1.17.47,1.79.74,1.78.78Z"/>
          <path class="cls-5" d="m798.15,365.62s-.53.15-1.55.35c-1.1.2-2.59.48-4.46.83-3.88.72-9.52,1.61-16.5,2.57-6.98.99-15.33,1.93-24.62,2.78-9.29.8-19.52,1.48-30.28,1.87-10.76.36-21.02.39-30.34.25-9.32-.19-17.72-.53-24.76-.99-7.04-.44-12.73-.9-16.65-1.31-1.9-.2-3.4-.36-4.52-.48-1.03-.12-1.57-.2-1.57-.23s.55-.02,1.59.04c1.12.07,2.63.17,4.53.3,3.93.3,9.62.66,16.65,1.01,7.03.38,15.42.64,24.73.79,9.31.1,19.55.03,30.3-.32,10.74-.39,20.96-1.04,30.24-1.8,9.28-.81,17.62-1.68,24.61-2.58,6.99-.88,12.64-1.67,16.53-2.27,1.89-.27,3.38-.49,4.49-.65,1.03-.14,1.57-.2,1.58-.16Z"/>
          <g>
            <path class="cls-16" d="m649.45,165.6c-1.91.64-25.78,8.88-31.22,50.34-3.24,24.67-1.32,51.94-1.32,51.94l42.1-3.51-9.56-98.77Z"/>
            <path class="cls-7" d="m649.45,165.6s4.47-11.22,15.65-5.82c0,0,.63,34.97.24,53.07-1.31,61.08-9,61.37-9,61.37l-6.89-108.61Z"/>
            <path class="cls-16" d="m616.34,266.68s1.14,31.82,12.53,41.51c13.17,11.2,96.74,13.12,96.74,13.12l-1.87-28.12-68.2-21.95-.85-17.1-38.35,12.54Z"/>
            <path class="cls-5" d="m634.71,280.34s1.34-1.88,4.8-4.26c3.41-2.29,9.29-5.1,17.08-4.6h.03s.04.01.04.01c16.25,5.13,40.17,12.69,67.22,21.24l.31.1.02.32c.18,2.69.37,5.57.57,8.47.45,6.73.88,13.32,1.3,19.66l.03.44-.42.05c-11.93,1.44-23.16.55-33.19-.26-10.04-.89-18.93-2.05-26.32-3.11-7.39-1.07-13.29-2.06-17.34-2.78-1.97-.37-3.52-.66-4.64-.87-.49-.1-.88-.19-1.2-.25-.27-.06-.4-.1-.4-.12,0-.01.14,0,.42.03.32.05.72.1,1.21.17,1.13.17,2.69.41,4.67.72,4.06.63,9.97,1.52,17.37,2.51,7.4.98,16.29,2.07,26.31,2.9,10,.75,21.23,1.59,32.98.15l-.39.49c-.43-6.34-.87-12.92-1.32-19.65-.19-2.9-.38-5.77-.56-8.47l.33.42c-27.01-8.68-50.89-16.35-67.12-21.56h.07c-7.6-.56-13.43,2.1-16.85,4.28-1.74,1.11-2.95,2.16-3.76,2.88-.36.34-.66.62-.89.84-.2.19-.31.28-.32.27Z"/>
          </g>
          <path class="cls-5" d="m706.19,181.72c0,.06-.64.04-1.78-.05-1.14-.08-2.79-.32-4.8-.72-4.02-.79-9.5-2.47-15.08-5.37-5.57-2.92-10.08-6.46-13.02-9.3-1.48-1.42-2.61-2.64-3.33-3.53-.73-.88-1.11-1.39-1.06-1.43.12-.11,1.8,1.78,4.84,4.47,3.03,2.69,7.53,6.09,13.01,8.96,5.49,2.85,10.84,4.6,14.79,5.55,3.94.96,6.46,1.26,6.44,1.42Z"/>
          <path class="cls-5" d="m767.88,160.56s-.44.51-1.34,1.31c-.89.81-2.26,1.89-3.99,3.16-3.47,2.55-8.56,5.69-14.6,8.32-6.05,2.61-11.83,4.18-16.06,4.97-2.12.4-3.84.65-5.04.75-1.2.11-1.86.15-1.87.08-.02-.16,2.61-.53,6.77-1.49,4.16-.95,9.84-2.6,15.82-5.19,5.97-2.6,11.06-5.61,14.6-8,3.54-2.38,5.61-4.05,5.71-3.93Z"/>
          <path class="cls-5" d="m715.5,177.91s.2-.04.59-.03c.39.02.96.09,1.68.27,1.41.38,3.47,1.29,5.28,3.3.88,1.01,1.69,2.27,2.16,3.81.24.73.34,1.87-.47,2.63-.39.39-1.05.5-1.54.35-.5-.13-.9-.38-1.26-.62-2.96-1.92-5.55-5.11-6.74-9.04-.15-.51-.28-1.03-.38-1.51l.92-.2c.89,3.92-.53,7.89-3.11,10.19-.67.57-1.59.96-2.5.85-.92-.06-1.76-.8-1.96-1.62-.25-.81-.09-1.64.19-2.29.28-.67.64-1.21.99-1.73,1.42-2.07,2.99-3.38,4.13-4.16,1.15-.77,1.86-1.05,1.88-1.01.04.06-.61.45-1.67,1.29-1.05.85-2.5,2.19-3.8,4.23-.62,1-1.38,2.23-.99,3.44.32,1.26,2.11,1.39,3.18.35,2.26-2.06,3.58-5.78,2.74-9.31l.92-.2c.1.46.21.94.36,1.42,1.12,3.7,3.55,6.73,6.32,8.58.68.49,1.38.77,1.77.38.45-.39.48-1.12.27-1.8-.4-1.4-1.12-2.62-1.92-3.59-1.63-1.95-3.55-2.91-4.88-3.38-1.36-.45-2.17-.51-2.16-.59Z"/>
          <path class="cls-12" d="m734.98,269.82c-.35.06-1.45-4.53-3.15-12.83s-3.97-20.33-6.66-35.16l3.51-.06c-1.57,13.46-3.54,29.54-5.77,47.2l-1.27,10.05-3.08-9.67c-4.28-13.47-8.96-28.17-13.82-43.47-.58-1.84-1.16-3.67-1.73-5.49l4.6-.9c1.4,18.02,2.73,35.15,3.95,50.78l.84,10.78-4.91-9.61c-7.31-14.29-13.84-27.19-19.31-38.16l3.18-.84c.3,13.13,1.12,23.74,1.71,31.08.6,7.34.95,11.41.61,11.46-.31.05-1.28-3.93-2.46-11.24-1.16-7.3-2.5-17.94-3.23-31.17l-.41-7.48,3.59,6.63c5.83,10.78,12.65,23.53,20.17,37.71l-4.07,1.17c-1.33-15.61-2.8-32.74-4.33-50.74l-1.81-21.23,6.41,20.33c.57,1.81,1.15,3.65,1.73,5.49,4.78,15.32,9.37,30.05,13.58,43.54l-4.34.38c2.43-17.63,4.7-33.67,6.67-47.08l1.73-11.77,1.78,11.71c2.27,14.9,4.02,27.02,5.11,35.42,1.1,8.41,1.54,13.1,1.19,13.16Z"/>
        </g>
      </g>
    </g>
  </g>
</svg>