<?xml version="1.0" encoding="UTF-8"?>
<svg xmlns="http://www.w3.org/2000/svg" viewBox="0 0 750 500">
  <defs>
    <style>
      .cls-1 {
        opacity: .1;
      }

      .cls-2 {
        opacity: .2;
      }

      .cls-3 {
        opacity: .3;
      }

      .cls-4, .cls-5, .cls-6, .cls-7, .cls-8, .cls-9, .cls-10, .cls-11, .cls-12, .cls-13, .cls-14, .cls-15 {
        stroke-width: 0px;
      }

      .cls-5 {
        fill: #263238;
      }

      .cls-6 {
        fill: #455a64;
      }

      .cls-7 {
        fill: #6f4439;
      }

      .cls-8 {
        fill: #e0e0e0;
      }

      .cls-9 {
        fill: #ae7461;
      }

      .cls-10 {
        fill: #fff;
      }

      .cls-11 {
        fill: #ff9a6c;
      }

      .cls-12 {
        fill: #ffbf9d;
      }

      .cls-13 {
        fill: #ebebeb;
      }

      .cls-14 {
        fill: #f5f5f5;
      }

      .cls-15 {
        fill: #00bcd4;
      }
    </style>
  </defs>
  <g id="Background_Complete" data-name="Background Complete">
    <path class="cls-14" d="m589.46,45.4c.46-3.36-4.28-6.13-7.85-6.42-1.7-.14-3.47.12-5.08-.44-3.49-1.22-4.88-5.73-8.29-7.16-2.55-1.07-5.48-.12-7.95,1.12-2.47,1.24-4.91,2.81-7.67,2.98-2.4.15-5-.74-7.1.44-1.56.87-2.38,2.68-3.82,3.74-1.41,1.04-3.25,1.26-5,1.36-1.75.1-3.56.11-5.15.84-1.59.73-2.91,2.41-2.58,4.13l60.49-.6Z"/>
    <path class="cls-13" d="m705.83,58.14c.63-4.57-5.82-8.33-10.66-8.72-2.31-.19-4.71.17-6.9-.6-4.74-1.65-6.64-7.78-11.26-9.73-3.46-1.46-7.44-.16-10.8,1.53-3.35,1.69-6.67,3.81-10.41,4.05-3.26.21-6.8-1-9.65.59-2.12,1.19-3.24,3.63-5.2,5.08-1.92,1.41-4.42,1.71-6.79,1.84-2.38.13-4.84.15-7,1.14-2.16.99-3.96,3.28-3.51,5.62l82.19-.81Z"/>
    <path class="cls-13" d="m308.74,39.13c.55-3.97-5.06-7.24-9.28-7.58-2.01-.16-4.1.15-6-.52-4.13-1.44-5.77-6.77-9.8-8.47-3.01-1.27-6.47-.14-9.39,1.33-2.92,1.47-5.8,3.32-9.06,3.52-2.84.18-5.91-.87-8.39.51-1.85,1.03-2.82,3.16-4.52,4.42-1.67,1.23-3.84,1.49-5.91,1.6-2.07.11-4.21.13-6.09,1-1.88.86-3.44,2.85-3.05,4.89l71.49-.71Z"/>
    <path class="cls-14" d="m157.59,67.91c.48-3.46-4.4-6.3-8.07-6.6-1.75-.14-3.56.13-5.22-.45-3.59-1.25-5.02-5.89-8.52-7.36-2.62-1.1-5.63-.12-8.17,1.16s-5.05,2.88-7.88,3.07c-2.47.16-5.14-.76-7.3.45-1.61.9-2.45,2.75-3.93,3.84-1.45,1.07-3.34,1.3-5.14,1.39-1.8.1-3.66.12-5.3.87-1.64.75-2.99,2.48-2.65,4.25l62.19-.61Z"/>
    <polygon class="cls-13" points="536.68 428.27 247.37 428.27 268.3 403.29 515.61 403.29 536.68 428.27"/>
    <polygon class="cls-13" points="507.59 388.02 272.98 388.87 292.1 366.01 489.44 365.15 507.59 388.02"/>
    <polygon class="cls-13" points="478.49 351.72 299.08 350.73 314.78 330.46 463.8 330.46 478.49 351.72"/>
    <polygon class="cls-13" points="457.69 318.48 320.42 318.48 335.17 299.96 444.6 299.96 457.69 318.48"/>
    <g>
      <path class="cls-13" d="m143.41,409.3c1.27.55,2.2,1.72,2.67,3.02.47,1.3.51,2.72.35,4.09-.3,2.66-1.81,5.34-3.44,7.46-2.24-1.95-2.75-5.36-2.9-7.1-.24-2.76,1-7.89,3.32-7.47"/>
      <path class="cls-13" d="m145.6,428.26c-.36-1.5.27-3.15,1.42-4.18,1.15-1.03,2.76-1.46,4.3-1.34.71.05,1.48.26,1.89.85.38.55.34,1.31.03,1.9-.31.59-.84,1.03-1.41,1.39-1.94,1.22-4.04,2.04-6.23,1.38"/>
      <path class="cls-8" d="m142.73,436.4s.02-.2.08-.55c.07-.38.16-.88.27-1.48.25-1.23.56-3,1.52-4.71.95-1.71,2.27-2.97,3.38-3.59.55-.32,1.04-.51,1.38-.61.17-.06.31-.08.4-.1.09-.02.14-.03.14-.02.02.04-.77.19-1.85.85-1.08.64-2.35,1.89-3.28,3.57-.94,1.68-1.28,3.42-1.56,4.65-.14.62-.25,1.12-.33,1.46-.09.34-.14.53-.15.53Z"/>
      <path class="cls-8" d="m142.81,413.29s.02.08.03.24c.01.18.02.4.04.68.03.59.07,1.46.1,2.52.07,2.13.12,5.07.11,8.32-.01,3.25-.09,6.19-.18,8.32-.04,1.06-.09,1.92-.12,2.52-.02.28-.03.51-.05.68-.01.16-.02.24-.03.24s0-.08,0-.24c0-.18,0-.4.01-.69.02-.62.04-1.47.06-2.52.05-2.13.11-5.07.12-8.32.01-3.25-.02-6.19-.05-8.32-.02-1.05-.03-1.9-.04-2.52,0-.28,0-.51,0-.69,0-.16,0-.24.01-.24Z"/>
      <path class="cls-13" d="m141.73,429.88c-.51-3.21-2.68-6.12-5.61-7.53-.75-.36-1.72-.59-2.34-.04-.62.56-.48,1.56-.18,2.33,1.25,3.22,4.62,5.49,8.07,5.45"/>
      <path class="cls-8" d="m136.48,424.87s.17.06.47.21c.15.07.34.16.54.29.2.13.44.25.68.43.24.17.52.36.78.59.28.22.55.48.83.76.55.57,1.11,1.25,1.58,2.03.47.79.8,1.6,1.04,2.35.11.38.21.74.26,1.09.08.34.1.67.13.97.04.3.03.57.04.81.01.24,0,.44-.02.61-.02.33-.04.52-.06.51-.04,0,.03-.74-.1-1.91-.04-.29-.07-.61-.16-.95-.06-.34-.17-.7-.28-1.07-.24-.74-.58-1.53-1.04-2.31-.47-.77-1.01-1.44-1.54-2-.28-.28-.54-.54-.81-.76-.26-.23-.52-.42-.76-.6-.96-.69-1.63-1-1.62-1.03Z"/>
    </g>
    <path class="cls-13" d="m105.07,48.09c.48-3.46-4.4-6.3-8.07-6.6-1.75-.14-3.56.13-5.22-.45-3.59-1.25-5.02-5.89-8.52-7.36-2.62-1.1-5.63-.12-8.17,1.16-2.54,1.28-5.05,2.88-7.88,3.07-2.47.16-5.14-.76-7.3.45-1.61.9-2.45,2.75-3.93,3.84-1.45,1.07-3.34,1.3-5.14,1.39-1.8.1-3.66.12-5.3.87-1.64.75-2.99,2.48-2.65,4.25l62.19-.61Z"/>
  </g>
  <g id="Floor">
    <path class="cls-5" d="m710.65,436.57c0,.14-150.29.26-335.64.26s-335.67-.12-335.67-.26,150.26-.26,335.67-.26,335.64.12,335.64.26Z"/>
  </g>
  <g id="Plants">
    <path class="cls-5" d="m95.8,428.54c.09-.1,1.64,1.34,2.77,3.65,1.15,2.31,1.34,4.41,1.21,4.42-.15.03-.57-1.97-1.68-4.19-1.09-2.23-2.43-3.77-2.31-3.88Z"/>
    <path class="cls-5" d="m101.56,424.89c.15,0,.18,2.7.46,6,.27,3.3.69,5.96.54,5.99-.13.03-.79-2.61-1.06-5.95-.28-3.33-.07-6.05.06-6.04Z"/>
    <path class="cls-5" d="m109.19,427.72c.14.09-1.12,1.95-1.85,4.57-.58,1.96-.69,3.72-.77,4.47l-.03.25-.14-.18c-.16-.2-.23-.32-.21-.34s.15.05.35.2l-.17.07c-.1-.75-.13-2.58.47-4.61.77-2.72,2.26-4.51,2.36-4.42Z"/>
    <g>
      <path class="cls-15" d="m643.25,409.27c1.27.55,2.2,1.72,2.67,3.02.47,1.3.51,2.72.35,4.09-.3,2.66-1.81,5.34-3.44,7.46-2.24-1.95-2.75-5.36-2.9-7.1-.24-2.76,1-7.89,3.32-7.47"/>
      <path class="cls-15" d="m645.44,428.23c-.36-1.5.27-3.15,1.42-4.18,1.15-1.03,2.76-1.46,4.3-1.34.71.05,1.48.26,1.89.85.38.55.34,1.31.03,1.9-.31.59-.84,1.03-1.41,1.39-1.94,1.22-4.04,2.04-6.23,1.38"/>
      <path class="cls-5" d="m642.57,436.38s.02-.2.08-.55c.07-.38.16-.88.27-1.48.25-1.23.56-3,1.52-4.71.94-1.71,2.27-2.97,3.38-3.59.55-.32,1.04-.51,1.38-.61.17-.06.31-.08.4-.1.09-.02.14-.03.14-.02.02.04-.77.19-1.85.85-1.08.64-2.35,1.89-3.28,3.57-.94,1.68-1.28,3.42-1.56,4.65-.14.62-.25,1.12-.33,1.46-.09.34-.14.53-.15.53Z"/>
      <path class="cls-5" d="m642.65,413.26s.02.08.03.24c.01.18.02.4.04.68.03.59.07,1.46.1,2.52.07,2.13.12,5.07.11,8.32-.01,3.25-.09,6.19-.18,8.32-.04,1.06-.09,1.92-.12,2.52-.02.28-.03.51-.05.68-.01.16-.02.24-.03.24,0,0,0-.08,0-.24,0-.18,0-.4.01-.69.01-.62.04-1.47.06-2.52.05-2.13.11-5.07.12-8.32.01-3.25-.02-6.19-.05-8.32-.02-1.05-.03-1.9-.04-2.52,0-.28,0-.51,0-.69,0-.16,0-.24.01-.24Z"/>
      <path class="cls-15" d="m641.57,429.85c-.51-3.21-2.68-6.12-5.61-7.53-.75-.36-1.72-.59-2.34-.04-.62.56-.48,1.56-.18,2.33,1.25,3.22,4.62,5.49,8.07,5.45"/>
      <path class="cls-5" d="m636.32,424.84s.17.06.47.21c.15.07.34.16.54.29.2.13.44.25.68.43.24.17.52.36.78.59.28.22.55.48.83.76.55.57,1.11,1.25,1.58,2.03.47.79.8,1.6,1.04,2.35.11.38.21.74.26,1.09.08.34.1.67.13.97.04.3.03.57.04.81.01.24,0,.44-.02.61-.02.33-.04.52-.06.51-.04,0,.03-.74-.1-1.91-.04-.29-.07-.61-.16-.95-.06-.34-.17-.7-.28-1.07-.24-.74-.58-1.53-1.04-2.31-.47-.77-1.01-1.44-1.54-2-.28-.28-.54-.54-.81-.76-.26-.23-.52-.42-.76-.6-.96-.69-1.63-1-1.62-1.03Z"/>
    </g>
  </g>
  <g id="High_School" data-name="High School">
    <g>
      <g>
        <rect class="cls-15" x="44.17" y="91.28" width="660.07" height="185.26"/>
        <rect class="cls-15" x="218.97" y="71.53" width="312.28" height="205.01"/>
        <rect class="cls-13" x="44.17" y="221.57" width="223.29" height="18.45"/>
        <rect class="cls-13" x="482.74" y="221.57" width="221.49" height="18.45"/>
        <g class="cls-3">
          <rect class="cls-4" x="252.11" y="151.01" width="245.92" height="125.53"/>
        </g>
        <rect class="cls-8" x="287.53" y="102.84" width="174.08" height="22.57"/>
        <g class="cls-3">
          <path class="cls-4" d="m321.67,108.51v13.51h-3.82v-5.27h-5.21v5.27h-3.82v-13.51h3.82v5.07h5.21v-5.07h3.82Z"/>
          <path class="cls-4" d="m324.37,108.51h3.82v13.51h-3.82v-13.51Z"/>
          <path class="cls-4" d="m339.96,114.97h3.38v5.6c-.77.55-1.66.98-2.66,1.27-1,.3-2.01.44-3.01.44-1.42,0-2.69-.3-3.82-.9-1.13-.6-2.02-1.43-2.66-2.5-.64-1.07-.96-2.28-.96-3.63s.32-2.56.96-3.63c.64-1.07,1.54-1.9,2.68-2.5,1.15-.6,2.44-.9,3.88-.9,1.26,0,2.39.21,3.4.64,1,.42,1.84,1.04,2.51,1.83l-2.43,2.2c-.91-1-2.01-1.5-3.28-1.5-1.16,0-2.09.35-2.8,1.05-.71.7-1.06,1.64-1.06,2.81,0,.75.16,1.41.48,2,.32.59.77,1.04,1.35,1.37.58.33,1.24.49,1.99.49s1.42-.15,2.06-.44v-3.71Z"/>
          <path class="cls-4" d="m358.62,108.51v13.51h-3.82v-5.27h-5.21v5.27h-3.82v-13.51h3.82v5.07h5.21v-5.07h3.82Z"/>
          <path class="cls-4" d="m368.49,121.88c-1.03-.27-1.87-.63-2.51-1.08l1.25-2.82c.6.4,1.31.72,2.1.96.8.24,1.58.37,2.35.37,1.47,0,2.2-.37,2.2-1.1,0-.39-.21-.67-.63-.86-.42-.19-1.09-.38-2.02-.59-1.02-.22-1.87-.45-2.55-.7-.68-.25-1.27-.65-1.76-1.21-.49-.55-.73-1.3-.73-2.24,0-.82.23-1.57.68-2.23.45-.66,1.12-1.19,2.02-1.57.89-.39,1.99-.58,3.29-.58.89,0,1.76.1,2.62.3.86.2,1.62.49,2.28.88l-1.18,2.84c-1.29-.69-2.53-1.04-3.74-1.04-.76,0-1.31.11-1.66.34-.35.23-.52.52-.52.88s.21.63.62.81,1.07.37,1.99.56c1.03.22,1.88.45,2.56.7.68.25,1.26.65,1.76,1.2.5.55.74,1.29.74,2.23,0,.81-.23,1.54-.68,2.2-.45.66-1.13,1.18-2.03,1.57-.9.39-1.99.59-3.28.59-1.09,0-2.15-.13-3.18-.41Z"/>
          <path class="cls-4" d="m382.34,121.39c-1.13-.6-2.01-1.43-2.65-2.5-.64-1.07-.96-2.28-.96-3.63s.32-2.56.96-3.63c.64-1.07,1.53-1.9,2.65-2.5,1.12-.6,2.4-.9,3.81-.9,1.23,0,2.35.22,3.34.66.99.44,1.81,1.07,2.47,1.89l-2.43,2.2c-.88-1.05-1.94-1.58-3.18-1.58-.73,0-1.39.16-1.96.48-.57.32-1.02.77-1.33,1.36-.32.59-.47,1.26-.47,2.02s.16,1.43.47,2.02c.31.59.76,1.04,1.33,1.36.57.32,1.23.48,1.96.48,1.25,0,2.31-.53,3.18-1.58l2.43,2.2c-.66.82-1.48,1.45-2.47,1.89-.99.44-2.1.66-3.34.66-1.42,0-2.69-.3-3.81-.9Z"/>
          <path class="cls-4" d="m406.51,108.51v13.51h-3.82v-5.27h-5.21v5.27h-3.82v-13.51h3.82v5.07h5.21v-5.07h3.82Z"/>
          <path class="cls-4" d="m412.17,121.38c-1.14-.6-2.03-1.44-2.68-2.51-.65-1.07-.97-2.27-.97-3.61s.32-2.54.97-3.61c.65-1.07,1.54-1.9,2.68-2.51,1.14-.6,2.42-.91,3.85-.91s2.71.3,3.85.91c1.14.61,2.03,1.44,2.68,2.51.65,1.07.97,2.27.97,3.61s-.33,2.54-.97,3.61c-.65,1.07-1.54,1.9-2.68,2.51-1.14.61-2.42.91-3.85.91s-2.71-.3-3.85-.91Zm5.7-2.74c.55-.32.99-.77,1.31-1.36.32-.59.48-1.26.48-2.02s-.16-1.43-.48-2.02c-.32-.59-.76-1.04-1.31-1.36-.55-.32-1.17-.48-1.85-.48s-1.3.16-1.85.48c-.55.32-.99.77-1.31,1.36-.32.59-.48,1.26-.48,2.02s.16,1.43.48,2.02c.32.59.76,1.04,1.31,1.36.55.32,1.17.48,1.85.48s1.3-.16,1.85-.48Z"/>
          <path class="cls-4" d="m428.49,121.38c-1.14-.6-2.03-1.44-2.68-2.51-.65-1.07-.97-2.27-.97-3.61s.32-2.54.97-3.61c.65-1.07,1.54-1.9,2.68-2.51,1.14-.6,2.42-.91,3.85-.91s2.71.3,3.85.91c1.14.61,2.03,1.44,2.68,2.51.65,1.07.97,2.27.97,3.61s-.33,2.54-.97,3.61c-.65,1.07-1.54,1.9-2.68,2.51-1.14.61-2.42.91-3.85.91s-2.71-.3-3.85-.91Zm5.7-2.74c.55-.32.99-.77,1.31-1.36.32-.59.48-1.26.48-2.02s-.16-1.43-.48-2.02c-.32-.59-.76-1.04-1.31-1.36-.55-.32-1.17-.48-1.85-.48s-1.3.16-1.85.48c-.55.32-.99.77-1.31,1.36-.32.59-.48,1.26-.48,2.02s.16,1.43.48,2.02c.32.59.76,1.04,1.31,1.36.55.32,1.17.48,1.85.48s1.3-.16,1.85-.48Z"/>
          <path class="cls-4" d="m441.86,108.51h3.82v10.48h6.45v3.03h-10.27v-13.51Z"/>
        </g>
        <g>
          <path class="cls-5" d="m320.64,107.48v13.51h-3.82v-5.27h-5.21v5.27h-3.82v-13.51h3.82v5.07h5.21v-5.07h3.82Z"/>
          <path class="cls-5" d="m323.34,107.48h3.82v13.51h-3.82v-13.51Z"/>
          <path class="cls-5" d="m338.93,113.95h3.38v5.6c-.77.55-1.66.98-2.66,1.27-1,.3-2.01.44-3.01.44-1.41,0-2.69-.3-3.82-.9-1.13-.6-2.02-1.43-2.66-2.5-.64-1.07-.96-2.28-.96-3.63s.32-2.56.96-3.63c.64-1.07,1.54-1.9,2.68-2.5,1.14-.6,2.44-.9,3.88-.9,1.26,0,2.39.21,3.4.64,1,.42,1.84,1.04,2.51,1.83l-2.43,2.2c-.91-1-2.01-1.5-3.28-1.5-1.16,0-2.09.35-2.8,1.05-.71.7-1.06,1.64-1.06,2.81,0,.75.16,1.41.48,2,.32.59.77,1.04,1.35,1.37.58.33,1.24.49,1.99.49s1.42-.15,2.06-.44v-3.71Z"/>
          <path class="cls-5" d="m357.59,107.48v13.51h-3.82v-5.27h-5.21v5.27h-3.82v-13.51h3.82v5.07h5.21v-5.07h3.82Z"/>
          <path class="cls-5" d="m367.47,120.85c-1.03-.27-1.87-.63-2.51-1.08l1.25-2.82c.6.4,1.31.72,2.1.96.8.24,1.58.37,2.35.37,1.47,0,2.2-.37,2.2-1.1,0-.39-.21-.67-.63-.86-.42-.19-1.09-.38-2.02-.59-1.02-.22-1.87-.45-2.55-.7-.68-.25-1.27-.65-1.76-1.21-.49-.55-.73-1.3-.73-2.24,0-.82.23-1.57.68-2.23s1.12-1.19,2.02-1.57c.89-.39,1.99-.58,3.29-.58.89,0,1.76.1,2.62.3.86.2,1.62.49,2.28.88l-1.18,2.84c-1.29-.69-2.53-1.04-3.74-1.04-.76,0-1.31.11-1.66.34-.35.23-.52.52-.52.88s.21.63.62.81c.41.18,1.07.37,1.99.56,1.03.22,1.88.45,2.56.7.68.25,1.26.65,1.76,1.2.5.55.74,1.29.74,2.23,0,.81-.23,1.54-.68,2.2-.45.66-1.13,1.18-2.03,1.57s-1.99.59-3.28.59c-1.09,0-2.15-.13-3.18-.41Z"/>
          <path class="cls-5" d="m381.32,120.36c-1.13-.6-2.01-1.43-2.65-2.5-.64-1.07-.96-2.28-.96-3.63s.32-2.56.96-3.63c.64-1.07,1.53-1.9,2.65-2.5,1.12-.6,2.4-.9,3.81-.9,1.23,0,2.35.22,3.34.66.99.44,1.81,1.07,2.47,1.89l-2.43,2.2c-.87-1.05-1.94-1.58-3.18-1.58-.73,0-1.39.16-1.96.48-.57.32-1.02.77-1.33,1.36-.32.59-.47,1.26-.47,2.02s.16,1.43.47,2.02c.31.59.76,1.04,1.33,1.36.57.32,1.23.48,1.96.48,1.25,0,2.31-.53,3.18-1.58l2.43,2.2c-.66.82-1.48,1.45-2.47,1.89-.99.44-2.1.66-3.34.66-1.41,0-2.69-.3-3.81-.9Z"/>
          <path class="cls-5" d="m405.48,107.48v13.51h-3.82v-5.27h-5.21v5.27h-3.82v-13.51h3.82v5.07h5.21v-5.07h3.82Z"/>
          <path class="cls-5" d="m411.15,120.35c-1.14-.6-2.03-1.44-2.68-2.51-.65-1.07-.97-2.27-.97-3.61s.32-2.54.97-3.61c.65-1.07,1.54-1.9,2.68-2.51,1.14-.6,2.42-.91,3.85-.91s2.71.3,3.85.91c1.14.6,2.03,1.44,2.68,2.51.65,1.07.97,2.27.97,3.61s-.33,2.54-.97,3.61c-.65,1.07-1.54,1.9-2.68,2.51-1.14.6-2.42.91-3.85.91s-2.71-.3-3.85-.91Zm5.7-2.74c.55-.32.99-.77,1.31-1.36.32-.59.48-1.26.48-2.02s-.16-1.43-.48-2.02c-.32-.59-.76-1.04-1.31-1.36-.55-.32-1.17-.48-1.85-.48s-1.3.16-1.85.48c-.55.32-.99.77-1.31,1.36-.32.59-.48,1.26-.48,2.02s.16,1.43.48,2.02c.32.59.76,1.04,1.31,1.36.55.32,1.17.48,1.85.48s1.3-.16,1.85-.48Z"/>
          <path class="cls-5" d="m427.47,120.35c-1.14-.6-2.03-1.44-2.68-2.51-.65-1.07-.97-2.27-.97-3.61s.32-2.54.97-3.61c.65-1.07,1.54-1.9,2.68-2.51,1.14-.6,2.42-.91,3.85-.91s2.71.3,3.85.91c1.14.6,2.03,1.44,2.68,2.51.65,1.07.97,2.27.97,3.61s-.33,2.54-.97,3.61c-.65,1.07-1.54,1.9-2.68,2.51-1.14.6-2.42.91-3.85.91s-2.71-.3-3.85-.91Zm5.7-2.74c.55-.32.99-.77,1.31-1.36.32-.59.48-1.26.48-2.02s-.16-1.43-.48-2.02c-.32-.59-.76-1.04-1.31-1.36-.55-.32-1.17-.48-1.85-.48s-1.3.16-1.85.48c-.55.32-.99.77-1.31,1.36-.32.59-.48,1.26-.48,2.02s.16,1.43.48,2.02c.32.59.76,1.04,1.31,1.36.55.32,1.17.48,1.85.48s1.3-.16,1.85-.48Z"/>
          <path class="cls-5" d="m440.83,107.48h3.82v10.48h6.45v3.03h-10.27v-13.51Z"/>
        </g>
        <rect class="cls-8" x="208.36" y="61.15" width="329.41" height="10.38"/>
        <rect class="cls-5" x="267.47" y="162.79" width="218.26" height="113.76"/>
        <rect class="cls-6" x="414.91" y="195.05" width="67.23" height="78.7"/>
        <path class="cls-5" d="m448.45,275.44c-.14,0-.26-18.29-.26-40.84s.12-40.85.26-40.85.26,18.29.26,40.85-.12,40.84-.26,40.84Z"/>
        <rect class="cls-6" x="271.35" y="195.05" width="67.23" height="78.7"/>
        <path class="cls-5" d="m304.89,275.44c-.14,0-.26-18.29-.26-40.84s.12-40.85.26-40.85.26,18.29.26,40.85-.12,40.84-.26,40.84Z"/>
        <rect class="cls-5" x="299.21" y="227" width="3.99" height="14.81"/>
        <rect class="cls-5" x="307.22" y="227" width="3.99" height="14.81"/>
        <rect class="cls-6" x="271.8" y="167.9" width="67.23" height="22.43"/>
        <rect class="cls-6" x="343.14" y="167.9" width="67.23" height="22.43"/>
        <rect class="cls-6" x="414.48" y="167.9" width="67.23" height="22.43"/>
        <g class="cls-2">
          <polygon class="cls-10" points="482.17 215.88 414.94 246.39 414.94 253.71 482.17 221.75 482.17 215.88"/>
        </g>
        <g class="cls-2">
          <polygon class="cls-10" points="481.65 227.41 414.42 257.92 414.42 262.35 481.65 231.53 481.65 227.41"/>
        </g>
        <rect class="cls-6" x="343.14" y="195.05" width="67.23" height="78.7"/>
        <g class="cls-2">
          <polygon class="cls-10" points="410.37 195.05 343.14 225.56 343.14 240.02 410.37 207.28 410.37 195.05"/>
        </g>
        <g class="cls-2">
          <polygon class="cls-10" points="410.37 212.18 343.14 242.68 343.14 247.11 410.37 216.29 410.37 212.18"/>
        </g>
        <path class="cls-5" d="m376.68,275.44c-.14,0-.26-18.29-.26-40.84s.12-40.85.26-40.85.26,18.29.26,40.85-.12,40.84-.26,40.84Z"/>
        <path class="cls-5" d="m388.59,229.89c-.11-.09,2.87-4.25,6.66-9.3,3.8-5.05,6.96-9.07,7.08-8.98.11.09-2.87,4.25-6.66,9.3-3.79,5.05-6.96,9.07-7.08,8.98Z"/>
        <path class="cls-5" d="m386.47,244.35c-.12-.08,3.36-5.21,7.77-11.45,4.41-6.24,8.08-11.23,8.2-11.15.12.08-3.36,5.21-7.77,11.45-4.41,6.24-8.08,11.23-8.2,11.15Z"/>
        <path class="cls-5" d="m349.89,249.45c-.1-.1,3.15-3.42,7.26-7.4,4.11-3.99,7.52-7.13,7.62-7.03.1.1-3.15,3.42-7.26,7.4-4.11,3.98-7.52,7.13-7.62,7.03Z"/>
        <path class="cls-5" d="m345.18,262.35s.25-.31.77-.81c.61-.57,1.35-1.26,2.23-2.07,1.97-1.83,4.52-4.2,7.34-6.82,2.78-2.66,5.3-5.07,7.24-6.93.86-.83,1.6-1.53,2.2-2.1.52-.49.83-.75.85-.73.03.03-.23.33-.71.87-.48.54-1.19,1.29-2.08,2.22-1.78,1.85-4.29,4.36-7.14,7.05-2.85,2.69-5.5,5.05-7.45,6.72-.98.83-1.77,1.5-2.34,1.95-.56.45-.88.68-.91.66Z"/>
        <rect class="cls-5" x="371.01" y="227" width="3.99" height="14.81"/>
        <rect class="cls-5" x="379.01" y="227" width="3.99" height="14.81"/>
        <path class="cls-5" d="m389.12,173.72c.04.06-1.09.87-2.9,2.2-1.92,1.42-4.36,3.22-7.06,5.21-2.76,2.03-5.29,3.84-7.16,5.09-.93.63-1.7,1.12-2.24,1.44-.54.32-.85.49-.87.46-.04-.06,1.09-.87,2.9-2.2,1.92-1.42,4.36-3.22,7.06-5.21,2.76-2.03,5.29-3.84,7.16-5.09.93-.63,1.7-1.12,2.24-1.44.54-.32.85-.49.87-.46Z"/>
        <path class="cls-5" d="m377.03,177.71c.08.12-2.79,2.31-6.41,4.9-3.62,2.59-6.63,4.6-6.71,4.48-.08-.12,2.78-2.31,6.41-4.9,3.62-2.59,6.63-4.6,6.71-4.48Z"/>
        <path class="cls-5" d="m318.01,170.18c.04.06-1.09.87-2.9,2.2-1.92,1.42-4.36,3.22-7.06,5.21-2.76,2.03-5.29,3.84-7.16,5.09-.93.63-1.7,1.12-2.24,1.44-.54.32-.85.49-.87.46-.04-.06,1.09-.87,2.9-2.2,1.92-1.42,4.36-3.22,7.06-5.21,2.76-2.03,5.29-3.84,7.16-5.09.93-.63,1.7-1.12,2.24-1.44.54-.32.85-.49.87-.46Z"/>
        <path class="cls-5" d="m305.91,174.17c.08.12-2.78,2.31-6.41,4.9-3.62,2.59-6.63,4.6-6.71,4.48-.08-.12,2.78-2.31,6.41-4.9,3.62-2.59,6.63-4.6,6.71-4.48Z"/>
        <path class="cls-5" d="m468.26,171.91c.04.06-1.09.87-2.9,2.2-1.92,1.42-4.36,3.22-7.06,5.21-2.76,2.03-5.29,3.84-7.16,5.09-.93.63-1.7,1.12-2.24,1.44-.54.32-.85.49-.87.46-.04-.06,1.09-.87,2.9-2.2,1.92-1.42,4.36-3.22,7.06-5.21,2.76-2.03,5.29-3.84,7.16-5.09.93-.63,1.7-1.12,2.24-1.44.54-.32.85-.49.87-.46Z"/>
        <path class="cls-5" d="m456.16,175.91c.08.12-2.78,2.31-6.41,4.9-3.62,2.59-6.63,4.6-6.71,4.48s2.78-2.31,6.41-4.9c3.62-2.59,6.63-4.6,6.71-4.48Z"/>
        <g class="cls-2">
          <polygon class="cls-10" points="329.83 195.05 303.07 195.05 271.8 208.85 271.8 221.57 329.83 195.05 329.83 195.05"/>
        </g>
        <g class="cls-2">
          <polygon class="cls-10" points="339.03 195.47 271.8 225.98 271.8 230.41 339.03 199.59 339.03 195.47"/>
        </g>
        <g class="cls-1">
          <rect class="cls-4" x="233.42" y="183.56" width="18.68" height="7.73"/>
        </g>
        <g class="cls-2">
          <rect class="cls-4" x="224.43" y="174.57" width="18.68" height="7.73"/>
        </g>
        <g class="cls-1">
          <rect class="cls-4" x="250.51" y="132.56" width="18.68" height="7.73"/>
        </g>
        <g class="cls-2">
          <rect class="cls-4" x="260.42" y="121.73" width="18.68" height="7.73"/>
        </g>
        <g class="cls-1">
          <rect class="cls-4" x="190.38" y="115.67" width="18.68" height="7.73"/>
        </g>
        <g class="cls-2">
          <rect class="cls-4" x="200.28" y="104.84" width="18.68" height="7.73"/>
        </g>
        <g class="cls-1">
          <rect class="cls-4" x="98.04" y="142.79" width="18.68" height="7.73"/>
        </g>
        <g class="cls-1">
          <rect class="cls-4" x="74.39" y="113.33" width="18.68" height="7.73"/>
        </g>
        <g class="cls-2">
          <rect class="cls-4" x="107.94" y="131.95" width="18.68" height="7.73"/>
        </g>
        <g class="cls-2">
          <rect class="cls-4" x="113" y="257.18" width="18.68" height="7.73"/>
        </g>
        <g class="cls-2">
          <rect class="cls-4" x="180.48" y="126.39" width="18.68" height="7.73"/>
        </g>
        <g class="cls-1">
          <rect class="cls-4" x="662.58" y="111.81" width="18.68" height="7.73"/>
        </g>
        <g class="cls-2">
          <rect class="cls-4" x="672.49" y="100.97" width="18.68" height="7.73"/>
        </g>
        <g class="cls-1">
          <rect class="cls-4" x="570.24" y="138.93" width="18.68" height="7.73"/>
        </g>
        <g class="cls-1">
          <rect class="cls-4" x="546.6" y="109.47" width="18.68" height="7.73"/>
        </g>
        <g class="cls-2">
          <rect class="cls-4" x="580.15" y="128.09" width="18.68" height="7.73"/>
        </g>
        <g class="cls-2">
          <rect class="cls-4" x="649.39" y="141.73" width="18.68" height="7.73"/>
        </g>
        <g class="cls-2">
          <rect class="cls-4" x="368.44" y="91.28" width="18.68" height="7.73"/>
        </g>
        <g class="cls-1">
          <rect class="cls-4" x="377.78" y="79.73" width="18.68" height="7.73"/>
        </g>
        <g class="cls-2">
          <rect class="cls-4" x="513.07" y="147.38" width="18.17" height="7.73"/>
        </g>
        <g class="cls-1">
          <rect class="cls-4" x="522.41" y="135.82" width="8.83" height="7.73"/>
        </g>
        <g class="cls-2">
          <rect class="cls-4" x="452.27" y="128.7" width="18.68" height="7.73"/>
        </g>
        <g class="cls-1">
          <rect class="cls-4" x="462.18" y="117.14" width="18.68" height="7.73"/>
        </g>
        <path class="cls-5" d="m218.97,276.3c-.14,0-.26-45.79-.26-102.26s.12-102.27.26-102.27.26,45.78.26,102.27-.12,102.26-.26,102.26Z"/>
        <rect class="cls-5" x="442.78" y="227" width="3.99" height="14.81"/>
        <rect class="cls-5" x="450.78" y="227" width="3.99" height="14.81"/>
        <g>
          <rect class="cls-13" x="137.49" y="155.52" width="72.9" height="101.2"/>
          <rect class="cls-5" x="144.55" y="162.79" width="58.79" height="86.67"/>
          <rect class="cls-6" x="149.6" y="187.09" width="48.67" height="57.09"/>
          <rect class="cls-6" x="149.6" y="167.9" width="48.67" height="16.01"/>
          <path class="cls-5" d="m173.94,245.73c-.14,0-.26-12.92-.26-28.86s.12-28.86.26-28.86.26,12.92.26,28.86-.12,28.86-.26,28.86Z"/>
          <path class="cls-5" d="m168.94,219.92c.1.11-2.83,2.85-6.54,6.14-3.71,3.28-6.79,5.85-6.88,5.75-.1-.11,2.83-2.85,6.54-6.14,3.71-3.28,6.79-5.85,6.88-5.75Z"/>
          <path class="cls-5" d="m168.97,215.83c.09.11-1.73,1.84-4.07,3.86-2.34,2.02-4.32,3.57-4.41,3.46-.09-.11,1.73-1.84,4.07-3.86,2.34-2.02,4.32-3.57,4.41-3.46Z"/>
          <path class="cls-5" d="m194.43,201.95c.09.11-3.08,2.87-7.08,6.16-4,3.29-7.32,5.87-7.41,5.76-.09-.11,3.08-2.87,7.08-6.16,4-3.29,7.32-5.87,7.41-5.76Z"/>
          <path class="cls-5" d="m188.2,210.84c.1.1-.53.87-1.4,1.7-.87.84-1.66,1.43-1.76,1.33-.1-.1.53-.87,1.4-1.7.87-.84,1.66-1.43,1.76-1.32Z"/>
        </g>
        <g>
          <rect class="cls-13" x="56.5" y="155.52" width="72.9" height="101.2"/>
          <rect class="cls-5" x="63.55" y="162.79" width="58.79" height="86.67"/>
          <rect class="cls-6" x="68.61" y="187.09" width="48.67" height="57.09"/>
          <rect class="cls-6" x="68.61" y="167.9" width="48.67" height="16.01"/>
          <path class="cls-5" d="m92.95,245.73c-.14,0-.26-12.92-.26-28.86s.12-28.86.26-28.86.26,12.92.26,28.86-.12,28.86-.26,28.86Z"/>
          <path class="cls-5" d="m87.94,219.92c.1.11-2.83,2.85-6.54,6.14-3.71,3.28-6.79,5.85-6.88,5.75-.1-.11,2.83-2.85,6.54-6.14,3.71-3.28,6.79-5.85,6.88-5.75Z"/>
          <path class="cls-5" d="m87.98,215.83c.09.11-1.73,1.84-4.07,3.86-2.34,2.02-4.32,3.57-4.41,3.46-.09-.11,1.73-1.84,4.07-3.86,2.34-2.02,4.32-3.57,4.41-3.46Z"/>
          <path class="cls-5" d="m113.44,201.95c.09.11-3.08,2.87-7.08,6.16-4,3.29-7.32,5.87-7.41,5.76-.09-.11,3.08-2.87,7.08-6.16,4-3.29,7.32-5.87,7.41-5.76Z"/>
          <path class="cls-5" d="m107.2,210.84c.1.1-.53.87-1.4,1.7-.87.84-1.66,1.43-1.76,1.33s.53-.87,1.4-1.7c.87-.84,1.66-1.43,1.76-1.32Z"/>
        </g>
        <g>
          <rect class="cls-13" x="622.28" y="155.52" width="72.9" height="101.2"/>
          <rect class="cls-5" x="629.33" y="162.79" width="58.79" height="86.67"/>
          <rect class="cls-6" x="634.39" y="187.09" width="48.67" height="57.09"/>
          <rect class="cls-6" x="634.39" y="167.9" width="48.67" height="16.01"/>
          <path class="cls-5" d="m658.73,245.73c-.14,0-.26-12.92-.26-28.86s.12-28.86.26-28.86.26,12.92.26,28.86-.12,28.86-.26,28.86Z"/>
          <path class="cls-5" d="m653.72,219.92c.1.11-2.83,2.85-6.54,6.14-3.71,3.28-6.79,5.85-6.88,5.75-.1-.11,2.83-2.85,6.54-6.14,3.71-3.28,6.79-5.85,6.88-5.75Z"/>
          <path class="cls-5" d="m653.76,215.83c.09.11-1.73,1.84-4.07,3.86-2.34,2.02-4.32,3.57-4.41,3.46s1.73-1.84,4.07-3.86c2.34-2.02,4.32-3.57,4.41-3.46Z"/>
          <path class="cls-5" d="m679.22,201.95c.09.11-3.08,2.87-7.08,6.16-4,3.29-7.32,5.87-7.41,5.76-.09-.11,3.08-2.87,7.08-6.16,4-3.29,7.32-5.87,7.41-5.76Z"/>
          <path class="cls-5" d="m672.98,210.84c.1.1-.53.87-1.4,1.7-.87.84-1.66,1.43-1.76,1.33s.53-.87,1.4-1.7c.87-.84,1.66-1.43,1.76-1.32Z"/>
        </g>
        <g>
          <rect class="cls-13" x="541.28" y="155.52" width="72.9" height="101.2"/>
          <rect class="cls-5" x="548.34" y="162.79" width="58.79" height="86.67"/>
          <rect class="cls-6" x="553.4" y="187.09" width="48.67" height="57.09"/>
          <rect class="cls-6" x="553.4" y="167.9" width="48.67" height="16.01"/>
          <path class="cls-5" d="m577.73,245.73c-.14,0-.26-12.92-.26-28.86s.12-28.86.26-28.86.26,12.92.26,28.86-.12,28.86-.26,28.86Z"/>
          <path class="cls-5" d="m572.73,219.92c.1.11-2.83,2.85-6.54,6.14-3.71,3.28-6.79,5.85-6.88,5.75-.1-.11,2.83-2.85,6.54-6.14,3.71-3.28,6.79-5.85,6.88-5.75Z"/>
          <path class="cls-5" d="m572.76,215.83c.09.11-1.73,1.84-4.07,3.86-2.34,2.02-4.32,3.57-4.41,3.46-.09-.11,1.73-1.84,4.07-3.86,2.34-2.02,4.32-3.57,4.41-3.46Z"/>
          <path class="cls-5" d="m598.22,201.95c.09.11-3.08,2.87-7.08,6.16-4,3.29-7.32,5.87-7.41,5.76-.09-.11,3.08-2.87,7.08-6.16,4-3.29,7.32-5.87,7.41-5.76Z"/>
          <path class="cls-5" d="m591.99,210.84c.1.1-.53.87-1.4,1.7-.87.84-1.66,1.43-1.76,1.33-.1-.1.53-.87,1.4-1.7.87-.84,1.66-1.43,1.76-1.32Z"/>
        </g>
        <path class="cls-6" d="m144.95,275.29c-3.32-5.7-10.99-8.41-17.14-6.05-1.71-3.82-5.78-6.45-9.96-6.45-4.18,0-8.25,2.64-9.96,6.46-4.66-2.36-10.94-.81-13.96,3.46-3.7-4.34-10.66-5.44-15.52-2.46-1.24-3.24-4.65-5.52-8.12-5.43-3.47.09-6.75,2.55-7.82,5.85-6.27-3.62-15.39.89-18.29,7.52h112.87c-1.83-4.03-8.48-5.46-12.08-2.89Z"/>
        <path class="cls-6" d="m213.5,273.75c-2.67-.62-6.01-.88-6.01-.88,0,0-1.36-2.31-3.73-3.05-1.35-.42-4.07-.49-5.16.4-.82-4.52-5.34-8.06-9.93-7.77-4.59.29-8.63,4.36-8.88,8.95-1.96-1.82-4.85-2.58-7.45-1.95-2.6.63-4.82,2.64-5.72,5.16-3.61-1.99-8.69.02-10.78,3.57l63.87.21c-.47-2.94-3.53-4.02-6.2-4.64Z"/>
        <path class="cls-6" d="m635.47,275.29c-3.32-5.7-10.99-8.41-17.14-6.05-1.71-3.82-5.78-6.45-9.96-6.45-4.18,0-8.25,2.64-9.96,6.46-4.66-2.36-10.94-.81-13.96,3.46-3.7-4.34-10.66-5.44-15.52-2.46-1.24-3.24-4.65-5.52-8.12-5.43-3.47.09-6.75,2.55-7.82,5.85-6.27-3.62-15.39.89-18.29,7.52h112.86c-1.83-4.03-8.48-5.46-12.08-2.89Z"/>
        <path class="cls-6" d="m704.02,273.75c-2.67-.62-6.01-.88-6.01-.88,0,0-1.36-2.31-3.73-3.05-1.35-.42-4.07-.49-5.16.4-.82-4.52-5.34-8.06-9.93-7.77-4.59.29-8.63,4.36-8.88,8.95-1.96-1.82-4.85-2.58-7.45-1.95-2.6.63-4.82,2.64-5.72,5.16-3.61-1.99-8.69.02-10.78,3.57l63.87.21c-.47-2.94-3.53-4.02-6.2-4.64Z"/>
        <rect class="cls-8" x="25.16" y="277.05" width="699.68" height="10.14"/>
        <path class="cls-5" d="m37.43,287.51c-.14,0-.26-2.23-.26-4.97s.12-4.97.26-4.97.26,2.22.26,4.97-.12,4.97-.26,4.97Z"/>
        <path class="cls-5" d="m72.21,287.51c-.14,0-.26-2.23-.26-4.97s.12-4.97.26-4.97.26,2.22.26,4.97-.12,4.97-.26,4.97Z"/>
        <path class="cls-5" d="m107,287.51c-.14,0-.26-2.23-.26-4.97s.12-4.97.26-4.97.26,2.22.26,4.97-.12,4.97-.26,4.97Z"/>
        <path class="cls-5" d="m141.78,287.51c-.14,0-.26-2.23-.26-4.97s.12-4.97.26-4.97.26,2.22.26,4.97-.12,4.97-.26,4.97Z"/>
        <path class="cls-5" d="m176.57,287.51c-.14,0-.26-2.23-.26-4.97s.12-4.97.26-4.97.26,2.22.26,4.97-.12,4.97-.26,4.97Z"/>
        <path class="cls-5" d="m211.35,287.51c-.14,0-.26-2.23-.26-4.97s.12-4.97.26-4.97.26,2.22.26,4.97-.12,4.97-.26,4.97Z"/>
        <path class="cls-5" d="m246.14,287.51c-.14,0-.26-2.23-.26-4.97s.12-4.97.26-4.97.26,2.22.26,4.97-.12,4.97-.26,4.97Z"/>
        <path class="cls-5" d="m280.92,287.51c-.14,0-.26-2.23-.26-4.97s.12-4.97.26-4.97.26,2.22.26,4.97-.12,4.97-.26,4.97Z"/>
        <path class="cls-5" d="m315.71,287.51c-.14,0-.26-2.23-.26-4.97s.12-4.97.26-4.97.26,2.22.26,4.97-.12,4.97-.26,4.97Z"/>
        <path class="cls-5" d="m350.5,287.51c-.14,0-.26-2.23-.26-4.97s.12-4.97.26-4.97.26,2.22.26,4.97-.12,4.97-.26,4.97Z"/>
        <path class="cls-5" d="m385.28,287.51c-.14,0-.26-2.23-.26-4.97s.12-4.97.26-4.97.26,2.22.26,4.97-.12,4.97-.26,4.97Z"/>
        <path class="cls-5" d="m420.07,287.51c-.14,0-.26-2.23-.26-4.97s.12-4.97.26-4.97.26,2.22.26,4.97-.12,4.97-.26,4.97Z"/>
        <path class="cls-5" d="m454.85,287.51c-.14,0-.26-2.23-.26-4.97s.12-4.97.26-4.97.26,2.22.26,4.97-.12,4.97-.26,4.97Z"/>
        <path class="cls-5" d="m489.64,287.51c-.14,0-.26-2.23-.26-4.97s.12-4.97.26-4.97.26,2.22.26,4.97-.12,4.97-.26,4.97Z"/>
        <path class="cls-5" d="m524.42,287.51c-.14,0-.26-2.23-.26-4.97s.12-4.97.26-4.97.26,2.22.26,4.97-.12,4.97-.26,4.97Z"/>
        <path class="cls-5" d="m559.21,287.51c-.14,0-.26-2.23-.26-4.97s.12-4.97.26-4.97.26,2.22.26,4.97-.12,4.97-.26,4.97Z"/>
        <path class="cls-5" d="m593.99,287.51c-.14,0-.26-2.23-.26-4.97s.12-4.97.26-4.97.26,2.22.26,4.97-.12,4.97-.26,4.97Z"/>
        <path class="cls-5" d="m628.78,287.51c-.14,0-.26-2.23-.26-4.97s.12-4.97.26-4.97.26,2.22.26,4.97-.12,4.97-.26,4.97Z"/>
        <path class="cls-5" d="m663.56,287.51c-.14,0-.26-2.23-.26-4.97s.12-4.97.26-4.97.26,2.22.26,4.97-.12,4.97-.26,4.97Z"/>
        <path class="cls-5" d="m698.35,287.51c-.14,0-.26-2.23-.26-4.97s.12-4.97.26-4.97.26,2.22.26,4.97-.12,4.97-.26,4.97Z"/>
      </g>
      <rect class="cls-8" x="37.43" y="87.46" width="181.54" height="7.69"/>
      <rect class="cls-8" x="531.25" y="87.44" width="176.55" height="7.69"/>
      <path class="cls-5" d="m531.25,276.44c-.14,0-.26-45.79-.26-102.26s.12-102.27.26-102.27.26,45.78.26,102.27-.12,102.26-.26,102.26Z"/>
      <path class="cls-5" d="m735.36,287.18c0,.14-161.35.26-360.34.26s-360.38-.12-360.38-.26,161.32-.26,360.38-.26,360.34.12,360.34.26Z"/>
    </g>
  </g>
  <g id="Character_2" data-name="Character 2">
    <g>
      <g>
        <path class="cls-5" d="m511.93,319.68c-6.1-.04-13.01.28-17,4.89-1.98,2.28-2.88,5.28-3.66,8.2-1.66,6.25-2.98,12.6-3.93,18.99-.34,2.27-.58,4.78.72,6.67,1.98,2.86,6.2,2.67,9.62,2.06,5.82-1.03,11.59-2.37,17.27-4.01l-3.01-36.8Z"/>
        <path class="cls-5" d="m511.99,290.6c0,.81-13,37.77-13,37.77l5.01.54,7.99-30.4v-7.92Z"/>
        <path class="cls-6" d="m500.42,324.81c.02.05-.53.15-1.32.68-.79.52-1.78,1.55-2.43,3.13-.67,1.57-1.02,3.61-1.49,5.84-.46,2.24-.92,4.71-1.37,7.31-.88,5.2-1.5,9.94-1.86,13.37-.16,1.71,0,3.1.35,3.99.33.9.72,1.29.67,1.32-.01.01-.11-.08-.28-.28-.16-.2-.39-.51-.58-.97-.42-.9-.64-2.35-.53-4.09.26-3.47.83-8.22,1.71-13.43.45-2.61.93-5.08,1.41-7.32.5-2.23.88-4.28,1.63-5.89.72-1.62,1.81-2.66,2.66-3.15.43-.25.79-.38,1.04-.45.25-.07.39-.08.39-.06Z"/>
        <path class="cls-6" d="m511.12,344.16s-.4.25-1.18.59c-.78.33-1.94.77-3.41,1.17-.73.2-1.55.39-2.43.55-.88.16-1.86.3-2.9.14-1.04-.14-2.13-.8-2.66-1.85-.54-1.04-.64-2.25-.6-3.41.32-4.65,1.15-8.77,1.89-11.71.37-1.47.72-2.65.99-3.45.26-.81.44-1.24.47-1.23.04.01-.07.47-.27,1.29-.2.82-.5,2.01-.83,3.48-.64,2.94-1.42,7.07-1.73,11.65-.04,1.13.07,2.25.54,3.16.46.92,1.35,1.47,2.29,1.62.94.16,1.88.05,2.75-.09.87-.14,1.68-.31,2.41-.48,1.46-.35,2.63-.73,3.43-1,.8-.27,1.24-.43,1.25-.4Z"/>
      </g>
      <g>
        <g>
          <path class="cls-9" d="m500.01,238.54l3.06,9,1.07,1.51s.93,5.01.99,6.08c.06,1.07-1.33,6.67-1.33,6.67l3.11,4.98-8.61,3.3s-2.33-4.55-2.98-5.06c-.65-.52-1.12-1.99-1.27-2.99-.15-1-1.44-6.9-1.44-6.9,0,0-3.82-6.52-2.22-6.85.36-.08,1.2.02,1.2.02,0,0,2.3,4.29,2.91,4.38l.87-.51s-1.79-6.56-1.89-7.78c-.09-1.23.16-2.09,1.11-2.23,0,0,.71.29.77.6.06.31,1.85,7.63,2.26,7.49.4-.14.21-.8.21-.8,0,0-2.38-8.87-2.27-9.38.11-.51.54-1.3,1.43-1.22l1.82,4.87s-.85-4.1-.19-4.83c.66-.73,1.39-.34,1.39-.34Z"/>
          <path class="cls-7" d="m498.19,258.46c.07,0,.02-.77.31-1.99.29-1.19,1.08-2.9,2.67-4.14l.12-.09-.03-.14c-.15-.65-.31-1.33-.47-2.04v-.04s-.04-.04-.04-.04c-.15-.21-.31-.46-.45-.71-.49-.85-.85-1.73-.99-2.59-.07-.43-.09-.86.02-1.21.09-.36.37-.62.65-.66l-.15-.05c1.03.98,1.89,1.79,2.5,2.35s.97.86,1,.83c.03-.03-.28-.39-.85-.99-.57-.6-1.39-1.45-2.39-2.47l-.06-.06h-.08c-.51.06-.89.47-1.02.93-.14.46-.12.94-.05,1.4.14.94.52,1.87,1.03,2.75.15.26.31.51.48.75l-.04-.08c.17.7.33,1.38.49,2.03l.09-.23c-1.72,1.37-2.45,3.18-2.69,4.44-.12.64-.14,1.16-.12,1.51.02.35.04.54.07.54Z"/>
          <path class="cls-7" d="m498.19,251.18c-.04-.11-1.35.27-2.73,1.19-1.39.92-2.26,1.97-2.17,2.05.09.09,1.07-.79,2.42-1.67,1.34-.89,2.53-1.45,2.48-1.57Z"/>
        </g>
        <path class="cls-9" d="m496.82,266.74s8.31,28.94,16.04,28.37c7.73-.57,10.78-7,10.78-7l-.11-15.78-4.52.61-3.84,7.14-11.38-18.28-6.98,4.94Z"/>
      </g>
      <g>
        <path class="cls-5" d="m536.48,218.53c1.49-4.66,4.83-8.69,9.13-11.03l-.36-.28c3.93-1.1,8.52,1.45,9.65,5.37.47,1.61.4,3.32.57,4.99.16,1.67.61,3.42,1.84,4.56.66.61,1.49.99,2.18,1.56.69.57,1.26,1.44,1.07,2.31-.24,1.12-1.54,1.65-2.69,1.72-1.14.07-2.35-.12-3.39.35,1.41,1.28,1.5,3.74.18,5.12-1.31,1.38-3.78,1.41-5.12.06.55,1.93-.71,4.09-2.56,4.89-1.84.8-4.06.38-5.74-.72-1.68-1.1-2.88-2.81-3.76-4.62-2.13-4.4-2.5-9.63-1-14.28Z"/>
        <path class="cls-5" d="m507.92,206.19c.34-1.41,1.74-2.35,3.17-2.59,1.43-.24,2.88.08,4.3.4-.37-1.89-.75-3.85-.35-5.74s1.76-3.71,3.66-4.03c1.64-.27,3.25.61,4.54,1.66,1.29,1.05,2.43,2.32,3.92,3.06,3.87,1.94,8.6-.22,12.81.74,4.33.99,7.86,6.08,7.11,10.45-7.2,2.51-14.46,5.05-20.93,9.09-3.5,2.18-7.26,4.91-11.31,4.15-2.52-.47-4.71-2.41-5.49-4.85-.78-2.44-.12-5.28,1.65-7.13-1.7-1.3-3.6-3.11-3.1-5.2Z"/>
        <path class="cls-9" d="m515.67,217.91c.62-5.96,7.31-11.67,13.24-10.79l19.17,4.47-3.4,2.68-2.67,38.75h0s.86,14.34-9.95,13.16c-9.71-1.06-8.75-11.32-8.75-11.33l.74-6.64s-7.99-1.49-9.16-11.52c-.58-4.99.09-12.15.78-18.77Z"/>
        <path class="cls-5" d="m517.72,227.3c-.05.67.48,1.27,1.18,1.34.7.07,1.31-.42,1.36-1.1.05-.67-.48-1.27-1.18-1.34-.7-.07-1.31.43-1.37,1.1Z"/>
        <path class="cls-5" d="m517.21,223.28c.15.17,1.15-.5,2.52-.44,1.37.04,2.35.79,2.51.63.08-.07-.07-.38-.5-.72-.42-.34-1.14-.68-2-.71-.86-.03-1.59.26-2.02.56-.44.31-.59.6-.52.68Z"/>
        <path class="cls-5" d="m528.94,228.22c-.05.67.48,1.27,1.18,1.34.7.07,1.31-.42,1.36-1.1.05-.67-.48-1.27-1.18-1.34-.7-.07-1.31.42-1.37,1.1Z"/>
        <path class="cls-5" d="m529.86,224.02c.15.17,1.15-.5,2.52-.44,1.37.04,2.35.79,2.51.63.08-.07-.07-.38-.5-.72-.42-.34-1.14-.68-2-.71-.86-.03-1.59.26-2.02.56-.44.31-.59.6-.52.68Z"/>
        <path class="cls-5" d="m525.31,234.5c0-.07-.84-.23-2.22-.45-.35-.05-.68-.12-.73-.33-.08-.22.08-.53.26-.87.35-.7.72-1.44,1.11-2.22.42-.81,2.49-5.37,2.53-5.82-.15-.06-1.53,2.46-3.08,5.62-.37.78-.73,1.52-1.07,2.23-.14.33-.38.7-.22,1.16.09.23.34.4.56.46.22.07.42.08.59.1,1.39.13,2.26.18,2.26.11Z"/>
        <path class="cls-7" d="m523.85,248.24s6.69.71,13.49-3.01c0,0-3.69,6.82-13.63,5.48l.14-2.46Z"/>
        <path class="cls-5" d="m529.43,234.13c-.22-.02-.29,1.47-1.61,2.48-1.32,1.01-2.9.78-2.92.99-.02.09.34.3,1.01.35.66.05,1.63-.12,2.44-.74.81-.62,1.18-1.47,1.25-2.08.08-.62-.07-1-.17-.99Z"/>
        <path class="cls-5" d="m530.5,219.45c.14.43,1.34.16,2.77.32,1.43.12,2.6.61,2.77.21.07-.19-.15-.59-.63-.99-.48-.4-1.23-.76-2.09-.85-.86-.08-1.63.14-2.13.44-.51.3-.75.66-.69.87Z"/>
        <path class="cls-5" d="m517.36,218.55c.21.4,1.24.13,2.44.25,1.2.07,2.17.5,2.44.14.12-.18,0-.56-.39-.96-.39-.4-1.09-.76-1.91-.83-.82-.06-1.57.19-2.02.52-.46.33-.65.69-.55.88Z"/>
        <path class="cls-5" d="m516.76,212.29c1.94-3.33,5.45-5.57,9.2-6.48,3.75-.9,7.71-.57,11.45.37,3.74.95,7.29,2.49,10.83,4.02.86.37,1.79.81,2.17,1.67.26.58.21,1.24.15,1.88-.47,5.33-.94,10.65-1.41,15.98l-1.55,3.23c-1.73-.04-3.15-1.36-4.23-2.7-3.78-4.71-5.65-10.91-5.1-16.93-.54.65-.72,1.5-1.03,2.29-.3.78-.82,1.59-1.64,1.78-1.37.32-2.45-1.25-2.61-2.64-.16-1.39.12-2.89-.52-4.14-1.44,1.94-3.32,3.55-5.46,4.66-1.01.52-2.34.91-3.2.17-.61-.52-.74-1.45-.52-2.23.22-.77.72-1.43,1.22-2.07-1.7,1.74-3.91,2.96-6.29,3.48-.52.11-1.13.17-1.53-.18-.58-.52-.3-1.47.09-2.15Z"/>
        <path class="cls-9" d="m543.01,227.83c.15-.06,6.2-1.51,5.71,4.56-.49,6.07-6.48,4.33-6.48,4.16,0-.17.77-8.72.77-8.72Z"/>
        <path class="cls-7" d="m544.29,234.39s.1.08.27.18c.17.09.46.17.79.08.66-.18,1.28-1.16,1.4-2.25.06-.55-.01-1.09-.17-1.54-.15-.46-.41-.79-.73-.88-.32-.1-.56.07-.65.24-.1.16-.07.29-.1.3-.02.01-.12-.11-.05-.36.03-.12.12-.26.27-.36.16-.11.37-.15.6-.11.47.07.85.53,1.03,1.03.2.5.3,1.1.23,1.72-.14,1.22-.86,2.32-1.75,2.5-.44.08-.78-.08-.95-.24-.18-.17-.2-.3-.18-.31Z"/>
        <path class="cls-6" d="m539.54,212.64s.03.13.11.36c.08.23.21.57.41,1,.38.86,1,2.08,1.98,3.45.49.68,1.07,1.4,1.75,2.13.35.36.7.72,1.1,1.07.4.34.89.69,1.49.77.61.09,1.25-.21,1.63-.69.4-.48.63-1.07.71-1.7.13-1.28-.37-2.48-.44-3.72,0-.16-.01-.33,0-.48l-.29.09c.81.96,1.59,1.9,2.35,2.8.38.45.75.9,1.12,1.33.36.43.77.87,1.33,1.08.28.1.61.1.88-.03.28-.12.48-.35.62-.58.28-.47.37-.99.43-1.47.13-.96.09-1.87,0-2.69-.21-1.64-.74-2.88-1.17-3.68-.22-.4-.41-.7-.55-.89-.14-.19-.22-.29-.23-.29-.03.02.27.43.67,1.24.39.81.88,2.04,1.06,3.65.08.8.1,1.69-.03,2.63-.06.47-.16.95-.4,1.36-.23.42-.71.65-1.17.48-.46-.17-.85-.57-1.2-1-.36-.43-.73-.88-1.11-1.33-.75-.9-1.53-1.84-2.33-2.8l-.27-.33v.42c-.02.16-.02.34,0,.51.09,1.31.57,2.51.45,3.67-.07.57-.28,1.12-.63,1.54-.34.42-.85.66-1.36.6-.51-.06-.96-.36-1.34-.69-.39-.33-.75-.7-1.1-1.04-.68-.7-1.26-1.41-1.76-2.08-.99-1.34-1.64-2.53-2.05-3.37-.21-.42-.36-.75-.46-.97-.1-.22-.16-.34-.17-.34Z"/>
      </g>
      <g>
        <path class="cls-15" d="m528.37,444.4v25.32s-33.96.08-33.96.08c.18-3.01,17.72-9.09,17.72-9.09l-.71-16.22,16.96-.08Z"/>
        <path class="cls-10" d="m522.3,460.94c.66.17,1.12.85.97,1.47-.15.62-.89,1.05-1.56.9-.66-.15-1.24-.96-1.01-1.56.22-.6,1.13-1.06,1.73-.77"/>
        <path class="cls-5" d="m528.36,469.72l-.11-2.55-32.51,1.03s-1.51.61-1.33,1.6l33.95-.08Z"/>
        <path class="cls-5" d="m512.07,460.76c0,.15.84.22,1.65.71.83.47,1.26,1.14,1.41,1.08.15-.03-.1-.95-1.1-1.53-1-.59-2-.4-1.96-.26Z"/>
        <path class="cls-5" d="m508.18,462.18c-.04.15.68.41,1.25,1.06.59.63.73,1.34.9,1.33.16.02.27-.88-.46-1.67-.71-.8-1.69-.86-1.69-.72Z"/>
        <path class="cls-5" d="m506.13,466.13c.15.03.38-.74-.05-1.58-.42-.84-1.21-1.17-1.28-1.05-.09.13.41.58.75,1.27.36.69.41,1.34.57,1.35Z"/>
        <path class="cls-5" d="m512.01,457.55c.07.14.83-.07,1.77-.02.94.04,1.67.33,1.75.2.1-.11-.62-.68-1.72-.73-1.1-.06-1.88.43-1.8.55Z"/>
        <path class="cls-5" d="m512.64,453.09c0,.06.65.16,1.7-.01.52-.08,1.13-.24,1.78-.51.32-.13.65-.29.97-.48.16-.09.34-.19.51-.37.18-.16.29-.57.07-.82-.18-.24-.48-.35-.73-.35-.25,0-.45.04-.64.08-.38.09-.73.2-1.06.34-.65.28-1.17.62-1.56.96-.78.68-1.05,1.25-.99,1.28.08.05.46-.43,1.25-.99.4-.28.91-.57,1.51-.8.3-.11.63-.21.97-.28.36-.09.66-.09.76.06.03.06.04.08-.04.18-.08.09-.22.18-.38.27-.3.18-.6.34-.9.48-.59.27-1.16.46-1.64.59-.97.25-1.61.3-1.61.38Z"/>
        <path class="cls-5" d="m512.86,453.31c.06.02.38-.53.44-1.52.03-.49-.03-1.09-.24-1.73-.11-.32-.25-.64-.44-.96-.2-.31-.45-.73-1.09-.79-.34-.01-.61.23-.71.44-.11.21-.13.4-.17.58-.06.37-.05.73,0,1.06.11.67.41,1.23.73,1.63.67.81,1.36,1,1.37.94.05-.08-.52-.37-1.04-1.16-.25-.39-.48-.9-.55-1.48-.03-.29-.03-.6.03-.91.05-.33.19-.61.32-.57.17,0,.46.25.6.52.18.28.32.57.43.85.22.57.31,1.11.34,1.57.05.92-.12,1.5-.03,1.52Z"/>
      </g>
      <g>
        <path class="cls-15" d="m560.67,436.37l14.06,16.99-23.52,17.62c-1.55-2.11,7.24-15.27,7.24-15.27l-9.51-10.51,11.72-8.83Z"/>
        <path class="cls-10" d="m566.55,450.39c.55-.23,1.25,0,1.49.48.24.49-.04,1.17-.58,1.41-.54.24-1.39,0-1.57-.52-.18-.52.19-1.3.77-1.41"/>
        <path class="cls-5" d="m574.74,453.36l-1.49-1.66-22,17.51s-.71,1.19-.04,1.76l23.52-17.62Z"/>
        <path class="cls-5" d="m558.43,455.89c.09.1.7-.28,1.54-.38.84-.11,1.5.11,1.58,0,.09-.1-.6-.59-1.61-.46-1.02.12-1.61.76-1.51.84Z"/>
        <path class="cls-5" d="m556.56,458.88c.06.12.7-.08,1.45.06.76.12,1.25.52,1.36.43.12-.06-.3-.73-1.24-.89-.94-.17-1.65.3-1.57.39Z"/>
        <path class="cls-5" d="m557.26,462.57c.12-.06-.15-.69-.91-1.03-.76-.35-1.49-.16-1.47-.04,0,.13.61.17,1.23.46.63.28,1.03.68,1.15.61Z"/>
        <path class="cls-5" d="m556.59,453.47c.13.06.53-.48,1.22-.93.67-.46,1.34-.64,1.33-.78,0-.12-.81-.13-1.6.4-.8.53-1.06,1.26-.94,1.3Z"/>
        <path class="cls-5" d="m554.59,450.34s.54-.23,1.17-.89c.31-.33.65-.75.95-1.26.15-.26.29-.53.41-.83.06-.14.13-.3.15-.51.04-.2-.12-.53-.4-.59-.26-.07-.53.02-.7.14-.18.12-.29.26-.4.39-.21.25-.39.51-.54.77-.3.52-.47,1.02-.55,1.45-.17.86-.03,1.38.02,1.37.08,0,.08-.53.32-1.32.12-.39.31-.85.61-1.32.15-.23.32-.47.52-.69.2-.25.41-.41.56-.35.05.02.07.03.07.14,0,.1-.05.24-.11.38-.11.28-.23.54-.36.78-.26.49-.55.91-.81,1.24-.53.67-.95,1.03-.9,1.09Z"/>
        <path class="cls-5" d="m554.86,450.37c.05-.01-.03-.55-.54-1.25-.26-.34-.63-.72-1.13-1.03-.25-.16-.53-.3-.84-.42-.31-.1-.71-.26-1.2.03-.24.17-.3.47-.25.66.04.2.13.33.2.48.16.28.37.52.59.71.45.39.97.61,1.41.71.92.2,1.5-.04,1.48-.08,0-.08-.57.02-1.36-.24-.39-.13-.83-.35-1.2-.71-.19-.18-.36-.39-.49-.63-.15-.25-.21-.5-.1-.55.12-.09.46-.07.7.04.28.1.54.22.77.35.47.27.83.59,1.11.88.55.59.75,1.07.82,1.04Z"/>
      </g>
      <g>
        <g>
          <path class="cls-5" d="m510.76,322.18l1.82,12.2s-12.26,51-13.54,59.85c-1.28,8.85,11.41,65.55,11.41,65.55l19.49-1.62-5.87-59.63,17.25-37.64c.52-.64,1.85-5.88,3.54-9.36,2.48-5.1,3.32-11.41,4.36-14.98l-.11-5.19-.19-3.38-38.16-5.8Z"/>
          <polygon class="cls-5" points="536.29 361.72 537.03 402.55 568.49 443.53 551.22 455.61 510.17 409.61 508.91 355.65 536.29 361.72"/>
        </g>
        <path class="cls-6" d="m542.39,358.06s-.02.09-.08.26c-.08.19-.18.44-.3.73-.29.68-.68,1.62-1.18,2.8-1.07,2.46-2.59,5.96-4.46,10.27-1.9,4.33-4.17,9.47-6.74,15.17-1.29,2.85-2.64,5.84-4.11,8.91-.18.39-.37.77-.57,1.15-.2.38-.36.76-.66,1.19-.16.14-.11.68-.12,1.08,0,.43.03.86.06,1.3.1,1.75.26,3.52.42,5.31,1.35,14.35,2.86,27.33,3.88,36.72.51,4.67.92,8.46,1.22,11.13.13,1.28.23,2.3.31,3.03.03.32.05.58.07.79.01.18.01.27,0,.27,0,0-.03-.09-.06-.26-.03-.21-.07-.46-.12-.78-.1-.73-.23-1.74-.41-3.02-.33-2.66-.8-6.45-1.38-11.11-1.11-9.39-2.68-22.35-4.03-36.72-.16-1.8-.31-3.57-.41-5.33-.03-.44-.05-.88-.05-1.32,0-.22,0-.44,0-.67,0-.11.01-.23.04-.37,0-.02.02-.1.07-.17.03-.02.02-.1.09-.05-.05-.07,0-.04,0-.06l.07-.12c.19-.29.39-.69.58-1.07.19-.38.38-.76.56-1.14,1.47-3.06,2.83-6.04,4.13-8.88,2.57-5.68,4.89-10.81,6.84-15.12,1.93-4.28,3.51-7.75,4.61-10.2.54-1.17.97-2.1,1.27-2.76.14-.29.25-.53.34-.71.08-.16.12-.24.13-.24Z"/>
        <path class="cls-6" d="m510.82,341.78c.14.03-1.01,5.64-2.56,12.52-1.56,6.88-2.93,12.43-3.07,12.4-.14-.03,1.01-5.63,2.56-12.52,1.56-6.88,2.93-12.43,3.07-12.4Z"/>
      </g>
      <g>
        <path class="cls-15" d="m541.96,249.95s9.67,11,10.15,21.15c.24,5.13-.51,53.55-.51,53.55l.56,17.78-44.97-1.02,2.61-22.57,5.44-38.82,6.78-23.93,1.36-3.3,18.59-2.85Z"/>
        <path class="cls-5" d="m544.65,254.06s-2.65-2.71-7.72-2.99c-5.07-.28-8.66,1.45-12.63,8.06-2.81,4.68-11.49,29.79-11.49,29.79l.2,8.03s11.46-43.34,22.53-44.27c11.07-.92,16.33,16.12,16.33,16.12,0,0-1.23-8.93-7.22-14.75Z"/>
      </g>
      <g>
        <path class="cls-9" d="m548.35,269.81c0,.46.98,35.28-.5,39.23-1.48,3.96-4.24,6.96-9.18,6.63-4.94-.33-25.21-9.3-25.21-9.3l-3.72-8.85,23.24,1.12-3.35-29.11,18.72.28Z"/>
        <path class="cls-9" d="m514.08,299.07l-.33-9.38s-4.68.86-5.25,2.33c-.57,1.48-.81,2.8-1.38,4.59-.57,1.79.79,6.34,1.36,7.58.57,1.24,10.44,4.68,10.44,4.68l1.61-6.46-6.44-3.34Z"/>
        <path class="cls-7" d="m537.96,304.11c-.15.06-.76-1.68-2.36-3.19-1.57-1.54-3.33-2.1-3.27-2.25,0-.13,1.95.24,3.63,1.88,1.71,1.62,2.13,3.56,2,3.57Z"/>
        <g>
          <path class="cls-15" d="m550.9,287.33l-25.87,1.01s.1-19.37.77-23.89c.67-4.52,8.07-14.52,16.21-10.07,0,0,3.1,1.63,4.85,5.57.7,1.59,4.04,27.37,4.04,27.37Z"/>
          <path class="cls-5" d="m525.83,264.71c.08.01.04-1.45.93-3.56.44-1.05,1.11-2.24,2.01-3.44.89-1.21,2.01-2.47,3.58-3.19,1.57-.7,3.23-1,4.72-.93,1.5.05,2.85.28,3.96.53,1.11.25,1.99.56,2.57.81.58.25.88.45.9.42,0-.01-.06-.07-.2-.17-.14-.11-.35-.23-.64-.39-.58-.3-1.45-.65-2.57-.94-1.12-.29-2.48-.55-4.01-.62-1.54-.09-3.26.2-4.89.93-1.65.75-2.82,2.1-3.7,3.33-.91,1.23-1.56,2.47-1.98,3.55-.42,1.08-.6,2.01-.67,2.66-.03.32-.04.57-.03.74,0,.17.01.26.03.26Z"/>
          <path class="cls-5" d="m524.35,272.76s-.02.1-.02.3c0,.24,0,.52,0,.87.02.81.05,1.91.09,3.26.11,2.83.25,6.7.41,11.16v.19s.19,0,.19,0c1.62-.06,3.36-.13,5.14-.19,5.7-.24,10.86-.47,14.66-.63,1.83-.1,3.34-.18,4.44-.24.49-.03.89-.06,1.21-.08.28-.02.42-.04.42-.06,0-.01-.15-.02-.42-.02-.32,0-.72,0-1.21.01-1.1.03-2.61.07-4.44.11-3.8.13-8.96.32-14.66.52-1.79.07-3.52.14-5.14.21l.19.18c-.22-4.45-.41-8.33-.55-11.15-.08-1.35-.15-2.44-.2-3.25-.03-.35-.05-.63-.07-.87-.02-.2-.03-.3-.05-.3Z"/>
        </g>
        <path class="cls-7" d="m513.75,289.19c.03.07-.56.36-1.55.73-.96.39-2.42.77-3.27,2.08-.93,1.24-1.2,2.68-1.45,3.69-.23,1.02-.43,1.65-.5,1.64-.07-.02,0-.66.14-1.7.15-1.02.37-2.57,1.39-3.93.46-.68,1.15-1.22,1.81-1.5.66-.3,1.26-.47,1.77-.61,1.01-.28,1.64-.45,1.66-.38Z"/>
      </g>
    </g>
  </g>
  <g id="Character_1" data-name="Character 1">
    <g>
      <g>
        <path class="cls-5" d="m243.65,231.29c3.35-4.67,2.49-11.85-1.88-15.59l-9.41-4.47c-1.92-5.52-8.91-3.71-11.18-2.12-2.27,1.59-3.43,4.42-3.56,7.18-.07,1.66.14,3.47-.79,4.84-.86,1.27-2.47,1.78-3.66,2.75-2.46,2-2.7,6.18-.48,8.44-1.92.68-3.38,2.5-3.63,4.52-.25,2.02.73,4.14,2.42,5.27-1.07,1.61-1.86,3.46-1.9,5.4-.04,1.93.76,3.94,2.35,5.05s3.97,1.08,5.33-.3c.14,2.52,2.09,4.84,4.55,5.41,2.46.57,5.23-.64,6.47-2.84,2.04,1.97,5.36,2.47,7.89,1.19,2.53-1.28,4.09-4.25,3.71-7.06,1.1,1.44,3.46,1.39,4.89.28,1.43-1.12,2.1-2.96,2.4-4.75.77-4.63-.55-9.56-3.53-13.19Z"/>
        <path class="cls-6" d="m233.15,210.88c-.75-.77-2.02-.85-3.02-.44-1,.41-1.78,1.21-2.49,2.03-1.37,1.58-2.57,3.33-3.3,5.29-.01.03-.02.06-.03.09-1.04,2.85.52,5.93,3.33,7.07.36.14.71.3,1.05.47,2.39-4.56,4.34-9.36,5.82-14.29l-1.36-.21Z"/>
        <g>
          <path class="cls-5" d="m227,227.45c-1.63-1.97-1.52-5.17.24-7.02-1.05-1.22-.75-3.18.22-4.46.97-1.28,2.46-2.05,3.9-2.77.67-3.71,4.71-6.44,8.4-5.69,1.81-2.87,5.86-3.45,9.15-2.62.8.2,1.61.48,2.44.44.61-.02,1.2-.21,1.79-.31,3.3-.56,6.67,1.65,8.07,4.69.22.49.41,1,.75,1.41.45.54,1.11.84,1.68,1.25,1.23.88,2.05,2.33,2.16,3.84.1,1.28-.26,2.66.32,3.81.29.58.8,1.03,1.03,1.63.67,1.75-1.22,3.62-.79,5.44.09.37.27.71.39,1.08.24.74.2,1.57-.12,2.29-.24.55-.65,1.06-.66,1.67-.01.46.21.88.31,1.33.26,1.09-1.95,5.39-2.88,6.02l-28.27,1.25c-2.16-.36-3.97-2.24-4.25-4.41-.05-.36-.07-.75-.3-1.03-.2-.24-.51-.34-.79-.47-1.86-.91-2.16-3.41-2.04-5.47.02-.29.04-.59-.05-.86-.12-.4-.44-.71-.7-1.04Z"/>
          <path class="cls-12" d="m235.11,227.2c-.26-5,2.68-10.86,7.56-13.49,3.08-1.65,5.52-1.75,7.17-2,3.68-.56,6.72,1.16,6.72,1.16,1.57.31,7.47,5.34,7.96,11.01.55,6.29.95,12.76.48,17.49-.84,8.35-8.82,9.64-8.82,9.64-.09-.91,1.42,18.13,1.42,18.13l-19.63-6.92-2.87-35.02Z"/>
          <path class="cls-11" d="m251.4,241.66c.02-.46.25-.89.55-1.19.61-.61,1.55-.74,2.28-.31.73.42.89,1.23.83,2.16h0c-.35.57-.59,1.12-1.25,1.23-.1.02-.2.03-.31.03-.5.03-1.02-.1-1.44-.44-.41-.34-.69-.9-.67-1.48Z"/>
          <path class="cls-5" d="m261.75,231.94c.04.64-.47,1.2-1.14,1.25-.67.05-1.24-.42-1.28-1.06-.04-.64.47-1.2,1.14-1.25.67-.05,1.24.42,1.28,1.06Z"/>
          <path class="cls-5" d="m262.43,227.51c-.15.16-1.08-.5-2.39-.46-1.3.02-2.25.71-2.39.56-.07-.07.08-.36.48-.67.4-.31,1.1-.62,1.91-.64.81-.02,1.5.27,1.9.56.41.3.55.58.48.65Z"/>
          <path class="cls-5" d="m255.05,238.06c0-.07.8-.23,2.11-.43.33-.04.65-.12.7-.35.07-.24-.08-.6-.25-.98-.33-.8-.68-1.64-1.05-2.51-1.46-3.58-1.93-5-1.79-5.06.14-.06.85,1.27,2.31,4.85.35.88.69,1.72,1.01,2.53.14.38.36.8.2,1.3-.08.25-.32.44-.54.5-.21.07-.4.08-.56.09-1.32.1-2.14.13-2.15.06Z"/>
          <path class="cls-11" d="m256.15,251s-6.39.57-12.79-3.07c0,0,3.53,6.58,12.98,5.47l-.19-2.4Z"/>
          <path class="cls-5" d="m262.01,222.93c-.24.36-1.36.15-2.67.29-1.31.1-2.38.51-2.68.2-.13-.15,0-.51.45-.88.44-.37,1.2-.72,2.1-.8.9-.08,1.71.12,2.21.41.5.28.69.61.59.78Z"/>
          <path class="cls-5" d="m248.16,232.3c.02.64.57,1.15,1.24,1.15.67,0,1.2-.53,1.18-1.17-.02-.64-.57-1.16-1.24-1.15-.67,0-1.2.53-1.18,1.17Z"/>
          <path class="cls-5" d="m244.59,228.39c.16.15,1.04-.59,2.34-.66,1.3-.1,2.3.52,2.43.35.07-.07-.11-.35-.54-.63-.43-.28-1.15-.53-1.96-.47-.81.05-1.48.4-1.85.73-.38.33-.5.63-.42.69Z"/>
          <path class="cls-5" d="m242.81,224.02c.36.36,1.64-.12,3.21-.23,1.57-.17,2.92.08,3.2-.34.12-.2-.11-.58-.72-.9-.6-.33-1.57-.56-2.65-.47-1.08.1-1.99.5-2.52.93-.53.43-.69.84-.53,1.02Z"/>
          <path class="cls-12" d="m236.85,236.13c-.02-.7-.87-2.34-1.57-2.44-1.86-.24-5.21-.01-5.12,4.7.12,6.45,6.57,5,6.57,4.82,0-.14.19-4.65.12-7.09Z"/>
          <path class="cls-11" d="m234.91,240.89s-.11.08-.3.17c-.18.09-.5.15-.84.03-.69-.24-1.28-1.31-1.33-2.47-.03-.59.09-1.15.29-1.61.19-.48.49-.81.83-.88.34-.09.59.12.67.3.09.18.05.31.09.32.02.02.14-.11.08-.38-.03-.13-.11-.28-.26-.4-.16-.12-.39-.18-.62-.15-.5.04-.94.51-1.16,1.02-.25.51-.39,1.15-.36,1.8.06,1.3.75,2.5,1.69,2.76.46.11.83-.03,1.02-.19.2-.16.23-.31.21-.32Z"/>
          <path class="cls-5" d="m265.95,223.94c-1.32-.78-2.18-1.87-2.14-3.4-.86.28-1.76-.81-2.28-1.55-.52-.73-1.15-1.1-1.13-2,0-.18,0-.37-.08-.52-.14-.24-.45-.32-.71-.39-1.39-.39-2.53-1.54-2.92-2.93-1.37.64-2.89.93-4.4.84-.64.98-1.81,1.6-2.99,1.58-1.18-.02-2.32-.68-2.93-1.69-.37.82-1.19,1.36-2.06,1.6-.86.24-1.77.23-2.67.21.43,1.72-.65,3.68-2.33,4.25-.23.08-.49.15-.59.37-.1.23.02.49.12.72.6,1.46-.33,3.34-1.86,3.75,1.08.79,1.01,2.69-.11,3.41-.23.15-.53.33-.49.6.02.1.08.19.15.27.5.63.99,1.31,1.07,2.11s-.44,1.7-1.23,1.76c.43.36.83.83.85,1.39.02.56-.53,1.15-1.06.96-.22-.08-3.45-.63-3.6-.82-1.89-2.43.34-5.22.44-8.3.1-3.08,1.1-6.08,2.57-8.78.62-1.13,1.32-2.23,2.21-3.16,1.02-1.06,2.25-1.89,3.48-2.7,1.6-1.05,3.25-2.11,5.11-2.6,3.46-.91,7.11.26,10.39,1.68,1.25.54,2.49,1.12,3.55,1.98,1.27,1.02,2.22,2.38,3.05,3.78,1.2,2.02,2.21,4.21,2.5,6.54"/>
          <path class="cls-6" d="m267.16,221.65s-.07-.26-.37-.68c-.14-.21-.34-.46-.53-.77-.19-.32-.34-.72-.39-1.2-.06-.47-.04-1.01-.01-1.6.03-.58.05-1.23-.1-1.91-.15-.68-.44-1.37-.9-2.01-.23-.32-.5-.62-.82-.89-.31-.28-.68-.5-1.04-.73-.36-.23-.73-.48-1-.82-.28-.34-.45-.77-.64-1.2-.38-.87-.92-1.71-1.63-2.45-.71-.74-1.56-1.4-2.55-1.86-.49-.25-1.02-.4-1.57-.54-.55-.1-1.12-.18-1.7-.15-.29,0-.58.05-.87.09-.29.05-.57.12-.85.18-.57.13-1.14.16-1.72.05-.58-.1-1.15-.29-1.75-.42-.6-.15-1.21-.23-1.84-.27-.62-.05-1.26-.03-1.89.03-.63.07-1.26.2-1.88.4-1.22.41-2.4,1.13-3.19,2.23-.08.11-.15.22-.23.32l.1-.04c-1.96-.4-3.98.18-5.52,1.27-1.55,1.08-2.67,2.72-2.99,4.5l.05-.07c-.77.39-1.53.78-2.23,1.25-.7.47-1.33,1.03-1.8,1.7-.46.68-.74,1.46-.78,2.25-.05.78.17,1.58.67,2.16v-.11c-.89.95-1.32,2.19-1.39,3.35-.07,1.17.21,2.3.76,3.19.13.23.29.43.45.63.16.19.33.37.46.56.13.19.22.4.25.63.03.22,0,.45,0,.67-.04.89,0,1.72.13,2.45.14.73.37,1.36.68,1.85.31.49.69.82,1.03,1.02.34.21.64.29.8.4.17.11.23.19.24.19,0,0-.05-.09-.23-.21-.17-.12-.46-.21-.79-.42-.33-.21-.7-.53-1-1.02-.31-.48-.52-1.1-.65-1.82-.13-.72-.16-1.54-.11-2.42.01-.22.03-.45,0-.69-.02-.24-.12-.48-.26-.68-.14-.21-.31-.39-.46-.58-.15-.2-.31-.39-.43-.61-.53-.87-.79-1.97-.72-3.11.07-1.13.5-2.34,1.37-3.25l.05-.05-.05-.06c-.47-.54-.67-1.3-.63-2.05.04-.75.31-1.51.75-2.16.45-.65,1.07-1.19,1.76-1.65.69-.46,1.44-.85,2.21-1.24l.04-.02v-.05c.32-1.72,1.42-3.31,2.93-4.37,1.5-1.06,3.47-1.62,5.37-1.24h.06s.04-.04.04-.04c.07-.1.15-.21.22-.31.76-1.06,1.9-1.76,3.09-2.16.6-.19,1.22-.32,1.84-.39.62-.06,1.24-.08,1.86-.03.61.05,1.22.12,1.81.27.59.13,1.16.32,1.76.42.3.05.6.08.9.07.3-.01.6-.06.89-.12.29-.06.57-.13.85-.18.28-.04.56-.08.84-.09.56-.04,1.12.04,1.65.14.53.13,1.05.29,1.53.53.97.44,1.81,1.09,2.5,1.81.7.72,1.23,1.55,1.61,2.4.19.43.37.86.67,1.23.3.36.68.61,1.04.84.37.23.72.45,1.03.71.31.26.58.56.8.87.45.62.75,1.3.89,1.96.15.66.13,1.3.11,1.89-.02.59-.04,1.13.03,1.61.06.48.22.9.42,1.22.2.32.4.56.55.76.15.2.25.37.31.48.06.11.08.18.09.18Z"/>
          <path class="cls-5" d="m251.16,240.46c.15-.1.79.96,2.16,1.17,1.37.22,2.43-.58,2.53-.44.05.06-.13.36-.6.66-.46.3-1.24.56-2.08.43-.83-.13-1.44-.61-1.74-1.03-.31-.42-.35-.76-.27-.79Z"/>
        </g>
        <path class="cls-6" d="m228.47,253.73s-.05.04-.15.1c-.1.06-.26.13-.48.2-.43.14-1.12.29-1.99.16-.86-.12-1.94-.54-2.74-1.54-.79-.96-1.28-2.46-.87-4.02l.19.26c-1.57-.01-2.95-1.41-3.34-3.08-.39-1.73.18-3.54.88-5.23l.12.32c-1.98-.93-3.5-3.18-3.34-5.64.13-1.85,1.14-3.55,2.59-4.53l-.02.41c-1.82-1.57-2.49-4.08-1.94-6.11.54-2.05,2.08-3.53,3.69-4.14l-.11.27c-.61-1.37-.44-2.81.08-3.85.52-1.06,1.39-1.68,2.13-2,.75-.33,1.39-.38,1.82-.36.43.02.64.08.64.1.01.08-.93-.2-2.36.47-.69.33-1.48.95-1.94,1.94-.46.97-.58,2.32,0,3.54l.09.19-.2.08c-1.48.59-2.9,1.99-3.38,3.89-.49,1.86.15,4.18,1.82,5.6l.26.22-.28.19c-1.31.88-2.24,2.45-2.36,4.14-.15,2.21,1.24,4.3,3.03,5.15l.22.1-.09.22c-.7,1.66-1.23,3.38-.89,4.94.33,1.52,1.57,2.76,2.89,2.78h.26s-.07.26-.07.26c-.39,1.4.03,2.8.74,3.71.71.93,1.71,1.36,2.52,1.51.82.16,1.49.05,1.92-.05.43-.11.65-.21.66-.19Z"/>
        <path class="cls-6" d="m239.19,219.41s-.62.37-1.7.16c-.53-.11-1.15-.38-1.68-.9-.53-.51-.93-1.26-1.04-2.1-.05-.38-.04-.76.03-1.12l.31.3c-1.46.29-2.67-.47-3.2-1.14-.57-.69-.6-1.25-.56-1.25.08-.03.22.47.8,1.02.54.54,1.64,1.13,2.85.86l.37-.08-.06.38c-.05.3-.06.63-.01.96.1.72.43,1.38.87,1.83.43.46.97.73,1.43.88.95.29,1.6.11,1.61.2Z"/>
        <path class="cls-6" d="m252.26,205.12s.45-.24,1.22,0c.37.13.81.39,1.14.84.32.45.53,1.08.45,1.76l-.26-.28c.66-.06,1.4.12,2.03.52.77.49,1.31,1.28,1.45,2.07.15.79-.02,1.52-.28,2.04-.55,1.08-1.32,1.33-1.32,1.28-.06-.07.59-.43.98-1.43.19-.49.3-1.13.15-1.79-.14-.66-.6-1.31-1.26-1.73-.54-.35-1.16-.5-1.71-.47l-.31.02.05-.3c.08-.54-.06-1.07-.31-1.45-.25-.39-.59-.64-.91-.79-.64-.29-1.1-.22-1.1-.29Z"/>
        <path class="cls-5" d="m244.99,220.18s-.14-.2-.17-.63c-.03-.42.05-1.07.5-1.71.43-.64,1.32-1.2,2.37-1.18.51,0,1.1.14,1.55.57.22.21.42.53.4.9,0,.37-.27.71-.56.86-.59.33-1.26.25-1.78.07-.54-.18-1-.5-1.35-.88-.72-.76-.94-1.76-.82-2.52.1-.77.44-1.31.72-1.63.28-.31.49-.42.51-.4.09.05-.74.65-.86,2.06-.05.68.17,1.51.8,2.15.31.32.71.58,1.16.73.45.15.96.18,1.36-.04.39-.21.4-.65.07-.95-.31-.31-.77-.43-1.21-.45-.89-.04-1.66.39-2.07.92-.43.53-.55,1.11-.59,1.49-.04.39,0,.62-.04.62Z"/>
        <path class="cls-5" d="m266.2,228.5c-.01-.07.55.02,1.18-.51.3-.26.58-.68.57-1.21,0-.52-.29-1.13-.83-1.42l-.3-.16.26-.23c.66-.59,1.32-1.4,1.43-2.38.06-.49-.03-.99-.26-1.37-.23-.39-.61-.67-.99-.93-.38-.26-.78-.52-1.09-.85-.31-.33-.53-.68-.68-1.02-.6-1.41-.18-2.37-.15-2.33.1,0-.15.93.48,2.17.31.63.88,1.16,1.7,1.64.4.26.86.56,1.16,1.07.3.5.41,1.11.34,1.69-.14,1.19-.92,2.07-1.63,2.68l-.04-.39c.72.43,1.03,1.2.99,1.85-.03.67-.42,1.17-.79,1.43-.79.53-1.39.3-1.36.28Z"/>
        <path class="cls-5" d="m214.54,218.88s.09-.04.22-.14c.12-.1.27-.31.27-.62.01-.3-.17-.68-.59-.74-.39-.07-.93.15-1.14.62-.22.47-.13,1.14.22,1.67.34.52,1.01.92,1.71.93.71.03,1.31-.52,1.47-1.31.19-.77.11-1.69.18-2.61.11-1.84.46-3.61,1.21-5.07.73-1.46,1.88-2.5,2.97-3.05,1.1-.57,2.14-.67,2.81-.6.68.07,1.02.25,1.02.27-.01.05-.37-.06-1.03-.07-.65,0-1.61.14-2.63.72-1.01.56-2.06,1.55-2.72,2.94-.68,1.38-1.01,3.09-1.12,4.88-.08.89.01,1.79-.2,2.7-.11.44-.32.9-.69,1.21-.36.32-.84.47-1.29.45-.89-.03-1.65-.53-2.06-1.18-.41-.65-.5-1.45-.19-2.06.32-.63,1.01-.87,1.53-.75.26.06.49.23.61.44.12.21.14.42.12.6-.04.37-.25.61-.42.69-.17.09-.28.06-.28.05Z"/>
      </g>
      <g>
        <path class="cls-13" d="m262.35,268.33c.11.38,7.04,12.24,7.85,18.31.84,6.26.93,22.26.93,22.26l-.27,12.93,5.42,11.76-39.91-2.5.74-30.14-7.86-31.62,7.32-11.25s15.1.05,16.19.49l6.13,5.28,3.45,4.45Z"/>
        <path class="cls-5" d="m236.72,325.67s19.54-25.75,22.51-33.94c4.31-11.93,5.17-24.37-2.03-30.55-7.19-6.18-16.6-2.65-20.48.71s-6.46,6.01-6.46,6.01l4.43,3s6.83-14.48,16.97-10.96c6.48,2.25,9.18,8.13,8.46,14.14-.72,6.01.1,21.34-23.41,43.65l-4.06,6.18,4.06,1.77Z"/>
      </g>
      <g>
        <polygon class="cls-6" points="301.86 284.01 299.87 282.27 289.13 277.47 266.78 311.08 276.28 319.09 278.52 319.66 301.86 284.01"/>
        <polygon class="cls-5" points="271.04 313.41 295.41 279.04 292.92 277.47 283.9 274.82 271.04 294.12 271.04 313.41"/>
        <path class="cls-5" d="m298.41,282.57c.12.08-4.72,7.33-10.8,16.19-6.08,8.86-11.11,15.98-11.23,15.9-.12-.08,4.72-7.33,10.8-16.19,6.08-8.86,11.11-15.98,11.23-15.9Z"/>
        <path class="cls-6" d="m292.04,277.69c.12.08-4.49,6.82-10.28,15.04-5.8,8.23-10.59,14.83-10.71,14.75-.12-.08,4.49-6.82,10.29-15.05,5.8-8.23,10.59-14.83,10.71-14.74Z"/>
        <path class="cls-10" d="m288.7,285.54c.06.04-.47.9-1.38,2.26-.91,1.36-2.19,3.22-3.63,5.25-1.44,2.03-2.77,3.86-3.76,5.16-.98,1.3-1.62,2.09-1.68,2.05s.47-.91,1.38-2.26c.91-1.36,2.19-3.21,3.63-5.25,1.44-2.03,2.77-3.85,3.75-5.16.98-1.3,1.62-2.09,1.68-2.05Z"/>
        <path class="cls-10" d="m294.85,291.87c.12.07-1.2,2.46-3.12,5.22-1.91,2.76-3.68,4.84-3.79,4.75-.12-.09,1.46-2.3,3.36-5.05,1.9-2.75,3.42-5,3.54-4.92Z"/>
        <path class="cls-10" d="m296.66,289.5c.11.09.04.37-.16.63-.2.26-.46.4-.57.32-.11-.09-.04-.37.16-.63.2-.26.46-.4.57-.32Z"/>
      </g>
      <g>
        <path class="cls-6" d="m259.93,453.07l-.23,25.52,32.52.44c-.15-3.04-16.89-9.35-16.89-9.35l.83-16.34-16.24-.26Z"/>
        <path class="cls-10" d="m265.3,468.17c-.63.16-1.08.84-.94,1.47.14.62.85,1.07,1.48.92.63-.15,1.19-.95.99-1.56-.21-.6-1.07-1.08-1.65-.79"/>
        <path class="cls-5" d="m259.7,478.65v-2.73s31.27,1.59,31.27,1.59c0,0,1.43.64,1.25,1.64l-32.52-.49Z"/>
        <path class="cls-5" d="m275.87,469.52c0,.15-.8.21-1.59.7-.8.47-1.21,1.13-1.36,1.07-.15-.03.1-.96,1.07-1.53.96-.58,1.92-.39,1.88-.24Z"/>
        <path class="cls-5" d="m279.26,470.95c.03.15-.66.41-1.21,1.05-.57.63-.71,1.34-.87,1.33-.15.02-.25-.89.45-1.68.69-.8,1.63-.85,1.63-.7Z"/>
        <path class="cls-5" d="m281.14,474.96c-.14.03-.35-.75.06-1.59.41-.85,1.17-1.17,1.23-1.04.09.13-.4.58-.73,1.28-.35.69-.4,1.34-.56,1.36Z"/>
        <path class="cls-5" d="m275.64,465.78c-.07.14-.79-.08-1.69-.04-.9.03-1.6.31-1.68.18-.09-.11.6-.68,1.66-.72,1.06-.05,1.8.45,1.72.57Z"/>
      </g>
      <g>
        <path class="cls-6" d="m220.99,436.6l-17.09,19.31,24.5,20.88c1.9-2.41-6.67-17.8-6.67-17.8l11.47-11.93-12.21-10.46Z"/>
        <path class="cls-10" d="m215.08,451.5c-.59-.28-1.38-.04-1.69.53-.31.56-.06,1.35.52,1.64.58.29,1.54.03,1.79-.57.24-.59-.1-1.5-.73-1.65"/>
        <path class="cls-5" d="m203.86,455.95l1.82-2.08,22.78,20.96s.67,1.4-.13,2.04l-24.47-20.92Z"/>
        <path class="cls-5" d="m222.23,459.21c-.11.11-.75-.34-1.68-.47-.92-.15-1.68.1-1.75-.04-.09-.12.71-.66,1.83-.49,1.12.16,1.72.92,1.59,1Z"/>
        <path class="cls-5" d="m223.88,462.44c-.07.14-.77-.11-1.62.04-.85.12-1.43.57-1.55.46-.13-.08.4-.83,1.46-1,1.06-.17,1.8.38,1.71.49Z"/>
        <path class="cls-5" d="m222.65,466.69c-.13-.07.22-.79,1.1-1.17.88-.38,1.67-.16,1.63-.02-.02.15-.69.19-1.41.51-.72.3-1.2.77-1.33.68Z"/>
        <path class="cls-5" d="m224.54,456.21c-.15.06-.55-.57-1.27-1.1-.71-.55-1.43-.77-1.4-.93,0-.14.91-.14,1.74.5.84.63,1.07,1.48.93,1.52Z"/>
      </g>
      <g>
        <path class="cls-15" d="m231.95,330.94s-1.77,8.38-6.4,17.1c-7.85,14.78-20.59,33.74-22.61,37.81-3.04,6.11,1.93,9.88,13.62,9.71,11.69-.17,9.72-7.71,18.73-4.46,9.01,3.25,16.23-4.75,16.23-4.75l6.61-54.48-26.17-.93Z"/>
        <path class="cls-5" d="m273.46,335.65l1.08,11.36s12.89,45.88,11.1,58.67c-2.25,16.07-7.47,59.05-7.47,59.05l-20.05.48s-.42-38.64,3.07-55.34c3.75-17.93-7.57-71.83-7.57-71.83l19.83-2.38Z"/>
        <path class="cls-5" d="m269.97,367.83c.33-5.04,4.4-36.62,4.4-36.62l-37.46-1.34s-2.8.15-3.32,4.55c0,0-3.37,7.18-3.66,19-.22,9.08,5.78,24.93,5.78,24.93,2.85,8.22,8.66,19.87,8.66,19.87l-37.53,45.59,19.33,14.44s46.01-46.7,47.76-54.26c2.63-11.34-4.24-31.99-3.97-36.15Z"/>
        <path class="cls-6" d="m263.11,354.87s.04.08.1.23c.07.18.15.41.25.69.22.65.52,1.54.9,2.67.77,2.37,1.87,5.72,3.22,9.85,1.33,4.17,2.88,9.14,4.43,14.72.77,2.79,1.54,5.73,2.3,8.78.73,3.04,1.57,6.3,1.17,9.71-.22,1.69-.71,3.32-1.53,4.77-.82,1.45-1.83,2.7-2.79,3.95-1.97,2.47-3.98,4.75-5.9,6.91-3.86,4.31-7.45,8.09-10.48,11.24-3.04,3.15-5.54,5.65-7.29,7.36-.88.85-1.56,1.51-2.04,1.95-.22.2-.4.36-.54.49-.12.11-.19.16-.2.16,0,0,.05-.07.16-.19.14-.14.3-.32.51-.53.48-.49,1.14-1.16,1.97-2.02,1.7-1.75,4.16-4.3,7.17-7.48,3-3.18,6.55-6.99,10.39-11.31,1.91-2.17,3.91-4.45,5.86-6.91.95-1.24,1.96-2.5,2.74-3.88.78-1.38,1.26-2.97,1.47-4.58.39-3.27-.42-6.48-1.14-9.52-.75-3.05-1.51-5.99-2.27-8.78-1.52-5.58-3.03-10.56-4.32-14.74-1.28-4.15-2.32-7.52-3.06-9.9-.34-1.14-.61-2.04-.81-2.7-.08-.29-.14-.52-.2-.71-.04-.16-.06-.24-.05-.25Z"/>
      </g>
      <path class="cls-15" d="m274.75,329.28l1.53,8.1-43.13,3.72s.33-7.41,1.05-10.1c.72-2.69,40.55-1.72,40.55-1.72Z"/>
      <path class="cls-5" d="m235.43,268.42s-8.49-3.36-13.28-2.47c-4.8.88-16.79,13.75-18.82,17.92-2.03,4.17-9.22,28.55-10.15,33.86-.92,5.3.31,14.64,4.53,17.02,3.88,2.19,19.26,7.37,28.12,6.31.09-.01.18-.02.26-.03,6.1-.78,10.62-5.9,10.62-11.9v-49.56l-1.29-11.13Z"/>
      <g>
        <path class="cls-15" d="m201.3,387.54c10.15-16.97,19.8-35.12,31.55-51.24,1.26-1.72,4.68-1.49,6.59-2.63,2.51-1.49,5.92-1.66,8.6-.42l10.08,4.83c-10.64,9.84-22.47,16.71-31.18,28.21-6.44,8.5-9.34,19.09-8.03,29.29-4.51-.33-9.01-.65-13.52-.98-1.83-.13-3.94-.41-4.92-1.8-1.1-1.57-.14-3.61.83-5.25Z"/>
        <path class="cls-5" d="m234.45,358.46s-.36.45-1.07,1.19c-.36.37-.79.81-1.27,1.37-.48.55-1.05,1.14-1.61,1.86-1.18,1.4-2.48,3.14-3.81,5.15-1.3,2.03-2.63,4.33-3.81,6.85-1.16,2.53-2.07,5.03-2.78,7.33-.67,2.32-1.17,4.44-1.46,6.24-.18.9-.27,1.72-.37,2.44-.11.72-.17,1.34-.22,1.85-.1,1.02-.17,1.58-.21,1.58-.04,0-.03-.57,0-1.6.01-.51.04-1.14.13-1.87.08-.73.14-1.56.3-2.46.25-1.82.72-3.97,1.37-6.32.69-2.33,1.59-4.86,2.77-7.42,1.19-2.55,2.54-4.86,3.88-6.9,1.36-2.02,2.71-3.75,3.93-5.13.59-.71,1.18-1.29,1.68-1.82.5-.53.96-.97,1.34-1.31.76-.7,1.18-1.07,1.21-1.04Z"/>
      </g>
      <path class="cls-6" d="m230.07,267.29s-.25.47-.8,1.27c-.54.8-1.35,1.94-2.37,3.33-2.04,2.78-4.97,6.55-8.4,10.55-1.74,1.96-3.28,4.01-5.28,5.28-.98.63-2.11.99-3.15,1.02-1.01.07-1.96.14-2.83.14-1.74.03-3.17-.31-4.03-.8-.43-.24-.73-.49-.91-.67-.18-.19-.27-.29-.25-.3.04-.04.4.37,1.25.79.85.42,2.22.69,3.93.62.85-.02,1.79-.11,2.8-.21,1-.05,1.99-.39,2.93-.99,1.88-1.21,3.41-3.25,5.14-5.21,3.42-3.99,6.39-7.72,8.5-10.44,1.01-1.31,1.85-2.39,2.5-3.23.59-.76.93-1.18.96-1.15Z"/>
      <path class="cls-6" d="m237.05,326.98s-.63,0-1.77-.1c-1.14-.1-2.77-.27-4.8-.52-4.04-.49-9.62-1.31-15.72-2.48-6.11-1.17-11.59-2.48-15.53-3.52-1.97-.52-3.56-.97-4.65-1.3-1.09-.33-1.69-.53-1.68-.56,0-.03.63.1,1.73.36,1.19.29,2.77.67,4.68,1.13,3.96.95,9.44,2.19,15.53,3.36,6.09,1.17,11.65,2.04,15.67,2.62,1.95.28,3.56.51,4.77.68,1.13.16,1.75.27,1.74.3Z"/>
      <path class="cls-6" d="m216.72,284.37s.08.55.14,1.54c.06.99.1,2.44.12,4.22.03,3.56-.12,8.49-.65,13.9-.54,5.41-1.37,10.28-2.11,13.76-.37,1.74-.69,3.15-.95,4.11-.25.96-.41,1.49-.44,1.48s.05-.55.24-1.53c.2-1.07.47-2.46.79-4.14.64-3.5,1.41-8.35,1.95-13.74.54-5.39.74-10.3.8-13.86.02-1.71.03-3.12.05-4.21,0-.99.03-1.55.06-1.55Z"/>
      <path class="cls-5" d="m221.22,268.33c-.7-1.11-1.28-2.29-1.74-3.51-.11-.28-.21-.58-.14-.88.1-.41.5-.68.89-.88,2.2-1.17,4.75-1.67,7.24-1.43.51.05,1.04.14,1.46.43.83.57.97,1.73.77,2.69-.2.97-.67,1.88-.8,2.86-.45-.11-.9-.21-1.35-.32.18-1.1.37-2.2.55-3.29.06-.37.12-.77-.08-1.09-.3-.48-1-.51-1.58-.47-1.38.09-2.75.24-4.12.43-.67.1-1.45.3-1.67.92-.15.42.04.89.24,1.29.55,1.09,1.28,2.1,2.14,2.98"/>
      <path class="cls-6" d="m210.28,286.64l-2.6.17c-.11.14-.14.33-.16.5-.07.5-.14,1-.21,1.51-.07.49-.13,1-.02,1.48.11.48.44.95.93,1.09.65.18,1.34-.28,1.63-.87s.4-1.26.44-1.91c.04-.65,0-1.2,0-1.97Z"/>
      <path class="cls-6" d="m215.68,307.5c-.01.07-1.06-.02-2.75-.27-1.68-.25-4-.67-6.53-1.25-2.53-.58-4.8-1.22-6.43-1.73-1.62-.51-2.61-.89-2.59-.95.02-.07,1.04.18,2.69.6,1.65.42,3.92.99,6.44,1.57,2.52.58,4.82,1.05,6.48,1.39,1.66.34,2.69.56,2.68.63Z"/>
      <path class="cls-15" d="m212.34,295c-.65-.51-1.88-.31-2.35-.06-1.31.69-1.99,1.8-1.99,1.8,0,0-.4-1.03-1.13-2.13-.28-.42-1.02-1-1.76-1.15-.92-.19-1.86.46-2.14,1.34-.37,1.18.14,2.45.74,3.53.78,1.41,1.56,2.84,2.59,4.08.35.43,1,.51,1.44.17,1.65-1.28,3.15-2.74,4.47-4.34.41-.5.82-1.03.93-1.66.11-.63-.28-1.19-.79-1.58Z"/>
      <path class="cls-10" d="m229.65,292.1s.22.16.45.61c.22.45.39,1.24.04,2.17-.17.45-.46.94-.95,1.3-.47.38-1.16.58-1.86.47-.7-.1-1.41-.43-1.98-1-.28-.29-.53-.63-.67-1.06-.14-.42-.12-.92.1-1.34v-.02s.02-.02.02-.02c.23-.27.62-.22.85-.11.25.11.45.26.64.43.38.33.71.71,1.03,1.11.62.82,1.22,1.71,1.65,2.77.4,1.08.43,2.35-.04,3.51-.24.58-.62,1.11-1.14,1.52-.52.4-1.2.64-1.87.63-.67,0-1.35-.18-1.94-.56-.58-.36-1.09-.99-1.18-1.73-.07-.37,0-.77.19-1.12.17-.35.63-.66,1.08-.57.44.08.72.33,1,.52.28.21.55.42.82.66,1.05.92,1.99,2.11,2.4,3.56.38,1.43.18,3.12-.86,4.33-1.01,1.16-2.7,1.52-4.08.99-.68-.27-1.31-.8-1.55-1.54-.11-.36-.14-.77.01-1.16.16-.39.52-.68.92-.76.81-.14,1.47.23,2.03.59.54.38,1.05.8,1.5,1.27.9.94,1.62,2.06,1.91,3.29.66,2.47-.77,5.2-3.03,5.83-1.13.31-2.29-.03-3.14-.64-.85-.61-1.44-1.6-1.37-2.6.02-.49.2-.98.55-1.33.35-.36.91-.47,1.35-.31.87.33,1.34,1.08,1.65,1.74.64,1.34.82,2.64.82,3.67,0,1.04-.19,1.83-.35,2.35-.08.26-.15.45-.21.58-.05.13-.09.19-.09.19-.08-.01.48-1.07.45-3.12-.03-1.01-.24-2.26-.88-3.55-.3-.63-.78-1.3-1.48-1.55-.35-.12-.74-.03-1,.24-.26.27-.42.68-.43,1.1-.11,1.73,2.06,3.35,4.02,2.81,1.98-.56,3.3-3.06,2.68-5.3-.28-1.13-.95-2.18-1.8-3.06-.43-.44-.92-.84-1.43-1.2-.49-.34-1.11-.62-1.63-.51-.54.1-.75.7-.55,1.26.17.56.68.99,1.25,1.22,1.16.45,2.66.13,3.5-.85.9-1.04,1.1-2.56.75-3.85-.36-1.31-1.23-2.43-2.23-3.31-.25-.22-.51-.43-.78-.63-.27-.2-.53-.4-.77-.43-.47-.1-.82.59-.7,1.13.16,1.18,1.49,1.9,2.62,1.88,1.19.04,2.17-.82,2.59-1.85.43-1.03.42-2.2.06-3.19-.38-.99-.97-1.88-1.56-2.68-.3-.39-.62-.76-.97-1.07-.32-.3-.79-.58-.97-.36l.02-.03c-.38.7-.03,1.51.48,2.01.51.52,1.17.84,1.79.95.64.11,1.24-.05,1.68-.39.45-.32.73-.76.91-1.18.35-.86.22-1.62.05-2.05-.19-.45-.38-.63-.36-.65Z"/>
      <path class="cls-10" d="m234.66,313.41c.11.09-.66,1.15-1.72,2.37-1.06,1.21-2.01,2.12-2.12,2.02-.11-.09.66-1.15,1.72-2.37,1.06-1.21,2.01-2.12,2.11-2.02Z"/>
      <path class="cls-5" d="m235.43,268.42s-8.49-3.36-13.28-2.47c-4.8.88-16.79,13.75-18.82,17.92-2.03,4.17-9.22,28.55-10.15,33.86-.92,5.3.31,14.64,4.53,17.02,3.88,2.19,19.26,7.37,28.12,6.31.09-.01.18-.02.26-.03,6.1-.78,10.62-5.9,10.62-11.9v-49.56l-1.29-11.13Z"/>
      <path class="cls-6" d="m230.07,267.29s-.25.47-.8,1.27c-.54.8-1.35,1.94-2.37,3.33-2.04,2.78-4.97,6.55-8.4,10.55-1.74,1.96-3.28,4.01-5.28,5.28-.98.63-2.11.99-3.15,1.02-1.01.07-1.96.14-2.83.14-1.74.03-3.17-.31-4.03-.8-.43-.24-.73-.49-.91-.67-.18-.19-.27-.29-.25-.3.04-.04.4.37,1.25.79.85.42,2.22.69,3.93.62.85-.02,1.79-.11,2.8-.21,1-.05,1.99-.39,2.93-.99,1.88-1.21,3.41-3.25,5.14-5.21,3.42-3.99,6.39-7.72,8.5-10.44,1.01-1.31,1.85-2.39,2.5-3.23.59-.76.93-1.18.96-1.15Z"/>
      <path class="cls-6" d="m237.05,326.98s-.63,0-1.77-.1c-1.14-.1-2.77-.27-4.8-.52-4.04-.49-9.62-1.31-15.72-2.48-6.11-1.17-11.59-2.48-15.53-3.52-1.97-.52-3.56-.97-4.65-1.3-1.09-.33-1.69-.53-1.68-.56,0-.03.63.1,1.73.36,1.19.29,2.77.67,4.68,1.13,3.96.95,9.44,2.19,15.53,3.36,6.09,1.17,11.65,2.04,15.67,2.62,1.95.28,3.56.51,4.77.68,1.13.16,1.75.27,1.74.3Z"/>
      <path class="cls-6" d="m216.72,284.37s.08.55.14,1.54c.06.99.1,2.44.12,4.22.03,3.56-.12,8.49-.65,13.9-.54,5.41-1.37,10.28-2.11,13.76-.37,1.74-.69,3.15-.95,4.11-.25.96-.41,1.49-.44,1.48s.05-.55.24-1.53c.2-1.07.47-2.46.79-4.14.64-3.5,1.41-8.35,1.95-13.74.54-5.39.74-10.3.8-13.86.02-1.71.03-3.12.05-4.21,0-.99.03-1.55.06-1.55Z"/>
      <path class="cls-5" d="m221.22,268.33c-.7-1.11-1.28-2.29-1.74-3.51-.11-.28-.21-.58-.14-.88.1-.41.5-.68.89-.88,2.2-1.17,4.75-1.67,7.24-1.43.51.05,1.04.14,1.46.43.83.57.97,1.73.77,2.69-.2.97-.67,1.88-.8,2.86-.45-.11-.9-.21-1.35-.32.18-1.1.37-2.2.55-3.29.06-.37.12-.77-.08-1.09-.3-.48-1-.51-1.58-.47-1.38.09-2.75.24-4.12.43-.67.1-1.45.3-1.67.92-.15.42.04.89.24,1.29.55,1.09,1.28,2.1,2.14,2.98"/>
      <path class="cls-6" d="m210.28,286.64l-2.6.17c-.11.14-.14.33-.16.5-.07.5-.14,1-.21,1.51-.07.49-.13,1-.02,1.48.11.48.44.95.93,1.09.65.18,1.34-.28,1.63-.87s.4-1.26.44-1.91c.04-.65,0-1.2,0-1.97Z"/>
      <path class="cls-6" d="m215.68,307.5c-.01.07-1.06-.02-2.75-.27-1.68-.25-4-.67-6.53-1.25-2.53-.58-4.8-1.22-6.43-1.73-1.62-.51-2.61-.89-2.59-.95.02-.07,1.04.18,2.69.6,1.65.42,3.92.99,6.44,1.57,2.52.58,4.82,1.05,6.48,1.39,1.66.34,2.69.56,2.68.63Z"/>
      <path class="cls-15" d="m212.34,295c-.65-.51-1.88-.31-2.35-.06-1.31.69-1.99,1.8-1.99,1.8,0,0-.4-1.03-1.13-2.13-.28-.42-1.02-1-1.76-1.15-.92-.19-1.86.46-2.14,1.34-.37,1.18.14,2.45.74,3.53.78,1.41,1.56,2.84,2.59,4.08.35.43,1,.51,1.44.17,1.65-1.28,3.15-2.74,4.47-4.34.41-.5.82-1.03.93-1.66.11-.63-.28-1.19-.79-1.58Z"/>
      <path class="cls-10" d="m229.65,292.1s.22.16.45.61c.22.45.39,1.24.04,2.17-.17.45-.46.94-.95,1.3-.47.38-1.16.58-1.86.47-.7-.1-1.41-.43-1.98-1-.28-.29-.53-.63-.67-1.06-.14-.42-.12-.92.1-1.34v-.02s.02-.02.02-.02c.23-.27.62-.22.85-.11.25.11.45.26.64.43.38.33.71.71,1.03,1.11.62.82,1.22,1.71,1.65,2.77.4,1.08.43,2.35-.04,3.51-.24.58-.62,1.11-1.14,1.52-.52.4-1.2.64-1.87.63-.67,0-1.35-.18-1.94-.56-.58-.36-1.09-.99-1.18-1.73-.07-.37,0-.77.19-1.12.17-.35.63-.66,1.08-.57.44.08.72.33,1,.52.28.21.55.42.82.66,1.05.92,1.99,2.11,2.4,3.56.38,1.43.18,3.12-.86,4.33-1.01,1.16-2.7,1.52-4.08.99-.68-.27-1.31-.8-1.55-1.54-.11-.36-.14-.77.01-1.16.16-.39.52-.68.92-.76.81-.14,1.47.23,2.03.59.54.38,1.05.8,1.5,1.27.9.94,1.62,2.06,1.91,3.29.66,2.47-.77,5.2-3.03,5.83-1.13.31-2.29-.03-3.14-.64-.85-.61-1.44-1.6-1.37-2.6.02-.49.2-.98.55-1.33.35-.36.91-.47,1.35-.31.87.33,1.34,1.08,1.65,1.74.64,1.34.82,2.64.82,3.67,0,1.04-.19,1.83-.35,2.35-.08.26-.15.45-.21.58-.05.13-.09.19-.09.19-.08-.01.48-1.07.45-3.12-.03-1.01-.24-2.26-.88-3.55-.3-.63-.78-1.3-1.48-1.55-.35-.12-.74-.03-1,.24-.26.27-.42.68-.43,1.1-.11,1.73,2.06,3.35,4.02,2.81,1.98-.56,3.3-3.06,2.68-5.3-.28-1.13-.95-2.18-1.8-3.06-.43-.44-.92-.84-1.43-1.2-.49-.34-1.11-.62-1.63-.51-.54.1-.75.7-.55,1.26.17.56.68.99,1.25,1.22,1.16.45,2.66.13,3.5-.85.9-1.04,1.1-2.56.75-3.85-.36-1.31-1.23-2.43-2.23-3.31-.25-.22-.51-.43-.78-.63-.27-.2-.53-.4-.77-.43-.47-.1-.82.59-.7,1.13.16,1.18,1.49,1.9,2.62,1.88,1.19.04,2.17-.82,2.59-1.85.43-1.03.42-2.2.06-3.19-.38-.99-.97-1.88-1.56-2.68-.3-.39-.62-.76-.97-1.07-.32-.3-.79-.58-.97-.36l.02-.03c-.38.7-.03,1.51.48,2.01.51.52,1.17.84,1.79.95.64.11,1.24-.05,1.68-.39.45-.32.73-.76.91-1.18.35-.86.22-1.62.05-2.05-.19-.45-.38-.63-.36-.65Z"/>
      <path class="cls-10" d="m234.66,313.41c.11.09-.66,1.15-1.72,2.37-1.06,1.21-2.01,2.12-2.12,2.02-.11-.09.66-1.15,1.72-2.37,1.06-1.21,2.01-2.12,2.11-2.02Z"/>
      <path class="cls-10" d="m234.13,317.89c-.12.07-.88-.97-1.59-2.38-.71-1.41-1.09-2.64-.96-2.7.13-.06.73,1.07,1.43,2.46.7,1.39,1.25,2.54,1.13,2.62Z"/>
      <g>
        <path class="cls-5" d="m238.16,285.09s.13-.02.39-.04c.3-.01.68-.02,1.15-.04,1.06-.03,2.52-.08,4.35-.14,3.75-.1,9.09-.38,15.5-.15l-.23.28c-.62-2.83-.59-5.97-.6-9.22-.01-3.24-.19-6.72-1.64-9.92-1.11-2.52-3.09-4.64-5.55-5.49-2.44-.87-5.14-.66-7.25.41-2.14,1.08-3.62,2.96-4.54,4.88-.93,1.93-1.36,3.92-1.55,5.74-.33,3.66-.04,6.66-.06,8.73.01,1.03,0,1.84-.04,2.38-.03.54-.06.83-.08.83-.02,0-.02-.29-.03-.83,0-.54-.02-1.34-.06-2.38-.04-2.06-.4-5.05-.11-8.77.17-1.85.59-3.89,1.53-5.89.93-1.98,2.46-3.97,4.71-5.12,2.23-1.14,5.06-1.37,7.64-.46,2.62.89,4.71,3.14,5.85,5.75,1.49,3.31,1.66,6.89,1.66,10.13,0,3.26-.05,6.36.54,9.13l.06.29h-.3c-6.37-.28-11.72-.07-15.47-.05-1.87.02-3.35.02-4.36,0-.47-.01-.85-.02-1.15-.03-.26-.01-.39-.02-.39-.03Z"/>
        <g>
          <path class="cls-12" d="m238.57,284.99c0,.47,1.2,35.77,2.74,39.86,1.53,4.09,7.15,7.91,12.26,7.57,5.11-.34,31.29-8.59,31.29-8.59l3.85-9.16h-30.91s.13-29.97.13-29.97l-19.36.28Z"/>
          <path class="cls-12" d="m288.95,305s3.28.89,3.86,2.41c.59,1.53.84,2.9,1.43,4.75.59,1.85-.82,6.56-1.41,7.84s-10.8,4.85-10.8,4.85l-1.66-6.68,7.02-3.03v-2.9l1.55-7.24Z"/>
          <g>
            <g>
              <path class="cls-12" d="m289.32,306.65s.5-1.51,0-2.26c-.5-.75-1.89-.96-2.84-.53-.95.43-2.57,1.44-2.46,2.08.11.64.33,1.07.33,1.07,0,0-3.68-1.5-4.52-1.69-.84-.19-2.79.67-2.23,2.06l.2.38s-1.15-.91-2.27-.17c-1.12.75-1,2.19-.45,2.97,0,0-1.95-.08-2.01,1.58s.39,1.66.39,1.66c0,0-1.23.59-.8,2.41.22.92,5.76,4.27,7.55,3.73,1.79-.53,2.12-1.66,2.79-1.87.67-.21,2.06-.91,2.46-1.6.39-.69,1.89-1.39,2.03-2.35.14-.96.86-2.21.92-3.55.06-1.34.45-3.16.45-3.16l.44-.76Z"/>
              <path class="cls-11" d="m289.32,306.65s-.1.26-.38.79v-.02c-.11.73-.33,1.96-.42,3.66-.11.86-.51,1.76-.77,2.74l-.08.38c-.03.15-.08.3-.16.43-.15.27-.35.48-.56.69-.41.41-.94.75-1.25,1.18-.33.58-.93.96-1.5,1.28-.29.16-.6.31-.93.43-.19.07-.28.1-.4.19-.12.09-.23.2-.35.32-.46.51-1.07,1.01-1.78,1.28-.32.13-.77.27-1.17.21-.4-.02-.78-.12-1.15-.23-1.48-.47-2.89-1.2-4.25-2.1-.34-.23-.68-.47-1-.74-.16-.15-.32-.27-.47-.46-.16-.13-.31-.5-.31-.67-.18-.85.05-1.96.98-2.47l.11.5c-.28-.05-.31-.17-.39-.26-.25-.45-.23-.83-.26-1.23,0-.37-.01-.8.18-1.21.19-.4.55-.69.93-.85.38-.16.76-.22,1.17-.22l-.22.41c-.64-.91-.63-2.25.18-3.04.37-.38.92-.63,1.46-.61.54.02,1.02.21,1.44.52l-.37.31c-.07-.13-.14-.26-.2-.38h0s0-.02,0-.02c-.18-.42-.13-.95.12-1.33.25-.38.6-.62.96-.8.37-.17.75-.28,1.17-.27.45.04.75.19,1.1.3,1.34.48,2.56.99,3.7,1.46l-.25.27c-.18-.38-.28-.74-.34-1.12-.04-.28.09-.48.2-.63.12-.16.25-.29.38-.41.54-.47,1.11-.79,1.66-1.07,1.13-.61,2.39-.41,3.08.19.36.31.44.76.45,1.09,0,.34-.04.62-.08.84-.1.45-.2.66-.21.66-.02,0,.04-.24.1-.68.03-.22.05-.5.03-.82-.02-.32-.12-.68-.43-.94-.61-.49-1.78-.66-2.79-.07-.52.28-1.08.62-1.57,1.06-.23.21-.49.51-.46.71.06.34.17.69.32,1l.22.46-.47-.19c-1.14-.45-2.37-.94-3.7-1.4-.32-.1-.69-.25-.97-.26-.31,0-.65.09-.96.24-.3.15-.59.36-.76.63-.17.27-.2.59-.07.9v-.02c.06.12.12.25.19.38l.51.94-.87-.63c-.32-.23-.74-.4-1.14-.4-.4-.01-.8.17-1.1.47-.61.58-.62,1.67-.11,2.39l.29.41h-.51c-.62,0-1.37.22-1.61.78-.13.27-.14.6-.13.97,0,.34.05.74.17.95.01.02.02.03.03.03,0-.01,0,.01-.03.05l-.02.05v.04s-.01.03-.01.03h0s0,0,0,0l.02-.18h0s0,0,0,0h-.02s.11.49.11.49c-.61.34-.85,1.18-.69,1.92.05.23.05.27.2.43.1.14.27.27.41.4.31.25.63.49.96.71,1.32.87,2.72,1.6,4.11,2.05.35.1.7.2,1.04.21.34.05.62-.05.96-.17.65-.25,1.16-.66,1.63-1.16.12-.12.25-.25.41-.37.15-.12.38-.2.51-.24.3-.11.6-.25.87-.4.55-.31,1.08-.63,1.37-1.13.42-.55.93-.84,1.33-1.23.2-.19.38-.38.51-.59.13-.2.14-.43.22-.72.3-1.03.71-1.88.83-2.7.13-1.67.41-2.93.58-3.65h0s0-.02,0-.02c.31-.5.47-.74.49-.73Z"/>
            </g>
            <path class="cls-11" d="m276.37,316.75c-.07.12-1.01-.33-1.88-1.26-.87-.93-1.24-1.91-1.11-1.97.13-.07.68.74,1.5,1.61.81.88,1.58,1.49,1.49,1.61Z"/>
            <path class="cls-11" d="m279.47,314.2c-.11.1-1.05-.75-2.23-1.78-1.17-1.03-2.14-1.86-2.06-1.98.08-.12,1.2.54,2.4,1.59,1.2,1.05,1.99,2.08,1.89,2.17Z"/>
            <path class="cls-11" d="m283.9,311.53c-.06.13-1.57-.47-3.28-1.49-1.72-1.01-2.97-2.04-2.89-2.16.08-.12,1.46.71,3.16,1.71,1.7,1,3.08,1.81,3.02,1.94Z"/>
            <path class="cls-11" d="m287.93,307.82c.06.12-.8.55-1.89.29-1.1-.25-1.67-1.03-1.56-1.11.11-.11.74.4,1.68.61.93.23,1.73.07,1.77.22Z"/>
          </g>
          <path class="cls-11" d="m252.11,320.48c-.13,0,.31-2.01,2.07-3.68,1.74-1.69,3.75-2.08,3.75-1.95.06.15-1.76.73-3.39,2.32-1.66,1.56-2.29,3.37-2.43,3.31Z"/>
        </g>
      </g>
      <path class="cls-11" d="m245.47,236.2l-.14.02c-.18.08-.24.35-.1.49.14.14.42.1.5-.08.08-.18-.06-.42-.26-.43Z"/>
      <path class="cls-11" d="m244.8,238.73l-.14.02c-.18.08-.24.36-.1.5.14.14.42.1.5-.08.08-.18-.06-.43-.26-.44Z"/>
      <path class="cls-11" d="m259.14,239.62l-.14.02c-.18.08-.24.35-.1.49.14.14.42.1.5-.08.08-.18-.06-.42-.26-.43Z"/>
      <g>
        <path class="cls-15" d="m278.51,344.4c-.69-2.55-2.51-6.9-5-7.91l-.39,7.26c.7,6.24,2.1,12.4,4.16,18.34,2.35-5.56,2.79-11.87,1.22-17.69Z"/>
        <path class="cls-15" d="m267.79,352.05c.83-6.21,3.58-12.22,3.32-18.45l3.21,2.9c3.01,6.66,3.82,14.05,4.06,21.33.24,7.28-.06,14.6.88,21.81-1.15-.09-2.29.27-3.43.43-1.15.16-2.45.05-3.22-.77-.42-.45-.61-1.05-.79-1.63-2.58-8.33-5.18-16.95-4.03-25.61Z"/>
        <path class="cls-15" d="m270.21,333.47c0,2.47,1.92,4.47,4.29,4.47s4.29-2,4.29-4.47-1.92-4.47-4.29-4.47-4.29,2-4.29,4.47Z"/>
        <path class="cls-5" d="m275.81,329.12s-.25-.14-.74-.23c-.49-.08-1.25-.13-2.13.19-.88.29-1.79,1.03-2.37,2.08-.58,1.03-.9,2.43-.48,3.78.39,1.33,1.32,2.44,2.43,2.98,1.12.56,2.32.51,3.18.25.89-.26,1.49-.72,1.83-1.08.35-.36.46-.62.43-.63-.08-.09-.72.9-2.38,1.3-.8.19-1.85.18-2.8-.33-.95-.49-1.76-1.47-2.1-2.65-.37-1.18-.11-2.39.39-3.35.49-.96,1.26-1.63,2.02-1.94.76-.33,1.47-.36,1.94-.35.48.01.75.04.76-.01Z"/>
        <path class="cls-5" d="m275.01,337.73s.18.31.41.91c.24.6.54,1.48.87,2.58.67,2.2,1.43,5.3,1.91,8.79.47,3.49.57,6.68.5,8.98-.03,1.15-.09,2.08-.16,2.72-.06.64-.12.99-.15.99-.08,0-.03-1.42-.06-3.71-.03-2.29-.18-5.45-.65-8.91-.47-3.46-1.16-6.55-1.74-8.76-.58-2.22-1.01-3.57-.93-3.6Z"/>
      </g>
    </g>
  </g>
</svg>