<?xml version="1.0" encoding="UTF-8"?>
<svg xmlns="http://www.w3.org/2000/svg" xmlns:xlink="http://www.w3.org/1999/xlink" viewBox="0 0 468.14 454.46">
  <defs>
    <style>
      .cls-1 {
        fill: url(#linear-gradient);
      }

      .cls-1, .cls-2, .cls-3, .cls-4, .cls-5, .cls-6, .cls-7, .cls-8, .cls-9, .cls-10, .cls-11, .cls-12, .cls-13, .cls-14, .cls-15, .cls-16, .cls-17, .cls-18 {
        stroke-width: 0px;
      }

      .cls-19 {
        stroke: #263238;
        stroke-miterlimit: 10;
        stroke-width: .5px;
      }

      .cls-19, .cls-5 {
        fill: #263238;
      }

      .cls-20 {
        opacity: .2;
      }

      .cls-21 {
        opacity: .2;
      }

      .cls-22 {
        opacity: .3;
      }

      .cls-23 {
        opacity: .5;
      }

      .cls-2 {
        fill: url(#linear-gradient-2);
      }

      .cls-4 {
        fill: #844e42;
      }

      .cls-6 {
        fill: #455a64;
      }

      .cls-7 {
        fill: #1a2e35;
      }

      .cls-8 {
        fill: #375a64;
      }

      .cls-9 {
        fill: #111;
      }

      .cls-10 {
        fill: #e0e0e0;
      }

      .cls-11 {
        fill: #e1e1e1;
      }

      .cls-12 {
        fill: #ececec;
      }

      .cls-13 {
        fill: #fff;
      }

      .cls-14 {
        fill: #ffbe9d;
      }

      .cls-15 {
        fill: #fafafa;
      }

      .cls-16 {
        fill: #eb996e;
      }

      .cls-17 {
        fill: #f5f5f5;
      }

      .cls-18 {
        fill: #00bcd4;
      }
    </style>
    <linearGradient id="linear-gradient" x1="216.11" y1="411.83" x2="219.06" y2="406.72" gradientTransform="translate(0 476.27) scale(1 -1)" gradientUnits="userSpaceOnUse">
      <stop offset=".08" stop-color="#a5aaa8"/>
      <stop offset=".09" stop-color="#a9aeac"/>
      <stop offset=".16" stop-color="#c3c7c5"/>
      <stop offset=".23" stop-color="#d9dbda"/>
      <stop offset=".32" stop-color="#eaebeb"/>
      <stop offset=".43" stop-color="#f6f6f6"/>
      <stop offset=".58" stop-color="#fdfdfd"/>
      <stop offset="1" stop-color="#fff"/>
    </linearGradient>
    <linearGradient id="linear-gradient-2" x1="214.77" y1="412.48" x2="212.41" y2="406.35" gradientTransform="translate(0 476.27) scale(1 -1)" gradientUnits="userSpaceOnUse">
      <stop offset=".03" stop-color="#a5aaa8"/>
      <stop offset=".04" stop-color="#a9aeac"/>
      <stop offset=".11" stop-color="#c3c7c5"/>
      <stop offset=".19" stop-color="#d9dbda"/>
      <stop offset=".28" stop-color="#eaebeb"/>
      <stop offset=".4" stop-color="#f6f6f6"/>
      <stop offset=".56" stop-color="#fdfdfd"/>
      <stop offset="1" stop-color="#fff"/>
    </linearGradient>
  </defs>
  <g id="Layer_19" data-name="Layer 19">
    <g>
      <path class="cls-17" d="m369.77,377.17c-1.3-1.12-4.22-4.66-1.97-8.79.82-1.51,2.57-2.26,4.15-2.93s3.24-1.24,4.55-2.36c2.47-2.1,3.15-5.59,4.79-8.39,1.88-3.22,5.39-5.63,9.1-5.46,4.25.19,7.79,3.66,9.4,7.62,1.61,3.96,1.66,8.35,1.7,12.62.02,2.36-.09,5.03-1.82,6.62-1.6,1.47-4.01,1.49-6.17,1.42-7.74-.24-15.48-.48-23.22-.71"/>
      <path class="cls-10" d="m414.18,313.33h-61.06l11,65.58c.48,2.86,2.55,5.07,5.21,5.84.07.02.14.04.21.06.18.05.36.11.54.14.4.08.82.13,1.24.14,0,.02,0,.04,0,.06l.3-.05h27.21c.51,0,1.01-.05,1.5-.15,3.21-.5,5.79-3.08,6.18-6.41l5.3-45.19.24-1.8h-.03l2.1-17.89.04-.34Zm-11.52,41.83h-6.27l.63-19.03h7.26l-1.63,19.03Zm2.23-19.03h6l-2.23,19.03h-5.39l1.63-19.03Zm-17.9,40.13l-.38-16.53h9.02l-.55,16.53h-8.09Zm-9.75-16.53h8.77l.38,16.53h-7.86l-1.28-16.53Zm.68,16.53h-7.35c-.7-4.46-1.61-10.27-2.59-16.53h8.66l1.28,16.53Zm-1.03-21.1l-1.48-19.03h10.06l.44,19.03h-9.02Zm9.62,0l-.44-19.03h10.35l-.63,19.03h-9.28Zm-.54-23.6l-.41-17.63h11.6l-.59,17.63h-10.61Zm-.61,0h-10.31l-1.37-17.63h11.27l.41,17.63Zm-10.91,0h-10.91c-.39-2.43-.75-4.74-1.08-6.81-1.14-7.13-1.57-9.81-1.8-10.81h12.42l1.37,17.63Zm.35,4.56l1.48,19.03h-9.02c-.3-1.93-.61-3.88-.92-5.84-.71-4.49-1.41-8.98-2.08-13.19h10.54Zm-8.15,19.03h-5.89l-3.19-19.03h6.09c.93,5.88,1.96,12.43,3,19.03Zm.72,4.56c.9,5.72,1.78,11.36,2.59,16.53h-5.66l-2.77-16.53h5.84Zm28.33,16.53l.55-16.53h6.03l-1.41,16.53h-5.16Zm1.48-44.7l.59-17.63h8.42l-1.51,17.63h-7.5Zm-37.1-17.63c.24,1.27,1.36,8.21,2.85,17.63h-6.13l-2.96-17.63h6.24Zm46.11,62.32h-4.72l1.41-16.53h5.25l-1.94,16.53Zm5.24-44.7h-6.14l1.51-17.63h6.71l-2.07,17.63Z"/>
    </g>
    <g>
      <rect class="cls-10" x="198.03" y="1.6" width="15.91" height="383.01"/>
      <g>
        <rect class="cls-12" x="39.67" y="17.76" width="158.36" height="366.86"/>
        <rect class="cls-10" x="29.45" y="1.6" width="14.65" height="383.01"/>
        <rect class="cls-10" x="29.45" y="1.6" width="184.49" height="16.16"/>
        <path class="cls-12" d="m213.94,1.6s-.19.25-.59.64c-.48.46-1.05,1-1.72,1.63-1.55,1.45-3.52,3.3-5.7,5.34-2.21,2.1-4.19,4.03-5.54,5.5-.68.73-1.2,1.35-1.51,1.81-.16.23-.26.41-.33.54-.04.13-.07.21-.09.21-.02,0-.02-.08,0-.24.04-.15.12-.36.26-.61.28-.5.77-1.16,1.43-1.93,1.31-1.54,3.25-3.52,5.47-5.62,2.22-2.1,4.28-3.94,5.79-5.24.76-.65,1.38-1.17,1.81-1.52.44-.35.69-.53.71-.5Z"/>
        <path class="cls-12" d="m44.1,18.09c-.09.09-3.45-3.53-7.49-8.09-4.05-4.55-7.25-8.32-7.16-8.41.09-.09,3.45,3.53,7.5,8.09,4.05,4.55,7.25,8.32,7.16,8.4Z"/>
        <g>
          <path class="cls-10" d="m53.59,233.68h0c-2.94,0-5.33-2.39-5.33-5.33v-38.34c0-2.94,2.39-5.33,5.33-5.33h0c2.94,0,5.33,2.39,5.33,5.33v38.34c0,2.94-2.39,5.33-5.33,5.33Z"/>
          <path class="cls-12" d="m55.75,221.65c0-1.03-.8-1.86-1.8-1.86s-1.8.83-1.8,1.86c0,.72.4,1.35.99,1.65v2.16c0,.46.36.83.81.83h0c.45,0,.81-.37.81-.83v-2.16c.58-.31.99-.93.99-1.65Z"/>
          <rect class="cls-10" x="53.45" y="201.19" width="29.34" height="5.86" rx="2.51" ry="2.51"/>
          <path class="cls-12" d="m64.11,207.21s-.32.05-.89.08c-.68.03-1.48.07-2.43.11-1.03.03-2.26.06-3.63-.13-.68-.1-1.4-.23-2.11-.55-.7-.32-1.4-.83-1.81-1.61-.41-.78-.47-1.72-.11-2.49.17-.38.47-.72.81-.91.33-.2.67-.33,1-.44,1.33-.46,2.6-.43,3.62-.44,1.03,0,1.86.05,2.43.09.57.04.89.07.89.11,0,.08-1.27.08-3.32.14-1.02.06-2.24.06-3.5.52-.62.23-1.28.5-1.54,1.14-.28.62-.23,1.42.11,2.07.35.65.96,1.12,1.6,1.41.64.3,1.33.43,1.99.54,1.32.21,2.54.21,3.56.22,2.05,0,3.33.07,3.32.14Z"/>
        </g>
        <rect class="cls-15" x="64.87" y="39.62" width="113.64" height="117.63"/>
      </g>
    </g>
    <g>
      <rect class="cls-10" x="303.32" y="1.6" width="134.73" height="212.92"/>
      <rect class="cls-17" x="306.94" y="5.6" width="127.01" height="205.42"/>
      <g>
        <rect class="cls-13" x="370.45" y="17.57" width="50.65" height="78.59"/>
        <path class="cls-10" d="m398.47,24.52c0,1.04-.85,1.89-1.89,1.89s-1.89-.85-1.89-1.89.85-1.89,1.89-1.89,1.89.85,1.89,1.89Z"/>
      </g>
      <g>
        <rect class="cls-13" x="319.41" y="118.03" width="50.65" height="78.59"/>
        <path class="cls-10" d="m347.43,124.98c0,1.04-.85,1.89-1.89,1.89s-1.89-.85-1.89-1.89.85-1.89,1.89-1.89,1.89.85,1.89,1.89Z"/>
      </g>
      <g>
        <rect class="cls-13" x="318.73" y="17.57" width="43.25" height="61.37"/>
        <path class="cls-10" d="m341.92,23.14c0,.87-.7,1.57-1.57,1.57s-1.57-.7-1.57-1.57.7-1.57,1.57-1.57,1.57.7,1.57,1.57Z"/>
      </g>
      <g>
        <rect class="cls-13" x="377.8" y="121.64" width="46.55" height="25.79" transform="translate(-12.55 45.81) rotate(-6.44)"/>
        <path class="cls-10" d="m401.78,126.58c0,.88-.72,1.6-1.6,1.6s-1.6-.72-1.6-1.6.72-1.6,1.6-1.6,1.6.72,1.6,1.6Z"/>
      </g>
      <path class="cls-10" d="m363.3,135.95c0,.21-7.95.38-17.76.38s-17.76-.17-17.76-.38,7.95-.38,17.76-.38,17.76.17,17.76.38Z"/>
      <path class="cls-10" d="m363.3,141.58c0,.21-7.95.38-17.76.38s-17.76-.17-17.76-.38,7.95-.38,17.76-.38,17.76.17,17.76.38Z"/>
      <path class="cls-10" d="m363.3,147.2c0,.21-7.95.38-17.76.38s-17.76-.17-17.76-.38,7.95-.38,17.76-.38,17.76.17,17.76.38Z"/>
      <path class="cls-10" d="m363.3,152.82c0,.21-7.95.38-17.76.38s-17.76-.17-17.76-.38,7.95-.38,17.76-.38,17.76.17,17.76.38Z"/>
      <path class="cls-10" d="m363.3,158.45c0,.21-7.95.38-17.76.38s-17.76-.17-17.76-.38,7.95-.38,17.76-.38,17.76.17,17.76.38Z"/>
      <path class="cls-10" d="m363.3,164.07c0,.21-7.95.38-17.76.38s-17.76-.17-17.76-.38,7.95-.38,17.76-.38,17.76.17,17.76.38Z"/>
      <path class="cls-10" d="m363.3,169.69c0,.21-7.95.38-17.76.38s-17.76-.17-17.76-.38,7.95-.38,17.76-.38,17.76.17,17.76.38Z"/>
      <path class="cls-10" d="m418.43,129.93c.03.21-7.82,1.49-17.53,2.86-9.72,1.37-17.61,2.31-17.64,2.11-.03-.21,7.82-1.48,17.54-2.86,9.71-1.37,17.61-2.31,17.64-2.11Z"/>
      <path class="cls-10" d="m419.13,133.45c.03.21-7.82,1.48-17.53,2.86-9.72,1.37-17.61,2.31-17.64,2.11-.03-.21,7.82-1.48,17.54-2.86,9.71-1.37,17.61-2.31,17.64-2.11Z"/>
      <path class="cls-10" d="m419.78,136.7c.03.21-7.82,1.49-17.53,2.86-9.72,1.37-17.61,2.31-17.64,2.11-.03-.21,7.82-1.48,17.54-2.86,9.71-1.37,17.61-2.31,17.64-2.11Z"/>
      <path class="cls-10" d="m416.64,34.01c0,.21-8.98.38-20.07.38s-20.07-.17-20.07-.38,8.98-.38,20.07-.38,20.07.17,20.07.38Z"/>
      <path class="cls-10" d="m416.64,37.35c0,.21-8.98.38-20.07.38s-20.07-.17-20.07-.38,8.98-.38,20.07-.38,20.07.17,20.07.38Z"/>
      <path class="cls-10" d="m416.64,40.69c0,.21-8.98.38-20.07.38s-20.07-.17-20.07-.38,8.98-.38,20.07-.38,20.07.17,20.07.38Z"/>
      <path class="cls-10" d="m416.64,44.04c0,.21-8.98.38-20.07.38s-20.07-.17-20.07-.38,8.98-.38,20.07-.38,20.07.17,20.07.38Z"/>
      <path class="cls-10" d="m416.64,47.38c0,.21-8.98.38-20.07.38s-20.07-.17-20.07-.38,8.98-.38,20.07-.38,20.07.17,20.07.38Z"/>
      <path class="cls-10" d="m416.64,50.72c0,.21-8.98.38-20.07.38s-20.07-.17-20.07-.38,8.98-.38,20.07-.38,20.07.17,20.07.38Z"/>
      <path class="cls-10" d="m416.64,54.07c0,.21-8.98.38-20.07.38s-20.07-.17-20.07-.38,8.98-.38,20.07-.38,20.07.17,20.07.38Z"/>
      <path class="cls-10" d="m416.64,63.99c0,.21-8.98.38-20.07.38s-20.07-.17-20.07-.38,8.98-.38,20.07-.38,20.07.17,20.07.38Z"/>
      <path class="cls-10" d="m416.93,67.52c0,.21-8.98.38-20.06.38s-20.07-.17-20.07-.38,8.98-.38,20.07-.38,20.06.17,20.06.38Z"/>
      <path class="cls-10" d="m417.21,71.05c0,.21-8.98.38-20.07.38s-20.07-.17-20.07-.38,8.98-.38,20.07-.38,20.07.17,20.07.38Z"/>
      <path class="cls-10" d="m417.49,74.58c0,.21-8.98.38-20.07.38s-20.07-.17-20.07-.38,8.98-.38,20.07-.38,20.07.17,20.07.38Z"/>
      <path class="cls-10" d="m417.77,78.11c0,.21-8.98.38-20.07.38s-20.07-.17-20.07-.38,8.98-.38,20.07-.38,20.07.17,20.07.38Z"/>
      <path class="cls-10" d="m418.06,81.64c0,.21-8.98.38-20.07.38s-20.07-.17-20.07-.38,8.98-.38,20.07-.38,20.07.17,20.07.38Z"/>
    </g>
    <path class="cls-5" d="m469.05,385.15c0,.14-104.59.26-233.59.26s-233.61-.12-233.61-.26,104.57-.26,233.61-.26,233.59.12,233.59.26Z"/>
  </g>
  <g id="Layer_4" data-name="Layer 4">
    <path class="cls-5" d="m307.27,454.45h-147.42c-17.79-.11-32.35-15.23-32.24-33l1.56-370.36c.08-17.73,14.51-32.05,32.24-32h0l147.75.71c17.77.09,32.09,14.57,32,32.34h0s-1.56,370.32-1.56,370.32c-.09,17.77-14.57,32.09-32.34,32h0,.01Z"/>
    <path class="cls-15" d="m308.94,32.54l-28.69-.11c-3.9.13-7,3.33-7,7.23v5.22c.12,3.86-2.91,7.08-6.77,7.21h-.23l-55.81-.22c-3.92-.11-7.01-3.39-6.9-7.31v-5.24c.11-3.92-2.97-7.2-6.89-7.34h-10.1l-25-.11c-12.46-.06-22.61,9.99-22.68,22.45h0l-1.56,361.43c0,12.44,10.02,22.56,22.46,22.68l147.42.67c12.44,0,22.56-10.02,22.68-22.46l1.56-361.43c.05-12.45-9.98-22.59-22.42-22.68h-.07Z"/>
  </g>
  <g id="Layer_1" data-name="Layer 1">
    <g id="Layer_3" data-name="Layer 3">
      <g>
        <path class="cls-5" d="m310.26,60.3c0,.17-3.09.31-6.89.31s-6.89-.14-6.89-.31,3.08-.31,6.89-.31,6.89.14,6.89.31Z"/>
        <path class="cls-5" d="m310.26,64.8c0,.17-3.09.31-6.89.31s-6.89-.14-6.89-.31,3.08-.31,6.89-.31,6.89.14,6.89.31Z"/>
        <path class="cls-5" d="m310.26,69.3c0,.17-3.09.31-6.89.31s-6.89-.14-6.89-.31,3.08-.31,6.89-.31,6.89.14,6.89.31Z"/>
      </g>
      <g>
        <path class="cls-5" d="m215.1,188.3v-4.73s-2.36,3.94-2.36,3.94h-.43l-2.35-3.92v4.7h-.89v-6.49h.76l2.71,4.56,2.67-4.56h.76v6.49s-.88,0-.88,0Z"/>
        <path class="cls-5" d="m222.16,183.38l-2.38,5.41c-.44,1.04-1,1.36-1.75,1.36-.47,0-.95-.16-1.26-.45l.38-.67c.24.23.55.36.88.36.43,0,.7-.19.94-.76l.16-.34-2.17-4.91h.93l1.72,3.93,1.7-3.93h.87Z"/>
        <path class="cls-5" d="m230.86,184.07c0,1.41-1.02,2.26-2.71,2.26h-1.6v1.97h-.93v-6.49h2.53c1.69,0,2.71.85,2.71,2.26Zm-.93,0c0-.93-.62-1.46-1.81-1.46h-1.58v2.91h1.58c1.19,0,1.81-.53,1.81-1.46Z"/>
        <path class="cls-5" d="m234.65,183.33v.86c-.07,0-.14,0-.2,0-.96,0-1.55.58-1.55,1.66v2.45h-.89v-4.92h.85v.83c.32-.58.93-.87,1.79-.87Z"/>
        <path class="cls-5" d="m235.24,185.84c0-1.47,1.09-2.51,2.56-2.51s2.55,1.04,2.55,2.51-1.08,2.51-2.55,2.51-2.56-1.05-2.56-2.51Zm4.21,0c0-1.05-.71-1.73-1.65-1.73s-1.66.68-1.66,1.73.71,1.73,1.66,1.73,1.65-.69,1.65-1.73Z"/>
        <path class="cls-5" d="m243.34,181.36c.38,0,.75.09,1,.29l-.27.68c-.19-.14-.43-.23-.69-.23-.53,0-.8.3-.8.86v.43h1.43v.73h-1.41v4.18h-.89v-4.18h-.83v-.73h.83v-.44c0-.96.58-1.59,1.62-1.59Zm2.11.5c0-.32.26-.58.6-.58s.6.25.6.57c0,.33-.25.59-.6.59s-.6-.25-.6-.58Zm.16,1.52h.89v4.92h-.89v-4.92Z"/>
        <path class="cls-5" d="m248.19,181.41h.89v6.88h-.89v-6.88Z"/>
        <path class="cls-5" d="m255.2,186.14h-3.99c.11.86.81,1.44,1.78,1.44.58,0,1.06-.2,1.42-.59l.49.58c-.44.52-1.12.8-1.94.8-1.59,0-2.64-1.05-2.64-2.51s1.05-2.51,2.47-2.51,2.43,1.02,2.43,2.53c0,.07,0,.19-.02.27Zm-3.99-.64h3.15c-.09-.83-.71-1.41-1.58-1.41s-1.48.58-1.58,1.41Z"/>
      </g>
      <path class="cls-5" d="m290.78,194.51c0,.17-24.45.31-54.6.31s-54.61-.14-54.61-.31,24.44-.31,54.61-.31,54.6.14,54.6.31Z"/>
      <circle class="cls-18" cx="197.67" cy="405.77" r="13.55"/>
      <circle class="cls-18" cx="237.29" cy="405.77" r="13.55"/>
      <circle class="cls-18" cx="276.9" cy="405.77" r="13.55"/>
      <path class="cls-19" d="m159.39,70.51s.11-.01.31-.02c.25,0,.53-.02.87-.03.82-.02,1.89-.04,3.2-.07l-.09.09c-.01-.69-.02-1.45-.04-2.27,0-.42-.04-.82,0-1.31.09-.49.53-.91,1.07-.96.52-.01.97-.03,1.53,0,.58.07,1.07.61,1.05,1.21.01,1.06.03,2.16.04,3.31l-.15-.14c1.3-.01,2.65-.03,4.04-.04l-.15.15c-.01-1.59-.03-3.23-.04-4.92,0-.42,0-.84-.01-1.25,0-.39-.24-.64-.57-.93-.6-.58-1.19-1.14-1.77-1.7-.58-.56-1.15-1.11-1.7-1.64-.28-.27-.55-.53-.82-.8-.28-.27-.51-.54-.84-.61-.32-.08-.67-.02-.93.17-.24.2-.51.49-.75.72-.5.49-.98.97-1.45,1.43-.91.93-1.86,1.77-2.55,2.57-.29.44-.18.98-.2,1.47,0,.49,0,.95,0,1.39,0,.85-.01,1.6-.01,2.24,0,.57-.01,1.05-.02,1.43,0,.33-.01.51-.02.52,0,0-.02-.16-.03-.47-.01-.38-.02-.85-.04-1.41-.01-.65-.03-1.4-.05-2.26,0-.45-.02-.92-.03-1.42,0-.25,0-.51-.01-.78,0-.28.07-.57.22-.83.75-.89,1.64-1.69,2.56-2.64.46-.47.94-.95,1.44-1.44.26-.25.47-.5.78-.76.32-.24.77-.33,1.17-.23.43.09.71.44.97.68.27.26.55.53.83.79.56.54,1.13,1.08,1.71,1.64.58.56,1.17,1.12,1.77,1.7.14.15.31.27.45.48.13.2.21.43.21.67,0,.42,0,.84.01,1.26.01,1.68.03,3.33.04,4.92v.15s-.15,0-.15,0c-1.39,0-2.74.02-4.04.03h-.15s0-.14,0-.14c0-1.15-.01-2.25-.02-3.31.02-.48-.36-.9-.82-.96-.46-.02-1.01,0-1.46,0-.43.04-.8.38-.87.77-.04.4,0,.86-.02,1.26,0,.82,0,1.58,0,2.27v.09s-.09,0-.09,0c-1.33,0-2.42-.02-3.25-.02-.33,0-.61-.01-.85-.01-.19,0-.28,0-.28-.02Z"/>
      <g>
        <g>
          <circle class="cls-10" cx="235.11" cy="130.69" r="37.81" transform="translate(54.68 330.19) rotate(-76.94)"/>
          <path class="cls-10" d="m249.89,143.06c.1-.13.32-.2.63-.06.3.14.68.5.85,1.09.18.56.12,1.47-.51,2.19-.61.69-1.59,1.07-2.63.88-1.09-.2-1.83-1.02-2.1-1.78-.29-.78-.22-1.57.09-2.14.3-.55.78-.85,1.15-.89.37-.04.55.13.57.29.03.17-.06.35-.08.54-.02.18-.02.39.03.6.05.19.16.43.31.61.16.2.35.29.49.31.18.04.42,0,.56-.06.13-.04.28-.17.38-.39.21-.43.1-.91.28-1.2Z"/>
        </g>
        <path class="cls-5" d="m272.92,130.69s-.03-.21-.06-.61c-.03-.42-.07-1.02-.12-1.79-.02-.4-.05-.84-.08-1.32-.05-.48-.15-1.01-.24-1.58-.09-.57-.19-1.18-.29-1.84-.08-.66-.32-1.33-.49-2.06-.67-2.92-2.03-6.37-4.19-10.03-2.17-3.64-5.31-7.45-9.58-10.68-.54-.4-1.08-.8-1.63-1.21-.57-.37-1.17-.72-1.77-1.08-.61-.35-1.18-.77-1.83-1.06-.64-.31-1.3-.62-1.95-.94-.33-.16-.66-.31-.99-.47-.35-.13-.69-.25-1.04-.38-.7-.25-1.4-.51-2.12-.77-.72-.24-1.47-.39-2.22-.59-.75-.17-1.49-.43-2.28-.51-1.55-.22-3.13-.54-4.75-.55-.81-.03-1.63-.11-2.45-.09-.82.04-1.65.09-2.49.13-.42.03-.84.03-1.26.08l-1.25.19c-.84.14-1.69.24-2.53.41-1.66.45-3.38.79-5.01,1.47-1.69.54-3.27,1.37-4.9,2.15-.79.43-1.55.93-2.34,1.4-.38.25-.8.46-1.16.73l-1.11.83c-1.53,1.05-2.86,2.36-4.26,3.62-1.26,1.4-2.59,2.77-3.68,4.35l-.86,1.16-.76,1.24-.76,1.24c-.26.41-.5.83-.7,1.28-.42.88-.85,1.76-1.28,2.65-.34.92-.68,1.85-1.02,2.78-1.22,3.77-1.88,7.78-1.94,11.85.05,4.08.71,8.08,1.94,11.85.34.93.68,1.86,1.02,2.78.43.89.85,1.77,1.28,2.65l.32.66.38.62.76,1.24.76,1.24.86,1.16c1.09,1.59,2.42,2.96,3.68,4.36,1.4,1.26,2.73,2.57,4.26,3.62l1.11.83c.37.28.78.49,1.16.73.79.47,1.55.97,2.34,1.4,1.63.78,3.22,1.61,4.9,2.15,1.63.68,3.35,1.02,5.01,1.47.84.17,1.69.27,2.53.41l1.25.19c.42.05.84.05,1.26.08.84.04,1.66.09,2.49.13.82.01,1.64-.07,2.45-.09,1.63,0,3.2-.33,4.75-.55.78-.08,1.52-.35,2.28-.52.74-.2,1.5-.36,2.22-.59.71-.26,1.42-.52,2.12-.77.35-.13.7-.25,1.04-.38.33-.16.66-.31.99-.47.66-.32,1.31-.63,1.95-.94.65-.3,1.23-.72,1.83-1.06.6-.37,1.2-.71,1.77-1.08.55-.41,1.09-.81,1.63-1.21,4.27-3.23,7.4-7.04,9.57-10.68,2.15-3.66,3.52-7.11,4.19-10.03.17-.73.42-1.4.49-2.06.1-.66.2-1.27.29-1.84.08-.57.19-1.09.24-1.58.03-.48.06-.93.08-1.32.05-.78.09-1.37.12-1.79.03-.4.06-.61.06-.61,0,0,0,.21,0,.61-.02.42-.04,1.02-.07,1.8-.02.4-.03.84-.06,1.33-.04.49-.14,1.01-.22,1.59-.08.57-.17,1.19-.27,1.85-.07.67-.31,1.34-.47,2.08-.64,2.94-1.99,6.42-4.14,10.12-2.17,3.68-5.31,7.54-9.6,10.81-.54.41-1.09.82-1.64,1.23-.58.38-1.18.73-1.78,1.1-.61.35-1.19.78-1.85,1.08-.65.31-1.31.63-1.97.95-.33.16-.67.32-1,.48-.35.13-.7.26-1.05.39-.71.26-1.42.52-2.14.79-.73.24-1.49.4-2.24.61-.76.17-1.51.44-2.3.53-1.57.23-3.16.56-4.81.57-.82.03-1.65.11-2.48.1-.83-.04-1.67-.08-2.52-.12-.42-.03-.85-.03-1.27-.08l-1.27-.19c-.85-.14-1.71-.24-2.56-.41-1.68-.45-3.42-.79-5.08-1.48-1.71-.54-3.31-1.38-4.97-2.17-.8-.43-1.58-.94-2.37-1.41-.39-.25-.81-.46-1.18-.74l-1.12-.84c-1.55-1.06-2.9-2.39-4.32-3.66-1.28-1.41-2.63-2.8-3.73-4.41l-.88-1.17-.77-1.25-.77-1.26-.38-.63-.33-.67c-.43-.89-.86-1.79-1.29-2.68-.34-.94-.69-1.88-1.03-2.82-1.24-3.82-1.91-7.88-1.96-12.01.05-4.13.72-8.19,1.97-12.01.35-.94.69-1.88,1.03-2.82.43-.9.86-1.79,1.29-2.68.2-.45.44-.88.71-1.3l.77-1.26.77-1.25.88-1.17c1.11-1.61,2.45-2.99,3.73-4.41,1.42-1.28,2.77-2.6,4.32-3.66l1.12-.84c.37-.28.79-.49,1.18-.74.8-.47,1.57-.98,2.37-1.41,1.65-.79,3.26-1.63,4.96-2.17,1.66-.69,3.39-1.03,5.07-1.48.85-.17,1.71-.27,2.56-.41l1.27-.19c.42-.05.85-.05,1.27-.08.84-.04,1.68-.08,2.52-.12.83-.01,1.66.07,2.48.1,1.65.01,3.23.34,4.81.57.79.08,1.54.35,2.3.53.75.21,1.51.36,2.24.61.72.26,1.43.53,2.14.79.35.13.7.26,1.05.39.34.16.67.32,1,.48.66.32,1.32.64,1.97.95.66.3,1.24.73,1.85,1.08.6.37,1.21.72,1.78,1.1.55.41,1.1.82,1.64,1.23,4.29,3.28,7.44,7.13,9.6,10.81,2.15,3.7,3.5,7.18,4.14,10.12.16.73.4,1.41.47,2.08.1.66.19,1.28.27,1.85.08.57.17,1.1.22,1.59.02.49.04.93.06,1.33.03.78.05,1.38.07,1.8.01.41,0,.61,0,.61Z"/>
      </g>
      <g id="Layer_14" data-name="Layer 14">
        <path class="cls-5" d="m256.3,119.25s4.43,16.58,4.81,28.3l.13,3.91s-9.78,8.12-17.99,8.62l-6.88-16.91,19.92-23.92Z"/>
        <g>
          <g>
            <path class="cls-5" d="m212.85,129.42c1.87-8.08,2.59-17.49,9.31-22.77,4.99-3.91,10.67-5,17.01-4.74,3.12.13,6.64,1.57,9.36,3.11,3.72,2.11,5.3,6.38,7.1,10.27,3.6,7.78,3.14,18.32.71,21.25l-32.52,17.17c-6.49-3.38-10.56-4.73-11.6-13.38-.44-3.64-.19-7.34.64-10.91Z"/>
            <g>
              <path class="cls-14" d="m223.09,164.36l-3.56-47.19c-.12-2.02,1.33-3.8,3.33-4.09l20.47-6.04c6.59-.96,11.31,7.02,12,13.64.76,7.36,1.39,16.38.73,21.92-1.32,11.14-9.76,12.89-9.76,12.89,0-.04-.02.17.05,3.46l.22,5.33"/>
              <path class="cls-5" d="m251.54,130.79c.06.75-.53,1.41-1.31,1.49-.78.07-1.46-.47-1.51-1.22-.06-.75.53-1.41,1.31-1.49.78-.07,1.46.47,1.52,1.22Z"/>
              <path class="cls-5" d="m253.61,127.36c-.17.19-1.28-.56-2.8-.5-1.53.04-2.62.87-2.79.69-.08-.08.08-.42.56-.8.47-.37,1.27-.75,2.23-.78.95-.03,1.77.29,2.24.63.48.34.66.67.57.76Z"/>
              <path class="cls-5" d="m237.29,130.65c.06.75-.53,1.41-1.31,1.49-.78.07-1.46-.47-1.51-1.22-.06-.75.53-1.41,1.31-1.49.78-.07,1.46.47,1.52,1.22Z"/>
              <path class="cls-5" d="m238.58,127.54c-.17.19-1.28-.56-2.81-.5-1.53.04-2.62.87-2.79.69-.08-.08.08-.42.56-.8.47-.37,1.27-.75,2.23-.78.95-.03,1.77.29,2.24.63.48.34.66.67.57.76Z"/>
              <path class="cls-5" d="m244.53,137.45c-.01-.09.93-.29,2.46-.55.39-.06.76-.15.81-.42.08-.29-.1-.7-.31-1.15-.4-.93-.83-1.9-1.27-2.93-1.77-4.17-3.07-7.6-2.9-7.67.17-.07,1.74,3.25,3.51,7.42.43,1.03.83,2.01,1.22,2.95.17.44.44.93.26,1.52-.09.3-.37.52-.62.6-.25.09-.47.1-.66.12-1.55.14-2.51.19-2.52.1Z"/>
              <path class="cls-4" d="m246.3,155.49s-7.43.77-14.99-3.37c0,0,3.97,7.61,15.01,6.13l-.03-2.76Z"/>
              <path class="cls-16" d="m239.59,140.5c.41-.73,1.19-1.13,2-1.19,1.17-.08,2.16.28,2.97,1.33.27.3.28,1.18.19,1.43-.1.25-.02.12-.2.3-.66.63-1.36,1.26-2.23,1.51-.87.24-1.96,0-2.57-.83-.54-.74-.56-1.81-.15-2.54Z"/>
              <path class="cls-5" d="m239.8,138.75c.25-.03.33,1.63,1.8,2.75,1.47,1.12,3.23.85,3.25,1.08.03.1-.38.34-1.12.39-.73.06-1.81-.13-2.71-.81-.9-.68-1.31-1.63-1.4-2.31-.09-.69.07-1.11.19-1.11Z"/>
              <path class="cls-5" d="m239.15,121.95c-.11.43-1.65.38-3.41.77-1.77.35-3.16,1.02-3.44.67-.12-.17.09-.58.63-1.04.54-.46,1.42-.93,2.48-1.15,1.06-.22,2.06-.15,2.74.05.68.2,1.04.49,1,.7Z"/>
              <path class="cls-5" d="m253.48,123.25c-.35.3-1.46-.22-2.86-.44-1.39-.26-2.62-.14-2.84-.54-.09-.19.14-.51.71-.76.56-.25,1.45-.39,2.41-.23.96.17,1.75.6,2.18,1.02.44.42.56.8.4.95Z"/>
            </g>
          </g>
          <path class="cls-5" d="m243.04,105.84c.02.08.03.16.05.24l-.04.02c0-.09,0-.17-.01-.26Z"/>
        </g>
        <path class="cls-5" d="m228.73,159.97c-.31-2.9.86-5.82.52-8.72-.36-3.08-2.35-5.71-3.17-8.7-1.31-4.78.49-9.87,1.15-14.81,2.77-.34,5.36-2.01,7.2-4.16,2.22-2.59,3.56-5.8,4.87-8.95-.08,3.09-1.15,6.15-3.01,8.61,1.23.26,2.53-.27,3.45-1.12s1.53-1.99,2.03-3.15c1.2-2.8,1.86-5.82,1.96-8.86.41,4.35-.07,8.79-1.45,12.94.78-.24,1.61-.02,2.41.09.8.12,1.72.09,2.29-.49.38-.39.52-.95.63-1.48.76-3.7.89-7.53.37-11.27.99,2.02,1.97,4.07,2.54,6.25.57,2.18.72,4.52.05,6.67.32.4,1,.34,1.38,0,.38-.35.52-.88.6-1.39.29-1.86-.04-3.76-.36-5.61,1.11,1.96,1.48,4.24,2.09,6.41.61,2.17,1.59,4.39,3.47,5.63.33-3.25.21-5.46-.28-8.5-.37-2.32-1.47-4.63-2.49-6.75-1.14-2.38-2.72-4.7-4.49-6.25-3.26-2.86-4.63-1.63-6.71-.54l-.25.1c0-.05,0-.1-.02-.15l-.09-.44c-5.42-1.22-11.18-.95-16.46.77-3.93,1.28-8.76,5.32-10.76,8.94-.04.07-.08.14-.11.21-4.63,8.36-7.69,18.05-7.91,39h0l20.58,5.74Z"/>
      </g>
      <path class="cls-18" d="m217.93,164.38l8.4-1.46,19.96-.72,9.03.45s-17.33,12.05-37.39,1.73Z"/>
    </g>
    <g id="Layer_5" data-name="Layer 5">
      <g id="Layer_15" data-name="Layer 15">
        <g id="Layer_8" data-name="Layer 8">
          <polygon class="cls-18" points="249.66 251.26 251.35 254.74 255.12 255.24 252.44 257.92 253.04 261.71 249.66 259.91 246.27 261.71 246.97 257.92 244.18 255.24 247.96 254.74 249.66 251.26"/>
          <polygon class="cls-18" points="263.57 251.26 265.27 254.74 269.05 255.24 266.37 257.92 266.96 261.71 263.57 259.91 260.19 261.71 260.89 257.92 258.11 255.24 261.88 254.74 263.57 251.26"/>
          <polygon class="cls-18" points="277.6 251.26 279.19 254.74 283.07 255.24 280.28 257.92 280.88 261.71 277.6 259.91 274.22 261.71 274.82 257.92 272.14 255.24 275.91 254.74 277.6 251.26"/>
          <polygon class="cls-18" points="291.52 251.26 293.21 254.74 296.99 255.24 294.2 257.92 294.9 261.71 291.52 259.91 288.14 261.71 288.74 257.92 286.05 255.24 289.83 254.74 291.52 251.26"/>
          <polygon class="cls-10" points="305.45 251.26 307.14 254.74 310.91 255.24 308.23 257.92 308.83 261.71 305.45 259.91 302.07 261.71 302.76 257.92 299.97 255.24 303.76 254.74 305.45 251.26"/>
          <g id="Layer_7" data-name="Layer 7">
            <polygon class="cls-18" points="250.55 231.59 252.24 235.07 256.02 235.57 253.34 238.26 253.93 242.04 250.55 240.24 247.17 242.04 247.87 238.26 245.08 235.57 248.86 235.07 250.55 231.59"/>
            <polygon class="cls-18" points="264.47 231.59 266.16 235.07 269.95 235.57 267.26 238.26 267.85 242.04 264.47 240.24 261.09 242.04 261.79 238.26 259.01 235.57 262.78 235.07 264.47 231.59"/>
            <polygon class="cls-18" points="278.5 231.59 280.09 235.07 283.96 235.57 281.18 238.26 281.78 242.04 278.5 240.24 275.12 242.04 275.72 238.26 273.03 235.57 276.81 235.07 278.5 231.59"/>
            <polygon class="cls-18" points="292.42 231.59 294.11 235.07 297.89 235.57 295.1 238.26 295.8 242.04 292.42 240.24 289.04 242.04 289.64 238.26 286.95 235.57 290.73 235.07 292.42 231.59"/>
            <polygon class="cls-10" points="306.35 231.59 308.04 235.07 311.81 235.57 309.13 238.26 309.73 242.04 306.35 240.24 302.96 242.04 303.66 238.26 300.87 235.57 304.65 235.07 306.35 231.59"/>
          </g>
          <g id="Layer_1-2" data-name="Layer 1">
            <g id="Layer_3-2" data-name="Layer 3">
              <g id="Device">
                <polygon class="cls-18" points="249.66 213.07 251.35 216.55 255.12 217.05 252.44 219.74 253.04 223.52 249.66 221.72 246.27 223.52 246.97 219.74 244.18 217.05 247.96 216.55 249.66 213.07"/>
                <polygon class="cls-18" points="263.57 213.07 265.27 216.55 269.05 217.05 266.37 219.74 266.96 223.52 263.57 221.72 260.19 223.52 260.89 219.74 258.11 217.05 261.88 216.55 263.57 213.07"/>
                <polygon class="cls-18" points="277.6 213.07 279.19 216.55 283.07 217.05 280.28 219.74 280.88 223.52 277.6 221.72 274.22 223.52 274.82 219.74 272.14 217.05 275.91 216.55 277.6 213.07"/>
                <polygon class="cls-18" points="291.52 213.07 293.21 216.55 296.99 217.05 294.2 219.74 294.9 223.52 291.52 221.72 288.14 223.52 288.74 219.74 286.05 217.05 289.83 216.55 291.52 213.07"/>
                <polygon class="cls-18" points="305.45 213.07 307.14 216.55 310.91 217.05 308.23 219.74 308.83 223.52 305.45 221.72 302.07 223.52 302.76 219.74 299.97 217.05 303.76 216.55 305.45 213.07"/>
              </g>
            </g>
          </g>
        </g>
      </g>
    </g>
    <g id="Layer_6" data-name="Layer 6">
      <path class="cls-13" d="m198.83,405.95c1.15-.48,1.97-1.67,1.98-3.07,0-1.84-1.38-3.33-3.1-3.34-1.72,0-3.12,1.47-3.13,3.31,0,1.41.82,2.62,1.99,3.1-4.79.72-4.58,5.93-4.58,5.93l11.34.05s.26-5.27-4.49-5.99Z"/>
      <g>
        <polygon class="cls-13" points="229.53 404.06 237.82 400.42 245.35 404.06 237.65 408.01 229.53 404.06"/>
        <polygon class="cls-13" points="231.26 406.04 231.15 411 243.43 411 243.43 406.21 237.5 409.12 231.26 406.04"/>
      </g>
      <path class="cls-13" d="m282.64,410.72l-1.18-2.08c.52-.85.82-1.84.82-2.91,0-3.07-2.49-5.56-5.56-5.56s-5.56,2.49-5.56,5.56,2.49,5.56,5.56,5.56c1.28,0,2.46-.43,3.4-1.16h0s2.51.59,2.51.59Z"/>
    </g>
    <g id="Layer_20" data-name="Layer 20">
      <g id="Layer_10" data-name="Layer 10">
        <path class="cls-6" d="m448.99,193.56s8.38-33.77,8.76-41.07c.49-9.22-10.82-16.39-17.13-19.28-6.32-2.89-18.24-3.07-18.24-3.07,0,0-11.06,58.8-10.76,59.3.3.51,5.77,16.02,5.77,16.02,0,0,24.51,3.98,27.65.46,3.14-3.52,3.96-12.37,3.96-12.37Z"/>
      </g>
      <g id="Layer_11" data-name="Layer 11">
        <path class="cls-5" d="m427.08,205.3s.08-.22.19-.65c.11-.48.26-1.1.45-1.88.38-1.7.92-4.05,1.57-6.92,1.31-5.85,3.12-13.93,5.2-22.83,2.08-8.91,4.06-16.95,5.55-22.75.74-2.86,1.34-5.19,1.78-6.87.2-.77.35-1.39.47-1.87.1-.43.15-.66.13-.66-.02,0-.1.21-.23.63-.15.47-.33,1.09-.57,1.85-.48,1.61-1.15,3.94-1.94,6.83-1.58,5.78-3.62,13.81-5.7,22.72-2.08,8.91-3.83,17-5.05,22.87-.58,2.89-1.06,5.25-1.41,6.96-.14.78-.26,1.41-.35,1.9-.07.44-.11.67-.09.67Z"/>
        <path class="cls-5" d="m434.85,184.22s.33.13.95.3c.71.18,1.61.41,2.68.69,2.3.57,5.55,1.34,9.33,2.22l-.18-.3c-.47,1.75-1.06,3.64-1.77,5.57-.91,2.48-1.94,4.79-2.98,6.82-.53.99-1.18,1.87-2.05,2.3-.86.45-1.82.46-2.66.39-1.7-.19-3.07-.56-4.01-.8-.94-.25-1.45-.4-1.47-.36-.01.03.48.25,1.41.56.93.29,2.28.72,4.03.97.87.1,1.91.12,2.9-.37.99-.49,1.71-1.45,2.27-2.46,1.09-2.05,2.12-4.37,3.05-6.87.72-1.94,1.3-3.85,1.76-5.62l.06-.25-.25-.06c-3.79-.85-7.05-1.56-9.37-2.04-1.09-.22-2-.4-2.72-.55-.63-.12-.98-.17-.99-.14Z"/>
        <g class="cls-21">
          <path class="cls-3" d="m437.5,173.99c-1.73,4.03.14,8.7,4.17,10.43,4.03,1.73,8.7-.14,10.43-4.17,1.73-4.03-.14-8.7-4.17-10.43-4.03-1.73-8.7.14-10.43,4.17Z"/>
        </g>
        <g>
          <g>
            <circle class="cls-13" cx="444.27" cy="175.05" r="7.7" transform="translate(46.79 439.68) rotate(-55.16)"/>
            <path class="cls-5" d="m437.19,172.02s.27-.63,1.01-1.6c.73-.95,2.11-2.2,4.22-2.72,1.04-.25,2.26-.32,3.49-.03,1.22.3,2.49.89,3.52,1.88,1.03.96,1.85,2.3,2.18,3.8.37,1.5.22,3.17-.41,4.68-.66,1.5-1.76,2.75-3.11,3.52-1.32.8-2.85,1.13-4.26,1.04-1.42-.06-2.73-.57-3.78-1.25-1.06-.69-1.84-1.62-2.38-2.55-1.08-1.89-1.12-3.76-.94-4.94.19-1.2.5-1.82.46-1.83,0,0-.35.6-.58,1.81-.22,1.19-.22,3.1.87,5.07.54.96,1.34,1.93,2.43,2.66,1.09.72,2.43,1.26,3.91,1.32,1.47.1,3.05-.24,4.43-1.07,1.4-.8,2.55-2.1,3.24-3.66.66-1.57.81-3.31.42-4.87-.35-1.57-1.2-2.95-2.28-3.94-1.07-1.02-2.39-1.63-3.66-1.92-1.28-.29-2.53-.2-3.6.07-2.17.57-3.56,1.88-4.27,2.86-.72,1-.91,1.67-.91,1.67Z"/>
          </g>
          <g>
            <path class="cls-13" d="m438.4,172.52c-1.39,3.24.11,7,3.36,8.39,3.24,1.39,7-.11,8.39-3.36,1.39-3.24-.11-7-3.36-8.39-3.24-1.39-7,.11-8.39,3.36Z"/>
            <g>
              <path class="cls-5" d="m438.07,173.47c.06.01.18-.21.28-.5.09-.29.14-.55.1-.57-.06-.03-.19.19-.29.5-.1.3-.14.56-.08.57Z"/>
              <path class="cls-5" d="m437.89,175.46c.06,0,.11-.23.11-.5,0-.27-.04-.49-.1-.5-.06,0-.11.22-.11.5,0,.28.04.51.1.5Z"/>
              <path class="cls-5" d="m438.33,177.4c.05-.02.03-.25-.05-.51-.08-.26-.19-.46-.25-.45-.06.01-.03.24.05.51.08.27.19.47.25.45Z"/>
              <path class="cls-5" d="m439.34,179.12s-.05-.25-.2-.47c-.16-.22-.32-.38-.37-.35-.05.03.04.24.2.47.16.23.33.39.37.35Z"/>
              <path class="cls-5" d="m440.84,180.43s-.12-.22-.34-.38c-.22-.16-.42-.26-.46-.22-.04.04.11.21.34.38.23.17.43.27.46.22Z"/>
              <path class="cls-5" d="m442.67,181.23c.01-.06-.18-.17-.44-.26-.26-.09-.48-.11-.51-.07-.03.06.17.17.44.26.27.09.49.12.51.06Z"/>
              <path class="cls-5" d="m444.65,181.42c0-.06-.23-.11-.5-.11-.27,0-.5.04-.5.09,0,.06.22.11.5.11.28,0,.51-.04.5-.09Z"/>
              <path class="cls-5" d="m446.6,181c-.02-.05-.25-.03-.51.05-.26.08-.46.19-.45.24.01.06.24.04.51-.05.27-.08.47-.19.45-.24Z"/>
              <path class="cls-5" d="m448.32,179.99s-.25.04-.47.2c-.22.15-.38.32-.35.37.03.05.24-.04.47-.2.23-.16.39-.33.35-.37Z"/>
              <path class="cls-5" d="m449.65,178.5s-.22.12-.39.33c-.16.22-.26.42-.22.46.04.04.22-.11.39-.34.17-.22.27-.43.22-.46Z"/>
              <path class="cls-5" d="m450.45,176.68c-.06-.01-.17.18-.26.44-.09.26-.12.48-.07.51.06.03.18-.17.27-.44.09-.27.12-.49.07-.51Z"/>
              <path class="cls-5" d="m450.65,174.7c-.06,0-.11.23-.12.5,0,.27.03.5.09.5.06,0,.11-.22.12-.5,0-.28-.03-.51-.09-.5Z"/>
              <path class="cls-5" d="m450.24,172.75c-.05.02-.03.25.04.51.08.26.19.46.24.45.06-.01.04-.24-.04-.51-.08-.27-.19-.47-.24-.45Z"/>
              <path class="cls-5" d="m449.24,171.02s.04.25.2.47c.15.22.32.38.37.35.05-.03-.04-.24-.2-.47-.16-.23-.32-.39-.37-.35Z"/>
              <path class="cls-5" d="m447.76,169.69s.12.22.33.39c.21.17.42.26.46.22.04-.04-.11-.22-.33-.39-.22-.17-.43-.27-.46-.22Z"/>
              <path class="cls-5" d="m445.94,168.87c-.01.06.18.17.44.26.26.09.48.12.5.07.03-.06-.17-.18-.43-.27-.27-.09-.49-.12-.51-.07Z"/>
              <path class="cls-5" d="m443.96,168.66c0,.06.23.11.5.12.27,0,.5-.03.5-.09,0-.06-.22-.11-.5-.12-.28,0-.51.03-.5.09Z"/>
              <path class="cls-5" d="m442.01,169.06c.02.05.25.04.51-.04.26-.08.46-.18.45-.24-.01-.06-.24-.04-.51.04-.27.08-.47.19-.45.24Z"/>
              <path class="cls-5" d="m440.28,170.05s.25-.04.47-.19c.22-.15.38-.32.36-.37-.03-.05-.24.04-.47.19-.23.16-.39.32-.36.37Z"/>
              <path class="cls-5" d="m438.93,171.52s.22-.12.39-.33c.17-.21.27-.42.22-.46-.04-.04-.22.11-.39.33-.17.22-.27.43-.22.46Z"/>
            </g>
          </g>
          <g>
            <polygon class="cls-6" points="446.56 169.94 446.67 175.26 445.95 174.96 446.32 176.97 445.34 176.12 446.12 178.69 440.36 176.22 442.8 175.06 441.84 174.64 443.32 173.94 442.49 173.59 446.56 169.94"/>
            <rect class="cls-6" x="442.66" y="176.19" width=".8" height="3.38" transform="translate(780.18 515.93) rotate(-156.79)"/>
          </g>
        </g>
      </g>
    </g>
    <g id="Layer_2" data-name="Layer 2">
      <path class="cls-7" d="m382.44,72.09s-4.38,18.78-4.38,32v4.39s11.28,8.76,20.52,9l7.1-19.23-23.24-26.16Z"/>
      <path class="cls-16" d="m350.28,149.46l16.4,11.75-.41,4.39-4.74,9.09s-2.1,1.85-7.83-4.41-12.81-18.53-12.81-18.53l9.39-2.29Z"/>
      <path class="cls-7" d="m318.87,121.91c.23-.5.71-.84,1.26-.89l9.26-.92c.81-.06,1.62.22,2.21.78l25.5,24.15-1.24,1.14-10,2.07-27.2-25.91.21-.42Z"/>
      <path class="cls-13" d="m326.11,124.09c-.3.2-.71.12-.91-.18-.11-.16-.14-.36-.09-.55.3-.2.71-.12.91.18.11.16.14.36.09.55Z"/>
      <path class="cls-8" d="m318.67,122.33c.61.02,1.22,0,1.82-.08l4.92-.4,3.4-.31c.57-.08,1.15.1,1.59.48l1.45,1.39,6.52,6.19c4.63,4.38,8.85,8.33,11.92,11.16l3.65,3.33c.43.43.9.82,1.4,1.17-.38-.47-.8-.91-1.25-1.32l-3.53-3.47c-3-2.9-7.18-6.89-11.81-11.27l-6.55-6.11-1.48-1.38c-.53-.47-1.24-.69-1.94-.58l-3.4.38-4.92.58c-.6.03-1.2.11-1.79.24Z"/>
      <path class="cls-16" d="m331.07,130.17s.77-.34,1.73,1.74,3.88,8,3.88,8l3.65-3.23,5.4-.58s1.4.78.7,1.56c-1.2.87-2.5,1.59-3.87,2.16l-1.6,4.1,6.2-5.06s2.48,0,2.14,1.64-4,7.19-4,7.19l3.45-1.11,3.57-3.54s1.29-.25,1.08,1-3.61,6.19-3.61,6.19l-4.66,3.82s-2.92.46-3.4-.32c-.35-.63-.63-1.3-.84-2,0,0-1.63,0-2.09-.72-.32-.58-.51-1.22-.56-1.88,0,0-2.29,1-2.91-.27-.6-1.6-.94-3.29-1-5,0-1.09-3.55-10.33-3.53-10.64s-1.38-3.32.27-3.05Z"/>
      <path class="cls-16" d="m341.55,153.77c.47.16.98.2,1.47.1,1.2-.11,2.36-.45,3.43-1,1.08-.54,2.04-1.28,2.83-2.19.6-.69.85-1.21.8-1.25-2.23,2.43-5.26,3.96-8.53,4.33h0Z"/>
      <path class="cls-16" d="m342.34,151.58c.11.1.93-.61,1.73-1.67s1.26-2,1.13-2.11-.79.74-1.58,1.78-1.4,1.9-1.28,2Z"/>
      <path class="cls-16" d="m338.48,147.7c.11.11.92-.59,1.65-1.68s1.06-2.11.92-2.17-.68.81-1.39,1.86-1.3,1.89-1.18,1.99Z"/>
      <path class="cls-16" d="m334.69,144.74c.4-.76.74-1.54,1-2.36.43-.75.79-1.54,1.08-2.35-.11-.09-1,.76-1.58,2.12-.45.79-.62,1.7-.5,2.59Z"/>
      <path class="cls-18" d="m389.44,120.58s-8.56-1.38-13.54,2.6c-4.49,3.52-7.33,8.74-7.83,14.43-.63,5.47-4.58,26.62-4.58,26.62l-7.74-10.45-8.52,7.48s7.2,34.5,13.95,36.83,14.1-5.26,15.84-6.63,12.42-70.88,12.42-70.88Z"/>
      <path class="cls-18" d="m389.44,120.58s-14.13,15.81-15.43,19.9-10.77,11.49-10.59,21.19c.08,4.42.47,8.83,1.18,13.2.41,2.48.37,5.02-.14,7.49l-4.39,21.14c2.21,3.23,5.77,5.28,9.67,5.58,6.88.74,24.41,4.88,36.07,0l8.36-4.09v-32.72l5.76-13.39,14-27.23s-20.92-9.56-44.49-11.07Z"/>
      <path class="cls-7" d="m360.94,199.28c0-.25.04-.5.1-.74.09-.53.22-1.23.38-2.1.37-1.88.89-4.5,1.52-7.71.28-1.64.81-3.38,1.07-5.3.08-.48.15-1,.23-1.46s.09-1,.13-1.52c.09-1.05.11-2.11.08-3.17-.11-2.27-.49-4.53-1.14-6.71-.81-2.36-1.23-4.83-1.25-7.32.18-2.49.8-4.93,1.84-7.2.93-2.11,2.01-4.15,3.23-6.1,2.33-3.74,4.67-6.92,6.61-9.61l4.59-6.37,1.25-1.73c.14-.21.29-.4.46-.59-.1.23-.23.45-.38.65l-1.17,1.79c-1,1.54-2.55,3.75-4.46,6.46s-4.2,5.92-6.49,9.65c-1.2,1.92-2.26,3.93-3.17,6-1.01,2.21-1.62,4.58-1.79,7-.15,2.5.62,4.87,1.22,7.17.66,2.22,1.03,4.51,1.13,6.82.02,1.08-.01,2.16-.1,3.23l-.15,1.54-.24,1.47c-.29,1.94-.84,3.68-1.14,5.31l-1.68,7.67-.48,2.08c-.05.27-.12.53-.2.79Z"/>
      <g class="cls-22">
        <path class="cls-3" d="m366.18,174.59c2.5,7.61,7,13.57,12.18,19.71s12.3,10.5,19.28,11.71c-11.44-9.77-20.91-20.62-31.46-31.42"/>
      </g>
      <path class="cls-18" d="m371.36,420.9l1.36,20.78s-20.71,8.41-20.79,12.23l40.39-1.19-.79-32.47-20.17.65Z"/>
      <path class="cls-11" d="m385.16,439.56c.81.23,1.32,1.02,1.19,1.85-.18.82-.99,1.36-1.82,1.2-.88-.24-1.43-1.11-1.26-2,.31-.8,1.18-1.23,2-1"/>
      <path class="cls-7" d="m392.39,454.15l-.09-3.73-38.84,1.4s-1.77.83-1.53,2.09l40.46.24Z"/>
      <path class="cls-7" d="m372.06,441.5c0,.19,1,.25,2,.86s1.53,1.42,1.71,1.33-.15-1.21-1.36-1.92-2.4-.45-2.35-.27Z"/>
      <path class="cls-7" d="m367.87,443.37c0,.2.83.51,1.52,1.32s.92,1.69,1.11,1.68.29-1.14-.59-2.13-2.04-1.05-2.04-.87Z"/>
      <path class="cls-7" d="m365.62,448.52c.18,0,.42-1-.12-2s-1.47-1.46-1.55-1.3.51.73.94,1.61.53,1.67.73,1.69Z"/>
      <path class="cls-7" d="m372.27,436.72c.09.18,1-.12,2.1-.07s2,.36,2.1.19-.76-.85-2.08-.88-2.22.61-2.12.76Z"/>
      <path class="cls-18" d="m408.57,421.3l1.19,20.8s-20.74,8.18-20.9,12.05l40.41-.85-.52-32.48-20.18.48Z"/>
      <path class="cls-11" d="m422.21,440.09c.81.23,1.32,1.03,1.18,1.86-.2.82-1,1.34-1.83,1.19-.87-.25-1.4-1.11-1.24-2,.3-.81,1.17-1.24,2-1"/>
      <path class="cls-7" d="m429.31,454.15v-3.15l-38.9,1.09s-1.78.83-1.55,2.09l40.45-.03Z"/>
      <path class="cls-7" d="m409.1,441.9c0,.2,1,.27,2,.88s1.52,1.44,1.7,1.35-.14-1.21-1.34-1.93-2.45-.48-2.36-.3Z"/>
      <path class="cls-7" d="m404.9,443.75c0,.19.82.5,1.5,1.33s.9,1.69,1.1,1.68.3-1.13-.58-2.13-2.02-1.07-2.02-.88Z"/>
      <path class="cls-7" d="m402.6,448.87c.18,0,.43-1-.1-2s-1.46-1.48-1.54-1.31.5.73.92,1.62.52,1.67.72,1.69Z"/>
      <path class="cls-7" d="m409.35,437.09c.09.18,1-.11,2.11-.06s2,.39,2.09.22-.75-.86-2.07-.9-2.23.63-2.13.74Z"/>
      <path class="cls-7" d="m414.74,204.28s10.27,10.81,15.69,24.09,3,77.3,3,77.3l-1.13,33.55s1.63,28.85.38,49.41-2.64,43.34-2.64,43.34l-22.41,1.12-23.81-174.42,6,80.42c3.79,20.51,3.34,56.69,2.61,93.93h-23.77s-8.18-55.66-10.05-68.89c-2.11-14.94-8.32-56-8.32-56,0,0-4.79-39.32-3.13-60.51s14.29-50.81,14.7-52.06l50.75,9.14"/>
      <path class="cls-10" d="m417.33,198.64l5.95,15.84s44.24,61.72,43,66.86-25.39,25.07-32.46,21.86-25.4-16.4-31.51-29.58-23.46-50.14-23.46-50.14l-5.47-10.29,6.11-4.18,37.84-10.37Z"/>
      <path class="cls-10" d="m361.42,196.44h0c5.36,2.88,4.79,11.87,10.15,14.74-8.94,12.53-12,28.3-13.22,43.64s-.84,30.88-3.92,46l-11.1-.78c-1.87-29.66,1.33-59.42,9.47-88,1.62-5.8,4.57-11.14,8.62-15.6Z"/>
      <path class="cls-7" d="m404.7,222.41c.95-.11,1.89-.32,2.8-.64,2.21-.66,4.39-1.45,6.51-2.36,2.12-.91,4.19-1.95,6.19-3.11.86-.43,1.66-.97,2.39-1.59-.89.35-1.75.77-2.57,1.25-1.57.8-3.76,1.88-6.23,2.94s-4.75,1.91-6.41,2.5c-.92.26-1.82.6-2.68,1.01Z"/>
      <g class="cls-20">
        <path class="cls-3" d="m433.39,269.4l1.07.07c-7.66,7.62-19.22,9.75-29.08,5.34-3.24-1.52-6.46-4.33-6.31-7.91,11.01,3.88,22.86,4.75,34.32,2.5Z"/>
      </g>
      <path class="cls-10" d="m378.14,213.23c4.14-.76,12.08,1.41,15,4.45s4.65,7,6.08,10.94c3.11,8.57,5.31,18.05,12.05,24.19,6.33,5.77,15.34,7.32,23.81,8.63.23,3.13.19,6.85-2.38,8.65-.79.49-1.65.85-2.56,1.06-2.52.69-5.1,1.15-7.7,1.36-12.06,1-24.84-3.86-31.92-13.68-8.95-12.41-9.66-27.33-14.72-41.77"/>
      <path class="cls-7" d="m375.78,217.09c.03.15.07.3.12.45.1.32.23.76.41,1.32.37,1.16.88,2.88,1.47,5.11s1.28,5,2.05,8.15,1.65,6.82,2.87,10.78c1.29,4.33,3.07,8.5,5.31,12.42,1.24,2.2,2.71,4.26,4.38,6.15,1.79,2,3.83,3.76,6.06,5.25,4.83,3.16,10.33,5.17,16.06,5.87,3.02.38,6.07.41,9.1.09,1.54-.17,3.07-.42,4.59-.76.77-.17,1.53-.37,2.29-.58.79-.2,1.54-.51,2.24-.93.72-.48,1.32-1.12,1.73-1.88.39-.74.66-1.54.79-2.37.24-1.57.28-3.16.12-4.74v-.22h-.22c-5.67-.88-11.21-1.82-16.14-3.88-2.43-.99-4.69-2.34-6.72-4-1.91-1.6-3.57-3.48-4.92-5.58-2.39-3.95-4.28-8.18-5.64-12.59-1.2-3.83-2.62-7.6-4.23-11.28-.75-1.59-1.65-3.1-2.7-4.51-.48-.65-1.01-1.26-1.57-1.84-.55-.53-1.15-1-1.81-1.39-2.17-1.26-4.54-2.14-7-2.62-1.53-.34-3.09-.51-4.65-.48-.55.01-1.09.08-1.62.2,0,0,.55-.08,1.62-.09,1.55.02,3.1.2,4.61.56,2.41.52,4.72,1.42,6.85,2.67.63.39,1.21.85,1.74,1.37.55.57,1.06,1.18,1.53,1.81,1.02,1.4,1.9,2.9,2.63,4.47,1.58,3.68,2.96,7.44,4.15,11.27,1.35,4.45,3.25,8.73,5.64,12.72,1.37,2.14,3.06,4.06,5,5.7,2.06,1.69,4.36,3.06,6.83,4.06,5,2.11,10.6,3.06,16.27,3.94l-.23-.25c.15,1.54.11,3.08-.12,4.61-.18,1.56-1,2.97-2.28,3.88-1.37.69-2.84,1.17-4.35,1.43-4.43,1-9,1.23-13.51.67-5.65-.68-11.07-2.65-15.84-5.75-2.21-1.46-4.22-3.19-6-5.15-1.65-1.86-3.11-3.89-4.34-6.06-2.23-3.9-4.01-8.04-5.3-12.34-1.24-3.93-2.13-7.55-2.94-10.73s-1.5-5.92-2.14-8.14-1.17-3.94-1.58-5.08c-.19-.56-.35-1-.46-1.31-.04-.14-.09-.27-.15-.4Z"/>
      <path class="cls-7" d="m425.62,271.93c-1.46-3.95-1-8.36,1.23-11.93-.49.4-.89.89-1.16,1.46-.76,1.32-1.23,2.79-1.39,4.31-.16,1.51,0,3.04.47,4.49.15.62.44,1.19.85,1.67Z"/>
      <path class="cls-7" d="m425.31,264.23c1.55.38,3.14.59,4.73.6,1.58.18,3.18.18,4.76,0-1.55-.38-3.13-.58-4.72-.59-1.58-.19-3.18-.19-4.77-.01Z"/>
      <path class="cls-7" d="m424.42,267.68c1.62.31,3.27.43,4.92.38,1.64.13,3.29.07,4.92-.17-3.26-.44-6.56-.51-9.84-.21h0Z"/>
      <path class="cls-10" d="m368.01,215.92c-7.41,6.68-10.18,17.28-9.91,27.26s3.17,19.66,5.4,29.38,3.79,19.94,1.4,29.63l9.49,1.36c7.81-8.38,11.65-19.71,10.53-31.11-1-9.3-5.2-17.89-8.23-26.73s-4.82-18.83-1-27.37"/>
      <path class="cls-7" d="m375.65,218.34s-.07.14-.19.42l-.53,1.24c-.58,1.64-1.01,3.33-1.27,5.05-.37,2.73-.4,5.5-.08,8.24.42,3.63,1.2,7.22,2.32,10.7,1.22,3.88,2.87,8,4.53,12.49,1.86,4.73,3.2,9.64,4,14.65.75,5.58.29,11.26-1.36,16.64-1.76,5.82-4.84,11.15-9,15.59l.24-.09-4.66-.67-4.83-.69.22.34c1.34-5.98,1.58-12.15.71-18.22-.78-5.59-1.9-11.14-3.33-16.6-1.29-5.23-2.5-10.18-3.27-14.88-.77-4.34-1.08-8.75-.93-13.16.17-6.38,1.99-12.61,5.27-18.08.92-1.46,1.97-2.83,3.14-4.1l1-1c.21-.22.31-.34.31-.34-.13.08-.25.19-.35.3l-1,.92c-1.21,1.22-2.29,2.56-3.23,4-3.38,5.48-5.27,11.75-5.48,18.18-.18,4.43.11,8.88.87,13.25.75,4.72,1.95,9.7,3.22,14.93,1.44,5.48,2.55,11.03,3.34,16.64.85,5.99.61,12.09-.71,18l-.07.29.3.05,4.83.69,4.66.67h.15l.09-.11c8.17-8.76,12.01-20.71,10.45-32.59-.83-5.05-2.21-9.99-4.12-14.74-1.68-4.48-3.35-8.6-4.58-12.45-1.14-3.45-1.94-7-2.39-10.61-.33-2.72-.33-5.46,0-8.18.23-1.7.62-3.37,1.16-5,.21-.54.36-1,.48-1.26s.09-.51.09-.51Z"/>
      <path class="cls-7" d="m366.42,294.54c2.21-.12,4.43-.08,6.63.12,2.18.39,4.33.93,6.43,1.63-.52-.42-1.11-.74-1.74-.94-2.97-1.23-6.21-1.66-9.4-1.26-.66.04-1.31.19-1.92.45Z"/>
      <path class="cls-7" d="m371.94,303.3c.9-1.15,1.65-2.42,2.23-3.76.75-1.25,1.33-2.6,1.74-4-.89,1.16-1.64,2.42-2.23,3.76-.74,1.26-1.32,2.6-1.74,4Z"/>
      <path class="cls-7" d="m367.01,302.59c.82-1.25,1.5-2.59,2-4,.68-1.36,1.2-2.79,1.55-4.26-.84,1.25-1.53,2.59-2.05,4-.67,1.35-1.18,2.78-1.5,4.26Z"/>
      <path class="cls-7" d="m380.61,212.81c.07,0,.22-.2.3-.63.18-1.16-.32-2.33-1.28-3-.37-.24-.64-.28-.67-.22s.78.66,1.22,1.74c.21.69.36,1.39.43,2.11Z"/>
      <path class="cls-10" d="m368.26,210.5c1.29-2,4.32-2.7,6.69-3,3.03-.11,5.64,2.12,6,5.13.17,3.01-1.77,5.74-4.67,6.56-2.92.68-5.96-.51-7.63-3-1.2-1.67-1.35-3.87-.39-5.69Z"/>
      <path class="cls-7" d="m373.59,208.64c-.56.37-.99.89-1.26,1.5-1.62,2.97-.62,6.7,2.27,8.46.54.39,1.18.62,1.84.66,0-.09-.69-.3-1.63-1-2.56-1.79-3.46-5.17-2.13-8,.47-1.01.98-1.55.91-1.62Z"/>
      <path class="cls-7" d="m368.86,209.74s-.41.29-.76,1c-.88,1.9-.65,4.14.61,5.82.49.61.92.86,1,.81s-.26-.41-.64-1c-.47-.82-.77-1.73-.88-2.67-.1-.94.01-1.89.31-2.79.19-.72.43-1.12.36-1.17Z"/>
      <g class="cls-20">
        <path class="cls-3" d="m368.13,215.9c1.84,2.06,4.46,3.26,7.22,3.29-.76,1.41-2.15,2.37-3.73,2.58-2.11.14-3.94-1.46-4.08-3.57-.05-.81.15-1.62.59-2.3Z"/>
      </g>
      <g class="cls-20">
        <path class="cls-3" d="m401.93,225.21c1.1-1.12,2.48-1.92,4-2.31,5.5-2,11.43-5.39,16.94-7.37-5,4.45-10.46,9.7-16.22,13.14-1.39.83-3.2,1.62-4.52.68s-1.12-2.94-.2-4.14Z"/>
      </g>
      <g class="cls-20">
        <path class="cls-3" d="m356.36,235.09c.86-6.61,3.91-13.13,9.24-17.12-2.86,5.22-5.77,10.53-7,16.35-1.41,6.39-.38,10.47.26,17l-.62,3.21c-1.95-6.28-2.59-12.9-1.88-19.44Z"/>
      </g>
      <path class="cls-7" d="m404.9,229.78c.3-.1.59-.24.86-.42.53-.3,1.28-.76,2.19-1.36,2.38-1.57,4.65-3.29,6.8-5.15,2.15-1.87,4.18-3.87,6.08-6,.72-.81,1.29-1.49,1.66-2s.57-.76.54-.79c-.87.79-1.7,1.62-2.48,2.5-1.52,1.55-3.66,3.65-6.16,5.82s-4.9,4-6.66,5.24c-.99.66-1.93,1.38-2.83,2.16Z"/>
      <path class="cls-6" d="m363.03,160.67s-.78-11.74,5.69-21.57c6.47-9.83,14.83-19.38,27.57-18.49l-.59,2.52s-8.33-.04-23.21,19.62c-5.31,7.02-7.29,9.58-6.34,9.83l-3.12,8.09Z"/>
      <g>
        <path class="cls-6" d="m428.86,129s-5.17-3.24-8,4.09c-2.83,7.33-6.54,21.68-6.33,28.6.22,6.92,7.26,18.36,7.26,18.36l2.53-9.85s-3.15-10.64.16-23.07c3.31-12.43,4.37-14.99,6.63-15.4,2.26-.41,5.26,8.2,5.26,8.2l2.15,1.33s-.62-10.75-9.66-12.25Z"/>
        <path class="cls-5" d="m438.47,141.47c.06,0,.1-1.13-.3-2.9-.42-1.75-1.21-4.17-3.03-6.36-.48-.52-1.08-.96-1.76-1.16-.68-.2-1.39-.13-1.98.08-1.2.44-1.98,1.34-2.44,2.11-.47.79-.71,1.48-.88,1.96-.16.48-.22.75-.19.76.1.05.45-1.03,1.39-2.5.48-.71,1.22-1.49,2.28-1.84.52-.17,1.1-.22,1.66-.05.56.17,1.07.54,1.51,1.02.87.97,1.47,2.14,1.98,3.17.49,1.05.84,2.05,1.08,2.9.48,1.7.59,2.81.68,2.8Z"/>
        <path class="cls-5" d="m432.13,131.9c-.13.11,1.14,1.55,2.04,3.68.93,2.12,1.12,4.02,1.29,4.01.14.01.2-2-.78-4.23-.96-2.24-2.47-3.57-2.56-3.46Z"/>
        <path class="cls-5" d="m427.24,176.97c.15-.08-1.2-2.54-2.27-5.8-1.08-3.26-1.45-6.03-1.62-6.01-.14,0-.02,2.86,1.09,6.19,1.08,3.33,2.68,5.7,2.8,5.62Z"/>
      </g>
      <path class="cls-18" d="m429.01,129.63s22.33,6.59,14.57,32.1c-6.23,20.36-28.27,49.83-36.17,48.36-15.46-3-50.33-46.8-50.46-46l7.93-11s39.43,33.65,40.93,33,15.43-35.36,15.43-35.36c0,0,4.51-20.24,7.77-21.1Z"/>
      <path class="cls-14" d="m364.68,153.41l-6.82-10.89-11.85-10.55s-.61,2.09,0,3,1.81,3.18,1.81,3.18c0,0-10.11-7.69-11.62-7.69s-1,1.51-.9,2.26,8.45,7.69,8.45,7.69l-8.63.3-5.4,2.72s.3,2,2.11,1.81c1.44-.23,2.85-.65,4.18-1.25l7.43.9-8.22,3.36-3.47,5.16s1.21,2.08,2.72.73c.94-.87,1.8-1.82,2.57-2.85l6.15-1.32-5.71,3.71-1.2,4.53s2,2,2.71,0,1.21-2.87,1.21-2.87l3.31-.75c1.46,1.6,3.34,2.75,5.43,3.32,3.56,1,8.88,4.91,8.88,4.91l6.86-9.41Z"/>
      <path class="cls-16" d="m354.26,141.34c-1.31-.36-2.57-.9-3.73-1.61-1.23-.58-2.36-1.36-3.35-2.3,1.22.57,2.41,1.2,3.56,1.91,1.23.57,2.4,1.24,3.52,2Z"/>
      <path class="cls-16" d="m346.12,144.32s-.28,0-.59-.25c-.4-.34-.66-.82-.72-1.35-.06-.53.09-1.05.42-1.47.25-.31.48-.41.52-.36-.32.54-.49,1.15-.5,1.78.12,1.03.94,1.55.87,1.65Z"/>
      <path class="cls-7" d="m431.21,79.74c-1.83-7.78-3.71-15.88-10.16-20.6-5.74-4.21-12.16-5.23-19.27-4.7-3.49.26-7.39,2-10.39,3.83-4.1,2.5-5.72,7.36-7.59,11.79-3.76,8.87-2.86,20.68,0,23.88l37.12,18.15c6.35-3.58,10.63-5.29,12.11-12.42.98-4.92-.69-15.1-1.82-19.93Z"/>
      <path class="cls-14" d="m420.5,66.38l-23.2-6c-7.44-.83-12.45,8.3-13,15.76-.58,8.3-1,18.45,0,24.65,1.89,12.46,11.42,14.11,11.42,14.11,0,0,0,.19.08,3.89l-.07,8.32c3.06,10.1,13.3,8.89,26.09,3.64l2.56-59.86c.09-2.29-1.61-4.25-3.88-4.51Z"/>
      <path class="cls-7" d="m387.35,87.09c-.01.86.67,1.58,1.53,1.62.85.07,1.59-.56,1.66-1.41,0,0,0-.01,0-.02.03-.88-.65-1.61-1.53-1.65-.84-.08-1.58.54-1.65,1.37,0,.03,0,.06,0,.09Z"/>
      <path class="cls-7" d="m386.49,83.54c.2.21,1.42-.68,3.14-.66s3,.88,3.15.67-.1-.47-.65-.87c-.74-.52-1.62-.8-2.53-.8-.89,0-1.77.27-2.49.79-.53.42-.71.77-.62.87Z"/>
      <path class="cls-7" d="m402.49,86.67c0,.86.66,1.57,1.52,1.62.85.07,1.59-.56,1.66-1.41,0,0,0-.01,0-.02.01-.86-.67-1.58-1.53-1.62-.84-.07-1.57.55-1.65,1.38,0,.02,0,.03,0,.05Z"/>
      <path class="cls-7" d="m403.38,83.19c.2.21,1.42-.68,3.13-.66s3,.88,3.16.68-.1-.47-.65-.88c-.74-.52-1.63-.8-2.53-.8-.89,0-1.77.27-2.49.79-.53.4-.71.77-.62.87Z"/>
      <path class="cls-7" d="m397.06,94.54c-.9-.29-1.84-.47-2.79-.53-.44,0-.85-.14-.92-.44-.03-.45.07-.9.3-1.29l1.36-3.34c1.83-4.74,3.16-8.64,3-8.71s-1.83,3.71-3.67,8.45l-1.33,3.41c-.28.53-.37,1.14-.24,1.72.12.32.39.55.72.64.24.07.49.11.74.11.94.11,1.89.1,2.83-.02Z"/>
      <path class="cls-16" d="m395.73,114.86c5.86.13,11.65-1.37,16.71-4.33,0,0-4.18,8.68-16.64,7.43l-.07-3.1Z"/>
      <path class="cls-16" d="m402.71,97.78c-.5-.78-1.36-1.25-2.28-1.26-1.3-.11-2.56.49-3.29,1.57-.25.5-.3,1.07-.15,1.61.12.28,0,.14.24.33.7.74,1.58,1.29,2.55,1.61,1.07.28,2.2-.12,2.86-1,.55-.87.58-1.97.07-2.86Z"/>
      <path class="cls-7" d="m402.42,95.82c-.28,0-.31,1.85-1.92,3.15s-3.6,1.08-3.61,1.34c0,.11.43.36,1.27.4,1.09.03,2.15-.32,3-1,.82-.65,1.36-1.59,1.51-2.62.08-.81-.12-1.28-.25-1.27Z"/>
      <path class="cls-7" d="m402.53,76.93c.14.48,1.86.37,3.86.74s3.59,1,3.88.62c.13-.19-.12-.64-.75-1.14-1.71-1.22-3.88-1.59-5.9-1-.76.21-1.15.56-1.09.78Z"/>
      <path class="cls-7" d="m386.49,78.91c.4.33,1.63-.3,3.19-.6s2.94-.25,3.17-.71c.1-.22-.18-.57-.82-.83-1.78-.6-3.74-.19-5.13,1.06-.48.5-.59.92-.41,1.08Z"/>
      <path class="cls-7" d="m397.58,58.99c-.02.09-.04.19-.05.28h0l.05-.28Z"/>
      <path class="cls-7" d="m415.62,119.24c.24-3.27-1.17-6.51-.9-9.78.29-3.46,2.43-6.49,3.24-9.88,1.3-5.42-.91-11.06-1.83-16.59-3.19-.41-6.12-1.98-8.24-4.4-2.58-2.83-4.21-6.38-5.79-9.87.21,3.49,1.5,6.83,3.69,9.55-1.41.26-2.86-.16-3.91-1.13-1.03-.97-1.85-2.15-2.39-3.46-1.43-3.11-2.27-6.46-2.48-9.88-.3,4.92.41,9.85,2.1,14.48-.9-.14-1.82-.07-2.7.19-.89.25-1.85.08-2.59-.47-.4-.46-.67-1.03-.76-1.63-.99-4.14-1.27-8.42-.83-12.65-1.1,2.28-1.98,4.66-2.62,7.11-.64,2.47-.57,5.06.19,7.49-.43.42-1.11.42-1.54,0-.41-.42-.67-.96-.73-1.54-.28-2.1-.22-4.24.2-6.32-1.17,2.25-1.5,4.82-2.11,7.28s-1.62,5-3.69,6.45c-.47-3.17-.47-6.39,0-9.56.49-2.66,1.34-5.24,2.55-7.66,1.13-2.69,2.76-5.13,4.82-7.19,3.56-3.33,5.13-2,7.51-.85l.2.16v-.17l.09-.5c6.08-1.57,12.47-1.48,18.51.26,5.07,1.78,9.43,5.17,12.41,9.64l.13.23c5.51,9.21,9.76,22.48,6.51,44.13h0l-19.04,6.56Z"/>
      <path class="cls-7" d="m440.53,169.74l-.19.54c-.14.35-.32.89-.61,1.56-.9,1.96-1.9,3.88-3,5.74-4,6.82-8.43,13.39-13.27,19.65-1.54,2-3.16,4-5,6.1-.47.5-.93,1-1.42,1.52s-1,1-1.54,1.45c-1.02,1.04-2.12,2-3.3,2.86-1.31.84-2.86,1.23-4.41,1.1-1.56-.16-3.09-.54-4.54-1.13-.74-.29-1.48-.58-2.19-.94-.36-.17-.73-.32-1.09-.52l-1-.63-1.05-.64-1-.74c-.65-.51-1.32-1-2-1.52-5.24-4.53-10.25-9.33-15-14.37-5-5.19-10-10.68-15.14-16.37-2.76-3.1-5.48-6.17-8.11-9.22l-.13-.15.12-.17,7.93-10.92.16-.22.2.17,40.89,33-.28.07,9.63-21.56,2.64-5.85.7-1.52c.16-.34.25-.51.25-.51,0,0-.06.19-.2.53l-.65,1.54c-.59,1.37-1.45,3.35-2.56,5.89l-9.36,21.68-.09.22-.19-.15-41-32.95.37-.05-7.93,10.93v-.31c2.63,3.04,5.33,6.11,8.11,9.2,5.09,5.69,10.13,11.18,15.12,16.37,4.74,5.03,9.73,9.82,14.95,14.35.62.53,1.29,1,1.93,1.51l1,.73,1,.63,1,.62c.35.19.72.34,1.07.52.71.35,1.44.64,2.16.93,1.41.58,2.9.95,4.41,1.1,1.45.13,2.91-.22,4.14-1,1.16-.84,2.25-1.78,3.26-2.8.54-.48,1-1,1.53-1.44s.95-1,1.41-1.5c1.81-2,3.44-4.09,5-6.05,4.85-6.23,9.32-12.76,13.38-19.53,1.43-2.41,2.4-4.35,3-5.68.31-.67.51-1.2.66-1.54s.23-.53.23-.53Z"/>
    </g>
    <g id="Layer_3-2" data-name="Layer 3-2">
      <g id="Plant">
        <path class="cls-18" d="m105.33,380.63c1-3.47,3.18-6.84,6.46-8.29s7.42-.67,11,.68,7,3,10.79,3.27,8-1.54,9.15-5.1c1.06-3.38-1-6.94-3.56-9.45-8.84-8.51-22.9-8.25-31.42.58-2.21,2.32-3.92,5.07-5,8.09"/>
        <g class="cls-23">
          <path class="cls-3" d="m105.33,380.63c1-3.47,3.18-6.84,6.46-8.29s7.42-.67,11,.68,7,3,10.79,3.27,8-1.54,9.15-5.1c1.06-3.38-1-6.94-3.56-9.45-8.84-8.51-22.9-8.25-31.42.58-2.21,2.32-3.92,5.07-5,8.09"/>
        </g>
        <path class="cls-18" d="m75.56,395.66c-5.49-5.2-5.2-14.36-2.5-21.39s8.76-12.53,15.41-16.09c13.24-6.93,28.93-7.43,42.59-1.35-6.72.28-12.87,3.89-16.38,9.63-3,5-3.66,11.08-6.17,16.38-5.82,12.37-20.31,18-32.95,12.82"/>
        <path class="cls-18" d="m73.01,364.25c-6.12-7.23-7-18.79-6-28.16s3.09-18.79,1.55-28.13c-.87-5.5-3-10.8-3.76-16.29s.29-11.85,4.62-15.42c4.89-4.16,12.69-3.16,17.8.84s8.09,9.92,10.31,16c4.82,13.3,6.55,27.94,2.6,41.53s-13.12,25.58-26.59,29.72"/>
        <path class="cls-5" d="m70.01,423.31v-3.22c.1-2,.29-5,.77-8.67.58-4.34,1.35-8.58,2.32-12.82,1.23-5.16,3.17-10.12,5.78-14.74,4.75-8.49,11.45-15.72,19.56-21.1,1.54-1.06,3-1.83,4.24-2.61s2.41-1.25,3.37-1.73l2.22-1c.28-.1.48-.2.77-.29-.23.18-.49.31-.77.38l-2.12,1c-1,.48-2,1.06-3.28,1.73-1.46.79-2.87,1.66-4.24,2.6-7.94,5.44-14.54,12.62-19.27,21-5.59,9.83-7.13,20.14-8.29,27.36-.48,3.66-.77,6.65-.87,8.68-.09,1-.09,1.83-.09,2.4.02.35,0,.69-.1,1.03Z"/>
        <path class="cls-18" d="m17.36,335.82c-11.27,6.84-11.27,13-9.35,18.79s8.77,9.93,14.55,7.71c3.28-1.25,5.59-4.05,7.62-6.84s3.85-5.88,6.74-7.9,6.94-2.8,9.73-.77"/>
        <g class="cls-23">
          <path class="cls-3" d="m17.36,335.82c-11.27,6.84-11.27,13-9.35,18.79s8.77,9.93,14.55,7.71c3.28-1.25,5.59-4.05,7.62-6.84s3.85-5.88,6.74-7.9,6.94-2.8,9.73-.77"/>
        </g>
        <path class="cls-18" d="m9.01,343.34c3-4.05,10.21-5.3,14.84-3.18s8,6.07,11,10.12,6,8.28,10.12,11.08,10,3.85,14.16,1c2.68-1.98,4.42-4.98,4.82-8.29.4-3.29.18-6.62-.67-9.82-1-4.73-2.6-9.64-6.36-12.63-4.24-3.37-10.12-3.47-15.42-3.37-6.17.19-12.43.67-18.21,2.79s-11.81,6.61-14.28,12.3"/>
        <path class="cls-5" d="m60.63,414.26v-1.06c0-.68-.1-1.64-.1-2.8-.1-2.5-.19-6-.29-10.31s-.29-9.54-.58-15.22-.77-12-1.64-18.6c-.36-3.19-.98-6.35-1.83-9.44-.87-2.88-2.03-5.65-3.47-8.29-1.24-2.41-2.68-4.69-4.33-6.84-1.42-1.87-3-3.6-4.72-5.2-2.54-2.32-5.4-4.26-8.48-5.78-.58-.29-1.06-.49-1.45-.68l-1.06-.38-.67-.29-.2-.1.29.1.68.19,1.15.38c.5.19.99.41,1.45.68,3.16,1.42,6.08,3.34,8.63,5.68,1.73,1.62,3.33,3.36,4.81,5.21,1.68,2.15,3.16,4.43,4.44,6.84,1.43,2.67,2.59,5.48,3.46,8.38.9,3.12,1.54,6.31,1.93,9.54.87,6.55,1.25,12.91,1.54,18.69s.49,10.89.49,15.23.09,7.9.09,10.31v3.59c-.06.04-.11.1-.14.17Z"/>
        <path class="cls-5" d="m64.67,419.36c-.56-1.56-.98-3.17-1.25-4.81-.78-4.49-.94-9.06-.48-13.59.67-6.77,2.12-13.44,4.33-19.87,2.32-7.23,5.5-15,8.1-23.32,1.34-4.04,2.43-8.16,3.27-12.33.74-3.89,1.29-7.81,1.64-11.76.51-6.7.65-13.42.39-20.14-.2-5.78-.48-10.4-.68-13.58-.09-1.54-.19-2.8-.19-3.66v-1c0,.29.1.58.1,1,.09.86.19,2.12.29,3.66.28,3.18.57,7.8.86,13.58.34,6.75.24,13.51-.29,20.24-.29,4-.86,7.9-1.54,11.85-.86,4.21-1.95,8.37-3.27,12.46-2.7,8.38-5.88,16.09-8.19,23.32-2.22,6.36-3.68,12.97-4.34,19.68-.5,4.49-.37,9.03.38,13.49.19,1.23.45,2.46.78,3.66l.19,1c-.1-.07-.1.03-.1.12Z"/>
        <polygon class="cls-6" points="92.61 424.47 39.71 424.47 38.46 414.26 92.61 414.26 92.61 424.47"/>
        <polygon class="cls-6" points="45.4 423.31 51.95 453.86 80.76 453.86 86.93 423.31 45.4 423.31"/>
        <path class="cls-6" d="m92.62,424.47c0,.1-11.66.19-26,.19s-26-.19-26-.29,11.66-.19,26-.19,26,.1,26,.29Z"/>
        <path class="cls-5" d="m83.56,439.5c-1.45-1.04-3.01-1.95-4.63-2.7-1.82-.67-3.74-1.06-5.68-1.15-2.37.02-4.71.45-6.94,1.25-2.41.77-4.72,1.74-6.84,2.31-1.93.4-3.92.47-5.88.2-1.35-.19-2.65-.61-3.85-1.26-.32-.21-.65-.4-1-.57l-.29-.29s.49.29,1.26.67c1.2.5,2.46.86,3.75,1.06,1.93.29,3.9.19,5.79-.29,2.32-.65,4.6-1.42,6.84-2.31,2.28-.84,4.7-1.27,7.13-1.25,1.99.07,3.95.49,5.79,1.25,1.25.48,2.43,1.15,3.47,2,.29.2.58.48.87.68.03.15.11.29.21.4Z"/>
        <path class="cls-13" d="m83.17,441.62c-1.36-1.05-2.85-1.92-4.43-2.6-1.76-.68-3.61-1.07-5.49-1.16-2.31-.03-4.6.39-6.75,1.23-2.31.77-4.53,1.63-6.65,2.21-1.84.56-3.76.79-5.68.68-1.31-.09-2.58-.43-3.76-1l-.87-.57c-.19-.1-.28-.2-.28-.29s.48.29,1.25.57c1.16.49,2.4.78,3.66.87,1.89.09,3.79-.17,5.59-.77,2-.58,4.24-1.44,6.55-2.31,2.23-.8,4.57-1.23,6.94-1.25,1.92.07,3.82.49,5.59,1.25,1.19.48,2.3,1.15,3.27,2,.28.2.54.43.77.68.08.16.18.32.29.46Z"/>
        <path class="cls-13" d="m84.01,437.48c-1.49-1.12-3.11-2.06-4.82-2.8-1.84-.77-3.79-1.26-5.78-1.44-2.47-.07-4.93.35-7.23,1.25-2.31.87-4.72,1.64-7.13,2.31-2.03.39-4.13.39-6.16,0-1.35-.23-2.65-.65-3.88-1.25-.29-.19-.68-.38-1-.58l-.29-.29s.49.29,1.35.68c1.25.49,2.54.84,3.86,1.06,1.99.31,4.02.28,6-.1,2.41-.67,4.72-1.44,7-2.31,2.37-.91,4.89-1.33,7.42-1.25,2.03.17,4.02.69,5.88,1.54,1.26.58,2.46,1.29,3.57,2.12.31.23.6.48.86.77.35.19.35.29.35.29Z"/>
        <path class="cls-5" d="m93.1,424.47c0,.1-12,.29-26.6.29s-26.59-.1-26.59-.29,12-.29,26.59-.29,26.6.19,26.6.29Z"/>
      </g>
    </g>
  </g>
  <g id="Layer_2-2" data-name="Layer 2">
    <g id="Layer_1-3" data-name="Layer 1">
      <path class="cls-18" d="m207.83,65.96c0-2.41,0-3.62.39-4.57.53-1.27,1.53-2.28,2.8-2.8.95-.39,2.15-.39,4.57-.39h0c2.41,0,3.62,0,4.57.39,1.27.53,2.27,1.53,2.8,2.8.39.95.39,2.15.39,4.57h0c0,2.41,0,3.62-.39,4.57-.53,1.27-1.53,2.27-2.8,2.8-.95.39-2.15.39-4.57.39h0c-2.41,0-3.62,0-4.57-.39-1.27-.53-2.27-1.53-2.8-2.8-.39-.95-.39-2.15-.39-4.57h0Z"/>
      <g>
        <path class="cls-13" d="m215.6,61.11c-2.68,0-4.85,2.17-4.85,4.85s2.17,4.85,4.85,4.85,4.85-2.17,4.85-4.85-2.17-4.85-4.85-4.85Zm0,6.93c-1.15,0-2.07-.93-2.07-2.07,0-.78.43-1.46,1.06-1.81l1.01.56,1.01-.56c.63.35,1.06,1.03,1.06,1.81,0,1.15-.93,2.07-2.07,2.07Z"/>
        <path class="cls-1" d="m219.19,62.72l-2.58,1.43c.63.35,1.06,1.03,1.06,1.81,0,1.15-.93,2.07-2.07,2.07v2.76c2.67,0,4.83-2.17,4.83-4.83,0-1.24-.47-2.38-1.24-3.24Z"/>
        <path class="cls-2" d="m213.52,65.96c0-.78.43-1.46,1.06-1.81l-2.58-1.43c-.77.86-1.24,1.99-1.24,3.24,0,2.67,2.17,4.83,4.83,4.83v-2.76c-1.15,0-2.07-.93-2.07-2.07Z"/>
      </g>
      <g>
        <path class="cls-9" d="m228.76,63.04c1.73,0,2.91,1.17,2.91,2.87s-1.17,2.87-2.91,2.87-2.91-1.17-2.91-2.87,1.18-2.87,2.91-2.87Zm0,4.62c.98,0,1.65-.71,1.65-1.75s-.67-1.75-1.65-1.75-1.65.71-1.65,1.75.67,1.75,1.65,1.75Z"/>
        <path class="cls-9" d="m234.77,65.31c1.69,0,2.35.53,2.35,1.64,0,1.18-.88,1.84-2.45,1.84-1.04,0-1.83-.26-2.31-.78-.11-.11-.17-.26-.17-.45,0-.33.22-.57.58-.57.13,0,.26.04.39.15.4.35.96.54,1.6.54.7,0,1.11-.25,1.11-.68,0-.36-.29-.51-1.28-.52-1.67-.02-2.31-.52-2.31-1.6s.94-1.84,2.43-1.84c.83,0,1.49.21,1.96.61.13.11.21.27.21.49,0,.33-.22.57-.58.57-.13,0-.25-.04-.37-.13-.38-.28-.82-.42-1.32-.42-.65,0-1.08.26-1.08.68,0,.33.3.48,1.24.48Z"/>
        <path class="cls-9" d="m242.88,67.73c-.46.63-1.29,1.05-2.33,1.05-1.71,0-2.9-1.17-2.9-2.87s1.18-2.87,2.9-2.87c.94,0,1.71.33,2.24.94.09.11.16.26.16.44,0,.35-.25.59-.59.59-.21,0-.39-.08-.5-.23-.29-.38-.73-.61-1.29-.61-.98,0-1.65.71-1.65,1.75s.67,1.75,1.65,1.75c.61,0,1.04-.25,1.35-.68.11-.15.29-.25.5-.25.36,0,.59.25.59.59,0,.17-.05.3-.12.41h0Z"/>
        <path class="cls-9" d="m248.84,63.75v4.32c0,.41-.23.66-.62.66s-.61-.25-.61-.66v-1.62h-2.73v1.62c0,.41-.23.66-.61.66s-.62-.25-.62-.66v-4.32c0-.41.23-.66.62-.66s.61.25.61.66v1.57h2.73v-1.57c0-.41.23-.66.61-.66s.62.25.62.66Z"/>
        <path class="cls-9" d="m252.51,63.04c1.73,0,2.91,1.17,2.91,2.87s-1.17,2.87-2.91,2.87-2.91-1.17-2.91-2.87,1.18-2.87,2.91-2.87Zm0,4.62c.98,0,1.65-.71,1.65-1.75s-.67-1.75-1.65-1.75-1.65.71-1.65,1.75.67,1.75,1.65,1.75Z"/>
        <path class="cls-9" d="m258.9,63.04c1.73,0,2.91,1.17,2.91,2.87s-1.17,2.87-2.91,2.87-2.91-1.17-2.91-2.87,1.18-2.87,2.91-2.87Zm0,4.62c.98,0,1.65-.71,1.65-1.75s-.67-1.75-1.65-1.75-1.65.71-1.65,1.75.67,1.75,1.65,1.75Z"/>
        <path class="cls-9" d="m266.6,67.56c.37,0,.59.21.59.56s-.22.56-.59.56h-3.37c-.41,0-.66-.25-.66-.66v-4.28c0-.41.23-.65.62-.65s.61.25.61.65v3.82h2.8,0Z"/>
      </g>
    </g>
  </g>
  <g id="Layer_21" data-name="Layer 21">
    <g>
      <path class="cls-10" d="m303.23,300.78h-136.24c-4.5,0-8.16-3.65-8.16-8.16h0c0-4.5,3.65-8.16,8.16-8.16h136.24c4.5,0,8.16,3.65,8.16,8.16h0c0,4.5-3.65,8.16-8.16,8.16Z"/>
      <path class="cls-18" d="m226.95,300.78h-59.96c-4.5,0-8.16-3.65-8.16-8.16h0c0-4.5,3.65-8.16,8.16-8.16h59.96c4.5,0,8.16,3.65,8.16,8.16h0c0,4.5-3.65,8.16-8.16,8.16Z"/>
    </g>
    <g>
      <path class="cls-10" d="m303.23,356.41h-136.24c-4.5,0-8.16-3.65-8.16-8.15h0c0-4.5,3.65-8.16,8.16-8.16h136.24c4.5,0,8.16,3.65,8.16,8.16h0c0,4.5-3.65,8.15-8.16,8.15Z"/>
      <path class="cls-18" d="m226.95,356.41h-59.96c-4.5,0-8.15-3.65-8.15-8.15h0c0-4.5,3.65-8.16,8.15-8.16h59.96c4.5,0,8.15,3.65,8.15,8.15h0c0,4.5-3.65,8.16-8.16,8.16Z"/>
    </g>
    <g>
      <path class="cls-10" d="m303.23,328.81h-136.24c-4.5,0-8.15-3.65-8.15-8.15h0c0-4.5,3.65-8.16,8.16-8.16h136.24c4.5,0,8.16,3.65,8.16,8.15h0c0,4.5-3.65,8.16-8.16,8.16Z"/>
      <path class="cls-18" d="m280.15,328.81h-113.16c-4.5,0-8.16-3.65-8.16-8.16h0c0-4.5,3.65-8.15,8.16-8.15h113.16c4.5,0,8.16,3.65,8.16,8.15h0c0,4.5-3.65,8.16-8.16,8.16Z"/>
    </g>
  </g>
  <g id="Layer_22" data-name="Layer 22">
    <g>
      <path class="cls-5" d="m168.25,221.85v-4.2s-2.07,3.46-2.07,3.46h-.73l-2.05-3.37v4.11h-1.52v-7h1.34l2.62,4.35,2.58-4.35h1.33l.02,7h-1.52Z"/>
      <path class="cls-5" d="m176.08,218.78v3.07h-1.46v-.67c-.29.49-.85.75-1.64.75-1.26,0-2.01-.7-2.01-1.63s.67-1.61,2.31-1.61h1.24c0-.67-.4-1.06-1.24-1.06-.57,0-1.16.19-1.55.5l-.56-1.09c.59-.42,1.46-.65,2.32-.65,1.64,0,2.59.76,2.59,2.39Zm-1.56,1.37v-.55h-1.07c-.73,0-.96.27-.96.63,0,.39.33.65.88.65.52,0,.97-.24,1.15-.73Z"/>
      <path class="cls-5" d="m180.96,221.59c-.32.23-.79.34-1.27.34-1.27,0-2.01-.65-2.01-1.93v-2.21h-.83v-1.2h.83v-1.31h1.56v1.31h1.34v1.2h-1.34v2.19c0,.46.25.71.67.71.23,0,.46-.07.63-.2l.42,1.1Z"/>
      <path class="cls-5" d="m187.34,218.77v3.08h-1.56v-2.84c0-.87-.4-1.27-1.09-1.27-.75,0-1.29.46-1.29,1.45v2.66h-1.56v-7.42h1.56v2.6c.42-.42,1.02-.64,1.71-.64,1.27,0,2.23.74,2.23,2.38Z"/>
      <path class="cls-5" d="m194.05,219.6h-4.07c.15.67.72,1.08,1.54,1.08.57,0,.98-.17,1.35-.52l.83.9c-.5.57-1.25.87-2.22.87-1.86,0-3.07-1.17-3.07-2.77s1.23-2.77,2.87-2.77,2.8,1.06,2.8,2.79c0,.12-.02.29-.03.42Zm-4.09-.91h2.65c-.11-.68-.62-1.12-1.32-1.12s-1.22.43-1.33,1.12Z"/>
      <path class="cls-5" d="m204.21,218.77v3.08h-1.56v-2.84c0-.87-.39-1.27-1.02-1.27-.7,0-1.19.45-1.19,1.41v2.7h-1.56v-2.84c0-.87-.37-1.27-1.02-1.27-.69,0-1.18.45-1.18,1.41v2.7h-1.56v-5.38h1.49v.62c.4-.46,1-.7,1.69-.7.75,0,1.39.29,1.77.88.43-.55,1.13-.88,1.94-.88,1.28,0,2.2.74,2.2,2.38Z"/>
      <path class="cls-5" d="m210.37,218.78v3.07h-1.46v-.67c-.29.49-.85.75-1.64.75-1.26,0-2.01-.7-2.01-1.63s.67-1.61,2.31-1.61h1.24c0-.67-.4-1.06-1.24-1.06-.57,0-1.16.19-1.55.5l-.56-1.09c.59-.42,1.46-.65,2.32-.65,1.64,0,2.59.76,2.59,2.39Zm-1.56,1.37v-.55h-1.07c-.73,0-.96.27-.96.63,0,.39.33.65.88.65.52,0,.97-.24,1.15-.73Z"/>
      <path class="cls-5" d="m215.25,221.59c-.32.23-.79.34-1.27.34-1.27,0-2.01-.65-2.01-1.93v-2.21h-.83v-1.2h.83v-1.31h1.56v1.31h1.34v1.2h-1.34v2.19c0,.46.25.71.67.71.23,0,.46-.07.63-.2l.42,1.1Z"/>
      <path class="cls-5" d="m215.94,214.85c0-.49.39-.87.97-.87s.97.36.97.84c0,.52-.39.9-.97.9s-.97-.38-.97-.87Zm.19,1.62h1.56v5.38h-1.56v-5.38Z"/>
      <path class="cls-5" d="m218.74,219.16c0-1.62,1.25-2.77,3-2.77,1.13,0,2.02.49,2.41,1.37l-1.21.65c-.29-.51-.72-.74-1.21-.74-.79,0-1.41.55-1.41,1.49s.62,1.49,1.41,1.49c.49,0,.92-.22,1.21-.74l1.21.66c-.39.86-1.28,1.36-2.41,1.36-1.75,0-3-1.15-3-2.77Z"/>
      <path class="cls-5" d="m224.53,221.35l.52-1.12c.48.31,1.21.52,1.87.52.72,0,.99-.19.99-.49,0-.88-3.25.02-3.25-2.13,0-1.02.92-1.74,2.49-1.74.74,0,1.56.17,2.07.47l-.52,1.11c-.53-.3-1.06-.4-1.55-.4-.7,0-1,.22-1,.5,0,.92,3.25.03,3.25,2.15,0,1-.93,1.71-2.54,1.71-.91,0-1.83-.25-2.33-.58Z"/>
    </g>
    <g>
      <path class="cls-5" d="m167.94,236.49c0,1.56-1.17,2.53-3.04,2.53h-1.41v1.93h-1.62v-7h3.03c1.87,0,3.04.97,3.04,2.54Zm-1.64,0c0-.77-.5-1.22-1.49-1.22h-1.32v2.43h1.32c.99,0,1.49-.45,1.49-1.21Z"/>
      <path class="cls-5" d="m174.58,237.87v3.08h-1.56v-2.84c0-.87-.4-1.27-1.09-1.27-.75,0-1.29.46-1.29,1.45v2.66h-1.56v-7.42h1.56v2.6c.42-.42,1.02-.64,1.71-.64,1.27,0,2.23.74,2.23,2.38Z"/>
      <path class="cls-5" d="m181.23,235.57l-2.43,5.71c-.52,1.3-1.26,1.69-2.23,1.69-.55,0-1.15-.18-1.5-.49l.57-1.11c.24.21.57.34.88.34.43,0,.67-.19.88-.67l.02-.05-2.33-5.42h1.61l1.51,3.65,1.52-3.65h1.5Z"/>
      <path class="cls-5" d="m181.28,240.45l.52-1.12c.48.31,1.21.52,1.87.52.72,0,.99-.19.99-.49,0-.88-3.25.02-3.25-2.13,0-1.02.92-1.74,2.49-1.74.74,0,1.56.17,2.07.47l-.52,1.11c-.53-.3-1.06-.4-1.55-.4-.7,0-1,.22-1,.5,0,.92,3.25.03,3.25,2.15,0,1-.93,1.71-2.54,1.71-.91,0-1.83-.25-2.33-.58Z"/>
      <path class="cls-5" d="m186.92,233.95c0-.49.39-.87.97-.87s.97.36.97.84c0,.52-.39.9-.97.9s-.97-.38-.97-.87Zm.19,1.62h1.56v5.38h-1.56v-5.38Z"/>
      <path class="cls-5" d="m189.72,238.26c0-1.62,1.25-2.77,3-2.77,1.13,0,2.02.49,2.41,1.37l-1.21.65c-.29-.51-.72-.74-1.21-.74-.79,0-1.41.55-1.41,1.49s.62,1.49,1.41,1.49c.49,0,.92-.22,1.21-.74l1.21.66c-.39.86-1.28,1.36-2.41,1.36-1.75,0-3-1.15-3-2.77Z"/>
      <path class="cls-5" d="m195.51,240.45l.52-1.12c.48.31,1.21.52,1.87.52.72,0,.99-.19.99-.49,0-.88-3.25.02-3.25-2.13,0-1.02.92-1.74,2.49-1.74.74,0,1.56.17,2.07.47l-.52,1.11c-.53-.3-1.06-.4-1.55-.4-.7,0-1,.22-1,.5,0,.92,3.25.03,3.25,2.15,0,1-.93,1.71-2.54,1.71-.91,0-1.83-.25-2.33-.58Z"/>
    </g>
    <g>
      <path class="cls-5" d="m167.23,257.86v1.3h-5.42v-7h5.29v1.3h-3.68v1.52h3.25v1.26h-3.25v1.62h3.81Z"/>
      <path class="cls-5" d="m173.91,256.08v3.08h-1.56v-2.84c0-.87-.4-1.27-1.09-1.27-.75,0-1.29.46-1.29,1.45v2.66h-1.56v-5.38h1.49v.63c.42-.46,1.05-.71,1.78-.71,1.27,0,2.23.74,2.23,2.38Z"/>
      <path class="cls-5" d="m180.93,253.78v4.48c0,2-1.08,2.92-3.02,2.92-1.02,0-2.01-.25-2.64-.74l.62-1.12c.46.37,1.21.61,1.9.61,1.1,0,1.58-.5,1.58-1.47v-.23c-.41.45-1,.67-1.7.67-1.49,0-2.69-1.03-2.69-2.6s1.2-2.6,2.69-2.6c.75,0,1.37.25,1.78.77v-.69h1.48Zm-1.54,2.52c0-.79-.59-1.32-1.41-1.32s-1.42.53-1.42,1.32.6,1.32,1.42,1.32,1.41-.53,1.41-1.32Z"/>
      <path class="cls-5" d="m182.39,251.74h1.56v7.42h-1.56v-7.42Z"/>
      <path class="cls-5" d="m185.21,252.16c0-.49.39-.87.97-.87s.97.36.97.84c0,.52-.39.9-.97.9s-.97-.38-.97-.87Zm.19,1.62h1.56v5.38h-1.56v-5.38Z"/>
      <path class="cls-5" d="m187.89,258.66l.52-1.12c.48.31,1.21.52,1.87.52.72,0,.99-.19.99-.49,0-.88-3.25.02-3.25-2.13,0-1.02.92-1.74,2.49-1.74.74,0,1.56.17,2.07.47l-.52,1.11c-.53-.3-1.06-.4-1.55-.4-.7,0-1,.22-1,.5,0,.92,3.25.03,3.25,2.15,0,1-.93,1.71-2.54,1.71-.91,0-1.83-.25-2.33-.58Z"/>
      <path class="cls-5" d="m199.21,256.08v3.08h-1.56v-2.84c0-.87-.4-1.27-1.09-1.27-.75,0-1.29.46-1.29,1.45v2.66h-1.56v-7.42h1.56v2.6c.42-.42,1.02-.64,1.71-.64,1.27,0,2.23.74,2.23,2.38Z"/>
    </g>
  </g>
</svg>