<?xml version="1.0" encoding="UTF-8"?>
<svg xmlns="http://www.w3.org/2000/svg" xmlns:xlink="http://www.w3.org/1999/xlink" viewBox="0 0 477.74 442.73">
  <defs>
    <style>
      .cls-1 {
        fill: url(#linear-gradient);
      }

      .cls-1, .cls-2, .cls-3, .cls-4, .cls-5, .cls-6, .cls-7, .cls-8, .cls-9, .cls-10, .cls-11, .cls-12 {
        stroke-width: 0px;
      }

      .cls-13 {
        opacity: .3;
      }

      .cls-14 {
        opacity: .6;
      }

      .cls-2 {
        fill: url(#linear-gradient-2);
      }

      .cls-4 {
        fill: #263238;
      }

      .cls-5 {
        fill: #455a64;
      }

      .cls-6 {
        fill: #e0e0e0;
      }

      .cls-7 {
        fill: #fff;
      }

      .cls-8 {
        fill: #ffbe9d;
      }

      .cls-9 {
        fill: #fafafa;
      }

      .cls-10 {
        fill: #ebebeb;
      }

      .cls-11 {
        fill: #eb996e;
      }

      .cls-12 {
        fill: #00bcd4;
      }
    </style>
    <linearGradient id="linear-gradient" x1="389.64" y1="223.5" x2="396.04" y2="212.41" gradientTransform="translate(0 436.74) scale(1 -1)" gradientUnits="userSpaceOnUse">
      <stop offset=".08" stop-color="#a4a7a6"/>
      <stop offset=".09" stop-color="#a8abaa"/>
      <stop offset=".16" stop-color="#c2c5c3"/>
      <stop offset=".23" stop-color="#d8d9d8"/>
      <stop offset=".32" stop-color="#e9e9e9"/>
      <stop offset=".43" stop-color="#f5f5f5"/>
      <stop offset=".58" stop-color="#fcfcfc"/>
      <stop offset="1" stop-color="#fff"/>
    </linearGradient>
    <linearGradient id="linear-gradient-2" x1="386.72" y1="224.91" x2="381.61" y2="211.59" gradientTransform="translate(0 436.74) scale(1 -1)" gradientUnits="userSpaceOnUse">
      <stop offset=".03" stop-color="#a4a7a6"/>
      <stop offset=".04" stop-color="#a8abaa"/>
      <stop offset=".11" stop-color="#c2c5c3"/>
      <stop offset=".19" stop-color="#d8d9d8"/>
      <stop offset=".28" stop-color="#e9e9e9"/>
      <stop offset=".4" stop-color="#f5f5f5"/>
      <stop offset=".56" stop-color="#fcfcfc"/>
      <stop offset="1" stop-color="#fff"/>
    </linearGradient>
  </defs>
  <g id="Background_Complete" data-name="Background Complete">
    <g>
      <rect class="cls-6" x="35.7" y="6.9" width="88.51" height="146.52"/>
      <rect class="cls-10" x="32.76" y="6.9" width="88.51" height="146.52"/>
      <rect class="cls-9" x="36.53" y="9.87" width="80.98" height="140.57"/>
      <g>
        <rect class="cls-10" x="51.94" y="28.14" width="49.79" height="104.04"/>
        <path class="cls-6" d="m51.94,95.36c-.12-9.72,8.62-19.21,18.25-20.56,4.59-.65,9.47.26,13.75-1.49,7.65-3.14,10.09-13.31,17.79-16.32l.35,75.2h-50.15v-36.82Z"/>
      </g>
    </g>
    <g>
      <rect class="cls-6" x="406.76" y="15.39" width="64.38" height="67.11"/>
      <g>
        <rect class="cls-9" x="402.4" y="15.39" width="64.38" height="67.11"/>
        <path class="cls-6" d="m466.8,82.52h-64.42V15.37h64.42v67.15Zm-64.38-.04h64.34V15.41h-64.34v67.07Z"/>
      </g>
      <rect class="cls-9" x="411.06" y="24.41" width="47.07" height="49.07"/>
      <path class="cls-6" d="m411.06,73.8s-.41.56-1.16,1.35c-.75.79-1.81,1.87-2.99,3.03-1.18,1.17-2.27,2.21-3.08,2.94-.8.74-1.32,1.17-1.36,1.13-.04-.04.4-.55,1.16-1.35.75-.79,1.81-1.87,3-3.04,1.19-1.17,2.28-2.21,3.08-2.95.8-.74,1.32-1.17,1.35-1.13Z"/>
      <path class="cls-6" d="m458.13,73.68s.56.41,1.35,1.16c.79.75,1.87,1.81,3.03,2.99,1.17,1.18,2.21,2.27,2.94,3.08.74.8,1.17,1.32,1.13,1.36-.04.04-.55-.4-1.35-1.16-.79-.75-1.87-1.81-3.04-3-1.17-1.19-2.21-2.28-2.95-3.08-.74-.8-1.17-1.32-1.13-1.35Z"/>
      <path class="cls-6" d="m458,24.54s.41-.56,1.16-1.35c.75-.79,1.81-1.87,2.99-3.03,1.18-1.17,2.27-2.21,3.08-2.94.8-.74,1.32-1.17,1.36-1.13.04.04-.4.55-1.16,1.34-.75.79-1.81,1.87-3,3.04-1.19,1.17-2.28,2.21-3.08,2.95-.8.74-1.32,1.17-1.35,1.13Z"/>
      <path class="cls-6" d="m410.93,24.66s-.56-.41-1.35-1.16c-.79-.75-1.87-1.81-3.03-2.99-1.17-1.18-2.21-2.27-2.94-3.08-.74-.8-1.17-1.32-1.13-1.36.04-.04.55.4,1.34,1.16.79.75,1.87,1.81,3.04,3,1.17,1.19,2.21,2.28,2.95,3.08.74.8,1.17,1.32,1.13,1.35Z"/>
      <path class="cls-6" d="m458,73.48s0-.08-.01-.24c0-.17,0-.39-.01-.68,0-.62-.01-1.5-.02-2.65-.01-2.32-.03-5.71-.05-10-.02-8.59-.05-20.84-.09-35.5l.18.18c-13.7,0-29.8.02-46.94.03h0l.21-.21c-.01,18.01-.02,34.86-.03,49.07l-.18-.18c14.07.04,25.78.07,33.99.09,4.1.02,7.33.04,9.55.05,1.1,0,1.94.02,2.53.02.28,0,.49,0,.65.01.15,0,.22,0,.23,0,0,0-.07,0-.21.01-.16,0-.36,0-.63.01-.58,0-1.41.01-2.49.02-2.21.01-5.42.03-9.51.05-8.24.02-19.99.05-34.1.09h-.18s0-.18,0-.18c0-14.21-.02-31.06-.03-49.07v-.21s.21,0,.21,0h0c17.14,0,33.24.02,46.94.03h.18v.18c-.04,14.71-.07,26.99-.09,35.61-.02,4.28-.04,7.64-.05,9.96,0,1.13-.02,2.01-.02,2.61,0,.28,0,.5-.01.67,0,.15,0,.22-.01.22Z"/>
      <rect class="cls-10" x="426.74" y="41.09" width="15.71" height="15.71"/>
    </g>
  </g>
  <g id="Floor">
    <path class="cls-4" d="m428.97,438.73c0,.14-95.16.26-212.53.26s-212.55-.12-212.55-.26,95.14-.26,212.55-.26,212.53.12,212.53.26Z"/>
  </g>
  <g id="Device">
    <g>
      <g>
        <path class="cls-4" d="m359.93,438.39l-147.82-.09c-17.78,0-32.18-14.43-32.18-32.2l.07-370.58c0-17.79,14.43-32.2,32.22-32.19l147.82.09c17.78.01,32.18,14.43,32.18,32.21l-.07,370.58c0,17.79-14.43,32.2-32.22,32.19Z"/>
        <path class="cls-9" d="m359.89,16.52l-28.66-.02c-3.84,0-6.96,3.25-6.96,7.27v5.2c0,4.02-3.12,7.27-6.96,7.27l-55.86-.03c-3.84,0-6.96-3.26-6.96-7.28v-5.2c0-4.02-3.11-7.28-6.96-7.28h-10.08s-25.08-.02-25.08-.02c-12.46,0-22.56,10.09-22.56,22.55l-.07,361.71c0,12.45,10.09,22.55,22.54,22.56l147.52.09c12.46,0,22.56-10.09,22.56-22.55l.07-361.71c0-12.45-10.09-22.55-22.54-22.55Z"/>
      </g>
      <g>
        <g>
          <rect class="cls-4" x="332.62" y="28.25" width="1.64" height="2.3"/>
          <rect class="cls-4" x="335.29" y="27.23" width="1.64" height="3.32"/>
          <rect class="cls-4" x="337.95" y="26.46" width="1.64" height="4.09"/>
          <rect class="cls-4" x="340.62" y="24.98" width="1.64" height="5.57"/>
        </g>
        <g>
          <path class="cls-4" d="m366.44,30.66h-8.22c-.32,0-.59-.26-.59-.59v-4.09c0-.33.26-.59.58-.59h8.23s.08.02.11.04c.03.03.04.07.04.11v1.35h.88c.08,0,.15.07.15.15v1.97c0,.08-.07.15-.15.15h-.88v1.35c0,.08-.07.15-.15.15Zm-.15-4.97h-8.08c-.16,0-.28.13-.28.29v4.09c0,.16.13.29.29.29h8.07v-1.35c0-.08.07-.15.15-.15h.88v-1.67h-.88c-.08,0-.15-.07-.15-.15v-1.35Z"/>
          <polygon class="cls-4" points="358.6 29.69 358.6 26.37 365.62 26.37 365.62 27.87 365.62 28.19 365.62 29.69 358.6 29.69"/>
        </g>
        <g>
          <path class="cls-4" d="m350.1,30.35c0-.33-.27-.6-.6-.6s-.6.27-.6.6.27.6.6.6.6-.27.6-.6Z"/>
          <g>
            <path class="cls-4" d="m347.45,28.9l.77.77c.33-.33.78-.53,1.28-.53s.95.2,1.28.53l.77-.77c-.53-.53-1.25-.85-2.05-.85s-1.52.33-2.05.85Z"/>
            <path class="cls-4" d="m349.5,26.34c-1.27,0-2.42.52-3.26,1.35l.77.77c.64-.64,1.52-1.03,2.49-1.03s1.85.4,2.49,1.03l.77-.77c-.83-.83-1.99-1.35-3.26-1.35Z"/>
            <path class="cls-4" d="m344.99,26.45l.77.77c.96-.96,2.28-1.55,3.74-1.55s2.78.59,3.74,1.55l.77-.77c-1.15-1.15-2.75-1.87-4.51-1.87s-3.35.71-4.51,1.87Z"/>
          </g>
        </g>
      </g>
      <g>
        <rect class="cls-4" x="284.78" y="61.52" width="12.4" height="9.21" rx=".95" ry=".95"/>
        <path class="cls-4" d="m287.52,62.12h-1.3v-1.54c0-2.75,2.05-4.82,4.77-4.82s4.76,2.07,4.76,4.82v.98h-1.3v-.98c0-2.04-1.46-3.51-3.46-3.51s-3.46,1.48-3.46,3.51v1.54Z"/>
      </g>
      <path class="cls-10" d="m191.28,289.67c-.03-23.32,13.58-46.17,34.09-57.26,14.38-7.77,31.02-9.84,46.95-13.5,15.93-3.66,32.43-9.7,42.29-22.74,13.31-17.62,10.77-42.66,20.37-62.55,8.68-17.98,27.8-30.42,47.75-31.09v302.79c0,10.17-8.24,18.41-18.41,18.41h-154.63c-10.17,0-18.41-8.24-18.41-18.41v-115.65Z"/>
      <g>
        <path class="cls-4" d="m223.85,131.97c0-11.23,5.89-17.93,14.05-17.93s14.1,6.7,14.1,17.93-5.94,17.93-14.1,17.93-14.05-6.7-14.05-17.93Zm24.42,0c0-9.42-4.23-14.6-10.37-14.6s-10.37,5.19-10.37,14.6,4.23,14.6,10.37,14.6,10.37-5.19,10.37-14.6Z"/>
        <path class="cls-4" d="m282.61,131.67c0,11.98-6.55,18.23-16.11,18.23-3.17,0-6.14-.55-8.36-1.91l1.46-2.92c1.81,1.21,4.23,1.66,6.85,1.66,7.6,0,12.49-4.88,12.49-14.45,0-.81-.05-1.81-.15-2.87-1.76,3.88-5.89,6.04-10.78,6.04-7,0-11.88-4.13-11.88-10.57s5.19-10.83,12.03-10.83c9.37,0,14.45,6.5,14.45,17.62Zm-4.99-7c0-3.88-3.22-7.55-9.32-7.55-5.09,0-8.61,2.97-8.61,7.65s3.42,7.6,8.86,7.6,9.06-3.32,9.06-7.7Z"/>
        <path class="cls-4" d="m287.89,125.62c0-1.56,1.21-2.72,2.67-2.72s2.72,1.16,2.72,2.72-1.26,2.77-2.72,2.77-2.67-1.21-2.67-2.77Zm0,21.45c0-1.56,1.21-2.72,2.67-2.72s2.72,1.16,2.72,2.72-1.26,2.77-2.72,2.77-2.67-1.21-2.67-2.77Z"/>
        <path class="cls-4" d="m322.59,146.37v3.22h-24.72v-2.57l14.65-14.35c3.98-3.93,4.73-6.29,4.73-8.71,0-4.08-2.87-6.6-8.26-6.6-4.13,0-7.3,1.26-9.62,3.93l-2.57-2.22c2.72-3.22,7.1-5.03,12.49-5.03,7.15,0,11.68,3.63,11.68,9.52,0,3.37-1.06,6.4-5.79,11.03l-11.98,11.78h19.39Z"/>
        <path class="cls-4" d="m326.91,131.97c0-11.23,5.89-17.93,14.05-17.93s14.1,6.7,14.1,17.93-5.94,17.93-14.1,17.93-14.05-6.7-14.05-17.93Zm24.42,0c0-9.42-4.23-14.6-10.37-14.6s-10.37,5.19-10.37,14.6,4.23,14.6,10.37,14.6,10.37-5.19,10.37-14.6Z"/>
      </g>
      <circle class="cls-6" cx="225.95" cy="81.87" r="25.45" transform="translate(98.41 285.56) rotate(-77.87)"/>
    </g>
    <g id="Notifications">
      <g>
        <g>
          <rect class="cls-9" x="195.29" y="269.68" width="181.58" height="58.22" rx="9.04" ry="9.04"/>
          <path class="cls-4" d="m367.83,327.89s.41-.02,1.19-.12c.77-.11,1.95-.36,3.28-1.14,1.3-.77,2.81-2.09,3.71-4.16.45-1.02.73-2.21.75-3.5,0-1.3,0-2.69,0-4.15-.02-5.88-.04-13.06-.06-21.39,0-4.17-.02-8.63-.03-13.36,0-1.19.02-2.37-.29-3.52-.29-1.15-.83-2.25-1.57-3.21-1.47-1.94-3.85-3.26-6.41-3.39-42,.02-99.99.04-164.04.07-1.92.02-3.85.64-5.35,1.84-1.51,1.18-2.63,2.85-3.08,4.7-.25.93-.3,1.85-.28,2.85v2.95c0,1.96,0,3.92,0,5.87,0,7.8,0,15.49,0,23.04,0,1.89,0,3.77,0,5.64,0,.93-.02,1.89.04,2.77.1.89.32,1.77.66,2.59.72,1.63,1.92,3.05,3.43,3.98,1.5.95,3.27,1.37,5.05,1.31,7.27,0,14.38,0,21.32.01,27.76.03,52.76.05,73.76.07,20.98.05,37.97.08,49.72.11,5.86.03,10.41.05,13.52.06,1.53.01,2.71.03,3.52.03.79.01,1.2.03,1.2.03,0,0-.41.02-1.2.03-.81,0-1.98.02-3.52.03-3.11.01-7.66.04-13.52.06-11.76.03-28.74.06-49.72.11-21,.02-46,.05-73.76.07-6.94,0-14.05,0-21.32.01-1.84.06-3.79-.38-5.39-1.41-1.63-.99-2.92-2.51-3.69-4.27-.37-.89-.61-1.83-.71-2.79-.07-.98-.04-1.89-.05-2.83,0-1.87,0-3.75,0-5.64,0-7.55,0-15.24,0-23.04,0-1.95,0-3.91,0-5.87v-2.95c-.02-.97.04-2.04.3-3.02.49-2,1.7-3.8,3.32-5.07,1.62-1.3,3.7-1.96,5.77-1.98,64.06.05,122.07.1,164.07.13,2.7.15,5.2,1.55,6.75,3.59.78,1.01,1.34,2.17,1.64,3.38.32,1.21.29,2.46.29,3.63,0,4.73-.02,9.19-.03,13.36-.02,8.34-.04,15.52-.06,21.39,0,1.47-.01,2.85-.02,4.16-.02,1.32-.33,2.54-.8,3.58-.94,2.11-2.49,3.43-3.82,4.19-1.36.78-2.55,1.01-3.34,1.09-.79.08-1.2.05-1.2.05Z"/>
        </g>
        <g>
          <path class="cls-4" d="m363.8,281.73c-.09,0-.17-.03-.24-.1-.12-.13-.12-.34.01-.46l4.47-4.29c.13-.12.34-.12.46.01.12.13.12.34-.01.46l-4.47,4.29c-.06.06-.14.09-.23.09Z"/>
          <path class="cls-4" d="m368.25,281.75c-.08,0-.16-.03-.23-.09l-4.43-4.32c-.13-.13-.13-.33,0-.46.12-.13.33-.13.46,0l4.43,4.32c.13.13.13.33,0,.46-.06.06-.15.1-.23.1Z"/>
        </g>
        <g>
          <path class="cls-5" d="m234.42,310.1l-1.83-2.59c-1.1-1.56-1.69-3.42-1.69-5.33v-5.81c0-4.75-3.49-8.68-8.04-9.37v-2.77c0-.7-.57-1.28-1.28-1.28h0c-.7,0-1.28.57-1.28,1.28v2.73c-4.71.55-8.37,4.56-8.37,9.42v6.02c0,2.07-.69,4.08-1.97,5.71l-1.57,2h26.02Z"/>
          <path class="cls-5" d="m220.04,314.32c1.4.59,3.13.29,4.26-.73.49-.45.86-1.02,1.07-1.65l-7.58-.05c.37,1.07,1.2,1.99,2.25,2.43Z"/>
        </g>
        <path class="cls-4" d="m336.58,289.35c0,.19-20.34.34-45.43.34s-45.43-.15-45.43-.34,20.34-.34,45.43-.34,45.43.15,45.43.34Z"/>
        <path class="cls-6" d="m357.99,300.34c0,.19-25.13.34-56.13.34s-56.14-.15-56.14-.34,25.13-.34,56.14-.34,56.13.15,56.13.34Z"/>
        <path class="cls-6" d="m357.99,306.93c0,.19-25.13.34-56.13.34s-56.14-.15-56.14-.34,25.13-.34,56.14-.34,56.13.15,56.13.34Z"/>
      </g>
      <g>
        <g>
          <rect class="cls-9" x="195.97" y="336.95" width="180.21" height="57.78" rx="9.04" ry="9.04"/>
          <path class="cls-4" d="m367.14,394.73s.4-.02,1.18-.12c.77-.1,1.94-.36,3.26-1.13,1.3-.76,2.79-2.06,3.7-4.1.45-1.01.75-2.19.78-3.46,0-1.29,0-2.66,0-4.12-.02-5.83-.04-12.96-.06-21.23,0-4.14-.02-8.56-.03-13.25,0-1.18.02-2.35-.29-3.49-.29-1.14-.82-2.23-1.55-3.19-1.46-1.92-3.8-3.25-6.34-3.41-41.67.02-99.21.04-162.76.07-3.86-.05-7.5,2.75-8.41,6.46-.26.92-.32,1.84-.3,2.82v2.93c0,1.95,0,3.89,0,5.83,0,7.74,0,15.37,0,22.86,0,1.87,0,3.74,0,5.6,0,.92-.02,1.87.04,2.75.1.89.32,1.75.65,2.57.71,1.62,1.89,3.03,3.39,3.96,1.49.95,3.24,1.39,5,1.34,7.21,0,14.27,0,21.15.01,27.54.03,52.35.05,73.18.07,20.82.05,37.67.08,49.34.11,5.81.03,10.33.05,13.41.06,1.52.01,2.68.03,3.49.03.79.01,1.19.03,1.19.03,0,0-.4.02-1.19.03-.8,0-1.97.02-3.49.03-3.08.01-7.6.04-13.41.06-11.67.03-28.52.06-49.34.11-20.84.02-45.64.05-73.18.07-6.89,0-13.94,0-21.15.01-1.84.05-3.76-.42-5.34-1.44-1.61-.99-2.88-2.51-3.65-4.25-.36-.88-.6-1.82-.7-2.77-.07-.97-.04-1.88-.05-2.81,0-1.86,0-3.72,0-5.6,0-7.49,0-15.12,0-22.86,0-1.94,0-3.88,0-5.83v-2.93c-.02-.97.04-2.03.33-3,.98-4,4.9-7.02,9.06-6.96,63.56.05,121.12.1,162.79.13,2.68.17,5.14,1.58,6.67,3.61.77,1.01,1.32,2.16,1.62,3.36.32,1.2.29,2.44.29,3.6,0,4.69-.02,9.12-.03,13.25-.02,8.27-.04,15.4-.06,21.23,0,1.46-.02,2.83-.03,4.12-.04,1.31-.35,2.51-.83,3.54-.95,2.08-2.49,3.39-3.82,4.14-1.35.76-2.54,1-3.31,1.08-.78.08-1.19.05-1.19.05Z"/>
        </g>
        <g>
          <path class="cls-4" d="m363.21,348.91c-.09,0-.17-.03-.24-.1-.12-.13-.12-.34.01-.46l4.44-4.25c.13-.12.34-.12.46.01.12.13.12.34-.01.46l-4.44,4.25c-.06.06-.14.09-.23.09Z"/>
          <path class="cls-4" d="m367.63,348.93c-.08,0-.16-.03-.23-.09l-4.4-4.29c-.13-.13-.13-.33,0-.46.13-.13.33-.13.46,0l4.4,4.29c.13.13.13.33,0,.46-.06.06-.15.1-.23.1Z"/>
        </g>
        <g>
          <path class="cls-6" d="m234.81,377.07l-1.81-2.57c-1.09-1.55-1.68-3.39-1.68-5.29v-5.77c0-4.71-3.47-8.61-7.98-9.3v-2.75c0-.7-.57-1.27-1.27-1.27h0c-.7,0-1.27.57-1.27,1.27v2.71c-4.68.55-8.31,4.52-8.31,9.35v5.98c0,2.05-.69,4.05-1.95,5.66l-1.56,1.98h25.83Z"/>
          <path class="cls-6" d="m220.53,381.26c1.39.58,3.11.29,4.22-.73.49-.44.85-1.01,1.07-1.64l-7.52-.05c.37,1.07,1.19,1.98,2.23,2.42Z"/>
        </g>
        <path class="cls-4" d="m336.19,356.47c0,.19-20.19.34-45.08.34s-45.09-.15-45.09-.34,20.18-.34,45.09-.34,45.08.15,45.08.34Z"/>
        <path class="cls-6" d="m357.44,367.38c0,.19-24.94.34-55.71.34s-55.71-.15-55.71-.34,24.94-.34,55.71-.34,55.71.15,55.71.34Z"/>
        <path class="cls-6" d="m357.44,373.92c0,.19-24.94.34-55.71.34s-55.71-.15-55.71-.34,24.94-.34,55.71-.34,55.71.15,55.71.34Z"/>
      </g>
    </g>
    <g id="Plant">
      <g>
        <path class="cls-5" d="m457.2,240.05c-10.35,5.36-18.29,14.6-24,24.76-5.71,10.17-9.39,21.32-13.03,32.4l-3.19,57.12c12.05-20.49,21.71-44.58,24.33-68.21-2.67-.24-5.34-.48-8.02-.71,5.37-.82,9.89-4.71,12.76-9.33,2.87-4.62,4.35-9.94,5.79-15.18-3.26.48-6.52.97-9.78,1.45,7.66-5.11,13.21-13.28,15.14-22.29Z"/>
        <path class="cls-12" d="m457.2,240.05c-10.35,5.36-18.29,14.6-24,24.76-5.71,10.17-9.39,21.32-13.03,32.4l-3.19,57.12c12.05-20.49,21.71-44.58,24.33-68.21-2.67-.24-5.34-.48-8.02-.71,5.37-.82,9.89-4.71,12.76-9.33,2.87-4.62,4.35-9.94,5.79-15.18-3.26.48-6.52.97-9.78,1.45,7.66-5.11,13.21-13.28,15.14-22.29Z"/>
        <g class="cls-13">
          <path class="cls-3" d="m457.2,240.05c-10.35,5.36-18.29,14.6-24,24.76-5.71,10.17-9.39,21.32-13.03,32.4l-3.19,57.12c12.05-20.49,21.71-44.58,24.33-68.21-2.67-.24-5.34-.48-8.02-.71,5.37-.82,9.89-4.71,12.76-9.33,2.87-4.62,4.35-9.94,5.79-15.18-3.26.48-6.52.97-9.78,1.45,7.66-5.11,13.21-13.28,15.14-22.29Z"/>
        </g>
        <path class="cls-12" d="m415.2,367.7s-26.15-31.29-25.84-61.17h10.56s-11.47-7.54-10.56-11.77c.91-4.22,1.21-20.22,1.21-20.22l9.66,2.41s-7.24-3.62-8.15-9.35c-.91-5.73,2.11-32.29,2.11-32.29,0,0,11.77,12.37,15.39,25.05,3.62,12.67,13.13,27.46,10.34,66.09-2.79,38.63-4.71,41.25-4.71,41.25Z"/>
        <path class="cls-12" d="m428.45,370.66s28.33-18.87,34.62-42.95l-8.49-2.31s10.87-3.56,11.07-7.15c.19-3.6,3.45-16.52,3.45-16.52l-8.29-.17s6.61-1.33,8.6-5.74c1.98-4.41,5.37-26.42,5.37-26.42,0,0-12.17,7.37-17.85,16.77-5.68,9.4-16.56,19.21-22.77,50.87-6.21,31.66-5.7,33.63-5.7,33.63Z"/>
        <path class="cls-4" d="m401.32,262.6s.04.11.1.32c.06.25.14.56.23.96.2.89.48,2.13.84,3.71.36,1.61.79,3.59,1.25,5.89.47,2.3,1.01,4.92,1.54,7.82,1.12,5.8,2.31,12.74,3.52,20.46,1.18,7.72,2.36,16.23,3.41,25.19,1.03,8.96,1.82,17.52,2.43,25.31.57,7.79,1,14.82,1.24,20.72.15,2.95.21,5.62.28,7.97.08,2.35.12,4.37.13,6.02.01,1.62.03,2.9.03,3.8,0,.41,0,.74,0,.99,0,.22-.01.34-.02.34,0,0-.02-.11-.04-.34-.01-.25-.03-.58-.05-.99-.03-.91-.08-2.18-.14-3.8-.05-1.65-.12-3.67-.22-6.01-.1-2.34-.19-5.01-.37-7.96-.28-5.9-.75-12.92-1.35-20.7-.64-7.78-1.45-16.33-2.47-25.28-1.05-8.95-2.21-17.45-3.36-25.18-1.19-7.72-2.33-14.66-3.4-20.46-.51-2.91-1.02-5.53-1.46-7.83-.43-2.31-.82-4.29-1.15-5.91-.31-1.59-.56-2.84-.73-3.73-.07-.4-.13-.72-.18-.97-.04-.22-.05-.33-.04-.34Z"/>
        <path class="cls-12" d="m411.57,386.87s-23.93-27.15-31.36-43.56l5.61-2.4c-4.07.67-8.23-1.08-11.38-3.73-3.15-2.65-5.47-6.14-7.74-9.58l7.39-1.25c-6.72-1.89-12.64-6.47-16.14-12.5,8.72,1.43,16.61,6.22,23.11,12.21,5.26,4.85,9.72,10.47,14,16.22,2.09,2.8,3.92,5.79,5.44,8.94,4.02,8.31,11.09,25.68,11.08,35.65Z"/>
        <path class="cls-4" d="m463.45,285.19s-.03.1-.11.28c-.1.21-.22.47-.36.79-.35.73-.83,1.74-1.45,3.02-1.28,2.61-3.09,6.4-5.29,11.11-4.4,9.41-10.19,22.54-15.91,37.32-5.71,14.79-10.26,28.4-13.34,38.32-1.54,4.96-2.75,8.98-3.56,11.77-.41,1.36-.72,2.43-.95,3.21-.11.34-.19.61-.26.83-.06.19-.1.28-.11.28,0,0,0-.1.05-.29.05-.22.12-.5.21-.84.21-.78.49-1.86.85-3.24.74-2.81,1.9-6.85,3.39-11.83,2.98-9.96,7.48-23.61,13.19-38.41,5.73-14.79,11.58-27.91,16.08-37.29,2.24-4.69,4.11-8.46,5.45-11.04.66-1.26,1.17-2.25,1.54-2.97.17-.31.31-.56.41-.77.1-.17.15-.26.16-.25Z"/>
        <path class="cls-4" d="m413.6,398.5s-.06-.17-.12-.5c-.07-.39-.14-.87-.24-1.44-.19-1.25-.5-3.06-.94-5.28-.43-2.22-1.05-4.84-1.84-7.73-.81-2.88-1.8-6.01-3.01-9.24-1.23-3.23-2.55-6.23-3.85-8.93-1.32-2.68-2.59-5.06-3.73-7.01-1.14-1.96-2.09-3.52-2.78-4.58-.31-.49-.56-.9-.77-1.24-.17-.29-.25-.44-.24-.45.02-.01.13.12.33.39.23.32.52.71.86,1.18.75,1.03,1.76,2.56,2.94,4.5,1.19,1.93,2.5,4.3,3.85,6.99,1.33,2.7,2.67,5.72,3.91,8.96,1.22,3.25,2.2,6.41,2.99,9.31.76,2.91,1.34,5.55,1.73,7.79.39,2.24.65,4.06.77,5.32.05.58.1,1.06.14,1.46.02.33.03.51,0,.51Z"/>
        <rect class="cls-5" x="392.8" y="392.11" width="52.37" height="10.68"/>
        <polygon class="cls-5" points="397.79 402.8 403.46 438.73 435.1 438.73 440.38 402.8 397.79 402.8"/>
        <path class="cls-4" d="m441.96,402.8c0,.15-9.91.28-22.12.28s-22.13-.13-22.13-.28,9.9-.28,22.13-.28,22.12.13,22.12.28Z"/>
      </g>
    </g>
    <g>
      <g>
        <rect class="cls-7" x="154.87" y="171.72" width="264.29" height="84.73" rx="9.04" ry="9.04"/>
        <path class="cls-4" d="m410.11,256.45s.6.01,1.74-.21c1.12-.24,2.84-.8,4.48-2.38.8-.79,1.58-1.82,2.08-3.12.53-1.3.7-2.82.63-4.48,0-3.33-.02-7.16-.03-11.48-.02-8.64-.04-19.2-.06-31.46,0-6.13-.02-12.69-.03-19.64-.06-1.74.17-3.53-.32-5.2-.44-1.69-1.43-3.25-2.79-4.41-1.36-1.17-3.1-1.91-4.93-2.07-1.84-.08-3.78-.02-5.7-.03-61.76.03-147.06.06-241.28.1-1.42,0-2.83.36-4.08,1.01-1.25.66-2.32,1.64-3.13,2.79-.79,1.17-1.29,2.52-1.45,3.92-.12,1.38-.03,2.89-.06,4.33,0,5.82,0,11.6,0,17.33,0,11.47,0,22.78,0,33.89,0,2.78,0,5.54,0,8.29,0,1.37-.02,2.76.02,4.11.05,1.32.4,2.62,1.01,3.78,1.24,2.31,3.55,4.03,6.13,4.46,1.27.23,2.63.12,3.97.15,1.34,0,2.68,0,4.02,0,10.69,0,21.15,0,31.36.01,40.83.03,77.59.05,108.47.07,30.87.05,55.85.08,73.13.11,8.63.03,15.32.05,19.88.06,2.26.01,3.99.03,5.17.03,1.16.01,1.76.03,1.76.03,0,0-.6.02-1.76.03-1.18,0-2.91.02-5.17.03-4.56.01-11.26.04-19.88.06-17.28.03-42.26.06-73.13.11-30.88.02-67.65.05-108.47.07-10.21,0-20.67,0-31.36.01-1.34,0-2.68,0-4.02,0-1.34-.03-2.69.09-4.09-.16-2.77-.47-5.25-2.31-6.59-4.8-.66-1.25-1.04-2.65-1.09-4.07-.03-1.39-.01-2.75-.02-4.13,0-2.75,0-5.52,0-8.29,0-11.11,0-22.41,0-33.89,0-5.74,0-11.52,0-17.33.03-1.47-.06-2.88.06-4.41.18-1.5.71-2.97,1.57-4.22.87-1.24,2.02-2.3,3.37-3.01,1.35-.7,2.87-1.08,4.4-1.09,94.22.04,179.52.07,241.28.1,1.94.02,3.82-.04,5.74.05,1.93.17,3.76.96,5.19,2.19,1.42,1.23,2.46,2.87,2.92,4.64.26.88.32,1.81.32,2.69,0,.88,0,1.76,0,2.63,0,6.95-.02,13.51-.03,19.64-.02,12.26-.04,22.83-.06,31.46-.01,4.32-.02,8.15-.03,11.48.06,1.65-.12,3.24-.68,4.55-.52,1.32-1.33,2.36-2.15,3.15-1.67,1.59-3.43,2.13-4.56,2.35-.58.09-1.02.14-1.31.13-.3,0-.44,0-.44,0Z"/>
      </g>
      <g>
        <path class="cls-4" d="m400.12,189.11c-.09,0-.17-.03-.24-.1-.12-.13-.12-.34.01-.46l6.51-6.24c.13-.12.34-.12.46.01.12.13.12.34-.01.46l-6.51,6.24c-.06.06-.14.09-.23.09Z"/>
        <path class="cls-4" d="m406.6,189.14c-.08,0-.16-.03-.23-.09l-6.45-6.29c-.13-.13-.13-.33,0-.46.12-.13.33-.13.46,0l6.45,6.29c.13.13.13.33,0,.46-.06.06-.15.1-.23.1Z"/>
      </g>
      <g>
        <path class="cls-12" d="m211.82,230.55l-2.66-3.76c-1.6-2.27-2.46-4.98-2.46-7.75v-8.46c0-6.91-5.08-12.63-11.71-13.64v-4.04c0-1.03-.83-1.86-1.86-1.86h0c-1.03,0-1.86.83-1.86,1.86v3.97c-6.86.8-12.18,6.63-12.18,13.71v8.76c0,3.01-1.01,5.94-2.86,8.31l-2.28,2.91h37.87Z"/>
        <path class="cls-12" d="m190.89,236.7c2.04.85,4.56.42,6.19-1.07.72-.65,1.25-1.49,1.56-2.4l-11.03-.08c.54,1.56,1.74,2.9,3.27,3.54Z"/>
      </g>
      <path class="cls-6" d="m360.51,216.35c0,.19-29.61.34-66.12.34s-66.12-.15-66.12-.34,29.6-.34,66.12-.34,66.12.15,66.12.34Z"/>
      <path class="cls-6" d="m360.51,225.94c0,.19-29.61.34-66.12.34s-66.12-.15-66.12-.34,29.6-.34,66.12-.34,66.12.15,66.12.34Z"/>
    </g>
  </g>
  <g id="Character">
    <g>
      <g>
        <path class="cls-4" d="m101.39,212.08c-1.41-1.01-3.15-1.42-4.72-2.16-1.57-.74-3.09-2.03-3.24-3.76-.21-2.55,2.61-4.48,2.78-7.04.23-3.6-4.64-5.57-5.36-9.11-.59-2.94,1.9-5.71,1.8-8.71-.11-2.99-2.7-5.23-3.88-7.98-2.75-6.38,2.33-14.61-1.52-20.4-1.03-1.56-2.59-2.68-3.91-4-1.32-1.32-2.46-3.05-2.31-4.91l-7.22-3.28c-2.42-3.7-7.9-3.84-12.03-2.26-4.13,1.58-7.75,4.42-12.04,5.47-2.08.51-1.78-2.57-3.88-2.14-2.76.56-6.16,3.79-6.94,6.47-.84,2.87-1.43,6.05-2.45,8.87-1.13,3.11-4.47,5.29-4.78,8.58-.36,3.85,3.61,6.98,3.62,10.84,0,4.16-4.58,7.87-3.12,11.76.84,2.22,3.4,3.41,4.29,5.62,1.23,3.04-1.22,6.37-.99,9.65.22,3.23,2.94,5.66,5.51,7.63,9.85,7.53,20.73,13.8,32.45,17.83,5.07,1.74,10.41,3.07,15.75,2.59s10.71-3.04,13.51-7.61c2.3-3.76,2.27-9.36-1.31-11.93Z"/>
        <g>
          <path class="cls-4" d="m80.74,142.21c-1.31-5.22-5.59-9.58-10.78-11-5.19-1.42-11.09.17-14.87,4-1.54,1.56-2.76,3.47-4.58,4.7-2.06,1.38-2.36.98-4.66,1.88-2.3.91-6.53,7.33-6.45,9.8l-1.15,10.86c.09,2.54,3.36,3.97,5.77,3.15,2.41-.83,4-3.08,5.28-5.28,1.27-2.2,2.47-4.59,4.55-6.05,3.45-2.43,8.13-1.59,12.26-.75,4.13.85,8.92,1.45,12.14-1.27,2.78-2.34,3.38-6.51,2.5-10.04Z"/>
          <g>
            <path class="cls-8" d="m83.01,157.7c-.46-7.07-5.16-15.73-12.2-14.97l-21.98,5.61c-2.14.23-3.75,2.06-3.7,4.21l2.47,53.02c-.05.01-.1.02-.15.03,0,0,8.94,18.95,23.47,14.38,2.88-.91.27-8.05.84-11.3l.15.02c0-.39.01-.74.02-1.11.48-3.74.09-7.28.09-7.28h0c.04-4.28.04-6.04.04-6,0,0,9.03-1.52,10.87-13.3.92-5.86.6-15.47.09-23.32Z"/>
            <g>
              <g>
                <g>
                  <path class="cls-4" d="m81.2,166.78c.03.8-.62,1.48-1.45,1.53-.83.05-1.53-.56-1.56-1.36-.03-.8.62-1.48,1.45-1.53.83-.05,1.53.56,1.56,1.36Z"/>
                  <path class="cls-4" d="m80.94,162.71c-.19.2-1.33-.65-2.96-.64-1.62-.02-2.82.82-2.99.62-.09-.09.1-.44.62-.82.51-.38,1.38-.75,2.39-.74,1.01,0,1.87.37,2.36.75.5.38.67.74.58.83Z"/>
                </g>
                <g>
                  <path class="cls-4" d="m65.83,167.29c.03.8-.62,1.48-1.45,1.53-.83.05-1.53-.56-1.56-1.36-.03-.8.62-1.48,1.45-1.53.83-.05,1.53.56,1.56,1.36Z"/>
                  <path class="cls-4" d="m64.96,163.05c-.19.2-1.34-.65-2.96-.64-1.62-.02-2.82.82-2.99.62-.09-.09.1-.44.62-.82.51-.38,1.38-.75,2.39-.74,1.01,0,1.87.37,2.36.76.5.38.67.74.58.83Z"/>
                </g>
                <path class="cls-4" d="m70.89,175.09c0-.09,1-.27,2.64-.48.42-.04.81-.13.88-.41.1-.3-.08-.75-.28-1.23-.39-1-.8-2.06-1.23-3.16-1.71-4.5-2.96-8.2-2.78-8.26.18-.07,1.72,3.52,3.43,8.02.41,1.11.81,2.17,1.18,3.18.16.47.43,1.01.22,1.63-.11.31-.42.54-.68.61-.27.08-.5.09-.7.1-1.65.09-2.67.1-2.68,0Z"/>
                <path class="cls-11" d="m72.05,194.33s-7.92.53-15.79-4.17c0,0,3.85,8.08,15.63,6.96l.15-2.78Z"/>
                <path class="cls-11" d="m70.21,179.01c-.59-.77-1.61-1.19-2.63-1.08-.71.08-1.42.42-1.84.99-.43.58-.52,1.39-.12,1.94.44.62,1.36.76,2.13.53.78-.22,1.44-.73,2.08-1.24.17-.14.35-.29.46-.48.11-.19.13-.45,0-.61"/>
                <path class="cls-4" d="m66.11,176.23c.26-.02.27,1.75,1.78,3,1.51,1.25,3.39,1.05,3.41,1.3.02.11-.42.34-1.21.37-.78.03-1.92-.22-2.84-.98-.92-.77-1.32-1.79-1.38-2.51-.07-.74.13-1.18.25-1.17Z"/>
              </g>
              <path class="cls-4" d="m65.69,160.2c-.16.44-1.78.24-3.69.47-1.91.2-3.45.76-3.7.36-.11-.19.15-.61.77-1.04.62-.43,1.6-.84,2.74-.97,1.14-.13,2.19.05,2.89.33.7.28,1.05.63.99.84Z"/>
              <path class="cls-4" d="m80.33,158c-.29.37-1.41-.01-2.75-.03-1.35-.06-2.49.25-2.75-.13-.12-.19.06-.56.56-.91.49-.35,1.31-.64,2.24-.61.93.03,1.73.36,2.2.74.48.38.63.76.51.94Z"/>
            </g>
          </g>
          <path class="cls-4" d="m70.42,139.72l-1-1.28c-6.8.78-13.48,2.48-19.82,5.06-2.53,1.03-5.1,2.26-6.83,4.38-2.39,2.91-2.77,6.93-3.04,10.68-1.03,14.3-1.89,29.02,2.61,42.63,1.08-1.74,3.2-2.52,5.21-2.91,2.01-.39,4.12-.52,5.95-1.45,2-1.02,3.46-2.98,4.02-5.16.56-2.18.25-4.54-.73-6.56-1.09-2.27-3.04-4.45-2.57-6.92.5-2.59,3.47-4.07,4.17-6.61,1.2-4.39-4.96-8.33-3.71-12.71.46-1.62,1.87-2.8,3.38-3.54,1.5-.75,3.15-1.17,4.68-1.88,5.08-2.36,8.33-8.17,7.68-13.73Z"/>
        </g>
      </g>
      <g>
        <g>
          <path class="cls-8" d="m129.89,229.54l-13.78,21.44s1.53,2.54,4.85,2.4c3.31-.14,7.87-8.42,8.42-10.1.54-1.68-.2-3.29.3-4.4.5-1.11.3-4.18.3-4.18-.07.18,2.98-3.91-.08-5.16Z"/>
          <path class="cls-4" d="m112.31,250.97l7.18-28.39c.22-.85.77-1.58,1.53-2.01l10.43-5.95c.63-.36,1.44-.19,1.87.4h0c.25.34.33.78.23,1.19l-7.6,29.88-13.63,4.87Z"/>
          <polygon class="cls-12" points="108.69 272.97 125.36 242.19 119.08 234.05 95.62 251.86 101.77 268.78 108.69 272.97"/>
          <path class="cls-11" d="m125.56,248.86s.22-.43.32-1.27c.11-.83.05-2.09-.35-3.56l-.02-.07.04-.07c.26-.45.39-1.03.19-1.58-.18-.55-.63-1.07-1.16-1.45l-.18-.13.12-.19c.59-.88,1.22-1.83,1.89-2.82.16-.25.37-.51.44-.73.08-.23.05-.49-.06-.74-.22-.5-.68-.97-1.17-1.32l-.23-.17.19-.22c.51-.58,1.08-1.16,1.65-1.75.99-1.06,1.95-2.1,2.75-3.17.38-.54.77-1.08,1.02-1.63.14-.27.22-.56.25-.81.02-.26-.1-.41-.25-.44h-.06s0-.01,0-.01c-.24-.07-.62.02-.94.15-.33.12-.65.28-.96.43-.61.32-1.18.67-1.7,1-1.05.68-1.94,1.32-2.68,1.85-.68.5-1.24.91-1.7,1.25-.4.29-.61.44-.63.42-.02-.02.17-.21.54-.53.37-.33.92-.79,1.63-1.35.71-.56,1.59-1.24,2.63-1.95.52-.35,1.09-.72,1.71-1.06.31-.17.64-.34,1-.47.36-.12.74-.29,1.25-.17h-.06c.48.02.75.55.7.91-.03.36-.14.69-.28,1-.27.62-.66,1.17-1.06,1.73-.81,1.11-1.78,2.16-2.78,3.23-.58.59-1.15,1.17-1.65,1.74l-.05-.39c.56.42,1.06.89,1.35,1.55.14.33.19.73.06,1.09-.14.37-.33.57-.5.84-.68.99-1.33,1.93-1.94,2.81l-.06-.31c.62.45,1.09,1.02,1.3,1.7.22.68.04,1.39-.27,1.88l.02-.14c.37,1.54.37,2.82.2,3.68-.08.43-.21.75-.31.95-.12.2-.18.3-.2.29Z"/>
          <path class="cls-5" d="m133.32,215.03s-.29.25-.86.61-1.4.87-2.44,1.48c-1.08.63-2.31,1.35-3.65,2.14-.69.4-1.42.82-2.17,1.25-.75.42-1.56.83-2.18,1.43-.63.58-.88,1.43-1.1,2.25-.22.84-.43,1.64-.63,2.42-.4,1.51-.77,2.88-1.09,4.09-.32,1.16-.59,2.1-.78,2.75-.2.65-.32,1-.36.99-.03,0,.02-.38.16-1.04.14-.66.35-1.61.62-2.79.29-1.21.62-2.6.99-4.12.19-.78.39-1.59.6-2.43.21-.83.49-1.8,1.23-2.5.72-.68,1.54-1.08,2.3-1.5.75-.42,1.48-.83,2.18-1.22,1.36-.75,2.61-1.44,3.7-2.04,1.06-.58,1.92-1.03,2.52-1.34.6-.31.94-.46.96-.43Z"/>
          <path class="cls-7" d="m126.41,224.74c-.26.62-.29,1.19-.07,1.29.22.09.61-.33.87-.95.26-.62.29-1.19.07-1.29-.22-.09-.61.33-.87.95Z"/>
        </g>
        <g>
          <path class="cls-12" d="m74.49,207.52h0c7.24,2.61,13.14,7.99,16.42,14.96l22.38,47.61,19.28,7.82-16.98,4.89-15.12-11.09-25.98-64.19Z"/>
          <path class="cls-9" d="m115.59,282.8l-8.12,6.26-40.52-41.68-23.16-41.84,2.68-7.78,17.91,7.46,6.41,9.48,1.43-12.03,1.15,1.63,1.87,5.07s17.59,14.63,21.38,26.23c3.17,9.68,2.18,29.69,4.1,35.12l14.87,12.08Z"/>
          <path class="cls-12" d="m39.45,205c-.27.81-17.32,7.66-18.13,13.63s12.25,52.13,12.25,52.13l20.71,18.3h53.19l-16.87-31.59c-3.64-6.81-8.23-13.06-13.65-18.56-4.99-5.06-11.04-11.32-14.15-15.06-3.37-4.05-17.66-22.95-17.66-22.95l-5.68,4.1Z"/>
          <path class="cls-4" d="m50.12,206.89c.03-.06,1.18.46,3.01,1.35s4.34,2.16,7.11,3.59c1.1.57,2.15,1.12,3.13,1.64l-.36.24c-.14-2.27.08-4.22.34-5.57.26-1.35.54-2.12.58-2.11.06.02-.11.81-.28,2.16-.17,1.35-.32,3.27-.15,5.49l.03.44-.39-.2c-.98-.5-2.04-1.05-3.14-1.61-2.76-1.43-5.25-2.75-7.04-3.73-1.79-.98-2.88-1.62-2.84-1.68Z"/>
          <path class="cls-4" d="m91.12,248.99s-.33-.47-.85-1.35c-.56-.97-1.29-2.24-2.17-3.77-1.82-3.18-4.36-7.58-7.22-12.39-2.87-4.81-5.53-9.13-7.46-12.25-.93-1.5-1.7-2.75-2.28-3.7-.53-.88-.81-1.37-.78-1.39s.37.44.95,1.28c.59.84,1.42,2.08,2.42,3.61,2.01,3.07,4.73,7.36,7.6,12.18,2.87,4.81,5.35,9.24,7.1,12.47.87,1.62,1.56,2.93,2.03,3.85.46.92.7,1.43.67,1.45Z"/>
          <g class="cls-13">
            <path class="cls-3" d="m82.93,281.17c3.09.52,6.26,1.05,9.34.46,3.08-.59,6.1-2.53,7.06-5.51.3-.93.43-2,1.15-2.66,1.19-1.1,3.08-.42,4.7-.57,1.8-.16,3.34-1.45,4.28-3,.94-1.55,1.37-3.34,1.79-5.09.21-.87.42-1.76.32-2.65s-.57-1.79-1.38-2.15c-1.22-.55-2.59.25-3.68,1.03-8.77,6.32-16.76,13.63-24.73,20.93"/>
          </g>
        </g>
        <path class="cls-8" d="m102.79,245.93s3.05-7,4.68-7.97c1.63-.97,9.71-5.69,9.71-5.69l-1.04,3.85,7.9-5.49c.97-.65,6.62-5.78,7.62-3.78.72,1.44-3.89,5.24-4.51,6.08-1.54,2.11-1.03,1.92-1.03,1.92,0,0,1.67,1.01.83,2.5-.84,1.49-2.26,3.32-2.26,3.32,0,0,2.2.78.92,3.64,0,0,.58,1.54.22,3.67-.36,2.13-4.22,6.19-4.22,6.19l-19.24,9.16-7.76-13.17,8.17-4.25Z"/>
        <path class="cls-12" d="m57.99,232.78l12.34,26.34,27.36-11.89s11.36,6.62,9.78,13.86l-24.65,20.25c-4.67,3.83-10.7,5.59-16.7,4.85h0c-6.44-.79-12.2-4.37-15.77-9.79l-17.84-27.15-9.98-16.31c-3.19-5.22-3.19-11.94.42-16.88.99-1.35,2.16-2.48,3.52-3.31,4.45-2.71,17.69-3.89,31.51,20.01Z"/>
        <path class="cls-11" d="m118.67,234.3c.07.11-1.73,1.35-4.02,2.77-2.29,1.41-4.2,2.47-4.27,2.35-.07-.11,1.73-1.35,4.02-2.77,2.29-1.41,4.2-2.47,4.27-2.35Z"/>
        <path class="cls-11" d="m126.38,234.06c.09.1-1.52,1.83-3.59,3.88-2.08,2.04-3.84,3.62-3.93,3.53-.1-.09,1.51-1.83,3.59-3.88,2.08-2.05,3.84-3.63,3.93-3.53Z"/>
        <path class="cls-11" d="m125.35,239.99c.1.09-.65,1.14-1.68,2.35-1.03,1.21-1.95,2.13-2.06,2.04s.65-1.14,1.68-2.35c1.03-1.21,1.95-2.13,2.06-2.04Z"/>
        <path class="cls-11" d="m125.7,243.99c.1.09-.32.74-.86,1.52-.54.77-1.01,1.4-1.13,1.33-.12-.06.17-.81.73-1.61.56-.8,1.16-1.32,1.26-1.24Z"/>
        <path class="cls-4" d="m78.61,283.95s.04-.05.13-.12c.1-.09.23-.19.39-.33.37-.3.89-.72,1.55-1.25,1.39-1.1,3.39-2.68,5.91-4.68,5.13-4.02,12.41-9.73,21.09-16.54l-.09.17c0-1.34-.24-2.72-.78-4.03-.57-1.3-1.34-2.54-2.27-3.71-1.9-2.29-4.31-4.34-7-6.01h.23c-4.53,1.98-9.28,4.05-14.17,6.18-4.52,1.96-8.94,3.88-13.19,5.73l-.22.1-.11-.21c-3.63-7.14-6.98-13.87-10.38-19.71-1.69-2.93-3.36-5.64-4.94-8.17-1.58-2.52-3.02-4.87-4.49-6.89-2.87-4.1-6.1-6.61-8.52-7.9-.59-.35-1.14-.62-1.62-.85-.47-.24-.88-.42-1.21-.56-.31-.14-.56-.25-.75-.33-.17-.08-.25-.12-.25-.13,0,0,1.46.42,3.91,1.71,1.22.65,2.67,1.55,4.18,2.85,1.52,1.28,3.04,2.99,4.53,5.01,1.5,2.02,2.96,4.37,4.55,6.88,1.59,2.51,3.29,5.23,4.99,8.15,3.44,5.84,6.81,12.56,10.45,19.7l-.33-.12c4.25-1.85,8.67-3.77,13.19-5.74,4.88-2.12,9.64-4.18,14.17-6.15l.12-.05.11.07c2.76,1.72,5.18,3.79,7.12,6.14.95,1.2,1.75,2.48,2.33,3.83.56,1.37.81,2.82.79,4.23v.1s-.09.07-.09.07c-8.73,6.75-16.05,12.4-21.21,16.39-2.56,1.96-4.58,3.51-5.99,4.58-.68.51-1.21.91-1.59,1.2-.17.12-.3.22-.41.3-.09.07-.14.1-.15.09Z"/>
        <path class="cls-4" d="m68.67,267.4c-.14-.06.61-1.94,1.04-4.38.45-2.43.4-4.46.56-4.47.13-.02.42,2.05-.04,4.56-.45,2.51-1.44,4.35-1.56,4.28Z"/>
      </g>
      <g>
        <g>
          <g>
            <path class="cls-12" d="m219.2,344.77l14.33,17.95s23.06-8.54,26.03-5.48l-33.81,29.03-23.47-27.05,16.92-14.45Z"/>
            <g class="cls-14">
              <path class="cls-7" d="m221.82,370.23c-.5.74-.32,1.86.4,2.4.72.53,1.86.36,2.38-.37.51-.73.34-2.09-.44-2.53-.77-.45-2.11-.17-2.43.66"/>
            </g>
            <g class="cls-14">
              <path class="cls-7" d="m225.75,386.27l-2.26-2.82,33.26-26.78s2.07-.64,2.81.57l-33.81,29.03Z"/>
            </g>
            <path class="cls-4" d="m233.93,362.08c.14.17-.62.95-.98,2.18-.39,1.22-.19,2.29-.4,2.36-.18.1-.78-1.1-.32-2.58.44-1.48,1.61-2.14,1.71-1.96Z"/>
            <path class="cls-4" d="m238.74,360.5c.18.13-.3,1.02-.26,2.2,0,1.18.51,2.06.34,2.19-.13.16-1.08-.71-1.1-2.18-.03-1.47.88-2.37,1.02-2.22Z"/>
            <path class="cls-4" d="m244.39,363.01c-.12.16-1.06-.46-1.41-1.73-.36-1.27.11-2.29.3-2.21.21.06.12.97.43,2.01.28,1.04.83,1.78.68,1.94Z"/>
            <path class="cls-4" d="m230.21,358.35c.06.21-.89.63-1.77,1.5-.9.85-1.35,1.78-1.56,1.72-.2-.04-.01-1.26,1.04-2.26,1.04-1.01,2.27-1.15,2.3-.95Z"/>
          </g>
          <g class="cls-13">
            <polygon class="cls-3" points="222.03 348.33 224.59 351.52 207.85 365.64 205.43 362.86 222.03 348.33"/>
          </g>
          <path class="cls-4" d="m227.25,354.78c.06.07-.5.73-1.7,1.45-.6.36-1.35.71-2.24.98-.44.13-.92.24-1.42.32-.24.03-.51.09-.85.04-.33-.02-.81-.36-.83-.81-.05-.41.16-.78.4-1,.24-.22.49-.35.71-.46.45-.23.92-.41,1.36-.54.9-.26,1.74-.34,2.44-.32,1.41.05,2.21.44,2.18.52-.03.12-.85-.07-2.17.02-.65.04-1.43.17-2.24.45-.41.14-.82.32-1.23.53-.44.21-.75.47-.7.71.02.09.04.12.2.16.16.03.39,0,.63-.03.47-.06.91-.15,1.33-.26.84-.21,1.58-.5,2.18-.78,1.2-.56,1.88-1.06,1.95-.97Z"/>
          <path class="cls-4" d="m227.24,355.2c-.04.08-.87-.23-1.85-1.25-.48-.51-.98-1.2-1.36-2.05-.19-.43-.34-.9-.45-1.4-.09-.5-.23-1.16.35-1.78.32-.3.83-.28,1.11-.13.31.13.5.31.71.47.4.34.73.74.98,1.14.51.81.73,1.66.78,2.37.09,1.44-.43,2.23-.49,2.19-.13-.04.18-.85-.04-2.12-.11-.63-.36-1.37-.83-2.05-.24-.34-.53-.67-.87-.95-.36-.31-.75-.49-.85-.34-.17.14-.22.66-.12,1.06.09.45.21.88.37,1.28.31.79.72,1.46,1.12,1.97.81,1.03,1.51,1.5,1.44,1.6Z"/>
        </g>
        <g>
          <g>
            <path class="cls-12" d="m203.63,400.1l-.89,23.48s23.57,8.79,23.83,13.15l-45.6-.09-.11-36.65,22.77.11Z"/>
            <g class="cls-14">
              <path class="cls-7" d="m188.64,421.58c-.88.24-1.49,1.23-1.29,2.12.2.89,1.21,1.52,2.09,1.3.89-.22,1.66-1.39,1.36-2.25-.3-.86-1.52-1.54-2.33-1.11"/>
            </g>
            <g class="cls-14">
              <path class="cls-7" d="m180.97,436.64l.13-3.69,43.67,1.47s2.03.89,1.8,2.32l-45.6-.09Z"/>
            </g>
            <path class="cls-4" d="m203.48,423.35c0,.22-1.12.32-2.22,1.04-1.12.69-1.68,1.65-1.89,1.56-.21-.04.13-1.37,1.47-2.21,1.34-.85,2.68-.58,2.63-.38Z"/>
            <path class="cls-4" d="m208.26,425.34c.05.22-.91.59-1.67,1.53-.79.92-.98,1.94-1.2,1.93-.21.03-.36-1.27.6-2.42.95-1.16,2.26-1.25,2.27-1.04Z"/>
            <path class="cls-4" d="m210.96,431.07c-.2.05-.51-1.07.06-2.28.57-1.22,1.62-1.7,1.71-1.52.13.18-.55.84-1.01,1.84-.48,1-.55,1.93-.77,1.96Z"/>
            <path class="cls-4" d="m203.09,417.98c-.09.2-1.11-.11-2.37-.02-1.26.06-2.24.48-2.36.29-.13-.16.83-.98,2.31-1.06,1.48-.09,2.53.62,2.42.8Z"/>
          </g>
          <g class="cls-13">
            <polygon class="cls-3" points="203.45 404.75 203.29 408.94 180.88 408.69 180.86 404.92 203.45 404.75"/>
          </g>
          <path class="cls-4" d="m203.18,413.24c0,.09-.88.23-2.28-.02-.7-.12-1.52-.35-2.39-.74-.43-.19-.87-.42-1.31-.7-.21-.14-.46-.27-.69-.54-.25-.23-.39-.82-.1-1.18.23-.35.65-.5.98-.51.34-.01.61.06.86.12.51.12.98.29,1.42.49.87.4,1.58.9,2.1,1.39,1.06.98,1.42,1.81,1.34,1.86-.1.07-.61-.62-1.69-1.44-.54-.4-1.22-.82-2.03-1.15-.41-.16-.85-.3-1.31-.41-.48-.13-.89-.13-1.02.08-.05.08-.05.11.05.26.1.13.3.26.51.39.4.26.81.49,1.2.69.79.4,1.55.67,2.21.85,1.31.37,2.16.43,2.16.55Z"/>
          <path class="cls-4" d="m202.89,413.56c-.08.03-.52-.76-.6-2.21-.04-.72.04-1.58.32-2.5.14-.46.33-.93.58-1.39.27-.45.6-1.05,1.46-1.15.45-.02.82.34.95.64.15.31.18.57.23.84.08.53.07,1.05,0,1.54-.15.97-.54,1.78-.98,2.36-.89,1.18-1.82,1.44-1.84,1.37-.07-.11.7-.54,1.39-1.67.34-.56.64-1.3.73-2.14.05-.42.04-.87-.04-1.32-.07-.48-.25-.88-.43-.83-.23,0-.61.36-.8.75-.23.41-.42.83-.57,1.24-.29.82-.41,1.61-.45,2.28-.06,1.34.17,2.17.05,2.21Z"/>
        </g>
        <g>
          <polygon class="cls-4" points="180.51 289.06 225.63 349.03 204.52 367.16 182.79 338.74 180.51 289.06"/>
          <path class="cls-4" d="m84.97,291.93s72.59-22.11,79.24-21.84c6.65.28,19.27,24.29,19.27,24.29l-20.38-.74c-5.23,12.83-14.89,26.03-25.77,39.34l-41.67-1.94-10.69-39.12Z"/>
          <path class="cls-4" d="m144.31,274.46c.04.14-7.42,2.48-16.66,5.22-9.25,2.75-16.77,4.86-16.81,4.73-.04-.14,7.42-2.48,16.67-5.22,9.24-2.75,16.77-4.86,16.81-4.73Z"/>
          <path class="cls-4" d="m161.18,293.26h20.38c10.17,0,19.23,6.42,22.61,16.01h0c1.59,4.52,2.29,9.3,2.06,14.08l-1.59,82.91h-27.44l-.49-26.5-3.47-50.38-23.75,1-13.46-.84,25.15-36.3Z"/>
          <path class="cls-5" d="m161.79,292.84s-.1.63-.38,1.75c-.25,1.13-.76,2.72-1.44,4.68-.75,1.93-1.67,4.22-3.03,6.6-1.33,2.39-2.99,4.92-4.96,7.38-3.98,4.92-8.14,8.84-11.08,11.72-1.44,1.38-2.63,2.53-3.52,3.38-.84.79-1.31,1.22-1.34,1.2-.03-.03.4-.5,1.19-1.34.79-.84,1.96-2.03,3.4-3.5,2.88-2.95,6.99-6.9,10.94-11.78,3.94-4.89,6.57-9.97,8.05-13.79.72-1.92,1.28-3.49,1.59-4.6.34-1.1.54-1.71.58-1.7Z"/>
          <path class="cls-5" d="m186.71,293.82c0,.08-1.42-.05-3.7-.18-2.28-.13-5.44-.22-8.92-.15-3.49.07-6.64.27-8.92.43-2.28.16-3.7.27-3.7.19,0-.04.34-.11.98-.21.63-.1,1.55-.22,2.69-.35,2.28-.25,5.44-.52,8.95-.58,3.5-.07,6.68.08,8.96.3,1.14.11,2.06.23,2.7.33.63.1.98.18.98.21Z"/>
          <path class="cls-4" d="m177.09,391.11s-.04-.24-.07-.69c-.03-.51-.06-1.16-.11-1.98-.08-1.78-.19-4.26-.33-7.3-.27-6.16-.64-14.67-1.23-24.06-.59-9.39-1.29-17.88-1.8-24.03-.25-3.03-.45-5.5-.59-7.28-.06-.82-.1-1.48-.14-1.98-.03-.45-.03-.69-.01-.69s.06.23.12.68c.06.5.14,1.16.24,1.97.19,1.78.44,4.24.76,7.27.6,6.14,1.35,14.63,1.95,24.03.59,9.4.9,17.91,1.08,24.08.07,3.04.12,5.52.16,7.3,0,.82,0,1.48.01,1.99,0,.45-.01.69-.03.69Z"/>
          <path class="cls-5" d="m206.27,320.15c.14,0,.05,19-.22,42.43-.26,23.44-.59,42.43-.74,42.43-.14,0-.05-19,.22-42.43.26-23.43.59-42.43.74-42.42Z"/>
          <path class="cls-4" d="m183.88,317.05c.05.16-2.81.88-5.85,2.76-3.06,1.86-5,4.08-5.11,3.97-.05-.04.37-.65,1.2-1.51.83-.86,2.09-1.94,3.64-2.9,1.56-.95,3.1-1.59,4.24-1.93,1.14-.35,1.87-.45,1.89-.39Z"/>
          <g class="cls-13">
            <path class="cls-3" d="m136.03,329.56c5.53,1.02,11.61-.67,16.35-3.63,4.74-2.96,8.25-7.73,9.6-13.04.61-2.39.79-4.86,1.39-7.25.6-2.39,1.7-4.78,3.71-6.27,2.32-1.73,8.04-2.83,9.74-5.14,0-.35-6.77.44-9.05.56-2.48.14-6.63.76-6.54.47,0,0-1.66,5.81-2.39,7.07-4.95,8.49-15.8,20.96-22.81,27.24"/>
          </g>
        </g>
        <g>
          <polygon class="cls-4" points="22.9 388.26 30.61 438.73 38.27 438.73 34.5 388.45 22.9 388.26"/>
          <polygon class="cls-4" points="158.69 388.45 158.69 438.73 166.77 438.73 169.78 388.26 158.69 388.45"/>
          <g>
            <path class="cls-5" d="m21.53,232.28s-10.81.43-14.12,4.96c-5.83,7.99-2.56,14.92-2.88,17.28s18.37,133.73,18.37,133.73h7.7l139.18,1.28,6.68-16.24-3.21-43.91-37.21.17s-15.24-43.74-28.56-46.67c-9.02-1.98-30.21-1.28-42.96-.62-6.36.33-12.42-2.76-15.88-8.1l-27.1-41.89Z"/>
            <path class="cls-4" d="m144.88,383.1s-.77.1-2.25.17c-1.48.04-3.66.11-6.48.14-5.64.08-13.84.1-24.04.09-20.41-.02-48.85-.18-81.02-.46h-.21s-.04-.2-.04-.2c-.58-2.75-1.17-5.58-1.78-8.46-.58-2.88-1.16-5.81-1.75-8.76-6.99-35.62-11.08-68.26-13.28-91.93-1.11-11.84-1.77-21.43-2.19-28.07-.18-3.31-.32-5.88-.42-7.64-.04-.86-.07-1.52-.09-1.99-.02-.45-.01-.68-.01-.68,0,0,.03.23.07.68.03.46.08,1.12.15,1.99.12,1.76.29,4.33.52,7.64.48,6.63,1.2,16.22,2.35,28.05,2.3,23.65,6.45,56.26,13.43,91.86.59,2.95,1.18,5.88,1.75,8.75.6,2.87,1.19,5.7,1.77,8.45l-.25-.2c32.15.25,60.59.47,81.01.63,10.19.03,18.38.05,24.04.06,2.81-.02,4.99-.03,6.48-.05.74,0,1.3-.05,1.67-.06.38-.02.57-.01.57-.01Z"/>
            <path class="cls-4" d="m143.42,389.3s0-.22.06-.63c.07-.46.16-1.05.26-1.77.13-.77.28-1.71.4-2.81.13-1.1.32-2.34.42-3.73.13-1.38.27-2.9.33-4.53.11-1.63.11-3.38.14-5.21-.02-3.67-.22-7.71-.7-11.92-.51-4.21-1.25-8.18-2.06-11.76-.84-3.58-1.75-6.76-2.61-9.4-.4-1.33-.85-2.51-1.2-3.55-.35-1.05-.69-1.94-.97-2.66-.25-.69-.46-1.24-.62-1.68-.14-.39-.2-.59-.18-.6.02,0,.11.19.28.56.18.43.42.97.71,1.65.31.72.68,1.6,1.06,2.64.38,1.04.86,2.21,1.28,3.54.91,2.64,1.86,5.82,2.73,9.41.84,3.59,1.6,7.58,2.11,11.81.48,4.23.66,8.29.66,11.98-.04,1.84-.06,3.6-.19,5.23-.08,1.64-.24,3.16-.39,4.55-.12,1.39-.34,2.63-.5,3.73-.15,1.1-.33,2.03-.48,2.8-.15.72-.27,1.3-.36,1.76-.09.4-.14.61-.16.61Z"/>
            <path class="cls-4" d="m41.43,295.18s.18-.18.56-.47c.42-.32.98-.75,1.68-1.28.37-.28.78-.59,1.22-.92.47-.31.99-.61,1.55-.95,1.13-.66,2.36-1.49,3.87-2.16.74-.36,1.51-.74,2.32-1.13.8-.4,1.69-.69,2.59-1.06.9-.34,1.82-.75,2.8-1.06.98-.31,1.99-.63,3.03-.96,4.17-1.21,8.84-2.28,13.82-2.87,4.97-.63,9.75-.92,14.09-.85,2.17-.04,4.23.14,6.16.21,1.92.18,3.72.3,5.34.53,3.26.42,5.86.96,7.64,1.4.84.23,1.52.42,2.04.56.46.13.7.21.7.23s-.26-.03-.73-.13c-.52-.12-1.2-.27-2.05-.47-1.79-.38-4.39-.86-7.64-1.23-1.62-.21-3.41-.31-5.33-.47-1.92-.05-3.97-.21-6.13-.16-4.32-.04-9.08.27-14.02.89-4.95.59-9.6,1.64-13.75,2.82-1.03.32-2.04.63-3.01.93-.98.3-1.89.7-2.79,1.03-.89.36-1.78.64-2.58,1.03-.81.38-1.58.74-2.32,1.09-1.51.64-2.75,1.45-3.88,2.08-.56.33-1.09.62-1.57.91-.45.32-.86.61-1.24.88-.72.5-1.29.9-1.73,1.2-.4.27-.62.41-.63.39Z"/>
          </g>
          <path class="cls-7" d="m124.14,302.29s-.02.11-.1.33c-.07.21-.17.54-.34.95-.36.8-.95,1.99-2.05,3.28-1.09,1.28-2.7,2.64-4.81,3.78-1.07.55-2.25,1.05-3.54,1.47-1.3.39-2.71.7-4.21.86-3.01.32-6.33.08-9.81-.55-3.48-.62-7.12-1.63-10.96-2.55-3.84-.9-7.94-1.71-12.22-1.62-2.14.04-4.3.34-6.4.98-2.1.63-4.1,1.68-5.93,3.01-3.67,2.67-6.41,6.28-8.69,9.89-2.29,3.64-4.1,7.38-6.03,10.85-1.91,3.47-3.93,6.7-6.26,9.38-2.3,2.69-4.94,4.81-7.7,6.08-2.75,1.26-5.48,1.83-7.88,1.86-2.4.03-4.46-.45-6-1.12-.79-.31-1.41-.73-1.97-1.06-.51-.39-.95-.73-1.28-1.03-.29-.31-.52-.55-.69-.73-.15-.17-.23-.25-.22-.26,0,0,.1.07.26.22.18.17.42.4.72.69.33.28.78.6,1.29.98.56.31,1.18.72,1.96,1.01,1.53.63,3.56,1.08,5.92,1.02,2.36-.05,5.04-.65,7.73-1.9,2.69-1.26,5.26-3.36,7.53-6.03,2.28-2.66,4.27-5.86,6.16-9.33,1.91-3.46,3.72-7.22,6.01-10.89,2.29-3.65,5.05-7.31,8.81-10.04,1.87-1.35,3.92-2.43,6.09-3.08,2.16-.66,4.37-.96,6.55-1,4.36-.09,8.49.74,12.35,1.66,3.85.94,7.48,1.96,10.93,2.59,3.45.65,6.73.91,9.69.61,1.48-.15,2.87-.44,4.15-.81,1.28-.4,2.45-.88,3.51-1.41,2.09-1.1,3.69-2.41,4.79-3.65,2.2-2.54,2.54-4.48,2.64-4.42Z"/>
          <path class="cls-7" d="m175.01,366.26s-.15.04-.44.11c-.31.06-.74.15-1.29.26-.57.09-1.23.39-2.04.63-.41.11-.8.35-1.25.54-.44.21-.92.4-1.38.7-1.93,1.05-4.06,2.71-6.37,4.82-2.32,2.09-4.8,4.67-7.84,7.2-1.53,1.25-3.2,2.51-5.14,3.49-.94.55-2,.91-3.05,1.32-.55.15-1.1.29-1.65.44-.55.17-1.14.19-1.72.3-2.32.3-4.78.17-7.21-.37-2.44-.52-4.84-1.49-7.17-2.67-4.67-2.39-9.07-5.75-13.28-9.57-4.19-3.81-8.49-7.84-13.49-11.13-2.5-1.64-5.13-3.03-7.89-3.93-2.75-.92-5.62-1.33-8.42-1.17-2.8.16-5.5.89-8,1.92-2.51,1.03-4.83,2.33-7.05,3.69-4.42,2.73-8.44,5.65-12.53,7.88-4.1,2.2-8.2,3.73-12.04,4.65-7.71,1.9-14.22,1.65-18.58,1.12-4.38-.58-6.71-1.36-6.71-1.36,0,0,.15.02.44.08.31.07.74.16,1.29.28,1.13.24,2.82.55,5,.8,4.35.47,10.83.65,18.47-1.28,3.81-.94,7.86-2.47,11.92-4.67,4.05-2.23,8.05-5.15,12.49-7.91,2.22-1.37,4.57-2.69,7.11-3.74,2.54-1.05,5.29-1.8,8.16-1.97,2.87-.17,5.81.25,8.61,1.18,2.81.92,5.48,2.33,8.01,3.99,5.06,3.33,9.36,7.38,13.55,11.19,4.18,3.8,8.54,7.15,13.15,9.52,2.3,1.17,4.66,2.13,7.05,2.65,2.39.53,4.78.67,7.05.39.56-.1,1.14-.12,1.68-.28.54-.14,1.08-.29,1.62-.43,1.03-.4,2.06-.74,2.99-1.28,1.91-.96,3.57-2.19,5.09-3.42,3.03-2.49,5.53-5.05,7.88-7.13,2.33-2.09,4.5-3.74,6.47-4.78.47-.3.96-.48,1.41-.69.45-.19.85-.42,1.27-.53.82-.23,1.49-.52,2.07-.59.56-.09.99-.16,1.31-.21.29-.04.45-.05.45-.05Z"/>
          <path class="cls-7" d="m35.84,257.03s-.04.46-.27,1.26c-.22.8-.64,1.94-1.34,3.27-1.35,2.64-4.06,6.02-8.15,8.16-4.1,2.14-8.42,2.43-11.36,2.03-1.48-.19-2.66-.5-3.44-.77-.79-.27-1.2-.47-1.19-.5.03-.11,1.75.62,4.68.9,2.9.3,7.1-.05,11.08-2.13,3.98-2.08,6.66-5.33,8.07-7.87,1.45-2.56,1.83-4.39,1.93-4.35Z"/>
        </g>
      </g>
    </g>
    <g id="Speech_Bubble" data-name="Speech Bubble">
      <g>
        <g>
          <path class="cls-7" d="m95.36,137.41l1.09-12.92c-4.49-2.99-8.25-7.21-10.67-12.48-6.98-15.13-.37-33.05,14.76-40.03,15.13-6.98,33.05-.37,40.03,14.76,6.98,15.13.37,33.05-14.76,40.03-6.32,2.91-13.12,3.45-19.41,1.99h.02s-11.05,8.64-11.05,8.64Z"/>
          <path class="cls-4" d="m95.36,137.41c.53-.41,4.04-3.11,11.1-8.56l.11-.09-.13-.07h-.01s-.06.16-.06.16c2.12.49,4.54.82,7.2.8,2.65-.04,5.55-.4,8.5-1.32,1.47-.46,2.98-1.02,4.44-1.78.73-.39,1.48-.75,2.22-1.17.71-.47,1.43-.94,2.15-1.42,2.82-2.04,5.45-4.68,7.56-7.88,2.11-3.19,3.71-6.94,4.49-11.01.79-4.06.78-8.44-.25-12.72-1.04-4.28-3.04-8.45-5.94-12.04-2.91-3.57-6.67-6.64-11.07-8.56l-1.69-.72c-.56-.24-1.16-.38-1.73-.58-.58-.17-1.15-.4-1.74-.51l-1.77-.38c-.58-.15-1.18-.21-1.78-.27-.59-.07-1.19-.14-1.78-.2-.6-.01-1.19-.02-1.78-.04-.59,0-1.18-.05-1.77.02-4.71.26-9.23,1.61-13.15,3.78-3.92,2.16-7.27,5.12-9.74,8.53-2.48,3.4-4.16,7.19-5.05,10.96-.9,3.78-1.03,7.55-.57,11.04.47,3.5,1.61,6.66,2.92,9.46,1.38,2.78,3.09,5.14,4.89,7.08,1.8,1.94,3.69,3.45,5.47,4.63l-.04-.08c-.64,8.26-.95,12.29-1,12.93.06-.63.43-4.66,1.18-12.91v-.05s-.04-.03-.04-.03c-1.76-1.19-3.63-2.7-5.4-4.63-1.78-1.93-3.46-4.28-4.82-7.04-1.29-2.79-2.41-5.92-2.86-9.39-.44-3.46-.31-7.19.6-10.93.89-3.74,2.56-7.48,5.02-10.84,2.44-3.37,5.76-6.29,9.64-8.42,3.88-2.14,8.35-3.47,13-3.72.58-.07,1.16-.02,1.75-.02.58.01,1.17.02,1.76.04.58.07,1.17.13,1.76.2.59.06,1.18.12,1.76.27l1.75.37c.59.11,1.14.34,1.72.51.57.19,1.16.33,1.71.57l1.67.71c4.35,1.9,8.06,4.93,10.94,8.45,2.87,3.55,4.85,7.67,5.88,11.89,1.02,4.23,1.03,8.56.26,12.57-.77,4.02-2.34,7.73-4.42,10.89-2.08,3.17-4.68,5.79-7.47,7.82-.72.48-1.43.95-2.13,1.41-.73.42-1.47.78-2.19,1.17-1.44.76-2.94,1.32-4.39,1.78-2.93.92-5.8,1.29-8.43,1.34-2.64.03-5.05-.28-7.16-.75l-.06.17h.01s-.01-.15-.01-.15c-7,5.54-10.47,8.29-10.99,8.71Z"/>
        </g>
        <g>
          <path class="cls-12" d="m108.9,83.99l.94,17.56c.08,1.44,1.21,2.59,2.65,2.69h0c1.51.11,2.84-.99,3.02-2.5l2.12-17.61c.16-1.33-.88-2.51-2.23-2.5l-4.28.02c-1.28,0-2.29,1.08-2.22,2.35Z"/>
          <path class="cls-12" d="m117.07,113.07c-.75,2.24-3.17,3.46-5.41,2.71-2.24-.75-3.46-3.17-2.72-5.41.75-2.24,3.17-3.46,5.41-2.72,2.24.75,3.46,3.17,2.72,5.41Z"/>
        </g>
      </g>
    </g>
  </g>
  <g id="Layer_11" data-name="Layer 11">
    <path class="cls-12" d="m371.66,216.55c0-5.24,0-7.85.85-9.92,1.14-2.75,3.33-4.94,6.08-6.08,2.07-.85,4.68-.85,9.92-.85h0c5.24,0,7.85,0,9.92.85,2.75,1.14,4.94,3.33,6.08,6.08.85,2.07.85,4.68.85,9.92h0c0,5.24,0,7.85-.85,9.92-1.14,2.75-3.33,4.94-6.08,6.08-2.07.85-4.68.85-9.92.85h0c-5.24,0-7.85,0-9.92-.85-2.75-1.14-4.94-3.33-6.08-6.08-.85-2.07-.85-4.68-.85-9.92h0Z"/>
    <g>
      <path class="cls-7" d="m388.52,206.02c-5.82,0-10.53,4.71-10.53,10.53s4.71,10.53,10.53,10.53,10.53-4.71,10.53-10.53-4.71-10.53-10.53-10.53Zm0,15.04c-2.49,0-4.51-2.02-4.51-4.51,0-1.69.93-3.16,2.31-3.93l2.2,1.21,2.2-1.21c1.38.77,2.31,2.24,2.31,3.93,0,2.49-2.02,4.51-4.51,4.51Z"/>
      <path class="cls-1" d="m396.31,209.52l-5.6,3.1c1.38.77,2.31,2.24,2.31,3.93,0,2.49-2.02,4.51-4.51,4.51v5.99c5.8,0,10.5-4.7,10.5-10.5,0-2.7-1.02-5.17-2.7-7.03Z"/>
      <path class="cls-2" d="m384.01,216.55c0-1.69.93-3.16,2.31-3.93l-5.6-3.1c-1.68,1.86-2.7,4.33-2.7,7.03,0,5.8,4.7,10.5,10.5,10.5v-5.99c-2.49,0-4.51-2.02-4.51-4.51Z"/>
    </g>
  </g>
  <g id="Layer_13" data-name="Layer 13">
    <g>
      <path class="cls-4" d="m247.94,198.52h-4.55l-.87,2.1h-2.33l4.37-9.81h2.24l4.38,9.81h-2.38l-.87-2.1Zm-.71-1.72l-1.55-3.75-1.55,3.75h3.11Z"/>
      <path class="cls-4" d="m260.26,196.85c0,2.37-1.64,3.88-3.75,3.88-1.01,0-1.82-.32-2.37-.98v.87h-2.09v-10.39h2.18v3.66c.56-.62,1.33-.91,2.27-.91,2.12,0,3.75,1.51,3.75,3.88Zm-2.21,0c0-1.3-.83-2.09-1.92-2.09s-1.92.78-1.92,2.09.83,2.09,1.92,2.09,1.92-.78,1.92-2.09Z"/>
      <path class="cls-4" d="m260.99,199.92l.73-1.57c.67.43,1.69.73,2.62.73,1.01,0,1.39-.27,1.39-.69,0-1.23-4.55.03-4.55-2.98,0-1.43,1.29-2.44,3.49-2.44,1.04,0,2.19.24,2.9.66l-.73,1.55c-.74-.42-1.48-.56-2.17-.56-.98,0-1.4.31-1.4.7,0,1.29,4.55.04,4.55,3.01,0,1.4-1.3,2.4-3.56,2.4-1.27,0-2.56-.35-3.26-.81Z"/>
      <path class="cls-4" d="m276.49,197.46h-5.7c.21.94,1.01,1.51,2.16,1.51.8,0,1.37-.24,1.89-.73l1.16,1.26c-.7.8-1.75,1.22-3.11,1.22-2.61,0-4.3-1.64-4.3-3.88s1.72-3.88,4.02-3.88,3.92,1.48,3.92,3.91c0,.17-.03.41-.04.59Zm-5.73-1.27h3.71c-.15-.95-.87-1.57-1.85-1.57s-1.71.6-1.86,1.57Z"/>
      <path class="cls-4" d="m285.69,196.3v4.31h-2.19v-3.98c0-1.22-.56-1.78-1.53-1.78-1.05,0-1.81.64-1.81,2.03v3.73h-2.18v-7.54h2.09v.88c.59-.64,1.47-.99,2.49-.99,1.78,0,3.12,1.04,3.12,3.33Z"/>
      <path class="cls-4" d="m287.1,196.85c0-2.27,1.75-3.88,4.2-3.88,1.58,0,2.83.69,3.38,1.92l-1.7.91c-.41-.71-1.01-1.04-1.69-1.04-1.11,0-1.98.77-1.98,2.09s.87,2.09,1.98,2.09c.69,0,1.29-.31,1.69-1.04l1.7.92c-.55,1.2-1.79,1.9-3.38,1.9-2.45,0-4.2-1.61-4.2-3.88Z"/>
      <path class="cls-4" d="m303.27,197.46h-5.7c.21.94,1.01,1.51,2.16,1.51.8,0,1.37-.24,1.89-.73l1.16,1.26c-.7.8-1.75,1.22-3.11,1.22-2.61,0-4.3-1.64-4.3-3.88s1.72-3.88,4.02-3.88,3.92,1.48,3.92,3.91c0,.17-.03.41-.04.59Zm-5.73-1.27h3.71c-.15-.95-.87-1.57-1.85-1.57s-1.71.6-1.86,1.57Z"/>
      <path class="cls-4" d="m315.34,198.52h-4.55l-.87,2.1h-2.33l4.37-9.81h2.24l4.38,9.81h-2.38l-.87-2.1Zm-.71-1.72l-1.55-3.75-1.55,3.75h3.11Z"/>
      <path class="cls-4" d="m319.45,190.22h2.18v10.39h-2.18v-10.39Z"/>
      <path class="cls-4" d="m331,197.46h-5.7c.21.94,1.01,1.51,2.16,1.51.8,0,1.37-.24,1.89-.73l1.16,1.26c-.7.8-1.75,1.22-3.11,1.22-2.61,0-4.3-1.64-4.3-3.88s1.72-3.88,4.02-3.88,3.92,1.48,3.92,3.91c0,.17-.03.41-.04.59Zm-5.73-1.27h3.71c-.15-.95-.87-1.57-1.85-1.57s-1.71.6-1.86,1.57Z"/>
      <path class="cls-4" d="m337.18,192.97v2.02c-.18-.01-.32-.03-.49-.03-1.21,0-2,.66-2,2.1v3.56h-2.18v-7.54h2.09v.99c.53-.73,1.43-1.11,2.59-1.11Z"/>
      <path class="cls-4" d="m343.39,200.25c-.45.32-1.11.48-1.78.48-1.78,0-2.82-.91-2.82-2.7v-3.1h-1.16v-1.68h1.16v-1.83h2.19v1.83h1.88v1.68h-1.88v3.07c0,.64.35.99.94.99.32,0,.64-.1.88-.28l.59,1.54Z"/>
    </g>
  </g>
</svg>