<?xml version="1.0" encoding="UTF-8"?>
<svg xmlns="http://www.w3.org/2000/svg" xmlns:xlink="http://www.w3.org/1999/xlink" viewBox="0 0 462.49 413.93">
  <defs>
    <style>
      .cls-1 {
        opacity: .1;
      }

      .cls-2 {
        fill: url(#linear-gradient);
      }

      .cls-2, .cls-3, .cls-4, .cls-5, .cls-6, .cls-7, .cls-8, .cls-9, .cls-10, .cls-11, .cls-12, .cls-13, .cls-14, .cls-15, .cls-16 {
        stroke-width: 0px;
      }

      .cls-17 {
        fill: none;
        stroke: #00bcd4;
        stroke-miterlimit: 10;
        stroke-width: 2px;
      }

      .cls-18 {
        opacity: .2;
      }

      .cls-19 {
        opacity: .3;
      }

      .cls-20 {
        opacity: .6;
      }

      .cls-3 {
        fill-rule: evenodd;
      }

      .cls-3, .cls-16 {
        fill: #00bcd4;
      }

      .cls-4 {
        fill: url(#linear-gradient-2);
      }

      .cls-6 {
        fill: #263238;
      }

      .cls-7 {
        fill: #455a64;
      }

      .cls-8 {
        fill: #181818;
      }

      .cls-9 {
        fill: #e0e0e0;
      }

      .cls-10 {
        fill: #7f5d55;
      }

      .cls-11 {
        fill: #fff;
      }

      .cls-12 {
        fill: #ffbf9d;
      }

      .cls-13 {
        fill: #fafafa;
      }

      .cls-14 {
        fill: #ebebeb;
      }

      .cls-15 {
        fill: #f5f5f5;
      }
    </style>
    <linearGradient id="linear-gradient" x1="394.76" y1="257.85" x2="397.88" y2="252.45" gradientTransform="translate(3.39 391.04) rotate(-.7) scale(1 -1)" gradientUnits="userSpaceOnUse">
      <stop offset=".08" stop-color="#a4a7a6"/>
      <stop offset=".09" stop-color="#a8abaa"/>
      <stop offset=".16" stop-color="#c2c5c3"/>
      <stop offset=".23" stop-color="#d8d9d8"/>
      <stop offset=".32" stop-color="#e9e9e9"/>
      <stop offset=".43" stop-color="#f5f5f5"/>
      <stop offset=".58" stop-color="#fcfcfc"/>
      <stop offset="1" stop-color="#fff"/>
    </linearGradient>
    <linearGradient id="linear-gradient-2" x1="393.34" y1="258.54" x2="390.85" y2="252.05" gradientTransform="translate(3.39 391.04) rotate(-.7) scale(1 -1)" gradientUnits="userSpaceOnUse">
      <stop offset=".03" stop-color="#a4a7a6"/>
      <stop offset=".04" stop-color="#a8abaa"/>
      <stop offset=".11" stop-color="#c2c5c3"/>
      <stop offset=".19" stop-color="#d8d9d8"/>
      <stop offset=".28" stop-color="#e9e9e9"/>
      <stop offset=".4" stop-color="#f5f5f5"/>
      <stop offset=".56" stop-color="#fcfcfc"/>
      <stop offset="1" stop-color="#fff"/>
    </linearGradient>
  </defs>
  <g id="Background_Complete" data-name="Background Complete">
    <g>
      <g>
        <rect class="cls-14" x="103.29" y="23.86" width="67.37" height="284.91" transform="translate(273.96 332.63) rotate(180)"/>
        <g>
          <rect class="cls-11" x="137.63" y="43.83" width="20.48" height="39.46" transform="translate(295.74 127.12) rotate(180)"/>
          <path class="cls-9" d="m147.29,83.29c.15,0,.27-8.83.27-19.73s-.12-19.73-.27-19.73-.27,8.83-.27,19.73.12,19.73.27,19.73Z"/>
          <path class="cls-9" d="m137.63,57.54c0,.15,4.58.27,10.24.27s10.24-.12,10.24-.27-4.58-.27-10.24-.27-10.24.12-10.24.27Z"/>
          <path class="cls-9" d="m137.52,71.65c0,.15,4.62.27,10.32.27s10.32-.12,10.32-.27-4.62-.27-10.32-.27-10.32.12-10.32.27Z"/>
        </g>
        <g>
          <rect class="cls-11" x="137.63" y="95.37" width="20.48" height="39.46" transform="translate(295.74 230.21) rotate(180)"/>
          <path class="cls-9" d="m147.29,134.83c.15,0,.27-8.83.27-19.73s-.12-19.73-.27-19.73-.27,8.83-.27,19.73.12,19.73.27,19.73Z"/>
          <path class="cls-9" d="m137.63,109.08c0,.15,4.58.27,10.24.27s10.24-.12,10.24-.27-4.58-.27-10.24-.27-10.24.12-10.24.27Z"/>
          <path class="cls-9" d="m137.52,123.19c0,.15,4.62.27,10.32.27s10.32-.12,10.32-.27-4.62-.27-10.32-.27-10.32.12-10.32.27Z"/>
        </g>
        <g>
          <rect class="cls-11" x="137.63" y="146.92" width="20.48" height="39.46" transform="translate(295.74 333.29) rotate(180)"/>
          <path class="cls-9" d="m147.29,186.38c.15,0,.27-8.83.27-19.73s-.12-19.73-.27-19.73-.27,8.83-.27,19.73.12,19.73.27,19.73Z"/>
          <path class="cls-9" d="m137.63,160.63c0,.15,4.58.27,10.24.27s10.24-.12,10.24-.27-4.58-.27-10.24-.27-10.24.12-10.24.27Z"/>
          <path class="cls-9" d="m137.52,174.74c0,.15,4.62.27,10.32.27s10.32-.12,10.32-.27-4.62-.27-10.32-.27-10.32.12-10.32.27Z"/>
        </g>
        <g>
          <rect class="cls-11" x="137.63" y="198.46" width="20.48" height="39.46" transform="translate(295.74 436.38) rotate(180)"/>
          <path class="cls-9" d="m147.29,237.92c.15,0,.27-8.83.27-19.73s-.12-19.73-.27-19.73-.27,8.83-.27,19.73.12,19.73.27,19.73Z"/>
          <path class="cls-9" d="m137.63,212.17c0,.15,4.58.27,10.24.27s10.24-.12,10.24-.27-4.58-.27-10.24-.27-10.24.12-10.24.27Z"/>
          <path class="cls-9" d="m137.52,226.28c0,.15,4.62.27,10.32.27s10.32-.12,10.32-.27-4.62-.27-10.32-.27-10.32.12-10.32.27Z"/>
        </g>
        <rect class="cls-9" x="74.64" y="23.86" width="49.09" height="284.91" transform="translate(198.37 332.63) rotate(180)"/>
        <g>
          <rect class="cls-11" x="88.01" y="43.83" width="20.48" height="39.46" transform="translate(196.5 127.12) rotate(180)"/>
          <path class="cls-9" d="m97.67,83.29c.15,0,.27-8.83.27-19.73s-.12-19.73-.27-19.73-.27,8.83-.27,19.73.12,19.73.27,19.73Z"/>
          <path class="cls-9" d="m88.01,57.54c0,.15,4.58.27,10.24.27s10.24-.12,10.24-.27-4.58-.27-10.24-.27-10.24.12-10.24.27Z"/>
          <path class="cls-9" d="m87.9,71.65c0,.15,4.62.27,10.32.27s10.32-.12,10.32-.27-4.62-.27-10.32-.27-10.32.12-10.32.27Z"/>
        </g>
        <g>
          <rect class="cls-11" x="88.01" y="95.8" width="20.48" height="39.46" transform="translate(196.5 231.05) rotate(180)"/>
          <path class="cls-9" d="m97.67,135.26c.15,0,.27-8.83.27-19.73s-.12-19.73-.27-19.73-.27,8.83-.27,19.73.12,19.73.27,19.73Z"/>
          <path class="cls-9" d="m88.01,109.51c0,.15,4.58.27,10.24.27s10.24-.12,10.24-.27-4.58-.27-10.24-.27-10.24.12-10.24.27Z"/>
          <path class="cls-9" d="m87.9,123.62c0,.15,4.62.27,10.32.27s10.32-.12,10.32-.27-4.62-.27-10.32-.27-10.32.12-10.32.27Z"/>
        </g>
        <g>
          <rect class="cls-11" x="88.01" y="147.76" width="20.48" height="39.46" transform="translate(196.5 334.98) rotate(180)"/>
          <path class="cls-9" d="m97.67,187.22c.15,0,.27-8.83.27-19.73s-.12-19.73-.27-19.73-.27,8.83-.27,19.73.12,19.73.27,19.73Z"/>
          <path class="cls-9" d="m88.01,161.47c0,.15,4.58.27,10.24.27s10.24-.12,10.24-.27-4.58-.27-10.24-.27-10.24.12-10.24.27Z"/>
          <path class="cls-9" d="m87.9,175.58c0,.15,4.62.27,10.32.27s10.32-.12,10.32-.27-4.62-.27-10.32-.27-10.32.12-10.32.27Z"/>
        </g>
        <g>
          <rect class="cls-11" x="88.01" y="199.73" width="20.48" height="39.46" transform="translate(196.5 438.92) rotate(180)"/>
          <path class="cls-9" d="m97.67,239.19c.15,0,.27-8.83.27-19.73s-.12-19.73-.27-19.73-.27,8.83-.27,19.73.12,19.73.27,19.73Z"/>
          <path class="cls-9" d="m88.01,213.44c0,.15,4.58.27,10.24.27s10.24-.12,10.24-.27-4.58-.27-10.24-.27-10.24.12-10.24.27Z"/>
          <path class="cls-9" d="m87.9,227.55c0,.15,4.62.27,10.32.27s10.32-.12,10.32-.27-4.62-.27-10.32-.27-10.32.12-10.32.27Z"/>
        </g>
        <g>
          <rect class="cls-11" x="137.63" y="250" width="20.48" height="39.46" transform="translate(295.74 539.46) rotate(180)"/>
          <path class="cls-9" d="m147.29,289.46c.15,0,.27-8.83.27-19.73s-.12-19.73-.27-19.73-.27,8.83-.27,19.73.12,19.73.27,19.73Z"/>
          <path class="cls-9" d="m137.63,263.71c0,.15,4.58.27,10.24.27s10.24-.12,10.24-.27-4.58-.27-10.24-.27-10.24.12-10.24.27Z"/>
          <path class="cls-9" d="m137.52,277.82c0,.15,4.62.27,10.32.27s10.32-.12,10.32-.27-4.62-.27-10.32-.27-10.32.12-10.32.27Z"/>
        </g>
        <g>
          <rect class="cls-11" x="88.01" y="251.69" width="20.48" height="39.46" transform="translate(196.5 542.85) rotate(180)"/>
          <path class="cls-9" d="m97.67,291.15c.15,0,.27-8.83.27-19.73s-.12-19.73-.27-19.73-.27,8.83-.27,19.73.12,19.73.27,19.73Z"/>
          <path class="cls-9" d="m88.01,265.4c0,.15,4.58.27,10.24.27s10.24-.12,10.24-.27-4.58-.27-10.24-.27-10.24.12-10.24.27Z"/>
          <path class="cls-9" d="m87.9,279.52c0,.15,4.62.27,10.32.27s10.32-.12,10.32-.27-4.62-.27-10.32-.27-10.32.12-10.32.27Z"/>
        </g>
      </g>
      <g>
        <rect class="cls-14" x="34.29" y="115.99" width="45.8" height="193.66" transform="translate(114.37 425.65) rotate(180)"/>
        <g>
          <rect class="cls-11" x="57.63" y="129.57" width="13.92" height="26.82" transform="translate(129.18 285.95) rotate(180)"/>
          <path class="cls-9" d="m64.2,156.39c.1,0,.19-6.01.19-13.41s-.08-13.41-.19-13.41-.19,6-.19,13.41.08,13.41.19,13.41Z"/>
          <path class="cls-9" d="m57.63,138.88c0,.1,3.12.19,6.96.19s6.96-.08,6.96-.19-3.12-.19-6.96-.19-6.96.08-6.96.19Z"/>
          <path class="cls-9" d="m57.56,148.48c0,.1,3.14.19,7.02.19s7.02-.08,7.02-.19-3.14-.19-7.02-.19-7.02.08-7.02.19Z"/>
        </g>
        <g>
          <rect class="cls-11" x="57.63" y="164.6" width="13.92" height="26.82" transform="translate(129.18 356.03) rotate(180)"/>
          <path class="cls-9" d="m64.2,191.42c.1,0,.19-6,.19-13.41s-.08-13.41-.19-13.41-.19,6-.19,13.41.08,13.41.19,13.41Z"/>
          <path class="cls-9" d="m57.63,173.92c0,.1,3.12.19,6.96.19s6.96-.08,6.96-.19-3.12-.19-6.96-.19-6.96.08-6.96.19Z"/>
          <path class="cls-9" d="m57.56,183.51c0,.1,3.14.19,7.02.19s7.02-.08,7.02-.19-3.14-.19-7.02-.19-7.02.08-7.02.19Z"/>
        </g>
        <g>
          <rect class="cls-11" x="57.63" y="199.64" width="13.92" height="26.82" transform="translate(129.18 426.1) rotate(180)"/>
          <path class="cls-9" d="m64.2,226.46c.1,0,.19-6.01.19-13.41s-.08-13.41-.19-13.41-.19,6-.19,13.41.08,13.41.19,13.41Z"/>
          <path class="cls-9" d="m57.63,208.96c0,.1,3.12.19,6.96.19s6.96-.08,6.96-.19-3.12-.19-6.96-.19-6.96.08-6.96.19Z"/>
          <path class="cls-9" d="m57.56,218.55c0,.1,3.14.19,7.02.19s7.02-.08,7.02-.19-3.14-.19-7.02-.19-7.02.08-7.02.19Z"/>
        </g>
        <g>
          <rect class="cls-11" x="57.63" y="234.67" width="13.92" height="26.82" transform="translate(129.18 496.17) rotate(180)"/>
          <path class="cls-9" d="m64.2,261.5c.1,0,.19-6,.19-13.41s-.08-13.41-.19-13.41-.19,6-.19,13.41.08,13.41.19,13.41Z"/>
          <path class="cls-9" d="m57.63,243.99c0,.1,3.12.19,6.96.19s6.96-.08,6.96-.19-3.12-.19-6.96-.19-6.96.08-6.96.19Z"/>
          <path class="cls-9" d="m57.56,253.59c0,.1,3.14.19,7.02.19s7.02-.08,7.02-.19-3.14-.19-7.02-.19-7.02.08-7.02.19Z"/>
        </g>
        <rect class="cls-9" x="14.81" y="115.99" width="33.37" height="193.66" transform="translate(62.99 425.65) rotate(180)"/>
        <g>
          <rect class="cls-11" x="23.9" y="129.57" width="13.92" height="26.82" transform="translate(61.72 285.95) rotate(180)"/>
          <path class="cls-9" d="m30.47,156.39c.1,0,.19-6.01.19-13.41s-.08-13.41-.19-13.41-.19,6-.19,13.41.08,13.41.19,13.41Z"/>
          <path class="cls-9" d="m23.9,138.88c0,.1,3.12.19,6.96.19s6.96-.08,6.96-.19-3.12-.19-6.96-.19-6.96.08-6.96.19Z"/>
          <path class="cls-9" d="m23.83,148.48c0,.1,3.14.19,7.02.19s7.02-.08,7.02-.19-3.14-.19-7.02-.19-7.02.08-7.02.19Z"/>
        </g>
        <g>
          <rect class="cls-11" x="23.9" y="164.89" width="13.92" height="26.82" transform="translate(61.72 356.6) rotate(180)"/>
          <path class="cls-9" d="m30.47,191.71c.1,0,.19-6,.19-13.41s-.08-13.41-.19-13.41-.19,6-.19,13.41.08,13.41.19,13.41Z"/>
          <path class="cls-9" d="m23.9,174.21c0,.1,3.12.19,6.96.19s6.96-.08,6.96-.19-3.12-.19-6.96-.19-6.96.08-6.96.19Z"/>
          <path class="cls-9" d="m23.83,183.8c0,.1,3.14.19,7.02.19s7.02-.08,7.02-.19-3.14-.19-7.02-.19-7.02.08-7.02.19Z"/>
        </g>
        <g>
          <rect class="cls-11" x="23.9" y="200.21" width="13.92" height="26.82" transform="translate(61.72 427.25) rotate(180)"/>
          <path class="cls-9" d="m30.47,227.04c.1,0,.19-6,.19-13.41s-.08-13.41-.19-13.41-.19,6-.19,13.41.08,13.41.19,13.41Z"/>
          <path class="cls-9" d="m23.9,209.53c0,.1,3.12.19,6.96.19s6.96-.08,6.96-.19-3.12-.19-6.96-.19-6.96.08-6.96.19Z"/>
          <path class="cls-9" d="m23.83,219.12c0,.1,3.14.19,7.02.19s7.02-.08,7.02-.19-3.14-.19-7.02-.19-7.02.08-7.02.19Z"/>
        </g>
        <g>
          <rect class="cls-11" x="23.9" y="235.54" width="13.92" height="26.82" transform="translate(61.72 497.9) rotate(180)"/>
          <path class="cls-9" d="m30.47,262.36c.1,0,.19-6,.19-13.41s-.08-13.41-.19-13.41-.19,6-.19,13.41.08,13.41.19,13.41Z"/>
          <path class="cls-9" d="m23.9,244.85c0,.1,3.12.19,6.96.19s6.96-.08,6.96-.19-3.12-.19-6.96-.19-6.96.08-6.96.19Z"/>
          <path class="cls-9" d="m23.83,254.45c0,.1,3.14.19,7.02.19s7.02-.08,7.02-.19-3.14-.19-7.02-.19-7.02.08-7.02.19Z"/>
        </g>
        <g>
          <rect class="cls-11" x="57.63" y="269.71" width="13.92" height="26.82" transform="translate(129.18 566.24) rotate(180)"/>
          <path class="cls-9" d="m64.2,296.53c.1,0,.19-6,.19-13.41s-.08-13.41-.19-13.41-.19,6-.19,13.41.08,13.41.19,13.41Z"/>
          <path class="cls-9" d="m57.63,279.03c0,.1,3.12.19,6.96.19s6.96-.08,6.96-.19-3.12-.19-6.96-.19-6.96.08-6.96.19Z"/>
          <path class="cls-9" d="m57.56,288.62c0,.1,3.14.19,7.02.19s7.02-.08,7.02-.19-3.14-.19-7.02-.19-7.02.08-7.02.19Z"/>
        </g>
        <g>
          <rect class="cls-11" x="23.9" y="270.86" width="13.92" height="26.82" transform="translate(61.72 568.54) rotate(180)"/>
          <path class="cls-9" d="m30.47,297.68c.1,0,.19-6,.19-13.41s-.08-13.41-.19-13.41-.19,6-.19,13.41.08,13.41.19,13.41Z"/>
          <path class="cls-9" d="m23.9,280.18c0,.1,3.12.19,6.96.19s6.96-.08,6.96-.19-3.12-.19-6.96-.19-6.96.08-6.96.19Z"/>
          <path class="cls-9" d="m23.83,289.77c0,.1,3.14.19,7.02.19s7.02-.08,7.02-.19-3.14-.19-7.02-.19-7.02.08-7.02.19Z"/>
        </g>
      </g>
    </g>
    <g>
      <g>
        <rect class="cls-14" x="417.02" y="147.7" width="38.1" height="161.11" transform="translate(872.14 456.5) rotate(180)"/>
        <g>
          <rect class="cls-11" x="436.44" y="158.99" width="11.58" height="22.31" transform="translate(884.46 340.29) rotate(180)"/>
          <path class="cls-9" d="m441.9,181.3c.09,0,.15-5,.15-11.16s-.07-11.16-.15-11.16-.15,4.99-.15,11.16.07,11.16.15,11.16Z"/>
          <path class="cls-9" d="m436.44,166.74c0,.09,2.59.15,5.79.15s5.79-.07,5.79-.15-2.59-.15-5.79-.15-5.79.07-5.79.15Z"/>
          <path class="cls-9" d="m436.38,174.72c0,.09,2.61.15,5.84.15s5.84-.07,5.84-.15-2.61-.15-5.84-.15-5.84.07-5.84.15Z"/>
        </g>
        <g>
          <rect class="cls-11" x="436.44" y="188.13" width="11.58" height="22.31" transform="translate(884.46 398.58) rotate(180)"/>
          <path class="cls-9" d="m441.9,210.45c.09,0,.15-5,.15-11.16s-.07-11.16-.15-11.16-.15,4.99-.15,11.16.07,11.16.15,11.16Z"/>
          <path class="cls-9" d="m436.44,195.89c0,.09,2.59.15,5.79.15s5.79-.07,5.79-.15-2.59-.15-5.79-.15-5.79.07-5.79.15Z"/>
          <path class="cls-9" d="m436.38,203.87c0,.09,2.61.15,5.84.15s5.84-.07,5.84-.15-2.61-.15-5.84-.15-5.84.07-5.84.15Z"/>
        </g>
        <g>
          <rect class="cls-11" x="436.44" y="217.28" width="11.58" height="22.31" transform="translate(884.46 456.87) rotate(180)"/>
          <path class="cls-9" d="m441.9,239.59c.09,0,.15-5,.15-11.16s-.07-11.16-.15-11.16-.15,4.99-.15,11.16.07,11.16.15,11.16Z"/>
          <path class="cls-9" d="m436.44,225.03c0,.09,2.59.15,5.79.15s5.79-.07,5.79-.15-2.59-.15-5.79-.15-5.79.07-5.79.15Z"/>
          <path class="cls-9" d="m436.38,233.01c0,.09,2.61.15,5.84.15s5.84-.07,5.84-.15-2.61-.15-5.84-.15-5.84.07-5.84.15Z"/>
        </g>
        <g>
          <rect class="cls-11" x="436.44" y="246.43" width="11.58" height="22.31" transform="translate(884.46 515.17) rotate(180)"/>
          <path class="cls-9" d="m441.9,268.74c.09,0,.15-5,.15-11.16s-.07-11.16-.15-11.16-.15,4.99-.15,11.16.07,11.16.15,11.16Z"/>
          <path class="cls-9" d="m436.44,254.18c0,.09,2.59.15,5.79.15s5.79-.07,5.79-.15-2.59-.15-5.79-.15-5.79.07-5.79.15Z"/>
          <path class="cls-9" d="m436.38,262.16c0,.09,2.61.15,5.84.15s5.84-.07,5.84-.15-2.61-.15-5.84-.15-5.84.07-5.84.15Z"/>
        </g>
        <rect class="cls-9" x="400.82" y="147.7" width="27.76" height="161.11" transform="translate(829.4 456.5) rotate(180)"/>
        <g>
          <rect class="cls-11" x="408.38" y="158.99" width="11.58" height="22.31" transform="translate(828.34 340.29) rotate(180)"/>
          <path class="cls-9" d="m413.84,181.3c.09,0,.15-5,.15-11.16s-.07-11.16-.15-11.16-.15,4.99-.15,11.16.07,11.16.15,11.16Z"/>
          <path class="cls-9" d="m408.38,166.74c0,.09,2.59.15,5.79.15s5.79-.07,5.79-.15-2.59-.15-5.79-.15-5.79.07-5.79.15Z"/>
          <path class="cls-9" d="m408.32,174.72c0,.09,2.61.15,5.84.15s5.84-.07,5.84-.15-2.61-.15-5.84-.15-5.84.07-5.84.15Z"/>
        </g>
        <g>
          <rect class="cls-11" x="408.38" y="188.37" width="11.58" height="22.31" transform="translate(828.34 399.06) rotate(180)"/>
          <path class="cls-9" d="m413.84,210.69c.09,0,.15-5,.15-11.16s-.07-11.16-.15-11.16-.15,4.99-.15,11.16.07,11.16.15,11.16Z"/>
          <path class="cls-9" d="m408.38,196.13c0,.09,2.59.15,5.79.15s5.79-.07,5.79-.15-2.59-.15-5.79-.15-5.79.07-5.79.15Z"/>
          <path class="cls-9" d="m408.32,204.11c0,.09,2.61.15,5.84.15s5.84-.07,5.84-.15-2.61-.15-5.84-.15-5.84.07-5.84.15Z"/>
        </g>
        <g>
          <rect class="cls-11" x="408.38" y="217.76" width="11.58" height="22.31" transform="translate(828.34 457.83) rotate(180)"/>
          <path class="cls-9" d="m413.84,240.07c.09,0,.15-5,.15-11.16s-.07-11.16-.15-11.16-.15,4.99-.15,11.16.07,11.16.15,11.16Z"/>
          <path class="cls-9" d="m408.38,225.51c0,.09,2.59.15,5.79.15s5.79-.07,5.79-.15-2.59-.15-5.79-.15-5.79.07-5.79.15Z"/>
          <path class="cls-9" d="m408.32,233.49c0,.09,2.61.15,5.84.15s5.84-.07,5.84-.15-2.61-.15-5.84-.15-5.84.07-5.84.15Z"/>
        </g>
        <g>
          <rect class="cls-11" x="408.38" y="247.14" width="11.58" height="22.31" transform="translate(828.34 516.6) rotate(180)"/>
          <path class="cls-9" d="m413.84,269.46c.09,0,.15-5,.15-11.16s-.07-11.16-.15-11.16-.15,4.99-.15,11.16.07,11.16.15,11.16Z"/>
          <path class="cls-9" d="m408.38,254.9c0,.09,2.59.15,5.79.15s5.79-.07,5.79-.15-2.59-.15-5.79-.15-5.79.07-5.79.15Z"/>
          <path class="cls-9" d="m408.32,262.88c0,.09,2.61.15,5.84.15s5.84-.07,5.84-.15-2.61-.15-5.84-.15-5.84.07-5.84.15Z"/>
        </g>
        <g>
          <rect class="cls-11" x="436.44" y="275.57" width="11.58" height="22.31" transform="translate(884.46 573.46) rotate(180)"/>
          <path class="cls-9" d="m441.9,297.89c.09,0,.15-5,.15-11.16s-.07-11.16-.15-11.16-.15,4.99-.15,11.16.07,11.16.15,11.16Z"/>
          <path class="cls-9" d="m436.44,283.32c0,.09,2.59.16,5.79.16s5.79-.07,5.79-.16-2.59-.15-5.79-.15-5.79.07-5.79.15Z"/>
          <path class="cls-9" d="m436.38,291.3c0,.09,2.61.15,5.84.15s5.84-.07,5.84-.15-2.61-.15-5.84-.15-5.84.07-5.84.15Z"/>
        </g>
        <g>
          <rect class="cls-11" x="408.38" y="276.53" width="11.58" height="22.31" transform="translate(828.34 575.37) rotate(180)"/>
          <path class="cls-9" d="m413.84,298.84c.09,0,.15-5,.15-11.16s-.07-11.16-.15-11.16-.15,4.99-.15,11.16.07,11.16.15,11.16Z"/>
          <path class="cls-9" d="m408.38,284.28c0,.09,2.59.15,5.79.15s5.79-.07,5.79-.15-2.59-.15-5.79-.15-5.79.07-5.79.15Z"/>
          <path class="cls-9" d="m408.32,292.26c0,.09,2.61.15,5.84.15s5.84-.07,5.84-.15-2.61-.15-5.84-.15-5.84.07-5.84.15Z"/>
        </g>
      </g>
      <g>
        <rect class="cls-14" x="356.45" y="116.03" width="45.8" height="193.66" transform="translate(758.69 425.71) rotate(180)"/>
        <g>
          <rect class="cls-11" x="379.79" y="129.6" width="13.92" height="26.82" transform="translate(773.5 286.02) rotate(180)"/>
          <path class="cls-9" d="m386.36,156.42c.1,0,.19-6.01.19-13.41s-.08-13.41-.19-13.41-.19,6-.19,13.41.08,13.41.19,13.41Z"/>
          <path class="cls-9" d="m379.79,138.92c0,.1,3.12.19,6.96.19s6.96-.08,6.96-.19-3.12-.19-6.96-.19-6.96.08-6.96.19Z"/>
          <path class="cls-9" d="m379.72,148.51c0,.1,3.14.19,7.02.19s7.02-.08,7.02-.19-3.14-.19-7.02-.19-7.02.08-7.02.19Z"/>
        </g>
        <g>
          <rect class="cls-11" x="379.79" y="164.64" width="13.92" height="26.82" transform="translate(773.5 356.09) rotate(180)"/>
          <path class="cls-9" d="m386.36,191.46c.1,0,.19-6,.19-13.41s-.08-13.41-.19-13.41-.19,6-.19,13.41.08,13.41.19,13.41Z"/>
          <path class="cls-9" d="m379.79,173.95c0,.1,3.12.19,6.96.19s6.96-.08,6.96-.19-3.12-.19-6.96-.19-6.96.08-6.96.19Z"/>
          <path class="cls-9" d="m379.72,183.55c0,.1,3.14.19,7.02.19s7.02-.08,7.02-.19-3.14-.19-7.02-.19-7.02.08-7.02.19Z"/>
        </g>
        <g>
          <rect class="cls-11" x="379.79" y="199.67" width="13.92" height="26.82" transform="translate(773.5 426.17) rotate(180)"/>
          <path class="cls-9" d="m386.36,226.49c.1,0,.19-6.01.19-13.41s-.08-13.41-.19-13.41-.19,6-.19,13.41.08,13.41.19,13.41Z"/>
          <path class="cls-9" d="m379.79,208.99c0,.1,3.12.19,6.96.19s6.96-.08,6.96-.19-3.12-.19-6.96-.19-6.96.08-6.96.19Z"/>
          <path class="cls-9" d="m379.72,218.58c0,.1,3.14.19,7.02.19s7.02-.08,7.02-.19-3.14-.19-7.02-.19-7.02.08-7.02.19Z"/>
        </g>
        <g>
          <rect class="cls-11" x="379.79" y="234.71" width="13.92" height="26.82" transform="translate(773.5 496.24) rotate(180)"/>
          <path class="cls-9" d="m386.36,261.53c.1,0,.19-6,.19-13.41s-.08-13.41-.19-13.41-.19,6-.19,13.41.08,13.41.19,13.41Z"/>
          <path class="cls-9" d="m379.79,244.03c0,.1,3.12.19,6.96.19s6.96-.08,6.96-.19-3.12-.19-6.96-.19-6.96.08-6.96.19Z"/>
          <path class="cls-9" d="m379.72,253.62c0,.1,3.14.19,7.02.19s7.02-.08,7.02-.19-3.14-.19-7.02-.19-7.02.08-7.02.19Z"/>
        </g>
        <rect class="cls-9" x="336.97" y="116.03" width="33.37" height="193.66" transform="translate(707.31 425.71) rotate(180)"/>
        <g>
          <rect class="cls-11" x="346.06" y="129.6" width="13.92" height="26.82" transform="translate(706.04 286.02) rotate(180)"/>
          <path class="cls-9" d="m352.63,156.42c.1,0,.19-6.01.19-13.41s-.08-13.41-.19-13.41-.19,6-.19,13.41.08,13.41.19,13.41Z"/>
          <path class="cls-9" d="m346.06,138.92c0,.1,3.12.19,6.96.19s6.96-.08,6.96-.19-3.12-.19-6.96-.19-6.96.08-6.96.19Z"/>
          <path class="cls-9" d="m345.99,148.51c0,.1,3.14.19,7.02.19s7.02-.08,7.02-.19-3.14-.19-7.02-.19-7.02.08-7.02.19Z"/>
        </g>
        <g>
          <rect class="cls-11" x="346.06" y="164.92" width="13.92" height="26.82" transform="translate(706.04 356.67) rotate(180)"/>
          <path class="cls-9" d="m352.63,191.75c.1,0,.19-6.01.19-13.41s-.08-13.41-.19-13.41-.19,6-.19,13.41.08,13.41.19,13.41Z"/>
          <path class="cls-9" d="m346.06,174.24c0,.1,3.12.19,6.96.19s6.96-.08,6.96-.19-3.12-.19-6.96-.19-6.96.08-6.96.19Z"/>
          <path class="cls-9" d="m345.99,183.83c0,.1,3.14.19,7.02.19s7.02-.08,7.02-.19-3.14-.19-7.02-.19-7.02.08-7.02.19Z"/>
        </g>
        <g>
          <rect class="cls-11" x="346.06" y="200.25" width="13.92" height="26.82" transform="translate(706.04 427.32) rotate(180)"/>
          <path class="cls-9" d="m352.63,227.07c.1,0,.19-6,.19-13.41s-.08-13.41-.19-13.41-.19,6-.19,13.41.08,13.41.19,13.41Z"/>
          <path class="cls-9" d="m346.06,209.57c0,.1,3.12.19,6.96.19s6.96-.08,6.96-.19-3.12-.19-6.96-.19-6.96.08-6.96.19Z"/>
          <path class="cls-9" d="m345.99,219.16c0,.1,3.14.19,7.02.19s7.02-.08,7.02-.19-3.14-.19-7.02-.19-7.02.08-7.02.19Z"/>
        </g>
        <g>
          <rect class="cls-11" x="346.06" y="235.57" width="13.92" height="26.82" transform="translate(706.04 497.96) rotate(180)"/>
          <path class="cls-9" d="m352.63,262.39c.1,0,.19-6,.19-13.41s-.08-13.41-.19-13.41-.19,6-.19,13.41.08,13.41.19,13.41Z"/>
          <path class="cls-9" d="m346.06,244.89c0,.1,3.12.19,6.96.19s6.96-.08,6.96-.19-3.12-.19-6.96-.19-6.96.08-6.96.19Z"/>
          <path class="cls-9" d="m345.99,254.48c0,.1,3.14.19,7.02.19s7.02-.08,7.02-.19-3.14-.19-7.02-.19-7.02.08-7.02.19Z"/>
        </g>
        <g>
          <rect class="cls-11" x="379.79" y="269.74" width="13.92" height="26.82" transform="translate(773.5 566.31) rotate(180)"/>
          <path class="cls-9" d="m386.36,296.57c.1,0,.19-6,.19-13.41s-.08-13.41-.19-13.41-.19,6-.19,13.41.08,13.41.19,13.41Z"/>
          <path class="cls-9" d="m379.79,279.06c0,.1,3.12.19,6.96.19s6.96-.08,6.96-.19-3.12-.19-6.96-.19-6.96.08-6.96.19Z"/>
          <path class="cls-9" d="m379.72,288.66c0,.1,3.14.19,7.02.19s7.02-.08,7.02-.19-3.14-.19-7.02-.19-7.02.08-7.02.19Z"/>
        </g>
        <g>
          <rect class="cls-11" x="346.06" y="270.89" width="13.92" height="26.82" transform="translate(706.04 568.61) rotate(180)"/>
          <path class="cls-9" d="m352.63,297.72c.1,0,.19-6.01.19-13.41s-.08-13.41-.19-13.41-.19,6-.19,13.41.08,13.41.19,13.41Z"/>
          <path class="cls-9" d="m346.06,280.21c0,.1,3.12.19,6.96.19s6.96-.08,6.96-.19-3.12-.19-6.96-.19-6.96.08-6.96.19Z"/>
          <path class="cls-9" d="m345.99,289.81c0,.1,3.14.19,7.02.19s7.02-.08,7.02-.19-3.14-.19-7.02-.19-7.02.08-7.02.19Z"/>
        </g>
      </g>
    </g>
    <path class="cls-15" d="m60.68,56.76c0-16.64-15.04-29.77-32.27-26.53-10.84,2.03-19.47,10.88-21.37,21.74-1.19,6.79.21,13.17,3.31,18.45h-.02l.08.1c1.04,1.75,2.33,3,3.65,4.83l15.69,20.79c1.95,2.59,5.84,2.59,7.79,0l15.43-20.44s2.88-3.43,3.93-5.2l.06-.07h-.01c2.36-4.01,3.73-8.67,3.73-13.65Zm-27.03,11.77c-6.57,0-11.89-5.33-11.89-11.89s5.33-11.89,11.89-11.89,11.89,5.33,11.89,11.89-5.32,11.89-11.89,11.89Z"/>
    <path class="cls-15" d="m453.04,69.45c.46-3.32-4.23-6.06-7.76-6.34-1.68-.14-3.43.12-5.02-.43-3.45-1.2-4.83-5.66-8.19-7.08-2.52-1.06-5.41-.12-7.85,1.11-2.44,1.23-4.85,2.77-7.58,2.95-2.37.15-4.95-.73-7.02.43-1.55.86-2.36,2.64-3.78,3.7-1.39,1.03-3.21,1.25-4.94,1.34-1.73.09-3.52.11-5.1.83s-2.88,2.39-2.55,4.09l59.79-.59Z"/>
    <path class="cls-15" d="m349.68,23.14c.48-3.45-4.4-6.29-8.05-6.58-1.75-.14-3.56.13-5.21-.45-3.58-1.25-5.01-5.88-8.51-7.35-2.61-1.1-5.62-.12-8.15,1.15-2.53,1.27-5.04,2.88-7.87,3.06-2.46.16-5.14-.76-7.29.45-1.6.9-2.45,2.75-3.93,3.84-1.45,1.07-3.34,1.29-5.13,1.39-1.8.1-3.65.12-5.29.86-1.64.75-2.99,2.48-2.65,4.24l62.08-.61Z"/>
  </g>
  <g id="Floor">
    <path class="cls-6" d="m442.47,409.17c0,.14-95.74.26-213.82.26s-213.84-.12-213.84-.26,95.72-.26,213.84-.26,213.82.12,213.82.26Z"/>
  </g>
  <g id="Device">
    <g id="Layer_14" data-name="Layer 14">
      <g>
        <path class="cls-16" d="m88.14,387.25c.76-2.96-1.18-5.92-3.35-8.07-2.17-2.14-4.77-4.07-5.9-6.9-1.83-4.59.63-10.54-2.49-14.38-1.84-2.26-5.14-3.01-6.77-5.42-.86-1.26-1.13-2.82-1.47-4.31-1.72-7.59-5.52-14.7-10.88-20.35-.37,6.76,1.12,13.62,4.27,19.61,1.27,2.41,2.82,4.76,3.24,7.45.68,4.37-1.76,8.87-.68,13.16,1.23,4.9,6.74,8.19,7,13.24.22,4.27-3.5,8.02-3.22,12.28.12,1.82.96,3.5,1.9,5.06,3.3,5.49,8.15,9.27,15.5,9.14l9,.32-6.14-20.83Z"/>
        <g class="cls-19">
          <path class="cls-5" d="m88.14,387.25c.76-2.96-1.18-5.92-3.35-8.07-2.17-2.14-4.77-4.07-5.9-6.9-1.83-4.59.63-10.54-2.49-14.38-1.84-2.26-5.14-3.01-6.77-5.42-.86-1.26-1.13-2.82-1.47-4.31-1.72-7.59-5.52-14.7-10.88-20.35-.37,6.76,1.12,13.62,4.27,19.61,1.27,2.41,2.82,4.76,3.24,7.45.68,4.37-1.76,8.87-.68,13.16,1.23,4.9,6.74,8.19,7,13.24.22,4.27-3.5,8.02-3.22,12.28.12,1.82.96,3.5,1.9,5.06,3.3,5.49,8.15,9.27,15.5,9.14l9,.32-6.14-20.83Z"/>
        </g>
        <g>
          <g>
            <path class="cls-6" d="m95.92,408.13s.86.2,2.48-.05c.81-.12,1.8-.33,2.92-.74,1.12-.41,2.39-.99,3.61-1.98.59-.51,1.17-1.14,1.49-1.98.31-.83.37-1.75.42-2.69.05-.94.05-1.92.21-2.91.15-.99.54-1.97,1.1-2.89,1.06-1.86,2.82-3.63,3.39-6.16.62-2.49.17-5.18-.24-7.89-.42-2.7-.82-5.64.21-8.46.97-2.82,2.94-5.36,3.93-8.53.98-3.21.52-6.65.73-10.05.09-1.71.42-3.42,1.17-5,.73-1.59,1.74-3.1,2.53-4.77,1.6-3.39,1.88-7.23,2.32-11,.21-1.9.43-3.82.65-5.75.21-1.95.39-3.88,1-5.76.55-1.89,1.36-3.71,2.15-5.57.39-.93.8-1.87,1.04-2.91.18-1.06.23-2.05.29-3.1.1-2.06.02-4.16-.24-6.23-.24-2.08-.62-4.14-.84-6.22-.01-.12-.03-.25-.04-.36l-.05-.41-.37.18c-1.93.97-3.58,2.4-4.85,4.09-1.29,1.68-2.23,3.57-2.98,5.49-1.5,3.87-2.04,7.92-2.8,11.79-.74,3.87-1.72,7.67-3.7,10.89-.99,1.6-2.18,3.07-3.22,4.63-1.04,1.55-1.96,3.26-2.23,5.13-.53,3.81,1.57,7.15,1.13,10.52-.16,1.68-.82,3.24-1.64,4.67-.82,1.44-1.78,2.77-2.69,4.11-.91,1.34-1.78,2.7-2.42,4.15-.65,1.45-1.01,3-1.11,4.51-.22,3.04.21,5.91-.01,8.63-.18,2.72-1.14,5.19-2.22,7.4-1.09,2.21-2.3,4.22-3.31,6.16-.51.97-.98,1.92-1.36,2.87-.41.95-.61,1.92-.79,2.85-.3,1.87-.27,3.6-.07,5.14.39,3.08,1.54,5.3,2.58,6.55.24.33.51.57.73.79.21.23.42.38.59.5.34.25.51.36.51.36.04-.05-.74-.46-1.74-1.72-.99-1.25-2.09-3.46-2.44-6.51-.18-1.52-.19-3.23.11-5.06.19-.91.39-1.86.8-2.78.38-.93.86-1.87,1.37-2.83,1.02-1.92,2.25-3.92,3.36-6.15,1.1-2.22,2.1-4.73,2.3-7.53.24-2.78-.18-5.67.05-8.63.1-1.48.45-2.96,1.08-4.36.62-1.41,1.48-2.74,2.39-4.07.91-1.33,1.88-2.67,2.72-4.14.84-1.46,1.55-3.09,1.72-4.86.43-3.59-1.65-6.96-1.11-10.5.26-1.75,1.13-3.38,2.16-4.91,1.03-1.53,2.23-3,3.24-4.64,2.05-3.31,3.04-7.18,3.78-11.07.77-3.89,1.31-7.9,2.78-11.69.74-1.88,1.65-3.73,2.9-5.34,1.23-1.63,2.8-3,4.64-3.92l-.41-.23c.01.11.03.24.04.36.23,2.11.6,4.17.84,6.22.25,2.05.34,4.1.24,6.14-.06,1-.12,2.06-.28,3-.22.95-.62,1.88-1.01,2.81-.79,1.85-1.6,3.7-2.17,5.63-.63,1.92-.8,3.93-1.01,5.85-.21,1.94-.43,3.86-.64,5.76-.43,3.78-.71,7.56-2.25,10.84-.76,1.63-1.77,3.14-2.52,4.78-.77,1.64-1.12,3.45-1.21,5.18-.2,3.47.26,6.87-.68,9.95-.93,3.06-2.9,5.62-3.89,8.52-1.06,2.93-.62,5.97-.19,8.67.43,2.71.87,5.35.29,7.74-.52,2.42-2.23,4.17-3.31,6.08-.56.95-.97,1.98-1.12,3.01-.16,1.03-.15,2.01-.19,2.95-.05.93-.1,1.84-.38,2.62-.28.78-.83,1.39-1.4,1.89-1.18.97-2.43,1.57-3.53,1.99-1.11.42-2.09.65-2.88.78-.8.14-1.42.17-1.83.18-.41-.02-.63,0-.63,0Z"/>
            <path class="cls-6" d="m124.36,302.09s-.04.09-.09.27c-.05.22-.12.48-.2.81-.18.71-.39,1.78-.73,3.12-.35,1.33-1.17,2.84-1.87,4.7-.73,1.84-1.46,3.98-2.14,6.38-.69,2.4-1.3,5.07-1.93,7.92-.66,2.85-1.31,5.91-2.88,8.79-.74,1.46-1.57,2.94-2.23,4.56-.68,1.62-1.04,3.39-1.3,5.17-.43,3.57-1.09,7.19-1.94,10.89-1.8,7.38-3.52,14.4-5.09,20.8-1.6,6.38-3.05,12.12-4.27,16.96-1.18,4.8-2.15,8.7-2.83,11.45-.31,1.32-.56,2.36-.74,3.12-.07.33-.13.6-.18.81-.04.18-.05.28-.04.28,0,0,.04-.09.1-.27.06-.21.14-.48.23-.8.21-.75.49-1.78.85-3.09.72-2.74,1.75-6.62,3.01-11.4,1.25-4.83,2.74-10.57,4.39-16.93,1.58-6.4,3.32-13.43,5.14-20.8.85-3.7,1.52-7.39,1.94-10.93.25-1.76.6-3.47,1.25-5.04.64-1.58,1.45-3.05,2.19-4.53,1.58-2.94,2.24-6.09,2.87-8.93.62-2.86,1.2-5.52,1.86-7.92.65-2.4,1.35-4.53,2.05-6.38.66-1.85,1.45-3.38,1.78-4.76.31-1.37.48-2.43.62-3.15.06-.33.1-.6.14-.82.03-.19.04-.28.03-.28Z"/>
          </g>
          <g>
            <path class="cls-16" d="m92.7,407.55c6.32-2.6,9.49-12.59,8-19.27-1.5-6.67-4.9-13.07-4.57-19.9.26-5.25,2.73-10.32,2.27-15.55-.62-7.07-6.52-13.34-5.41-20.35.62-3.93,3.41-7.31,3.81-11.27.49-4.86-2.65-9.23-4.32-13.82-2.56-7.02-1.66-14.75-1.79-22.23-.13-7.47-1.76-15.7-7.7-20.23-1.86,6.06-4.12,10.06-4.84,18.53-.26,3.04,2.4,9.33,1.9,16-.29,3.99-.68,7.97-1.02,11.96-.33,3.88-.66,7.83.19,11.63.65,2.91,1.98,5.66,2.35,8.63.69,5.57-2.1,11.09-1.71,16.68.33,4.74,2.93,9.17,2.9,13.92-.05,6.68-5.28,12.86-4.03,19.43.62,3.26,2.81,6.12,3.06,9.43.2,2.57-.8,5.1-.66,7.67.23,4.14,7.44,8.38,11.57,8.74"/>
            <path class="cls-6" d="m83.68,271.33s-.02.12-.03.35c0,.27-.01.61-.02,1.04,0,.91-.04,2.25.01,3.99.07,1.76.67,3.81,1.04,6.23.4,2.42.75,5.2.96,8.28.23,3.08.3,6.47.36,10.11.08,3.62.13,7.61,1.35,11.57.54,1.98,1.19,3.97,1.58,6.06.41,2.08.43,4.25.3,6.47-.34,4.43-.43,9.08-.28,13.8.43,9.44.85,18.43,1.22,26.62.46,8.17.88,15.52,1.24,21.72.37,6.15.67,11.14.88,14.64.11,1.7.21,3.03.27,3.98.04.43.06.77.08,1.03.02.23.04.35.05.35,0,0,.01-.12.01-.35,0-.27-.02-.61-.03-1.04-.04-.95-.09-2.28-.16-3.98-.17-3.5-.41-8.49-.7-14.65-.32-6.2-.69-13.55-1.11-21.72-.36-8.18-.76-17.17-1.18-26.6-.14-4.72-.07-9.31.27-13.76.12-2.23.1-4.47-.33-6.6-.41-2.13-1.06-4.13-1.61-6.1-1.22-3.9-1.27-7.8-1.38-11.44-.08-3.64-.18-7.04-.43-10.13-.24-3.09-.62-5.88-1.05-8.3-.4-2.44-1.02-4.48-1.13-6.19-.09-1.72-.08-3.07-.12-3.98-.02-.43-.03-.77-.04-1.04-.01-.23-.02-.35-.03-.35Z"/>
          </g>
        </g>
      </g>
    </g>
    <g>
      <g>
        <path class="cls-6" d="m284.7,409.17l-138.09-.08c-16.61,0-30.07-13.44-30.06-30l.07-345.22c0-16.57,13.48-30,30.1-29.99l138.09.08c16.61.01,30.07,13.44,30.06,30l-.07,345.22c0,16.57-13.48,30-30.1,29.99Z"/>
        <g>
          <g>
            <path class="cls-15" d="m285.67,14.25l-26.87-.12c-3.6-.02-6.54,3.02-6.55,6.79l-.02,4.87c-.01,3.77-2.95,6.81-6.55,6.79l-52.37-.24c-3.6-.02-6.51-3.08-6.49-6.85l.02-4.87c.02-3.77-2.89-6.83-6.5-6.85l-9.45-.04-23.52-.11c-11.68-.05-21.19,9.37-21.24,21.05l-1.43,339.09c-.05,11.67,9.37,21.18,21.04,21.23l138.3.64c11.68.05,21.19-9.37,21.24-21.05l1.43-339.09c.05-11.67-9.37-21.18-21.04-21.23Z"/>
            <g>
              <path class="cls-15" d="m226.98,331.54c-.16,4.09-.31,7.93-.43,11.13h19.87l-2.43-12.2-17,1.08Z"/>
              <path class="cls-15" d="m146.24,336.65l.17,6.02h78.15c.13-3.38.28-7.13.43-11l-78.75,4.98Z"/>
              <polygon class="cls-15" points="244.97 330.41 247.42 342.67 284.04 342.67 283.6 327.96 244.97 330.41"/>
              <polygon class="cls-14" points="228.96 158.95 235.89 118.8 217.75 117.45 217.75 158.95 228.96 158.95"/>
              <polygon class="cls-15" points="144.61 314.36 124.92 322.07 124.86 336.02 145.19 334.73 144.61 314.36"/>
              <polygon class="cls-14" points="144.52 311.22 143.44 273.83 143.42 273.83 143.42 260.64 125.17 262.58 124.93 318.87 144.51 311.21 144.52 311.22"/>
              <polygon class="cls-15" points="143.42 231.2 125.32 228.81 125.19 259.58 143.42 257.65 143.42 231.2"/>
              <polygon class="cls-15" points="278.4 261.2 277.64 271.91 256.25 274.22 257.91 282.7 282.19 280.87 281.82 268.71 283.76 260.66 278.4 261.2"/>
              <polygon class="cls-15" points="239.85 284.06 256.91 282.78 253.2 263.74 238.31 265.24 239.85 284.06"/>
              <polygon class="cls-14" points="240.02 286.04 241.32 301.91 243.63 323.68 244.58 328.44 283.54 325.98 282.25 282.85 240.02 286.04"/>
              <path class="cls-15" d="m172.96,211.1l1.5,2.57-30.05,17.52v41.57l31.71-2.24,61.12-6.17-2.24-27.25-58.39-7.63.39-2.95,57.75,7.54-3.79-46.12-57.16,5.5-.19-1.97,57.19-5.5-1.98-24.06h-54.98l-48.29,8.79-.23,55.1,18.28,2.41,29.35-17.12Zm-25.47,57.7s.23-34.28,0-35.56l24.52-13.04,3.18,46.85-27.69,1.75Z"/>
              <polygon class="cls-15" points="276.4 261.4 254.19 263.64 255.87 272.27 275.78 270.12 276.4 261.4"/>
              <path class="cls-15" d="m227.26,324.2c-.07,1.8-.14,3.59-.21,5.35l16.53-1.05-.85-4.26-15.48-.04Z"/>
              <polygon class="cls-14" points="191.65 158.95 194.56 145.74 216.76 145.74 216.76 117.38 147.35 112.24 147.35 138.87 125.67 143.77 125.57 167.68 173.58 158.95 191.65 158.95"/>
              <path class="cls-15" d="m237.96,80.03l-.59-2.43,26.5-10.49-17.24-34.6c-.31.05-.63.08-.95.08l-29.29-.14.8,48.43,20.77-.85Z"/>
              <path class="cls-14" d="m278.12,61.47l-.03-47.25-19.29-.09c-3.6-.02-6.54,3.02-6.55,6.79l-.02,4.87c0,2.32-1.13,4.37-2.84,5.59l17.25,34.63,11.48-4.54Z"/>
              <path class="cls-15" d="m178.49,63.49l-2.23-49.75-5.37-.02-20.96-.1-8.93,44.49,37.49,5.38Zm-4.78-44.71l.71,40.52-27.86-4.08,6.1-36.44h21.05Z"/>
              <path class="cls-15" d="m179.5,63.64v.42c.05,3.88.13,10.87.19,18.34l36.5-1.49-.8-48.48-22.09-.1c-3.6-.02-6.51-3.08-6.49-6.85l.02-4.87c.02-3.77-2.89-6.83-6.5-6.85h-3.09s2.24,49.87,2.24,49.87h.01Z"/>
              <path class="cls-15" d="m138.05,57.69l8.84-44.05c-11.45.21-20.71,9.51-20.76,21.03l-.09,21.96.09-.65,11.91,1.71Z"/>
              <polygon class="cls-15" points="144.38 112.02 125.81 110.64 125.69 140.72 144.38 136.49 144.38 112.02"/>
              <polygon class="cls-15" points="137.85 58.66 126.04 56.97 125.84 105.68 128.38 105.86 137.85 58.66"/>
              <polygon class="cls-15" points="175.35 310.66 175.66 271.55 144.43 273.76 145.53 312.07 175.35 310.66"/>
              <path class="cls-15" d="m181.09,301.63l44.23,21.19c.53-13.85,1-26.79.95-27.62l.96-.05.47-.93q.63.31.3,9.75c-.18,5.27-.45,12.27-.71,19.29h15.3l-2.26-21.25-3.01-36.66-57.79,5.83,1.56,30.46Z"/>
              <polygon class="cls-15" points="289.51 236.73 289.02 231.57 236 237.09 238.23 264.26 284 259.64 289.51 236.73"/>
              <polygon class="cls-15" points="216.76 148.72 196.95 148.72 194.69 158.95 216.76 158.95 216.76 148.72"/>
              <path class="cls-15" d="m281.33,152.17l-49.6-3.43-2.02,11.72,2.09,25.43,52.31-5.03-2.78-28.69Zm-47.78,8.27l2.66-7.39,43.08,2.72,2.49,21.16-46.78,5.55-1.46-22.03Z"/>
              <polygon class="cls-15" points="286.47 205.33 284.3 182.83 231.96 187.86 233.92 211.8 286.47 205.33"/>
              <polygon class="cls-15" points="145.25 336.71 124.94 338 124.86 336.68 124.83 342.67 145.42 342.67 145.25 336.71"/>
              <path class="cls-14" d="m306.35,50.3l.3.76.07-15.57c.05-11.67-9.37-21.18-21.04-21.23l-6.59-.03.03,46.86,27.23-10.78Z"/>
              <path class="cls-15" d="m225.29,323.9l-45.15-21.63-1.59-30.99-1.89.19-.32,40.13-30.77,1.46.03.89v.02s0,0,0,0l.6,20.69,78.88-4.99c.07-1.92.15-3.85.22-5.78Zm-77.79-8.29l43.07-3.02,28.02,13-71.09,3.85v-13.83Z"/>
              <path class="cls-15" d="m293.52,102.34l1.85-10.96c-16.19-5.78-17.31-22.66-17.26-27.77l-10.57,4.18,15.91,31.94,10.07,2.6Z"/>
              <polygon class="cls-15" points="235.75 234.12 257.77 231.83 253.43 212.39 234.16 214.77 235.75 234.12"/>
              <polygon class="cls-15" points="283.24 121.4 242.13 121.39 238.71 121.14 234.07 148.06 282.87 151.44 281.74 139.73 286.54 122.44 283.24 121.4"/>
              <path class="cls-15" d="m280.4,114.17l.51-12.85-16.16-32.44-25.06,9.92,8.61,35.37h32.09Zm-16.62-41.34l14.81,28.17-2.14,8.78-25.34-.95-6.33-26.64,19-9.35Z"/>
              <polygon class="cls-15" points="286.8 269.23 287.55 294.47 305.37 293.46 305.42 294.45 287.58 295.46 288.49 325.67 305.33 324.6 305.46 326.58 288.55 327.65 289 342.67 305.41 342.67 305.77 258.44 288.98 260.13 286.8 269.23"/>
              <path class="cls-14" d="m178.52,64.5l-37.72-5.41-9.43,47,47.32,3.51c.19-7.24.02-29.43-.17-45.09Z"/>
              <polygon class="cls-15" points="240.57 114.17 246.27 114.17 238.2 81.01 217.2 81.87 217.71 112.48 240.57 114.17"/>
              <path class="cls-15" d="m124.73,366.8l-.03,6.95c0,.21.02.42.03.64v-7.59Z"/>
              <path class="cls-15" d="m179.65,109.66l37.06,2.75-.5-30.5-36.51,1.49c.08,10.31.11,21.32-.05,26.26Z"/>
              <polygon class="cls-15" points="286.76 208.29 254.42 212.27 258.76 231.73 288.73 228.61 286.76 208.29"/>
              <path class="cls-14" d="m295.53,90.39l2.07-12.29,8.93.69.11-26.48-27.54,10.9c-.56,18.63,11.14,25.18,16.43,27.18Z"/>
              <polygon class="cls-15" points="284.92 137.9 286.05 149.52 306.22 150.91 306.33 127 289.44 121.67 284.92 137.9"/>
              <path class="cls-15" d="m294.53,237.08l-5.3,22.03,16.55-1.67.1-23.1c-5.08-1.34-9.51-2.43-11.89-2.89l.54,5.63Z"/>
              <polygon class="cls-15" points="283.36 114.55 306.35 121.81 306.4 108.74 283.83 102.9 283.36 114.55"/>
              <path class="cls-15" d="m293.69,228.43c1.85.28,5.36,1.03,12.19,2.82l.21-50.51-16.87,1.62,4.46,46.07Z"/>
              <polygon class="cls-15" points="289.04 180.38 306.11 178.74 306.21 153.89 286.34 152.52 289.04 180.38"/>
              <path class="cls-15" d="m297.43,91.01c3.23.98,6.25,1.74,9.03,2.3l.05-12.54-7.27-.57-1.82,10.8Z"/>
              <path class="cls-15" d="m221.31,96.06l10.97,2.84.05-11.33c-2.84-.57-5.9-1.34-9.2-2.34l-1.83,10.84Z"/>
              <path class="cls-11" d="m305.46,326.58l-.13-1.98-16.84,1.07-.91-30.21,17.84-1-.06-.99-17.81,1-.76-25.24,2.19-9.1,16.79-1.69v-1s-16.54,1.67-16.54,1.67l5.3-22.03-.54-5.63c2.38.46,6.81,1.55,11.89,2.89v-3.09c-6.82-1.8-10.33-2.54-12.18-2.82l-4.46-46.07,16.87-1.62v-1.99s-17.06,1.64-17.06,1.64l-2.7-27.87,19.87,1.37v-2.98s-20.16-1.4-20.16-1.4l-1.12-11.61,4.51-16.24,16.89,5.33.02-5.19-22.99-7.26.47-11.65,22.58,5.83v-3.07s-10.96-2.84-10.96-2.84l1.83-10.84c3.29,1,6.36,1.77,9.2,2.34v-1.02c-2.78-.56-5.79-1.32-9.03-2.3l1.82-10.8,7.27.57v-1.99s-8.92-.69-8.92-.69l-2.07,12.29c-5.29-2-16.99-8.55-16.43-27.18l27.54-10.9v-1.26s-.29-.76-.29-.76l-27.23,10.78-.03-46.86h-.99s.03,47.25.03,47.25l-11.48,4.54-17.25-34.63c-.81.58-1.75.97-2.76,1.12l17.24,34.6-26.5,10.49.59,2.43-20.77.85-.8-48.43h-.99s.8,48.47.8,48.47l-36.5,1.49c-.06-7.47-.14-14.46-.19-18.34v-.42s-.02,0-.02,0l-2.24-49.89h-.99s2.23,49.75,2.23,49.75l-37.49-5.38,8.93-44.49h-2.55c-.16-.01-.32,0-.48.01l-8.84,44.05-11.91-1.71-.09.65v.34s11.81,1.7,11.81,1.7l-9.47,47.2-2.54-.19-.02,4.97,18.56,1.38v24.48l-18.69,4.23v3.05s21.66-4.9,21.66-4.9v-26.63l69.4,5.14v28.36h-22.19l-2.92,13.2h-18.07l-48.01,8.74v3.02s48.27-8.79,48.27-8.79h54.98l1.98,24.06-57.19,5.5.19,1.97,57.16-5.5,3.79,46.12-57.75-7.54-.39,2.95,58.39,7.63,2.24,27.25-61.12,6.17-31.71,2.24v-41.57l30.05-17.52-1.5-2.57-29.35,17.12-18.28-2.41v3s18.1,2.39,18.1,2.39v26.45l-18.24,1.93v2.99s18.24-1.93,18.24-1.93v13.19h.01s1.08,37.39,1.08,37.39v-.02s-19.58,7.67-19.58,7.67v3.2s19.67-7.71,19.67-7.71l.59,20.37-20.33,1.29v.66s.08,1.32.08,1.32l20.31-1.28.17,5.96h.99l-.17-6.02,78.75-4.98c-.15,3.87-.3,7.62-.43,11h1.98c.12-3.19.27-7.03.43-11.13l17-1.08,2.43,12.2h1.01l-2.44-12.27,38.63-2.44.44,14.71h4.96m-61.95-13.12c.07-1.76.14-3.55.21-5.35l15.48.04.85,4.26-16.53,1.05Zm17.53-1.11l-.95-4.77-2.31-21.77-1.3-15.87,42.23-3.18,1.29,43.13-38.96,2.46Zm9.6-64.8l22.21-2.24-.62,8.72-19.91,2.15-1.68-8.63Zm-.99.1l3.72,19.03-17.06,1.29-1.55-18.82,14.89-1.5Zm28.99,17.13l-24.28,1.83-1.66-8.48,21.39-2.31.76-10.72,5.36-.54-1.94,8.05.36,12.16Zm-28.76-68.48l4.34,19.44-22.01,2.29-1.59-19.36,19.26-2.37Zm5.33,19.34l-4.34-19.46,32.34-3.99,1.97,20.33-29.97,3.12Zm22.28-82.56l-48.8-3.38,4.64-26.92,3.41.25h41.12s3.3,1.05,3.3,1.05l-4.8,17.29,1.13,11.71Zm-2.94-85.56c-.05,5.11,1.07,21.99,17.26,27.77l-1.85,10.96-10.07-2.6-15.91-31.94,10.57-4.18Zm-13.34,5.28l16.16,32.44-.51,12.85h-32.09l-8.61-35.37,25.06-9.92Zm-26.56,12.12l8.08,33.17h-5.71l-22.86-1.69-.5-30.62,20.99-.86Zm-21.98.9l.5,30.5-37.06-2.75c.15-4.95.12-15.95.05-26.26l36.51-1.49Zm-75.41-22.82l37.72,5.41c.19,15.66.36,37.85.17,45.09l-47.32-3.51,9.43-47Zm95.08,59.71l-6.93,40.15h-11.21v-41.49l18.14,1.34Zm-38.93,29.92h19.8v10.23h-22.06l2.26-10.23Zm32.75,11.74l2.02-11.72,49.6,3.43,2.78,28.69-52.31,5.03-2.09-25.43Zm54.59,22.38l2.18,22.49-52.55,6.48-1.97-23.94,52.34-5.03Zm-48.3,54.26l53.02-5.51.5,5.16-5.51,22.91-45.78,4.62-2.23-27.17Zm4.34,64.92l2.26,21.25h-15.3c.27-7.01.53-14.02.71-19.29q.33-9.44-.3-9.75l-.47.93-.96.05c.04.82-.43,13.77-.95,27.62l-44.23-21.19-1.56-30.46,57.79-5.83,3.01,36.66Zm-64.67-30.45l-.31,39.11-29.82,1.41-1.1-38.31,31.23-2.21Zm-30.07,42.43h0s0-.02,0-.02l-.03-.89,30.77-1.46.32-40.13,1.89-.19,1.59,30.99,45.15,21.63c-.07,1.93-.15,3.86-.22,5.78l-78.88,4.99-.6-20.69Z"/>
              <polygon class="cls-9" points="190.57 312.59 147.49 315.61 147.49 329.44 218.59 325.59 190.57 312.59"/>
              <polygon class="cls-9" points="279.29 155.76 236.21 153.04 233.55 160.43 235.01 182.47 281.79 176.92 279.29 155.76"/>
              <polygon class="cls-9" points="175.27 61.89 174.56 21.37 153.51 21.37 147.41 57.81 175.27 61.89"/>
              <polygon class="cls-14" points="276.45 109.78 278.59 101 263.78 72.83 244.78 82.18 251.11 108.83 276.45 109.78"/>
            </g>
          </g>
          <path class="cls-16" d="m124.7,329.55h181.07v47.07c0,10.49-8.52,19-19,19h-142.53c-10.78,0-19.53-8.75-19.53-19.53v-46.54h0Z"/>
        </g>
      </g>
      <g>
        <path class="cls-11" d="m178.16,367.17h2.5v8.84h5.42v2.05h-7.92v-10.89Z"/>
        <path class="cls-11" d="m186.63,373.88c0-2.52,1.93-4.31,4.57-4.31s4.56,1.79,4.56,4.31-1.91,4.31-4.56,4.31-4.57-1.79-4.57-4.31Zm6.69,0c0-1.45-.91-2.32-2.12-2.32s-2.13.87-2.13,2.32.93,2.32,2.13,2.32,2.12-.87,2.12-2.32Z"/>
        <path class="cls-11" d="m196.75,373.88c0-2.52,1.93-4.31,4.63-4.31,1.74,0,3.12.76,3.72,2.13l-1.87,1.01c-.45-.79-1.11-1.15-1.87-1.15-1.22,0-2.18.86-2.18,2.32s.96,2.32,2.18,2.32c.76,0,1.42-.34,1.87-1.15l1.87,1.03c-.6,1.34-1.98,2.12-3.72,2.12-2.7,0-4.63-1.79-4.63-4.31Z"/>
        <path class="cls-11" d="m213.84,373.29v4.78h-2.25v-1.04c-.45.76-1.31,1.17-2.53,1.17-1.95,0-3.1-1.09-3.1-2.54s1.03-2.51,3.57-2.51h1.91c0-1.04-.62-1.65-1.91-1.65-.88,0-1.79.3-2.39.78l-.86-1.7c.91-.65,2.25-1.01,3.58-1.01,2.53,0,4,1.18,4,3.72Zm-2.41,2.13v-.86h-1.65c-1.13,0-1.48.42-1.48.98,0,.61.51,1.01,1.36,1.01.8,0,1.5-.37,1.78-1.14Z"/>
        <path class="cls-11" d="m221.38,377.66c-.49.36-1.22.53-1.96.53-1.96,0-3.1-1.01-3.1-3v-3.44h-1.28v-1.87h1.28v-2.04h2.41v2.04h2.07v1.87h-2.07v3.41c0,.72.39,1.1,1.04,1.1.35,0,.71-.11.97-.31l.65,1.71Z"/>
        <path class="cls-11" d="m222.45,367.17c0-.76.6-1.35,1.5-1.35s1.5.56,1.5,1.31c0,.81-.6,1.4-1.5,1.4s-1.5-.59-1.5-1.35Zm.29,2.52h2.41v8.37h-2.41v-8.37Z"/>
        <path class="cls-11" d="m235.88,373.27v4.79h-2.41v-4.42c0-1.35-.62-1.98-1.68-1.98-1.16,0-1.99.72-1.99,2.26v4.14h-2.41v-8.37h2.3v.98c.65-.72,1.62-1.11,2.75-1.11,1.96,0,3.44,1.15,3.44,3.7Z"/>
        <path class="cls-11" d="m246.72,369.69v6.97c0,3.11-1.67,4.54-4.66,4.54-1.58,0-3.1-.39-4.08-1.15l.96-1.74c.71.58,1.87.95,2.93.95,1.7,0,2.44-.78,2.44-2.29v-.36c-.63.7-1.54,1.04-2.62,1.04-2.3,0-4.15-1.6-4.15-4.05s1.85-4.05,4.15-4.05c1.16,0,2.12.39,2.75,1.2v-1.07h2.29Zm-2.38,3.92c0-1.23-.91-2.05-2.18-2.05s-2.19.83-2.19,2.05.93,2.05,2.19,2.05,2.18-.83,2.18-2.05Z"/>
      </g>
      <polyline class="cls-17" points="179.53 271.18 238.23 264.26 231.96 187.86 228.68 160.65 217.75 161.08 217.7 114.92 278.59 117.45 279.93 97.88 265.16 67.66 278.59 62.34"/>
      <path class="cls-16" d="m181.46,271.18c0,1.06-.86,1.92-1.92,1.92s-1.92-.86-1.92-1.92.86-1.92,1.92-1.92,1.92.86,1.92,1.92Z"/>
      <circle class="cls-16" cx="278.78" cy="62.34" r="1.58"/>
      <g>
        <path class="cls-11" d="m236.92,69.49h-79.49c-1.77,0-3.21,1.44-3.21,3.21v24.62c0,1.77,1.44,3.21,3.21,3.21h58.96l.54,7.42,11.07-7.42h8.91c1.77,0,3.21-1.44,3.21-3.21v-24.62c0-1.77-1.44-3.21-3.21-3.21Z"/>
        <path class="cls-6" d="m236.92,69.49s.27-.04.78.07c.49.11,1.27.42,1.88,1.25.31.41.53.95.61,1.58.04.63.02,1.29.03,2.03,0,1.46.02,3.14.03,5.03.01,3.79.03,8.4.05,13.74,0,1.34,0,2.72.01,4.14.03,1.51-1.12,3.02-2.71,3.33-.81.13-1.54.05-2.33.07-.78,0-1.56,0-2.36,0-1.59,0-3.23,0-4.9,0l.11-.03c-3.46,2.33-7.17,4.82-11.06,7.43l-.32.21-.03-.38c-.17-2.31-.36-4.84-.55-7.42l.23.21c-16.08,0-34.67.02-54.38.03h-4.59c-.55,0-1.1-.14-1.58-.39-.97-.5-1.68-1.48-1.83-2.56-.09-1.08-.02-2.03-.04-3.04,0-3.99,0-7.93,0-11.79,0-1.93,0-3.85,0-5.75,0-.95,0-1.89,0-2.83v-1.41c-.01-.45.02-1,.2-1.46.33-.95,1.08-1.73,2.01-2.08.46-.18.98-.24,1.44-.24h1.37c1.82,0,3.62,0,5.39,0,14.21.02,27,.04,37.75.06,10.73.03,19.42.06,25.45.08,2.99.02,5.32.04,6.92.05.78.01,1.38.02,1.8.03.41,0,.61.03.61.03,0,0-.21.02-.61.03-.42,0-1.02.01-1.8.03-1.6.01-3.93.03-6.92.05-6.03.02-14.72.05-25.45.08-10.75.02-23.55.03-37.75.06-1.78,0-3.57,0-5.39,0h-1.37c-.45,0-.86.05-1.26.2-.8.3-1.44.97-1.72,1.78-.15.41-.18.82-.17,1.3v1.41c0,.94,0,1.88,0,2.83,0,1.9,0,3.81,0,5.75,0,3.87,0,7.8,0,11.79.02.98-.04,2.04.04,2.96.13.92.73,1.75,1.56,2.18.41.21.88.33,1.34.33h1.52c1.02,0,2.04,0,3.07,0,19.71.01,38.3.02,54.38.03h.22s.02.21.02.21c.19,2.58.37,5.11.53,7.42l-.34-.17c3.9-2.6,7.61-5.08,11.08-7.4l.05-.03h.06c1.67,0,3.31,0,4.9,0,.8,0,1.58,0,2.36,0,.76-.02,1.57.06,2.26-.06,1.42-.27,2.46-1.61,2.44-2.97,0-1.42,0-2.81.01-4.14.02-5.34.03-9.95.05-13.74,0-1.89.02-3.57.03-5.03,0-.73.02-1.41,0-2.01-.06-.6-.27-1.12-.56-1.52-.58-.81-1.32-1.13-1.8-1.26-.49-.12-.76-.1-.76-.13Z"/>
      </g>
      <g>
        <path class="cls-6" d="m186.2,86.72c0,1.18-.94,1.87-2.74,1.87h-3.54v-6.85h3.34c1.71,0,2.59.71,2.59,1.78,0,.68-.35,1.21-.91,1.51.76.24,1.25.83,1.25,1.69Zm-4.7-3.79v1.61h1.57c.77,0,1.19-.27,1.19-.81s-.42-.8-1.19-.8h-1.57Zm3.11,3.62c0-.58-.44-.85-1.26-.85h-1.85v1.69h1.85c.82,0,1.26-.25,1.26-.84Z"/>
        <path class="cls-6" d="m192.6,83.33v5.26h-1.45v-.63c-.4.46-.99.7-1.63.7-1.32,0-2.25-.74-2.25-2.37v-2.97h1.53v2.75c0,.88.39,1.27,1.07,1.27s1.21-.45,1.21-1.42v-2.6h1.53Z"/>
        <path class="cls-6" d="m193.51,88.1l.51-1.1c.47.3,1.18.51,1.83.51.7,0,.97-.19.97-.48,0-.86-3.18.02-3.18-2.08,0-1,.9-1.7,2.44-1.7.72,0,1.53.17,2.02.46l-.51,1.09c-.52-.29-1.04-.39-1.52-.39-.68,0-.98.21-.98.49,0,.9,3.18.03,3.18,2.1,0,.98-.91,1.67-2.48,1.67-.89,0-1.79-.24-2.28-.57Z"/>
        <path class="cls-6" d="m206.59,87.12h-3.18l-.61,1.47h-1.62l3.05-6.85h1.56l3.06,6.85h-1.66l-.61-1.47Zm-.5-1.2l-1.09-2.62-1.09,2.62h2.17Z"/>
        <path class="cls-6" d="m212.74,83.25v1.41c-.13,0-.23-.02-.34-.02-.84,0-1.4.46-1.4,1.47v2.48h-1.53v-5.26h1.46v.69c.37-.51,1-.77,1.81-.77Z"/>
        <path class="cls-6" d="m216.91,83.25v1.41c-.13,0-.23-.02-.34-.02-.84,0-1.4.46-1.4,1.47v2.48h-1.53v-5.26h1.46v.69c.37-.51,1-.77,1.81-.77Z"/>
        <path class="cls-6" d="m217.64,81.74c0-.48.38-.85.95-.85s.95.35.95.82c0,.51-.38.88-.95.88s-.95-.37-.95-.85Zm.19,1.58h1.53v5.26h-1.53v-5.26Z"/>
        <path class="cls-6" d="m225.99,83.33l-2.22,5.26h-1.58l-2.21-5.26h1.57l1.46,3.58,1.51-3.58h1.47Z"/>
        <path class="cls-6" d="m231.09,85.59v3h-1.43v-.66c-.28.48-.83.73-1.6.73-1.23,0-1.97-.68-1.97-1.59s.66-1.57,2.26-1.57h1.21c0-.66-.39-1.04-1.21-1.04-.56,0-1.13.19-1.52.49l-.55-1.07c.58-.41,1.43-.64,2.27-.64,1.6,0,2.53.74,2.53,2.34Zm-1.53,1.34v-.54h-1.05c-.71,0-.94.26-.94.62,0,.38.32.64.86.64.51,0,.95-.23,1.12-.71Z"/>
        <path class="cls-6" d="m232.47,81.33h1.53v7.26h-1.53v-7.26Z"/>
      </g>
      <circle class="cls-16" cx="217.75" cy="114.17" r="4.43"/>
      <path class="cls-16" d="m175.12,83.08c0-3.31-2.99-5.93-6.42-5.28-2.16.4-3.88,2.17-4.25,4.33-.24,1.35.04,2.62.66,3.67h0l.02.02c.21.35.46.6.73.96l3.12,4.14c.39.52,1.16.51,1.55,0l3.07-4.07s.57-.68.78-1.04h.01s0-.01,0-.01c.47-.8.74-1.73.74-2.72Zm-5.38,2.34c-1.31,0-2.37-1.06-2.37-2.37s1.06-2.37,2.37-2.37,2.37,1.06,2.37,2.37-1.06,2.37-2.37,2.37Z"/>
    </g>
  </g>
  <g id="Layer_8" data-name="Layer 8">
    <polyline class="cls-11" points="305.93 298.6 305.93 353.98 124.7 353.98 124.7 298.6"/>
    <path class="cls-6" d="m206.81,324.55c0,.14-10.63.25-23.74.25s-23.75-.11-23.75-.25,10.63-.25,23.75-.25,23.74.11,23.74.25Z"/>
    <path class="cls-6" d="m179.01,330.08c0,.14-4.49.25-10.02.25s-10.02-.11-10.02-.25,4.49-.25,10.02-.25,10.02.11,10.02.25Z"/>
    <path class="cls-9" d="m207.81,337.5c0,.14-10.93.25-24.42.25s-24.42-.11-24.42-.25,10.93-.25,24.42-.25,24.42.11,24.42.25Z"/>
    <path class="cls-7" d="m149.28,326.24c0-3.62-3.31-6.48-7.11-5.78-2.39.44-4.29,2.37-4.71,4.74-.26,1.48.05,2.87.73,4.02h0l.02.02c.23.38.51.65.8,1.05l3.46,4.53c.43.56,1.29.56,1.72,0l3.4-4.45s.63-.75.87-1.13v-.02s0,0,0,0c.52-.87.82-1.89.82-2.97Zm-5.96,2.56c-1.45,0-2.62-1.16-2.62-2.59s1.17-2.59,2.62-2.59,2.62,1.16,2.62,2.59-1.17,2.59-2.62,2.59Z"/>
  </g>
  <g id="Layer_9" data-name="Layer 9">
    <g>
      <g>
        <rect class="cls-16" x="223.43" y="324.74" width="72.65" height="9.37"/>
        <g class="cls-18">
          <rect class="cls-5" x="223.43" y="324.74" width="72.65" height="9.37"/>
        </g>
      </g>
      <polygon class="cls-6" points="298.4 326.71 298.94 326.71 299.38 331.15 298.77 331.26 298.4 326.71"/>
      <path class="cls-16" d="m298.28,323.43c-.03-.38-.31-.69-.68-.76l-12.03-2.21-1.37-11.32h-67.55l-.96,1.35-.66,21.22-.59.05v1.55h2.35l.62.62h12.44c.13-3.43,2.95-6.17,6.42-6.17s6.28,2.74,6.42,6.17h25.81l1.66,1.66h12.95l.31-2.41c.28-2.15,1.62-4.05,3.61-4.91.78-.33,1.63-.52,2.53-.52,2.7,0,5.01,1.67,5.96,4.03h3.36l-.6-8.35Z"/>
      <rect class="cls-6" x="219.3" y="311.77" width="50.32" height="9.09"/>
      <g>
        <g>
          <rect class="cls-6" x="270.48" y="312.26" width="11.37" height="23.32"/>
          <rect class="cls-7" x="271.11" y="313.85" width="4.32" height="18.24"/>
          <rect class="cls-7" x="276.81" y="313.85" width="4.32" height="18.24"/>
          <path class="cls-7" d="m276.15,312.26s.03,5.18.03,11.57-.02,11.57-.03,11.57-.03-5.18-.03-11.57.02-11.57.03-11.57Z"/>
        </g>
        <g class="cls-19">
          <polygon class="cls-11" points="271.11 325.07 271.11 327.53 275.44 322.41 275.44 320.05 271.11 325.07"/>
        </g>
        <g class="cls-19">
          <polygon class="cls-11" points="276.81 328 276.81 330.45 281.13 325.33 281.13 322.97 276.81 328"/>
        </g>
        <g class="cls-18">
          <polygon class="cls-11" points="278.66 313.85 276.81 316 276.81 318.46 280.7 313.85 278.66 313.85"/>
        </g>
        <g class="cls-19">
          <polygon class="cls-11" points="271.11 328.47 271.1 329.27 275.44 324.2 275.44 323.49 271.11 328.47"/>
        </g>
        <g class="cls-18">
          <rect class="cls-5" x="271.11" y="313.85" width="10.02" height=".38"/>
        </g>
      </g>
      <polygon class="cls-6" points="284.59 312.36 283.02 312.36 283.02 320.68 285.58 320.44 284.59 312.36"/>
      <polygon class="cls-7" points="284.65 312.84 283.5 312.84 283.5 320.19 285.52 320.02 284.65 312.84"/>
      <rect class="cls-6" x="286.64" y="313.44" width=".52" height="6.6" rx=".26" ry=".26"/>
      <rect class="cls-6" x="287.16" y="316.61" width=".58" height="1.44"/>
      <g>
        <rect class="cls-7" x="219.83" y="312.26" width="7.46" height="8.09"/>
        <rect class="cls-7" x="228.17" y="312.26" width="7.46" height="8.09"/>
        <rect class="cls-7" x="236.51" y="312.26" width="7.46" height="8.09"/>
        <rect class="cls-7" x="244.85" y="312.26" width="7.46" height="8.09"/>
        <rect class="cls-7" x="253.19" y="312.26" width="7.46" height="8.09"/>
        <rect class="cls-7" x="261.53" y="312.26" width="7.46" height="8.09"/>
      </g>
      <rect class="cls-16" x="217.53" y="309.92" width="1.77" height=".81" rx=".41" ry=".41"/>
      <rect class="cls-16" x="267.69" y="327.78" width="1.77" height=".81" rx=".41" ry=".41"/>
      <rect class="cls-16" x="281.33" y="309.98" width="1.77" height=".81" rx=".41" ry=".41"/>
      <rect class="cls-16" x="216.85" y="328.19" width="1.77" height=".81" rx=".41" ry=".41"/>
      <path class="cls-6" d="m215.13,324.42h55.59v1.37h-55.59c-.38,0-.68-.31-.68-.68h0c0-.38.31-.68.68-.68Z"/>
      <path class="cls-6" d="m214.2,331.71h4.47l.4.33h11.25l-.32,2.12-12.8-.03-.66-.72h-1.99c-.2,0-.36-.16-.36-.36v-1.34Z"/>
      <rect class="cls-6" x="242.46" y="332.3" width="26.12" height="1.81"/>
      <polygon class="cls-6" points="217.88 333.68 217.88 334.36 227.82 334.36 227.82 333.44 217.88 333.68"/>
      <path class="cls-6" d="m222.1,320.34s-.22-1.93-.35-2.48c-.14-.55-.14-.81.18-.77.31.04.88,1.36.96,3.24h-.79Z"/>
      <path class="cls-6" d="m225.01,320.34s-.22-1.93-.35-2.48c-.14-.55-.14-.81.18-.77.31.04.88,1.36.96,3.24h-.79Z"/>
      <g class="cls-1">
        <path class="cls-11" d="m226.24,320.34v-6.1h1.06v6.1h-1.06Z"/>
      </g>
      <g class="cls-1">
        <path class="cls-11" d="m228.41,320.34v-6.1h7.22v6.1h-7.22Z"/>
      </g>
      <g class="cls-1">
        <path class="cls-11" d="m238.36,320.34v-6.1h5.62v6.1h-5.62Z"/>
      </g>
      <g class="cls-1">
        <path class="cls-11" d="m246.7,320.34v-6.1h5.62v6.1h-5.62Z"/>
      </g>
      <g class="cls-1">
        <path class="cls-11" d="m253.19,320.34v-6.1h5.62v6.1h-5.62Z"/>
      </g>
      <g class="cls-1">
        <path class="cls-11" d="m263.32,320.34v-6.1h5.62v6.1h-5.62Z"/>
      </g>
      <path class="cls-6" d="m269.35,331.45s0-.01,0-.03c0-.03,0-.06,0-.09,0-.09,0-.21,0-.35,0-.31,0-.75-.01-1.28l.02.02c-.96,0-2.26,0-3.68,0-.03.03.04-.04.03-.03h0v.23c0,.08,0,.15,0,.23,0,.15,0,.3,0,.45,0,.3,0,.58,0,.86l-.03-.03c1.06,0,1.98.01,2.63.02.32,0,.58,0,.77,0,.09,0,.15,0,.21,0,.05,0,.07,0,.07,0,0,0-.02,0-.07,0-.05,0-.12,0-.2,0-.18,0-.44,0-.76,0-.66,0-1.58,0-2.65.02h-.03s0-.03,0-.03c0-.27,0-.56,0-.86,0-.15,0-.3,0-.45,0-.08,0-.15,0-.23v-.12s0-.06,0-.06v-.03h0v-.02h0s.06-.07.03-.04c1.42,0,2.71,0,3.68,0h.02s0,.02,0,.02c0,.54-.01.99-.01,1.3,0,.15,0,.26,0,.35,0,.08,0,.12,0,.12Z"/>
      <path class="cls-6" d="m295.36,331.41l.36,1.9h.66v.85h2.89v-.59h.29c.27,0,.48-.22.48-.48v-.8c0-.27-.22-.48-.48-.48h-.28v-.48l-3.93.08Z"/>
      <polygon class="cls-6" points="281.69 323.55 281.63 323.44 287.74 320.24 287.74 311.82 282.06 311.82 282.06 311.7 287.87 311.7 287.87 320.32 287.84 320.34 281.69 323.55"/>
      <rect class="cls-6" x="214.85" y="326.79" width="56.02" height=".6" rx=".3" ry=".3"/>
      <g>
        <circle class="cls-6" cx="236.27" cy="334.26" r="5.66" transform="translate(-3.59 2.57) rotate(-.62)"/>
        <path class="cls-6" d="m230.61,334.16s0,0,0,.01c-.05,3.13,2.45,5.7,5.58,5.74,3.13.05,5.7-2.45,5.74-5.58,0,0,0,0,0-.01l-11.32-.16Z"/>
        <path class="cls-13" d="m232.3,334.2c-.03,2.2,1.72,4,3.92,4.03,2.2.03,4-1.72,4.03-3.92.03-2.2-1.72-4-3.92-4.03-2.2-.03-4,1.72-4.03,3.92Z"/>
        <path class="cls-9" d="m236.33,330.28c-2.2-.03-4,1.72-4.03,3.92l7.95.11c.03-2.2-1.72-4-3.92-4.03Z"/>
        <path class="cls-6" d="m233.85,334.22c-.02,1.34,1.05,2.44,2.39,2.46,1.34.02,2.44-1.05,2.46-2.39.02-1.34-1.05-2.44-2.39-2.46-1.34-.02-2.44,1.05-2.46,2.39Z"/>
      </g>
      <g>
        <circle class="cls-6" cx="289.49" cy="334.26" r="5.66" transform="translate(-3.59 3.14) rotate(-.62)"/>
        <path class="cls-6" d="m283.83,334.16s0,0,0,.01c-.05,3.13,2.45,5.7,5.58,5.74,3.13.05,5.7-2.45,5.74-5.58,0,0,0,0,0-.01l-11.32-.16Z"/>
        <path class="cls-13" d="m285.51,334.2c-.03,2.2,1.72,4,3.92,4.03,2.2.03,4-1.72,4.03-3.92.03-2.2-1.72-4-3.92-4.03-2.2-.03-4,1.72-4.03,3.92Z"/>
        <path class="cls-9" d="m289.54,330.28c-2.2-.03-4,1.72-4.03,3.92l7.95.11c.03-2.2-1.72-4-3.92-4.03Z"/>
        <path class="cls-6" d="m287.07,334.22c-.02,1.34,1.05,2.44,2.39,2.46,1.34.02,2.44-1.05,2.46-2.39.02-1.34-1.05-2.44-2.39-2.46-1.34-.02-2.44,1.05-2.46,2.39Z"/>
      </g>
      <path class="cls-6" d="m284.3,309.46s2.26,0,2.26,0c0,0-.28.7-.99.93-.7.23-1.2.14-1.2.14l-.07-1.07Z"/>
      <path class="cls-6" d="m216.52,309.31h-2.07s-.16.8,1.25,1.16l.82-1.16Z"/>
      <path class="cls-11" d="m297.43,328.3h0c.32,0,.58.26.58.58v1.55c0,.32-.26.58-.58.58h0v-2.71h0Z"/>
      <path class="cls-6" d="m230.26,320.34s-.22-1.93-.35-2.48c-.14-.55-.14-.81.18-.77.31.04.88,1.36.96,3.24h-.79Z"/>
      <path class="cls-6" d="m233.17,320.34s-.22-1.93-.35-2.48c-.14-.55-.14-.81.18-.77.31.04.88,1.36.96,3.24h-.79Z"/>
      <path class="cls-6" d="m238.7,320.34s-.22-1.93-.35-2.48c-.14-.55-.14-.81.18-.77.31.04.88,1.36.96,3.24h-.79Z"/>
      <path class="cls-6" d="m241.61,320.34s-.22-1.93-.35-2.48c-.14-.55-.14-.81.18-.77.31.04.88,1.36.96,3.24h-.79Z"/>
      <path class="cls-6" d="m247.24,320.34s-.22-1.93-.35-2.48c-.14-.55-.14-.81.18-.77.31.04.88,1.36.96,3.24h-.79Z"/>
      <path class="cls-6" d="m250.15,320.34s-.22-1.93-.35-2.48c-.14-.55-.14-.81.18-.77.31.04.88,1.36.96,3.24h-.79Z"/>
      <path class="cls-6" d="m255.45,320.34s-.22-1.93-.35-2.48c-.14-.55-.14-.81.18-.77.31.04.88,1.36.96,3.24h-.79Z"/>
      <path class="cls-6" d="m258.35,320.34s-.22-1.93-.35-2.48c-.14-.55-.14-.81.18-.77.31.04.88,1.36.96,3.24h-.79Z"/>
      <path class="cls-6" d="m263.65,320.34s-.22-1.93-.35-2.48c-.14-.55-.14-.81.18-.77.31.04.88,1.36.96,3.24h-.79Z"/>
      <path class="cls-6" d="m266.56,320.34s-.22-1.93-.35-2.48c-.14-.55-.14-.81.18-.77.31.04.88,1.36.96,3.24h-.79Z"/>
      <g class="cls-1">
        <polygon class="cls-11" points="224.34 312.26 219.83 317.53 219.83 319.41 225.79 312.26 224.34 312.26"/>
      </g>
      <g class="cls-1">
        <polygon class="cls-11" points="227.29 312.26 220.66 320.34 221.66 320.34 227.3 313.24 227.29 312.26"/>
      </g>
      <path class="cls-6" d="m297.31,331.97s0-.02,0-.05c0-.04,0-.09.02-.15.01-.13.03-.33.05-.59.03-.51.04-1.25.05-2.16,0-.46-.01-.96-.16-1.48-.07-.26-.17-.52-.32-.76-.15-.24-.34-.47-.58-.64-.48-.36-1.12-.51-1.77-.56-.65-.05-1.34-.06-2.03-.04-1.39.04-2.72.21-3.9.45-1.18.24-2.21.64-2.96,1.16-.38.26-.68.54-.93.8-.24.27-.42.53-.55.75-.13.22-.21.4-.26.53-.02.06-.04.11-.05.14-.01.03-.02.05-.02.05,0,0,0-.02.01-.05.01-.04.03-.08.05-.15.05-.13.12-.31.25-.53.13-.22.3-.48.55-.76.24-.27.55-.56.93-.81.75-.53,1.79-.94,2.98-1.19,1.19-.25,2.51-.42,3.91-.46.7-.02,1.38-.01,2.04.04.65.06,1.3.21,1.8.58.25.18.45.41.6.66.15.25.25.51.32.77.14.52.16,1.03.15,1.49,0,.91-.03,1.66-.07,2.17-.02.26-.04.45-.06.59,0,.06-.02.11-.02.15,0,.03,0,.05-.01.05Z"/>
      <g class="cls-19">
        <path class="cls-5" d="m294,325.42c-3.1-.86-6.54-.25-9.24,1.5-.46.3-.91.64-1.27,1.06-.36.42-.63.93-.69,1.48-.03.27.03.61.29.71.19.07.42-.03.55-.19.13-.16.18-.37.23-.57,0,0,.63-1.7,2.18-2.51,3.28-1.71,7.96-1.47,7.96-1.47Z"/>
      </g>
      <g>
        <path class="cls-6" d="m253.81,323.47c-.11-.03-.21-.08-.27-.13l.12-.27c.07.05.14.09.24.12.09.03.18.04.27.04.1,0,.18-.02.22-.05.05-.03.07-.07.07-.12,0-.04-.01-.07-.04-.09-.03-.02-.07-.04-.11-.06-.04-.01-.11-.03-.18-.05-.12-.03-.21-.06-.29-.08-.08-.03-.14-.07-.19-.13-.05-.06-.08-.14-.08-.25,0-.09.02-.17.07-.24.05-.07.12-.13.22-.17.1-.04.22-.06.36-.06.1,0,.19.01.29.04.09.02.18.06.25.1l-.11.27c-.14-.08-.29-.12-.43-.12-.1,0-.17.02-.22.05-.05.03-.07.08-.07.13s.03.09.08.12c.06.03.14.05.25.08.12.03.21.06.29.08.08.03.14.07.19.13.05.06.08.14.08.24,0,.09-.02.17-.07.24-.05.07-.12.13-.22.17-.1.04-.22.06-.36.06-.12,0-.24-.02-.35-.05Z"/>
        <path class="cls-6" d="m255.38,323.42c-.13-.07-.23-.16-.3-.28-.07-.12-.11-.26-.11-.41s.04-.29.11-.41c.07-.12.17-.22.3-.28.13-.07.27-.1.43-.1.13,0,.25.02.36.07.11.05.2.11.27.2l-.23.21c-.1-.12-.23-.18-.39-.18-.1,0-.18.02-.26.06-.07.04-.13.1-.18.18-.04.08-.06.16-.06.26s.02.18.06.26c.04.07.1.13.18.18.08.04.16.06.26.06.15,0,.28-.06.39-.18l.23.21c-.07.09-.16.16-.27.21-.11.05-.23.07-.36.07-.16,0-.3-.03-.43-.1Z"/>
        <path class="cls-6" d="m258.1,321.95v1.54h-.36v-.63h-.7v.63h-.36v-1.54h.36v.61h.7v-.61h.36Z"/>
        <path class="cls-6" d="m258.78,323.42c-.13-.07-.23-.16-.3-.29-.07-.12-.11-.26-.11-.41s.04-.29.11-.41c.07-.12.17-.22.3-.29.13-.07.27-.1.43-.1s.3.03.43.1c.13.07.23.16.3.29.07.12.11.26.11.41s-.04.29-.11.41c-.07.12-.17.22-.3.29-.13.07-.27.1-.43.1s-.3-.03-.43-.1Zm.68-.26c.07-.04.13-.1.17-.18.04-.08.06-.16.06-.26s-.02-.18-.06-.26c-.04-.07-.1-.13-.17-.18-.07-.04-.16-.06-.25-.06s-.17.02-.25.06c-.07.04-.13.1-.17.18-.04.08-.06.16-.06.26s.02.18.06.26c.04.07.1.13.17.18.07.04.16.06.25.06s.17-.02.25-.06Z"/>
        <path class="cls-6" d="m260.64,323.42c-.13-.07-.23-.16-.3-.29-.07-.12-.11-.26-.11-.41s.04-.29.11-.41c.07-.12.17-.22.3-.29.13-.07.27-.1.43-.1s.3.03.43.1c.13.07.23.16.3.29.07.12.11.26.11.41s-.04.29-.11.41c-.07.12-.17.22-.3.29-.13.07-.27.1-.43.1s-.3-.03-.43-.1Zm.68-.26c.07-.04.13-.1.17-.18.04-.08.06-.16.06-.26s-.02-.18-.06-.26c-.04-.07-.1-.13-.17-.18-.07-.04-.16-.06-.25-.06s-.17.02-.25.06c-.07.04-.13.1-.17.18-.04.08-.06.16-.06.26s.02.18.06.26c.04.07.1.13.17.18.07.04.16.06.25.06s.17-.02.25-.06Z"/>
        <path class="cls-6" d="m262.19,321.95h.36v1.25h.77v.29h-1.13v-1.54Z"/>
        <path class="cls-6" d="m265.49,322.83c.05.07.08.15.08.24,0,.14-.05.24-.16.31-.11.07-.26.11-.46.11h-.8v-1.54h.75c.19,0,.33.04.43.11.1.07.15.17.15.29,0,.07-.02.14-.05.2-.04.06-.09.11-.15.14.09.03.16.07.21.14Zm-.99-.61v.36h.36c.09,0,.16-.02.2-.05.05-.03.07-.08.07-.14s-.02-.11-.07-.14c-.05-.03-.11-.05-.2-.05h-.36Zm.63.96s.07-.08.07-.14c0-.13-.09-.19-.28-.19h-.42v.38h.42c.09,0,.17-.02.21-.05Z"/>
        <path class="cls-6" d="m266,323.34c-.12-.12-.18-.3-.18-.52v-.86h.36v.85c0,.28.11.41.34.41.11,0,.2-.03.26-.1.06-.07.09-.17.09-.31v-.85h.35v.86c0,.23-.06.4-.18.52-.12.12-.29.18-.52.18s-.39-.06-.52-.18Z"/>
        <path class="cls-6" d="m267.72,323.47c-.11-.03-.21-.08-.27-.13l.12-.27c.07.05.14.09.24.12.09.03.18.04.27.04.1,0,.18-.02.22-.05.05-.03.07-.07.07-.12,0-.04-.01-.07-.04-.09-.03-.02-.07-.04-.11-.06-.04-.01-.11-.03-.18-.05-.12-.03-.21-.06-.29-.08-.08-.03-.14-.07-.19-.13-.05-.06-.08-.14-.08-.25,0-.09.02-.17.07-.24.05-.07.12-.13.22-.17.1-.04.22-.06.36-.06.1,0,.19.01.29.04.09.02.18.06.25.1l-.11.27c-.14-.08-.29-.12-.43-.12-.1,0-.17.02-.22.05-.05.03-.07.08-.07.13s.03.09.08.12c.06.03.14.05.25.08.12.03.21.06.29.08.08.03.14.07.19.13.05.06.08.14.08.24,0,.09-.02.17-.07.24-.05.07-.12.13-.22.17-.1.04-.22.06-.36.06-.12,0-.24-.02-.35-.05Z"/>
      </g>
      <path class="cls-7" d="m230.06,334.14s-2.88.03-6.42.03-6.42-.02-6.42-.03,2.88-.03,6.42-.03,6.42.02,6.42.03Z"/>
      <polygon class="cls-6" points="247.3 333.92 248.36 334.89 262.66 334.89 262.66 333.92 247.3 333.92"/>
      <path class="cls-7" d="m264.91,334.16s-4.89.03-10.92.03-10.92-.02-10.92-.03,4.89-.03,10.92-.03,10.92.02,10.92.03Z"/>
      <g class="cls-18">
        <polygon class="cls-11" points="284.86 314.54 283.5 316.05 283.5 318.06 285.06 316.16 284.86 314.54"/>
      </g>
    </g>
  </g>
  <g id="Layer_10" data-name="Layer 10">
    <g>
      <path class="cls-6" d="m163.97,318.94v-2.94s-1.45,2.42-1.45,2.42h-.51l-1.44-2.36v2.88h-1.06v-4.9h.94l1.83,3.05,1.81-3.05h.93v4.9s-1.05,0-1.05,0Z"/>
      <path class="cls-6" d="m169.86,315.17l-1.7,4c-.36.91-.88,1.18-1.56,1.18-.39,0-.81-.13-1.05-.34l.4-.78c.17.15.4.24.62.24.3,0,.47-.13.62-.47v-.04s-1.62-3.8-1.62-3.8h1.13l1.06,2.56,1.06-2.56h1.05Z"/>
      <path class="cls-6" d="m171.98,318.46l.39-.85c.41.3,1.03.51,1.62.51.67,0,.95-.22.95-.53,0-.92-2.85-.29-2.85-2.11,0-.83.67-1.53,2.07-1.53.62,0,1.25.15,1.7.43l-.35.86c-.46-.26-.92-.38-1.36-.38-.67,0-.93.25-.93.56,0,.9,2.85.28,2.85,2.08,0,.82-.68,1.52-2.08,1.52-.78,0-1.56-.23-2-.57Z"/>
      <path class="cls-6" d="m176.47,317.06c0-1.13.88-1.94,2.1-1.94.79,0,1.42.34,1.69.96l-.85.46c-.2-.36-.5-.52-.85-.52-.55,0-.99.39-.99,1.04s.43,1.04.99,1.04c.34,0,.64-.15.85-.52l.85.46c-.27.6-.9.95-1.69.95-1.23,0-2.1-.8-2.1-1.94Z"/>
      <path class="cls-6" d="m184.74,316.78v2.16h-1.09v-1.99c0-.61-.28-.89-.76-.89-.53,0-.9.32-.9,1.02v1.86h-1.09v-5.2h1.09v1.82c.29-.29.71-.45,1.2-.45.89,0,1.56.52,1.56,1.67Z"/>
      <path class="cls-6" d="m185.45,317.06c0-1.13.88-1.94,2.07-1.94s2.07.81,2.07,1.94-.87,1.94-2.07,1.94-2.07-.8-2.07-1.94Zm3.03,0c0-.65-.41-1.04-.96-1.04s-.97.39-.97,1.04.42,1.04.97,1.04.96-.39.96-1.04Z"/>
      <path class="cls-6" d="m190.03,317.06c0-1.13.88-1.94,2.07-1.94s2.07.81,2.07,1.94-.87,1.94-2.07,1.94-2.07-.8-2.07-1.94Zm3.03,0c0-.65-.41-1.04-.96-1.04s-.97.39-.97,1.04.42,1.04.97,1.04.96-.39.96-1.04Z"/>
      <path class="cls-6" d="m194.9,313.74h1.09v5.2h-1.09v-5.2Z"/>
    </g>
  </g>
  <g id="Layer_11" data-name="Layer 11">
    <g>
      <path class="cls-16" d="m287.16,49.63l-8.91-7.47-8.93,7.47c-.49.4-.54,1.13-.14,1.61.41.49,1.13.54,1.61.14l7.46-6.24,7.44,6.24c.49.4,1.21.34,1.61-.14.41-.49.34-1.21-.14-1.61Z"/>
      <path class="cls-16" d="m271.95,51.66v7.65h12.58v-7.65l-6.29-5.28-6.29,5.28Zm6.09,5.01h-1.64v-1.64h1.64v1.64Zm0-2.07h-1.64v-1.64h1.64v1.64Zm.4-1.64h1.64v1.64h-1.64v-1.64Zm0,2.07h1.64v1.64h-1.64v-1.64Z"/>
    </g>
  </g>
  <g id="Layer_12" data-name="Layer 12">
    <path class="cls-3" d="m180.24,253.55c.04.07.02.15-.05.19-.07.04-.15.02-.19-.05l-.58-.97s-.02-.06-.02-.09h0l.09-.83c0-.08.08-.13.16-.13.08,0,.13.08.13.16l-.08.79.56.93Zm-.7-2.46c.86,0,1.56.7,1.56,1.56s-.7,1.56-1.56,1.56-1.56-.7-1.56-1.56.7-1.56,1.56-1.56Zm-.07,6.81h0c.85,0,1.55.7,1.55,1.55v4.35h-3.1v-4.35c0-.85.7-1.55,1.55-1.55Zm8.59,1.19h0c.53,0,.96.43.96.96v2.02h-1.91v-2.02c0-.53.43-.96.96-.96Zm0-4h0c.53,0,.96.43.96.96v2.02h-1.91v-2.02c0-.53.43-.96.96-.96Zm-2.55,4h0c.53,0,.96.43.96.96v2.02h-1.91v-2.02c0-.53.43-.96.96-.96Zm0-4h0c.53,0,.96.43.96.96v2.02h-1.91v-2.02c0-.53.43-.96.96-.96Zm-11.95,4h0c.53,0,.96.43.96.96v2.02h-1.91v-2.02c0-.53.43-.96.96-.96Zm0-4h0c.53,0,.96.43.96.96v2.02h-1.91v-2.02c0-.53.43-.96.96-.96Zm-2.55,4h0c.53,0,.96.43.96.96v2.02h-1.91v-2.02c0-.53.43-.96.96-.96Zm0-4h0c.53,0,.96.43.96.96v2.02h-1.91v-2.02c0-.53.43-.96.96-.96Zm8.53-9.82h0c.08,0,.14.06.14.14v.09c.53-.09,1.05.43,1.72.32v1.17c-.58.29-1.13-.41-1.72-.32v1.22c.05.01.1.04.15.07l5.02,3.34c.23.15.29.46.14.68-.15.23-.46.29-.68.14l-4.76-3.17-4.76,3.17c-.23.15-.53.09-.68-.14-.15-.23-.09-.53.14-.68l5.03-3.35s.09-.05.13-.06v-2.49c0-.08.06-.14.14-.14Zm-13.43,18.99h9.48v-.47h-7.27c-.15,0-.28-.13-.28-.28v-.5c0-.15.13-.28.28-.28h.55v-8.2c0-.31.26-.57.57-.57h6.14v-2.04l3.95-2.63,3.95,2.63v2.04h6.14c.31,0,.57.26.57.57v8.2h.55c.15,0,.28.13.28.28v.5c0,.15-.13.28-.28.28h-7.27v.47h9.48c.15,0,.28.13.28.28v.5c0,.15-.13.28-.28.28h-26.87c-.15,0-.28-.13-.28-.28v-.5c0-.15.13-.28.28-.28Z"/>
  </g>
  <g id="Layer_16" data-name="Layer 16">
    <g>
      <g>
        <g>
          <g>
            <path class="cls-16" d="m361.61,376.58l-.67,32.17,42.35,1c-.15-3.83-21.85-12.02-21.85-12.02l1.33-20.6-21.15-.55Z"/>
            <g class="cls-20">
              <path class="cls-11" d="m368.38,395.68c-.83.19-1.41,1.05-1.24,1.84s1.09,1.36,1.92,1.18c.83-.18,1.57-1.19,1.31-1.95-.26-.76-1.38-1.38-2.14-1.02"/>
            </g>
            <g class="cls-20">
              <path class="cls-11" d="m360.94,408.75l.2-3.24,40.53,2.17s1.87.82,1.62,2.07l-42.35-1Z"/>
            </g>
            <path class="cls-6" d="m382.12,397.54c-.01.2-1.05.26-2.08.86-1.05.58-1.6,1.41-1.79,1.33-.19-.04.15-1.2,1.42-1.91,1.26-.72,2.5-.46,2.45-.28Z"/>
            <path class="cls-6" d="m386.52,399.38c.04.19-.86.5-1.59,1.31-.75.79-.95,1.68-1.16,1.67-.2.03-.31-1.12.61-2.11.91-1,2.13-1.05,2.13-.87Z"/>
            <path class="cls-6" d="m388.91,404.46c-.19.04-.45-.95.11-2,.55-1.06,1.54-1.46,1.62-1.3.11.16-.53.72-.98,1.6-.47.86-.55,1.69-.75,1.7Z"/>
            <path class="cls-6" d="m381.87,392.81c-.09.18-1.03-.12-2.2-.07-1.17.03-2.09.37-2.19.2-.12-.14.79-.85,2.17-.88,1.38-.05,2.33.6,2.23.75Z"/>
            <path class="cls-6" d="m380.99,388.04c0,.08-.82.18-2.12-.06-.65-.12-1.41-.34-2.2-.7-.4-.18-.8-.39-1.2-.64-.19-.12-.42-.25-.63-.49-.22-.21-.34-.73-.07-1.04.22-.3.61-.43.92-.43.31,0,.56.06.79.12.47.12.91.28,1.31.46.8.37,1.45.82,1.92,1.26.96.88,1.28,1.62,1.2,1.66-.1.06-.56-.56-1.54-1.29-.49-.36-1.12-.74-1.87-1.05-.38-.15-.78-.28-1.21-.38-.45-.12-.83-.13-.95.05-.04.07-.05.1.04.23.09.12.27.23.46.36.37.24.74.45,1.1.63.73.36,1.43.62,2.03.79,1.2.35,2,.42,2,.53Z"/>
            <path class="cls-6" d="m380.71,388.31c-.07.03-.47-.68-.51-1.95-.02-.63.07-1.39.35-2.19.14-.4.33-.81.57-1.2.26-.39.58-.91,1.38-.98.42,0,.76.31.87.58.13.27.15.51.2.74.07.47.04.93-.03,1.35-.16.85-.54,1.55-.96,2.05-.85,1.02-1.72,1.23-1.74,1.16-.07-.1.66-.46,1.32-1.44.32-.48.62-1.13.72-1.87.05-.37.06-.76,0-1.16-.06-.43-.21-.77-.38-.73-.21,0-.58.3-.76.64-.23.35-.41.72-.55,1.07-.28.72-.42,1.41-.46,1.99-.09,1.17.11,1.91,0,1.94Z"/>
          </g>
          <g>
            <path class="cls-16" d="m329.51,379.25l-4.05,31.92-42.04-5.22c.71-3.77,23.38-8.69,23.38-8.69l1.7-20.57,21,2.55Z"/>
            <g class="cls-20">
              <path class="cls-11" d="m320.01,397.16c.79.31,1.25,1.25.96,2-.28.75-1.27,1.19-2.07.89-.79-.3-1.38-1.4-1.01-2.12.37-.72,1.57-1.17,2.26-.7"/>
            </g>
            <g class="cls-20">
              <path class="cls-11" d="m325.47,411.17l.27-3.23-40.41-3.79s-1.96.54-1.9,1.81l42.04,5.22Z"/>
            </g>
            <path class="cls-6" d="m306.15,396.98c-.02.19,1,.41,1.93,1.16.95.73,1.37,1.63,1.57,1.58.19-.01.03-1.21-1.12-2.1-1.14-.9-2.41-.82-2.39-.64Z"/>
            <path class="cls-6" d="m301.53,398.16c-.07.18.78.62,1.38,1.53.63.89.69,1.8.9,1.82.19.05.47-1.06-.3-2.18-.76-1.12-1.95-1.35-1.98-1.17Z"/>
            <path class="cls-6" d="m298.42,402.84c.18.06.58-.87.19-2-.39-1.13-1.31-1.67-1.41-1.52-.14.15.42.79.73,1.72.33.92.29,1.75.5,1.79Z"/>
            <path class="cls-6" d="m307.09,392.34c.06.19,1.04.04,2.19.26,1.16.2,2.01.68,2.14.52.14-.13-.66-.95-2.02-1.19-1.36-.25-2.4.25-2.31.41Z"/>
            <path class="cls-6" d="m308.66,387.75c-.01.08.78.3,2.11.25.66-.03,1.44-.13,2.28-.37.42-.12.85-.27,1.28-.46.21-.09.45-.18.69-.39.25-.17.44-.67.22-1.02-.18-.33-.54-.51-.85-.56-.31-.05-.57-.02-.8,0-.48.05-.94.14-1.36.26-.84.25-1.55.6-2.09.96-1.08.73-1.5,1.42-1.43,1.46.09.08.63-.47,1.71-1.05.54-.29,1.21-.57,2-.77.39-.09.81-.17,1.25-.2.46-.06.84-.01.93.19.03.08.03.11-.07.22-.11.1-.3.19-.51.28-.4.18-.8.34-1.19.46-.78.25-1.5.4-2.12.49-1.24.17-2.04.12-2.05.23Z"/>
            <path class="cls-6" d="m308.89,388.06c.07.04.56-.61.79-1.85.11-.62.13-1.38-.02-2.21-.08-.42-.21-.85-.39-1.28-.2-.42-.44-.99-1.22-1.17-.41-.07-.8.2-.95.45-.17.25-.23.48-.3.7-.13.45-.18.91-.16,1.34.03.86.31,1.61.65,2.17.7,1.13,1.53,1.47,1.55,1.41.08-.09-.59-.55-1.1-1.62-.25-.53-.45-1.2-.44-1.95,0-.37.06-.76.18-1.15.12-.41.33-.73.49-.67.21.02.53.38.66.74.17.38.3.77.39,1.14.18.75.21,1.45.17,2.04-.08,1.17-.39,1.87-.28,1.92Z"/>
          </g>
          <path class="cls-6" d="m398.34,205.7l-69.82,2.23s-15.54,103.78-15.11,110.99l-9.58,75.28,27.89.98s4.39-24.41,7.45-41.12c2.04-11.12,5.75-27.43,6.76-36.71,1.01-9.28,14.9-73.17,14.9-73.17,0,0,1.21,74.31,1.24,77.4.03,3.09-3.22,73.53-3.22,73.53h27.69c1.43-12.71,4.83-63.59,5.56-73.87,1.32-18.56,7.81-71.97,8.42-85.37.61-13.4-2.16-30.18-2.16-30.18Z"/>
        </g>
        <path class="cls-7" d="m339.12,216.84c-.13,0-.28-1.44-.34-3.23-.05-1.79,0-3.24.14-3.24.13,0,.28,1.44.34,3.23.05,1.79,0,3.24-.14,3.24Z"/>
        <path class="cls-7" d="m341.66,216.08c-.13-.01-.13-1.25.02-2.76.14-1.51.36-2.73.5-2.72.13.01.13,1.25-.02,2.76-.14,1.51-.36,2.73-.5,2.72Z"/>
        <path class="cls-7" d="m384.28,216.09c-.13,0-.24-1.06-.24-2.36s.11-2.36.24-2.36.24,1.06.24,2.36-.11,2.36-.24,2.36Z"/>
        <path class="cls-7" d="m387.01,217.33c-.12.02-.42-1.34-.27-3.03.14-1.69.65-2.98.77-2.94.13.04-.16,1.35-.29,2.98-.14,1.63-.07,2.97-.21,2.99Z"/>
        <path class="cls-7" d="m364.77,242.51s.03-.44.16-1.21c.15-.87.34-1.97.56-3.28.46-2.77,1-6.62,1.35-10.89.34-4.27.43-8.15.42-10.96-.01-1.33-.02-2.45-.02-3.33,0-.79,0-1.22.04-1.22.03,0,.09.43.15,1.22.07.78.13,1.92.18,3.33.09,2.82.06,6.72-.28,11.01-.35,4.29-.95,8.14-1.49,10.91-.27,1.38-.52,2.5-.71,3.26-.19.76-.31,1.18-.35,1.18Z"/>
        <path class="cls-7" d="m362.38,212.39c.02.09-.73,0-1.4.78-.31.37-.57.95-.46,1.56.1.61.68,1.12,1.4,1.26.72.14,1.45-.13,1.76-.66.33-.52.3-1.16.15-1.62-.33-.97-1.06-1.16-1.01-1.24,0-.02.19-.03.47.12.28.14.64.47.87.99.21.51.31,1.27-.09,1.97-.39.72-1.36,1.08-2.23.9-.87-.15-1.64-.84-1.74-1.66-.12-.8.25-1.47.64-1.87.41-.41.86-.58,1.17-.61.31-.03.48.04.48.06Z"/>
        <path class="cls-7" d="m331.99,326.89c-.05.12-3.21-1.06-7.06-2.64-3.85-1.58-6.93-2.96-6.88-3.09.05-.12,3.21,1.06,7.06,2.64,3.85,1.58,6.93,2.96,6.88,3.09Z"/>
      </g>
      <path class="cls-7" d="m402.03,210.36c-.25-.89-5.81-46.96-5.81-46.96l2.89-59.79-24.88-8.73-3.94-3.01-25.01.29-2.83,4.22-23.68,10.78,6.6,48.99,1.85,40.99,1.75,15.18,70.18,4.19,2.87-6.15Z"/>
      <g class="cls-19">
        <path class="cls-5" d="m398.22,179.63l-26.26,3.16c-.26,1.94,1.22,3.8,3.03,4.55s3.86.64,5.8.37c1.94-.28,3.89-.7,5.84-.53,1.96.17,3.86.95,5.83.83,1.95-.12,3.81-1.18,4.92-2.78,1.11-1.61,1.43-3.73.84-5.59Z"/>
      </g>
      <path class="cls-7" d="m399.11,103.61s5.82.81,9.22,11.02c3.4,10.2,11.39,47.27,11.9,49.83.51,2.55-1.71,10.69-10.58,14.33-8.53,3.5-15.26,2.39-15.26,2.39v-18.77l3.74-4.08-1.47-6.62,2.44-48.1Z"/>
      <path class="cls-6" d="m414.93,159.34s-.32-.12-.89-.37c-.57-.25-1.39-.61-2.42-.99-1.04-.38-2.29-.78-3.72-1.06-.71-.14-1.47-.24-2.26-.29-.79-.05-1.6-.02-2.42.14-3.29.67-5.93,2.52-7.26,4.25-.69.86-1.03,1.69-1.26,2.26-.17.59-.26.92-.28.92,0,0,0-.09.03-.25.03-.16.07-.4.15-.7.2-.59.53-1.45,1.21-2.35,1.33-1.79,3.99-3.71,7.36-4.4.84-.17,1.69-.2,2.49-.14.8.05,1.57.16,2.3.31,1.45.29,2.71.72,3.74,1.12,1.04.41,1.85.8,2.4,1.08.28.14.49.25.63.33.14.08.22.13.21.13Z"/>
      <path class="cls-6" d="m409.66,155.84s-.7-.27-1.88-.51c-1.17-.24-2.85-.35-4.63.09-1.77.44-3.21,1.33-4.12,2.1-.92.77-1.38,1.37-1.42,1.33-.01-.01.09-.17.3-.44.21-.27.54-.63.99-1.04.9-.82,2.36-1.76,4.18-2.22,1.82-.46,3.55-.31,4.73-.02.59.15,1.06.31,1.37.45.31.14.47.23.47.24Z"/>
      <path class="cls-6" d="m366.77,117.86s-.07-.04-.21-.13c-.15-.1-.34-.24-.58-.4-.52-.34-1.28-.83-2.29-1.37-1.01-.54-2.27-1.12-3.7-1.82-1.43-.69-3.02-1.54-4.56-2.72l.18-.03c-1.34,2.25-2.82,4.74-4.38,7.36l-.16.27-.09-.3c-.1-.36-.22-.75-.33-1.14-1.75-6.05-3.87-11.35-5.56-15.11-.84-1.88-1.57-3.39-2.08-4.42-.25-.5-.44-.9-.59-1.19-.06-.13-.11-.23-.15-.31-.03-.07-.05-.11-.04-.11,0,0,.03.03.07.1.05.08.1.18.17.3.15.27.37.66.63,1.17.54,1.02,1.29,2.52,2.16,4.39,1.73,3.75,3.89,9.05,5.64,15.12.11.39.22.78.33,1.15l-.24-.03c1.57-2.62,3.06-5.1,4.4-7.35l.07-.12.11.08c1.52,1.18,3.08,2.03,4.5,2.74,1.42.71,2.68,1.31,3.68,1.87,1.01.56,1.77,1.07,2.27,1.43.25.18.44.34.56.44.13.1.19.16.18.16Z"/>
      <path class="cls-6" d="m375.84,95.68s.05.14.12.42c.07.3.16.7.28,1.2.24,1.07.57,2.58.98,4.43.4,1.87.9,4.1,1.4,6.58.24,1.24.46,2.57.52,3.95.05,1.38-.05,2.85-.57,4.25-.08.25-.2.49-.3.73l-.1.24-.14-.23c-1.78-3.05-3.14-6.06-4.14-8.71l.2.03c-1.92,2.56-3.53,4.71-4.67,6.24-.56.73-1,1.32-1.33,1.74-.15.19-.26.33-.36.45-.08.1-.13.15-.13.15,0,0,.03-.06.1-.17.09-.12.19-.28.33-.47.31-.43.74-1.03,1.27-1.78,1.13-1.54,2.71-3.71,4.59-6.29l.13-.17.08.2c1.01,2.63,2.38,5.63,4.15,8.66h-.24c.09-.22.21-.45.29-.7.5-1.35.61-2.79.56-4.15-.06-1.37-.27-2.68-.5-3.92-.51-2.47-.96-4.7-1.35-6.59-.37-1.86-.68-3.37-.89-4.45-.1-.51-.17-.91-.23-1.21-.05-.28-.07-.42-.06-.43Z"/>
      <path class="cls-6" d="m397.2,118.9c.07,0,.02,9.13-.11,20.39-.14,11.26-.31,20.39-.38,20.39-.07,0-.02-9.13.11-20.39.14-11.26.31-20.39.38-20.39Z"/>
      <g>
        <g>
          <path class="cls-12" d="m345.34,94.21l9.51,12.91,12.27,9.86,5.53-9.63-.94-9-.79-7.55s9.87-2.47,9.08-12.49c-.38-4.84-1.97-14.74-3.52-23.68-1.66-9.62-10.43-16.35-20.15-15.46l-.97.09c-10.36,1.56-14.82,11.22-12.98,21.53l2.96,33.42"/>
          <path class="cls-10" d="m370.93,90.78s-6.28,1.09-13.38-2.52c0,0,3.74,6.92,13.64,5.11l-.26-2.59Z"/>
          <path class="cls-6" d="m373.82,62.81c.1.75-.46,1.45-1.25,1.57-.78.11-1.5-.4-1.59-1.15-.1-.75.46-1.45,1.25-1.57.78-.11,1.5.4,1.59,1.16Z"/>
          <path class="cls-6" d="m374.88,59.17c-.16.2-1.32-.5-2.85-.36-1.54.12-2.59,1.02-2.78.84-.09-.08.06-.43.52-.83.45-.4,1.25-.82,2.2-.91.96-.08,1.8.2,2.29.52.51.32.7.64.62.73Z"/>
          <path class="cls-6" d="m359.1,64.19c.1.75-.46,1.45-1.25,1.57-.78.11-1.5-.4-1.59-1.15-.1-.75.46-1.45,1.25-1.57.78-.11,1.5.4,1.59,1.16Z"/>
          <path class="cls-6" d="m359.51,60.13c-.14.22-1.36-.35-2.88-.04-1.52.29-2.47,1.29-2.67,1.14-.1-.07.01-.43.43-.88.41-.45,1.15-.95,2.09-1.14.94-.19,1.81,0,2.34.26.54.26.76.56.69.66Z"/>
          <path class="cls-6" d="m366.3,72.27c-.02-.09.93-.34,2.46-.68.39-.08.75-.19.8-.46.07-.29-.14-.7-.37-1.14-.46-.92-.93-1.88-1.43-2.88-2-4.11-3.49-7.51-3.32-7.58.17-.08,1.92,3.19,3.92,7.3.48,1.01.95,1.98,1.39,2.91.19.43.49.92.34,1.52-.08.3-.35.54-.59.63-.24.1-.47.12-.66.15-1.55.23-2.52.32-2.53.23Z"/>
          <path class="cls-6" d="m359.12,53.48c-.11.43-1.67.37-3.45.76-1.79.35-3.2,1.01-3.47.65-.12-.17.09-.59.65-1.04.55-.46,1.44-.93,2.51-1.15,1.07-.22,2.08-.14,2.76.07.69.21,1.05.5,1,.71Z"/>
          <path class="cls-6" d="m374.26,56.18c-.24.37-1.33.11-2.61.21-1.28.05-2.33.45-2.61.11-.12-.17.01-.53.45-.91.43-.37,1.19-.71,2.06-.77.88-.05,1.67.2,2.14.51.48.32.66.66.56.85Z"/>
          <g>
            <path class="cls-12" d="m343.88,68.12c-.18-.06-7.06-1.41-6.22,5.41.84,6.82,7.52,4.57,7.5,4.37-.01-.2-1.28-9.79-1.28-9.79Z"/>
            <path class="cls-10" d="m342.76,75.58s-.11.1-.3.21c-.18.11-.51.22-.89.13-.75-.18-1.5-1.25-1.69-2.47-.09-.62-.04-1.23.12-1.74.15-.52.43-.91.78-1.02.35-.13.63.06.74.24.11.18.09.32.13.33.02.01.13-.13.04-.41-.04-.13-.14-.28-.32-.39-.18-.11-.43-.15-.68-.09-.52.1-.94.64-1.11,1.21-.2.57-.28,1.26-.18,1.95.21,1.37,1.08,2.57,2.1,2.73.5.07.88-.13,1.06-.31.19-.19.21-.35.18-.36Z"/>
          </g>
          <path class="cls-6" d="m376.53,42.85c-.42-1.3-1.52-2.48-2.88-2.55.45-1.33-.13-2.93-1.33-3.66-1.2-.73-2.89-.52-3.87.48-.11-2.09-2.82-3.54-4.62-2.46-.04-1.22-.99-2.34-2.19-2.58-1.19-.23-2.51.45-3,1.56-1.65-2.32-5.69-2.29-7.3.07-2.82-.73-6.05,1.07-6.92,3.84-2.22.32-4.16,2.13-4.62,4.33-1.42.25-2.68,1.3-3.18,2.66-.5,1.36-.22,2.97.71,4.08-1.66.99-1.77,3.76-.19,4.88-.97.59-1.55,1.76-1.43,2.89.12,1.13.93,2.15,2,2.53-1,.22-1.28,1.58-.89,2.53.39.94,1.19,1.66,1.67,2.55.4.74.57,1.58.92,2.34.66,1.43,1.99,2.53,3.52,2.93-.05.07-.11.15-.16.22-.1.89,1.18,1.39,1.97.96.79-.42,1.19-1.32,1.59-2.12.47-.92,1.03-1.82,1.19-2.83.16-1.02-.23-2.22-1.18-2.61,1.15-.5,1.8-1.77,1.91-3.02.11-1.25-.22-2.48-.55-3.69-.49-1.78-.97-3.56-1.46-5.34,2.47-.29,4.72-2.07,5.55-4.41,1.9,1.21,4.8.21,5.55-1.91,1.02,2.38,4.11,3.62,6.49,2.59-.14,1.44,2.52,2.53,3.95,2.77,1.43.25,3.08-.89,3.08-.89,0,0,2.52,1.2,3.79.56,1.24-.63,2.83-2.44,1.86-3.71,0,0,.43-1.7.01-3Z"/>
          <path class="cls-7" d="m336.79,53.51c.06-.03.15.46.76.82.3.17.72.27,1.14.1.41-.16.81-.58.86-1.1l.04-.42.34.25c.49.36,1.28.46,1.91.13.7-.38,1.04-1.24.9-1.91l-.08-.4.38.12c.49.15,1.01.07,1.38-.14.38-.2.63-.52.77-.82.28-.6.19-1.03.26-1.03.03-.02.25.41,0,1.14-.12.35-.38.77-.84,1.05-.45.28-1.08.42-1.72.25l.3-.28c.2.87-.19,1.96-1.12,2.47-.82.44-1.81.29-2.44-.2l.39-.17c-.11.74-.66,1.25-1.21,1.43-.57.19-1.12,0-1.44-.24-.67-.52-.64-1.09-.6-1.07Z"/>
          <path class="cls-7" d="m336.35,60.16s.26.17.76.22c.46.06,1.31-.13,1.65-.89l.11-.25.21.18c.42.37,1.14.57,1.79.33.64-.22,1.17-.95,1.14-1.71l-.02-.45.4.21c.1.05.21.09.33.12.53.11,1.11-.15,1.34-.59.25-.44.19-1.01-.07-1.37l-.29-.4.49.03c.6.04,1.17-.2,1.54-.53.38-.33.59-.75.68-1.11.18-.74-.02-1.19.05-1.21.02-.02.33.41.22,1.26-.06.41-.25.92-.69,1.34-.42.41-1.08.73-1.83.71l.2-.37c.38.5.47,1.25.14,1.89-.34.65-1.14,1.01-1.88.85-.17-.03-.33-.09-.47-.17l.38-.24c.04,1.02-.64,1.92-1.49,2.19-.85.28-1.72,0-2.22-.49l.32-.07c-.24.49-.66.77-1.04.89-.38.13-.74.12-1.02.06-.56-.14-.75-.43-.72-.45Z"/>
          <path class="cls-7" d="m362.92,34.53s-.24-.25-.81-.37c-.28-.05-.65-.05-.99.15-.34.19-.67.57-.74,1.06l-.06.4-.24-.33c-.42-.59-1.27-1.08-2.21-.99-.92.07-1.9.85-2.1,1.92l-.09.46-.32-.35c-.59-.64-1.53-1.01-2.47-.92-.94.07-1.84.69-2.3,1.58-.19.36-.3.75-.33,1.15l-.02.28-.28-.04c-1.35-.21-2.73.67-3.13,1.82-.42,1.17,0,2.47.77,3.15l.29.26-.37.1c-.89.24-1.57.85-1.93,1.5-.38.65-.45,1.33-.41,1.87.11,1.09.57,1.6.51,1.63-.01.01-.13-.1-.3-.35-.16-.26-.36-.67-.45-1.24-.08-.57-.04-1.32.35-2.05.38-.73,1.11-1.43,2.12-1.74l-.08.36c-.91-.78-1.43-2.24-.95-3.63.47-1.39,2.04-2.41,3.66-2.17l-.3.24c.03-.47.16-.93.39-1.35.54-1.04,1.6-1.77,2.72-1.84,1.1-.09,2.18.35,2.86,1.11l-.41.11c.28-1.31,1.43-2.18,2.54-2.24,1.12-.07,2.05.52,2.52,1.22l-.29.07c.12-.61.53-1.04.95-1.24.43-.21.85-.18,1.15-.09.31.09.51.24.62.35.12.11.16.19.15.2Z"/>
        </g>
        <path class="cls-6" d="m379.38,72.84c-1.1-.7-2.79-.02-3.1,1.24-.63-.77-1.72-1.14-2.69-.91-.97.23-1.78,1.05-1.99,2.03-.54-1.43-2.86-1.68-3.69-.39-.41-.59-1.23-.86-1.91-.63.04-.67-.36-1.35-.98-1.64-.61-.28-1.39-.16-1.88.3-.85-1.34-3.01-1.56-4.12-.42-.24-.62-.92-1.05-1.58-.98-.66.07-1.25.61-1.36,1.27-.7-.8-1.96-1.05-2.91-.57-.05-1-1.22-1.75-2.15-1.39.19-.86-1.08-1.17-1.75-1.73-.3-.25-.51-.61-.83-.84-.32-.23-.86-.25-1.04.1.12-.69-.35-1.43-1.02-1.61-.67-.19-1.45.2-1.7.85-.15.38-.12.81-.16,1.22-.11,1.33-.75,2.93.26,3.8.18.15.4.27.49.49.15.37-.21.76-.21,1.16,0,.47.44.79.66,1.21.32.61.11,1.35.1,2.04,0,.69.44,1.54,1.12,1.43-.45,1.03-.02,2.37.94,2.94-.46,1.19.33,2.7,1.57,3.01-.43.39-.35,1.14,0,1.6.36.46.93.7,1.47.93-.46.28-.48.99-.15,1.42.32.43.87.63,1.39.74.23.05.47.1.62.28.27.34-.03.85.06,1.27.14.65,1.08.78,1.39,1.36.28.52,0,1.29.46,1.67.29.24.73.17,1.1.27.66.19.99.89,1.43,1.41.83.98,2.17,1.35,3.44,1.58.64.12,1.29.22,1.94.3,1.3.16,2.6.23,3.91.31.65.04,1.44,0,1.74-.57.97,1.05,2.99.68,3.53-.64,1.18.24,2.35-.32,3.42-.87.37-.19.74-.38,1.11-.57,1.1-.56,2.32-1.27,2.58-2.48,1.47-.3,2.33-2.22,1.58-3.52.53.12.99-.44,1.04-.97.05-.54-.17-1.05-.3-1.58-.52-2.12.48-4.38.05-6.53-.3-1.5-1.3-2.94-.95-4.44.07-.31.2-.61.16-.93-.04-.31-.35-.62-.65-.51.33-.89-.6-1.97-1.53-1.77"/>
        <path class="cls-11" d="m361.87,73.75c.25-.04.4,1.63,1.94,2.69,1.53,1.06,3.3.71,3.33.94.03.1-.37.36-1.12.45-.73.09-1.83-.05-2.77-.69-.94-.65-1.4-1.58-1.52-2.26-.13-.69.02-1.12.14-1.12Z"/>
        <path class="cls-7" d="m352.82,86.13c.08-.03-.71-1.5-.86-3.5-.18-2,.36-3.58.27-3.6-.03-.01-.2.37-.36,1.02-.16.65-.27,1.58-.18,2.6.09,1.02.35,1.92.61,2.54.26.62.5.96.52.94Z"/>
        <path class="cls-7" d="m351.1,83.81s-.23-.26-.43-.74c-.21-.48-.32-1.2-.29-2.01.02-1.63.39-2.91.31-2.93-.06-.03-.56,1.25-.58,2.93-.03.83.12,1.61.39,2.1.27.5.59.68.6.65Z"/>
        <path class="cls-7" d="m349.33,82.53c.08-.04-.74-1.23-.91-2.94-.19-1.71.37-3.04.28-3.07-.03-.01-.21.3-.37.85-.16.55-.27,1.36-.18,2.24.09.88.37,1.65.64,2.15.27.51.51.78.54.76Z"/>
        <path class="cls-7" d="m377.86,91.05s.45-.12.92-.67c.47-.54.86-1.47,1.05-2.52.2-1.06.16-2.04.06-2.73-.1-.69-.26-1.1-.29-1.09-.09,0,.36,1.71-.04,3.77-.18,1.03-.53,1.91-.93,2.46-.4.55-.79.75-.77.79Z"/>
        <path class="cls-7" d="m376.38,90.78s.33-.16.74-.59c.4-.42.87-1.11,1.15-1.97.28-.86.3-1.69.22-2.27-.08-.58-.23-.92-.25-.91-.04.01.04.36.06.93.03.56-.03,1.35-.29,2.17-.27.82-.68,1.49-1.04,1.93-.35.44-.62.68-.59.71Z"/>
        <path class="cls-7" d="m369.34,77.62c.07.02.25-.58.05-1.31-.19-.73-.65-1.16-.7-1.1-.06.05.27.52.44,1.17.18.66.13,1.22.21,1.24Z"/>
        <path class="cls-7" d="m367.58,77.31c.05.05.46-.36.52-1.03.07-.67-.25-1.16-.31-1.11-.07.03.1.5.04,1.09-.05.59-.31,1.01-.25,1.06Z"/>
        <path class="cls-7" d="m365.81,76.89c.05.05.42-.33.55-.95.13-.62-.05-1.12-.12-1.09-.08.02-.03.49-.15,1.04-.11.55-.35.96-.28,1.01Z"/>
        <path class="cls-7" d="m364.47,75.54c.07.03.26-.22.36-.59.1-.37.07-.69,0-.69-.08,0-.16.28-.26.62-.09.34-.17.63-.1.66Z"/>
        <path class="cls-7" d="m363.35,75.04c.07.03.28-.32.65-.64.36-.33.73-.5.71-.58-.01-.07-.48,0-.89.37-.42.37-.54.82-.47.84Z"/>
        <path class="cls-7" d="m361.67,73.91c.06.06.49-.35,1.16-.56.67-.23,1.26-.16,1.27-.24.02-.07-.61-.26-1.35-.01-.75.24-1.14.78-1.08.82Z"/>
        <path class="cls-7" d="m369.2,93.04s.33-.32.67-.96c.34-.64.69-1.6.8-2.72.1-1.11-.06-2.12-.27-2.82-.22-.7-.45-1.08-.48-1.07-.04.02.13.43.29,1.12.16.69.29,1.67.19,2.74-.1,1.07-.41,2.01-.7,2.66-.29.65-.53,1.02-.5,1.05Z"/>
        <path class="cls-7" d="m367.43,93.04c.04.05.96-.97,1.31-2.59.36-1.61-.04-2.93-.1-2.9-.09.01.19,1.3-.16,2.85-.33,1.55-1.12,2.6-1.05,2.65Z"/>
        <path class="cls-7" d="m364.3,92.62s.3-.09.69-.39c.39-.3.87-.8,1.22-1.47.36-.66.51-1.34.55-1.83.04-.49-.02-.79-.06-.79-.09,0-.03,1.22-.73,2.49-.68,1.28-1.73,1.91-1.67,1.98Z"/>
      </g>
      <path class="cls-6" d="m397.65,160.45l-13.98-.18c-.96-.01-1.85.5-2.32,1.33l-9.56,20.71.36,1.4h16.25l9.5-21.35-.25-1.91Z"/>
      <path class="cls-12" d="m397.53,163.19l-.52,1.17-2.83,5.73s-7.33-.66-8.48-.81c-1.15-.15-1.77,1.08-1.84,1.8-.08.72.61,1.55.61,1.55,0,0-4.53-1.43-6.07-2.51-1.54-1.08-2.31-.4-2.31-.4-1.38-1.4-3.15.02-3.23.4-.08.38,1.61,4.46,2.23,5.4.61.94,4,4.21,4.23,4.59.23.38,2.84,1.08,5.84,2.72,2.78,1.53,4.9-.27,5.19-.53.05,0,.17,0,.42-.03.69-.08,2.54-1.84,3-1.79.46.06.85-.06,1.77-1.08.92-1.02,3.38-5.36,4.06-7.66.54-1.83.22-2.3.07-2.42.23.12,1.09.55,2.71.81,1.92.31,2.92-1.08,3.07-3.69.15-2.61-5.77-2.55-7.92-3.24Z"/>
      <path class="cls-10" d="m396.54,175.14s-.17.06-.49.12c-.32.06-.78.12-1.35.17-1.15.09-2.75.05-4.48-.32-1.72-.38-3.2-1-4.21-1.56-.5-.28-.9-.52-1.16-.71-.26-.19-.4-.29-.39-.31.02-.04.61.36,1.63.87,1.02.51,2.48,1.11,4.18,1.48,1.7.37,3.28.43,4.42.39,1.14-.04,1.84-.16,1.85-.12Z"/>
      <path class="cls-10" d="m396.67,169.9c.02.06-.73.35-1.71.39-.98.05-1.75-.18-1.74-.24.01-.07.78.05,1.73,0,.95-.04,1.7-.22,1.72-.16Z"/>
      <path class="cls-10" d="m400.15,169.65c-.03.06-1.07-.38-2.4-.74-1.33-.37-2.45-.53-2.44-.6,0-.06,1.15,0,2.5.37,1.36.37,2.36.92,2.34.97Z"/>
      <path class="cls-10" d="m399.47,164.72c.07.02-.2.82-.21,1.84,0,.5.02.98.13,1.27.1.31.31.38.3.41,0,.01-.06.02-.16-.03-.09-.04-.21-.15-.29-.32-.17-.33-.21-.82-.21-1.34.01-1.07.39-1.86.45-1.84Z"/>
      <path class="cls-10" d="m392.42,179.59s-.08.01-.23,0c-.18,0-.39-.01-.65-.02-.56-.03-1.38-.07-2.39-.19-1-.12-2.21-.31-3.49-.73-.64-.21-1.3-.49-1.94-.84-.64-.35-1.28-.76-1.93-1.17-2.92-1.86-5.52-3.54-7.2-4.65l-.04-.03v-.04c.11-.85.59-1.39.93-1.67.18-.14.33-.22.44-.27.11-.05.16-.06.17-.06.01.02-.22.11-.55.39-.32.28-.75.82-.83,1.62l-.03-.07c1.71,1.06,4.33,2.71,7.25,4.58.65.41,1.28.82,1.91,1.17.63.35,1.27.62,1.9.84,1.26.43,2.44.63,3.44.77,1,.14,1.81.21,2.37.26.26.03.47.05.65.07.15.02.23.03.22.04Z"/>
      <path class="cls-10" d="m389.94,182.09s-.25,0-.69-.08c-.44-.07-1.07-.18-1.85-.35-1.55-.35-3.69-.89-5.94-1.83-1.12-.48-2.13-1.09-2.95-1.76-.82-.67-1.48-1.36-2.01-1.96-.53-.6-.93-1.1-1.2-1.45-.27-.35-.42-.55-.41-.56.01-.01.18.17.48.5.3.33.72.82,1.26,1.4.54.58,1.2,1.25,2.02,1.9.81.65,1.8,1.24,2.91,1.72,2.22.93,4.35,1.5,5.88,1.89.77.19,1.4.32,1.83.42s.67.15.67.17Z"/>
      <path class="cls-6" d="m321.53,119.15c-.07.02-.73-1.88-1.48-4.24-.74-2.37-1.29-4.3-1.22-4.32.07-.02.73,1.88,1.48,4.24.74,2.36,1.29,4.3,1.22,4.32Z"/>
      <path class="cls-6" d="m398.9,106.47s-.02.49-.13,1.26c-.12.87-.25,1.89-.41,3.02-.13,1.13-.25,2.16-.35,3.03-.09.78-.15,1.26-.19,1.25-.04,0-.04-.49,0-1.27.04-.78.13-1.86.27-3.05.15-1.19.33-2.25.48-3.02.16-.77.28-1.24.32-1.23Z"/>
      <path class="cls-6" d="m367.78,213.57s-.02-.09-.02-.25c0-.2,0-.44,0-.73,0-.69.02-1.63.03-2.82.05-2.49.13-6.02.22-10.36.23-8.79.55-20.85.9-34.18.32-13.35.15-25.44-.46-34.16-.27-4.36-.66-7.88-.91-10.31-.14-1.18-.25-2.12-.34-2.8-.03-.29-.05-.53-.07-.73-.01-.16-.02-.25,0-.25,0,0,.03.08.06.24.03.19.07.43.13.72.11.68.25,1.61.43,2.79.31,2.43.76,5.95,1.08,10.31.7,8.73.93,20.84.61,34.2-.33,13.35-.76,25.43-1.05,34.18-.16,4.34-.29,7.87-.39,10.36-.06,1.19-.1,2.13-.13,2.82-.02.3-.03.54-.05.73-.01.16-.02.25-.03.25Z"/>
      <path class="cls-6" d="m374.48,176.73s-.35.33-1.04.84c-.69.51-1.71,1.22-3,2.07-2.57,1.69-6.22,3.87-10.43,5.96-4.21,2.08-8.16,3.67-11.06,4.69-1.45.51-2.63.9-3.46,1.14-.82.24-1.29.36-1.3.33-.01-.03.43-.22,1.23-.52.9-.34,2.04-.77,3.39-1.29,2.86-1.11,6.76-2.74,10.95-4.81,4.19-2.08,7.85-4.2,10.46-5.8,1.23-.77,2.27-1.41,3.08-1.92.73-.46,1.14-.7,1.16-.67Z"/>
      <g class="cls-19">
        <path class="cls-5" d="m321.41,181.34c-2.57-1.36-5.16-2.73-7.96-3.5s-5.87-.9-8.56.21c-.3.12-.64.32-.66.64-.03.45.54.66.98.73,5.34.85,10.98,1.24,16.32,2.02"/>
      </g>
      <g class="cls-19">
        <path class="cls-5" d="m323.5,129.52c-1.83,9.34-1.23,19.15,1.73,28.2l-1.73-28.2Z"/>
      </g>
      <path class="cls-12" d="m350.89,227.43s-5.47-4.45-7.06-6.46c-1.59-2.02-2.62-3.19-2.62-3.19,0,0-6.56-1.96-8.96-4.73-2.41-2.77-6.37-6.77-6.37-6.77l-7.77,8.14s4.48,7.26,4.85,9.66c.37,2.39,3.1,8.99,3.1,8.99l14.91-8.92s3.18,4.45,5.21,4.93c1.67.4,4.58,1.6,4.71-1.65Z"/>
      <path class="cls-7" d="m318.78,107.17s-5.38,1.37-10.7,21.41c-4.81,18.09-11.35,53.01-11.13,56.53s21,35.02,21,35.02l4.49,1.59,9.65-8.02s3.15-5.22,2.25-6.5c-.9-1.28-4.9-3.95-4.9-3.95l-7.9-21.8,4.38-28.89-7.15-45.38Z"/>
      <path class="cls-6" d="m313.4,180.08s.2,0,.58.04c.44.06.99.13,1.64.22,1.51.23,3.52.54,5.95.91l.12.02.04.11c1.25,3.4,2.82,7.68,4.52,12.32,1.23,3.43,2.39,6.67,3.4,9.47l-.07-.1c.65.55,1.29,1.01,1.87,1.58.56.57.98,1.21,1.28,1.85.6,1.29.67,2.58.54,3.58-.14,1.01-.49,1.73-.68,2.22-.2.49-.32.75-.34.75-.02,0,.05-.28.21-.79.15-.51.45-1.24.55-2.21.09-.96-.02-2.18-.61-3.38-.29-.6-.7-1.19-1.24-1.71-.53-.51-1.21-.99-1.86-1.52l-.05-.04-.02-.06c-1.02-2.8-2.2-6.02-3.46-9.45-1.67-4.66-3.2-8.95-4.42-12.36l.16.13c-2.42-.44-4.42-.81-5.92-1.08-.65-.13-1.18-.24-1.62-.33-.37-.08-.56-.13-.56-.16Z"/>
      <path class="cls-6" d="m323.65,128.84c.14,0,1.05,14.73,2.03,32.91.98,18.19,1.65,32.94,1.51,32.94s-1.05-14.73-2.03-32.92c-.98-18.18-1.65-32.93-1.51-32.94Z"/>
    </g>
    <g>
      <path class="cls-13" d="m446.11,111.01l-59.11.78c-5.78.08-10.4,4.82-10.32,10.6l.21,15.81c.08,5.78,4.82,10.4,10.6,10.32h0l.1,7.77,7.27-7.87,51.73-.68c5.78-.08,10.4-4.82,10.32-10.6l-.21-15.81c-.08-5.78-4.82-10.4-10.6-10.32Z"/>
      <path class="cls-6" d="m446.11,111.01s.17-.01.51,0c.34-.01.83.03,1.49.12,1.28.21,3.23.79,5.14,2.45.94.83,1.85,1.93,2.53,3.31.69,1.37,1.09,3.05,1.08,4.85.06,3.56.12,7.63.2,12.13.01,1.13.03,2.28.04,3.46.02,1.2-.22,2.43-.64,3.61-.85,2.36-2.63,4.51-5.04,5.77-1.2.63-2.55,1.05-3.95,1.18-1.41.11-2.79.07-4.22.11-2.85.04-5.78.08-8.8.13-12.07.17-25.42.35-39.57.55l.19-.08c-2.31,2.51-4.78,5.17-7.27,7.87l-.44.48v-.65c-.02-.7-.03-1.45-.04-2.21-.01-.98-.03-1.95-.04-2.93l-.02-1.46v-.73s-.01-.36-.01-.36v-.05c.12.1-.26-.29.26.21h-.09s-.19-.01-.19-.01c-.99,0-1.97-.18-2.92-.43-.93-.31-1.84-.69-2.66-1.22-1.64-1.05-3.01-2.53-3.85-4.26-.45-.85-.74-1.78-.93-2.71-.19-.93-.22-1.9-.22-2.81-.05-3.69-.09-7.31-.14-10.86-.01-.89-.02-1.77-.03-2.65-.01-.87-.03-1.75.04-2.64.19-1.76.8-3.47,1.77-4.9.98-1.43,2.27-2.62,3.76-3.43,1.49-.8,3.14-1.24,4.78-1.29,3.21-.04,6.33-.08,9.35-.12,6.03-.07,11.64-.13,16.77-.19,10.24-.1,18.53-.18,24.29-.24,2.85-.02,5.07-.03,6.6-.04.74,0,1.31,0,1.72,0,.39,0,.59.02.59.02,0,0-.2.02-.58.03-.41.01-.98.03-1.72.05-1.53.03-3.75.08-6.6.14-5.75.1-14.05.23-24.28.4-5.13.08-10.74.16-16.77.25-3.01.05-6.13.1-9.34.15-1.57.06-3.15.48-4.57,1.24-1.42.77-2.65,1.92-3.59,3.28-.93,1.37-1.5,3-1.68,4.68-.07.84-.05,1.71-.03,2.59.01.88.02,1.76.04,2.65.05,3.55.1,7.17.15,10.86,0,.93.03,1.82.22,2.72.19.89.46,1.76.89,2.57.8,1.64,2.11,3.05,3.67,4.05.78.51,1.65.87,2.54,1.16.9.23,1.83.42,2.78.41h.18s.09.01.09.01c.53.53.15.17.26.3v.05s0,.36,0,.36v.73s.03,1.46.03,1.46c.01.97.03,1.95.04,2.93,0,.76.02,1.51.03,2.21l-.45-.17c2.49-2.7,4.96-5.36,7.27-7.87l.08-.08h.11c14.15-.18,27.5-.34,39.57-.5,3.02-.04,5.95-.07,8.8-.1,1.42-.04,2.84,0,4.19-.09,1.35-.12,2.64-.51,3.8-1.12,2.32-1.21,4.05-3.27,4.88-5.54.92-2.28.57-4.69.61-6.94-.05-4.5-.09-8.57-.12-12.13.09-3.58-1.63-6.41-3.46-8.02-1.86-1.66-3.77-2.26-5.04-2.5-.64-.11-1.13-.17-1.47-.17-.33-.02-.5-.04-.5-.04Z"/>
    </g>
  </g>
  <g id="Layer_15" data-name="Layer 15">
    <g id="Layer_1" data-name="Layer 1">
      <path class="cls-16" d="m386.21,130.07c-.03-2.55-.05-3.83.36-4.83.54-1.35,1.59-2.43,2.93-3,1-.43,2.27-.44,4.82-.48h0c2.55-.03,3.83-.05,4.83.36,1.35.54,2.43,1.59,3,2.92.43,1,.44,2.27.48,4.82h0c.03,2.55.05,3.83-.36,4.83-.54,1.35-1.59,2.43-2.92,3-1,.43-2.27.44-4.82.48h0c-2.55.03-3.83.05-4.83-.36-1.35-.54-2.43-1.59-3-2.92-.43-1-.44-2.27-.48-4.82h0Z"/>
      <g>
        <path class="cls-11" d="m394.35,124.84c-2.83.03-5.1,2.36-5.07,5.19s2.36,5.1,5.19,5.07,5.1-2.36,5.07-5.19-2.36-5.1-5.19-5.07Zm.09,7.32c-1.21.01-2.21-.96-2.22-2.17-.01-.82.44-1.55,1.1-1.93l1.08.58,1.06-.6c.67.37,1.14,1.08,1.15,1.9.01,1.21-.96,2.21-2.17,2.22Z"/>
        <path class="cls-2" d="m398.17,126.5l-2.71,1.54c.67.37,1.14,1.08,1.15,1.9.01,1.21-.96,2.21-2.17,2.22l.04,2.92c2.82-.03,5.09-2.35,5.05-5.18-.02-1.32-.53-2.51-1.36-3.41Z"/>
        <path class="cls-4" d="m392.22,130c-.01-.82.44-1.55,1.1-1.93l-2.75-1.47c-.81.92-1.29,2.12-1.27,3.44.03,2.82,2.35,5.09,5.18,5.05l-.04-2.92c-1.21.01-2.21-.96-2.22-2.17Z"/>
      </g>
      <g>
        <path class="cls-8" d="m408.3,126.71c1.83-.02,3.09,1.2,3.11,3s-1.2,3.05-3.04,3.08-3.09-1.2-3.11-3,1.22-3.05,3.04-3.08Zm.06,4.88c1.03-.01,1.73-.77,1.72-1.87s-.73-1.84-1.77-1.83-1.73.77-1.72,1.87.73,1.84,1.77,1.83Z"/>
        <path class="cls-8" d="m414.68,129.03c1.79-.02,2.49.53,2.51,1.7.02,1.25-.9,1.95-2.57,1.97-1.1.01-1.94-.26-2.45-.79-.12-.11-.18-.27-.18-.47,0-.35.23-.61.61-.61.14,0,.27.04.41.15.43.36,1.02.56,1.7.55.74,0,1.17-.28,1.17-.73,0-.38-.31-.54-1.36-.54-1.77,0-2.45-.52-2.46-1.66s.97-1.95,2.54-1.97c.88-.01,1.58.2,2.08.61.14.11.23.29.23.51,0,.35-.23.61-.61.61-.14,0-.26-.04-.4-.13-.41-.29-.87-.44-1.4-.43-.69,0-1.14.29-1.14.73,0,.35.32.51,1.32.49Z"/>
        <path class="cls-8" d="m423.3,131.49c-.48.67-1.35,1.13-2.45,1.14-1.81.02-3.08-1.2-3.1-3s1.22-3.05,3.03-3.07c1-.01,1.82.33,2.38.96.1.11.17.27.17.46,0,.37-.25.63-.62.64-.23,0-.41-.08-.54-.24-.31-.4-.78-.64-1.37-.63-1.03.01-1.73.77-1.72,1.87s.73,1.84,1.77,1.83c.64,0,1.1-.28,1.42-.73.11-.16.3-.27.53-.27.39,0,.63.25.64.62,0,.18-.05.32-.13.43h0Z"/>
        <path class="cls-8" d="m429.55,127.2l.06,4.57c0,.44-.24.7-.65.71s-.65-.25-.66-.69l-.02-1.72-2.89.04.02,1.72c0,.44-.24.7-.64.71s-.66-.25-.67-.69l-.06-4.57c0-.44.24-.7.65-.71s.65.25.66.69l.02,1.66,2.89-.04-.02-1.66c0-.44.24-.7.64-.71s.66.25.67.69Z"/>
        <path class="cls-8" d="m433.42,126.4c1.83-.02,3.09,1.2,3.11,3s-1.2,3.05-3.04,3.08-3.09-1.2-3.11-3,1.22-3.05,3.04-3.08Zm.06,4.88c1.03-.01,1.73-.77,1.72-1.87s-.73-1.84-1.77-1.83-1.73.77-1.72,1.87.73,1.84,1.77,1.83Z"/>
        <path class="cls-8" d="m440.18,126.32c1.83-.02,3.09,1.2,3.11,3s-1.2,3.05-3.04,3.08-3.09-1.2-3.11-3,1.22-3.05,3.04-3.08Zm.06,4.88c1.03-.01,1.73-.77,1.72-1.87s-.73-1.84-1.77-1.83-1.73.77-1.72,1.87.73,1.84,1.77,1.83Z"/>
        <path class="cls-8" d="m448.38,131c.39,0,.63.22.64.59s-.23.6-.62.6l-3.56.04c-.44,0-.7-.25-.71-.69l-.06-4.53c0-.43.24-.7.65-.7s.65.25.66.68l.05,4.04,2.96-.04h0Z"/>
      </g>
    </g>
  </g>
</svg>