<?xml version="1.0" encoding="UTF-8"?>
<svg xmlns="http://www.w3.org/2000/svg" xmlns:xlink="http://www.w3.org/1999/xlink" viewBox="0 0 523.48 394.45">
  <defs>
    <style>
      .cls-1 {
        opacity: .1;
      }

      .cls-2 {
        fill: url(#linear-gradient);
      }

      .cls-2, .cls-3, .cls-4, .cls-5, .cls-6, .cls-7, .cls-8, .cls-9, .cls-10, .cls-11, .cls-12, .cls-13, .cls-14 {
        stroke-width: 0px;
      }

      .cls-15 {
        opacity: .2;
      }

      .cls-16 {
        opacity: .3;
      }

      .cls-17 {
        opacity: .5;
      }

      .cls-3 {
        fill: url(#linear-gradient-2);
      }

      .cls-5 {
        fill: #263238;
      }

      .cls-6 {
        fill: #455a64;
      }

      .cls-7 {
        fill: #e0e0e0;
      }

      .cls-8 {
        fill: #fff;
      }

      .cls-9 {
        fill: #ff9a6c;
      }

      .cls-10 {
        fill: #ffbf9d;
      }

      .cls-11 {
        fill: #fafafa;
      }

      .cls-12 {
        fill: #ebebeb;
      }

      .cls-13 {
        fill: #f5f5f5;
      }

      .cls-14 {
        fill: #00bcd4;
      }
    </style>
    <linearGradient id="linear-gradient" x1="101.71" y1="364.69" x2="104.42" y2="359.99" gradientTransform="translate(0 377.44) scale(1 -1)" gradientUnits="userSpaceOnUse">
      <stop offset=".08" stop-color="#a4a7a6"/>
      <stop offset=".09" stop-color="#a8abaa"/>
      <stop offset=".16" stop-color="#c2c5c3"/>
      <stop offset=".23" stop-color="#d8d9d8"/>
      <stop offset=".32" stop-color="#e9e9e9"/>
      <stop offset=".43" stop-color="#f5f5f5"/>
      <stop offset=".58" stop-color="#fcfcfc"/>
      <stop offset="1" stop-color="#fff"/>
    </linearGradient>
    <linearGradient id="linear-gradient-2" x1="100.47" y1="365.29" x2="98.3" y2="359.64" gradientTransform="translate(0 377.44) scale(1 -1)" gradientUnits="userSpaceOnUse">
      <stop offset=".03" stop-color="#a4a7a6"/>
      <stop offset=".04" stop-color="#a8abaa"/>
      <stop offset=".11" stop-color="#c2c5c3"/>
      <stop offset=".19" stop-color="#d8d9d8"/>
      <stop offset=".28" stop-color="#e9e9e9"/>
      <stop offset=".4" stop-color="#f5f5f5"/>
      <stop offset=".56" stop-color="#fcfcfc"/>
      <stop offset="1" stop-color="#fff"/>
    </linearGradient>
  </defs>
  <g id="Background_Complete" data-name="Background Complete">
    <g>
      <path class="cls-12" d="m519.44,33.7l-38.62,124.07c-.99,3.19-4.38,4.97-7.57,3.98l-76.64-23.86c-3.19-.99-4.97-4.38-3.98-7.56L431.26,6.25c1-3.18,4.38-4.96,7.56-3.97l76.65,23.86c3.18,1,4.96,4.38,3.97,7.56Z"/>
      <path class="cls-8" d="m450.98,141.64l7.55,2.35-.24.77-6.84-2.14-.56,1.78-.71-.22.8-2.54Z"/>
      <path class="cls-8" d="m460.24,136.02l.71.22-1.65,5.28-.55-.17-2.09-4.08c-.57-1.11-1.03-1.42-1.55-1.6-.87-.27-1.6.18-1.96,1.32-.29.76-.21,1.62.2,2.32l-.64.4c-.52-.92-.62-2.02-.25-3.01.48-1.52,1.55-2.25,2.85-1.86.71.22,1.3.65,1.97,1.97l1.72,3.35,1.23-4.14Z"/>
      <path class="cls-8" d="m461.42,127.7l-.47,1.51,1.98.61-.24.78-1.97-.62-1.32,4.27-.58-.23-3.75-5.54.27-.86,3.66,5.36,1.02-3.27-1.74-.54.23-.75,1.74.55.47-1.51.7.24Z"/>
      <path class="cls-8" d="m465.02,116.16l-.47,1.5,1.98.62-.24.78-1.98-.62-1.32,4.27-.56-.18-3.75-5.54.27-.86,3.66,5.36,1.02-3.27-1.74-.54.23-.75,1.74.54.47-1.5.69.19Z"/>
      <path class="cls-8" d="m466.83,109.51c1.28.4,2,1.6,1.42,3.44-.28,1-.92,1.86-1.81,2.4l-.5-.57c.78-.45,1.35-1.18,1.59-2.04.4-1.28,0-2.14-.93-2.44-.93-.31-1.76.12-2.35,2.03l-.5,1.6-3.66-1.56,1.28-4.12.71.22-1.07,3.44,2.31,1,.3-.97c.7-2.27,1.86-2.85,3.19-2.44Z"/>
      <path class="cls-8" d="m469.12,102.06c1.42.44,1.97,1.83,1.51,3.3-.62,1.99-2.35,2.65-4.73,1.91-2.56-.79-3.45-2.61-2.85-4.65.17-.63.5-1.2.97-1.66l.53.51c-.4.36-.68.83-.81,1.35-.51,1.62.21,2.99,2.26,3.63.17.05.39.11.62.16-.71-.71-.94-1.77-.57-2.71.49-1.5,1.69-2.26,3.08-1.84Zm-.22.78c-.99-.31-1.85.22-2.21,1.39-.4.92.02,2,.94,2.4.03.02.07.03.11.04.83.26,1.82-.19,2.23-1.49.39-.86,0-1.88-.86-2.27-.06-.03-.13-.05-.2-.07h0Z"/>
      <path class="cls-8" d="m472.41,91.79c1.26.39,1.94,1.61,1.37,3.43-.28,1-.92,1.86-1.81,2.41l-.5-.57c.78-.45,1.36-1.19,1.6-2.06.39-1.25,0-2.14-.91-2.41-.91-.27-1.69.16-2.14,1.57l-.16.53-.57-.18-1.97-2.9-1.2,3.85-.71-.21,1.51-4.84.55.17,2.02,2.96c.61-1.59,1.71-2.13,2.91-1.75Z"/>
      <path class="cls-8" d="m474.67,84.17c1.42.44,1.97,1.83,1.51,3.29-.62,2-2.35,2.66-4.72,1.92-2.56-.8-3.46-2.61-2.85-4.65.16-.63.5-1.21.97-1.66l.53.51c-.4.36-.68.83-.81,1.35-.51,1.62.21,2.99,2.26,3.62.2.07.41.12.62.16-.71-.71-.93-1.77-.57-2.7.48-1.46,1.69-2.23,3.07-1.84Zm-.22.77c-.99-.31-1.85.23-2.21,1.39-.41.92,0,2,.93,2.41.04.02.07.03.11.04.83.26,1.83-.19,2.24-1.49.37-.88-.04-1.9-.92-2.27-.04-.02-.08-.03-.12-.05l-.03-.04Z"/>
      <path class="cls-8" d="m471.54,75.63l.55.17,6,5.33-.26.83-5.88-5.23-1.21,3.87,1.42.44-.24.76-2.14-.66,1.74-5.53Z"/>
      <path class="cls-8" d="m474.89,64.88l.55.17,6,5.32-.26.84-5.87-5.23-1.2,3.87,1.42.43-.24.77-2.09-.66,1.7-5.53Z"/>
      <path class="cls-8" d="m482.63,59.16c1.33.41,1.81,1.8,1.25,3.6-.56,1.79-1.74,2.65-3.07,2.23-.89-.25-1.49-1.1-1.42-2.02-.45.65-1.28.92-2.02.66-1.23-.38-1.67-1.66-1.17-3.25.49-1.6,1.6-2.41,2.85-2.04.76.23,1.28.93,1.28,1.72.47-.8,1.42-1.17,2.31-.9Zm-.26.79c-.93-.28-1.76.33-2.17,1.66-.41,1.33-.08,2.3.85,2.59.93.29,1.76-.31,2.17-1.65.41-1.34.09-2.31-.85-2.59h0Zm-2.78,1.47c.36-1.17.06-2.04-.76-2.29s-1.6.31-1.95,1.42-.06,2.02.78,2.28c.83.26,1.57-.24,1.94-1.41Z"/>
      <path class="cls-8" d="m483.17,51.31c2.56.8,3.46,2.61,2.85,4.66-.17.63-.5,1.2-.97,1.66l-.53-.51c.39-.37.67-.83.81-1.35.51-1.62-.21-2.99-2.26-3.63-.17-.05-.39-.11-.62-.16.71.71.93,1.77.57,2.71-.46,1.5-1.67,2.26-3.05,1.83s-1.97-1.82-1.51-3.29c.6-2,2.32-2.65,4.7-1.92Zm-1.82.61c-.83-.26-1.83.19-2.24,1.48-.39.87.01,1.9.89,2.28.06.03.12.05.18.07.98.31,1.84-.22,2.21-1.39.41-.92,0-1.99-.92-2.4-.04-.02-.08-.03-.12-.05h0Z"/>
      <path class="cls-8" d="m481.85,42.53l7.53,2.34-.24.78-6.84-2.14-.55,1.77-.71-.21.81-2.54Z"/>
      <path class="cls-8" d="m491.1,36.92l.71.21-1.67,5.28-.55-.17-2.09-4.08c-.57-1.11-1.03-1.42-1.55-1.6-.87-.27-1.6.18-1.95,1.33-.29.76-.22,1.61.2,2.31l-.65.4c-.52-.92-.61-2.02-.24-3.01.47-1.52,1.55-2.25,2.81-1.86.71.23,1.3.65,1.97,1.97l1.72,3.34,1.29-4.14Z"/>
      <path class="cls-8" d="m491.73,29.7c1.25.39,1.94,1.61,1.37,3.43-.28,1-.93,1.86-1.82,2.41l-.49-.57c.78-.45,1.35-1.19,1.6-2.06.39-1.25,0-2.14-.91-2.41-.91-.27-1.69.17-2.14,1.57l-.16.53-.58-.18-1.96-2.9-1.2,3.85-.71-.21,1.5-4.84.55.17,2.05,2.98c.6-1.61,1.69-2.14,2.9-1.77Z"/>
      <rect class="cls-8" x="460.91" y="58.56" width="63.15" height="3.43" transform="translate(288.57 512.59) rotate(-72.71)"/>
      <rect class="cls-8" x="487.4" y="45.9" width="32.39" height="3.43" transform="translate(308.46 514.3) rotate(-72.71)"/>
      <g class="cls-17">
        <rect class="cls-11" x="424.67" y="119.94" width="26.4" height="19.72" rx="3.52" ry="3.52" transform="translate(182.24 508.26) rotate(-72.47)"/>
      </g>
      <path class="cls-7" d="m437.85,142.57l-1.21-.38,4.05-13.02c.47-1.5-.37-3.1-1.87-3.57-1.5-.47-3.1.37-3.57,1.87l-4.06,13.03-1.21-.38,4.05-13.03c.74-2.16,3.09-3.31,5.25-2.56,2.07.71,3.23,2.91,2.63,5.02l-4.06,13.02Z"/>
      <rect class="cls-7" x="435.7" y="119.91" width="9.36" height="1.27" transform="translate(194.08 504.99) rotate(-72.66)"/>
      <rect class="cls-8" x="388.39" y="95.91" width="68.15" height="5.85" transform="translate(202.54 472.83) rotate(-72.71)"/>
      <rect class="cls-8" x="438.21" y="19.37" width="13.72" height="13.72" rx="2.24" ry="2.24" transform="translate(287.75 443.39) rotate(-72.71)"/>
    </g>
    <g>
      <g>
        <path class="cls-7" d="m30.4,288.27c-4.76-2.99-10.22-4.87-15.82-5.44-2.58-.27-5.41-.19-7.48,1.38-.44.33-.87.82-.77,1.37.07.4.41.69.73.93,6.44,4.91,16.17,5.53,23.34,1.77"/>
        <path class="cls-7" d="m29.99,287.82c-3.58-2.79-7.18-5.61-10.22-8.99-3.03-3.38-5.5-7.39-6.41-11.85-.27-1.35-.36-2.89.51-3.96,8.14,6.36,14.54,14.59,16.12,24.8"/>
        <path class="cls-7" d="m30.31,288.21c-.61-4.46-.83-9.03.19-13.41,1.02-4.38,3.41-8.57,7.15-11.07,1.41,3.29.8,7.08-.19,10.52-1.53,5.31-3.94,10.37-7.08,14.92"/>
        <path class="cls-7" d="m38.3,302.51c-4.85.59-9.07,3.14-12.69,6.42-3.62,3.28-6.19,7.69-7.26,12.46,4.75-.29,8.79-3.65,11.71-7.4,2.92-3.76,4.95-7.88,8.16-11.4"/>
        <path class="cls-7" d="m40.03,304.8c-3.9-9.62-2.49-21.2,3.61-29.59,2.76,9.82,1.75,20.91-3.61,29.59"/>
        <path class="cls-7" d="m50.58,317.36c-4.4-.27-8.87.77-12.69,2.97-3.82,2.2-6.97,5.54-8.94,9.48-.27.54-.5,1.22-.15,1.7.31.42.91.46,1.43.42,4.26-.28,8.04-2.84,11.16-5.76,3.12-2.92,5.83-6.29,9.28-8.82"/>
        <path class="cls-7" d="m50.24,316.68c-2.27-7.26-2.41-15.17-.4-22.51.79-2.9,2.12-5.95,4.8-7.3.23-.12.49-.22.73-.13.23.09.36.32.46.54.95,1.99,1.23,4.25,1.13,6.46-.1,2.21-.56,4.38-1.01,6.54-.84,3.99-1.29,8.29-3.48,11.73-.52.82-.98,1.7-1.39,2.58-.41.88-.42,1.18-.8,1.88"/>
        <path class="cls-7" d="m78.16,320.84c-2.07-7.87.13-17.41,5.09-23.86.37-.48.85-.98,1.45-.93.91.08,1.15,1.3,1.11,2.22-.36,8.04-3.04,15.96-7.64,22.57"/>
        <path class="cls-7" d="m80.68,322.56c9.56,2.49,20.53.07,28.48-5.79-4.71-2.39-10.27-3.07-15.42-1.89-5.15,1.18-9.86,3.49-13.06,7.68"/>
        <path class="cls-7" d="m82.8,317.32c5.35-8.73,15.62-14.43,25.85-14.95-1.18,4.16-4.6,7.39-8.45,9.35-3.86,1.95-8.16,2.8-12.41,3.63-1.65.32-3.92.67-4.99,1.97"/>
        <path class="cls-7" d="m78.69,291.89c1.45-4.97,2.91-9.98,3.31-15.14.4-5.16-.34-10.54-3.01-14.97-5,9.68-5.51,20.99-.44,30.63"/>
        <path class="cls-7" d="m95.53,283.38c5.85-10.63,17.78-19.12,29.86-20.31-4.66,11.6-17.36,20.56-29.86,20.31"/>
        <path class="cls-7" d="m91.85,285.47c8.72,1.33,16.15,6.9,24.31,10.28,1.74.72,3.62,1.3,5.49,1.05,1.87-.25,3.72-1.5,4.14-3.34.35-1.53-.35-3.15-1.44-4.27-1.1-1.12-2.54-1.82-3.99-2.42-8.88-3.7-18.4-3.79-27.75-1.55"/>
        <path class="cls-7" d="m86.81,291.58c1.97.57,2.65,1.59,4.21,2.92,5.31,4.52,11.67,7.79,18.43,9.47.7.18,1.63.24,1.98-.39.3-.56-.08-1.23-.48-1.72-2.83-3.55-6.88-5.97-11.13-7.55-4.25-1.58-7.94-3.49-13.02-3.08"/>
        <path class="cls-7" d="m81.11,254.63c7.09,6.62,17.08,10.02,26.74,9.1.44-.04.92-.11,1.22-.44.67-.73-.13-1.86-.92-2.47-7.86-6.13-17.39-8.67-27.04-6.19"/>
        <path class="cls-7" d="m87.86,252.16c9.38-7.03,22.23-9.15,33.37-5.51-4.2,4.14-10.03,6.37-15.9,6.98s-11.74-.04-17.47-1.47"/>
        <path class="cls-7" d="m85.18,235.18c-.77-7.85-.27-14.04-.82-21.93-.04-.63-.18-1.39-.77-1.61-.82-.32-1.5.69-1.77,1.53-2.34,7.27-1.06,15.6,3.35,21.84"/>
        <path class="cls-7" d="m84.61,236.05c5.32-3.29,9.31-7.59,13-12.63,2.57-3.51,4.73-7.72,4.15-12.03-3.61-.07-7.03,1.92-9.38,4.66-2.35,2.74-3.74,6.16-4.78,9.62-1.04,3.45-1.77,7-2.99,10.39"/>
        <path class="cls-7" d="m97.39,232.5c11.67-4.32,22.56-10.74,31.99-18.86-3.82-1.54-8.2-.62-12.02.92-8.73,3.52-15.86,9.47-20.14,17.85"/>
        <path class="cls-7" d="m88.21,240.34c5.91.65,11.9,1.07,17.76.09,5.76-.96,11.2-3.25,16.58-5.51.45-.19.93-.41,1.13-.86.21-.48-.01-1.07-.4-1.42-.39-.35-.91-.52-1.41-.66-5.85-1.64-12.16-.87-17.92,1.07-5.76,1.94-10.48,4.25-15.73,7.29"/>
        <path class="cls-7" d="m54.48,254.9c-4.03-8.13-3.77-17.62-.29-26.01,2.45,3.73,2.75,8.49,2.3,12.93-.45,4.44-1.8,9.02-1.89,13.48"/>
        <path class="cls-7" d="m38.39,246.78c-10.06-.19-20.12,4.09-26.95,11.48,5.02.79,10.19-.51,14.76-2.74,4.57-2.23,8.63-5.36,12.65-8.47"/>
        <path class="cls-7" d="m27.57,243.17c-4.92-.4-9.66-1.01-14.39.44-4.73,1.45-9.04,4.74-10.97,9.3,4.6.52,9.27-.64,13.49-2.55,4.22-1.91,8.06-4.56,11.87-7.19"/>
        <path class="cls-7" d="m43.59,243.33c-4.43-2.9-8.97-5.85-14.13-7.06-5.15-1.2-11.13-.31-14.72,3.57,4.17,2.45,9.24,2.74,14.07,2.73,4.84,0,10.77-.06,15.33,1.56"/>
        <path class="cls-7" d="m43.61,243.56c-7.57-7.43-10.44-20.78-7.39-30.94,5.95,9.04,8.61,20.19,7.39,30.94"/>
        <path class="cls-7" d="m64.43,222.51c1.43-3.32,2.43-6.8,3.71-10.18,1.28-3.38,2.87-6.7,5.29-9.38,2.42-2.68,5.77-4.68,9.37-4.86-2.26,10.23-9.05,19.36-18.19,24.47"/>
        <path class="cls-7" d="m60.66,226.89c-2.36-3.25-5.09-7.66-8.29-10.09-3.2-2.43-7.37-3.9-11.28-2.96,3.98,7.11,11.49,12.12,19.58,13.06"/>
        <path class="cls-7" d="m61.41,222.78c-1.55-3.93-3.11-7.91-3.73-12.09-.63-4.18-.25-8.65,1.89-12.3,4.15,7.85,5.49,16.28,2.05,24.48"/>
        <path class="cls-7" d="m64.47,198.39c2.35-7.79,9.48-13.52,17.18-16.15.97-.33,2-.61,3.01-.45,1.01.16,2.01.85,2.22,1.85.28,1.32-.81,2.51-1.84,3.39-5.99,5.12-13.04,9.01-20.57,11.36"/>
        <path class="cls-7" d="m64.55,192.02c.3-5.02.61-10.11,2.24-14.87s4.78-9.22,9.36-11.3c.78,5.07-1.46,10.11-4.16,14.48s-5.95,8.48-7.57,13.35"/>
        <path class="cls-7" d="m64.43,195.48c-1.94-5.67-2.15-12.88-5.54-17.82-2.38-3.46-6.18-5.81-8.22-9.47-1.36,3.42-.94,7.36.48,10.75,1.42,3.39,3.77,6.31,6.29,9,2.51,2.69,4.67,4.7,7,7.55"/>
        <path class="cls-7" d="m64.47,362.57c-.15,0-.28-37.85-.29-84.53-.01-46.7.1-84.54.25-84.54s.28,37.84.29,84.54c.01,46.68-.1,84.53-.25,84.53Z"/>
        <path class="cls-7" d="m97.54,249.19s-.5.22-1.42.53c-1.02.34-2.34.79-3.92,1.32-3.3,1.13-7.84,2.75-12.76,4.77-4.88,2.09-9.47,3.79-12.09,6.06-1.31,1.12-2.06,2.33-2.43,3.21-.38.89-.44,1.43-.49,1.42-.02,0-.01-.14.02-.4.04-.25.11-.64.28-1.1.32-.93,1.05-2.23,2.37-3.43,1.32-1.2,3.15-2.28,5.25-3.26,2.1-.98,4.42-2,6.89-3.02,4.94-2.02,9.51-3.6,12.85-4.63,1.67-.52,3.03-.9,3.98-1.16.95-.25,1.47-.37,1.48-.33Z"/>
        <path class="cls-7" d="m108.38,222.56s-.13.16-.4.43c-.32.3-.72.68-1.21,1.14-1.13,1.02-2.66,2.42-4.53,4.12-3.92,3.49-9.22,8.21-15.09,13.44-5.89,5.24-10.98,10.25-14.51,14.03-1.77,1.88-3.16,3.44-4.11,4.53-.44.51-.81.92-1.1,1.25-.25.28-.39.43-.41.42-.01-.01.1-.18.32-.48.23-.3.56-.76,1.02-1.32.9-1.13,2.25-2.74,3.99-4.66,3.46-3.85,8.53-8.92,14.43-14.17,5.91-5.23,11.29-9.93,15.2-13.32,1.92-1.65,3.49-3,4.65-3.99.52-.43.94-.78,1.28-1.06.3-.24.46-.36.47-.34Z"/>
        <path class="cls-7" d="m80.79,247.02c-.15-.07,1.08-2.91,2.3-6.5,1.24-3.59,1.82-6.63,1.98-6.6.14.01-.21,3.14-1.46,6.78-.62,1.82-1.3,3.41-1.83,4.55-.54,1.13-.92,1.81-.99,1.78Z"/>
        <path class="cls-7" d="m64.5,269.93s-.35-.35-.91-1.05c-.62-.79-1.4-1.79-2.33-2.98-1.95-2.53-4.65-6.01-7.68-9.82-3.03-3.81-5.81-7.24-7.83-9.71-.95-1.18-1.75-2.16-2.38-2.94-.56-.7-.85-1.1-.82-1.12.03-.02.38.33.98.99.61.66,1.46,1.62,2.51,2.83,2.09,2.41,4.93,5.8,7.96,9.62,3.03,3.82,5.69,7.35,7.56,9.93.94,1.29,1.69,2.35,2.19,3.09.5.74.77,1.16.74,1.18Z"/>
        <path class="cls-7" d="m57.25,260.61c-.09.1-2.02-2.2-3.04-5.69-.75-2.46-.78-4.71-.69-5.73l.24.02c-.11.44-.19.67-.23.66-.04,0-.05-.25,0-.7l.24.02c.09,1.02.24,3.19.97,5.58.98,3.38,2.66,5.75,2.51,5.84Z"/>
        <path class="cls-7" d="m47.88,248.84c-.07.08-.69-.71-2.12-1.23-1.42-.55-3.55-.67-5.89-.47-2.34.17-4.43.59-5.93.96-1.5.37-2.41.66-2.44.59-.03-.06.85-.49,2.34-.96,1.49-.47,3.61-.95,5.99-1.13,2.37-.2,4.61-.02,6.08.66,1.48.66,2.03,1.58,1.98,1.59Z"/>
        <path class="cls-7" d="m45.66,245.98c-.04.09-1.24-.5-3.25-1.18-2.01-.69-4.87-1.42-8.11-1.67-3.24-.24-6.18.04-8.27.42-2.1.38-3.36.77-3.39.68-.01-.04.29-.16.86-.37.56-.21,1.4-.45,2.45-.69,2.1-.48,5.09-.83,8.39-.59,3.29.26,6.2,1.06,8.2,1.85,1,.39,1.8.76,2.32,1.05.53.29.81.46.8.49Z"/>
        <path class="cls-7" d="m64.43,233.91c-.15.04-1.21-3.65-2.37-8.23-1.16-4.59-1.99-8.33-1.84-8.37.15-.04,1.21,3.65,2.37,8.23,1.16,4.58,1.99,8.33,1.84,8.37Z"/>
        <path class="cls-7" d="m64.58,233.91c-.16.05-.85-2.41-2.63-4.93-1.73-2.57-3.95-3.86-3.87-3.99.03-.06.64.17,1.49.77.85.59,1.91,1.6,2.82,2.91,1.85,2.62,2.31,5.23,2.18,5.24Z"/>
        <path class="cls-7" d="m64.47,342.39c-.06,0-.17-.91-.6-2.52-.42-1.61-1.22-3.89-2.53-6.55-2.62-5.34-7.37-12.12-13.42-18.91-3-3.42-5.9-6.65-8.37-9.74-2.47-3.09-4.5-6.03-5.99-8.63-1.49-2.6-2.46-4.83-3.02-6.41-.28-.79-.48-1.41-.59-1.83-.12-.42-.17-.65-.16-.65.05-.02.32.87.95,2.41.62,1.54,1.64,3.73,3.16,6.29,1.51,2.56,3.56,5.46,6.04,8.51,2.48,3.06,5.39,6.27,8.39,9.7,6.06,6.8,10.81,13.67,13.36,19.1,1.28,2.71,2.03,5.03,2.39,6.67.18.82.29,1.46.34,1.9.05.44.07.67.06.67Z"/>
        <path class="cls-7" d="m94.35,308.63s-.55.33-1.57.88c-1,.56-2.43,1.43-4.06,2.69-1.63,1.25-3.46,2.89-5.34,4.87-1.87,1.98-3.8,4.28-5.77,6.74-3.94,4.94-7.62,9.31-9.82,12.8-1.12,1.73-1.93,3.19-2.47,4.21-.54,1.02-.82,1.6-.86,1.58-.02,0,.03-.16.15-.44.12-.28.27-.7.53-1.23.48-1.06,1.24-2.56,2.33-4.33,2.14-3.57,5.79-8,9.72-12.94,1.97-2.47,3.93-4.77,5.83-6.74,1.91-1.97,3.79-3.6,5.47-4.83,1.68-1.23,3.15-2.05,4.2-2.56.52-.26.94-.42,1.22-.54.28-.11.43-.17.44-.15Z"/>
        <path class="cls-7" d="m94.94,319.59c0,.08-1.26.23-3.31.48-2.04.26-4.88.6-7.85,1.55-2.96.97-5.43,2.44-7.03,3.69-1.62,1.25-2.38,2.29-2.46,2.23-.03-.02.13-.3.49-.76.35-.46.93-1.08,1.73-1.77,1.58-1.36,4.07-2.92,7.11-3.91,3.05-.96,5.92-1.24,7.98-1.41,2.06-.15,3.34-.17,3.35-.1Z"/>
        <path class="cls-7" d="m75.25,326.33c-.17-.1,1.32-2.38,2.48-5.44,1.09-3.09,1.34-5.81,1.54-5.77.07,0,.07.69-.06,1.78-.13,1.09-.39,2.6-.97,4.18-.58,1.59-1.34,2.91-1.92,3.84-.59.92-1.01,1.46-1.07,1.42Z"/>
        <path class="cls-7" d="m104.03,279.23s-.18.11-.53.28c-.41.19-.93.42-1.56.71-.68.29-1.51.66-2.44,1.15-.94.48-2.03.98-3.16,1.66-.58.33-1.18.67-1.81,1.03-.63.36-1.25.79-1.91,1.2-1.33.81-2.67,1.8-4.09,2.82-2.79,2.11-5.72,4.62-8.54,7.51-2.79,2.92-5.2,5.93-7.21,8.79-.97,1.46-1.92,2.83-2.68,4.18-.39.67-.8,1.31-1.13,1.95-.33.64-.66,1.25-.96,1.84-.64,1.16-1.1,2.27-1.55,3.22-.46.95-.8,1.79-1.07,2.48-.26.64-.48,1.16-.65,1.58-.16.36-.25.55-.26.54-.02,0,.04-.2.16-.58.15-.43.33-.96.56-1.62.24-.71.55-1.56.99-2.52.43-.97.86-2.09,1.49-3.27.3-.6.61-1.22.94-1.87.33-.65.73-1.29,1.11-1.97.75-1.38,1.69-2.76,2.65-4.24,2.01-2.89,4.42-5.94,7.24-8.88,2.84-2.91,5.81-5.43,8.63-7.53,1.44-1.01,2.8-2,4.15-2.8.67-.41,1.3-.83,1.93-1.18.64-.35,1.25-.68,1.83-1,1.15-.66,2.26-1.14,3.22-1.6.95-.47,1.79-.81,2.49-1.07.65-.25,1.18-.45,1.6-.61.37-.13.56-.2.57-.18Z"/>
        <path class="cls-7" d="m80.38,295.08s.22-.93,1.3-1.94c1.06-1.01,2.99-1.94,5.24-2.01,2.24-.06,4.19.57,5.52,1.08,1.34.52,2.11.95,2.09,1.01-.03.08-.86-.22-2.21-.65-1.34-.41-3.25-.95-5.37-.9-2.12.07-3.95.88-5.01,1.76-1.08.87-1.47,1.7-1.55,1.64Z"/>
        <path class="cls-7" d="m76.84,298.73c-.15-.08,1.18-2.04,1.49-4.84.35-2.8-.5-5.01-.33-5.05.06-.02.36.49.61,1.41.26.92.43,2.25.26,3.71-.17,1.46-.65,2.72-1.11,3.55-.46.84-.87,1.27-.92,1.23Z"/>
      </g>
      <path class="cls-7" d="m38.32,347.82c.82,14.47,5.17,29.18,11.88,44.05h29.16c6.39-14.73,10.45-29.41,11.17-44.05h-52.21Z"/>
      <path class="cls-11" d="m85.81,371.23c0,.15-9.6.27-21.44.27s-21.44-.12-21.44-.27,9.6-.27,21.44-.27,21.44.12,21.44.27Z"/>
      <path class="cls-11" d="m85.15,376.47c0,.15-9,.27-20.1.27s-20.1-.12-20.1-.27,9-.27,20.1-.27,20.1.12,20.1.27Z"/>
      <path class="cls-11" d="m50.67,357.32c.15,0,.27,3.01.27,6.72s-.12,6.72-.27,6.72-.27-3.01-.27-6.72.12-6.72.27-6.72Z"/>
      <path class="cls-11" d="m66.29,357.32c.15,0,.27,3.11.27,6.95s-.12,6.96-.27,6.96-.27-3.11-.27-6.96.12-6.95.27-6.95Z"/>
      <path class="cls-11" d="m80.96,357.2c.15,0,.27,3.18.27,7.09s-.12,7.09-.27,7.09-.27-3.18-.27-7.09.12-7.09.27-7.09Z"/>
      <path class="cls-11" d="m89.61,357.32c0,.15-11.26.27-25.14.27s-25.15-.12-25.15-.27,11.26-.27,25.15-.27,25.14.12,25.14.27Z"/>
    </g>
    <g>
      <g>
        <path class="cls-13" d="m320.71,349.94c-12.34,21.53-39.84,28.96-61.42,16.6-21.58-12.37-29.08-39.85-16.74-61.38,12.34-21.53,39.83-28.96,61.42-16.6,21.58,12.37,29.08,39.85,16.74,61.38Z"/>
        <path class="cls-12" d="m311.41,344.62c-9.4,16.41-30.36,22.07-46.8,12.65-16.45-9.42-22.16-30.37-12.76-46.77,9.4-16.41,30.36-22.07,46.8-12.65,16.45,9.42,22.16,30.37,12.76,46.78Z"/>
        <path class="cls-7" d="m311.93,343.68c-.18-.1.44-1.48,1.26-4.03.81-2.55,1.79-6.34,1.79-11.1,0-2.37-.24-4.96-.84-7.67-.63-2.7-1.59-5.52-3.04-8.27-.72-1.38-1.54-2.75-2.5-4.06-.95-1.32-2-2.61-3.19-3.81-1.18-1.2-2.46-2.36-3.86-3.4-1.4-1.04-2.89-2-4.46-2.85-1.59-.83-3.22-1.54-4.86-2.11-1.65-.58-3.32-.99-4.98-1.3-1.66-.32-3.32-.46-4.94-.51-1.62-.06-3.22.02-4.76.2-3.09.33-5.97,1.11-8.56,2.1-2.58,1.01-4.87,2.26-6.83,3.59-3.93,2.66-6.53,5.59-8.19,7.69-1.66,2.11-2.45,3.4-2.64,3.3-.14-.07.35-1.53,1.8-3.89,1.45-2.34,3.94-5.6,7.95-8.61,2-1.5,4.37-2.93,7.09-4.09,2.72-1.14,5.78-2.06,9.09-2.49,1.65-.22,3.36-.34,5.11-.3,1.75.03,3.54.17,5.33.49,1.79.32,3.6.74,5.38,1.36,1.78.61,3.54,1.37,5.25,2.27,1.7.92,3.31,1.95,4.81,3.09,1.5,1.13,2.87,2.39,4.13,3.7,1.27,1.31,2.38,2.71,3.38,4.15,1.01,1.43,1.87,2.92,2.61,4.41,1.5,2.99,2.45,6.03,3.02,8.93.55,2.9.69,5.67.57,8.16-.26,5.01-1.57,8.9-2.7,11.41-1.15,2.52-2.09,3.74-2.22,3.66Z"/>
      </g>
      <path class="cls-7" d="m274.82,347.25l-2.9,5.23-4.67-2.59,2.82-5.09c-4.47-2.84-8.1-6.75-9.56-10.18l5.72-4.28c1.38,3.02,4.04,6.14,7.22,8.33l4.32-7.8c-4.49-4.13-9.32-9.07-5.62-15.74,2.74-4.95,8.69-7.21,16.53-3.96l2.87-5.18,4.67,2.59-2.82,5.09c3.35,2.22,6.24,5.04,7.9,8.1l-5.52,4.45c-1.63-2.67-3.62-4.81-5.8-6.39l-4.4,7.94c4.51,4.08,9.25,8.97,5.6,15.55-2.69,4.86-8.57,7.09-16.39,3.92Zm6.76-23.23l3.67-6.63c-2.78-.81-4.52,0-5.37,1.54-.9,1.63,0,3.3,1.7,5.09Zm1.8,15.7c.91-1.64.04-3.27-1.58-5.09l-3.57,6.44c2.62.78,4.32.14,5.15-1.36Z"/>
    </g>
    <g>
      <g>
        <path class="cls-13" d="m113.46,58.7c-8.32,14.52-26.87,19.54-41.43,11.2-14.56-8.34-19.61-26.88-11.29-41.4,8.32-14.52,26.87-19.54,41.43-11.19,14.56,8.34,19.61,26.88,11.29,41.4Z"/>
        <path class="cls-12" d="m107.19,55.1c-6.34,11.07-20.48,14.89-31.57,8.53-11.09-6.36-14.95-20.48-8.6-31.55,6.34-11.07,20.48-14.89,31.57-8.53,11.09,6.36,14.95,20.48,8.6,31.55Z"/>
        <path class="cls-7" d="m107.55,54.47c-.12-.07.3-1,.85-2.72.55-1.72,1.2-4.28,1.21-7.48,0-1.6-.16-3.35-.57-5.17-.42-1.82-1.07-3.73-2.05-5.58-.49-.93-1.04-1.85-1.69-2.74-.64-.89-1.35-1.76-2.15-2.57-.8-.81-1.66-1.59-2.6-2.29-.94-.7-1.95-1.35-3.01-1.92-1.07-.56-2.17-1.04-3.28-1.42-1.11-.39-2.24-.67-3.36-.88-1.12-.21-2.24-.31-3.33-.35-1.1-.04-2.17.02-3.21.13-2.09.23-4.03.75-5.78,1.42-1.74.68-3.28,1.53-4.61,2.42-2.65,1.8-4.41,3.77-5.53,5.19-1.12,1.43-1.65,2.29-1.78,2.23-.09-.05.24-1.03,1.21-2.62.98-1.58,2.66-3.78,5.36-5.81,1.35-1.01,2.95-1.97,4.78-2.76,1.84-.77,3.9-1.39,6.13-1.68,1.12-.15,2.27-.23,3.45-.2,1.18.02,2.39.11,3.6.33,1.21.21,2.43.5,3.63.92,1.2.41,2.39.92,3.54,1.53,1.15.62,2.23,1.32,3.24,2.08,1.02.76,1.94,1.61,2.79,2.5.86.88,1.61,1.83,2.28,2.8.68.96,1.26,1.97,1.76,2.97,1.01,2.01,1.65,4.07,2.04,6.02.37,1.96.46,3.82.38,5.51-.17,3.38-1.06,6-1.82,7.69-.78,1.7-1.41,2.52-1.5,2.47Z"/>
      </g>
      <path class="cls-7" d="m82.51,56.88l-1.95,3.53-3.15-1.75,1.9-3.43c-3.01-1.92-5.46-4.55-6.45-6.86l3.86-2.88c.93,2.04,2.73,4.14,4.87,5.62l2.91-5.26c-3.03-2.79-6.28-6.11-3.79-10.62,1.85-3.34,5.86-4.86,11.15-2.67l1.94-3.5,3.15,1.74-1.9,3.43c2.26,1.5,4.21,3.4,5.33,5.46l-3.72,3c-1.1-1.8-2.44-3.25-3.91-4.31l-2.97,5.36c3.04,2.75,6.24,6.05,3.78,10.49-1.81,3.28-5.78,4.78-11.06,2.64Zm4.56-15.67l2.48-4.47c-1.88-.55-3.05,0-3.62,1.04-.61,1.1,0,2.22,1.15,3.43Zm1.21,10.59c.61-1.1.03-2.21-1.06-3.43l-2.41,4.35c1.77.53,2.91.09,3.47-.92Z"/>
    </g>
    <g>
      <g>
        <path class="cls-13" d="m402.05,348.44c-.18,15.72-13.1,28.32-28.86,28.14-15.76-.18-28.39-13.07-28.21-28.8.18-15.72,13.1-28.32,28.86-28.14,15.76.18,28.39,13.07,28.21,28.79Z"/>
        <path class="cls-12" d="m395.26,348.37c-.14,11.98-9.98,21.58-21.99,21.44-12.01-.14-21.63-9.96-21.49-21.94.14-11.98,9.98-21.58,21.99-21.44,12.01.14,21.63,9.96,21.5,21.94Z"/>
        <path class="cls-7" d="m395.26,347.68c-.13,0-.21-.95-.54-2.62-.34-1.66-.97-4.06-2.43-6.69-.73-1.31-1.66-2.67-2.83-3.98-1.18-1.3-2.59-2.56-4.24-3.64-.82-.54-1.7-1.04-2.64-1.47-.93-.43-1.91-.83-2.94-1.12-1.03-.3-2.09-.55-3.18-.69-1.09-.15-2.22-.21-3.35-.2-1.14.03-2.25.14-3.34.33-1.09.19-2.14.48-3.15.82-1.02.34-1.98.77-2.89,1.24-.92.47-1.77,1.01-2.58,1.58-1.61,1.14-2.96,2.46-4.09,3.81-1.12,1.36-1.99,2.76-2.67,4.09-1.35,2.69-1.89,5.11-2.16,6.78-.26,1.68-.31,2.64-.44,2.64-.1,0-.28-.95-.21-2.71.08-1.74.45-4.31,1.74-7.22.65-1.45,1.51-2.97,2.66-4.45,1.15-1.47,2.56-2.92,4.26-4.18.85-.63,1.76-1.23,2.74-1.75.98-.52,2.01-1,3.1-1.38,1.09-.38,2.22-.7,3.4-.91,1.17-.21,2.38-.33,3.6-.37,1.22-.02,2.43.06,3.61.22,1.18.16,2.33.44,3.43.77,1.11.33,2.16.77,3.15,1.25,1,.48,1.93,1.04,2.8,1.63,1.75,1.19,3.22,2.58,4.43,4.01,1.2,1.44,2.13,2.92,2.83,4.34,1.4,2.85,1.88,5.41,2.03,7.14.14,1.75,0,2.71-.1,2.71Z"/>
      </g>
      <path class="cls-7" d="m375.83,361.11v3.79s-3.37,0-3.37,0v-3.69c-3.36-.19-6.58-1.23-8.44-2.68l1.85-4.13c1.7,1.25,4.13,2.15,6.57,2.38l-.02-5.65c-3.76-.9-7.95-2.14-7.97-6.98-.01-3.58,2.58-6.67,7.93-7.29v-3.75s3.37-.01,3.37-.01v3.69c2.55.2,5.02.86,6.88,2.04l-1.68,4.17c-1.73-.98-3.49-1.55-5.18-1.74l.02,5.75c3.76.87,7.89,2.11,7.9,6.88.01,3.52-2.55,6.57-7.86,7.23Zm-3.43-14.94l-.02-4.8c-1.79.41-2.5,1.39-2.49,2.51,0,1.18,1.02,1.82,2.51,2.29Zm5.84,8.13c0-1.18-.99-1.82-2.44-2.33v4.67c1.7-.38,2.45-1.26,2.44-2.34Z"/>
    </g>
  </g>
  <g id="Floor">
    <path class="cls-5" d="m520.98,391.87c0,.14-115.22.26-257.32.26s-257.35-.12-257.35-.26,115.2-.26,257.35-.26,257.32.12,257.32.26Z"/>
  </g>
  <g id="Window">
    <g>
      <g>
        <g>
          <path class="cls-8" d="m91.76,1.73h385.29c2.97,0,5.38,2.41,5.38,5.38v300.62c0,2.51-2.04,4.55-4.55,4.55H90.94c-2.51,0-4.55-2.04-4.55-4.55V7.1c0-2.97,2.41-5.38,5.38-5.38Z"/>
          <rect class="cls-11" x="86.39" y="25.85" width="207.44" height="286.73" rx="3.61" ry="3.61"/>
          <path class="cls-5" d="m91.67,1.73h385.47c2.92,0,5.29,2.37,5.29,5.29v20.34H86.39V7.01c0-2.92,2.37-5.29,5.29-5.29Z"/>
          <path class="cls-8" d="m445.99,14.54c0,2.19-1.81,3.97-4.04,3.97s-4.04-1.78-4.04-3.97,1.81-3.97,4.04-3.97,4.04,1.78,4.04,3.97Z"/>
          <path class="cls-8" d="m458.39,14.54c0,2.19-1.81,3.97-4.04,3.97s-4.04-1.78-4.04-3.97,1.81-3.97,4.04-3.97,4.04,1.78,4.04,3.97Z"/>
          <path class="cls-8" d="m470.79,14.54c0,2.19-1.81,3.97-4.04,3.97s-4.04-1.78-4.04-3.97,1.81-3.97,4.04-3.97,4.04,1.78,4.04,3.97Z"/>
          <path class="cls-5" d="m477.87,312.27s.31,0,.91-.1c.58-.13,1.48-.43,2.33-1.29.41-.43.8-.99,1.04-1.69.27-.7.25-1.52.24-2.41,0-1.78,0-3.84-.01-6.18-.01-9.36-.03-23.16-.05-40.93-.02-35.54-.05-86.97-.08-150.52,0-15.89-.01-32.53-.02-49.87,0-8.67,0-17.52,0-26.53,0-4.51,0-9.06,0-13.64,0-2.29,0-4.6,0-6.91,0-1.16,0-2.32,0-3.48-.02-1.17.11-2.34-.32-3.38-.37-1.06-1.12-1.97-2.07-2.58-.95-.63-2.08-.86-3.25-.81-2.35,0-4.72,0-7.09,0-4.75,0-9.54,0-14.36,0-9.65,0-19.46,0-29.41,0-19.9,0-40.38,0-61.39.01-84.01.02-176.36.05-273.3.08-1.43.2-2.75,1.04-3.53,2.26-.39.6-.66,1.29-.77,2-.11.7-.06,1.47-.07,2.22v9.05c0,6.03,0,12.03,0,18.02,0,11.97,0,23.87,0,35.67,0,23.61,0,46.88,0,69.74,0,45.73-.01,89.83-.02,131.85,0,10.5,0,20.88,0,31.11,0,1.28,0,2.55,0,3.83.02,1.21.58,2.4,1.49,3.18.92.82,2.13,1.14,3.38,1.06,1.27,0,2.53,0,3.79,0,5.05,0,10.06,0,15.04,0,19.9,0,39.23,0,57.91.01,37.36.01,72.17.02,103.94.03,63.54.03,114.97.06,150.51.08,17.77.02,31.56.04,40.92.05,4.67.01,8.24.02,10.64.03,2.4,0,3.63.03,3.63.03,0,0-1.23.02-3.63.03-2.4,0-5.97.01-10.64.03-9.36.01-23.15.03-40.92.05-35.54.02-86.96.05-150.51.08-31.77,0-66.58.02-103.94.03-18.68,0-38.01,0-57.91.01-4.98,0-9.99,0-15.04,0-1.26,0-2.53,0-3.79,0-.62.01-1.32,0-1.95-.21-.64-.19-1.23-.53-1.74-.96-1.01-.87-1.64-2.18-1.65-3.53,0-1.28,0-2.56,0-3.84,0-10.24,0-20.61,0-31.11,0-42.02,0-86.12-.02-131.85,0-22.86,0-46.13,0-69.74,0-11.81,0-23.7,0-35.67,0-5.99,0-11.99,0-18.02v-9.05c.01-.75-.04-1.5.07-2.3.12-.78.41-1.54.85-2.2.86-1.34,2.32-2.26,3.89-2.49,96.97-.02,189.35-.03,273.38-.05,21,0,41.49,0,61.39.01,9.95,0,19.76,0,29.41,0,4.83,0,9.61,0,14.36,0,2.37,0,4.74,0,7.09,0,1.18-.05,2.46.2,3.48.88,1.03.66,1.84,1.65,2.24,2.8.2.57.33,1.17.34,1.78v1.75c0,1.16,0,2.32,0,3.48,0,2.31,0,4.62,0,6.91,0,4.59,0,9.14,0,13.64,0,9.01,0,17.86,0,26.53,0,17.34-.01,33.99-.02,49.87-.03,63.54-.06,114.97-.08,150.52-.02,17.77-.04,31.57-.05,40.93,0,2.34,0,4.4-.01,6.18,0,.88.02,1.73-.26,2.43-.25.71-.64,1.28-1.06,1.71-.86.86-1.78,1.15-2.36,1.27-.3.05-.53.08-.68.07-.15,0-.23,0-.23,0Z"/>
        </g>
        <g>
          <path class="cls-14" d="m246.91,170.5c.25,7.31-5.48,13.44-12.79,13.68-7.31.25-13.44-5.48-13.68-12.79-.25-7.3,5.47-13.43,12.78-13.68,7.31-.25,13.44,5.47,13.7,12.78,0,0,0,.01,0,.02Z"/>
          <path class="cls-5" d="m246.91,170.5c-.75.03-1.39-1.12-2.47-2.66-1.06-1.53-2.73-3.49-5.24-4.69-1.25-.59-2.66-1-4.17-1.03-1.5,0-3.09.24-4.5.99-2.85,1.38-5.03,4.57-4.89,8.1.09,3.53,2.49,6.56,5.43,7.75,1.45.65,3.06.79,4.55.68,1.5-.12,2.88-.64,4.09-1.3,2.43-1.37,3.96-3.43,4.92-5.03.97-1.61,1.53-2.79,2.29-2.82.67-.04,1.54,1.15,1.68,3.67.08,1.26-.14,2.82-.77,4.55-.63,1.73-1.73,3.62-3.45,5.32-1.71,1.69-4.04,3.23-6.88,4.03-2.82.79-6.11.97-9.39.01-1.64-.44-3.25-1.18-4.75-2.16-1.51-.96-2.9-2.19-4.08-3.65-2.41-2.88-3.89-6.74-4.04-10.72-.12-3.99,1.1-7.94,3.31-10.97,1.08-1.53,2.38-2.86,3.82-3.92,1.43-1.08,2.99-1.92,4.6-2.47,3.21-1.18,6.51-1.22,9.37-.62,2.89.61,5.32,1.99,7.13,3.56,1.83,1.58,3.05,3.4,3.8,5.08.74,1.69,1.07,3.23,1.07,4.49.04.62-.03,1.18-.11,1.65-.06.47-.19.87-.34,1.18-.29.63-.61.93-.97.94Z"/>
        </g>
        <path class="cls-7" d="m406.26,97.29h-28.92c-2.7,0-4.88-2.19-4.88-4.88h0c0-2.7,2.19-4.88,4.88-4.88h28.92c2.7,0,4.88,2.19,4.88,4.88h0c0,2.7-2.19,4.88-4.88,4.88Z"/>
        <path class="cls-14" d="m454.34,81.16h-78.8c-2.7,0-4.88-2.19-4.88-4.88h0c0-2.7,2.19-4.88,4.88-4.88h78.8c2.7,0,4.88,2.19,4.88,4.88h0c0,2.7-2.19,4.88-4.88,4.88Z"/>
        <path class="cls-14" d="m122.99,54.2h48.83c3.95,0,7.16,3.21,7.16,7.16v48.83c0,3.95-3.21,7.16-7.16,7.16h-48.83c-3.95,0-7.16-3.21-7.16-7.16v-48.83c0-3.95,3.21-7.16,7.16-7.16Z"/>
        <rect class="cls-7" x="201.81" y="54.2" width="63.15" height="63.15" rx="7.16" ry="7.16"/>
        <rect class="cls-7" x="115.84" y="138.3" width="63.15" height="63.15" rx="6.44" ry="6.44"/>
        <rect class="cls-7" x="201.81" y="139.12" width="63.15" height="63.15" rx="6.44" ry="6.44"/>
        <rect class="cls-7" x="115.84" y="222.4" width="63.15" height="63.15" rx="7.73" ry="7.73"/>
        <rect class="cls-7" x="201.81" y="222.4" width="63.15" height="63.15" rx="7.73" ry="7.73"/>
        <g>
          <rect class="cls-12" x="328.66" y="140.23" width="118.91" height="75.44" rx="3.55" ry="3.55"/>
          <rect class="cls-7" x="325.39" y="135.33" width="118.91" height="75.44" rx="3.55" ry="3.55"/>
          <rect class="cls-14" x="321.62" y="131.26" width="118.91" height="75.44" rx="3.55" ry="3.55"/>
          <path class="cls-8" d="m341.2,148.49c0,.97-.77,1.53-2.24,1.53h-2.88v-5.59h2.72c1.39,0,2.11.59,2.11,1.45.01.52-.28,1-.74,1.23.62.16,1.05.74,1.02,1.38Zm-3.84-3.09v1.32h1.29c.63,0,.97-.22.97-.66s-.35-.66-.97-.66h-1.29Zm2.54,2.95c0-.47-.36-.69-1.03-.69h-1.51v1.38h1.51c.67,0,1.03-.21,1.03-.68Z"/>
          <path class="cls-8" d="m345.85,148.82h-2.59l-.5,1.2h-1.33l2.48-5.59h1.28l2.48,5.59h-1.35l-.46-1.2Zm-.4-.98l-.89-2.14-.88,2.14h1.77Z"/>
          <path class="cls-8" d="m353.4,144.43v5.59h-1.06l-2.78-3.39v3.39h-1.28v-5.59h1.07l2.77,3.39v-3.39h1.28Z"/>
          <path class="cls-8" d="m356.75,147.82l-.75.83v1.41h-1.25v-5.59h1.29v2.61l2.48-2.61h1.44l-2.31,2.48,2.48,3.09h-1.51l-1.86-2.22Z"/>
          <path class="cls-8" d="m340.15,171.7h-1.02v1.35h-.53v-1.35h-2.89v-.38l2.71-3.4h.59l-2.62,3.3h2.22v-1.18h.51v1.18h1.02v.48Z"/>
          <path class="cls-8" d="m343.91,171.58c0,.83-.62,1.52-1.86,1.52-.68.02-1.34-.21-1.85-.66l.26-.42c.43.4,1,.61,1.58.59.83,0,1.32-.4,1.32-1.03s-.44-1.01-1.39-1.01h-.36v-.39l1.42-1.78h-2.62v-.47h3.3v.38l-1.44,1.82c1.09.1,1.63.64,1.63,1.45Z"/>
          <path class="cls-8" d="m348.06,171.55c0,.87-.6,1.55-1.86,1.55-.67.02-1.33-.21-1.84-.66l.26-.42c.42.4.99.61,1.57.59.87,0,1.34-.42,1.34-1.05s-.41-1.06-1.72-1.06h-1.09l.26-2.57h2.81v.47h-2.34l-.18,1.65h.66c1.54-.02,2.13.59,2.13,1.5Z"/>
          <path class="cls-8" d="m352.58,171.52c0,.88-.73,1.59-1.62,1.58-.04,0-.09,0-.13,0-1.36,0-2.1-.95-2.1-2.57,0-1.74.95-2.65,2.34-2.65.42-.02.84.08,1.21.28l-.21.42c-.3-.17-.64-.26-.99-.24-1.11,0-1.82.71-1.82,2.1v.41c.3-.58.92-.92,1.57-.87.85-.11,1.63.49,1.74,1.34,0,.06.01.13.01.19Zm-.52,0c0-.68-.5-1.11-1.29-1.11-.65-.07-1.24.39-1.31,1.05,0,.02,0,.04,0,.07,0,.57.47,1.11,1.35,1.11.62.07,1.17-.37,1.25-.98,0-.04,0-.08,0-.12v-.02Z"/>
          <path class="cls-8" d="m363.64,173.05l-1.22-1.61-1.23,1.61h-.59l1.53-1.97-1.45-1.87h.59l1.16,1.5,1.16-1.5h.58l-1.45,1.85,1.53,1.97-.59.02Z"/>
          <path class="cls-8" d="m367.56,173.05l-1.25-1.61-1.23,1.61h-.59l1.53-1.97-1.45-1.87h.59l1.16,1.5,1.16-1.5h.57l-1.42,1.85,1.53,1.97-.59.02Z"/>
          <path class="cls-8" d="m371.47,173.05l-1.22-1.61-1.23,1.61h-.59l1.52-1.97-1.45-1.87h.59l1.16,1.5,1.16-1.5h.57l-1.45,1.85,1.54,1.97-.59.02Z"/>
          <path class="cls-8" d="m375.39,173.05l-1.22-1.61-1.25,1.61h-.59l1.53-1.97-1.45-1.87h.59l1.16,1.5,1.16-1.5h.58l-1.44,1.85,1.53,1.97-.58.02Z"/>
          <path class="cls-8" d="m388.87,173.05l-1.22-1.61-1.23,1.61h-.59l1.52-2-1.44-1.87h.59l1.16,1.5,1.16-1.5h.61l-1.49,1.87,1.54,1.97-.59.02Z"/>
          <path class="cls-8" d="m392.77,173.05l-1.22-1.61-1.23,1.61h-.59l1.53-1.97-1.45-1.87h.59l1.16,1.5,1.16-1.5h.58l-1.45,1.85,1.53,1.97-.59.02Z"/>
          <path class="cls-8" d="m396.68,173.05l-1.22-1.61-1.23,1.61h-.59l1.54-2-1.45-1.87h.59l1.16,1.5,1.16-1.5h.57l-1.46,1.87,1.53,1.97-.59.02Z"/>
          <path class="cls-8" d="m400.59,173.05l-1.22-1.61-1.23,1.61h-.59l1.52-1.97-1.41-1.87h.59l1.16,1.5,1.16-1.5h.57l-1.49,1.85,1.54,1.97-.59.02Z"/>
          <path class="cls-8" d="m412.72,167.93v5.12h-.53v-4.65h-1.21v-.47h1.74Z"/>
          <path class="cls-8" d="m417.32,171.58c0,.83-.62,1.52-1.86,1.52-.68.02-1.34-.21-1.85-.66l.26-.42c.43.4,1,.61,1.58.59.83,0,1.32-.4,1.32-1.03s-.44-1.01-1.39-1.01h-.36v-.39l1.42-1.78h-2.62v-.47h3.3v.38l-1.44,1.82c1.09.1,1.63.64,1.63,1.45Z"/>
          <path class="cls-8" d="m422.42,171.7h-1.03v1.35h-.52v-1.35h-2.9v-.38l2.71-3.4h.59l-2.62,3.3h2.22v-1.18h.51v1.18h1.03v.48Z"/>
          <path class="cls-8" d="m426.37,172.59v.46h-3.6v-.35l2.13-2.09c.58-.57.69-.92.69-1.26,0-.59-.42-.96-1.2-.96-.53-.04-1.04.17-1.39.57l-.38-.32c.47-.5,1.13-.77,1.82-.73,1.04,0,1.7.53,1.7,1.39-.02.63-.32,1.22-.83,1.6l-1.74,1.72,2.81-.02Z"/>
          <path class="cls-8" d="m333.08,183.69c0-.69.55-1.26,1.24-1.26.03,0,.06,0,.08,0,.38-.01.75.14,1,.43l-.36.34c-.15-.18-.37-.29-.61-.29-.43,0-.78.35-.79.78,0,.43.35.78.78.79h0c.24,0,.46-.1.61-.29l.36.33c-.25.3-.62.46-1.01.44-.69.04-1.28-.49-1.32-1.19,0-.03,0-.05,0-.08Z"/>
          <path class="cls-8" d="m337.35,184.39h-1.13l-.22.52h-.58l1.09-2.48h.56l1.09,2.48h-.59l-.22-.52Zm-.17-.43l-.39-.94-.39.94h.78Z"/>
          <path class="cls-8" d="m339.99,184.91l-.48-.68h-.52v.68h-.56v-2.48h1.06c.65,0,1.06.34,1.06.88,0,.34-.19.64-.5.78l.54.78-.6.03Zm-.54-1.98h-.46v.83h.46c.35,0,.52-.16.52-.43s-.17-.4-.52-.4h0Z"/>
          <path class="cls-8" d="m340.8,184.67l.19-.43c.24.17.53.26.83.26.34,0,.47-.11.47-.26,0-.46-1.42-.15-1.42-1.06,0-.41.34-.76,1.03-.76.29,0,.57.07.83.21l-.17.43c-.21-.12-.44-.18-.68-.19-.34,0-.47.12-.47.28,0,.45,1.43.14,1.43,1.03,0,.41-.35.76-1.04.76-.35,0-.7-.09-.99-.28Z"/>
          <path class="cls-8" d="m346.51,182.47v2.48h-.57v-1h-1.11v1h-.56v-2.48h.56v.97h1.11v-.97h.57Z"/>
          <path class="cls-8" d="m346.89,183.69c-.04-.74.52-1.37,1.26-1.41.74-.04,1.37.52,1.41,1.26s-.52,1.37-1.26,1.41c-.02,0-.05,0-.07,0-.7.04-1.29-.49-1.33-1.19,0-.03,0-.05,0-.08Zm2.1,0c0-.42-.36-.76-.78-.75-.42,0-.76.36-.75.78,0,.42.35.75.77.75.41,0,.75-.34.75-.75,0-.01,0-.02,0-.03h.02Z"/>
          <path class="cls-8" d="m350,182.47h.57v1.98h1.22v.46h-1.79v-2.44Z"/>
          <path class="cls-8" d="m352.11,182.47h1.11c.68,0,1.24.55,1.24,1.24s-.55,1.24-1.24,1.24h-1.11v-2.48Zm1.09,1.98c.42,0,.76-.34.76-.76,0-.42-.34-.76-.76-.76h-.52v1.52h.52Z"/>
          <path class="cls-8" d="m356.89,184.45v.45h-1.89v-2.48h1.84v.45h-1.26v.54h1.13v.45h-1.13v.56l1.31.02Z"/>
          <path class="cls-8" d="m358.88,184.91l-.48-.68h-.52v.68h-.56v-2.48h1.06c.65,0,1.06.34,1.06.88,0,.34-.19.64-.5.78l.54.78-.6.03Zm-.54-1.98h-.46v.83h.46c.35,0,.52-.16.52-.43s-.15-.4-.5-.4h-.02Z"/>
          <rect class="cls-8" x="332.52" y="190.99" width="36.27" height="3.14" rx="1.31" ry="1.31"/>
          <rect class="cls-8" x="408.58" y="190.99" width="20.15" height="3.14" rx="1.31" ry="1.31"/>
          <g class="cls-15">
            <path class="cls-8" d="m436.59,131.26h-111.03c-2.18,0-3.94,1.76-3.94,3.94v19.92c7.01,4.89,16.65,5.78,25.2,3.97,10.08-2.1,19.2-7.26,28.58-11.49s19.7-7.61,29.85-5.87c9.58,1.65,17.74,7.6,26.41,12.01,2.84,1.47,5.81,2.67,8.88,3.58v-22.13c0-2.18-1.77-3.94-3.94-3.94Z"/>
          </g>
          <rect class="cls-8" x="411.82" y="141.72" width="11.01" height="11.01" rx="2.6" ry="2.6"/>
        </g>
        <g>
          <g>
            <g>
              <rect class="cls-8" x="128.72" y="70.29" width="30.3" height="22.62" rx="2.81" ry="2.81"/>
              <path class="cls-5" d="m156.21,92.91s.37.01.98-.24c.59-.23,1.5-.89,1.69-2.15.04-2.52-.04-6.24-.05-10.8,0-1.14-.01-2.34-.02-3.59,0-.62,0-1.26,0-1.91-.02-.65.06-1.32-.13-1.9-.19-.59-.6-1.12-1.15-1.44-.56-.35-1.19-.39-1.93-.36-1.43,0-2.9,0-4.41.01-6.05,0-12.68.01-19.65.02-.79,0-1.57.38-2.04,1.01-.23.31-.4.67-.47,1.06-.07.37-.04.8-.05,1.23,0,1.7,0,3.37,0,5.01,0,3.29-.01,6.46-.02,9.48.02.74-.04,1.54.04,2.19.11.67.5,1.27,1.03,1.65.55.4,1.17.53,1.87.49.69,0,1.38,0,2.05,0,2.68.01,5.19.02,7.47.03,4.54.03,8.22.06,10.82.08,1.25.02,2.23.04,2.94.05.31.01.56.02.77.03.17,0,.26.02.26.03s-.09.02-.26.03c-.2,0-.45.02-.77.03-.71.01-1.7.03-2.94.05-2.6.02-6.28.05-10.82.08-2.29,0-4.79.02-7.47.03-.67,0-1.35,0-2.05,0-.69.04-1.52-.1-2.14-.57-.63-.45-1.09-1.16-1.23-1.94-.07-.41-.04-.78-.05-1.15,0-.37,0-.75,0-1.13,0-3.02,0-6.19-.02-9.48,0-1.64,0-3.32,0-5.01,0-.42-.03-.85.06-1.32.08-.46.29-.9.57-1.27.56-.76,1.5-1.22,2.45-1.22,6.97,0,13.61.01,19.65.02,1.51,0,2.98,0,4.41.01.35,0,.71-.02,1.1.05.38.06.74.2,1.06.39.64.38,1.12,1,1.34,1.7.22.72.11,1.39.13,2.03,0,.65,0,1.28,0,1.91,0,1.25-.01,2.44-.02,3.59-.04,4.58-.01,8.25-.12,10.84-.24,1.34-1.23,2.01-1.85,2.21-.65.23-1.02.14-1.02.14Z"/>
            </g>
            <circle class="cls-7" cx="133.83" cy="76.39" r="1.47"/>
            <rect class="cls-7" x="132.36" y="80.18" width="23.6" height="2.24"/>
            <rect class="cls-7" x="137.61" y="75.85" width="11.6" height=".96"/>
            <rect class="cls-7" x="132.36" y="85.39" width="11.6" height=".96"/>
            <rect class="cls-7" x="132.36" y="87.31" width="4.31" height=".96"/>
          </g>
          <g>
            <g>
              <rect class="cls-7" x="137.35" y="80.22" width="30.3" height="22.62" rx="3.03" ry="3.03"/>
              <path class="cls-5" d="m164.62,102.83s.36,0,.98-.22c.6-.22,1.51-.82,1.84-2.04.17-.59.07-1.31.08-2.08,0-.78-.01-1.62-.02-2.52-.01-1.82-.02-3.87-.04-6.14,0-1.14-.01-2.33-.02-3.57,0-.62,0-1.26,0-1.9-.02-.65.06-1.32-.12-1.9-.34-1.21-1.58-2.12-2.96-2.01-1.43,0-2.89,0-4.4.01-6.02,0-12.64.01-19.58.02-.8,0-1.57.36-2.09.95-.54.6-.74,1.37-.69,2.2,0,1.69,0,3.36,0,5,0,3.27-.01,6.43-.02,9.44.02.73-.04,1.54.04,2.19.11.67.46,1.28.97,1.7.51.42,1.16.64,1.8.65.69,0,1.37,0,2.04,0,2.67.01,5.17.02,7.45.03,4.52.03,8.19.06,10.78.08,1.24.02,2.22.04,2.93.05.31.01.56.02.76.03.17,0,.26.02.26.03s-.09.02-.26.03c-.2,0-.45.02-.76.03-.71.01-1.69.03-2.93.05-2.59.02-6.26.05-10.78.08-2.28,0-4.77.02-7.45.03-.67,0-1.35,0-2.04,0-.74,0-1.5-.25-2.09-.74-.59-.49-1.01-1.2-1.14-1.98-.1-.8-.03-1.5-.05-2.26,0-3.01,0-6.17-.02-9.44,0-1.64,0-3.3,0-5-.06-.85.18-1.86.81-2.54.61-.7,1.54-1.14,2.48-1.13,6.94,0,13.56.01,19.58.02,1.5,0,2.97,0,4.4.01.73-.04,1.52.16,2.12.6.61.42,1.04,1.06,1.25,1.75.21.71.1,1.39.13,2.02,0,.65,0,1.28,0,1.9,0,1.24-.01,2.43-.02,3.57-.01,2.27-.03,4.33-.04,6.14,0,.9-.01,1.74-.02,2.52-.03.77.06,1.49-.14,2.14-.38,1.29-1.38,1.89-2,2.08-.66.2-1.02.12-1.02.12Z"/>
            </g>
            <rect class="cls-8" x="137.61" y="87.14" width="29.87" height="3.2"/>
            <rect class="cls-7" x="140.98" y="95.32" width="11.6" height=".96"/>
            <rect class="cls-7" x="140.98" y="97.24" width="4.31" height=".96"/>
          </g>
        </g>
        <g>
          <path class="cls-14" d="m251.03,170.08c.34,9.75-7.29,17.93-17.04,18.27-9.75.34-17.93-7.29-18.27-17.04-.34-9.75,7.28-17.93,17.03-18.27,9.75-.34,17.93,7.29,18.27,17.04Z"/>
          <g class="cls-1">
            <path class="cls-8" d="m232.76,153.04c-9.75.34-17.37,8.53-17.03,18.27,0,0,12.42.12,15.23-4.98,2.81-5.11,1.8-13.29,1.8-13.29Z"/>
          </g>
          <path class="cls-14" d="m246.51,169.96c.26,7.41-5.54,13.63-12.95,13.89s-13.63-5.54-13.89-12.95c-.26-7.41,5.54-13.62,12.94-13.89,7.41-.26,13.63,5.53,13.89,12.94,0,0,0,0,0,0Z"/>
          <g class="cls-15">
            <path class="cls-4" d="m246.51,169.96c.26,7.41-5.54,13.63-12.95,13.89s-13.63-5.54-13.89-12.95c-.26-7.41,5.54-13.62,12.94-13.89,7.41-.26,13.63,5.53,13.89,12.94,0,0,0,0,0,0Z"/>
          </g>
          <path class="cls-14" d="m246.91,170.5c.25,7.31-5.48,13.44-12.79,13.68-7.31.25-13.44-5.48-13.68-12.79-.25-7.3,5.47-13.43,12.78-13.68,7.31-.25,13.44,5.47,13.7,12.78,0,0,0,.01,0,.02Z"/>
          <path class="cls-5" d="m246.91,170.5c-.08,0-.04-1.18-.62-3.19-.58-1.97-2-4.85-5.07-7.01-1.52-1.05-3.41-1.93-5.58-2.23-2.15-.29-4.55-.14-6.81.81-1.14.44-2.23,1.09-3.23,1.88-1.01.78-1.91,1.75-2.65,2.85-1.53,2.18-2.33,4.94-2.26,7.76.12,2.82,1.11,5.52,2.78,7.59.81,1.05,1.78,1.95,2.84,2.67,1.05.73,2.18,1.3,3.34,1.66,2.32.8,4.73.79,6.85.35,2.14-.45,3.97-1.45,5.41-2.6,2.91-2.36,4.14-5.33,4.59-7.33.45-2.04.33-3.23.4-3.22.02,0,.03.29.04.85.01.28,0,.62-.04,1.03-.04.41-.07.88-.2,1.39-.39,2.05-1.59,5.11-4.55,7.57-1.47,1.2-3.35,2.26-5.55,2.74-2.19.47-4.68.49-7.09-.32-1.21-.37-2.39-.96-3.48-1.71-1.1-.74-2.11-1.67-2.95-2.76-1.74-2.15-2.78-4.96-2.9-7.89-.07-2.93.77-5.8,2.36-8.06.77-1.15,1.71-2.14,2.76-2.95,1.04-.82,2.17-1.49,3.36-1.94,2.35-.97,4.84-1.11,7.05-.8,2.23.33,4.18,1.25,5.72,2.36,3.12,2.26,4.52,5.23,5.05,7.25.16.51.23.97.29,1.38.08.4.1.74.11,1.02.03.56.04.85.02.85Z"/>
          <path class="cls-5" d="m236.84,175.82c-.63.58-1.54.92-2.74,1.02v1.8h-1.02v-1.8c-.77-.04-1.51-.19-2.2-.44-.69-.25-1.25-.56-1.66-.95l.59-1.24c.38.35.86.64,1.45.87.58.23,1.19.36,1.83.4v-3.69c-.74-.18-1.36-.38-1.85-.59s-.91-.52-1.24-.94c-.33-.41-.5-.95-.5-1.62,0-.84.3-1.55.91-2.13.61-.58,1.5-.92,2.68-1.02v-1.81h1.02v1.8c.6.02,1.19.12,1.76.29.57.17,1.06.4,1.47.68l-.52,1.27c-.86-.54-1.76-.84-2.7-.89v3.7c.77.19,1.41.39,1.91.6.5.21.92.51,1.26.92.34.41.52.95.52,1.63,0,.84-.32,1.55-.95,2.13Zm-5.27-6.17c.35.25.85.47,1.51.64v-3.43c-.68.09-1.19.28-1.53.6-.34.31-.51.69-.51,1.14s.17.81.52,1.06Zm4.12,5.27c.35-.3.53-.68.53-1.14s-.18-.82-.55-1.07c-.37-.25-.89-.47-1.58-.66v3.42c.71-.06,1.24-.25,1.6-.55Z"/>
        </g>
        <g>
          <path class="cls-14" d="m218.19,74.62h30.38c1.37,0,2.48,1.11,2.48,2.48v18.5c0,1.37-1.11,2.48-2.48,2.48h-30.38c-1.37,0-2.48-1.11-2.48-2.48v-18.5c0-1.37,1.11-2.48,2.48-2.48Z"/>
          <g>
            <path class="cls-5" d="m249.89,75.63s-.42.44-1.23,1.15c-.89.76-2.06,1.77-3.47,2.99-2.94,2.51-7.04,5.94-11.57,9.71l-.06.05-.16.13-.17-.13c-4.63-3.64-8.79-6.95-11.79-9.37-1.44-1.17-2.63-2.15-3.53-2.88-.83-.69-1.27-1.08-1.25-1.11.02-.03.51.31,1.38.95.93.7,2.15,1.63,3.64,2.75,3.06,2.34,7.26,5.61,11.88,9.25h-.33s.06-.05.06-.05c4.54-3.77,8.67-7.16,11.67-9.59,1.46-1.17,2.66-2.13,3.58-2.86.85-.67,1.33-1.02,1.36-.99Z"/>
            <path class="cls-5" d="m228.21,85.26c.11.1-2.24,2.82-5.24,6.09-3,3.27-5.52,5.83-5.62,5.74-.11-.1,2.24-2.82,5.24-6.09,3-3.26,5.52-5.83,5.62-5.74Z"/>
            <path class="cls-5" d="m238.67,85.3c.11-.1,2.64,2.45,5.66,5.69,3.02,3.24,5.39,5.95,5.28,6.05-.11.1-2.64-2.45-5.66-5.69-3.02-3.24-5.38-5.95-5.28-6.05Z"/>
          </g>
        </g>
        <g>
          <ellipse class="cls-14" cx="148.48" cy="256.91" rx="17.11" ry="13.72"/>
          <path class="cls-14" d="m152.71,245.12s1.42-4.52,7.62-4.86l-.4,7.61-7.22-2.75Z"/>
          <rect class="cls-14" x="161.8" y="252.4" width="5.94" height="11.05"/>
          <rect class="cls-14" x="151.79" y="267.43" width="6.7" height="5.73"/>
          <rect class="cls-14" x="137.14" y="265.83" width="6.7" height="7.33"/>
          <path class="cls-14" d="m126.57,251.12c.05.02-.03.23.03.6.05.36.27.88.77,1.32.48.42,1.27.83,2.08.72.4-.06.81-.26,1.05-.59.24-.32.3-.82.1-1.17-.18-.34-.67-.51-.99-.38-.32.11-.52.53-.49.9.07.78.75,1.4,1.32,1.69,1.22.62,2.15.26,2.15.38.01.03-.19.16-.6.24-.4.07-1.04.08-1.75-.22-.35-.15-.71-.38-1.03-.71-.31-.33-.61-.77-.67-1.33-.05-.55.18-1.24.84-1.52.64-.24,1.4.02,1.75.64.34.62.22,1.34-.15,1.84-.38.5-.94.74-1.47.8-1.09.09-1.93-.44-2.46-.98-.53-.56-.73-1.2-.7-1.63.02-.44.19-.63.21-.61Z"/>
          <path class="cls-14" d="m168.35,257.93c0,3.05-.27,5.53-.6,5.53s-.6-2.47-.6-5.53.27-5.53.6-5.53.6,2.47.6,5.53Z"/>
          <g class="cls-16">
            <path class="cls-4" d="m168.35,257.93c0,3.05-.27,5.53-.6,5.53s-.6-2.47-.6-5.53.27-5.53.6-5.53.6,2.47.6,5.53Z"/>
          </g>
          <path class="cls-5" d="m161.73,253.93c0,.78-.63,1.4-1.4,1.4s-1.4-.63-1.4-1.4.63-1.4,1.4-1.4,1.4.63,1.4,1.4Z"/>
          <g class="cls-16">
            <polygon class="cls-4" points="160.33 240.26 158.58 245.74 159.99 246.76 160.33 240.26"/>
          </g>
          <path class="cls-5" d="m152.36,245.29c-.04.15-1.75-.19-3.88-.22-2.13-.04-3.85.25-3.88.1-.04-.13,1.69-.66,3.89-.62,2.2.03,3.91.61,3.87.74Z"/>
          <path class="cls-5" d="m158.5,268.33s-.26.21-.8.49c-.54.28-1.34.64-2.36.99-2.04.71-5.05,1.3-8.37,1-3.32-.29-6.18-1.39-8.07-2.45-.95-.52-1.67-1.02-2.15-1.39-.48-.37-.72-.6-.7-.63.05-.07,1.12.74,3.03,1.69,1.9.95,4.71,1.97,7.94,2.25,3.23.29,6.18-.23,8.21-.83,2.05-.6,3.23-1.22,3.27-1.13Z"/>
          <path class="cls-5" d="m167.93,258.27c0,.75-.1,1.36-.22,1.36s-.22-.61-.22-1.36.1-1.36.22-1.36.22.61.22,1.36Z"/>
        </g>
        <g>
          <rect class="cls-14" x="217.9" y="260.16" width="8.97" height="8.97"/>
          <rect class="cls-14" x="230.17" y="252.53" width="8.97" height="16.6"/>
          <rect class="cls-14" x="242.42" y="244.7" width="8.97" height="24.43"/>
        </g>
        <g>
          <g>
            <path class="cls-8" d="m131.78,184.99v-33.46h30v37.63l-5.99-3.71-3.78,3.89-5.15-3.8c-.28.28-4.98,3.89-4.98,3.89l-4.94-3.8-5.16,3.8v-4.44Z"/>
            <path class="cls-5" d="m131.78,184.99s.02.1.02.29c0,.22.01.5.02.85.01.78.02,1.88.04,3.3l-.14-.07c1.36-1.02,3.09-2.31,5.13-3.84l.08-.06.08.06c1.46,1.11,3.13,2.39,4.96,3.78h-.2c1.51-1.19,3.17-2.5,4.94-3.89l.13-.1.12.09c1.64,1.2,3.36,2.46,5.17,3.79l-.28.02c1.18-1.22,2.46-2.54,3.77-3.9l.12-.13.15.1c1.89,1.17,3.91,2.42,5.99,3.7l-.36.2c0-8.92-.01-18.9-.02-29.41,0-2.79,0-5.53,0-8.22l.26.26c-10.98-.01-21.18-.03-30-.04l.22-.22c-.04,10.05-.07,18.41-.09,24.29-.03,2.9-.05,5.19-.06,6.78-.01.76-.02,1.35-.03,1.78-.01.4-.03.61-.03.61,0,0-.02-.21-.03-.61,0-.43-.02-1.02-.03-1.78-.01-1.59-.03-3.88-.06-6.78-.02-5.88-.05-14.23-.09-24.29v-.22s.22,0,.22,0c8.82-.01,19.02-.02,30-.04h.26s0,.26,0,.26c0,2.69,0,5.44,0,8.22,0,10.51-.02,20.49-.02,29.41v.43s-.36-.23-.36-.23c-2.08-1.29-4.09-2.55-5.98-3.72l.28-.03c-1.32,1.35-2.6,2.67-3.79,3.88l-.13.13-.15-.11c-1.8-1.33-3.51-2.61-5.14-3.82l.25-.02c-1.79,1.39-3.48,2.7-5.01,3.89l-.1.08-.1-.08c-1.81-1.41-3.47-2.7-4.92-3.83h.16c-2.07,1.5-3.81,2.77-5.19,3.77l-.15.11v-.18c.02-1.42.04-2.52.05-3.3,0-.35.02-.63.02-.85,0-.19.02-.29.02-.29Z"/>
          </g>
          <path class="cls-5" d="m153.91,157.21c0,.14-3.26.26-7.27.26s-7.27-.12-7.27-.26,3.26-.26,7.27-.26,7.27.12,7.27.26Z"/>
          <path class="cls-5" d="m146.63,163.02c0,.14-2.41.26-5.39.26s-5.39-.12-5.39-.26,2.41-.26,5.39-.26,5.39.12,5.39.26Z"/>
          <path class="cls-14" d="m158.28,163.02c0,.14-1.1.26-2.46.26s-2.46-.12-2.46-.26,1.1-.26,2.46-.26,2.46.12,2.46.26Z"/>
          <path class="cls-14" d="m158.28,167.15c0,.14-1.1.26-2.46.26s-2.46-.12-2.46-.26,1.1-.26,2.46-.26,2.46.12,2.46.26Z"/>
          <path class="cls-14" d="m158.28,171.28c0,.14-1.1.26-2.46.26s-2.46-.12-2.46-.26,1.1-.26,2.46-.26,2.46.12,2.46.26Z"/>
          <path class="cls-14" d="m158.28,175.42c0,.14-1.1.26-2.46.26s-2.46-.12-2.46-.26,1.1-.26,2.46-.26,2.46.12,2.46.26Z"/>
          <path class="cls-14" d="m158.28,179.55c0,.14-1.1.26-2.46.26s-2.46-.12-2.46-.26,1.1-.26,2.46-.26,2.46.12,2.46.26Z"/>
          <path class="cls-5" d="m146.63,167.15c0,.14-2.41.26-5.39.26s-5.39-.12-5.39-.26,2.41-.26,5.39-.26,5.39.12,5.39.26Z"/>
          <path class="cls-5" d="m146.63,171.28c0,.14-2.41.26-5.39.26s-5.39-.12-5.39-.26,2.41-.26,5.39-.26,5.39.12,5.39.26Z"/>
          <path class="cls-5" d="m146.63,175.42c0,.14-2.41.26-5.39.26s-5.39-.12-5.39-.26,2.41-.26,5.39-.26,5.39.12,5.39.26Z"/>
          <path class="cls-5" d="m146.63,179.55c0,.14-2.41.26-5.39.26s-5.39-.12-5.39-.26,2.41-.26,5.39-.26,5.39.12,5.39.26Z"/>
        </g>
        <g>
          <path class="cls-5" d="m183.57,119.45l-8.44,6.56c-.93.73-2.3.17-2.47-1l-1.46-10.59-1.46-10.59c-.16-1.17,1.01-2.08,2.1-1.63l9.9,4.03,9.9,4.03c1.1.45,1.3,1.91.36,2.64l-8.44,6.56Z"/>
          <rect class="cls-5" x="177.5" y="118.32" width="18.4" height="8.64" transform="translate(160.57 -99.2) rotate(49.98)"/>
        </g>
        <path class="cls-7" d="m421.84,248.35h18.39c1.96,0,3.56-1.59,3.56-3.56h0c0-1.96-1.59-3.56-3.56-3.56h-18.39c-1.96,0-3.56,1.59-3.56,3.56h0c0,1.96,1.59,3.56,3.56,3.56Z"/>
        <path class="cls-7" d="m336,248.35h68.87c1.96,0,3.56-1.59,3.56-3.56h0c0-1.96-1.59-3.56-3.56-3.56h-68.87c-1.96,0-3.56,1.59-3.56,3.56h0c0,1.96,1.59,3.56,3.56,3.56Z"/>
        <path class="cls-7" d="m421.84,266.46h18.39c1.96,0,3.56-1.59,3.56-3.56h0c0-1.96-1.59-3.56-3.56-3.56h-18.39c-1.96,0-3.56,1.59-3.56,3.56h0c0,1.96,1.59,3.56,3.56,3.56Z"/>
        <path class="cls-7" d="m336,266.46h47.83c1.96,0,3.56-1.59,3.56-3.56h0c0-1.96-1.59-3.56-3.56-3.56h-47.83c-1.96,0-3.56,1.59-3.56,3.56h0c0,1.96,1.59,3.56,3.56,3.56Z"/>
        <path class="cls-7" d="m421.84,284.52h18.39c1.96,0,3.56-1.59,3.56-3.56h0c0-1.96-1.59-3.56-3.56-3.56h-18.39c-1.96,0-3.56,1.59-3.56,3.56h0c0,1.96,1.59,3.56,3.56,3.56Z"/>
        <path class="cls-7" d="m336,284.52h60.09c1.96,0,3.56-1.59,3.56-3.56h0c0-1.96-1.59-3.56-3.56-3.56h-60.09c-1.96,0-3.56,1.59-3.56,3.56h0c0,1.96,1.59,3.56,3.56,3.56Z"/>
      </g>
      <g>
        <polygon class="cls-14" points="335.42 64.67 320.47 74.38 320.47 76.31 350.37 76.4 350.37 74.38 335.42 64.67"/>
        <g>
          <rect class="cls-14" x="320.71" y="77.33" width="5.66" height=".9"/>
          <rect class="cls-14" x="320.71" y="93.06" width="5.66" height=".9"/>
          <rect class="cls-14" x="321.49" y="77.78" width="4.1" height="15.74"/>
        </g>
        <g>
          <rect class="cls-14" x="332.51" y="77.33" width="5.66" height=".9"/>
          <rect class="cls-14" x="332.51" y="93.06" width="5.66" height=".9"/>
          <rect class="cls-14" x="333.29" y="77.78" width="4.1" height="15.74"/>
        </g>
        <g>
          <rect class="cls-14" x="344.71" y="77.33" width="5.66" height=".9"/>
          <rect class="cls-14" x="344.71" y="93.06" width="5.66" height=".9"/>
          <rect class="cls-14" x="345.49" y="77.78" width="4.1" height="15.74"/>
        </g>
        <rect class="cls-14" x="318.88" y="94.87" width="33.08" height="1.72"/>
        <rect class="cls-14" x="316.54" y="97.33" width="37.78" height="1.72"/>
        <circle class="cls-8" cx="335.34" cy="70.1" r="2.37"/>
        <path class="cls-5" d="m326.52,78.22c0,.14-1.3.26-2.9.26s-2.9-.12-2.9-.26,1.3-.26,2.9-.26,2.9.12,2.9.26Z"/>
        <path class="cls-5" d="m338.3,78.22c0,.14-1.3.26-2.9.26s-2.9-.12-2.9-.26,1.3-.26,2.9-.26,2.9.12,2.9.26Z"/>
        <path class="cls-5" d="m350.44,78.22c0,.14-1.3.26-2.9.26s-2.9-.12-2.9-.26,1.3-.26,2.9-.26,2.9.12,2.9.26Z"/>
        <path class="cls-5" d="m326.52,93.03c0,.14-1.3.26-2.9.26s-2.9-.12-2.9-.26,1.3-.26,2.9-.26,2.9.12,2.9.26Z"/>
        <path class="cls-5" d="m338.3,93.03c0,.14-1.3.26-2.9.26s-2.9-.12-2.9-.26,1.3-.26,2.9-.26,2.9.12,2.9.26Z"/>
        <path class="cls-5" d="m350.44,93.03c0,.14-1.3.26-2.9.26s-2.9-.12-2.9-.26,1.3-.26,2.9-.26,2.9.12,2.9.26Z"/>
        <path class="cls-5" d="m350.46,74.4c0,.14-6.71.26-14.98.26s-14.98-.12-14.98-.26,6.71-.26,14.98-.26,14.98.12,14.98.26Z"/>
      </g>
      <path class="cls-5" d="m293.83,306.01c-.14,0-.26-61.22-.26-136.72s.12-136.74.26-136.74.26,61.21.26,136.74-.12,136.72-.26,136.72Z"/>
    </g>
  </g>
  <g id="Coins">
    <g id="freepik--Coins--inject-2">
      <circle class="cls-14" cx="468.09" cy="252.15" r="40.88" transform="translate(-62.72 282.72) rotate(-31.61)"/>
      <g class="cls-1">
        <path class="cls-8" d="m453.41,213.98c-21.06,8.11-31.55,31.75-23.45,52.81,0,0,0,0,0,.01,0,0,27.27-9.11,29.57-22.39,2.3-13.28-6.13-30.44-6.13-30.44Z"/>
      </g>
      <circle class="cls-14" cx="466.62" cy="248.42" r="31" transform="translate(-38.98 402.71) rotate(-45)"/>
      <g class="cls-15">
        <circle class="cls-4" cx="466.62" cy="248.42" r="31" transform="translate(-38.98 402.71) rotate(-45)"/>
      </g>
      <path class="cls-14" d="m497.54,241.5c6.09,15.8-1.77,33.55-17.57,39.64-15.8,6.09-33.55-1.77-39.64-17.57s1.77-33.55,17.57-39.64c0,0,.02,0,.03-.01,15.79-6.08,33.52,1.79,39.61,17.58Z"/>
      <g class="cls-15">
        <path class="cls-8" d="m497.54,241.5c6.09,15.8-1.77,33.55-17.57,39.64-15.8,6.09-33.55-1.77-39.64-17.57s1.77-33.55,17.57-39.64c0,0,.02,0,.03-.01,15.79-6.08,33.52,1.79,39.61,17.58Z"/>
      </g>
      <path class="cls-14" d="m469.11,249.59l-2.81-7.31h0c1.4-.35,2.84-.51,4.29-.48.77.09,1.52.24,2.26.46v-.27l.12-3.07v-.7l-1.83-.87-.53.52c-1.97-.22-3.96-.05-5.86.52l-1.56-4.03-1.64-.53.39,1.01-1.71.67,1.57,4.1c-5.45,2.72-6.89,7.03-5.47,10.68,1.95,5.04,6.76,4.69,11.17,4.11l2.79,7.25c-2.72.79-5.6.79-8.32,0l-.22,4.29c2.52.91,6.41.75,10.04-.4l1.17,3.04-1.41.57,1.78.41,2.98-1.17-1.56-4.07c5.47-2.77,6.96-7.03,5.54-10.71-1.9-4.99-6.77-4.57-11.18-4.01Zm-3.26.39c-2.34.19-4.21,0-4.89-1.75s0-3.33,2.4-4.69l2.48,6.43Zm7.42,10.43l-2.47-6.42c2.41-.22,4.34,0,5.02,1.77.6,1.57-.05,3.23-2.54,4.65h0Z"/>
      <g class="cls-16">
        <path class="cls-4" d="m469.11,249.59l-2.81-7.31h0c1.4-.35,2.84-.51,4.29-.48.77.09,1.52.24,2.26.46v-.27l.12-3.07v-.7l-1.83-.87-.53.52c-1.97-.22-3.96-.05-5.86.52l-1.56-4.03-1.64-.53.39,1.01-1.71.67,1.57,4.1c-5.45,2.72-6.89,7.03-5.47,10.68,1.95,5.04,6.76,4.69,11.17,4.11l2.79,7.25c-2.72.79-5.6.79-8.32,0l-.22,4.29c2.52.91,6.41.75,10.04-.4l1.17,3.04-1.41.57,1.78.41,2.98-1.17-1.56-4.07c5.47-2.77,6.96-7.03,5.54-10.71-1.9-4.99-6.77-4.57-11.18-4.01Zm-3.26.39c-2.34.19-4.21,0-4.89-1.75s0-3.33,2.4-4.69l2.48,6.43Zm7.42,10.43l-2.47-6.42c2.41-.22,4.34,0,5.02,1.77.6,1.57-.05,3.23-2.54,4.65h0Z"/>
      </g>
      <path class="cls-14" d="m473.17,263.83l1.57,4.07-2.98,1.17-1.55-4.03c-3.64,1.17-7.54,1.31-10.06.41l.22-4.29c2.72.79,5.6.79,8.32,0l-2.79-7.25c-4.41.56-9.22.91-11.16-4.13-1.43-3.7,0-7.96,5.46-10.68l-1.57-4.1,2.98-1.17,1.55,4.03c2.64-.89,5.46-1.1,8.2-.62l-.08,4.24c-2.21-.36-4.47-.26-6.63.29l2.82,7.34c4.41-.57,9.28-1,11.22,4.06,1.44,3.66-.04,7.9-5.53,10.67Zm-8.94-14.38l-2.48-6.47c-2.43,1.39-3.01,3.12-2.34,4.69.67,1.57,2.48,1.98,4.83,1.78h0Zm9.97,5.79c-.69-1.78-2.6-2-5.02-1.78l2.47,6.42c2.48-1.42,3.14-3.08,2.54-4.64h0Z"/>
      <path class="cls-8" d="m458.41,251.8c-.43-.07-.83-.25-1.17-.52-.86-.59-1.52-1.44-1.86-2.43-.34-1-.34-2.07,0-3.07.09-.44.3-.84.6-1.17,0,0-.2.45-.39,1.17-.25.96-.22,1.97.09,2.91.33.93.93,1.74,1.71,2.34.59.54,1.03.71,1.02.76Z"/>
      <path class="cls-8" d="m460.61,238.19c-.08,0-.35-.48-.6-1.17-.25-.69-.4-1.17-.32-1.24.08-.07.34.48.6,1.17.26.69.4,1.22.32,1.24Z"/>
      <rect class="cls-14" x="428.34" y="290.36" width="86.54" height="17.45"/>
      <path class="cls-5" d="m509.32,290.65c-.2,0-.37,3.8-.37,8.46s.18,8.46.37,8.46.38-3.79.38-8.46-.16-8.46-.38-8.46Z"/>
      <path class="cls-5" d="m501.3,290.65c-.21,0-.38,3.8-.38,8.46s.16,8.46.38,8.46.37-3.79.37-8.46-.18-8.46-.37-8.46Z"/>
      <path class="cls-5" d="m493.37,290.65c-.21,0-.38,3.8-.38,8.46s.16,8.46.38,8.46.37-3.79.37-8.46-.16-8.46-.37-8.46Z"/>
      <path class="cls-5" d="m485.48,290.65c-.21,0-.37,3.8-.37,8.46s.16,8.46.37,8.46.38-3.79.38-8.46-.15-8.46-.38-8.46Z"/>
      <path class="cls-5" d="m477.59,290.65c-.21,0-.38,3.8-.38,8.46s.16,8.46.38,8.46.37-3.79.37-8.46-.16-8.46-.37-8.46Z"/>
      <path class="cls-5" d="m469.7,290.65c-.21,0-.38,3.8-.38,8.46s.16,8.46.38,8.46.37-3.79.37-8.46-.16-8.46-.37-8.46Z"/>
      <path class="cls-5" d="m461.82,290.65c-.21,0-.38,3.8-.38,8.46s.16,8.46.38,8.46.38-3.79.38-8.46-.16-8.46-.38-8.46Z"/>
      <path class="cls-5" d="m453.93,290.65c-.21,0-.38,3.8-.38,8.46s.16,8.46.38,8.46.37-3.79.37-8.46-.16-8.46-.37-8.46Z"/>
      <path class="cls-5" d="m446.04,290.65c-.21,0-.37,3.8-.37,8.46s.16,8.46.37,8.46.38-3.79.38-8.46-.16-8.46-.38-8.46Z"/>
      <path class="cls-5" d="m438.15,290.65c-.21,0-.38,3.8-.38,8.46s.16,8.46.38,8.46.37-3.79.37-8.46-.16-8.46-.37-8.46Z"/>
      <path class="cls-5" d="m430.27,290.65c-.21,0-.38,3.8-.38,8.46s.16,8.46.38,8.46.37-3.79.37-8.46-.18-8.46-.37-8.46Z"/>
      <g class="cls-16">
        <path class="cls-4" d="m513.49,290.38c-27.8,3.72-55.97,3.72-83.76,0h83.76Z"/>
      </g>
      <path class="cls-5" d="m428.27,290.42c0,.21,19.34.38,43.19.38s43.2-.16,43.2-.38-19.34-.38-43.2-.38-43.19.16-43.19.38Z"/>
      <rect class="cls-14" x="426.4" y="307.52" width="86.54" height="17.45"/>
      <path class="cls-5" d="m507.39,307.82c-.21,0-.38,3.79-.38,8.45s.16,8.46.38,8.46.38-3.79.38-8.46-.18-8.45-.38-8.45Z"/>
      <path class="cls-5" d="m499.36,307.82c-.21,0-.37,3.79-.37,8.45s.16,8.46.37,8.46.38-3.79.38-8.46-.16-8.45-.38-8.45Z"/>
      <path class="cls-5" d="m491.42,307.82c-.2,0-.37,3.79-.37,8.45s.18,8.46.37,8.46.38-3.79.38-8.46-.16-8.45-.38-8.45Z"/>
      <path class="cls-5" d="m483.53,307.82c-.21,0-.38,3.79-.38,8.45s.16,8.46.38,8.46.37-3.79.37-8.46-.16-8.45-.37-8.45Z"/>
      <path class="cls-5" d="m475.65,307.82c-.21,0-.38,3.79-.38,8.45s.16,8.46.38,8.46.38-3.79.38-8.46-.16-8.45-.38-8.45Z"/>
      <path class="cls-5" d="m467.76,307.82c-.21,0-.37,3.79-.37,8.45s.16,8.46.37,8.46.38-3.79.38-8.46-.16-8.45-.38-8.45Z"/>
      <path class="cls-5" d="m459.92,307.82c-.21,0-.37,3.79-.37,8.45s.16,8.46.37,8.46.38-3.79.38-8.46-.21-8.45-.38-8.45Z"/>
      <path class="cls-5" d="m451.98,307.82c-.21,0-.38,3.79-.38,8.45s.16,8.46.38,8.46.38-3.79.38-8.46-.16-8.45-.38-8.45Z"/>
      <path class="cls-5" d="m444.1,307.82c-.21,0-.38,3.79-.38,8.45s.16,8.46.38,8.46.37-3.79.37-8.46-.16-8.45-.37-8.45Z"/>
      <path class="cls-5" d="m436.21,307.82c-.21,0-.37,3.79-.37,8.45s.16,8.46.37,8.46.38-3.79.38-8.46-.11-8.45-.38-8.45Z"/>
      <path class="cls-5" d="m428.27,307.82c-.21,0-.37,3.79-.37,8.45s.16,8.46.37,8.46.38-3.79.38-8.46-.12-8.45-.38-8.45Z"/>
      <g class="cls-16">
        <path class="cls-4" d="m511.56,307.54c-27.8,3.72-55.97,3.72-83.78,0h83.78Z"/>
      </g>
      <path class="cls-5" d="m426.38,307.58c0,.21,19.34.38,43.2.38s43.19-.16,43.19-.38-19.33-.38-43.19-.38-43.2.23-43.2.38Z"/>
      <rect class="cls-14" x="434.63" y="324.41" width="86.54" height="17.45"/>
      <path class="cls-5" d="m515.6,324.7c-.21,0-.37,3.8-.37,8.46s.16,8.46.37,8.46.38-3.79.38-8.46-.18-8.46-.38-8.46Z"/>
      <path class="cls-5" d="m507.57,324.7c-.21,0-.37,3.8-.37,8.46s.16,8.46.37,8.46.38-3.79.38-8.46-.16-8.46-.38-8.46Z"/>
      <path class="cls-5" d="m499.64,324.7c-.2,0-.38,3.8-.38,8.46s.18,8.46.38,8.46.38-3.79.38-8.46-.16-8.46-.38-8.46Z"/>
      <path class="cls-5" d="m491.75,324.7c-.2,0-.38,3.8-.38,8.46s.18,8.46.38,8.46.37-3.79.37-8.46-.16-8.46-.37-8.46Z"/>
      <path class="cls-5" d="m483.86,324.7c-.2,0-.37,3.8-.37,8.46s.18,8.46.37,8.46.38-3.79.38-8.46-.16-8.46-.38-8.46Z"/>
      <path class="cls-5" d="m475.98,324.7c-.2,0-.37,3.8-.37,8.46s.18,8.46.37,8.46.38-3.79.38-8.46-.16-8.46-.38-8.46Z"/>
      <path class="cls-5" d="m468.12,324.7c-.21,0-.37,3.8-.37,8.46s.16,8.46.37,8.46.38-3.79.38-8.46-.2-8.46-.38-8.46Z"/>
      <path class="cls-5" d="m460.2,324.7c-.21,0-.37,3.8-.37,8.46s.16,8.46.37,8.46.38-3.79.38-8.46-.16-8.46-.38-8.46Z"/>
      <path class="cls-5" d="m452.31,324.7c-.21,0-.37,3.8-.37,8.46s.16,8.46.37,8.46.38-3.79.38-8.46-.16-8.46-.38-8.46Z"/>
      <path class="cls-5" d="m444.42,324.7c-.21,0-.38,3.8-.38,8.46s.16,8.46.38,8.46.37-3.79.37-8.46-.12-8.46-.37-8.46Z"/>
      <path class="cls-5" d="m436.54,324.7c-.21,0-.38,3.8-.38,8.46s.16,8.46.38,8.46.38-3.79.38-8.46-.16-8.46-.38-8.46Z"/>
      <g class="cls-16">
        <path class="cls-4" d="m519.77,324.43c-27.8,3.72-55.97,3.72-83.78,0h83.78Z"/>
      </g>
      <path class="cls-5" d="m434.59,324.47c0,.21,19.34.38,43.2.38s43.19-.16,43.19-.38-19.33-.38-43.19-.38-43.2.18-43.2.38Z"/>
      <rect class="cls-14" x="424.49" y="341.73" width="86.54" height="16.78"/>
      <path class="cls-5" d="m505.46,342.02c-.21,0-.37,3.63-.37,8.13s.16,8.13.37,8.13.38-3.64.38-8.13-.21-8.13-.38-8.13Z"/>
      <path class="cls-5" d="m497.42,342.02c-.21,0-.37,3.63-.37,8.13s.16,8.13.37,8.13.38-3.64.38-8.13-.15-8.13-.38-8.13Z"/>
      <path class="cls-5" d="m489.5,342.02c-.2,0-.37,3.63-.37,8.13s.18,8.13.37,8.13.38-3.64.38-8.13-.16-8.13-.38-8.13Z"/>
      <path class="cls-5" d="m481.61,342.02c-.2,0-.38,3.63-.38,8.13s.18,8.13.38,8.13.37-3.64.37-8.13-.16-8.13-.37-8.13Z"/>
      <path class="cls-5" d="m473.72,342.02c-.2,0-.37,3.63-.37,8.13s.18,8.13.37,8.13.38-3.64.38-8.13-.12-8.13-.38-8.13Z"/>
      <path class="cls-5" d="m465.84,342.02c-.21,0-.38,3.63-.38,8.13s.16,8.13.38,8.13.37-3.64.37-8.13-.16-8.13-.37-8.13Z"/>
      <path class="cls-5" d="m457.95,342.02c-.21,0-.38,3.63-.38,8.13s.16,8.13.38,8.13.37-3.64.37-8.13-.16-8.13-.37-8.13Z"/>
      <path class="cls-5" d="m450.06,342.02c-.21,0-.37,3.63-.37,8.13s.16,8.13.37,8.13.38-3.64.38-8.13-.16-8.13-.38-8.13Z"/>
      <path class="cls-5" d="m442.17,342.02c-.21,0-.38,3.63-.38,8.13s.16,8.13.38,8.13.37-3.64.37-8.13-.21-8.13-.37-8.13Z"/>
      <path class="cls-5" d="m434.29,342.02c-.21,0-.38,3.63-.38,8.13s.16,8.13.38,8.13.37-3.64.37-8.13-.16-8.13-.37-8.13Z"/>
      <path class="cls-5" d="m426.4,342.02c-.21,0-.38,3.63-.38,8.13s.16,8.13.38,8.13.38-3.64.38-8.13-.16-8.13-.38-8.13Z"/>
      <g class="cls-16">
        <path class="cls-4" d="m509.64,341.75c-27.72,4.76-56.05,4.76-83.78,0h83.78Z"/>
      </g>
      <path class="cls-5" d="m424.45,341.79c0,.21,19.34.38,43.2.38s43.19-.16,43.19-.38-19.28-.36-43.19-.36-43.2.15-43.2.36Z"/>
      <rect class="cls-14" x="430.04" y="358.52" width="86.54" height="16.78"/>
      <path class="cls-5" d="m511.02,358.81c-.2,0-.38,3.64-.38,8.15s.18,8.13.38,8.13.39-3.64.39-8.13-.18-8.15-.39-8.15Z"/>
      <path class="cls-5" d="m503,358.81c-.21,0-.37,3.64-.37,8.15s.16,8.13.37,8.13.38-3.64.38-8.13-.18-8.15-.38-8.15Z"/>
      <path class="cls-5" d="m495.08,358.81c-.21,0-.38,3.64-.38,8.15s.16,8.13.38,8.13.38-3.64.38-8.13-.18-8.15-.38-8.15Z"/>
      <path class="cls-5" d="m487.18,358.81c-.21,0-.38,3.64-.38,8.15s.16,8.13.38,8.13.37-3.64.37-8.13-.16-8.15-.37-8.15Z"/>
      <path class="cls-5" d="m479.29,358.81c-.21,0-.38,3.64-.38,8.15s.16,8.13.38,8.13.38-3.64.38-8.13-.16-8.15-.38-8.15Z"/>
      <path class="cls-5" d="m471.4,358.81c-.21,0-.37,3.64-.37,8.15s.16,8.13.37,8.13.38-3.64.38-8.13-.14-8.15-.38-8.15Z"/>
      <path class="cls-5" d="m463.52,358.81c-.21,0-.37,3.64-.37,8.15s.16,8.13.37,8.13.38-3.64.38-8.13-.16-8.15-.38-8.15Z"/>
      <path class="cls-5" d="m455.63,358.81c-.21,0-.38,3.64-.38,8.15s.16,8.13.38,8.13.38-3.64.38-8.13-.16-8.15-.38-8.15Z"/>
      <path class="cls-5" d="m447.74,358.81c-.21,0-.37,3.64-.37,8.15s.16,8.13.37,8.13.38-3.64.38-8.13-.16-8.15-.38-8.15Z"/>
      <path class="cls-5" d="m439.85,358.81c-.21,0-.37,3.64-.37,8.15s.16,8.13.37,8.13.38-3.64.38-8.13-.16-8.15-.38-8.15Z"/>
      <path class="cls-5" d="m431.97,358.81c-.21,0-.38,3.64-.38,8.15s.16,8.13.38,8.13.37-3.64.37-8.13-.18-8.15-.37-8.15Z"/>
      <g class="cls-16">
        <path class="cls-4" d="m515.19,358.55c-27.66,5.39-56.1,5.39-83.76,0h83.76Z"/>
      </g>
      <path class="cls-5" d="m430.02,358.58c0,.21,19.34.38,43.19.38s43.2-.16,43.2-.38-19.34-.38-43.2-.38-43.19.16-43.19.38Z"/>
      <rect class="cls-14" x="425.1" y="375.08" width="86.54" height="16.78"/>
      <path class="cls-5" d="m506.08,375.41c-.21,0-.37,3.64-.37,8.13s.16,8.2.37,8.2.38-3.64.38-8.2-.18-8.13-.38-8.13Z"/>
      <path class="cls-5" d="m498.06,375.41c-.21,0-.37,3.64-.37,8.13s.16,8.2.37,8.2.38-3.64.38-8.2-.16-8.13-.38-8.13Z"/>
      <path class="cls-5" d="m490.12,375.41c-.2,0-.38,3.64-.38,8.13s.18,8.2.38,8.2.37-3.64.37-8.2-.11-8.13-.37-8.13Z"/>
      <path class="cls-5" d="m482.19,375.41c-.21,0-.38,3.64-.38,8.13s.16,8.2.38,8.2.37-3.64.37-8.2-.12-8.13-.37-8.13Z"/>
      <path class="cls-5" d="m474.35,375.41c-.21,0-.38,3.64-.38,8.13s.16,8.2.38,8.2.38-3.64.38-8.2-.16-8.13-.38-8.13Z"/>
      <path class="cls-5" d="m466.46,375.41c-.21,0-.38,3.64-.38,8.13s.16,8.2.38,8.2.37-3.64.37-8.2-.16-8.13-.37-8.13Z"/>
      <path class="cls-5" d="m458.57,375.41c-.21,0-.37,3.64-.37,8.13s.16,8.2.37,8.2.38-3.64.38-8.2-.2-8.13-.38-8.13Z"/>
      <path class="cls-5" d="m450.68,375.41c-.21,0-.38,3.64-.38,8.13s.16,8.2.38,8.2.37-3.64.37-8.2-.16-8.13-.37-8.13Z"/>
      <path class="cls-5" d="m442.8,375.41c-.21,0-.38,3.64-.38,8.13s.16,8.2.38,8.2.37-3.64.37-8.2-.16-8.13-.37-8.13Z"/>
      <path class="cls-5" d="m434.91,375.41c-.21,0-.37,3.64-.37,8.13s.16,8.2.37,8.2.38-3.64.38-8.2-.16-8.13-.38-8.13Z"/>
      <path class="cls-5" d="m427.02,375.41c-.21,0-.38,3.64-.38,8.13s.16,8.2.38,8.2.37-3.64.37-8.2-.16-8.13-.37-8.13Z"/>
      <g class="cls-16">
        <path class="cls-4" d="m510.32,375.11c-27.72,4.76-56.05,4.76-83.78,0h83.78Z"/>
      </g>
      <path class="cls-5" d="m425.07,375.14c0,.2,19.34.38,43.2.38s43.19-.18,43.19-.38-19.34-.38-43.19-.38-43.2.16-43.2.38Z"/>
      <path class="cls-5" d="m511.64,391.82v-4.4c0-2.88-.06-7.03-.09-12.15v-.19h4.96l-.2.21v-16.79l.26.26h-5.86v-17.21h10.42l-.28.28v-17.78l.26.27h-8.46v-16.74h2.34l-.19.2v-17.1c0-.1,0-.2,0-.3.01.1.01.2,0,.3v.89c0,.82,0,1.96.08,3.42,0,3.04.13,7.37.22,12.77v.2h-2.34l.2-.2c0,4.69,0,10.2.06,16.27l-.26-.25h8.47v18.33h-10.43l.29-.28v16.65l-.27-.27h5.86v17.26h-4.98l.19-.19c0,5.15-.06,9.27-.08,12.15v4.11c-.04.09-.1.17-.16.25Z"/>
    </g>
  </g>
  <g id="Layer_7" data-name="Layer 7">
    <g>
      <g>
        <polygon class="cls-5" points="59.22 391.85 51.09 391.85 48.08 355.24 57.65 355.24 59.22 391.85"/>
        <polygon class="cls-5" points="129.7 391.85 137.83 391.85 140.84 355.24 131.27 355.24 129.7 391.85"/>
        <g>
          <path class="cls-6" d="m146.43,359.88l-104.66,2.46-3.19-67.6c-.31-6.62,4.97-12.16,11.6-12.16h89.17c6.73,0,12.05,5.7,11.58,12.41l-4.5,64.89Z"/>
          <path class="cls-8" d="m62.48,295.08s-.78-.27-1.84-1.03c-1.06-.76-2.4-2.03-3.48-3.73-1.08-1.7-1.65-3.46-1.87-4.75-.23-1.29-.17-2.11-.12-2.11.08,0,.14.8.45,2.04.3,1.24.9,2.92,1.95,4.56,1.04,1.64,2.3,2.91,3.28,3.72.99.82,1.68,1.23,1.64,1.3Z"/>
          <path class="cls-8" d="m111.96,281.86c.11.12-2.65,2-4.81,5.4-2.2,3.37-2.73,6.67-2.88,6.63-.05,0,0-.84.35-2.13.34-1.29,1.03-3.03,2.13-4.75,1.11-1.72,2.4-3.07,3.43-3.92,1.03-.86,1.75-1.26,1.78-1.22Z"/>
          <path class="cls-5" d="m151.8,294.5s-.1.02-.29.02c-.22,0-.5.01-.86.03-.79.01-1.89.03-3.3.05-2.9.01-7.03.03-12.13.04-10.24.02-24.4-.1-40.02.26-15.63.52-29.8.43-40.04.28-5.12-.08-9.27-.18-12.13-.27-1.41-.05-2.51-.09-3.3-.11-.36-.02-.64-.03-.86-.04-.19-.01-.29-.02-.29-.03s.1-.01.29-.02c.22,0,.5,0,.86,0,.79,0,1.89.01,3.3.02,2.9.03,7.03.07,12.13.12,10.24.07,24.39.11,40.02-.41,15.63-.36,29.79-.19,40.03-.13,5.1.04,9.24.08,12.13.11,1.41.02,2.51.03,3.3.04.36,0,.64.02.86.02.19,0,.29.02.29.02Z"/>
          <path class="cls-5" d="m76.76,283.63c.03.16-3.28.21-6.8,2.04-3.54,1.78-5.53,4.42-5.64,4.31-.04-.03.39-.73,1.3-1.68.9-.95,2.33-2.13,4.13-3.05,1.8-.91,3.59-1.38,4.89-1.56,1.31-.18,2.12-.11,2.12-.06Z"/>
        </g>
        <g class="cls-16">
          <path class="cls-4" d="m63.34,282.58c3.1,3.46,8.16,4.98,12.76,5.68,8.27,1.26,16.74,1.93,24.99.53,5.29-.9,10.52-2.65,15.87-2.29,5.47.38,10.97,2.96,16.25,1.46,2.83-.8,5.3-2.8,6.68-5.4.44-.83.71-1.99,0-2.59-.36-.31-1.15.76-1.63.72-24.8-1.89-50.11,3.62-74.92,1.89"/>
        </g>
        <path class="cls-8" d="m148.39,309.59s-.08.02-.22.03c-.18,0-.39.02-.66.03-.58.04-1.43.01-2.52.1-2.18.11-5.34.43-9.17,1.22-3.83.79-8.3,2.14-12.99,4.3-4.69,2.15-9.56,5.16-14.07,9.05-4.48,3.93-8.14,8.33-10.93,12.67-2.79,4.35-4.76,8.59-6.07,12.27-1.32,3.68-2.07,6.76-2.49,8.91-.24,1.07-.34,1.91-.45,2.48-.05.26-.09.47-.12.65-.03.15-.05.22-.06.22,0,0,0-.08,0-.22.02-.17.04-.39.07-.65.09-.57.15-1.42.36-2.5.36-2.16,1.07-5.27,2.35-8.99,1.28-3.71,3.23-8,6.02-12.39,2.78-4.39,6.47-8.84,10.98-12.8,4.55-3.92,9.47-6.95,14.2-9.09,4.74-2.15,9.25-3.48,13.11-4.23,3.86-.75,7.03-1.02,9.23-1.08,1.1-.06,1.95,0,2.53-.01.26,0,.48.01.66.02.15,0,.22.01.22.02Z"/>
        <g class="cls-16">
          <path class="cls-4" d="m127.18,298.82c-.44,2.3.67,4.67,2.3,6.35,1.63,1.68,3.73,2.81,5.75,3.99,3.36,1.95,6.72,4.19,8.82,7.45,4,6.21,2.52,14.36,4.21,21.55,0,0,1.41-31.02,1.12-30.24"/>
        </g>
        <path class="cls-8" d="m81.33,296.1s.02.08.03.25c.01.19.03.43.04.73.03.64.06,1.58.04,2.8-.04,2.42-.21,5.97-1.36,10.19-.57,2.1-1.45,4.35-2.75,6.57-1.28,2.22-3.1,4.38-5.43,6.1-1.15.88-2.44,1.63-3.82,2.26-1.38.63-2.87,1.11-4.44,1.35-1.56.25-3.19.29-4.81.04l-1.21-.26c-.4-.1-.79-.25-1.19-.37-.79-.25-1.55-.63-2.27-1.08-.71-.46-1.36-1.04-1.85-1.75-.49-.7-.79-1.54-.84-2.38-.06-.84.12-1.72.6-2.43.47-.72,1.24-1.2,2.04-1.39,1.62-.39,3.29.12,4.52,1.05,1.26.92,2.12,2.24,2.62,3.62.49,1.39.64,2.84.47,4.22-.14,1.39-.68,2.66-1.34,3.78-1.36,2.23-3.32,3.76-5.24,4.81-1.93,1.05-3.85,1.6-5.54,1.96-1.7.35-3.18.51-4.39.62-1.21.1-2.15.15-2.79.18-.3,0-.54.02-.73.02-.16,0-.25,0-.25,0,0,0,.08-.02.25-.04.19-.02.43-.04.72-.07.67-.06,1.6-.15,2.78-.27,1.2-.14,2.67-.32,4.35-.69,1.67-.38,3.56-.94,5.44-1.99,1.86-1.04,3.76-2.56,5.06-4.72.62-1.08,1.13-2.3,1.26-3.62.16-1.32,0-2.71-.47-4.03-.48-1.31-1.3-2.55-2.48-3.4-1.15-.86-2.7-1.32-4.14-.96-.71.17-1.37.59-1.77,1.2-.41.61-.57,1.39-.52,2.14.08,1.55,1.13,2.91,2.48,3.77.68.43,1.4.79,2.17,1.04.38.12.76.26,1.14.36l1.17.25c1.57.24,3.15.21,4.66-.03,1.52-.23,2.98-.69,4.33-1.31,1.35-.61,2.62-1.34,3.75-2.2,2.29-1.68,4.07-3.78,5.35-5.95,1.29-2.18,2.18-4.39,2.76-6.46,1.17-4.16,1.4-7.69,1.5-10.1.05-1.21.04-2.15.04-2.79,0-.3,0-.54,0-.73,0-.16,0-.25.02-.25Z"/>
        <path class="cls-8" d="m127.62,358.97c-.01-.05.82-.13,2.16-.73,1.32-.6,3.16-1.83,4.57-4.04,1.41-2.19,2.27-5.33,2.06-8.78-.11-1.7-.51-3.55-1.7-4.96-1.12-1.41-3.36-1.99-5.03-1.07-.82.45-1.32,1.34-1.36,2.26-.05.92.28,1.84.82,2.55,1.14,1.44,2.99,2.02,4.67,2.2,3.44.37,6.55-.83,8.58-2.42,2.07-1.61,3.16-3.52,3.74-4.85.57-1.35.7-2.17.75-2.16.02,0-.01.21-.08.59-.09.38-.22.94-.49,1.64-.54,1.37-1.6,3.35-3.7,5.04-2.07,1.67-5.26,2.95-8.83,2.59-1.74-.17-3.71-.75-4.99-2.35-.61-.8-.97-1.81-.92-2.86.03-1.05.63-2.11,1.59-2.64,1.93-1.05,4.37-.37,5.62,1.18,1.29,1.54,1.68,3.49,1.79,5.23.19,3.54-.72,6.75-2.21,8.99-1.49,2.25-3.41,3.47-4.78,4.02-.69.28-1.26.42-1.64.5-.39.06-.59.08-.59.07Z"/>
      </g>
      <g>
        <g>
          <g>
            <path class="cls-5" d="m69.46,136.02c-1.46-12.98-2.92-25.95-4.38-38.93l-8.04-8.98c-8.87,10.88-11.44,23.65-12.17,32-1.2,13.6-4.07,25.39-.75,38.73.17.67.41,1.41,1.09,1.76.5.26,1.11.24,1.69.22,6.91-.3,13.82-.6,20.73-.89,3.57-7.45,2.73-15.87,1.82-23.9Z"/>
            <path class="cls-5" d="m101.79,124.78c-.26-11.4-.27-17.86-1.71-27.09l-21.18,26.45c1.83,11.58,1.4,23.51-1.25,34.92-.32,1.36-.6,3,.39,4,1.56,1.58,4.27-.14,6.45.34,2.64.59,4.19,4.39,6.84,3.85,2.98-.61,3.4-6.22,6.41-5.8,1.1.15,2.02,1.2,3.12,1.04,1.42-.21,1.74-2.1,1.71-3.54-.26-11.39-.52-22.78-.78-34.18Z"/>
            <g>
              <g>
                <g>
                  <path class="cls-10" d="m82.6,150.84s0,.14,0,0h0Z"/>
                  <path class="cls-10" d="m96.86,104.19c.14-10.32-7.76-19.4-18.24-20.17-11.12-.81-20.54,7.55-20.96,18.37l-.61,43.6c-.01.84.27,1.66.77,2.34,2.72,3.62,7.48,6.32,11.64,6.71,4.03.37,8.04-.85,11.35-2.9,1.12-.69,1.77-1.95,1.74-3.27l-.27-9.74s.03-.07.06-.07c.6.02,2.14-.03,2.73-.2,2.55-.74,8.99-3.57,10.76-13.3.58-3.23.91-12.33,1.04-21.37Z"/>
                </g>
                <path class="cls-5" d="m83.21,119.06c0-.1,1.07-.25,2.81-.43.44-.03.86-.11.94-.4.11-.31-.07-.78-.27-1.29-.39-1.06-.81-2.16-1.24-3.32-1.72-4.73-2.95-8.61-2.76-8.67.19-.07,1.74,3.71,3.46,8.44.41,1.17.81,2.28,1.18,3.34.16.49.43,1.06.2,1.7-.12.32-.45.55-.73.61-.28.08-.53.08-.75.08-1.75.05-2.83.03-2.83-.06Z"/>
              </g>
              <g>
                <path class="cls-5" d="m93.16,111.19c.01.83-.69,1.52-1.57,1.55-.88.02-1.61-.63-1.62-1.46-.01-.83.69-1.52,1.57-1.55.88-.03,1.61.63,1.62,1.46Z"/>
                <path class="cls-5" d="m94.3,105.96c-.15.18-1.43.13-3.05.72-1.62.58-2.66,1.48-2.87,1.43-.1-.02.03-.28.48-.68.44-.39,1.25-.91,2.25-1.28,1.01-.37,1.92-.47,2.47-.44.56.03.79.16.71.24Z"/>
              </g>
              <g>
                <path class="cls-5" d="m76.72,110.5c.01.83-.69,1.52-1.57,1.55-.88.03-1.61-.63-1.62-1.46-.01-.83.69-1.52,1.57-1.55.88-.03,1.61.63,1.62,1.46Z"/>
                <path class="cls-5" d="m76.76,107.85c-.25.02-1.21-.97-2.91-1.72-1.69-.77-3.17-.87-3.3-1.06-.07-.09.23-.19.88-.15.64.04,1.65.25,2.7.72,1.06.48,1.84,1.07,2.25,1.5.42.44.5.71.38.71Z"/>
              </g>
              <path class="cls-9" d="m82.27,139.06s-6.66.38-14.88-4.73c0,0,2.46,8.7,14.97,7.85l-.09-3.12Z"/>
              <path class="cls-9" d="m82.4,123.12c-.6-.82-1.68-1.29-2.76-1.2-.75.06-1.51.4-1.98.98-.47.59-.58,1.43-.17,2.01.45.65,1.42.82,2.25.62.83-.21,1.54-.72,2.22-1.24.19-.14.38-.29.5-.49.12-.2.15-.46,0-.63"/>
              <path class="cls-5" d="m78.12,120.11c.28,0,.25,1.83,1.82,3.17,1.57,1.35,3.57,1.19,3.58,1.44.02.12-.45.35-1.29.35-.83,0-2.02-.28-2.99-1.1-.96-.82-1.36-1.9-1.41-2.65-.06-.77.16-1.22.29-1.21Z"/>
              <path class="cls-5" d="m77.74,100.99c-.23.43-1.9-.03-3.94-.09-2.03-.1-3.72.24-3.93-.2-.09-.21.25-.6.96-.95.71-.35,1.8-.61,3.02-.57,1.22.05,2.29.39,2.98.79.69.4,1.01.81.91,1.02Z"/>
              <path class="cls-5" d="m94.13,100.82c-.31.38-1.49-.05-2.91-.1-1.42-.1-2.64.19-2.91-.21-.12-.2.08-.58.61-.93.53-.35,1.4-.63,2.38-.57.98.05,1.82.42,2.31.83.5.41.65.81.52.99Z"/>
              <g>
                <path class="cls-5" d="m80.05,81.78c-.97-1.49-2.67-2.11-4.55-2.31-7.67-.81-15.96,4.17-19.94,10.78-3.97,6.61-3.77,16.19-.32,23.08l3.87-2.49c5.93-.63,14.2-14.81,22.12-24.34.98-1.19-.34-3.43-1.18-4.72Z"/>
                <path class="cls-5" d="m94.86,86.11c-3.35-3.48-8.73-7.66-15.23-4.84-.89,1.9,1.18,4.21,2.88,5.54,2.49,1.95,4.12,4.52,5.76,5.92,3.32,2.83,8.52,9.54,8.53,15.02,0,4.23-.28,4.03.06,3.96,0,0,2.17-3.74,2.59-6,2.05-11.05-1.24-16.12-4.59-19.6Z"/>
                <g>
                  <path class="cls-10" d="m59.85,110.14c-.18-.09-7.34-2.55-7.45,4.87-.11,7.42,7.36,6,7.38,5.79.02-.21.07-10.66.07-10.66Z"/>
                  <path class="cls-9" d="m57.55,117.95s-.13.09-.35.19c-.21.09-.58.16-.97,0-.78-.3-1.42-1.55-1.44-2.89,0-.68.14-1.32.39-1.85.23-.54.59-.91.99-.98.39-.08.67.16.76.37.1.21.05.36.09.37.02.02.16-.12.11-.43-.03-.15-.11-.32-.28-.47-.18-.15-.44-.23-.71-.2-.57.03-1.1.55-1.37,1.13-.3.58-.49,1.3-.48,2.06.03,1.5.77,2.91,1.84,3.23.52.14.96,0,1.19-.18.23-.18.27-.35.25-.36Z"/>
                </g>
                <path class="cls-6" d="m75.5,79.47s.58-.14,1.49.06c.9.21,2.11.79,3.1,1.84.24.27.46.54.64.83.19.3.29.63.39.9.2.56.38,1.09.46,1.55.17.93-.02,1.51-.07,1.49-.08,0,0-.57-.25-1.42-.12-.42-.31-.91-.54-1.47-.12-.29-.21-.56-.38-.81-.16-.26-.37-.51-.59-.76-.92-.98-2.02-1.56-2.85-1.84-.84-.27-1.4-.3-1.4-.37Z"/>
              </g>
            </g>
          </g>
          <path class="cls-5" d="m111.1,148.89s-.13-.15-.35-.46c-.21-.31-.53-.76-.88-1.39-.73-1.23-1.68-3.08-2.57-5.47-1.85-4.78-3.33-11.71-4.52-19.38-1.19-7.66-2.27-14.58-3.06-19.67-.36-2.48-.66-4.5-.87-5.97-.09-.67-.16-1.2-.21-1.63-.04-.37-.06-.57-.04-.57.02,0,.06.19.14.56.08.42.18.95.3,1.61.25,1.46.6,3.48,1.02,5.94.83,5.08,1.95,12,3.2,19.64,1.19,7.67,2.61,14.58,4.37,19.35.85,2.39,1.74,4.25,2.42,5.49.67,1.25,1.11,1.91,1.07,1.93Z"/>
          <path class="cls-5" d="m79.22,84.92s0,.47-.1,1.32c-.11.84-.31,2.06-.67,3.54-.7,2.95-2.12,7.01-4.82,10.83-2.7,3.83-6.17,6.45-8.9,7.8-1.36.69-2.53,1.11-3.35,1.35-.41.13-.73.19-.95.24-.22.05-.34.06-.34.05-.03-.1,1.83-.5,4.48-1.93,2.65-1.41,6.01-4.02,8.67-7.78,2.66-3.76,4.1-7.73,4.88-10.64.39-1.46.65-2.66.81-3.49.16-.83.25-1.29.29-1.29Z"/>
        </g>
        <path class="cls-5" d="m64.88,136.87c-2.41-2.34-5.06-4.48-7-7.22-1.93-2.75-3.08-6.31-2.02-9.5l-4.33,9.83c.12,7.3-.69,14.6-.58,21.9,2.63-3.86,5.61-4.99,8.74-6.44,3.13-1.45,8.19-.29,11.4.97-.8-3.26-3.8-7.2-6.21-9.54Z"/>
        <path class="cls-7" d="m57.62,122.6c-.26-1.02-.53-2.04-.79-3.06-.11-.43-.72-.46-.87-.04-.39,1.09-.78,2.22-.99,3.29-.18.96-.33,1.94-.21,2.9.12.97.53,1.93,1.28,2.55.3.24.68.43,1.06.36.59-.11.89-.76,1.01-1.34.3-1.55-.1-3.13-.49-4.66Z"/>
      </g>
      <g>
        <g>
          <path class="cls-10" d="m155.86,227l-4.01-6.07-6.44-3.23-.24-.18c-2.11-1.53-4.79-2.03-7.31-1.36-2.62.7-6.12,1.57-9.16,2.09l-6.93-1.9v13.53l34.97-2.21-.87-.68Z"/>
          <g>
            <path class="cls-9" d="m155.61,226.63s-.53-.56-1.48-1.35c-.95-.79-2.27-1.86-3.75-3.02-.48-.37-.95-.73-1.39-1.08l-.04-.03h-.05c-1.43-.28-2.68-.5-3.57-.63-.89-.14-1.42-.2-1.43-.15,0,.05.51.2,1.38.41.88.21,2.11.48,3.54.77l-.09-.04c.44.35.9.71,1.38,1.09,1.48,1.16,2.84,2.19,3.83,2.92.99.73,1.63,1.16,1.67,1.11Z"/>
            <path class="cls-9" d="m152.89,227.81c.06-.1-2.19-1.46-5.03-3.04-.42-.23-.83-.46-1.23-.67l-.04-.02h-.05c-2.57-.14-4.47-.18-4.48-.08,0,.1,1.89.31,4.45.5l-.09-.03c.39.22.8.45,1.22.68,2.84,1.57,5.18,2.76,5.24,2.66Z"/>
          </g>
        </g>
        <g>
          <path class="cls-7" d="m196.56,188.72c-1.17-.66-2.65-.34-3.45.74l-28.16,38.14-44.56.6c-1.78.11-3.94,3.7-2.34,5.44l50.32-.69,29.05-40.37c.93-1.29.53-3.1-.86-3.88Z"/>
          <path class="cls-5" d="m196.56,188.72s.08.04.22.12c.14.09.35.24.56.5.42.48.92,1.54.41,2.79-.28.6-.75,1.13-1.19,1.78-.45.64-.95,1.34-1.48,2.09-1.07,1.51-2.31,3.23-3.68,5.17-5.54,7.74-13.43,18.75-22.87,31.92l-.06.08h-.1c-14.49.21-31.42.45-49.41.71-.31,0-.61,0-.91.01h-.1s-.07-.08-.07-.08c-.46-.49-.64-1.17-.61-1.8.02-.63.2-1.24.47-1.78.27-.55.63-1.05,1.08-1.47.44-.41,1.02-.79,1.69-.79,2.32-.03,4.61-.06,6.88-.09,4.54-.06,8.98-.12,13.3-.17,8.64-.11,16.79-.21,24.27-.31l-.16.08c9.16-12.35,16.8-22.64,22.15-29.86,2.68-3.58,4.79-6.4,6.24-8.34.83-.95,1.92-1.02,2.51-.91.62.12.88.34.88.34,0,.02-.28-.18-.89-.28-.58-.09-1.63,0-2.4.92-1.43,1.95-3.5,4.79-6.14,8.4-5.32,7.24-12.91,17.57-22.01,29.96l-.06.08h-.1c-7.47.11-15.62.23-24.26.35-4.32.06-8.76.12-13.3.19-2.27.03-4.56.06-6.88.09-.51,0-.98.29-1.38.66-.4.38-.73.84-.98,1.34-.49.97-.67,2.25.07,3.05l-.18-.08c.3,0,.61,0,.91-.01,17.99-.24,34.92-.46,49.41-.65l-.17.09c9.49-13.12,17.43-24.1,23-31.82,1.39-1.92,2.64-3.64,3.73-5.13.54-.75,1.05-1.44,1.51-2.07.44-.64.93-1.19,1.2-1.74.51-1.18.05-2.22-.34-2.7-.41-.51-.75-.64-.73-.66Z"/>
        </g>
      </g>
      <g>
        <path class="cls-14" d="m58.12,145.23c-1.76.47-2.73,1.53-4.04,2.79-2.84,2.75-4.9,6.51-6.01,9.83-1.49,4.46-2.74,23.36-2.74,28.46s3.22,22.98,3.86,26.17c.64,3.19-1.57,5.74-1.21,9.14.36,3.4,2.11,10.18,2.11,10.18l55.38-2.54,1.61-5.32s-3.27-10.86-2.43-21.85c.7-9.11.88-18.88-.79-24.17-2.55-8.06-12.76-21.33-22.93-29.16,0,0-8.02-1.72-9.84-2.35-5.43-1.9-7.5-2.65-12.98-1.18Z"/>
        <path class="cls-14" d="m125.86,214.78l-46.72-9.75-1.2-40.56s-1.63-16.52-9.92-18.06l-19.94,24.82c1.11,12.51.1,36.18,5.85,45.31,5.75,9.13,11.34,16.44,25.5,15.8,14.16-.65,45.36-.95,45.36-.95l1.08-16.6Z"/>
        <path class="cls-5" d="m79.23,205.19c.11.09-1.01,1.55-1.95,3.59-.96,2.03-1.36,3.83-1.5,3.8-.12-.01.08-1.9,1.07-4,.97-2.1,2.29-3.47,2.38-3.39Z"/>
        <path class="cls-8" d="m125.25,225.08s-.12-.05-.35-.16c-.22-.12-.57-.27-1.02-.45-.91-.35-2.32-.78-4.19-.83-1.85-.05-4.19.32-6.47,1.67-1.15.65-2.33,1.48-3.78,2.01-1.46.53-3.13.59-4.8.3-1.68-.28-3.35-.86-5.09-1.42-1.73-.56-3.56-1.13-5.5-1.24-.97-.03-1.96.03-2.95.21-.99.19-1.97.48-2.95.83-1.96.72-3.88,1.7-5.89,2.64-1,.47-2.04.93-3.11,1.33-1.07.42-2.22.7-3.4.81-1.18.1-2.41.02-3.57-.43-1.15-.46-2.14-1.42-2.56-2.62-.44-1.19-.45-2.45-.64-3.63-.16-1.2-.66-2.29-1.44-3.24-1.51-1.9-3.84-3.26-5.01-5.71-.54-1.22-.69-2.58-.52-3.86.17-1.29.57-2.51,1.05-3.67.96-2.32,2.12-4.49,2.75-6.79.31-1.15.43-2.32.34-3.47-.11-1.15-.48-2.25-.99-3.28-1-2.06-2.41-3.86-3.54-5.79-1.16-1.89-1.97-4.07-1.81-6.24.17-2.16,1.08-4.07,1.9-5.85.82-1.78,1.64-3.52,1.92-5.3.33-1.78-.03-3.53-.67-5.05-1.29-3.07-3.36-5.37-4.68-7.7-.68-1.15-1.2-2.3-1.51-3.41-.32-1.11-.38-2.18-.29-3.13.19-1.9,1-3.24,1.7-3.93.72-.7,1.23-.88,1.23-.88.02.03-.47.24-1.16.94-.66.71-1.43,2.02-1.58,3.88-.07.92,0,1.97.33,3.05.32,1.08.84,2.21,1.52,3.34,1.32,2.29,3.41,4.57,4.76,7.71.66,1.55,1.05,3.39.72,5.24-.28,1.85-1.11,3.62-1.92,5.4-.8,1.78-1.69,3.66-1.84,5.72-.15,2.06.62,4.13,1.77,5.99,1.11,1.89,2.53,3.7,3.57,5.82.52,1.05.92,2.21,1.03,3.42.11,1.21-.02,2.45-.34,3.63-.65,2.37-1.83,4.56-2.77,6.85-.47,1.14-.86,2.33-1.02,3.55-.16,1.22-.03,2.47.48,3.6,1.06,2.27,3.35,3.64,4.94,5.61.82.98,1.37,2.21,1.53,3.46.19,1.23.21,2.46.61,3.54.38,1.09,1.25,1.93,2.3,2.36,1.06.42,2.23.5,3.35.41,2.28-.19,4.35-1.19,6.36-2.09,2-.93,3.94-1.91,5.94-2.64,1-.36,2.01-.65,3.02-.84,1.02-.18,2.04-.24,3.04-.2,2.01.13,3.86.71,5.59,1.29,1.74.57,3.39,1.16,5.03,1.44,1.63.29,3.24.24,4.64-.25,1.4-.5,2.58-1.31,3.75-1.96,2.34-1.35,4.73-1.7,6.61-1.63,1.89.08,3.31.55,4.22.93.91.4,1.34.7,1.34.7Z"/>
        <path class="cls-8" d="m125.48,218.15s-.1-.04-.29-.14c-.21-.11-.49-.25-.84-.43-.74-.37-1.83-.95-3.32-1.46-1.47-.5-3.46-.9-5.59-.22-2.15.63-4.21,2.21-6.74,3.51-1.27.64-2.73,1.16-4.31,1.21-1.57.06-3.23-.29-4.74-1.08-1.53-.78-2.72-2.13-3.92-3.4-1.19-1.26-2.61-2.53-4.43-2.73-.9-.08-1.82.02-2.73.26-.9.26-1.8.59-2.69.99-.9.38-1.79.81-2.73,1.18-.93.37-1.91.72-2.96.84-1.03.12-2.16.03-3.13-.47-.99-.47-1.77-1.31-2.29-2.26-.52-.96-.8-2.04-.89-3.13-.08-1.1.05-2.19.26-3.26.44-2.14,1.18-4.15,1.55-6.2.4-2.04.58-4.11.37-6.11-.2-2-.84-3.9-1.88-5.52-.51-.82-1.08-1.62-1.55-2.47-.23-.43-.47-.86-.6-1.33-.15-.46-.33-.91-.38-1.39-.36-1.89-.11-3.78.3-5.51.42-1.74.98-3.37,1.46-4.96.48-1.59.89-3.14,1.06-4.65.16-1.51.09-2.99-.29-4.34-.77-2.7-2.23-4.86-3.21-6.88-1.04-2.01-1.58-3.93-1.68-5.52-.11-1.6.23-2.84.59-3.59.37-.75.69-1.07.69-1.07.03.02-.26.36-.6,1.11-.33.75-.63,1.97-.5,3.54.13,1.56.69,3.44,1.74,5.41,1,2,2.48,4.14,3.3,6.91.41,1.38.49,2.91.33,4.47-.16,1.56-.57,3.13-1.04,4.73-.47,1.6-1.03,3.23-1.43,4.94-.4,1.7-.63,3.53-.28,5.33.05.46.23.88.37,1.32.13.44.35.85.58,1.27.46.82,1.02,1.61,1.55,2.45,1.08,1.67,1.75,3.66,1.96,5.72.21,2.06.03,4.17-.37,6.25-.38,2.09-1.13,4.12-1.55,6.2-.21,1.04-.33,2.1-.25,3.13.08,1.03.34,2.05.83,2.94.48.89,1.19,1.65,2.08,2.07.88.46,1.9.54,2.87.43.98-.11,1.93-.44,2.85-.8.92-.36,1.82-.78,2.72-1.17.9-.4,1.82-.74,2.76-1.01.95-.25,1.93-.35,2.9-.26.47.11.96.17,1.4.36.44.18.87.41,1.25.68.78.53,1.42,1.19,2.04,1.83,1.21,1.3,2.35,2.59,3.81,3.34,1.44.76,3.03,1.12,4.54,1.06,1.52-.04,2.93-.52,4.18-1.14,2.5-1.26,4.6-2.84,6.81-3.47,2.21-.68,4.25-.23,5.73.3,1.5.54,2.58,1.15,3.31,1.55.34.2.62.36.82.47.18.11.27.17.27.18Z"/>
        <path class="cls-8" d="m58.95,223.7s-.17-.19-.45-.57c-.15-.19-.31-.44-.49-.74-.19-.3-.4-.64-.6-1.05-.85-1.61-1.81-4.15-2-7.43-.09-1.63,0-3.45.45-5.33.43-1.9,1.37-3.75,2.11-5.74.36-1,.67-2.05.74-3.14.07-1.09-.14-2.2-.68-3.2-1.06-2.01-3.13-3.55-4.15-5.92-1.05-2.33-1.17-4.88-.99-7.21.16-2.36.75-4.57,1.05-6.67.14-1.05.19-2.09.07-3.08-.12-.99-.43-1.91-.8-2.78-.75-1.73-1.63-3.31-2.17-4.86-1.12-3.08-1.42-5.75-1.48-7.56-.04-.91,0-1.62.03-2.1.04-.48.07-.73.08-.73.02,0,.02.25.01.73,0,.48,0,1.18.06,2.09.12,1.8.46,4.43,1.61,7.46.55,1.52,1.43,3.06,2.22,4.82.38.88.72,1.85.85,2.88.14,1.04.09,2.11-.05,3.19-.3,2.15-.86,4.33-1.02,6.65-.17,2.3-.04,4.76.96,6.98.96,2.25,3,3.76,4.13,5.9.58,1.06.81,2.29.72,3.44-.08,1.16-.4,2.25-.78,3.26-.77,2.03-1.7,3.84-2.14,5.69-.46,1.83-.56,3.61-.5,5.22.15,3.23,1.04,5.75,1.84,7.36.8,1.62,1.43,2.42,1.39,2.45Z"/>
        <path class="cls-8" d="m91.04,206.3c-.06-.02.46-.7.46-2.11,0-.7-.15-1.55-.51-2.48-.36-.93-.95-1.91-1.63-2.98-.68-1.07-1.41-2.3-1.87-3.75-.47-1.44-.74-3.06-.67-4.77.06-1.7.43-3.49,1.22-5.18.76-1.68,1.81-3.28,2.31-5.11.48-1.83.21-3.73-.5-5.38-.67-1.67-1.64-3.15-2.52-4.58-.89-1.43-1.74-2.79-2.34-4.18-.61-1.38-.97-2.76-1.17-4.02-.4-2.54-.12-4.64.19-6.03.16-.7.33-1.23.46-1.58.13-.35.21-.53.22-.53.04.01-.23.75-.5,2.14-.25,1.38-.47,3.45-.04,5.94.21,1.24.58,2.57,1.2,3.92.6,1.35,1.46,2.69,2.35,4.11.89,1.42,1.87,2.91,2.58,4.63.73,1.7,1.04,3.73.52,5.68-.53,1.93-1.61,3.54-2.35,5.18-.76,1.63-1.14,3.35-1.2,5-.07,1.65.17,3.23.61,4.63.43,1.41,1.12,2.61,1.78,3.69.66,1.09,1.24,2.09,1.59,3.06.35.96.47,1.85.45,2.58-.03.72-.2,1.27-.35,1.61-.15.35-.29.5-.29.5Z"/>
        <path class="cls-8" d="m101.58,209.01s.09-.7.12-1.96c.03-1.25-.04-3.1-.68-5.25-.31-1.08-.8-2.2-1.4-3.38-.59-1.18-1.3-2.43-1.86-3.84-.55-1.4-.96-3.01-.78-4.69.08-.84.36-1.68.79-2.43.43-.75.96-1.42,1.38-2.15.88-1.43.91-3.17.46-4.69-.43-1.54-1.22-2.89-2.07-4.1-.85-1.22-1.73-2.35-2.44-3.49-.71-1.14-1.24-2.3-1.5-3.42-.52-2.25-.28-4.13-.13-5.38.09-.63.18-1.11.25-1.44.07-.33.11-.5.13-.49.02,0,0,.18-.04.51-.04.38-.09.86-.16,1.45-.1,1.25-.28,3.1.27,5.27.27,1.08.8,2.19,1.51,3.3.71,1.11,1.59,2.22,2.46,3.45.87,1.22,1.71,2.62,2.16,4.23.48,1.58.46,3.5-.5,5.05-.44.77-.98,1.44-1.39,2.15-.41.7-.66,1.47-.74,2.25-.17,1.57.2,3.11.72,4.48.54,1.38,1.22,2.62,1.81,3.82.59,1.19,1.07,2.36,1.37,3.47.61,2.21.63,4.09.54,5.35-.04.64-.12,1.12-.18,1.45-.07.33-.11.5-.13.5Z"/>
        <g class="cls-16">
          <path class="cls-4" d="m77.61,162.74c4.67,14.34,3.65,36.45,12.55,44.6l-11.03-2.3s.37-4.26.09-7.79c-.89-11.34-1-22.86-1.62-34.51"/>
        </g>
        <path class="cls-5" d="m76.57,157.62s.39,1.1.82,3.25c.21,1.08.42,2.42.57,4.01.15,1.6.18,3.44.25,5.5.27,8.28.65,20.16,1.11,34.64l-.15-.18c13.39,2.78,29.36,6.1,46.73,9.71l.2.04v.2c-.36,5.31-.72,10.91-1.09,16.6v.22s-.23,0-.23,0c-1.8.02-3.73.04-5.68.06-8.12.1-16.05.22-23.7.39-3.83.08-7.59.18-11.27.3-3.67.09-7.3.44-10.83-.11-1.76-.22-3.46-.72-5.08-1.31-1.59-.67-3.13-1.45-4.48-2.45-2.75-1.96-4.89-4.48-6.74-7-.91-1.28-1.77-2.56-2.58-3.83l-.61-.95c-.19-.32-.36-.66-.54-.99-.18-.33-.35-.66-.52-.99-.13-.34-.27-.69-.4-1.03-1.06-2.73-1.67-5.48-2.09-8.11-.87-5.26-1.14-10.09-1.37-14.31-.21-4.22-.3-7.86-.41-10.84-.09-2.97-.2-5.28-.28-6.85-.05-.77-.08-1.36-.11-1.78-.02-.4-.02-.61-.02-.61,0,0,.03.2.07.6.04.42.09,1.01.16,1.78.11,1.56.25,3.87.37,6.84.13,2.97.25,6.61.49,10.83.25,4.21.54,9.03,1.43,14.26.42,2.62,1.05,5.34,2.1,8.03.13.34.26.67.4,1.01.17.32.34.64.52.96.18.32.34.65.53.97l.61.95c.81,1.27,1.67,2.54,2.58,3.81,1.85,2.5,3.96,4.98,6.66,6.89,1.33.98,2.84,1.74,4.4,2.39,1.59.57,3.25,1.06,4.99,1.27,3.46.54,7.06.19,10.75.09,3.68-.13,7.44-.23,11.27-.31,7.66-.17,15.58-.3,23.71-.4,1.95-.02,3.88-.04,5.68-.06l-.23.22c.37-5.7.74-11.29,1.08-16.6l.18.24c-17.37-3.64-33.33-6.99-46.71-9.8l-.15-.03v-.15c-.4-14.48-.72-26.36-.95-34.64-.06-2.07-.07-3.91-.2-5.49-.13-1.59-.32-2.93-.51-4.01-.19-1.08-.38-1.89-.51-2.44-.06-.26-.11-.47-.15-.62-.03-.14-.05-.21-.04-.21Z"/>
      </g>
      <g>
        <polygon class="cls-10" points="151.57 314.34 144.63 365.44 162.77 368.42 175.68 323.07 151.57 314.34"/>
        <path class="cls-5" d="m96.54,235.81s77.4-7.36,83.14-2.1c5.74,5.26,10.52,16.74,8.61,20.56-1.91,3.83-6.22,16.74-6.22,16.74l-35.65-8.13-49.88-27.07Z"/>
        <polygon class="cls-10" points="146.42 271.01 132.06 292.93 148.96 303.88 167.3 275.78 146.42 271.01"/>
        <path class="cls-5" d="m50.09,231.8s-6.69,30.6,4.3,43.04c11,12.43,27.26,12.43,43.99,10.04,16.74-2.39,56.47-3.22,56.47-3.22,0,0-1.77,10.86-3.07,23.23-1.3,12.4-1.56,20.18-1.56,20.18l24.87,2.07s13.86-42.18,15.99-50.53c2.13-8.34,1.41-19.57-5.96-23.74-6.25-3.53-55.51-17.19-79.1-19.22l-3.82-4.24-52.12,2.39Z"/>
        <path class="cls-6" d="m167.03,271.5c.01.09-.96.22-2.44.75-.74.26-1.59.65-2.49,1.16-.89.53-1.82,1.18-2.71,1.97-.88.8-1.62,1.67-2.24,2.5-.6.84-1.07,1.65-1.4,2.36-.68,1.41-.91,2.37-1,2.35-.03,0,0-.25.1-.69.09-.44.28-1.06.59-1.8.3-.74.76-1.59,1.35-2.47.61-.87,1.37-1.77,2.28-2.59.92-.82,1.89-1.48,2.81-2,.94-.5,1.82-.87,2.6-1.09.77-.23,1.4-.36,1.85-.4.44-.05.69-.06.69-.03Z"/>
        <path class="cls-6" d="m164.07,246.03c-.11-.06.41-1.25,1.31-2.57.9-1.32,1.82-2.25,1.92-2.16.1.09-.64,1.13-1.52,2.43-.89,1.3-1.58,2.37-1.7,2.31Z"/>
        <path class="cls-6" d="m192.14,264.87s-.03-.08-.07-.24c-.04-.19-.1-.42-.17-.71-.15-.62-.38-1.54-.75-2.69-.37-1.15-.91-2.54-1.77-4.02-.86-1.45-2.09-3.08-4.01-4.04-3.93-1.79-8.83-3.49-14.34-5.09-5.5-1.65-11.57-3.39-17.97-5.08-12.81-3.4-24.57-5.84-33.13-7.26-4.28-.72-7.76-1.22-10.16-1.55-1.18-.16-2.1-.29-2.77-.38-.29-.04-.53-.08-.72-.11-.16-.03-.24-.05-.24-.05s.09,0,.25,0c.19.02.43.04.72.06.67.07,1.6.17,2.78.29,2.41.28,5.9.72,10.2,1.41,8.59,1.34,20.37,3.72,33.2,7.13,6.41,1.69,12.48,3.45,17.98,5.12,5.51,1.63,10.4,3.37,14.36,5.21,2,1.03,3.23,2.71,4.09,4.2.85,1.52,1.36,2.93,1.71,4.1.35,1.17.55,2.09.67,2.72.05.29.09.53.12.72.02.16.03.25.03.25Z"/>
        <g>
          <g>
            <path class="cls-14" d="m164.18,367.09l.6-2.22c-7.7-.81-14.57-3.66-20.03-8.63l-6.15,13.29,41,18.23c1.55-3.92-15.43-20.68-15.43-20.68Z"/>
            <path class="cls-7" d="m138.61,369.54l1.5-3.25,38.83,18.73s1.46,1.59.67,2.75l-41-18.23Z"/>
            <path class="cls-5" d="m163.64,366.83c-.1.19-1.14-.16-2.42.02-1.28.16-2.19.78-2.34.62-.17-.12.68-1.15,2.23-1.36,1.55-.22,2.65.56,2.52.71Z"/>
            <path class="cls-7" d="m147.68,365.41c-.28.57-.99.82-1.58.54-.59-.27-.84-.96-.56-1.54.28-.57.99-.82,1.58-.54.59.27.84.96.56,1.54Z"/>
            <path class="cls-5" d="m163.39,366.56s-.34-.01-.93-.17c-.57-.17-1.48-.41-2.3-1.23-.2-.2-.38-.44-.54-.71-.15-.26-.31-.56-.34-.94-.05-.39.23-.87.64-1.01.4-.18.88-.11,1.24.06,1.41.68,2.5,2.22,2.54,4l-.6-.09c.1-.3.23-.62.4-.92.93-1.67,2.8-2.56,4.45-2.51.21,0,.45.01.69.13.25.12.42.37.47.61.09.47-.09.87-.3,1.18-.42.62-1.01,1.01-1.57,1.26-1.15.51-2.17.41-2.81.42-.66-.02-1.02-.04-1.03-.08,0-.04.36-.1,1.02-.15.65-.08,1.63-.06,2.63-.57.5-.25,1-.62,1.33-1.14.16-.25.25-.56.2-.8-.05-.23-.25-.31-.62-.3-1.46,0-3.09.79-3.9,2.25-.15.26-.27.54-.36.81-.05.16-.22.25-.39.2-.13-.04-.22-.16-.22-.29,0-1.53-.98-2.93-2.15-3.51-.55-.3-1.2-.04-1.15.44.04.5.38,1.03.7,1.4.68.76,1.52,1.06,2.06,1.29.56.22.87.34.85.38Z"/>
          </g>
          <path class="cls-5" d="m166.78,369.68c-.03.14-1.26-.19-2.71.19-1.46.35-2.39,1.21-2.49,1.1-.11-.06.76-1.17,2.37-1.56,1.6-.41,2.89.16,2.83.27Z"/>
          <path class="cls-5" d="m169.07,372.28c-.01.14-1.12.11-2.4.49-1.28.37-2.2,1.01-2.28.89-.09-.09.76-.94,2.15-1.35,1.39-.42,2.56-.16,2.54-.04Z"/>
        </g>
        <g>
          <g>
            <path class="cls-14" d="m152.18,301.41l.97-2.08c-7.46-2.09-13.75-6.06-18.29-11.88l-8.3,12.07,37.35,24.87c2.19-3.6-11.73-22.98-11.73-22.98Z"/>
            <path class="cls-7" d="m126.56,299.51l2.03-2.95,35.12,25s1.18,1.81.2,2.82l-37.35-24.87Z"/>
            <path class="cls-5" d="m151.68,301.06c-.13.17-1.1-.35-2.39-.38-1.29-.06-2.29.4-2.41.21-.14-.15.86-1.02,2.43-.96,1.56.05,2.52.99,2.37,1.13Z"/>
            <path class="cls-7" d="m136.19,296.97c-.37.52-1.11.64-1.65.27s-.66-1.09-.29-1.61c.37-.52,1.11-.64,1.65-.27.53.37.66,1.09.29,1.61Z"/>
            <path class="cls-5" d="m151.49,300.75s-.33-.07-.89-.32c-.53-.26-1.39-.66-2.06-1.6-.16-.23-.3-.5-.41-.79-.11-.28-.21-.6-.18-.99.01-.39.37-.82.8-.89.42-.11.89.04,1.22.26,1.28.9,2.09,2.61,1.83,4.37l-.58-.19c.15-.28.33-.57.55-.84,1.19-1.49,3.19-2.05,4.8-1.73.2.04.44.09.66.25.22.16.35.44.36.68,0,.48-.23.84-.49,1.12-.52.54-1.17.83-1.76.98-1.22.31-2.21.04-2.85-.06-.65-.13-1-.22-1-.26,0-.04.37-.04,1.03.02.65.03,1.62.22,2.69-.12.53-.16,1.09-.44,1.5-.91.2-.21.34-.51.33-.75-.01-.23-.19-.34-.56-.4-1.44-.26-3.18.26-4.22,1.56-.19.23-.36.49-.49.73-.08.15-.26.21-.41.13-.12-.06-.19-.19-.17-.32.25-1.51-.48-3.05-1.53-3.82-.5-.39-1.18-.24-1.21.24-.04.5.2,1.08.45,1.49.54.86,1.32,1.3,1.82,1.62.51.31.8.48.78.52Z"/>
          </g>
          <path class="cls-5" d="m154.31,304.4c-.06.13-1.21-.4-2.71-.27-1.5.1-2.56.79-2.64.67-.1-.08.95-1.03,2.6-1.14,1.65-.13,2.82.65,2.74.74Z"/>
          <path class="cls-5" d="m156.12,307.35c-.03.14-1.12-.09-2.45.08-1.33.15-2.34.62-2.4.5-.07-.1.91-.8,2.35-.97,1.44-.18,2.55.27,2.51.39Z"/>
        </g>
      </g>
    </g>
  </g>
  <g id="Layer_8" data-name="Layer 8">
    <g id="Layer_1" data-name="Layer 1">
      <path class="cls-14" d="m94.09,14.16c0-2.22,0-3.33.36-4.2.48-1.17,1.41-2.1,2.58-2.58.88-.36,1.98-.36,4.2-.36h0c2.22,0,3.33,0,4.2.36,1.17.48,2.09,1.41,2.58,2.58.36.88.36,1.98.36,4.2h0c0,2.22,0,3.33-.36,4.2-.48,1.17-1.41,2.09-2.58,2.58-.88.36-1.98.36-4.2.36h0c-2.22,0-3.33,0-4.2-.36-1.17-.48-2.09-1.41-2.58-2.58-.36-.88-.36-1.98-.36-4.2h0Z"/>
      <g>
        <path class="cls-8" d="m101.23,9.7c-2.47,0-4.47,2-4.47,4.47s2,4.47,4.47,4.47,4.47-2,4.47-4.47-2-4.47-4.47-4.47Zm0,6.38c-1.06,0-1.91-.85-1.91-1.91,0-.72.4-1.34.98-1.67l.93.51.93-.51c.58.33.98.95.98,1.67,0,1.06-.85,1.91-1.91,1.91Z"/>
        <path class="cls-2" d="m104.54,11.18l-2.37,1.31c.58.33.98.95.98,1.67,0,1.06-.85,1.91-1.91,1.91v2.54c2.46,0,4.45-1.99,4.45-4.45,0-1.15-.43-2.19-1.15-2.98Z"/>
        <path class="cls-3" d="m99.32,14.16c0-.72.4-1.34.98-1.67l-2.37-1.31c-.71.79-1.15,1.83-1.15,2.98,0,2.46,1.99,4.45,4.45,4.45v-2.54c-1.06,0-1.91-.85-1.91-1.91Z"/>
      </g>
      <g>
        <path class="cls-8" d="m113.35,11.47c1.59,0,2.67,1.07,2.67,2.64s-1.08,2.64-2.67,2.64-2.67-1.07-2.67-2.64,1.09-2.64,2.67-2.64Zm0,4.25c.9,0,1.52-.65,1.52-1.61s-.62-1.61-1.52-1.61-1.52.65-1.52,1.61.62,1.61,1.52,1.61Z"/>
        <path class="cls-8" d="m118.88,13.56c1.56,0,2.16.49,2.16,1.51,0,1.09-.81,1.69-2.26,1.69-.96,0-1.68-.24-2.13-.72-.1-.1-.15-.24-.15-.41,0-.3.2-.53.53-.53.12,0,.24.04.36.14.37.32.88.5,1.47.5.65,0,1.02-.23,1.02-.62,0-.33-.27-.47-1.18-.48-1.54-.01-2.13-.48-2.13-1.47s.86-1.69,2.23-1.69c.76,0,1.37.19,1.81.56.12.1.2.25.2.45,0,.3-.2.53-.53.53-.12,0-.23-.04-.34-.12-.35-.26-.75-.39-1.21-.39-.6,0-1,.24-1,.62,0,.3.27.44,1.14.44Z"/>
        <path class="cls-8" d="m126.35,15.79c-.43.58-1.19.97-2.15.97-1.58,0-2.67-1.07-2.67-2.64s1.09-2.64,2.67-2.64c.87,0,1.58.3,2.06.86.08.1.15.24.15.4,0,.32-.23.55-.55.55-.2,0-.36-.08-.46-.21-.27-.35-.67-.56-1.19-.56-.9,0-1.52.65-1.52,1.61s.62,1.61,1.52,1.61c.56,0,.96-.23,1.24-.62.1-.14.27-.23.46-.23.34,0,.55.23.55.55,0,.15-.05.27-.11.37h0Z"/>
        <path class="cls-8" d="m131.84,12.12v3.98c0,.38-.21.61-.57.61s-.56-.23-.56-.61v-1.49h-2.51v1.49c0,.38-.21.61-.56.61s-.57-.23-.57-.61v-3.98c0-.38.21-.61.57-.61s.56.23.56.61v1.45h2.51v-1.45c0-.38.21-.61.56-.61s.57.23.57.61Z"/>
        <path class="cls-8" d="m135.21,11.47c1.59,0,2.67,1.07,2.67,2.64s-1.08,2.64-2.67,2.64-2.67-1.07-2.67-2.64,1.09-2.64,2.67-2.64Zm0,4.25c.9,0,1.52-.65,1.52-1.61s-.62-1.61-1.52-1.61-1.52.65-1.52,1.61.62,1.61,1.52,1.61Z"/>
        <path class="cls-8" d="m141.1,11.47c1.59,0,2.67,1.07,2.67,2.64s-1.08,2.64-2.67,2.64-2.67-1.07-2.67-2.64,1.09-2.64,2.67-2.64Zm0,4.25c.9,0,1.52-.65,1.52-1.61s-.62-1.61-1.52-1.61-1.52.65-1.52,1.61.62,1.61,1.52,1.61Z"/>
        <path class="cls-8" d="m148.18,15.63c.34,0,.55.2.55.52s-.2.52-.55.52h-3.1c-.38,0-.61-.23-.61-.61v-3.94c0-.37.21-.6.57-.6s.56.23.56.6v3.51h2.58,0Z"/>
      </g>
    </g>
  </g>
</svg>