<?xml version="1.0" encoding="UTF-8"?>
<svg xmlns="http://www.w3.org/2000/svg" viewBox="0 0 500 500">
  <defs>
    <style>
      .cls-1, .cls-2 {
        opacity: .1;
      }

      .cls-2, .cls-3, .cls-4, .cls-5, .cls-6, .cls-7, .cls-8, .cls-9, .cls-10, .cls-11, .cls-12, .cls-13 {
        stroke-width: 0px;
      }

      .cls-2, .cls-5, .cls-8 {
        fill: #fff;
      }

      .cls-3, .cls-14 {
        opacity: .4;
      }

      .cls-15, .cls-5 {
        opacity: .3;
      }

      .cls-6 {
        fill: #263238;
      }

      .cls-7 {
        fill: #455a64;
      }

      .cls-9 {
        fill: #fafafa;
      }

      .cls-10 {
        fill: #ebebeb;
      }

      .cls-11 {
        fill: #f5f5f5;
      }

      .cls-12 {
        fill: #00bcd4;
      }

      .cls-13 {
        opacity: .2;
      }
    </style>
  </defs>
  <g id="Background_Complete" data-name="Background Complete">
    <g>
      <path class="cls-10" d="m319.32,250.71c-48.04-.45-91.52-.86-123.03-1.15-15.72-.07-28.45-.13-37.28-.18-4.38.01-7.79.02-10.14.02-1.14.02-2.01.03-2.64.03-.59.01-.9.03-.9.05s.3.04.9.06c.63.01,1.5.03,2.64.06,2.35.03,5.76.07,10.14.12,8.84.05,21.56.11,37.28.2,31.51.02,74.99.05,123.04.08,48.02,0,91.51.06,122.99.28,15.74.11,28.48.26,37.28.42,4.4.08,7.82.17,10.14.26,2.32.09,3.53.18,3.53.26,0,.08-1.22.16-3.54.22s-5.74.12-10.14.16c-8.81.08-21.54.1-37.28.05-31.48-.09-74.96-.46-122.98-.94Z"/>
      <path class="cls-10" d="m318.36,261.24c-47.39-7.7-90.27-14.67-121.35-19.73-15.52-2.45-28.08-4.43-36.8-5.8-4.33-.65-7.69-1.16-10.02-1.51-1.12-.16-1.99-.28-2.61-.36-.59-.08-.89-.1-.9-.09,0,.02.29.08.88.19.62.11,1.48.26,2.59.46,2.32.38,5.68.94,9.99,1.66,8.72,1.38,21.28,3.37,36.8,5.83,31.13,4.78,74.07,11.37,121.53,18.65,47.44,7.24,90.39,13.87,121.45,18.84,15.53,2.49,28.09,4.55,36.76,6.05,4.34.75,7.7,1.35,9.97,1.79,2.27.44,3.46.71,3.45.79-.01.08-1.23-.02-3.53-.31-2.3-.29-5.69-.75-10.04-1.37-8.71-1.25-21.3-3.16-36.84-5.58-31.08-4.84-73.98-11.78-121.34-19.52Z"/>
      <path class="cls-10" d="m315.72,271.5c-45.55-14.86-86.76-28.31-116.64-38.06-14.93-4.79-27.01-8.67-35.4-11.36-4.17-1.3-7.41-2.32-9.65-3.02-1.08-.33-1.92-.58-2.52-.76-.57-.16-.86-.24-.87-.22,0,.02.28.13.83.33.59.2,1.42.49,2.49.85,2.23.73,5.45,1.8,9.6,3.17,8.39,2.7,20.47,6.59,35.4,11.39,29.97,9.48,71.31,22.56,117,37.01,45.67,14.41,87.01,27.52,116.88,37.19,14.93,4.83,27,8.8,35.32,11.6,4.16,1.4,7.38,2.51,9.56,3.29,2.18.78,3.3,1.23,3.28,1.31-.03.08-1.21-.21-3.44-.84-2.23-.63-5.49-1.61-9.69-2.89-8.4-2.57-20.52-6.38-35.48-11.15-29.91-9.54-71.15-22.96-116.66-37.85Z"/>
      <path class="cls-10" d="m311.45,281.22c-42.57-21.64-81.1-41.22-109.03-55.41-13.97-7.01-25.27-12.69-33.12-16.64-3.9-1.93-6.94-3.42-9.04-4.46-1.02-.49-1.8-.86-2.37-1.13-.54-.25-.81-.37-.82-.35,0,.02.25.17.77.45.55.29,1.32.69,2.32,1.22,2.08,1.07,5.09,2.61,8.97,4.59,7.85,3.95,19.15,9.63,33.11,16.66,28.06,13.95,66.77,33.19,109.54,54.45,42.77,21.22,81.47,40.49,109.4,54.61,13.97,7.06,25.24,12.82,33,16.86,3.88,2.02,6.88,3.61,8.91,4.71,2.02,1.1,3.06,1.72,3.02,1.8-.04.08-1.16-.39-3.26-1.36-2.09-.97-5.16-2.43-9.1-4.34-7.88-3.82-19.23-9.44-33.23-16.44-27.99-13.99-66.54-33.55-109.08-55.21Z"/>
      <path class="cls-10" d="m305.66,290.17c-38.57-27.84-73.47-53.04-98.77-71.3-12.67-9.05-22.92-16.38-30.04-21.46-3.55-2.5-6.31-4.44-8.21-5.78-.93-.64-1.64-1.13-2.15-1.48-.49-.33-.74-.49-.76-.47-.01.01.22.2.69.56.5.37,1.19.89,2.09,1.56,1.88,1.37,4.61,3.35,8.12,5.9,7.12,5.09,17.37,12.43,30.03,21.48,25.47,18.04,60.61,42.92,99.44,70.42,38.83,27.46,73.96,52.37,99.27,70.56,12.66,9.09,22.87,16.49,29.89,21.66,3.51,2.58,6.22,4.61,8.04,6.01,1.82,1.4,2.75,2.16,2.7,2.23-.05.07-1.08-.57-3-1.84-1.91-1.27-4.71-3.18-8.29-5.67-7.17-4.97-17.48-12.24-30.18-21.28-25.4-18.07-60.33-43.25-98.86-71.1Z"/>
      <path class="cls-10" d="m298.51,298.13c-33.65-33.33-64.09-63.5-86.16-85.36-11.06-10.85-20.02-19.64-26.24-25.74-3.1-3-5.52-5.34-7.19-6.95-.81-.77-1.44-1.36-1.89-1.79-.43-.4-.66-.6-.67-.58-.01.01.19.24.59.66.43.44,1.04,1.06,1.82,1.86,1.64,1.64,4.02,4.01,7.08,7.06,6.22,6.11,15.17,14.9,26.22,25.76,22.27,21.67,53,51.56,86.96,84.6,33.96,32.99,64.67,62.92,86.77,84.71,11.05,10.89,19.95,19.75,26.06,25.92,3.05,3.08,5.41,5.49,6.98,7.15,1.57,1.65,2.37,2.55,2.31,2.61-.06.06-.98-.72-2.67-2.27-1.69-1.55-4.14-3.86-7.28-6.86-6.28-5.99-15.31-14.74-26.4-25.58-22.2-21.69-52.68-51.84-86.28-85.18Z"/>
      <path class="cls-10" d="m290.18,304.91c-27.9-38.01-53.15-72.41-71.45-97.35-9.19-12.39-16.63-22.43-21.8-29.4-2.59-3.43-4.6-6.11-5.99-7.95-.68-.88-1.21-1.56-1.58-2.05-.36-.46-.55-.69-.57-.68-.02.01.15.26.48.74.36.5.85,1.2,1.5,2.11,1.36,1.87,3.33,4.57,5.86,8.04,5.16,6.97,12.6,17.01,21.78,29.41,18.53,24.77,44.1,58.95,72.36,96.71,28.27,37.72,53.82,71.93,72.16,96.79,9.17,12.43,16.55,22.53,21.59,29.54,2.52,3.51,4.46,6.24,5.75,8.12,1.29,1.87,1.93,2.88,1.86,2.93-.07.05-.85-.86-2.27-2.64-1.42-1.78-3.48-4.44-6.1-7.87-5.25-6.87-12.76-16.87-21.99-29.26-18.46-24.79-43.74-59.17-71.6-97.19Z"/>
      <path class="cls-10" d="m280.86,310.35c-21.44-41.79-40.85-79.6-54.91-107.01-7.09-13.64-12.82-24.68-16.81-32.35-2-3.78-3.56-6.73-4.64-8.76-.53-.98-.94-1.73-1.23-2.27-.28-.51-.44-.76-.45-.76-.02,0,.1.28.35.8.27.55.65,1.32,1.14,2.31,1.04,2.05,2.55,5.02,4.49,8.83,3.98,7.67,9.71,18.72,16.78,32.36,14.32,27.28,34.08,64.92,55.92,106.52,21.86,41.56,41.59,79.22,55.7,106.57,7.06,13.67,12.72,24.76,16.57,32.46,1.93,3.85,3.4,6.85,4.37,8.89.97,2.05,1.44,3.14,1.37,3.18-.08.04-.7-.98-1.82-2.96-1.11-1.98-2.72-4.91-4.76-8.7-4.08-7.58-9.89-18.6-17.01-32.25-14.24-27.29-33.68-65.09-55.08-106.87Z"/>
      <path class="cls-10" d="m270.77,314.3c-14.41-44.54-27.45-84.85-36.9-114.07-4.79-14.55-8.67-26.33-11.36-34.51-1.37-4.04-2.43-7.19-3.16-9.36-.37-1.04-.65-1.85-.85-2.43-.2-.54-.31-.82-.33-.81-.02,0,.06.29.22.85.18.58.43,1.4.75,2.46.7,2.18,1.71,5.35,3.01,9.41,2.69,8.18,6.55,19.97,11.33,34.52,9.73,29.13,23.15,69.33,37.98,113.74,14.86,44.38,28.25,84.59,37.76,113.76,4.76,14.58,8.55,26.4,11.11,34.59,1.28,4.09,2.25,7.28,2.88,9.45.63,2.17.92,3.32.83,3.35-.08.03-.54-1.08-1.32-3.2-.78-2.12-1.89-5.27-3.29-9.32-2.8-8.11-6.76-19.88-11.58-34.44-9.65-29.12-22.72-69.43-37.09-113.96Z"/>
      <path class="cls-10" d="m260.17,316.66c-7.02-46.19-13.37-88-17.98-118.3-2.37-15.1-4.3-27.33-5.63-35.82-.69-4.2-1.23-7.47-1.61-9.73-.19-1.09-.34-1.93-.45-2.53-.11-.57-.17-.86-.19-.85-.02,0,0,.3.08.87.08.6.2,1.45.35,2.54.34,2.26.82,5.54,1.45,9.75,1.33,8.49,3.24,20.72,5.6,35.83,4.89,30.26,11.64,72,19.09,118.13,7.49,46.1,14.2,87.86,18.87,118.11,2.34,15.13,4.17,27.38,5.37,35.86.6,4.24,1.04,7.53,1.31,9.77.27,2.24.37,3.42.28,3.43-.09.01-.35-1.14-.78-3.36-.43-2.22-1.01-5.49-1.74-9.71-1.45-8.44-3.45-20.67-5.86-35.79-4.81-30.24-11.2-72.04-18.18-118.22Z"/>
      <path class="cls-10" d="m249.32,317.37c.43-46.69.82-88.95,1.11-119.57.07-15.28.12-27.65.16-36.24-.01-4.26-.02-7.57-.03-9.85-.02-1.1-.03-1.95-.04-2.56-.01-.58-.03-.87-.05-.87-.02,0-.04.3-.06.87-.01.61-.03,1.46-.06,2.56-.03,2.29-.07,5.6-.12,9.85-.04,8.59-.1,20.96-.18,36.24,0,30.63,0,72.88,0,119.58.03,46.67,0,88.93-.22,119.53-.1,15.3-.25,27.68-.41,36.23-.08,4.28-.17,7.6-.26,9.85-.09,2.25-.18,3.43-.27,3.43-.09,0-.17-1.18-.23-3.44-.07-2.25-.12-5.58-.17-9.85-.08-8.56-.11-20.94-.07-36.24.07-30.6.43-72.86.89-119.53Z"/>
      <path class="cls-10" d="m238.48,316.45c7.9-46.06,15.04-87.74,20.22-117.95,2.51-15.08,4.54-27.29,5.95-35.77.67-4.21,1.18-7.48,1.54-9.74.16-1.09.28-1.93.37-2.54.08-.57.11-.87.09-.87-.02,0-.09.29-.2.85-.11.6-.27,1.44-.47,2.52-.39,2.25-.96,5.52-1.7,9.71-1.42,8.48-3.45,20.69-5.97,35.77-4.89,30.26-11.65,72-19.11,118.13-7.42,46.11-14.21,87.85-19.31,118.05-2.55,15.1-4.67,27.3-6.2,35.73-.77,4.21-1.38,7.48-1.83,9.69-.45,2.21-.73,3.37-.82,3.35-.09-.01.02-1.19.31-3.43.29-2.24.77-5.53,1.41-9.76,1.28-8.47,3.23-20.7,5.72-35.81,4.96-30.21,12.07-71.91,20-117.94Z"/>
      <path class="cls-10" d="m227.92,313.89c15.26-44.27,29.08-84.34,39.09-113.38,4.92-14.51,8.9-26.26,11.67-34.42,1.34-4.05,2.38-7.2,3.1-9.38.33-1.05.59-1.87.78-2.45.17-.55.25-.84.23-.85-.02,0-.13.27-.33.81-.21.57-.5,1.38-.88,2.42-.75,2.17-1.85,5.3-3.25,9.33-2.77,8.16-6.76,19.9-11.7,34.41-9.74,29.13-23.17,69.32-38.01,113.73-14.8,44.4-28.26,84.59-38.19,113.62-4.96,14.52-9.04,26.25-11.92,34.34-1.44,4.04-2.58,7.18-3.38,9.29-.8,2.11-1.27,3.21-1.35,3.18-.08-.03.21-1.18.86-3.34.65-2.16,1.65-5.34,2.97-9.42,2.64-8.16,6.55-19.95,11.45-34.49,9.79-29.08,23.58-69.16,38.87-113.4Z"/>
      <path class="cls-10" d="m217.92,309.74c22.24-41.39,42.36-78.85,56.95-106,7.21-13.58,13.04-24.57,17.1-32.2,1.98-3.8,3.52-6.75,4.58-8.79.5-.99.89-1.75,1.16-2.3.26-.52.38-.79.36-.8-.02,0-.17.25-.46.75-.3.54-.71,1.28-1.25,2.25-1.1,2.02-2.68,4.95-4.72,8.72-4.06,7.63-9.9,18.62-17.12,32.19-14.33,27.28-34.11,64.91-55.96,106.5-21.81,41.58-41.61,79.21-56.12,106.36-7.25,13.58-13.17,24.54-17.32,32.09-2.08,3.77-3.71,6.69-4.84,8.66-1.13,1.97-1.77,2.98-1.85,2.94-.08-.04.4-1.13,1.4-3.16.99-2.04,2.5-5.02,4.46-8.85,3.93-7.66,9.7-18.7,16.89-32.3,14.38-27.22,34.48-64.7,56.74-106.05Z"/>
      <path class="cls-10" d="m208.71,304.12c28.62-37.5,54.52-71.44,73.3-96.04,9.3-12.32,16.83-22.29,22.07-29.21,2.57-3.45,4.56-6.13,5.94-7.98.65-.9,1.16-1.6,1.52-2.09.34-.48.5-.72.49-.74-.01-.01-.21.22-.58.67-.38.48-.91,1.16-1.6,2.04-1.41,1.83-3.45,4.49-6.06,7.89-5.23,6.92-12.77,16.89-22.09,29.2-18.54,24.77-44.13,58.93-72.4,96.69-28.23,37.76-53.84,71.91-72.54,96.53-9.35,12.31-16.96,22.24-22.27,29.06-2.66,3.41-4.74,6.05-6.18,7.82-1.44,1.77-2.23,2.67-2.3,2.62-.07-.05.58-1.05,1.89-2.91,1.31-1.86,3.27-4.58,5.83-8.06,5.11-6.97,12.59-16.99,21.88-29.34,18.58-24.7,44.46-58.66,73.1-96.13Z"/>
      <path class="cls-10" d="m200.51,297.18c34.28-32.72,65.29-62.33,87.78-83.79,11.16-10.76,20.2-19.47,26.47-25.52,3.09-3.02,5.49-5.37,7.14-6.99.79-.79,1.4-1.4,1.84-1.84.41-.42.61-.64.6-.65-.01-.01-.24.18-.68.58-.45.42-1.09,1.01-1.91,1.77-1.68,1.6-4.12,3.91-7.25,6.88-6.28,6.04-15.32,14.75-26.49,25.5-22.28,21.66-53.02,51.54-86.99,84.57-33.92,33.03-64.69,62.9-87.1,84.38-11.2,10.75-20.31,19.4-26.65,25.34-3.17,2.97-5.65,5.26-7.35,6.79-1.7,1.53-2.63,2.31-2.69,2.24-.06-.06.74-.95,2.33-2.59,1.59-1.64,3.97-4.03,7.05-7.08,6.16-6.11,15.15-14.89,26.31-25.68,22.31-21.59,53.31-51.23,87.59-83.91Z"/>
      <path class="cls-10" d="m193.52,289.08c39.09-27.14,74.47-51.7,100.12-69.51,12.75-8.94,23.07-16.18,30.23-21.21,3.53-2.52,6.28-4.47,8.18-5.82.91-.66,1.61-1.17,2.11-1.54.47-.35.71-.54.7-.55-.01-.01-.27.14-.76.47-.52.35-1.23.83-2.17,1.46-1.92,1.32-4.7,3.24-8.27,5.7-7.17,5.02-17.49,12.25-30.25,21.19-25.48,18.03-60.62,42.9-99.46,70.39-38.8,27.5-73.97,52.35-99.55,70.19-12.79,8.92-23.17,16.1-30.38,21-3.61,2.45-6.42,4.34-8.35,5.59-1.93,1.26-2.96,1.88-3.01,1.81-.05-.07.89-.83,2.72-2.21,1.83-1.38,4.56-3.38,8.1-5.93,7.07-5.1,17.35-12.41,30.1-21.39,25.49-17.95,60.86-42.55,99.95-69.64Z"/>
      <path class="cls-10" d="m187.92,280.03c42.98-20.87,81.88-39.75,110.07-53.43,14.03-6.9,25.39-12.48,33.27-16.35,3.89-1.95,6.92-3.46,9.01-4.51,1-.52,1.78-.91,2.33-1.2.52-.28.78-.43.78-.44,0-.02-.29.1-.83.35-.56.26-1.35.63-2.38,1.11-2.11,1.02-5.16,2.48-9.08,4.37-7.89,3.87-19.25,9.44-33.28,16.33-28.06,13.94-66.78,33.16-109.56,54.41-42.74,21.27-81.48,40.47-109.61,54.2-14.06,6.87-25.47,12.38-33.39,16.13-3.96,1.87-7.04,3.31-9.15,4.26-2.1.95-3.23,1.41-3.27,1.33-.04-.08,1.01-.68,3.04-1.77,2.03-1.08,5.05-2.65,8.95-4.63,7.8-3.97,19.13-9.63,33.17-16.55,28.07-13.86,66.95-32.77,109.93-53.6Z"/>
      <path class="cls-10" d="m183.85,270.23c45.82-14.03,87.29-26.73,117.35-35.94,14.97-4.66,27.09-8.44,35.51-11.06,4.16-1.33,7.4-2.36,9.63-3.08,1.07-.36,1.9-.63,2.49-.83.56-.19.84-.3.84-.32,0-.02-.3.05-.87.21-.6.17-1.44.42-2.53.73-2.25.68-5.5,1.66-9.68,2.93-8.42,2.62-20.54,6.38-35.51,11.04-29.97,9.47-71.32,22.54-117,36.98-45.65,14.47-87.02,27.51-117.02,36.77-15,4.63-27.16,8.33-35.58,10.82-4.21,1.25-7.49,2.19-9.72,2.8-2.23.61-3.42.89-3.44.81-.03-.08,1.11-.52,3.29-1.28,2.18-.76,5.42-1.84,9.59-3.2,8.35-2.73,20.45-6.58,35.43-11.28,29.96-9.39,71.42-22.13,117.24-36.12Z"/>
      <path class="cls-10" d="m181.42,259.93c47.52-6.85,90.53-13.05,121.71-17.55,15.54-2.32,28.12-4.19,36.85-5.49,4.32-.68,7.69-1.2,10.01-1.57,1.12-.19,1.98-.33,2.6-.44.58-.1.88-.17.88-.19,0-.02-.31,0-.9.08-.62.08-1.49.19-2.61.34-2.33.33-5.7.8-10.03,1.41-8.74,1.3-21.32,3.16-36.86,5.47-31.13,4.77-74.08,11.35-121.53,18.63-47.43,7.31-90.39,13.86-121.52,18.41-15.56,2.28-28.17,4.07-36.89,5.25-4.36.59-7.75,1.02-10.05,1.28-2.3.26-3.52.36-3.53.28-.01-.08,1.18-.35,3.46-.76,2.28-.42,5.65-.99,9.99-1.7,8.68-1.42,21.26-3.37,36.82-5.72,31.11-4.7,74.12-10.93,121.62-17.74Z"/>
      <path class="cls-10" d="m180.68,249.38c48.04.39,91.52.75,123.03,1,15.72.05,28.45.1,37.28.13,4.38-.02,7.78-.03,10.14-.04,1.14-.02,2.01-.03,2.64-.04.59-.01.9-.03.9-.05,0-.02-.3-.04-.9-.06-.63-.01-1.5-.03-2.64-.06-2.35-.03-5.76-.06-10.14-.11-8.84-.04-21.56-.09-37.29-.15-31.51.02-74.99.04-123.04.07-48.02.06-91.51.05-122.99-.13-15.74-.09-28.48-.22-37.28-.38-4.4-.08-7.82-.16-10.14-.24-2.32-.08-3.53-.17-3.53-.26,0-.08,1.22-.16,3.54-.23,2.32-.07,5.74-.12,10.14-.17,8.8-.09,21.54-.12,37.28-.09,31.48.05,74.96.37,122.98.79Z"/>
      <path class="cls-10" d="m181.62,238.84c47.4,7.64,90.29,14.56,121.38,19.58,15.52,2.43,28.09,4.39,36.81,5.76,4.33.64,7.7,1.15,10.02,1.49,1.12.15,1.99.27,2.61.36.59.07.89.1.9.09,0-.02-.29-.08-.88-.19-.62-.11-1.48-.26-2.59-.46-2.32-.38-5.68-.93-10-1.64-8.72-1.37-21.29-3.34-36.81-5.78-31.14-4.74-74.09-11.27-121.56-18.5-47.45-7.18-90.4-13.75-121.47-18.69-15.53-2.47-28.1-4.52-36.77-6-4.34-.74-7.7-1.34-9.97-1.78-2.28-.43-3.46-.71-3.45-.79.01-.08,1.23.02,3.53.3,2.3.28,5.69.74,10.04,1.36,8.71,1.24,21.3,3.13,36.85,5.53,31.09,4.8,73.99,11.69,121.36,19.37Z"/>
      <path class="cls-10" d="m184.25,228.58c45.56,14.81,86.8,28.2,116.69,37.92,14.93,4.77,27.02,8.63,35.42,11.32,4.17,1.3,7.41,2.31,9.65,3.01,1.09.32,1.92.57,2.52.75.57.16.86.24.87.22,0-.02-.28-.13-.84-.33-.59-.2-1.42-.48-2.49-.85-2.23-.73-5.46-1.79-9.6-3.16-8.39-2.69-20.48-6.56-35.41-11.34-29.98-9.44-71.34-22.47-117.04-36.87-45.69-14.35-87.05-27.41-116.93-37.05-14.94-4.81-27.01-8.76-35.34-11.56-4.16-1.4-7.39-2.5-9.56-3.28-2.18-.78-3.31-1.23-3.28-1.31.03-.08,1.21.21,3.44.84,2.23.63,5.5,1.6,9.7,2.88,8.4,2.56,20.53,6.35,35.49,11.1,29.92,9.5,71.18,22.87,116.71,37.7Z"/>
      <path class="cls-10" d="m188.51,218.86c42.6,21.59,81.16,41.12,109.1,55.28,13.98,7,25.29,12.66,33.15,16.59,3.91,1.92,6.95,3.42,9.05,4.45,1.02.49,1.8.86,2.37,1.13.54.25.81.37.82.35,0-.02-.25-.17-.77-.45-.55-.29-1.32-.69-2.32-1.22-2.08-1.06-5.1-2.6-8.97-4.58-7.85-3.94-19.16-9.61-33.13-16.62-28.08-13.91-66.81-33.11-109.61-54.32-42.8-21.17-81.52-40.39-109.47-54.48-13.98-7.04-25.26-12.79-33.03-16.81-3.88-2.01-6.89-3.6-8.91-4.7-2.02-1.1-3.07-1.72-3.03-1.79.04-.08,1.16.39,3.26,1.36,2.1.96,5.17,2.42,9.11,4.33,7.88,3.81,19.24,9.41,33.25,16.4,28.01,13.96,66.59,33.47,109.15,55.08Z"/>
      <path class="cls-10" d="m194.29,209.9c38.61,27.79,73.54,52.95,98.87,71.18,12.68,9.03,22.94,16.35,30.07,21.43,3.55,2.49,6.31,4.43,8.22,5.77.93.64,1.64,1.13,2.16,1.48.49.33.75.49.76.47.01-.01-.22-.2-.69-.56-.5-.37-1.19-.89-2.1-1.56-1.89-1.37-4.62-3.35-8.13-5.89-7.12-5.08-17.38-12.4-30.05-21.45-25.49-18.01-60.66-42.85-99.53-70.3-38.87-27.41-74.02-52.28-99.36-70.44-12.67-9.08-22.89-16.47-29.92-21.63-3.51-2.58-6.23-4.6-8.05-6-1.82-1.39-2.75-2.16-2.7-2.23.05-.07,1.08.56,3,1.83,1.92,1.27,4.71,3.18,8.3,5.66,7.17,4.96,17.49,12.22,30.2,21.25,25.42,18.04,60.39,43.17,98.95,70.98Z"/>
      <path class="cls-10" d="m201.43,201.93c33.69,33.29,64.18,63.42,86.27,85.26,11.08,10.84,20.05,19.62,26.27,25.71,3.11,3,5.53,5.33,7.2,6.94.82.77,1.44,1.36,1.89,1.78.43.4.66.59.67.58.01-.01-.19-.24-.59-.66-.43-.44-1.04-1.06-1.82-1.85-1.64-1.63-4.03-4-7.09-7.05-6.22-6.1-15.19-14.88-26.26-25.73-22.3-21.64-53.07-51.5-87.07-84.49-34.01-32.95-64.75-62.84-86.88-84.6-11.06-10.88-19.98-19.73-26.09-25.89-3.06-3.08-5.41-5.49-6.99-7.14-1.58-1.65-2.37-2.55-2.31-2.61.06-.06.98.72,2.67,2.27,1.69,1.54,4.15,3.85,7.29,6.85,6.29,5.99,15.33,14.72,26.44,25.55,22.23,21.67,52.74,51.78,86.39,85.07Z"/>
      <path class="cls-10" d="m209.75,195.14c27.95,37.98,53.24,72.35,71.58,97.26,9.21,12.38,16.66,22.41,21.84,29.37,2.59,3.43,4.61,6.1,6,7.94.68.88,1.21,1.56,1.58,2.05.36.46.56.69.57.68.02-.01-.15-.26-.48-.74-.36-.5-.86-1.2-1.5-2.11-1.36-1.86-3.34-4.56-5.87-8.03-5.17-6.96-12.62-16.99-21.82-29.38-18.57-24.75-44.18-58.89-72.49-96.62-28.32-37.69-53.91-71.86-72.28-96.7-9.19-12.42-16.58-22.51-21.63-29.51-2.53-3.5-4.47-6.24-5.76-8.11-1.29-1.87-1.94-2.88-1.86-2.93.07-.05.85.86,2.27,2.64,1.42,1.78,3.48,4.43,6.11,7.87,5.26,6.86,12.78,16.85,22.03,29.24,18.49,24.76,43.81,59.12,71.72,97.1Z"/>
      <path class="cls-10" d="m219.07,189.69c21.5,41.76,40.95,79.55,55.05,106.94,7.1,13.63,12.85,24.66,16.85,32.33,2.01,3.78,3.57,6.72,4.65,8.76.53.98.94,1.73,1.24,2.26.28.51.44.76.46.75.02,0-.1-.28-.36-.8-.27-.55-.65-1.31-1.14-2.31-1.05-2.05-2.56-5.01-4.51-8.83-3.99-7.67-9.73-18.7-16.82-32.34-14.36-27.27-34.17-64.88-56.05-106.45-21.91-41.53-41.69-79.17-55.84-106.5-7.08-13.66-12.75-24.75-16.62-32.44-1.93-3.85-3.41-6.84-4.39-8.89-.98-2.04-1.45-3.14-1.37-3.18.08-.04.7.98,1.82,2.95,1.12,1.98,2.73,4.91,4.77,8.7,4.09,7.58,9.92,18.59,17.05,32.22,14.28,27.27,33.76,65.05,55.22,106.8Z"/>
      <path class="cls-10" d="m229.15,185.73c14.47,44.53,27.56,84.82,37.05,114.03,4.81,14.55,8.7,26.32,11.4,34.5,1.37,4.04,2.44,7.19,3.17,9.36.37,1.04.65,1.85.85,2.42.2.54.31.82.33.81.02,0-.06-.29-.22-.85-.18-.58-.43-1.4-.76-2.46-.7-2.18-1.72-5.34-3.02-9.4-2.7-8.18-6.58-19.96-11.38-34.51-9.77-29.12-23.24-69.3-38.13-113.69-14.92-44.36-28.36-84.55-37.91-113.71-4.78-14.58-8.59-26.39-11.16-34.58-1.28-4.09-2.26-7.28-2.89-9.45-.63-2.17-.92-3.32-.84-3.35.08-.03.54,1.07,1.32,3.2.78,2.12,1.9,5.26,3.3,9.32,2.81,8.11,6.78,19.87,11.62,34.43,9.69,29.11,22.81,69.4,37.24,113.92Z"/>
      <path class="cls-10" d="m239.74,183.36c7.08,46.18,13.49,87.98,18.13,118.27,2.39,15.1,4.33,27.33,5.68,35.81.7,4.2,1.24,7.47,1.62,9.73.19,1.09.34,1.92.45,2.52.11.57.17.86.19.85.02,0,0-.3-.08-.87-.08-.6-.2-1.45-.35-2.54-.34-2.26-.83-5.54-1.46-9.75-1.34-8.49-3.27-20.72-5.65-35.82-4.93-30.25-11.73-71.99-19.24-118.11-7.55-46.09-14.31-87.84-19.02-118.09-2.36-15.12-4.21-27.38-5.42-35.85-.61-4.24-1.05-7.53-1.33-9.77-.27-2.24-.37-3.42-.29-3.43.09-.01.36,1.14.79,3.36.43,2.21,1.02,5.49,1.75,9.71,1.46,8.44,3.48,20.66,5.9,35.78,4.85,30.23,11.29,72.03,18.33,118.19Z"/>
      <path class="cls-10" d="m250.59,182.63c-.37,46.69-.71,88.95-.95,119.57-.05,15.28-.08,27.65-.11,36.24.02,4.26.03,7.57.04,9.85.02,1.1.03,1.95.04,2.56.02.58.03.87.05.87.02,0,.04-.3.06-.87.01-.61.03-1.46.06-2.56.03-2.29.06-5.6.11-9.85.03-8.59.08-20.96.13-36.24-.04-30.63-.09-72.88-.15-119.58-.09-46.67-.11-88.93.06-119.53.08-15.3.21-27.68.36-36.23.08-4.28.16-7.6.24-9.85.09-2.25.17-3.44.26-3.43.09,0,.17,1.18.24,3.44.07,2.25.13,5.58.18,9.85.1,8.56.14,20.94.12,36.24-.03,30.6-.33,72.86-.74,119.53Z"/>
      <path class="cls-10" d="m261.44,183.54c-7.84,46.07-14.93,87.76-20.07,117.98-2.49,15.09-4.5,27.3-5.9,35.78-.66,4.21-1.17,7.48-1.53,9.74-.16,1.09-.28,1.93-.37,2.54-.08.57-.11.87-.09.87.02,0,.09-.29.2-.85.11-.6.27-1.44.47-2.52.39-2.25.96-5.52,1.69-9.72,1.4-8.48,3.43-20.69,5.93-35.78,4.85-30.26,11.55-72.01,18.95-118.15,7.36-46.12,14.09-87.87,19.16-118.07,2.53-15.1,4.63-27.31,6.15-35.74.76-4.21,1.37-7.48,1.82-9.7.45-2.21.72-3.37.81-3.35.09.01-.02,1.19-.31,3.43-.29,2.24-.76,5.53-1.39,9.76-1.27,8.47-3.21,20.71-5.67,35.81-4.92,30.22-11.98,71.92-19.85,117.96Z"/>
      <path class="cls-10" d="m272,186.09c-15.2,44.29-28.96,84.38-38.94,113.43-4.9,14.52-8.87,26.27-11.62,34.43-1.33,4.05-2.37,7.21-3.09,9.38-.33,1.05-.59,1.87-.77,2.45-.17.55-.24.84-.23.85.02,0,.13-.27.33-.81.21-.58.5-1.38.87-2.42.75-2.17,1.84-5.3,3.24-9.34,2.76-8.16,6.74-19.91,11.65-34.42,9.7-29.14,23.07-69.35,37.86-113.78,14.74-44.42,28.15-84.62,38.04-113.67,4.94-14.52,9-26.26,11.87-34.35,1.43-4.05,2.57-7.18,3.37-9.3.8-2.12,1.26-3.21,1.35-3.19.08.03-.21,1.18-.86,3.34-.65,2.16-1.64,5.34-2.96,9.43-2.63,8.17-6.52,19.96-11.4,34.5-9.76,29.09-23.48,69.19-38.72,113.45Z"/>
      <path class="cls-10" d="m282.01,190.22c-22.18,41.42-42.26,78.9-56.81,106.07-7.19,13.59-13.01,24.59-17.05,32.22-1.97,3.8-3.51,6.75-4.57,8.79-.5.99-.89,1.75-1.16,2.3-.26.52-.38.79-.36.8.02,0,.17-.25.46-.75.3-.54.71-1.28,1.25-2.26,1.09-2.02,2.68-4.96,4.71-8.72,4.05-7.63,9.88-18.63,17.08-32.21,14.3-27.3,34.02-64.95,55.81-106.57,21.75-41.61,41.51-79.26,55.98-106.43,7.23-13.59,13.14-24.56,17.28-32.11,2.07-3.78,3.7-6.7,4.83-8.67,1.13-1.97,1.76-2.98,1.84-2.94.08.04-.4,1.13-1.39,3.17-.99,2.04-2.49,5.02-4.45,8.86-3.92,7.66-9.67,18.71-16.85,32.33-14.35,27.23-34.39,64.74-56.6,106.12Z"/>
      <path class="cls-10" d="m291.22,195.83c-28.57,37.54-54.43,71.51-73.17,96.13-9.29,12.33-16.81,22.31-22.03,29.24-2.56,3.45-4.55,6.14-5.93,7.99-.65.9-1.16,1.6-1.52,2.1-.34.48-.5.73-.49.74.01.01.21-.22.58-.67.38-.48.91-1.16,1.6-2.04,1.41-1.83,3.44-4.49,6.05-7.9,5.23-6.93,12.75-16.9,22.05-29.22,18.51-24.79,44.05-58.99,72.27-96.78,28.18-37.79,53.75-71.98,72.41-96.62,9.33-12.32,16.93-22.26,22.23-29.09,2.65-3.42,4.73-6.05,6.17-7.82,1.43-1.77,2.22-2.68,2.29-2.63.07.05-.58,1.05-1.89,2.92-1.31,1.86-3.27,4.58-5.82,8.07-5.1,6.97-12.56,17.01-21.84,29.37-18.55,24.72-44.38,58.72-72.97,96.22Z"/>
      <path class="cls-10" d="m299.43,202.76c-34.23,32.76-65.21,62.41-87.67,83.9-11.15,10.77-20.17,19.5-26.44,25.55-3.08,3.02-5.48,5.37-7.14,7-.79.79-1.4,1.4-1.83,1.84-.41.42-.61.64-.6.65.01.01.24-.18.68-.58.45-.42,1.09-1.01,1.91-1.77,1.68-1.6,4.12-3.91,7.25-6.89,6.27-6.05,15.3-14.77,26.46-25.53,22.25-21.69,52.95-51.61,86.88-84.67,33.88-33.07,64.61-62.97,86.99-84.49,11.19-10.76,20.28-19.43,26.62-25.37,3.17-2.97,5.64-5.26,7.34-6.8,1.7-1.53,2.62-2.31,2.68-2.25.06.06-.74.95-2.33,2.6-1.59,1.64-3.96,4.03-7.04,7.09-6.16,6.12-15.13,14.9-26.27,25.71-22.28,21.62-53.24,51.29-87.48,84.02Z"/>
      <path class="cls-10" d="m306.43,210.85c-39.06,27.19-74.41,51.79-100.03,69.63-12.74,8.96-23.05,16.21-30.21,21.24-3.53,2.52-6.27,4.48-8.17,5.83-.91.66-1.61,1.18-2.11,1.54-.47.35-.71.54-.7.56.01.01.27-.14.76-.47.51-.35,1.23-.83,2.17-1.46,1.92-1.33,4.69-3.24,8.26-5.71,7.16-5.03,17.48-12.28,30.22-21.22,25.45-18.06,60.57-42.98,99.37-70.51,38.76-27.55,73.9-52.44,99.45-70.31,12.77-8.94,23.15-16.13,30.35-21.04,3.6-2.46,6.42-4.35,8.34-5.6,1.92-1.26,2.96-1.88,3.01-1.81.05.07-.88.83-2.72,2.21-1.83,1.38-4.56,3.39-8.09,5.94-7.06,5.11-17.33,12.44-30.07,21.43-25.47,17.98-60.8,42.62-99.86,69.77Z"/>
      <path class="cls-10" d="m312.04,219.9c-42.95,20.92-81.82,39.85-110,53.57-14.02,6.91-25.37,12.51-33.25,16.39-3.89,1.95-6.92,3.47-9.01,4.52-1,.52-1.78.92-2.33,1.2-.52.28-.78.43-.78.44,0,.02.29-.1.83-.35.56-.26,1.35-.63,2.37-1.11,2.11-1.02,5.16-2.49,9.08-4.39,7.88-3.88,19.24-9.47,33.26-16.37,28.04-13.97,66.74-33.25,109.49-54.55,42.72-21.32,81.43-40.57,109.54-54.34,14.05-6.89,25.46-12.41,33.37-16.17,3.96-1.88,7.04-3.32,9.14-4.27,2.1-.95,3.23-1.41,3.27-1.33.04.08-1.01.69-3.04,1.77-2.03,1.09-5.05,2.65-8.95,4.64-7.8,3.98-19.12,9.65-33.15,16.59-28.05,13.89-66.91,32.86-109.86,53.73Z"/>
      <path class="cls-10" d="m316.12,229.69c-45.8,14.09-87.26,26.84-117.3,36.08-14.96,4.68-27.08,8.47-35.49,11.11-4.16,1.33-7.39,2.37-9.63,3.09-1.07.36-1.9.63-2.49.83-.56.19-.84.3-.84.32,0,.02.3-.06.87-.22.6-.18,1.44-.42,2.53-.74,2.24-.68,5.5-1.67,9.67-2.94,8.41-2.63,20.53-6.41,35.5-11.08,29.96-9.51,71.29-22.63,116.96-37.13,45.63-14.53,86.98-27.62,116.97-36.92,14.99-4.65,27.15-8.36,35.57-10.87,4.21-1.25,7.49-2.2,9.72-2.82,2.23-.62,3.42-.9,3.44-.82.03.08-1.11.52-3.29,1.29-2.18.76-5.41,1.85-9.59,3.22-8.34,2.74-20.44,6.61-35.42,11.32-29.95,9.43-71.4,22.22-117.19,36.27Z"/>
      <path class="cls-10" d="m318.56,239.99c-47.52,6.91-90.51,13.16-121.68,17.7-15.54,2.34-28.11,4.23-36.85,5.54-4.32.68-7.68,1.21-10.01,1.58-1.12.19-1.98.34-2.6.44-.58.11-.88.17-.88.19,0,.02.31,0,.9-.08.62-.08,1.49-.19,2.61-.34,2.33-.33,5.7-.81,10.03-1.43,8.73-1.31,21.31-3.19,36.85-5.51,31.12-4.81,74.06-11.45,121.51-18.78,47.42-7.36,90.37-13.97,121.49-18.57,15.56-2.3,28.16-4.11,36.88-5.29,4.36-.59,7.75-1.03,10.05-1.3,2.3-.27,3.52-.37,3.53-.28.01.08-1.18.35-3.45.77-2.28.42-5.65,1-9.99,1.71-8.68,1.43-21.26,3.4-36.81,5.76-31.1,4.73-74.1,11.02-121.6,17.89Z"/>
    </g>
    <path class="cls-9" d="m68.34,406.93c-.81-2.16-1.64-4.36-3-6.23-1.36-1.87-3.36-3.4-5.65-3.68-2.29-.28-4.84.96-5.58,3.14-.33-4.93-1.03-9.99-3.49-14.27-2.47-4.28-7.07-7.64-12-7.34-4.65.28-8.63,3.74-10.84,7.84-2.21,4.1-2.97,8.8-3.7,13.4-1.76-2.16-5.48-1.48-7.32.61-1.84,2.1-2.31,5.03-2.7,7.79h55.45l-1.16-1.28Z"/>
    <path class="cls-10" d="m453.54,190.74c-1.29-3.44-2.6-6.92-4.77-9.89-2.17-2.96-5.33-5.39-8.97-5.84s-7.68,1.52-8.87,4.99c-.52-7.83-1.63-15.86-5.55-22.65-3.92-6.8-11.23-12.13-19.06-11.66-7.38.45-13.7,5.94-17.21,12.44-3.51,6.51-4.72,13.98-5.87,21.28-2.8-3.43-8.71-2.35-11.63.98-2.92,3.33-3.66,7.99-4.28,12.37h88.04l-1.84-2.04Z"/>
    <path class="cls-10" d="m125.14,374.55c-1.14-3.05-2.31-6.15-4.24-8.79-1.92-2.63-4.74-4.79-7.97-5.19-3.24-.4-6.83,1.35-7.88,4.44-.46-6.96-1.45-14.09-4.93-20.13-3.48-6.04-9.98-10.78-16.94-10.36-6.56.4-12.18,5.27-15.3,11.06-3.12,5.79-4.19,12.42-5.22,18.91-2.49-3.05-7.74-2.09-10.33.87-2.6,2.96-3.25,7.1-3.81,11h78.25l-1.63-1.81Z"/>
    <path class="cls-10" d="m384.07,98.05c-1.14-3.05-2.31-6.15-4.24-8.79-1.92-2.63-4.74-4.79-7.98-5.19-3.24-.4-6.83,1.35-7.88,4.44-.46-6.96-1.45-14.09-4.93-20.13-3.48-6.04-9.98-10.78-16.94-10.36-6.56.4-12.18,5.27-15.3,11.06-3.12,5.79-4.19,12.42-5.22,18.91-2.49-3.05-7.74-2.09-10.33.87-2.6,2.96-3.25,7.1-3.81,11h78.25l-1.63-1.81Z"/>
    <path class="cls-10" d="m424.6,446.99c-1.14-3.05-2.31-6.15-4.24-8.79-1.92-2.63-4.74-4.79-7.97-5.19-3.24-.4-6.83,1.35-7.88,4.44-.46-6.96-1.45-14.09-4.93-20.13-3.48-6.04-9.98-10.78-16.94-10.36-6.56.4-12.18,5.27-15.3,11.06-3.12,5.78-4.19,12.42-5.22,18.91-2.49-3.05-7.74-2.09-10.33.87-2.6,2.96-3.25,7.1-3.81,11h78.25l-1.63-1.81Z"/>
    <path class="cls-11" d="m121.03,267.31c-.73-1.95-1.48-3.93-2.7-5.61-1.23-1.68-3.02-3.06-5.09-3.31-2.07-.25-4.36.86-5.03,2.83-.3-4.44-.93-9-3.15-12.85-2.22-3.86-6.37-6.88-10.81-6.61-4.19.26-7.77,3.37-9.77,7.06-1.99,3.69-2.68,7.93-3.33,12.07-1.59-1.95-4.94-1.34-6.6.55-1.66,1.89-2.08,4.53-2.43,7.02h49.95l-1.04-1.16Z"/>
    <path class="cls-11" d="m484.08,250.36c-.73-1.95-1.48-3.93-2.7-5.61-1.23-1.68-3.02-3.06-5.09-3.31-2.07-.25-4.36.86-5.03,2.83-.3-4.44-.93-9-3.15-12.85-2.22-3.86-6.37-6.88-10.81-6.61-4.19.26-7.77,3.37-9.77,7.06-1.99,3.69-2.68,7.93-3.33,12.07-1.59-1.95-4.94-1.34-6.6.55-1.66,1.89-2.08,4.53-2.43,7.02h49.95l-1.04-1.16Z"/>
    <path class="cls-11" d="m266.15,241.9c-.73-1.95-1.48-3.93-2.7-5.61-1.23-1.68-3.02-3.06-5.09-3.31-2.07-.25-4.36.86-5.03,2.83-.3-4.44-.93-9-3.15-12.85-2.22-3.86-6.37-6.88-10.81-6.61-4.19.26-7.77,3.37-9.77,7.06-1.99,3.69-2.68,7.93-3.33,12.07-1.59-1.95-4.94-1.34-6.6.55-1.66,1.89-2.08,4.53-2.43,7.02h49.95l-1.04-1.16Z"/>
    <path class="cls-11" d="m124.21,91.06c-.73-1.95-1.48-3.93-2.7-5.61-1.23-1.68-3.02-3.06-5.09-3.31s-4.36.86-5.03,2.83c-.3-4.44-.93-9-3.15-12.85-2.22-3.86-6.37-6.88-10.81-6.61-4.19.26-7.77,3.37-9.77,7.06-1.99,3.69-2.68,7.93-3.33,12.07-1.59-1.95-4.94-1.34-6.6.55-1.66,1.89-2.08,4.53-2.43,7.02h49.95l-1.04-1.16Z"/>
    <g>
      <path class="cls-10" d="m189.59,221.99l4.62,1.74-4.01,1.14c-1.34.38-2.4,1.4-2.83,2.72l-1.45,4.44-1.79-4.45c-.44-1.1-1.34-1.97-2.45-2.37l-4.06-1.47,4.4-1.81c1.06-.44,1.9-1.29,2.31-2.37l1.59-4.13,1.14,3.84c.37,1.26,1.31,2.26,2.54,2.73Z"/>
      <path class="cls-10" d="m84.39,266.73l4.62,1.74-4.01,1.14c-1.34.38-2.4,1.4-2.83,2.72l-1.45,4.44-1.79-4.45c-.44-1.1-1.34-1.97-2.45-2.37l-4.06-1.47,4.4-1.81c1.06-.44,1.9-1.29,2.31-2.37l1.59-4.13,1.14,3.84c.37,1.26,1.31,2.26,2.54,2.73Z"/>
      <path class="cls-10" d="m112.82,438.83l4.62,1.74-4.01,1.14c-1.34.38-2.4,1.4-2.83,2.72l-1.45,4.44-1.79-4.45c-.44-1.1-1.34-1.97-2.45-2.37l-4.06-1.47,4.4-1.81c1.06-.44,1.9-1.29,2.31-2.37l1.59-4.13,1.14,3.84c.37,1.26,1.31,2.26,2.54,2.73Z"/>
      <path class="cls-10" d="m377.03,369.98l4.27,1.6-3.7,1.05c-1.24.35-2.22,1.29-2.62,2.51l-1.34,4.1-1.65-4.11c-.41-1.02-1.23-1.82-2.27-2.19l-3.75-1.36,4.06-1.67c.98-.4,1.75-1.19,2.14-2.18l1.47-3.81,1.05,3.54c.34,1.16,1.21,2.09,2.34,2.51Z"/>
      <path class="cls-10" d="m263.67,45.81l4.27,1.6-3.7,1.05c-1.24.35-2.22,1.29-2.62,2.51l-1.34,4.1-1.65-4.11c-.41-1.02-1.23-1.82-2.27-2.19l-3.75-1.36,4.06-1.67c.98-.4,1.75-1.19,2.14-2.18l1.47-3.81,1.05,3.54c.34,1.16,1.21,2.09,2.34,2.51Z"/>
      <path class="cls-10" d="m459.66,235.5l7.05,2.65-6.12,1.74c-2.04.58-3.66,2.14-4.32,4.15l-2.21,6.77-2.72-6.79c-.68-1.69-2.04-3-3.74-3.62l-6.19-2.25,6.71-2.75c1.62-.67,2.9-1.97,3.53-3.61l2.42-6.29,1.74,5.85c.57,1.91,2,3.45,3.87,4.16Z"/>
      <path class="cls-10" d="m422.37,368.94l7.05,2.65-6.12,1.74c-2.04.58-3.66,2.14-4.32,4.15l-2.21,6.77-2.72-6.79c-.68-1.68-2.04-3-3.74-3.62l-6.19-2.25,6.71-2.75c1.62-.67,2.9-1.97,3.53-3.61l2.42-6.29,1.74,5.85c.57,1.91,2,3.45,3.87,4.16Z"/>
      <path class="cls-10" d="m285.82,76.2l7.05,2.65-6.12,1.74c-2.04.58-3.66,2.14-4.32,4.15l-2.21,6.77-2.72-6.79c-.68-1.68-2.04-3-3.74-3.62l-6.19-2.25,6.71-2.76c1.62-.67,2.9-1.97,3.53-3.61l2.42-6.29,1.74,5.85c.57,1.91,2,3.45,3.87,4.16Z"/>
      <path class="cls-10" d="m260.63,238.12l9.61,3.61-8.34,2.37c-2.78.79-4.99,2.91-5.89,5.66l-3.02,9.22-3.71-9.25c-.92-2.3-2.78-4.09-5.1-4.94l-8.44-3.06,9.14-3.75c2.21-.91,3.95-2.69,4.81-4.92l3.3-8.58,2.37,7.98c.77,2.61,2.73,4.71,5.28,5.66Z"/>
      <path class="cls-10" d="m101.72,71.71l9.61,3.61-8.34,2.37c-2.78.79-4.99,2.91-5.89,5.66l-3.02,9.22-3.71-9.25c-.92-2.3-2.78-4.09-5.1-4.94l-8.44-3.06,9.14-3.75c2.21-.91,3.95-2.69,4.81-4.92l3.3-8.58,2.37,7.98c.77,2.61,2.73,4.71,5.28,5.66Z"/>
      <path class="cls-10" d="m82.56,407.93l9.61,3.61-8.34,2.37c-2.78.79-4.99,2.91-5.89,5.66l-3.02,9.22-3.71-9.25c-.92-2.3-2.78-4.09-5.1-4.94l-8.44-3.06,9.14-3.75c2.21-.91,3.95-2.69,4.81-4.92l3.3-8.58,2.37,7.98c.77,2.61,2.73,4.71,5.28,5.66Z"/>
    </g>
  </g>
  <g id="Graduation_Hats" data-name="Graduation Hats">
    <g>
      <g>
        <path class="cls-12" d="m425.33,296.22c-2.08-3.27-5.35-5.76-9.05-6.89.44,4.62-1.52,9.4-5.07,12.39.53-3.37.51-6.82-.06-10.18-.15-.86-.37-1.78-1.04-2.35-.72-.6-1.74-.63-2.68-.6-3.85.13-7.68.66-11.42,1.6,2.02,5.42,1.14,11.83-2.27,16.51-2.44,3.35-5.97,5.72-8.95,8.59s-5.58,6.68-5.25,10.82l1.36,4.18c9.3.58,18.52-3.08,25.95-8.7,7.44-5.61,13.27-13.08,18.4-20.86.41-.62.83-1.28.9-2.03.08-.89-.35-1.74-.82-2.49Z"/>
        <g>
          <path class="cls-12" d="m377.75,327.56c.21.27-.54,1.29-2.11,2.53-1.56,1.24-3.97,2.65-6.87,3.64-2.9.98-5.67,1.34-7.66,1.31-2-.02-3.21-.37-3.21-.71,0-.75,4.68-1.2,10.04-3.06,5.37-1.8,9.36-4.3,9.82-3.7Z"/>
          <g>
            <path class="cls-12" d="m381.03,329.64c-.43,2.92-3.15,4.93-6.07,4.49-2.91-.43-4.93-3.15-4.49-6.07.43-2.92,3.15-4.93,6.07-4.49,2.92.43,4.93,3.15,4.49,6.07Z"/>
            <path class="cls-6" d="m381.03,329.64c-.05,0,.03-.48-.07-1.3-.1-.81-.47-2.03-1.52-3.07-1.01-1.04-2.8-1.81-4.7-1.4-1.88.35-3.7,2.02-4.01,4.24-.35,2.21.9,4.34,2.6,5.23,1.7.94,3.64.74,4.9.03,1.31-.69,2.01-1.75,2.35-2.5.34-.76.4-1.24.45-1.23.02,0,.01.12-.02.34-.02.22-.1.55-.25.96-.29.8-.98,1.95-2.36,2.74-1.33.8-3.43,1.07-5.31.07-.92-.49-1.76-1.28-2.29-2.3-.55-1-.76-2.23-.59-3.43.19-1.2.75-2.31,1.57-3.11.8-.82,1.83-1.33,2.86-1.53,2.09-.42,4.02.46,5.06,1.61,1.08,1.16,1.41,2.46,1.45,3.31.03.43,0,.77-.04.99-.04.22-.07.34-.09.33Z"/>
          </g>
        </g>
        <path class="cls-6" d="m391.73,320.96c.07.12-2.28,1.68-5.35,3.31-3.07,1.64-5.68,2.71-5.74,2.58-.06-.13,2.44-1.42,5.49-3.04,3.06-1.62,5.52-2.98,5.59-2.85Z"/>
        <path class="cls-6" d="m404.87,314.29s-.2.36-.63.94c-.42.59-1.1,1.41-1.98,2.36-1.77,1.92-4.5,4.32-7.94,6.35-3.45,2.02-6.88,3.25-9.41,3.86-1.27.31-2.3.51-3.03.59-.72.09-1.12.13-1.13.09-.01-.09,1.58-.33,4.06-1.04,2.48-.7,5.84-1.96,9.24-3.95,3.39-2,6.12-4.33,7.94-6.16,1.82-1.83,2.8-3.11,2.88-3.05Z"/>
        <path class="cls-6" d="m386.6,317.95c.11.1-1.45,1.87-3.27,4.12-1.83,2.24-3.25,4.12-3.37,4.04-.12-.08,1.12-2.1,2.97-4.37,1.84-2.27,3.58-3.89,3.68-3.79Z"/>
        <path class="cls-12" d="m399.08,300.2c-.82-2.47-2.51-4.58-4.49-6.27-.9-.77-1.91-1.48-3.07-1.73-2-.44-4.01.53-5.83,1.47,3.09,1.11,5.53,3.87,6.26,7.08s-.3,6.75-2.61,9.08c-1.87,1.88-4.42,2.94-6.37,4.74-2.82,2.61-4.11,6.79-3.23,10.53l18.62-17.39c1.4-2.19,1.54-5.05.72-7.52Z"/>
      </g>
      <g>
        <polygon class="cls-6" points="97.21 326.6 219.52 274.7 385.8 354.04 304.89 378.74 175.33 359.98 97.21 326.6"/>
        <g>
          <polygon class="cls-6" points="97.55 319.89 97.21 326.6 219.52 274.7 221.24 266.22 97.55 319.89"/>
          <polygon class="cls-6" points="385.8 354.04 387.29 346.71 221.24 266.22 219.52 274.7 385.8 354.04"/>
          <polygon class="cls-5" points="385.8 354.04 387.29 346.71 221.24 266.22 219.52 274.7 385.8 354.04"/>
        </g>
        <polygon class="cls-3" points="97.21 326.6 219.52 274.7 385.8 354.04 304.89 378.74 175.33 359.98 97.21 326.6"/>
        <g>
          <polygon class="cls-6" points="150.5 390.32 163.02 328.73 316.78 360 305.88 421.25 150.5 390.32"/>
          <ellipse class="cls-6" cx="240.04" cy="343.31" rx="26.48" ry="78.45" transform="translate(-141.76 515.67) rotate(-79.33)"/>
        </g>
        <path class="cls-5" d="m299.71,336.15l-14.79,65.44,20.79,20.29,10.97-59.5c1.15-5.67-.42-11.57-4.32-15.84-3.25-3.56-7.63-7.62-12.66-10.4Z"/>
        <path class="cls-13" d="m150.53,390.33l12.33-60.62c.03-.3.06-.61.12-.91,2.71-14.37,39.42-19.52,82-11.5l-8.59,42.27c-2.34,11.5-13.08,19.29-24.74,17.97-10.48-1.19-22.95-2.1-32.2-1.22-26.58,2.53-28.91,14.02-28.91,14.02"/>
        <path class="cls-12" d="m308.4,407.29c-.39,2.09-2.26,12.5-2.42,12.96-4.51,13.08-43.12,4.37-79.34-2.45-36.44-6.86-69.94-14.46-76.35-26.6,0,0,2.56-10.79,2.94-12.81,2.52-13.4,39.63-17.19,82.55-9.11,42.92,8.08,75.14,24.62,72.62,38.02Z"/>
        <g>
          <path class="cls-6" d="m305.92,421.05c-2.52,13.4-39.63,17.39-82.55,9.31-42.92-8.08-75.67-25.5-73.15-38.89,2.52-13.4,39.36-17.71,82.28-9.62,42.92,8.08,75.93,25.81,73.41,39.21Z"/>
          <path class="cls-7" d="m306.61,421.19c-.09,0,.34-1.24-.19-3.51-.5-2.27-2.33-5.3-5.52-8.34-6.41-6.09-17.81-12.38-32.64-17.73-7.42-2.69-15.73-5.14-24.78-7.24-9.04-2.1-18.83-3.83-29.21-4.97-10.37-1.12-21.36-1.67-32.69-.85-5.65.43-11.4,1.22-17.02,2.85-2.79.84-5.56,1.91-8.05,3.48-.64.37-1.2.84-1.79,1.28-.53.5-1.11.96-1.56,1.55-.94,1.11-1.7,2.41-1.97,3.85-.56,2.91.65,5.85,2.38,8.18,1.73,2.38,3.91,4.4,6.2,6.2,4.62,3.58,9.69,6.42,14.8,8.89,10.24,4.9,20.68,8.39,30.75,11.14,10.08,2.73,19.83,4.67,29.01,6.03,9.19,1.36,17.81,2.14,25.71,2.39,15.76.53,28.67-1.05,36.9-4.3,4.09-1.63,6.92-3.76,8.22-5.69,1.32-1.92,1.37-3.23,1.45-3.2,0,0-.06.3-.21.88-.05.3-.21.63-.39,1.04-.15.42-.44.85-.76,1.34-1.28,1.97-4.13,4.15-8.23,5.82-8.25,3.33-21.19,4.96-36.99,4.48-7.91-.22-16.55-.98-25.76-2.33-9.2-1.34-18.97-3.27-29.07-5.99-10.09-2.74-20.56-6.23-30.84-11.14-5.13-2.47-10.22-5.32-14.89-8.94-2.32-1.82-4.52-3.87-6.3-6.31-.87-1.22-1.66-2.55-2.12-4.02-.48-1.45-.65-3.04-.35-4.57.29-1.54,1.09-2.93,2.08-4.09.47-.61,1.07-1.09,1.62-1.61.61-.45,1.19-.94,1.85-1.31,2.55-1.61,5.36-2.69,8.18-3.54,5.67-1.65,11.45-2.43,17.13-2.86,11.37-.82,22.39-.25,32.78.88,10.4,1.15,20.2,2.91,29.25,5.03,9.06,2.12,17.38,4.6,24.8,7.32,14.85,5.4,26.25,11.75,32.66,17.93,3.19,3.08,5.01,6.16,5.48,8.46.12.57.23,1.08.22,1.52.02.44.05.82-.01,1.11-.07.59-.12.9-.12.9Z"/>
          <ellipse class="cls-3" cx="228.79" cy="406.26" rx="20.97" ry="74.64" transform="translate(-212.8 555.91) rotate(-79.33)"/>
          <path class="cls-13" d="m155.44,392.45s12.22,6.3,32.53,9.34c20.32,3.04,65.75-11.26,65.75-11.26,0,0-85.99-21.91-98.28,1.92Z"/>
        </g>
      </g>
    </g>
    <g>
      <g>
        <path class="cls-12" d="m243.5,170.55c1.71-2.82,4.45-5,7.59-6.03-.29,3.94,1.46,7.98,4.54,10.46-.51-2.86-.55-5.8-.12-8.67.11-.74.28-1.53.84-2.02.6-.53,1.47-.56,2.27-.56,3.28.04,6.55.43,9.75,1.16-1.63,4.65-.76,10.1,2.22,14.02,2.14,2.81,5.18,4.76,7.78,7.16s4.87,5.59,4.66,9.12l-1.09,3.58c-7.91.65-15.82-2.3-22.25-6.95-6.43-4.65-11.53-10.9-16.04-17.44-.36-.52-.73-1.08-.8-1.71-.09-.75.26-1.48.66-2.13Z"/>
        <g>
          <path class="cls-12" d="m284.56,196.4c.45-.6,3.91,1.37,8.48,2.79,4.55,1.48,8.52,1.87,8.54,2.62,0,.35-1.02.71-2.74.8-1.71.09-4.09-.14-6.59-.93-2.5-.8-4.58-1.98-5.92-3.04-1.35-1.06-1.98-1.95-1.77-2.23Z"/>
          <g>
            <path class="cls-12" d="m281.81,198.23c.42,2.47,2.77,4.14,5.24,3.72,2.47-.42,4.14-2.77,3.72-5.24-.42-2.47-2.77-4.14-5.24-3.72s-4.14,2.77-3.72,5.24Z"/>
            <path class="cls-6" d="m281.81,198.23s-.05-.09-.09-.28c-.04-.19-.07-.47-.06-.84.02-.73.27-1.85,1.18-2.86.87-1.01,2.51-1.8,4.3-1.48,1.77.27,3.55,1.8,3.89,3.9.38,2.09-.79,4.13-2.37,4.96-1.59.9-3.4.69-4.55.03-1.19-.65-1.8-1.63-2.06-2.31-.13-.34-.2-.62-.22-.82-.03-.19-.03-.29-.01-.3.05-.01.11.39.42,1.03.3.63.92,1.51,2.04,2.07,1.09.57,2.73.71,4.14-.12,1.41-.78,2.43-2.6,2.1-4.46-.3-1.87-1.87-3.24-3.46-3.51-1.61-.31-3.11.36-3.95,1.26-.87.9-1.16,1.94-1.24,2.63-.08.7,0,1.1-.05,1.11Z"/>
          </g>
        </g>
        <path class="cls-6" d="m272.54,191.03c.07-.13,2.2.97,4.83,2.29,2.63,1.33,4.77,2.4,4.71,2.53-.06.13-2.3-.73-4.95-2.07-2.64-1.33-4.67-2.64-4.6-2.76Z"/>
        <path class="cls-6" d="m261.23,185.58c.07-.06.94,1.01,2.52,2.53,1.58,1.52,3.95,3.45,6.87,5.09,2.93,1.64,5.8,2.65,7.93,3.21,2.12.56,3.48.75,3.47.84,0,.04-.35.02-.96-.04-.62-.05-1.51-.2-2.59-.44-2.17-.47-5.12-1.45-8.09-3.11-2.97-1.67-5.34-3.68-6.87-5.28-.77-.8-1.36-1.49-1.72-1.99-.37-.5-.57-.78-.54-.8Z"/>
        <path class="cls-6" d="m276.86,188.38c.1-.1,1.62,1.24,3.23,3.14,1.61,1.9,2.69,3.61,2.57,3.69-.12.09-1.37-1.48-2.97-3.35-1.59-1.88-2.93-3.37-2.83-3.47Z"/>
        <path class="cls-12" d="m265.92,173.48c.65-2.12,2.06-3.95,3.71-5.42.76-.67,1.6-1.29,2.58-1.53,1.69-.41,3.42.38,4.99,1.15-2.61,1-4.64,3.4-5.2,6.14-.56,2.74.37,5.74,2.38,7.69,1.62,1.57,3.82,2.43,5.51,3.92,2.45,2.18,3.62,5.71,2.94,8.91l-16.16-14.48c-1.23-1.84-1.4-4.27-.75-6.39Z"/>
      </g>
      <g>
        <polygon class="cls-6" points="366.79 221.01 273.51 223.87 397.11 118.21 482.96 124.37 366.79 221.01 366.79 221.01"/>
        <path class="cls-6" d="m394.16,112.04c-1.11.7-123.62,106.67-123.57,107.22.05.55,2.93,4.61,2.93,4.61l209.44-99.5-1.41-4.83-87.39-7.51Z"/>
        <polygon class="cls-3" points="366.79 221.01 273.51 223.87 397.11 118.21 482.96 124.37 366.79 221.01 366.79 221.01"/>
        <polygon class="cls-6" points="397.11 118.21 394.16 112.04 481.55 119.55 482.96 124.37 397.11 118.21"/>
        <polygon class="cls-5" points="397.11 118.21 394.16 112.04 481.55 119.55 482.96 124.37 397.11 118.21"/>
        <g>
          <polygon class="cls-6" points="355.02 253.62 328.66 209.85 437.93 144.04 465.08 186.72 355.02 253.62"/>
          <ellipse class="cls-6" cx="382.8" cy="176.23" rx="63.78" ry="21.52" transform="translate(-35.33 228.79) rotate(-31.88)"/>
          <path class="cls-5" d="m414.6,139.14l27.12,47.32,23.61.72-26.14-41.67c-2.43-4.03-6.61-6.7-11.29-7.11-3.9-.34-8.76-.37-13.3.73Z"/>
          <path class="cls-13" d="m355.04,253.6l-25.95-43.09c-.15-.2-.3-.4-.43-.61-6.28-10.09,12.88-33.36,42.79-51.97l18.09,30.04c4.92,8.17,2.77,18.74-4.94,24.36-6.93,5.05-14.9,11.36-19.96,16.97-14.53,16.13-9.61,24.29-9.61,24.29"/>
          <path class="cls-12" d="m460.46,179.43c.83,1.33,5,7.9,5.14,8.24,3.93,9.43-23.92,25.54-49.35,41.38-25.59,15.94-49.77,29.9-59.85,26.85,0,0-4.32-7.18-5.12-8.47-5.3-8.53,15.64-30.49,45.78-49.26,30.14-18.77,58.1-27.26,63.4-18.73Z"/>
          <path class="cls-6" d="m465.98,188.14c5.3,8.53-15.16,30.63-45.3,49.4-30.14,18.77-58.87,27.07-64.17,18.54-5.3-8.53,14.84-30.66,44.98-49.43,30.14-18.77,59.19-27.05,64.49-18.52Z"/>
          <path class="cls-7" d="m465.96,188.16c-.05.06-.47-.93-2.08-1.89-.82-.44-1.89-.86-3.23-1.1-1.34-.23-2.91-.32-4.67-.25-7.08.3-17.09,3.12-28.66,8.22-11.58,5.1-24.83,12.47-38.4,22.28-6.76,4.92-13.62,10.47-20.04,16.92-3.18,3.24-6.29,6.7-8.91,10.59-1.29,1.95-2.5,3.99-3.28,6.22-.42,1.1-.66,2.26-.73,3.42-.07,1.16.14,2.35.75,3.33.59.99,1.55,1.72,2.61,2.19,1.06.47,2.21.77,3.38.89,2.34.3,4.71.14,7.03-.16,4.65-.62,9.12-1.88,13.44-3.3,8.63-2.9,16.63-6.6,24.04-10.5,7.41-3.9,14.21-8.05,20.39-12.19,6.19-4.14,11.74-8.31,16.61-12.36,9.72-8.09,16.75-15.75,20.2-21.94.86-1.54,1.48-2.99,1.88-4.29.38-1.31.49-2.46.46-3.38-.15-1.87-.84-2.68-.77-2.7,0,0,.13.21.35.64.21.43.43,1.12.52,2.06.05.94-.05,2.11-.42,3.43-.39,1.32-1,2.78-1.85,4.34-3.42,6.26-10.43,13.98-20.14,22.12-4.86,4.07-10.41,8.27-16.6,12.43-6.19,4.17-12.99,8.34-20.41,12.26-7.42,3.91-15.43,7.63-24.1,10.56-4.34,1.43-8.84,2.7-13.53,3.33-2.35.3-4.75.47-7.16.16-1.2-.13-2.4-.43-3.53-.94-1.12-.5-2.18-1.3-2.83-2.4-.67-1.09-.89-2.39-.82-3.62.08-1.23.34-2.44.76-3.57.8-2.29,2.03-4.36,3.34-6.33,2.65-3.93,5.78-7.4,8.98-10.66,6.45-6.48,13.33-12.02,20.12-16.95,13.61-9.81,26.91-17.16,38.53-22.23,11.62-5.06,21.67-7.84,28.8-8.08,1.78-.05,3.36.05,4.71.3,1.35.27,2.44.71,3.26,1.16.8.5,1.32,1,1.61,1.38.28.39.41.59.41.59Z"/>
          <ellipse class="cls-3" cx="411.67" cy="221.73" rx="60.68" ry="15.44" transform="translate(-54.99 251.16) rotate(-31.92)"/>
          <path class="cls-13" d="m360.16,253.8s10.62-3.2,24.48-12.5c13.87-9.3,34.12-41.41,34.12-41.41,0,0-63.3,34.55-58.61,53.91Z"/>
        </g>
      </g>
    </g>
    <g>
      <path class="cls-12" d="m60.54,189.06c.05.33-2.01,1.01-5.47,1.44-1.73.22-3.8.33-6.11.3-2.3-.05-4.84-.24-7.47-.66-2.63-.43-5.1-1.04-7.3-1.72-2.2-.7-4.13-1.45-5.71-2.2-3.15-1.48-4.89-2.78-4.74-3.08.34-.7,8.02,2.85,18.17,4.42,10.12,1.68,18.53.71,18.64,1.49Z"/>
      <g>
        <path class="cls-12" d="m24.03,176.55c.61-2.7,2.21-5.16,4.43-6.82.82,3.21,3.28,5.96,6.39,7.12-1.17-2.14-1.98-4.47-2.41-6.87-.11-.62-.18-1.29.13-1.83.34-.58,1.02-.84,1.66-1.05,2.62-.84,5.33-1.4,8.07-1.67-.06,4.13,2.08,8.24,5.5,10.56,2.45,1.67,5.39,2.41,8.09,3.63,2.7,1.21,5.37,3.15,6.13,6.01l.09,3.14c-6.12,2.63-13.2,2.38-19.55.39-6.35-1.99-12.08-5.61-17.4-9.6-.43-.32-.87-.66-1.09-1.15-.27-.58-.18-1.25-.04-1.87Z"/>
        <path class="cls-6" d="m52.59,185.11c.03-.14,2.02.14,4.46.5,2.44.36,4.43.65,4.42.8-.01.14-2.03.08-4.49-.29-2.46-.36-4.41-.88-4.38-1.01Z"/>
        <path class="cls-6" d="m42.14,183.78c.05-.07,1.02.53,2.69,1.31,1.67.78,4.06,1.68,6.81,2.21,2.76.52,5.31.57,7.15.46,1.84-.11,2.97-.31,2.99-.23,0,.04-.27.12-.78.24-.51.13-1.25.25-2.18.36-1.85.21-4.47.22-7.28-.31-2.81-.54-5.23-1.51-6.88-2.39-.82-.44-1.47-.83-1.9-1.13-.43-.3-.65-.48-.63-.51Z"/>
        <path class="cls-6" d="m55.31,181.85c.06-.13,1.64.52,3.42,1.6,1.79,1.08,3.09,2.17,3.01,2.29-.09.12-1.51-.77-3.28-1.84-1.77-1.07-3.22-1.91-3.15-2.05Z"/>
      </g>
      <path class="cls-6" d="m221.21,175.74c-.16-.3-.34-.58-.54-.85-.27-3.28-18.11-30.8-18.11-30.8l-106.09,59.91,17.44,29.46s.03-.01.07-.04c6.22,8.24,33.53,2.99,62.34-12.2,29.76-15.69,49.86-36.06,44.89-45.49Z"/>
      <path class="cls-12" d="m221.22,175.78c-.16-.3-.96-2.45-1.3-3.21-1.1-1.95-.21-.99-5.05-8.77,4.97,9.43-15.67,30.31-45.43,46-28.77,15.17-56.04,20.42-62.31,12.23l6.79,11.47s.03-.01.07-.04c6.22,8.24,33.53,2.99,62.34-12.2,29.76-15.69,49.86-36.06,44.89-45.49Z"/>
      <g class="cls-14">
        <path class="cls-4" d="m113.48,232.77l-15.66-26.48,45.36-21.56c-.99,17.37-9.43,34.2-22.77,45.37-1.85,1.55-3.98,3.06-6.39,3.03"/>
      </g>
      <g class="cls-1">
        <path class="cls-8" d="m205.3,202.1c-6.94-14.76-15.74-28.58-24.52-42.34l-15.44,5.35-10.33,5.83c8.49,14.42,16.99,28.84,25.48,43.27.69,1.18,1.42,2.37,2.25,3.47,8.69-5.01,16.36-10.36,22.56-15.58Z"/>
      </g>
      <path class="cls-6" d="m66.11,154.14l-9.13,65.8,2.26,4.36,159.77-74.58-4.41-61.4-3.81-5.58-141.54,67.13c-1.7.8-2.87,2.41-3.13,4.27Z"/>
      <path class="cls-2" d="m56.98,219.93l9.13-65.8c.26-1.86,1.44-3.46,3.13-4.27l141.54-67.13,5.38,61.78L56.98,219.93Z"/>
      <path class="cls-12" d="m64.06,188.23c10.14,2.62,20.42.17,29.6-4.44,9.32-4.69,17.83-11.25,25.5-18.28,4.36-4,8.45-8.27,12.3-12.75,1.04-1.22-.72-2.99-1.77-1.77-6.57,7.66-13.89,14.72-21.93,20.82-7.89,5.98-16.61,11.58-26.33,13.97-5.51,1.35-11.2,1.47-16.71.05-1.56-.4-2.22,2.01-.66,2.41h0Z"/>
      <polygon class="cls-5" points="210.78 82.74 214.59 88.31 219 149.72 216.16 144.52 210.78 82.74"/>
      <g class="cls-15">
        <path class="cls-8" d="m219,149.72c.06.13-35.44,16.83-79.28,37.29-43.85,20.47-79.44,36.96-79.5,36.83-.06-.13,35.43-16.83,79.28-37.3,43.84-20.46,79.44-36.95,79.5-36.82Z"/>
      </g>
      <g class="cls-15">
        <path class="cls-4" d="m136.73,150.57c-2.76,2-4.39,5.16-6.03,8.15-9.6,17.46-19.9,30.99-35.66,43.18l19.57-9.23c5.97-8.19,19.06-28.54,22.12-42.1Z"/>
      </g>
      <path class="cls-12" d="m146.71,143.41c.32.09.29,1.52-.68,3.56-.95,2.02-3,4.59-6.13,6.22-3.13,1.63-6.42,1.83-8.62,1.44-2.23-.38-3.41-1.18-3.3-1.49.11-.37,1.42-.23,3.41-.35,1.98-.1,4.7-.56,7.31-1.91,2.61-1.36,4.54-3.32,5.77-4.88,1.24-1.56,1.88-2.71,2.24-2.59Z"/>
      <g>
        <path class="cls-6" d="m145.97,143.66c1.05,2.23-2.1,5.93-7.05,8.27-4.95,2.34-9.81,2.43-10.86.2s2.1-5.93,7.05-8.27c4.95-2.34,9.81-2.43,10.86-.2Z"/>
        <path class="cls-6" d="m140.14,139.18c-2.27-.48-4.52.08-6.7.89-2.19.82-4.04,2.51-5.04,4.63-1,2.11-1.13,4.62-.37,6.83l17.93-7.86c-1.26-2.11-3.55-4-5.83-4.48Z"/>
      </g>
      <g>
        <path class="cls-12" d="m68.96,188.04c-.44,2.63-2.93,4.4-5.56,3.96-2.63-.44-4.4-2.93-3.96-5.56s2.93-4.4,5.56-3.96c2.63.44,4.4,2.93,3.96,5.56Z"/>
        <path class="cls-6" d="m68.96,188.04c-.05,0,.03-.43-.06-1.18-.08-.73-.4-1.84-1.33-2.79-.89-.95-2.49-1.67-4.21-1.33-1.69.29-3.36,1.76-3.68,3.75-.35,1.99.74,3.92,2.25,4.75,1.51.88,3.26.73,4.41.11,1.19-.6,1.85-1.54,2.16-2.21.32-.68.39-1.11.44-1.1.02,0,.01.11-.02.31-.02.2-.09.5-.24.87-.27.72-.92,1.76-2.18,2.45-1.22.7-3.13.92-4.82-.02-1.68-.88-2.92-3.04-2.53-5.25.35-2.22,2.22-3.85,4.1-4.14,1.9-.34,3.64.49,4.56,1.55.96,1.07,1.23,2.26,1.26,3.03.02.39-.02.7-.06.9-.04.2-.07.3-.09.3Z"/>
      </g>
    </g>
  </g>
</svg>