<?xml version="1.0" encoding="UTF-8"?>
<svg id="Layer_4" data-name="Layer 4" xmlns="http://www.w3.org/2000/svg" viewBox="0 0 318.63 157.08">
  <defs>
    <style>
      .cls-1 {
        fill: #555;
        stroke-width: 0px;
      }
    </style>
  </defs>
  <path class="cls-1" d="m74.59,57.99c-.13-13.71,11.2-20.3,11.71-20.61-6.38-9.32-16.29-10.6-19.82-10.74-8.43-.86-16.46,4.97-20.74,4.97s-10.89-4.85-17.88-4.71c-9.2.13-17.69,5.35-22.43,13.58-9.54,16.55-2.43,41.12,6.89,54.57,4.56,6.57,9.97,13.99,17.11,13.71,6.88-.27,9.46-4.44,17.75-4.44s10.63,4.44,17.88,4.31c7.39-.14,12.06-6.72,16.59-13.32,5.2-7.65,7.36-15.03,7.49-15.42-.17-.07-14.39-5.52-14.55-21.89"/>
  <path class="cls-1" d="m60.96,17.71c3.79-4.59,6.34-10.95,5.65-17.31-5.45.22-12.05,3.63-15.96,8.22-3.5,4.05-6.57,10.54-5.74,16.76,6.05.47,12.27-3.1,16.05-7.67m61.44,53.75l-6.27,19.02h-8.07l20.54-60.44h9.41l20.61,60.44h-8.34l-6.46-19.02h-21.42Zm19.82-6.1l-5.91-17.4c-1.35-3.95-2.24-7.53-3.14-11.03h-.17c-.9,3.58-1.88,7.25-3.05,10.94l-5.91,17.48h18.17Zm22.52-4.12c0-5.56-.17-10.05-.37-14.17h7.08l.37,7.45h.17c3.23-5.29,8.34-8.43,15.42-8.43,10.5,0,18.38,8.88,18.38,22.06,0,15.61-9.5,23.31-19.72,23.31-5.74,0-10.76-2.51-13.36-6.81h-.17v23.58h-7.8v-46.99Zm7.79,11.57c0,1.18.17,2.24.37,3.23,1.44,5.46,6.18,9.24,11.84,9.24,8.34,0,13.19-6.81,13.19-16.77,0-8.71-4.57-16.13-12.91-16.13-5.37,0-10.39,3.86-11.93,9.78-.27.98-.54,2.16-.54,3.23v7.42h-.01Zm41.42-11.57c0-5.56-.17-10.05-.37-14.17h7.08l.37,7.45h.17c3.23-5.29,8.34-8.43,15.42-8.43,10.5,0,18.38,8.88,18.38,22.06,0,15.61-9.5,23.31-19.72,23.31-5.74,0-10.76-2.51-13.36-6.81h-.17v23.58h-7.8v-46.99Zm7.8,11.57c0,1.18.17,2.24.37,3.23,1.44,5.46,6.18,9.24,11.84,9.24,8.34,0,13.19-6.81,13.19-16.77,0-8.71-4.57-16.13-12.91-16.13-5.37,0-10.39,3.86-11.93,9.78-.27.98-.54,2.16-.54,3.23v7.42h-.01Zm41.42-46h7.9v63.66h-7.9V26.81Zm23.76,43.4c.17,10.67,6.99,15.07,14.88,15.07,5.65,0,9.06-.98,12.01-2.24l1.35,5.65c-2.77,1.25-7.53,2.69-14.43,2.69-13.36,0-21.35-8.78-21.35-21.88s7.71-23.41,20.35-23.41c14.17,0,17.93,12.46,17.93,20.44,0,1.62-.17,2.86-.27,3.67h-30.47Zm23.14-5.65c.09-5.02-2.07-12.82-10.94-12.82-7.99,0-11.48,7.36-12.1,12.82h23.04Z"/>
</svg>