<?xml version="1.0" encoding="utf-8"?>
<!-- Generator: Adobe Illustrator 27.9.0, SVG Export Plug-In . SVG Version: 6.00 Build 0)  -->
<svg version="1.1" id="Layer_1" xmlns="http://www.w3.org/2000/svg" xmlns:xlink="http://www.w3.org/1999/xlink" x="0px" y="0px"
	 viewBox="0 0 906.7 257.9" style="enable-background:new 0 0 906.7 257.9;" xml:space="preserve">
<style type="text/css">
	.st0{fill:#00BCD4;}
	.st1{fill:#FFFFFF;}
</style>
<g id="Ñëîé_1">
	<path class="st0" d="M27.6,0h851.5c15.2,0,27.6,12.4,27.6,27.6v202.7c0,15.2-12.4,27.6-27.6,27.6H27.6C12.4,257.9,0,245.5,0,230.3
		V27.6C0,12.4,12.4,0,27.6,0z"/>
	<path class="st1" d="M69.6,128.9c-0.1-7,0.8-13.9,2.7-20.6c2.2-8.4,6.3-16.3,12-22.9c7.2-8.3,16.9-13.9,27.6-16
		c7.3-1.5,14.9-0.9,21.9,1.8c4,1.5,7.9,3,11.9,4.6c2,0.8,4.2,1.4,6.4,1.7c1.3,0.2,2.6,0.1,3.9-0.2c3.1-0.7,6.2-1.7,9.1-3
		c5.2-2,10.3-4.1,15.8-5.2c4.4-0.9,9-1.1,13.5-0.6c4.8,0.4,9.5,1.5,14.1,3.1c8.5,3.1,15.9,8.8,21.1,16.3c0.4,0.6,0.4,0.6-0.2,1.1
		c-6.2,4.1-11.5,9.6-15.4,16c-2.7,4.5-4.6,9.4-5.4,14.6c-1.5,8.3-0.6,16.8,2.6,24.6c2.8,7.1,7.6,13.4,13.6,18.1c3,2.4,6.3,4.5,9.8,6
		c0.6,0.2,0.6,0.5,0.4,1c-1.5,4.7-3.4,9.3-5.5,13.7c-4.6,9.4-10.3,18.2-16.9,26.3c-2.7,3.4-5.8,6.4-9.3,8.9
		c-4.8,3.4-10.7,4.9-16.6,4.3c-4.5-0.4-8.6-2-12.6-3.7c-2.1-1-4.3-1.8-6.6-2.6c-4.5-1.3-9.1-1.9-13.8-1.6
		c-5.1,0.4-10.1,1.8-14.8,3.9c-1.7,0.7-3.5,1.5-5.2,2.2c-3.3,1.3-6.9,2.1-10.5,2.2c-3.5,0.1-6.9-0.7-10-2.4c-3.1-1.7-6-3.9-8.6-6.4
		c-3.4-3.4-6.5-7.1-9.2-11c-5.3-7.1-9.9-14.7-13.7-22.6c-4.8-10.2-8.2-21-10.3-32.1C70.1,141.9,69.6,135.4,69.6,128.9z"/>
	<path class="st1" d="M193,22.8c-0.1,6.1-1.4,12.1-4,17.6c-2.6,5.7-6.2,10.8-10.8,15.1c-2.6,2.3-5.3,4.3-8.3,6
		c-2.8,1.6-5.8,2.9-8.9,3.6c-2.6,0.7-5.2,0.9-7.9,0.8c-1.1,0-1.1,0-1.2-1.1c-0.5-4.4,0-8.9,1.4-13.2c4.2-13.7,12.9-23.5,26-29.4
		c3.6-1.6,7.3-2.7,11.2-3.2c0.5-0.1,1.1-0.1,1.6-0.1s0.6,0.2,0.6,0.6C192.9,20.7,192.9,22,193,22.8z"/>
	<path class="st1" d="M395.3,181l-3.6-12.8h-27.9l-3.6,12.8c-0.5,2.4-2.7,4.1-5.1,3.9h-5.1c-3.3,0-4.8-2.1-3.9-5.2l13.2-44.1
		c3.6-12.4,8.6-16.6,18.5-16.6s15,4.1,18.5,16.6l13.3,44.1c0.9,3.1-0.6,5.2-3.9,5.2h-5.2C398,185.1,395.8,183.4,395.3,181z
		 M382.9,136.7c-1.3-4.4-2.6-5.7-5.1-5.7s-3.9,1.3-5.1,5.7l-5.6,19.7h21.4L382.9,136.7z"/>
	<path class="st1" d="M466.6,160.3c0,19.1-10.4,25.4-27.9,25.4c-2.2,0-4.6-0.1-7-0.3v14.8c0,2.9-1.6,4.6-4.6,4.6h-4.7
		c-3,0-4.6-1.6-4.6-4.6v-49.8c0-11.2,6.2-15.7,20.9-15.7C456.2,134.8,466.6,141.3,466.6,160.3z M452.7,160.3
		c0-10.4-3.9-13.8-13.1-13.8c-7.1,0-7.9,2-7.9,6.7v20.3c2.6,0.3,5.2,0.5,7.8,0.6C448.8,174.1,452.7,170.7,452.7,160.3L452.7,160.3z"
		/>
	<path class="st1" d="M524.8,160.3c0,19.1-10.4,25.4-28,25.4c-2.2,0-4.6-0.1-6.9-0.3v14.8c0,2.9-1.6,4.6-4.6,4.6h-4.7
		c-2.9,0-4.6-1.6-4.6-4.6v-49.8c0-11.2,6.2-15.7,20.9-15.7C514.3,134.8,524.8,141.3,524.8,160.3z M510.9,160.3
		c0-10.4-3.9-13.8-13.1-13.8c-7.1,0-7.9,2-7.9,6.7v20.3c2.6,0.3,5.2,0.5,7.8,0.6C507,174.1,510.9,170.7,510.9,160.3z"/>
	<path class="st1" d="M556.1,178.5v-1.9c0-3.2,1.9-4.6,5.1-4.1c12.8,2.4,27.2,2.4,27.2-5.8c0-3-1.8-5.3-8.8-8.1l-6.2-2.7
		c-12.4-5.4-16.9-11-16.9-19.2c0-16.5,18-20.7,38.3-15.9c2.5,0.4,4.2,2.6,4,5.1v2.1c0,3.1-1.9,4.7-5.1,4.1c-12-2-23.1-2.1-23.1,4.4
		c0,2.9,1.9,5.2,8.2,7.8l5.8,2.4c12.6,5.3,17.9,10.7,17.9,20.1c0,18.5-21.8,21.9-42.4,16.9C557.6,183.2,555.9,181,556.1,178.5z"/>
	<path class="st1" d="M639.1,147.1h-13.6v19.6c0,5.1,2.2,7.2,7.8,7.2c2.6,0,4.4-0.6,6.1-0.6c3.1,0,4.3,1.2,4.3,3.6v2.5
		c0,2.6-1.2,4.4-3.7,4.9c-15.9,3.8-28.6-0.2-28.6-17.8v-37.8c0-3,1.6-4.6,4.6-4.6h5c2.9,0,4.6,1.6,4.6,4.6v6.8h13.6
		c2.9,0,4.6,1.6,4.6,4.6v2.2C643.7,145.5,642.1,147.1,639.1,147.1z"/>
	<path class="st1" d="M649.9,160.3c0-16.2,8.9-25.5,25.3-25.5s25.3,9.2,25.3,25.5s-9,25.4-25.3,25.4S649.9,176.5,649.9,160.3z
		 M686.4,160.3c0-9.7-3.7-13.8-11.2-13.8s-11.2,4.1-11.2,13.8s3.7,13.8,11.2,13.8S686.4,169.9,686.4,160.3z"/>
	<path class="st1" d="M740,139.8v2.9c0,3-1.8,4.6-5.1,4.6c-10.5,0.1-10.9,1.1-10.9,4.8v28.1c0,2.9-1.6,4.6-4.6,4.6h-5
		c-2.9,0-4.6-1.6-4.6-4.6v-30.1c0-11.4,4.1-14.6,25.2-14.9C738.3,135.2,740,136.8,740,139.8z"/>
	<path class="st1" d="M780.7,164.8l-21.1,2.2c1.8,5.6,6.4,7.6,13,7.6c3.9-0.1,7.7-0.6,11.4-1.6c3.2-0.8,5.2,0.6,5.2,3.9v1.5
		c0.2,2.5-1.5,4.7-3.9,5.1c-4.9,1.4-10.1,2.1-15.2,2.2c-15.1,0-25.3-8.2-25.3-25.4c0-16.2,8.6-25.5,25.4-25.5
		c14.1,0,22.4,6.6,22.4,19.1C792.7,160.9,789.7,163.8,780.7,164.8z M779.5,152.6c0-4.8-2.9-7.3-9.3-7.3c-6.9,0-10.6,3.1-11.4,11.6
		l17.2-1.8C779,154.8,779.5,154.3,779.5,152.6L779.5,152.6z"/>
</g>
<g id="Layer_2_00000126284652695882395730000001551723820535039659_">
	<path class="st1" d="M417.4,44.4h7.4c9.1,0,13.9,5.3,13.9,14.7s-4.9,14.9-13.8,14.9h-7.6L417.4,44.4z M424.6,70.8
		c6.9,0,10.4-4.3,10.4-11.8s-3.4-11.6-10.4-11.6h-3.4v23.4L424.6,70.8z"/>
	<path class="st1" d="M442.9,63c0-7.3,4.8-11.5,10.1-11.5s10.1,4.2,10.1,11.5s-4.8,11.4-10.1,11.4S442.9,70.2,442.9,63z M459.4,63
		c0-5-2.6-8.4-6.3-8.4s-6.3,3.4-6.3,8.4s2.6,8.4,6.3,8.4S459.4,68,459.4,63z"/>
	<path class="st1" d="M466,52h3.8l3.2,12.6c0.5,2.1,0.9,4,1.3,6.1h0.2c0.5-2.1,1-4.1,1.5-6.1l3.4-12.6h3.6l3.4,12.6
		c0.5,2.1,1,4,1.5,6.1h0.2c0.5-2.1,0.9-4,1.4-6.1l3.2-12.6h3.5l-5.9,21.9h-4.5l-3.2-11.8c-0.5-2.1-0.9-4.1-1.5-6.3h-0.2
		c-0.5,2.2-0.9,4.3-1.5,6.4l-3.1,11.7H472L466,52z"/>
	<path class="st1" d="M500.7,52h3.1l0.3,3.1h0.1c2.1-2,4.3-3.7,7.3-3.7c4.6,0,6.7,3,6.7,8.6v13.9h-3.7V60.5c0-4.1-1.2-5.8-4.1-5.8
		c-2.2,0-3.8,1.1-6,3.4v15.8h-3.7L500.7,52z"/>
	<path class="st1" d="M525,69.5V41.8h3.7v27.9c0,1.1,0.5,1.6,1,1.6c0.3,0,0.5,0,0.8-0.1l0.5,2.8c-0.7,0.2-1.4,0.4-2.1,0.3
		C526.2,74.4,525,72.7,525,69.5z"/>
	<path class="st1" d="M534.7,63c0-7.3,4.8-11.5,10.1-11.5s10.1,4.2,10.1,11.5s-4.8,11.4-10.1,11.4S534.7,70.2,534.7,63z M551.1,63
		c0-5-2.6-8.4-6.3-8.4s-6.3,3.4-6.3,8.4s2.6,8.4,6.3,8.4S551.1,68,551.1,63z"/>
	<path class="st1" d="M558.5,68.2c0-4.8,4.1-7.1,13.4-8.2c0-2.8-0.9-5.5-4.5-5.5c-2.4,0.1-4.6,0.9-6.5,2.3l-1.4-2.5
		c2.5-1.8,5.5-2.8,8.6-2.9c5.3,0,7.6,3.6,7.6,9v13.4h-3.1l-0.3-2.6h-0.1c-2.1,1.7-4.5,3.1-7.2,3.1C561.2,74.4,558.5,72.2,558.5,68.2
		z M571.9,68.6v-6.1c-7.3,0.9-9.8,2.7-9.8,5.5c0,2.5,1.7,3.5,3.8,3.5S569.8,70.4,571.9,68.6L571.9,68.6z"/>
	<path class="st1" d="M580.7,63c0-7.1,4.5-11.5,9.5-11.5c2.5,0,4.2,1,6.1,2.5l-0.2-3.8v-8.4h3.7v32.1h-3.1l-0.3-2.6h-0.1
		c-1.7,1.9-4.1,3-6.6,3.1C584.3,74.4,580.7,70.3,580.7,63z M596.2,68.3V56.8c-1.4-1.4-3.3-2.2-5.3-2.3c-3.5,0-6.3,3.4-6.3,8.4
		c0,5.2,2.2,8.4,6,8.4C592.6,71.3,594.3,70.3,596.2,68.3L596.2,68.3z"/>
	<path class="st1" d="M614.2,63c0-7.3,4.8-11.5,10.1-11.5s10.1,4.2,10.1,11.5s-4.8,11.4-10.1,11.4S614.2,70.2,614.2,63z M630.6,63
		c0-5-2.6-8.4-6.3-8.4S618,58,618,63s2.6,8.4,6.3,8.4S630.7,68,630.6,63L630.6,63z"/>
	<path class="st1" d="M640,52h3.1l0.3,3.1h0.1c2.1-2,4.3-3.7,7.3-3.7c4.6,0,6.7,3,6.7,8.6v13.9h-3.7V60.5c0-4.1-1.2-5.8-4.1-5.8
		c-2.2,0-3.8,1.1-6,3.4v15.8H640L640,52z"/>
	<path class="st1" d="M673.8,67.1V55h-3.3v-2.8L674,52l0.4-6.1h3.1V52h5.9v3h-5.9v12.2c0,2.7,0.9,4.2,3.4,4.2c0.9,0,1.7-0.2,2.5-0.6
		l0.7,2.8c-1.3,0.5-2.7,0.8-4.1,0.8C675.4,74.4,673.8,71.5,673.8,67.1z"/>
	<path class="st1" d="M688.1,41.8h3.7v8.8l-0.1,4.5c2-2,4.3-3.6,7.3-3.6c4.6,0,6.7,3,6.7,8.6v13.9H702V60.5c0-4.1-1.2-5.8-4.1-5.8
		c-2.2,0-3.8,1.1-6,3.4v15.8h-3.7L688.1,41.8z"/>
	<path class="st1" d="M710.8,63c0-7.1,4.8-11.5,9.8-11.5c5.6,0,8.7,4,8.7,10.3c0,0.7,0,1.4-0.2,2.1h-14.7c0.3,4.6,3.1,7.6,7.3,7.6
		c1.9,0,3.8-0.6,5.4-1.7l1.3,2.4c-2.1,1.5-4.6,2.2-7.2,2.3C715.4,74.4,710.8,70.2,710.8,63z M726.1,61.2c0-4.4-2-6.8-5.4-6.8
		c-3.1,0-5.8,2.5-6.3,6.8H726.1z"/>
</g>
</svg>
