<?xml version="1.0" encoding="UTF-8"?>
<svg id="Layer_2" data-name="Layer 2" xmlns="http://www.w3.org/2000/svg" viewBox="0 0 44.52 44.58">
  <defs>
    <style>
      .cls-1 {
        opacity: .1;
      }

      .cls-2, .cls-3 {
        fill: #00bcd4;
      }

      .cls-4 {
        opacity: .2;
      }

      .cls-5, .cls-6, .cls-7, .cls-8, .cls-9, .cls-10, .cls-11, .cls-12, .cls-13, .cls-14, .cls-15, .cls-16, .cls-17, .cls-18, .cls-19, .cls-20, .cls-21, .cls-3 {
        stroke-width: 0px;
      }

      .cls-6 {
        fill: #f8f9fc;
      }

      .cls-7 {
        fill: #757582;
      }

      .cls-8 {
        fill: #263238;
      }

      .cls-9 {
        fill: #46515e;
      }

      .cls-10 {
        fill: #3a4144;
      }

      .cls-11 {
        fill: #2e353a;
      }

      .cls-12 {
        fill: #411621;
      }

      .cls-13 {
        fill: #05c4d3;
      }

      .cls-14 {
        fill: #c3c0c3;
      }

      .cls-15 {
        fill: #b4b2aa;
      }

      .cls-16 {
        fill: #fff;
      }

      .cls-17 {
        fill: #edece3;
      }

      .cls-18 {
        fill: #eceff1;
      }

      .cls-19 {
        fill: #ebebeb;
      }

      .cls-20 {
        fill: #e7e1db;
      }

      .cls-21 {
        fill: #f5f2f2;
      }
    </style>
  </defs>
  <g id="Device">
    <g>
      <circle class="cls-6" cx="22.35" cy="22.41" r="22.16"/>
      <path class="cls-8" d="m44.44,22.29s-.02-.12-.04-.36c-.02-.26-.05-.61-.08-1.05-.02-.23-.03-.49-.05-.77-.03-.28-.09-.59-.15-.92-.11-.66-.21-1.44-.47-2.27-.39-1.7-1.2-3.71-2.46-5.84-1.27-2.12-3.1-4.33-5.59-6.21-2.48-1.86-5.61-3.44-9.22-4.07-3.58-.61-7.63-.5-11.48.96-.98.31-1.9.8-2.85,1.25-.9.54-1.84,1.04-2.68,1.72-.89.61-1.66,1.37-2.48,2.11-.73.81-1.51,1.61-2.14,2.53-1.3,1.81-2.43,3.81-3.12,6.02-.71,2.19-1.09,4.52-1.13,6.89.03,2.37.41,4.7,1.12,6.89.69,2.21,1.82,4.21,3.12,6.02.63.92,1.4,1.72,2.14,2.53.81.73,1.59,1.5,2.48,2.11.84.68,1.78,1.18,2.68,1.72.95.45,1.87.94,2.85,1.25,3.85,1.47,7.9,1.58,11.48.96,3.61-.64,6.74-2.22,9.22-4.07,2.49-1.88,4.32-4.09,5.59-6.21,1.26-2.13,2.06-4.14,2.46-5.84.26-.84.36-1.61.47-2.27.05-.33.11-.64.15-.92.02-.28.04-.54.05-.77.03-.44.06-.78.08-1.05.02-.24.04-.36.04-.36s.01.12,0,.36c0,.26-.02.61-.03,1.05,0,.23-.02.49-.03.78-.02.28-.08.59-.12.93-.09.67-.18,1.45-.43,2.3-.37,1.72-1.15,3.77-2.4,5.94-1.26,2.16-3.1,4.42-5.62,6.35-2.51,1.91-5.68,3.54-9.36,4.21-3.65.65-7.78.55-11.72-.94-1-.32-1.95-.81-2.92-1.27-.92-.55-1.89-1.06-2.74-1.75-.91-.62-1.71-1.4-2.54-2.15-.75-.83-1.54-1.64-2.19-2.59-1.33-1.85-2.5-3.9-3.2-6.16-.73-2.24-1.12-4.63-1.15-7.05.03-2.42.42-4.81,1.16-7.05.71-2.26,1.87-4.31,3.2-6.15.65-.94,1.44-1.76,2.19-2.59.83-.75,1.63-1.53,2.54-2.15.86-.69,1.82-1.2,2.74-1.75.97-.46,1.91-.96,2.92-1.27C18.69-.17,22.82-.27,26.47.38c3.68.67,6.85,2.3,9.36,4.21,2.52,1.93,4.35,4.19,5.62,6.35,1.25,2.17,2.04,4.21,2.4,5.94.24.85.33,1.63.43,2.3.04.34.1.64.12.93,0,.28.02.54.03.78.01.44.02.79.03,1.05,0,.24,0,.36,0,.36Z"/>
    </g>
  </g>
  <g id="Layer_30" data-name="Layer 30">
    <g>
      <polygon class="cls-3" points="22.36 6.02 17.07 10.2 27.66 10.2 22.36 6.02"/>
      <rect class="cls-3" x="17.12" y="10.2" width="10.55" height="21.34"/>
      <polygon class="cls-11" points="22.38 4.89 28.64 9.91 28.03 10.55 22.38 6.02 22.38 4.89"/>
      <polygon class="cls-11" points="22.38 4.89 16.12 9.91 16.73 10.55 22.38 6.02 22.38 4.89"/>
      <g>
        <rect class="cls-13" x="17.03" y="21.75" width="1.73" height=".68"/>
        <rect class="cls-13" x="17.03" y="17.67" width=".87" height=".68"/>
        <rect class="cls-13" x="17.03" y="20.39" width=".87" height=".68"/>
        <rect class="cls-3" x="17.03" y="16.3" width="1.73" height=".68"/>
        <rect class="cls-13" x="17.03" y="19.03" width="1.73" height=".68"/>
        <rect class="cls-13" x="17.03" y="14.94" width=".87" height=".68"/>
        <rect class="cls-3" x="17.03" y="12.26" width=".87" height=".68"/>
        <rect class="cls-13" x="17.03" y="13.6" width="1.73" height=".68"/>
        <rect class="cls-13" x="17.03" y="10.9" width="1.73" height=".68"/>
      </g>
      <g>
        <rect class="cls-13" x="26.08" y="21.75" width="1.73" height=".68" transform="translate(53.9 44.18) rotate(180)"/>
        <rect class="cls-3" x="26.95" y="17.67" width=".87" height=".68" transform="translate(54.76 36.01) rotate(180)"/>
        <rect class="cls-13" x="26.95" y="20.39" width=".87" height=".68" transform="translate(54.76 41.45) rotate(180)"/>
        <rect class="cls-13" x="26.08" y="16.3" width="1.73" height=".68" transform="translate(53.9 33.29) rotate(180)"/>
        <rect class="cls-13" x="26.08" y="19.03" width="1.73" height=".68" transform="translate(53.9 38.73) rotate(180)"/>
        <rect class="cls-3" x="26.95" y="14.94" width=".87" height=".68" transform="translate(54.76 30.57) rotate(180)"/>
        <rect class="cls-13" x="26.95" y="12.26" width=".87" height=".68" transform="translate(54.76 25.21) rotate(180)"/>
        <rect class="cls-3" x="26.08" y="13.6" width="1.73" height=".68" transform="translate(53.9 27.88) rotate(180)"/>
        <rect class="cls-3" x="26.08" y="10.9" width="1.73" height=".68" transform="translate(53.9 22.48) rotate(180)"/>
      </g>
      <g class="cls-1">
        <polygon class="cls-5" points="22.38 6.05 17.1 10.24 17.1 11.37 22.38 7.18 22.38 6.05"/>
      </g>
      <g class="cls-1">
        <polygon class="cls-5" points="22.38 6.05 27.7 10.28 27.7 11.41 22.38 7.18 22.38 6.05"/>
      </g>
      <rect class="cls-11" x="5.47" y="16.33" width="33.85" height=".99"/>
      <polygon class="cls-2" points="38.7 34.56 6.09 34.56 6.09 17.32 26.26 17.32 38.7 17.32 38.7 34.56"/>
      <rect class="cls-3" x="5.66" y="32.56" width="33.47" height="1.99"/>
      <g>
        <rect class="cls-13" x="6.09" y="31.65" width="1.73" height=".9"/>
        <rect class="cls-13" x="6.09" y="26.25" width=".87" height=".9"/>
        <rect class="cls-3" x="6.09" y="29.85" width=".87" height=".9"/>
        <rect class="cls-3" x="6.09" y="24.46" width="1.73" height=".9"/>
        <rect class="cls-3" x="6.09" y="28.05" width="1.73" height=".9"/>
        <rect class="cls-3" x="6.09" y="22.66" width=".87" height=".9"/>
        <rect class="cls-3" x="6.09" y="19.12" width=".87" height=".9"/>
        <rect class="cls-13" x="6.09" y="20.88" width="1.73" height=".9"/>
        <rect class="cls-13" x="6.09" y="17.32" width="1.73" height=".9"/>
      </g>
      <g>
        <rect class="cls-13" x="36.97" y="31.65" width="1.73" height=".9" transform="translate(75.67 64.21) rotate(180)"/>
        <rect class="cls-13" x="37.84" y="26.25" width=".87" height=".9" transform="translate(76.54 53.41) rotate(180)"/>
        <rect class="cls-3" x="37.84" y="29.85" width=".87" height=".9" transform="translate(76.54 60.6) rotate(180)"/>
        <rect class="cls-3" x="36.97" y="24.46" width="1.73" height=".9" transform="translate(75.67 49.81) rotate(180)"/>
        <rect class="cls-3" x="36.97" y="28.05" width="1.73" height=".9" transform="translate(75.67 57) rotate(180)"/>
        <rect class="cls-3" x="37.84" y="22.66" width=".87" height=".9" transform="translate(76.54 46.22) rotate(180)"/>
        <rect class="cls-3" x="37.84" y="19.12" width=".87" height=".9" transform="translate(76.54 39.13) rotate(180)"/>
        <rect class="cls-13" x="36.97" y="20.88" width="1.73" height=".9" transform="translate(75.67 42.66) rotate(180)"/>
        <rect class="cls-13" x="36.97" y="17.32" width="1.73" height=".9" transform="translate(75.67 35.53) rotate(180)"/>
      </g>
      <g class="cls-1">
        <rect class="cls-5" x="6.09" y="17.29" width="32.61" height="1.05"/>
      </g>
      <rect class="cls-16" x="17.02" y="16.3" width="10.79" height="2.68"/>
      <g>
        <path class="cls-3" d="m19.31,17.91c0,.13-.05.23-.14.31-.09.07-.22.11-.39.11-.15,0-.29-.03-.41-.09v-.28c.1.04.18.07.25.09.07.02.13.03.18.03.07,0,.12-.01.15-.04.04-.03.05-.06.05-.11,0-.03,0-.05-.02-.08-.02-.02-.04-.04-.07-.06-.03-.02-.09-.05-.19-.1-.09-.04-.15-.08-.2-.12-.04-.04-.08-.08-.11-.13-.03-.05-.04-.11-.04-.18,0-.13.04-.23.13-.3.09-.07.21-.11.36-.11.07,0,.15,0,.21.03.07.02.14.04.21.07l-.1.24c-.08-.03-.14-.05-.19-.07-.05-.01-.1-.02-.15-.02-.06,0-.1.01-.13.04-.03.03-.05.06-.05.11,0,.03,0,.05.02.07.01.02.03.04.06.06.03.02.09.05.19.1.13.06.23.13.28.19.05.06.07.14.07.24Z"/>
        <path class="cls-3" d="m20.18,17.11c-.11,0-.2.04-.27.13-.06.09-.09.21-.09.36,0,.32.12.48.36.48.1,0,.22-.03.37-.08v.26c-.12.05-.25.07-.39.07-.21,0-.37-.06-.48-.19-.11-.13-.17-.31-.17-.55,0-.15.03-.28.08-.39.05-.11.13-.2.23-.26.1-.06.22-.09.36-.09s.28.03.42.1l-.1.25c-.05-.03-.11-.05-.16-.07-.05-.02-.11-.03-.16-.03Z"/>
        <path class="cls-3" d="m22.03,18.31h-.3v-.62h-.57v.62h-.3v-1.44h.3v.56h.57v-.56h.3v1.44Z"/>
        <path class="cls-3" d="m23.7,17.59c0,.24-.06.42-.18.55-.12.13-.29.19-.51.19s-.39-.06-.51-.19-.18-.31-.18-.55.06-.42.18-.55c.12-.13.29-.19.51-.19s.39.06.51.19c.12.13.18.31.18.55Zm-1.05,0c0,.16.03.28.09.36.06.08.15.12.27.12.24,0,.36-.16.36-.48s-.12-.49-.36-.49c-.12,0-.21.04-.27.12-.06.08-.09.2-.09.36Z"/>
        <path class="cls-3" d="m25.3,17.59c0,.24-.06.42-.18.55-.12.13-.29.19-.51.19s-.39-.06-.51-.19c-.12-.13-.18-.31-.18-.55s.06-.42.18-.55c.12-.13.29-.19.51-.19s.39.06.51.19c.12.13.18.31.18.55Zm-1.05,0c0,.16.03.28.09.36.06.08.15.12.27.12.24,0,.36-.16.36-.48s-.12-.49-.36-.49c-.12,0-.21.04-.27.12-.06.08-.09.2-.09.36Z"/>
        <path class="cls-3" d="m25.6,18.31v-1.44h.3v1.18h.58v.25h-.89Z"/>
      </g>
      <g>
        <circle class="cls-3" cx="22.38" cy="12.36" r="2.12"/>
        <circle class="cls-18" cx="22.38" cy="12.36" r="1.77"/>
        <path class="cls-7" d="m22.23,10.93c0,.08.07.15.15.15s.15-.07.15-.15-.07-.15-.15-.15-.15.07-.15.15Z"/>
        <path class="cls-7" d="m22.96,11.05c-.04.07-.02.16.05.2.07.04.16.02.2-.05.04-.07.02-.16-.05-.2-.07-.04-.16-.02-.2.05Z"/>
        <path class="cls-7" d="m23.54,11.51c-.07.04-.1.13-.05.2.04.07.13.1.2.05.07-.04.1-.13.05-.2-.04-.07-.13-.1-.2-.05Z"/>
        <path class="cls-7" d="m23.81,12.2c-.08,0-.15.07-.15.15s.07.15.15.15.15-.07.15-.15-.07-.15-.15-.15Z"/>
        <path class="cls-7" d="m23.7,12.94c-.07-.04-.16-.02-.2.05-.04.07-.02.16.05.2.07.04.16.02.2-.05.04-.07.02-.16-.05-.2Z"/>
        <path class="cls-7" d="m21.22,13.21c.07-.04.1-.13.05-.2-.04-.07-.13-.1-.2-.05-.07.04-.1.13-.05.2.04.07.13.1.2.05Z"/>
        <path class="cls-7" d="m20.95,12.52c.08,0,.15-.07.15-.15s-.07-.15-.15-.15-.15.07-.15.15.07.15.15.15Z"/>
        <path class="cls-7" d="m21.07,11.78c.07.04.16.02.2-.05.04-.07.02-.16-.05-.2-.07-.04-.16-.02-.2.05-.04.07-.02.16.05.2Z"/>
        <path class="cls-7" d="m21.53,11.2c.04.07.13.1.2.05.07-.04.1-.13.05-.2-.04-.07-.13-.1-.2-.05-.07.04-.1.13-.05.2Z"/>
        <rect class="cls-12" x="22.27" y="11.27" width=".23" height="1.18" transform="translate(44.76 23.71) rotate(180)"/>
        <rect class="cls-12" x="21.98" y="11.95" width=".23" height=".81" transform="translate(34.45 -9.74) rotate(90)"/>
        <path class="cls-7" d="m23.23,13.52c-.04-.07-.13-.1-.2-.05-.07.04-.1.13-.05.2.04.07.13.1.2.05.07-.04.1-.13.05-.2Z"/>
        <path class="cls-7" d="m22.54,13.79c0-.08-.07-.15-.15-.15s-.15.07-.15.15.07.15.15.15.15-.07.15-.15Z"/>
        <path class="cls-7" d="m21.8,13.68c.04-.07.02-.16-.05-.2-.07-.04-.16-.02-.2.05s-.02.16.05.2c.07.04.16.02.2-.05Z"/>
      </g>
      <g>
        <rect class="cls-21" x="13.73" y="26.3" width="2.61" height="3.97"/>
        <rect class="cls-9" x="14.01" y="26.64" width=".95" height=".98"/>
        <rect class="cls-9" x="14.01" y="27.8" width=".95" height=".98"/>
        <rect class="cls-9" x="14.01" y="28.96" width=".95" height=".98"/>
        <rect class="cls-9" x="15.12" y="26.64" width=".95" height=".98"/>
        <rect class="cls-9" x="15.12" y="27.8" width=".95" height=".98"/>
        <rect class="cls-9" x="15.12" y="28.96" width=".95" height=".98"/>
        <rect class="cls-20" x="13.56" y="30.27" width="2.93" height=".41"/>
        <g class="cls-1">
          <rect class="cls-5" x="13.56" y="30.68" width="2.93" height=".41"/>
        </g>
      </g>
      <g>
        <rect class="cls-21" x="9.07" y="26.3" width="2.61" height="3.97"/>
        <rect class="cls-9" x="9.35" y="26.64" width=".95" height=".98"/>
        <rect class="cls-9" x="9.35" y="27.8" width=".95" height=".98"/>
        <rect class="cls-9" x="9.35" y="28.96" width=".95" height=".98"/>
        <rect class="cls-9" x="10.46" y="26.64" width=".95" height=".98"/>
        <rect class="cls-9" x="10.46" y="27.8" width=".95" height=".98"/>
        <rect class="cls-9" x="10.46" y="28.96" width=".95" height=".98"/>
        <rect class="cls-20" x="8.9" y="30.27" width="2.93" height=".41"/>
        <g class="cls-1">
          <rect class="cls-5" x="8.9" y="30.68" width="2.93" height=".41"/>
        </g>
      </g>
      <g>
        <rect class="cls-21" x="13.73" y="19.66" width="2.61" height="3.97"/>
        <rect class="cls-9" x="14.01" y="19.99" width=".95" height=".98"/>
        <rect class="cls-9" x="14.01" y="21.15" width=".95" height=".98"/>
        <rect class="cls-9" x="14.01" y="22.32" width=".95" height=".98"/>
        <rect class="cls-9" x="15.12" y="19.99" width=".95" height=".98"/>
        <rect class="cls-9" x="15.12" y="21.15" width=".95" height=".98"/>
        <rect class="cls-9" x="15.12" y="22.32" width=".95" height=".98"/>
        <rect class="cls-20" x="13.56" y="23.63" width="2.93" height=".41"/>
        <g class="cls-1">
          <rect class="cls-5" x="13.56" y="24.04" width="2.93" height=".41"/>
        </g>
      </g>
      <g>
        <rect class="cls-21" x="18.79" y="19.66" width="7.13" height="3.97"/>
        <rect class="cls-9" x="21.32" y="19.99" width=".95" height=".98"/>
        <rect class="cls-9" x="21.32" y="21.15" width=".95" height=".98"/>
        <rect class="cls-9" x="21.32" y="22.32" width=".95" height=".98"/>
        <rect class="cls-9" x="22.43" y="19.99" width=".95" height=".98"/>
        <rect class="cls-9" x="22.43" y="21.15" width=".95" height=".98"/>
        <rect class="cls-9" x="22.43" y="22.32" width=".95" height=".98"/>
        <rect class="cls-9" x="23.53" y="19.99" width=".95" height=".98"/>
        <rect class="cls-9" x="23.53" y="21.15" width=".95" height=".98"/>
        <rect class="cls-9" x="23.53" y="22.32" width=".95" height=".98"/>
        <rect class="cls-9" x="24.64" y="19.99" width=".95" height=".98"/>
        <rect class="cls-9" x="24.64" y="21.15" width=".95" height=".98"/>
        <rect class="cls-9" x="24.64" y="22.32" width=".95" height=".98"/>
        <rect class="cls-9" x="19.12" y="19.99" width=".95" height=".98"/>
        <rect class="cls-9" x="19.12" y="21.15" width=".95" height=".98"/>
        <rect class="cls-9" x="19.12" y="22.32" width=".95" height=".98"/>
        <rect class="cls-9" x="20.23" y="19.99" width=".95" height=".98"/>
        <rect class="cls-9" x="20.23" y="21.15" width=".95" height=".98"/>
        <rect class="cls-9" x="20.23" y="22.32" width=".95" height=".98"/>
        <rect class="cls-20" x="18.43" y="23.63" width="7.81" height=".41"/>
        <g class="cls-1">
          <rect class="cls-5" x="18.43" y="24.04" width="7.81" height=".41"/>
        </g>
      </g>
      <g>
        <rect class="cls-21" x="9.07" y="19.66" width="2.61" height="3.97"/>
        <rect class="cls-9" x="9.35" y="19.99" width=".95" height=".98"/>
        <rect class="cls-9" x="9.35" y="21.15" width=".95" height=".98"/>
        <rect class="cls-9" x="9.35" y="22.32" width=".95" height=".98"/>
        <rect class="cls-9" x="10.46" y="19.99" width=".95" height=".98"/>
        <rect class="cls-9" x="10.46" y="21.15" width=".95" height=".98"/>
        <rect class="cls-9" x="10.46" y="22.32" width=".95" height=".98"/>
        <rect class="cls-20" x="8.9" y="23.63" width="2.93" height=".41"/>
        <g class="cls-1">
          <rect class="cls-5" x="8.9" y="24.04" width="2.93" height=".41"/>
        </g>
      </g>
      <g>
        <rect class="cls-21" x="33.02" y="26.3" width="2.61" height="3.97"/>
        <rect class="cls-9" x="33.3" y="26.64" width=".95" height=".98"/>
        <rect class="cls-9" x="33.3" y="27.8" width=".95" height=".98"/>
        <rect class="cls-9" x="33.3" y="28.96" width=".95" height=".98"/>
        <rect class="cls-9" x="34.41" y="26.64" width=".95" height=".98"/>
        <rect class="cls-9" x="34.41" y="27.8" width=".95" height=".98"/>
        <rect class="cls-9" x="34.41" y="28.96" width=".95" height=".98"/>
        <rect class="cls-20" x="32.85" y="30.27" width="2.93" height=".41"/>
        <g class="cls-1">
          <rect class="cls-5" x="32.85" y="30.68" width="2.93" height=".41"/>
        </g>
      </g>
      <g>
        <rect class="cls-21" x="28.36" y="26.3" width="2.61" height="3.97"/>
        <rect class="cls-9" x="28.64" y="26.64" width=".95" height=".98"/>
        <rect class="cls-9" x="28.64" y="27.8" width=".95" height=".98"/>
        <rect class="cls-9" x="28.64" y="28.96" width=".95" height=".98"/>
        <rect class="cls-9" x="29.75" y="26.64" width=".95" height=".98"/>
        <rect class="cls-9" x="29.75" y="27.8" width=".95" height=".98"/>
        <rect class="cls-9" x="29.75" y="28.96" width=".95" height=".98"/>
        <rect class="cls-20" x="28.19" y="30.27" width="2.93" height=".41"/>
        <g class="cls-1">
          <rect class="cls-5" x="28.19" y="30.68" width="2.93" height=".41"/>
        </g>
      </g>
      <g>
        <rect class="cls-21" x="33.02" y="19.66" width="2.61" height="3.97"/>
        <rect class="cls-9" x="33.3" y="19.99" width=".95" height=".98"/>
        <rect class="cls-9" x="33.3" y="21.15" width=".95" height=".98"/>
        <rect class="cls-9" x="33.3" y="22.32" width=".95" height=".98"/>
        <rect class="cls-9" x="34.41" y="19.99" width=".95" height=".98"/>
        <rect class="cls-9" x="34.41" y="21.15" width=".95" height=".98"/>
        <rect class="cls-9" x="34.41" y="22.32" width=".95" height=".98"/>
        <rect class="cls-20" x="32.85" y="23.63" width="2.93" height=".41"/>
        <g class="cls-1">
          <rect class="cls-5" x="32.85" y="24.04" width="2.93" height=".41"/>
        </g>
      </g>
      <g>
        <rect class="cls-21" x="28.36" y="19.66" width="2.61" height="3.97"/>
        <rect class="cls-9" x="28.64" y="19.99" width=".95" height=".98"/>
        <rect class="cls-9" x="28.64" y="21.15" width=".95" height=".98"/>
        <rect class="cls-9" x="28.64" y="22.32" width=".95" height=".98"/>
        <rect class="cls-9" x="29.75" y="19.99" width=".95" height=".98"/>
        <rect class="cls-9" x="29.75" y="21.15" width=".95" height=".98"/>
        <rect class="cls-9" x="29.75" y="22.32" width=".95" height=".98"/>
        <rect class="cls-20" x="28.19" y="23.63" width="2.93" height=".41"/>
        <g class="cls-1">
          <rect class="cls-5" x="28.19" y="24.04" width="2.93" height=".41"/>
        </g>
      </g>
      <g>
        <rect class="cls-10" x="17.38" y="29.96" width=".21" height="4.57"/>
        <circle class="cls-17" cx="17.48" cy="29.54" r=".49"/>
        <rect class="cls-10" x="17.23" y="33.12" width=".51" height="1.44"/>
      </g>
      <g>
        <rect class="cls-10" x="27.1" y="29.96" width=".21" height="4.57"/>
        <circle class="cls-17" cx="27.2" cy="29.54" r=".49"/>
        <rect class="cls-10" x="26.95" y="33.12" width=".51" height="1.44"/>
      </g>
      <g>
        <g>
          <rect class="cls-19" x="18.6" y="26.3" width="7.52" height="6.86"/>
          <rect class="cls-9" x="20.16" y="28.66" width="2.09" height="3.92"/>
          <rect class="cls-9" x="22.5" y="28.66" width="2.09" height="3.92"/>
          <rect class="cls-9" x="24.87" y="30.81" width="1.02" height="1.77"/>
          <rect class="cls-9" x="24.87" y="28.67" width="1.02" height="1.92"/>
          <rect class="cls-9" x="18.84" y="30.81" width="1.02" height="1.77"/>
          <rect class="cls-9" x="18.84" y="28.67" width="1.02" height="1.92"/>
          <rect class="cls-9" x="24.87" y="26.49" width="1.02" height="1.9"/>
          <rect class="cls-9" x="18.84" y="26.49" width="1.02" height="1.9"/>
          <rect class="cls-9" x="20.16" y="26.49" width="2.08" height="1.9"/>
          <rect class="cls-9" x="22.5" y="26.49" width="2.08" height="1.9"/>
        </g>
        <g class="cls-4">
          <rect class="cls-5" x="18.6" y="26.3" width="7.52" height="1.03"/>
        </g>
        <circle class="cls-15" cx="21.79" cy="30.67" r=".26"/>
        <circle class="cls-15" cx="23.01" cy="30.67" r=".26"/>
      </g>
      <rect class="cls-14" x="18.42" y="33.16" width="7.89" height=".47"/>
      <rect class="cls-19" x="18.2" y="33.62" width="8.34" height=".47"/>
      <rect class="cls-14" x="17.95" y="34.1" width="8.84" height=".46"/>
    </g>
  </g>
</svg>