<?xml version="1.0" encoding="UTF-8"?>
<svg id="Layer_2" data-name="Layer 2" xmlns="http://www.w3.org/2000/svg" viewBox="0 0 44.52 44.58">
  <defs>
    <style>
      .cls-1 {
        opacity: .3;
      }

      .cls-2, .cls-3, .cls-4, .cls-5 {
        stroke-width: 0px;
      }

      .cls-3 {
        fill: #263238;
      }

      .cls-4 {
        fill: #fff;
      }

      .cls-5 {
        fill: #00bcd4;
      }
    </style>
  </defs>
  <g id="Device">
    <g>
      <circle class="cls-4" cx="22.35" cy="22.41" r="22.16"/>
      <path class="cls-3" d="m44.44,22.29s-.02-.12-.04-.36c-.02-.26-.05-.61-.08-1.05-.02-.23-.03-.49-.05-.77-.03-.28-.09-.59-.15-.92-.11-.66-.21-1.44-.47-2.27-.39-1.7-1.2-3.71-2.46-5.84-1.27-2.12-3.1-4.33-5.59-6.21-2.48-1.86-5.61-3.44-9.22-4.07-3.58-.61-7.63-.5-11.48.96-.98.31-1.9.8-2.85,1.25-.9.54-1.84,1.04-2.68,1.72-.89.61-1.66,1.37-2.48,2.11-.73.81-1.51,1.61-2.14,2.53-1.3,1.81-2.43,3.81-3.12,6.02-.71,2.19-1.09,4.52-1.13,6.89.03,2.37.41,4.7,1.12,6.89.69,2.21,1.82,4.21,3.12,6.02.63.92,1.4,1.72,2.14,2.53.81.73,1.59,1.5,2.48,2.11.84.68,1.78,1.18,2.68,1.72.95.45,1.87.94,2.85,1.25,3.85,1.47,7.9,1.58,11.48.96,3.61-.64,6.74-2.22,9.22-4.07,2.49-1.88,4.32-4.09,5.59-6.21,1.26-2.13,2.06-4.14,2.46-5.84.26-.84.36-1.61.47-2.27.05-.33.11-.64.15-.92.02-.28.04-.54.05-.77.03-.44.06-.78.08-1.05.02-.24.04-.36.04-.36s.01.12,0,.36c0,.26-.02.61-.03,1.05,0,.23-.02.49-.03.78-.02.28-.08.59-.12.93-.09.67-.18,1.45-.43,2.3-.37,1.72-1.15,3.77-2.4,5.94-1.26,2.16-3.1,4.42-5.62,6.35-2.51,1.91-5.68,3.54-9.36,4.21-3.65.65-7.78.55-11.72-.94-1-.32-1.95-.81-2.92-1.27-.92-.55-1.89-1.06-2.74-1.75-.91-.62-1.71-1.4-2.54-2.15-.75-.83-1.54-1.64-2.19-2.59-1.33-1.85-2.5-3.9-3.2-6.16-.73-2.24-1.12-4.63-1.15-7.05.03-2.42.42-4.81,1.16-7.05.71-2.26,1.87-4.31,3.2-6.15.65-.94,1.44-1.76,2.19-2.59.83-.75,1.63-1.53,2.54-2.15.86-.69,1.82-1.2,2.74-1.75.97-.46,1.91-.96,2.92-1.27C18.69-.17,22.82-.27,26.47.38c3.68.67,6.85,2.3,9.36,4.21,2.52,1.93,4.35,4.19,5.62,6.35,1.25,2.17,2.04,4.21,2.4,5.94.24.85.33,1.63.43,2.3.04.34.1.64.12.93,0,.28.02.54.03.78.01.44.02.79.03,1.05,0,.24,0,.36,0,.36Z"/>
    </g>
  </g>
  <g id="Layer_14" data-name="Layer 14">
    <g>
      <g>
        <path class="cls-5" d="m10.45,33.48c-1.05,0-1.9-.85-1.9-1.9V15.07c0-.84.73-1.52,1.62-1.52h1.55c.63,0,1.21-.35,1.48-.88l.33-.68c.27-.54.84-.88,1.48-.88h7.37c.57,0,1.11.28,1.4.75l.36.57c.29.46.82.75,1.4.75h9.4c.9,0,1.62.68,1.62,1.52v16.89c0,1.05-.85,1.9-1.9,1.9H10.45Z"/>
        <g class="cls-1">
          <path class="cls-2" d="m10.45,33.48c-1.05,0-1.9-.85-1.9-1.9V15.07c0-.84.73-1.52,1.62-1.52h1.55c.63,0,1.21-.35,1.48-.88l.33-.68c.27-.54.84-.88,1.48-.88h7.37c.57,0,1.11.28,1.4.75l.36.57c.29.46.82.75,1.4.75h9.4c.9,0,1.62.68,1.62,1.52v16.89c0,1.05-.85,1.9-1.9,1.9H10.45Z"/>
        </g>
      </g>
      <g>
        <path class="cls-5" d="m24.61,13.17s-5.98-.01-5.98-.01l-.53-1c-.35-.65-1.05-1.06-1.83-1.06h-5.84c-1.04,0-1.88.79-1.88,1.76v18.61c0,1.11.96,2,2.14,2h23.73c1.18,0,2.14-.9,2.14-2V14.54c0-.76-.61-1.37-1.37-1.37h-10.58Z"/>
        <g>
          <path class="cls-4" d="m27.63,27.27h-2.65c-.1,0-.19-.08-.19-.19s.08-.19.19-.19h2.65c1.45,0,2.63-1.18,2.63-2.63s-1.09-2.55-2.49-2.63c-.08,0-.15-.06-.17-.14-.48-1.86-2.15-3.16-4.07-3.16-1.28,0-2.48.58-3.28,1.58-.04.05-.1.08-.17.07-.15-.02-.28-.03-.4-.03-1.91,0-3.47,1.55-3.47,3.47s1.55,3.47,3.47,3.47h2.14c.1,0,.19.08.19.19s-.08.19-.19.19h-2.14c-2.12,0-3.84-1.72-3.84-3.84s1.72-3.84,3.84-3.84c.11,0,.22,0,.34.02.88-1.04,2.15-1.64,3.51-1.64,2.04,0,3.83,1.35,4.4,3.31,1.53.15,2.71,1.44,2.71,2.99,0,1.66-1.35,3.01-3.01,3.01Z"/>
          <path class="cls-4" d="m23.35,28.96c-.1,0-.19-.08-.19-.19v-4.83c0-.1.08-.19.19-.19s.19.08.19.19v4.83c0,.1-.08.19-.19.19Z"/>
          <path class="cls-4" d="m24.76,25.87c-.06,0-.11-.03-.15-.08l-1.23-1.65s-.02-.01-.04-.02c-.01,0-.02,0-.04.02l-1.31,1.6c-.07.08-.18.09-.26.03-.08-.07-.09-.18-.03-.26l1.31-1.6c.08-.1.2-.15.33-.16.13,0,.25.06.33.17l1.23,1.65c.06.08.04.2-.04.26-.03.03-.07.04-.11.04Z"/>
        </g>
      </g>
    </g>
  </g>
</svg>