<?xml version="1.0" encoding="UTF-8"?>
<svg id="Layer_2" data-name="Layer 2" xmlns="http://www.w3.org/2000/svg" viewBox="0 0 44.7 44.58">
  <defs>
    <style>
      .cls-1 {
        fill: none;
      }

      .cls-1, .cls-2, .cls-3, .cls-4, .cls-5, .cls-6, .cls-7, .cls-8 {
        stroke-width: 0px;
      }

      .cls-3 {
        fill: #263238;
      }

      .cls-4 {
        fill: #fff;
      }

      .cls-5 {
        fill: #ffbe9d;
      }

      .cls-6 {
        fill: #fafafa;
      }

      .cls-7 {
        fill: #eb996e;
      }

      .cls-8 {
        fill: #00bcd4;
      }
    </style>
  </defs>
  <g id="Device">
    <g>
      <g>
        <circle class="cls-4" cx="22.71" cy="22.39" r="21.99" transform="translate(-9.18 22.61) rotate(-45)"/>
        <g>
          <path class="cls-1" d="m28.76,24.3c.08-.09.16-.19.23-.29-.07.1-.15.19-.23.29Z"/>
          <path class="cls-1" d="m29.06,23.91c.33-.48.62-1.07.81-1.81-.2.67-.47,1.28-.81,1.81Z"/>
          <path class="cls-1" d="m25.95,25.89s.21-.02.52-.11c-.17.04-.34.1-.52.11Z"/>
          <path class="cls-1" d="m29.94,21.8c-.02.09-.04.19-.07.28,0-.02.01-.03.02-.05.02-.09.03-.15.05-.23Z"/>
          <path class="cls-1" d="m32.12,42.15s0,.08,0,.12c.3-.14.59-.29.89-.45l-.8-1.24c-.03.56-.06,1.09-.08,1.57Z"/>
          <path class="cls-1" d="m6.83,34.28c1.5-4.17,3.92-5.16,3.92-5.16l1.77-.97c-.02-.12-.04-.25-.05-.37-.11-1.41.2-2.81.39-4.2.37-2.67.32-5.39.66-8.07.27-2.11.81-4.25,1.9-6.06,0-.02.01-.04.02-.06-.01,0-.03.02-.04.02-.24.13-.44.22-.58.29-.14.06-.22.1-.22.09,0,0,.07-.05.2-.12.15-.08.34-.19.57-.31.04-.02.09-.05.13-.07,0-.01.02-.03.02-.04-.87.5-1.75.96-2.68,1.32-.41.16-.98.26-1.2-.12-.15-.24-.05-.56.06-.82.37-.88.92-1.74.87-2.69-.02-.43-.12-.96.23-1.2.12-.08.27-.11.41-.13,2-.29,4.05-.24,6.04.13,0-.1,0-.19.03-.28.11-.4.48-.7.88-.76.34-.05.69.06.95.27,1.39-1.49,3.28-2.51,5.29-2.84.58-.1,1.2-.13,1.72.14.48.25.77.71.97,1.23,0,0,0,0,0,0-.02-.07-.03-.1-.03-.1,0,0,.02.03.05.1.03.06.06.16.1.29.08.25.19.62.29,1.08.02.12.04.24.04.38,0,.13-.04.28-.12.4-.17.25-.48.38-.79.42-.32.05-.65,0-.99-.02-.34-.02-.69-.04-1.05-.06-.18,0-.36-.02-.54-.02.88.25,1.72.63,2.46,1.19,1.49,1.14,2.43,2.91,2.76,4.76.27,1.56-.31,4-.86,5.8-.03.72-.08,1.17-.15,1.93.06-.6.07-.78.07-.78,1.1,1.98-.84,4.61.17,6.64.29.58.82,1.08.81,1.72,0,.46-.29.89-.4,1.33l.45.15h0c.49.17,1.14.51,1.77,1.19l5.17,7.96c3.94-3.97,6.37-9.44,6.37-15.47C44.7,10.25,34.85.4,22.71.4S.72,10.25.72,22.39c0,5.38,1.94,10.31,5.15,14.14.45-.99.8-1.8.96-2.25Z"/>
          <path class="cls-3" d="m16.04,26.64l1-.21v-2.62s.06-.61-.14-2.34c-.02-.16-.03-.38-.05-.64-.57.13-2.81.26-2.81-2.29,0-1.04.36-1.58.83-1.86-.26-.73-.38-1.81-.34-2.38.07-1.13.14-2.26.4-3.36.12-.5.29-1,.5-1.47-1.09,1.81-1.64,3.94-1.9,6.06-.34,2.68-.28,5.4-.66,8.07-.19,1.4-.51,2.8-.39,4.2,0,.12.03.25.05.37l3.25-1.78s.09.1.26.26Z"/>
          <path class="cls-5" d="m16.04,26.64c.21.2.56.5,1,.83v-1.04s-1,.21-1,.21Z"/>
          <path class="cls-8" d="m21.52,5.91v-.14s.01,0,.01,0c0,.05-.03.1-.05.14.01,0,0,0,.03,0,0,0,0,0,0,0Z"/>
          <path class="cls-8" d="m22.64,5.85c-.35-.01-.71-.02-1.06-.04l-.03-.03s-.01.08-.03.12c.08,0,.17-.01.29-.02.2-.01.5-.03.83-.04Z"/>
          <path class="cls-8" d="m17.21,8.26c.7-.46,1.31-.9,1.75-1.23.21-.16.38-.29.52-.39.08-.06.12-.09.16-.11-.02-.02-.05-.04-.07-.06-1.27,1.03-2.62,1.97-4.03,2.78,0,.01-.02.03-.02.04.46-.26,1.06-.61,1.7-1.03Z"/>
          <path class="cls-8" d="m14.53,14.29c-.03.57.08,1.64.34,2.38.1-.06.21-.11.32-.15-.07-.81-.43-6.42,3.39-8.68,1.16-.69,2.33-1.09,3.44-1.29.01,0,.03-.01.04-.01.07-.02.15-.02.22-.03.02,0,.04,0,.05,0,1.97-.35,4.65.23,6.2,1.43,2.83,2.17,2.36,6.07,2.36,6.07-.08.79-.35,2.58-.42,3.37,0-.03-.01-.06-.02-.09,0,.17,0,.32-.02.46.54-1.8,1.13-4.24.86-5.8-.32-1.85-1.27-3.62-2.76-4.76-.74-.56-1.57-.94-2.46-1.19-.07,0-.14,0-.21,0-.24,0-.48-.02-.73-.02-.84-.02-1.61-.03-2.21-.02-.46,0-.84.01-1.12.02-.12,0-.22,0-.3,0,0,0,0,.01,0,.02v-.02s0,0,0,0c-.02,0-.02,0-.03,0-.06.18-.16.34-.28.48,0,0,0,0,0,0-.07.08-.15.14-.24.2-.02.01-.04.04-.06.05-.01,0-.03,0-.04.01,0,0-.01,0-.02,0-.04.02-.08.02-.11.03-.16.06-.33.08-.48.06,0,0,0,0,0,0-.03,0-.06,0-.09,0-.05,0-.08-.03-.12-.05-.06-.02-.11-.04-.16-.06-.02,0-.03-.02-.05-.03-.05-.03-.1-.05-.15-.08,0,0-.02-.02-.03-.02-.03.03-.07.07-.14.13-.11.1-.28.25-.5.42-.43.34-1.04.8-1.74,1.25-.68.44-1.32.8-1.81,1.06,0,.02-.01.04-.02.06-.21.47-.38.97-.5,1.47-.26,1.1-.33,2.23-.4,3.36Z"/>
          <path class="cls-3" d="m22.29,6.49s.04,0,.05,0c-.02,0-.04,0-.05,0Z"/>
          <path class="cls-3" d="m16.82,16.53s0-.03,0-.04c-.28-1.9-.27-3.88.52-5.61.84-1.85,2.71-3.86,4.69-4.34-1.12.2-2.29.6-3.44,1.29-3.82,2.27-3.46,7.88-3.39,8.68.62-.21,1.32-.07,1.62,0Z"/>
          <path class="cls-5" d="m29.53,13.98c-.26-.81-.9-1.76-1.53-2.34-.53-.49-1.29-.63-1.94-.95-1.1-.53-1.9-1.63-2.08-2.84-.2,1.87-1.37,3.62-3.04,4.5-.26.14-.54.26-.77.46-.39.34-.57.87-.72,1.36-.32,1-.64,2-.95,3-.08.25-.16.5-.32.7-.16.2-.44.33-.68.26-.32-.09-.45-.45-.52-.78,0,1.2.02,3.36.02,3.42,0,.01-.05.03-.13.05.01.26.03.48.05.64.2,1.73.15,2.34.15,2.34v2.62s0,1.04,0,1.04c1.16.86,3.04,1.91,5.23,1.86,1.78-.04,2.86-.55,3.51-1.06.04-.48.08-.96.11-1.42-3.69.07-4.26-1.63-4.26-1.63.81.63,4.32.66,4.32.66h0s0,0,0,0c.19-.02.35-.07.52-.11.57-.17,1.51-.57,2.29-1.47.08-.1.16-.19.23-.29.02-.03.05-.07.07-.1.34-.53.61-1.14.81-1.81,0,0,0-.01,0-.02.03-.09.04-.19.07-.28.24-1.04.3-1.7.35-2.13,0,0,0,0,0,0,.07-.76.12-1.21.15-1.93,0-.14.01-.29.02-.46-.19-1.17-.64-2.42-.92-3.29Zm-2.8-.97c.18-.17.85-.2,1.5-.05.65.15,1.02.41.84.59-.18.17-.85.2-1.5.05-.65-.15-1.02-.41-.84-.59Zm.22,1.96c.22-.15.59-.29,1.02-.28.43.02.78.19.98.35.21.17.27.32.23.36-.08.08-.55-.29-1.24-.31-.68-.03-1.2.3-1.27.22-.04-.04.05-.19.27-.34Zm1.03,1.4c.32.05.54.34.5.65-.04.31-.34.51-.66.46-.32-.05-.54-.34-.5-.65.04-.31.34-.51.66-.46Zm-7.66-2.88c.19-.18.52-.37.94-.46.42-.09.82-.05,1.08.03.27.08.4.21.37.29-.06.17-.63.16-1.27.31-.64.13-1.14.37-1.29.24-.07-.06-.02-.22.17-.4Zm2.47,2c-.08.08-.55-.29-1.24-.31-.68-.03-1.2.3-1.27.22-.04-.04.05-.19.27-.34.22-.15.59-.29,1.02-.28.43.02.78.19.98.35.2.17.27.32.23.36Zm-.8.95c.32.05.54.34.5.65-.04.31-.34.51-.66.46-.32-.05-.54-.34-.5-.65.04-.31.34-.51.66-.46Zm1.71,5.02c-.18.02-.45-.03-.67-.21-.23-.18-.33-.43-.35-.61-.02-.18.03-.29.07-.29.09,0,.15.39.48.65.33.27.73.24.74.33,0,.04-.08.11-.27.13Zm2.04-2.21c-.06.04-.12.06-.17.07-.05.02-.1.03-.15.04-.1.02-.19.03-.28.02-.34,0-.52-.13-.51-.16.01-.04.21,0,.5-.04.07-.01.15-.03.23-.05.08-.02.18-.06.23-.1.03-.02.02-.03.02-.03,0-.01,0-.05-.03-.09-.04-.1-.09-.21-.14-.32-.37-.89-.61-1.63-.54-1.66.07-.03.43.66.8,1.55.05.11.09.22.13.33.02.06.05.13.04.23,0,.1-.09.19-.15.23Z"/>
          <path class="cls-5" d="m16.82,16.53s0,0,0,0c0-.01,0-.03,0-.04,0,.01,0,.03,0,.04Z"/>
          <path class="cls-5" d="m16.97,17.36s-.02-.06-.02-.09c-.05-.24-.09-.49-.12-.74,0,0,0,0,0,0-.3-.08-1-.22-1.62,0-.11.04-.22.09-.32.15-.46.28-.82.83-.83,1.86,0,2.55,2.24,2.42,2.81,2.29.08-.02.13-.04.13-.05,0-.06-.01-2.22-.02-3.42Zm-.97,2.45c-.09.07-.26.13-.47.08-.42-.12-.72-.68-.74-1.26,0-.3.06-.58.18-.82.1-.23.31-.44.53-.45.11-.01.21.02.28.07.07.06.1.13.11.18.02.12-.03.18-.04.17-.02,0,0-.06-.04-.15-.04-.08-.15-.18-.3-.14-.16.03-.29.18-.38.39-.09.21-.15.46-.14.73.01.53.27,1.02.58,1.13.15.06.3.03.38,0,.09-.04.12-.08.14-.07.01,0,0,.07-.1.14Z"/>
          <path class="cls-7" d="m15.58,19.75c-.31-.11-.57-.61-.58-1.13,0-.27.05-.52.14-.73.09-.21.23-.36.38-.39.15-.04.26.06.3.14.04.08.02.14.04.15,0,0,.06-.05.04-.17-.01-.06-.05-.13-.11-.18-.07-.06-.17-.09-.28-.07-.23.02-.43.22-.53.45-.12.23-.19.52-.18.82.02.59.32,1.14.74,1.26.21.05.38,0,.47-.08.09-.07.11-.14.1-.14-.01,0-.05.04-.14.07-.08.04-.23.06-.38,0Z"/>
          <path class="cls-3" d="m29.18,15.4s-.03-.19-.23-.36c-.2-.17-.55-.34-.98-.35-.43-.02-.8.13-1.02.28-.22.15-.31.3-.27.34.07.09.59-.25,1.27-.22.69.02,1.16.39,1.24.31Z"/>
          <path class="cls-3" d="m21.57,14.78c-.43-.02-.8.13-1.02.28-.23.15-.31.3-.27.34.07.09.59-.25,1.27-.22.68.02,1.16.39,1.24.31.04-.04-.03-.19-.23-.36-.2-.17-.55-.34-.98-.35Z"/>
          <path class="cls-3" d="m21.43,13.66c.64-.14,1.21-.13,1.27-.31.02-.08-.11-.2-.37-.29-.26-.08-.66-.12-1.08-.03-.42.09-.75.28-.94.46-.19.18-.24.34-.17.4.15.13.65-.11,1.29-.24Z"/>
          <path class="cls-3" d="m27.57,13.6c.65.15,1.32.13,1.5-.05.18-.17-.19-.44-.84-.59-.65-.15-1.32-.13-1.5.05-.18.17.19.44.84.59Z"/>
          <path class="cls-3" d="m22.74,20.35s-.09.11-.07.29c.02.18.12.43.35.61.23.18.5.23.67.21.18-.02.28-.09.27-.13-.02-.09-.41-.06-.74-.33-.33-.26-.39-.65-.48-.65Z"/>
          <path class="cls-7" d="m25.95,25.89s-3.51-.03-4.32-.66c0,0,.57,1.7,4.26,1.63.03-.34.05-.67.05-.97h0Z"/>
          <path class="cls-3" d="m27.82,17.48c.32.05.61-.15.66-.46.04-.31-.18-.6-.5-.65-.32-.05-.61.16-.66.46-.04.31.18.6.5.65Z"/>
          <path class="cls-3" d="m21.83,17.56c.32.05.61-.15.66-.46.04-.31-.18-.6-.5-.65-.32-.05-.61.16-.66.46-.04.31.18.6.5.65Z"/>
          <path class="cls-3" d="m25.7,18.48c-.37-.89-.73-1.58-.8-1.55-.07.03.17.77.54,1.66.05.11.09.22.14.32.02.05.03.08.03.09,0,0,0,.01-.02.03-.05.04-.15.08-.23.1-.08.02-.16.04-.23.05-.29.04-.49,0-.5.04-.01.03.17.15.51.16.08,0,.18,0,.28-.02.05,0,.1-.02.15-.04.05-.02.11-.03.17-.07.06-.04.14-.12.15-.23,0-.1-.02-.17-.04-.23-.04-.11-.09-.21-.13-.33Z"/>
          <path class="cls-8" d="m21.38,5.37s0,.02,0,.02c0,0,0,0,0,0v-.02Z"/>
          <path class="cls-8" d="m20.23,6.78s0,0,0,0c0,0,0,0,0,0Z"/>
          <path class="cls-8" d="m19.64,6.54s.02.02.03.02c.04.03.1.05.15.08-.06-.04-.11-.08-.16-.12,0,0,0,0-.01.02Z"/>
          <path class="cls-8" d="m21.38,6.09c-.04.11-.1.22-.19.32.13-.14.22-.3.28-.48-.03,0-.06,0-.07,0-.01.06-.01.11-.03.16Z"/>
          <path class="cls-8" d="m20.83,6.68s.01,0,.02,0c-.04.02-.09.03-.13.04.04-.01.08-.02.11-.03Z"/>
          <path class="cls-8" d="m20.02,6.73c-.06-.02-.12-.04-.16-.06.05.03.11.05.16.06Z"/>
          <path class="cls-8" d="m21.19,6.41c-.07.08-.15.14-.24.2.09-.06.17-.12.24-.2Z"/>
          <path class="cls-8" d="m21.51,5.95s0-.01,0-.02h0v.02Z"/>
          <path class="cls-8" d="m25.87,5.96c-.25,0-.49-.02-.73-.02.24,0,.48.02.73.02Z"/>
          <path class="cls-8" d="m19.56,6.47s.04.04.07.06c0,0,.01,0,.02-.01-.01-.01-.03-.02-.04-.03-.09-.09-.14-.17-.18-.25-.03.01-.15.03-.33.06-.2.03-.4.07-.6.12,0,0-.01,0-.02,0-.85.21-1.68.54-2.43.98-.05.03-.13.06-.18.02-.03-.03-.03-.08-.02-.12.04-.28.23-.51.47-.65.24-.15.51-.21.78-.27.67-.13,1.37-.17,2.05-.15.15-.01.24-.01.27,0-.01-.03-.03-.06-.04-.08-.04-.09-.04-.15-.04-.15.02,0,.07.21.32.44.12.11.3.21.51.25.21.04.46,0,.68-.12.22-.12.38-.31.46-.51.08-.2.08-.41.05-.57-.06-.33-.22-.49-.2-.5,0,0,.05.03.11.11.04.05.08.14.12.23.29-.39.74-.64,1.18-.86.35-.18.7-.34,1.08-.43.38-.09.79-.1,1.15.05.07.03.14.06.16.13.03.09-.03.19-.11.23-.08.04-.18.04-.28.04-.01,0-.03,0-.04,0,.22.01.35.03.35.04,0,.02-.21,0-.54.02-.33.01-.79.06-1.28.19-.49.12-.92.3-1.22.44-.21.1-.36.18-.43.22,0,.02.02.04.02.06.03.13.02.28,0,.45,0,0,.04,0,.07,0,.02-.05.04-.09.05-.14h0s-.01.14-.01.14c0,0,0,0,0,0,.01-.04.02-.08.03-.12l.03.03c.35.02.71.02,1.06.04.1,0,.18,0,.29-.01.94-.03,2.25-.02,3.69.05.36.02.71.04,1.05.06.34.02.66.07.97.02.3-.04.58-.16.73-.38.15-.22.12-.49.09-.72-.09-.46-.19-.83-.26-1.08-.03-.12-.06-.22-.08-.29-.21-.51-.49-.98-.97-1.23-.52-.27-1.14-.24-1.72-.14-2.01.33-3.9,1.35-5.29,2.84-.27-.21-.62-.32-.95-.27-.41.06-.77.36-.88.76-.03.09-.04.19-.03.28-1.99-.37-4.04-.42-6.04-.13-.14.02-.29.05-.41.13-.35.24-.25.77-.23,1.2.05.95-.5,1.82-.87,2.69-.11.26-.21.57-.06.82.23.38.79.28,1.2.12.93-.37,1.82-.83,2.68-1.32,1.42-.81,2.76-1.75,4.03-2.78Zm.2-1.19c.12.04.19.11.24.16.16-.21.36-.37.51-.44.16-.08.28-.1.28-.09,0,.02-.1.06-.24.15-.15.09-.33.25-.49.46-.15.22-.24.44-.28.61-.04.17-.05.28-.06.28-.01,0-.03-.11,0-.29.02-.17.1-.41.26-.63-.06-.04-.13-.08-.24-.12-.18-.07-.34-.05-.35-.08,0-.02.17-.09.38-.01Zm-3.51.95c.32-.08.77-.17,1.28-.19.51-.03.97,0,1.29.05.33.05.53.1.52.11,0,.02-.2-.02-.53-.04-.33-.03-.78-.05-1.28-.03-.5.03-.95.1-1.27.16-.32.06-.52.12-.52.1,0-.01.19-.09.51-.17Z"/>
          <path class="cls-3" d="m17.34,10.88c-.79,1.73-.8,3.71-.52,5.61,0,.01,0,.03,0,.04.04.25.08.49.12.74,0,.03.01.06.02.09.07.33.2.68.52.78.25.07.52-.06.68-.26.16-.2.25-.45.32-.7.32-1,.64-2,.95-3,.16-.5.33-1.02.72-1.36.22-.2.5-.32.77-.46,1.66-.88,2.84-2.62,3.04-4.5.18,1.21.99,2.3,2.08,2.84.65.32,1.41.45,1.94.95.62.58,1.27,1.53,1.53,2.34.28.86.73,2.11.92,3.29,0,.03.01.06.02.09.08-.79.35-2.58.42-3.37,0,0,.47-3.89-2.36-6.07-1.55-1.19-4.22-1.78-6.2-1.43-.02,0-.04,0-.05,0-.07.01-.15.02-.22.03-.01,0-.03.01-.04.01-1.98.48-3.85,2.49-4.69,4.34Z"/>
          <path class="cls-3" d="m21.41,5.93s0,0,0,0,0,0,0,0c.03-.16.03-.32,0-.45,0-.02-.01-.04-.02-.06-.03.01-.05.02-.06.02,0,0,.02-.02.05-.04,0,0,0-.02,0-.02l-.02-.03s0,0,0,0c-.04-.1-.08-.18-.12-.23-.06-.08-.1-.11-.11-.11-.02.01.15.17.2.5.03.16.02.37-.05.57-.08.2-.24.39-.46.51-.22.12-.47.16-.68.12-.21-.04-.39-.14-.51-.25-.25-.23-.3-.45-.32-.44,0,0,0,.06.04.15,0,.02.03.05.04.08,0,0,.02,0,.02,0,0,0-.01,0-.01,0,.04.08.1.16.18.25.01.01.03.02.04.03,0,0,.02-.01.02-.01,0,0-.01.01-.02.02.05.04.1.08.16.12.01,0,.03.02.05.03.05.03.11.04.16.06.04.01.08.04.12.05.03,0,.06,0,.09,0,0,0,0,0,0,0,.16.02.32,0,.48-.06.04-.02.09-.02.13-.04.01,0,.03,0,.04-.01.02-.01.04-.03.06-.05.09-.06.18-.12.24-.2,0,0,0,0,0,0,.08-.1.15-.2.19-.32.02-.06.02-.11.03-.16Z"/>
          <path class="cls-3" d="m19.96,5.49c-.15.22-.23.46-.26.63-.03.18,0,.29,0,.29.02,0,.02-.11.06-.28.04-.17.13-.4.28-.61.16-.21.34-.37.49-.46.15-.09.25-.13.24-.15,0-.01-.12,0-.28.09-.16.08-.35.23-.51.44.04.05.06.09.05.09,0,0-.04-.02-.08-.04Z"/>
          <path class="cls-3" d="m19.96,5.49s.07.05.08.04c.01,0,0-.04-.05-.09-.05-.06-.12-.12-.24-.16-.21-.08-.39-.01-.38.01,0,.03.17.01.35.08.11.04.18.08.24.12Z"/>
          <path class="cls-3" d="m17.54,6.13c.5-.03.95,0,1.28.03.33.03.53.06.53.04,0-.01-.2-.07-.52-.11-.33-.05-.79-.08-1.29-.05-.51.03-.96.11-1.28.19-.32.08-.51.16-.51.17,0,.01.2-.04.52-.1.32-.07.77-.14,1.27-.16Z"/>
          <path class="cls-3" d="m18.49,6.41s-.01,0-.02,0c0,0,.01,0,.02,0Z"/>
          <path class="cls-3" d="m19.41,6.23s-.12,0-.27,0c.08,0,.15,0,.23,0l-.04.02c-.08.01-.16.03-.24.05.18-.03.3-.05.33-.06,0,0,.01,0,.01,0,0,0-.01,0-.02,0Z"/>
          <path class="cls-3" d="m29.45,4.88c.04.22.07.5-.09.72-.15.22-.43.34-.73.38-.3.04-.63,0-.97-.02-.34-.02-.69-.04-1.05-.06-1.44-.07-2.74-.08-3.69-.05-.11,0-.19,0-.29.01-.33.01-.62.03-.83.04-.12,0-.21.02-.29.02,0,0,0,0,0,0,0,0,0,0,0,0-.02,0-.01,0-.03,0-.03,0-.07,0-.07,0,0,0,0,0,0,0s0,0,0,0c0,0,.04,0,.07,0,.02,0,.01,0,.03,0,0,0,0,0,0,0h0c.08,0,.18,0,.3,0,.28,0,.66,0,1.12-.02.61,0,1.37,0,2.21.02.24,0,.48.01.73.02.07,0,.14,0,.21,0,.18,0,.35.01.54.02.36.02.71.04,1.05.06.34.02.67.06.99.02.31-.04.62-.18.79-.42.08-.12.12-.27.12-.4,0-.13-.01-.26-.04-.38-.1-.47-.21-.83-.29-1.08-.04-.13-.08-.22-.1-.29-.03-.06-.05-.1-.05-.1,0,0,0,.04.03.1,0,0,0,0,0,0,.02.07.05.16.08.29.07.25.17.62.26,1.08Z"/>
          <path class="cls-3" d="m17.26,8.35c.7-.46,1.31-.91,1.74-1.25.21-.17.38-.31.5-.42.07-.07.12-.11.14-.13,0,0,.01-.01.01-.02,0,0,.02-.02.02-.02,0,0-.02,0-.02.01,0,0,0,0-.02.01-.03.02-.08.05-.16.11-.14.1-.31.24-.52.39-.44.33-1.05.77-1.75,1.23-.64.42-1.24.77-1.7,1.03-.04.02-.09.05-.13.07-.23.12-.42.23-.57.31-.13.07-.21.12-.2.12,0,0,.08-.03.22-.09.14-.06.34-.16.58-.29.01,0,.03-.02.04-.02.48-.25,1.12-.61,1.81-1.06Z"/>
          <path class="cls-3" d="m21.39,5.39s0,0,0,0c-.03.02-.05.04-.05.04,0,0,.02,0,.06-.02.07-.04.22-.12.43-.22.3-.15.73-.32,1.22-.44.49-.12.95-.17,1.28-.19.33-.01.54,0,.54-.02,0,0-.13-.03-.35-.04-1.11.02-2.15.35-3.11.9v-.02Z"/>
          <path class="cls-2" d="m21.38,5.37v.02s.03.02.03.02c.96-.55,2-.88,3.11-.9.01,0,.03,0,.04,0,.1,0,.2,0,.28-.04.08-.04.15-.15.11-.23-.03-.07-.1-.1-.16-.13-.36-.14-.77-.14-1.15-.05-.38.09-.74.26-1.08.43-.44.22-.89.47-1.18.86,0,0,0,0,0,0l.02.03Z"/>
          <path class="cls-2" d="m19.37,6.23c-.08,0-.15,0-.23,0-.69-.03-1.38.01-2.05.15-.27.05-.55.12-.78.27-.24.15-.43.38-.47.65,0,.04,0,.09.02.12.05.04.12.01.18-.02.76-.44,1.58-.77,2.43-.98,0,0,.01,0,.02,0,.2-.05.4-.08.6-.12.08-.01.16-.04.24-.05l.04-.02Z"/>
          <path class="cls-8" d="m31.39,28.72l.08,1.33c.05.07.11.14.16.22.47.75.42,1.74.01,2.53l.47,7.56c.02-.52.05-1.07.08-1.65.16-3.29.31-5.95.34-5.95.03,0-.08,2.67-.24,5.95-.03.65-.06,1.28-.09,1.86l.8,1.24c1.97-1.05,3.77-2.38,5.32-3.96l-5.17-7.96c-.62-.68-1.28-1.02-1.77-1.19Z"/>
          <path class="cls-8" d="m21.83,37.91c0,.07,0,.15.01.24,0-.08,0-.16-.01-.23,0,0,0,0,0,0Z"/>
          <path class="cls-8" d="m21.95,37c-.04.16-.07.3-.09.4-.01.08-.02.14-.03.18,0,.03,0,.05,0,.05h0c.02-.22.07-.42.12-.63Z"/>
          <path class="cls-8" d="m21.37,38.16s0-.03,0-.05c0,0,0,0,0,0,0,.02,0,.03,0,.05Z"/>
          <path class="cls-8" d="m21.38,37.76c0,.07,0,.14,0,.21,0,0,0,0,0,0,0-.02,0-.05,0-.07,0-.05,0-.09,0-.13Z"/>
          <path class="cls-8" d="m32.11,42.27s0,0,0,0c0-.04,0-.08,0-.12,0,.04,0,.08,0,.12Z"/>
          <path class="cls-8" d="m21.37,37.52s-.01-.07-.02-.12c-.02-.1-.05-.24-.09-.4.04.17.08.34.1.52,0,0,0,0,0,0Z"/>
          <path class="cls-8" d="m21.83,37.8s0-.03,0-.04c0,.01,0,.03,0,.04,0,0,0,0,0,0Z"/>
          <path class="cls-8" d="m32.11,40.36l-.47-7.56c-.03.05-.04.11-.07.16-.61,1.04-1.83,1.68-3.02,1.6-1.2-.08-2.32-.89-2.77-2-.42-1.02-.11-2.15-.06-3.25.01-.34.04-.69.07-1.04-.65.51-1.73,1.02-3.51,1.06-2.19.05-4.06-1-5.23-1.86-.44-.33-.78-.63-1-.83-.17-.16-.26-.26-.26-.26l-3.25,1.78-1.77.97h0s1,3.44,1.14,5.11c.12,1.48.26,6.34.29,7.43v.04c3.13,1.71,6.72,2.68,10.53,2.68,3.33,0,6.49-.75,9.32-2.07.02-.58.05-1.23.09-1.95Zm-10.72,2.87c-2.71,0-4.91-.02-4.91-.05s2.2-.05,4.91-.05,4.91.02,4.91.05-2.2.05-4.91.05Zm4.53-6.61c-.27.28-.63.49-1.01.64-.76.3-1.61.34-2.43.53-.06.01-.11.03-.16.04.74.18,1.48.38,2.08.81.32.23.6.52.79.85.19.33.3.71.27,1.08-.03.37-.19.71-.43.96-.24.25-.56.43-.89.43-.33.01-.64-.13-.87-.32-.23-.19-.41-.42-.55-.66-.56-.93-.79-1.8-.87-2.4-.02-.13-.03-.24-.03-.34v2.44c0,.12-.1.22-.22.22s-.22-.1-.22-.22v-2.44c0,.1-.02.21-.03.34-.08.6-.31,1.46-.87,2.4-.14.23-.32.46-.55.66-.23.19-.54.33-.87.32-.33,0-.66-.18-.89-.43-.24-.25-.4-.59-.43-.96-.02-.37.08-.75.27-1.08.19-.33.47-.62.79-.85.6-.42,1.34-.63,2.08-.81-.05-.01-.11-.03-.16-.04-.82-.19-1.67-.23-2.43-.53-.38-.15-.73-.36-1.01-.64-.28-.28-.45-.65-.5-1.03-.05-.37.03-.77.27-1.05.23-.28.57-.44.9-.49.33-.05.66,0,.95.1.29.1.55.25.78.42.46.33.79.72,1.04,1.09.24.37.39.73.49,1.03.09.3.13.54.15.7,0,.06,0,.11.01.15,0,0,0,0,0,0v-1c0-.07.04-.13.09-.17-.06-.25-.15-.63-.33-1.04-.31-.71-.74-1.18-.71-1.2,0,0,.13.1.29.3.16.2.36.5.52.86.16.36.25.71.29.96,0,.03,0,.06.01.09.02,0,.04-.03.07-.03.04,0,.06.02.09.04.03-.27.1-.61.24-.97.16-.4.37-.73.54-.94.17-.22.3-.33.31-.33.03.02-.45.53-.75,1.31-.15.36-.22.71-.27.97.04.04.06.09.06.15v1.03s0-.1.02-.18c.02-.16.06-.4.15-.7.1-.3.25-.65.49-1.03.25-.37.58-.76,1.04-1.09.23-.17.49-.31.78-.42.29-.1.62-.16.95-.1.33.05.67.21.9.49.23.28.32.68.27,1.05-.05.37-.22.74-.5,1.03Z"/>
          <path class="cls-8" d="m30.91,29.04c.05.39.33.69.57,1.01l-.08-1.33h0s-.45-.15-.45-.15c-.04.15-.06.31-.04.47Z"/>
          <path class="cls-8" d="m11.17,35.46c-.27-1.87-.44-3.13-.42-3.13.02,0,.2,1.14.46,2.87,0,0,0,0,0,0l.03.22c.15.96.31,2.08.49,3.28.06.41.12.81.17,1.19l.26,1.76c-.03-1.08-.17-5.95-.29-7.43-.14-1.67-1.14-5.11-1.14-5.11h0s-2.42.99-3.92,5.16c-.16.45-.51,1.26-.96,2.25,1.69,2.01,3.73,3.71,6.04,5.01-.65-.78-.99-1.8-1.05-2.82-.07-1.09.11-2.18.32-3.26Z"/>
          <path class="cls-3" d="m32.2,40.58c.03-.59.06-1.21.09-1.86.16-3.29.27-5.95.24-5.95-.03,0-.18,2.66-.34,5.95-.03.57-.05,1.12-.08,1.65-.03.71-.06,1.37-.09,1.95.03-.01.05-.02.08-.04,0-.04,0-.08,0-.12.03-.48.05-1,.08-1.57Z"/>
          <path class="cls-3" d="m11.17,35.46c.02-.09.03-.17.05-.26-.26-1.73-.45-2.88-.46-2.87-.02,0,.15,1.26.42,3.13Z"/>
          <path class="cls-3" d="m11.25,35.42l.66,4.48c-.06-.39-.11-.78-.17-1.19-.18-1.2-.34-2.32-.49-3.28Z"/>
          <path class="cls-2" d="m11.91,39.9l-.66-4.48-.03-.22s0,0,0,0c-.02.08-.03.17-.05.26-.2,1.08-.39,2.17-.32,3.26.07,1.02.41,2.04,1.05,2.82.09.05.18.11.28.16v-.04s-.27-1.76-.27-1.76Z"/>
          <path class="cls-6" d="m21.83,37.67s0,.01,0,.03c0,.01,0,.04,0,.05,0,.01,0,.03,0,.04.04-.08.08-.16.14-.27.19-.31.5-.71.92-1.07.42-.36.87-.6,1.21-.73.17-.07.31-.11.41-.13.1-.02.15-.03.15-.03,0,.02-.21.08-.53.23-.32.15-.75.39-1.17.74-.41.35-.72.74-.92,1.03-.08.11-.13.2-.18.28.05.07.11.16.18.26.2.29.47.68.8,1.09.33.41.66.76.89,1.02.24.25.39.4.38.41,0,0-.18-.12-.43-.36-.25-.24-.59-.59-.92-1-.33-.41-.61-.81-.79-1.11-.05-.09-.1-.16-.13-.23,0,.08,0,.16.01.23,0,.12.02.26.05.42.09.59.33,1.45.89,2.36.14.23.32.45.54.63.22.18.51.31.82.3.62-.02,1.19-.63,1.24-1.32.02-.35-.08-.71-.27-1.02-.19-.32-.45-.6-.77-.82-.64-.44-1.43-.65-2.24-.84l-.18-.04.18-.05c.11-.03.23-.07.35-.09.83-.19,1.67-.23,2.42-.52.37-.14.71-.34.97-.62.26-.27.43-.62.48-.97.05-.35-.03-.72-.24-.98-.21-.26-.53-.41-.84-.46-.32-.05-.63,0-.91.1-.28.1-.54.24-.76.4-.45.32-.79.7-1.03,1.07-.24.37-.4.72-.5,1.01-.04.11-.06.2-.08.3-.05.21-.11.42-.12.63v.04Z"/>
          <path class="cls-3" d="m21.83,37.76s0-.04,0-.05c0-.02,0-.02,0-.03v.13s0,0,0,0c0-.01,0-.03,0-.04Z"/>
          <path class="cls-3" d="m25.25,34.05c-.33-.05-.66,0-.95.1-.29.1-.55.25-.78.42-.46.33-.79.72-1.04,1.09-.24.37-.39.73-.49,1.03-.09.3-.13.54-.15.7,0,.08-.01.14-.02.18v.06s0-.02,0-.05c0-.05.01-.11.03-.18.02-.1.05-.24.09-.4.02-.09.05-.19.08-.3.1-.29.25-.64.5-1.01.25-.36.58-.75,1.03-1.07.22-.16.48-.3.76-.4.28-.1.6-.15.91-.1.31.05.63.2.84.46.22.26.29.63.24.98-.05.36-.21.7-.48.97-.26.27-.6.47-.97.62-.74.29-1.58.33-2.42.52-.12.03-.24.06-.35.09l-.18.05.18.04c.8.19,1.6.39,2.24.84.31.22.58.5.77.82.19.32.29.68.27,1.02-.05.69-.62,1.3-1.24,1.32-.31.01-.6-.12-.82-.3-.22-.18-.4-.41-.54-.63-.56-.92-.8-1.77-.89-2.36-.02-.16-.04-.3-.05-.42,0-.09-.01-.17-.01-.24,0,0,0,0,0-.01v.34c0,.1.02.21.03.34.08.6.31,1.46.87,2.4.14.23.32.46.55.66.23.19.54.33.87.32.33,0,.66-.18.89-.43.24-.25.4-.59.43-.96.02-.37-.08-.75-.27-1.08-.19-.33-.47-.62-.79-.85-.6-.42-1.34-.63-2.08-.81.05-.01.11-.03.16-.04.82-.19,1.67-.23,2.43-.53.38-.15.73-.36,1.01-.64.28-.28.45-.65.5-1.03.05-.37-.03-.77-.27-1.05-.23-.28-.57-.44-.9-.49Z"/>
          <path class="cls-6" d="m21.3,38.27c-.13.3-.36.69-.67,1.09-.31.39-.64.7-.9.9-.26.2-.44.3-.44.29,0-.01.15-.13.4-.34.24-.21.56-.52.87-.91.3-.39.53-.77.68-1.06.06-.11.1-.2.14-.27,0-.07.01-.14,0-.21,0-.01,0-.04,0-.05,0-.02,0-.02,0-.03h0c-.19-.24-.44-.53-.76-.83-.35-.32-.69-.58-.95-.76-.26-.18-.42-.28-.42-.29,0-.01.18.07.45.23.27.16.63.42.98.75.28.26.49.52.67.74-.02-.17-.06-.35-.1-.52-.02-.09-.05-.19-.08-.3-.1-.29-.25-.64-.5-1.01-.25-.36-.58-.75-1.03-1.07-.22-.16-.48-.3-.76-.4-.28-.1-.6-.15-.91-.1-.31.05-.63.2-.84.46-.22.26-.29.63-.24.98.05.36.21.7.48.97.26.27.6.47.97.62.74.29,1.58.33,2.42.52.12.03.24.06.35.09l.18.05-.18.04c-.8.19-1.6.39-2.24.84-.31.22-.58.5-.77.82-.19.32-.29.68-.27,1.02.05.69.62,1.3,1.24,1.32.31.01.6-.12.82-.3.22-.18.4-.41.54-.63.56-.92.8-1.77.89-2.36.02-.16.04-.3.05-.42,0-.02,0-.03,0-.05-.02.05-.04.1-.07.16Z"/>
          <path class="cls-3" d="m21.37,38.11s0,.03,0,.05c0,.12-.02.26-.05.42-.09.59-.33,1.45-.89,2.36-.14.23-.32.45-.54.63-.22.18-.51.31-.82.3-.62-.02-1.19-.63-1.24-1.32-.02-.35.08-.71.27-1.02.19-.32.45-.6.77-.82.64-.44,1.43-.65,2.24-.84l.18-.04-.18-.05c-.11-.03-.23-.07-.35-.09-.83-.19-1.67-.23-2.42-.52-.37-.14-.71-.34-.97-.62-.26-.27-.43-.62-.48-.97-.05-.35.03-.72.24-.98.21-.26.53-.41.84-.46.32-.05.63,0,.91.1.28.1.54.24.76.4.45.32.79.7,1.03,1.07.24.37.4.72.5,1.01.04.11.06.2.08.3.04.16.07.3.09.4,0,.05.01.09.02.12,0,0,.01.01.01.02,0-.04,0-.08-.01-.15-.02-.16-.06-.4-.15-.7-.1-.3-.25-.65-.49-1.03-.25-.37-.58-.76-1.04-1.09-.23-.17-.49-.31-.78-.42-.29-.1-.62-.16-.95-.1-.33.05-.67.21-.9.49-.23.28-.32.68-.27,1.05.05.37.22.74.5,1.03.27.28.63.49,1.01.64.76.3,1.61.34,2.43.53.06.01.11.03.16.04-.74.18-1.48.38-2.08.81-.32.23-.6.52-.79.85-.19.33-.3.71-.27,1.08.03.37.19.71.43.96.24.25.56.43.89.43.33.01.64-.13.87-.32.23-.19.41-.42.55-.66.56-.93.79-1.8.87-2.4.02-.13.03-.24.03-.34v-.17s-.01.03-.02.04Z"/>
          <path class="cls-3" d="m21.39,37.67s0,.01,0,.03c0,.01,0,.03,0,.05,0,.04,0,.08,0,.13,0,.02,0,.05,0,.07,0,0,0-.01.01-.02v-.27Z"/>
          <path class="cls-3" d="m21.73,38.05c.03.05.04.09.04.09-.01,0-.11-.14-.29-.36,0,.01-.02.11-.08.26v2.65c0,.12.09.21.21.21s.21-.09.21-.21v-2.77c-.05.08-.08.13-.09.14Z"/>
          <path class="cls-3" d="m21.8,37.85c-.07-.12-.1-.2-.1-.2,0,0,.05.05.11.15v-1.25c0-.05-.02-.1-.05-.13-.05.29-.06.48-.08.48-.01,0-.03-.17,0-.45,0-.02,0-.05.01-.07-.03-.02-.06-.04-.09-.04-.03,0-.04.02-.07.03.02.19.02.31.01.31-.01,0-.03-.11-.07-.29-.05.04-.09.09-.09.16v1.01s.08.1.11.14c.11.15.18.27.22.34,0-.02.02-.06.05-.14,0-.01.02-.04.03-.05Z"/>
          <path class="cls-3" d="m21.4,37.92c.04-.09.07-.14.08-.14,0-.01-.02-.02-.03-.03-.01-.02-.04-.04-.05-.06v.24Z"/>
          <path class="cls-3" d="m21.83,37.9s0,0,0,.01v2.77c0,.12-.09.21-.21.21s-.21-.09-.21-.21v-2.65s0,.02,0,.03v2.62c0,.12.1.22.22.22s.22-.1.22-.22v-2.78s0,0,0,0Z"/>
          <path class="cls-3" d="m21.39,37.94s0-.01,0-.02v-.24s0,0,0-.01h0v.27Z"/>
          <path class="cls-3" d="m21.4,37.56v-1.01c0-.07.04-.12.09-.16,0,0,0,0,0,0-.05.04-.09.1-.09.17v1s0,0,0,.01Z"/>
          <path class="cls-3" d="m21.76,36.41s.05.08.05.13v1.25s0,0,0,.01c0,0,0,0,0,0v-.17h0v-1.09c0-.06-.02-.11-.06-.15,0,0,0,.01,0,.02Z"/>
          <path class="cls-3" d="m21.54,36.36s.04-.03.07-.03c.04,0,.06.02.09.04,0,0,0,0,0,0-.03-.02-.06-.04-.09-.04-.03,0-.04.02-.07.03,0,0,0,0,0,0Z"/>
          <path class="cls-3" d="m21.7,36.37s-.01.05-.01.07c-.03.28,0,.45,0,.45.02,0,.03-.19.08-.48,0,0,0-.01,0-.02.05-.26.12-.61.27-.97.3-.78.78-1.29.75-1.31,0,0-.14.11-.31.33-.17.22-.38.55-.54.94-.14.36-.21.7-.24.97,0,0,0,0,0,0Z"/>
          <path class="cls-3" d="m21.48,36.39c.04.18.06.29.07.29.01,0,.01-.12-.01-.31,0,0,0,0,0,0,0-.03,0-.06-.01-.09-.04-.25-.13-.6-.29-.96-.16-.36-.35-.66-.52-.86-.16-.2-.28-.31-.29-.3-.03.02.4.49.71,1.2.18.41.28.79.33,1.04,0,0,0,0,0,0Z"/>
          <path class="cls-3" d="m21.85,37.85c.05-.08.1-.17.18-.28.2-.3.51-.68.92-1.03.41-.35.85-.59,1.17-.74.32-.15.54-.21.53-.23,0,0-.06,0-.15.03-.1.02-.24.07-.41.13-.34.13-.78.37-1.21.73-.42.36-.73.76-.92,1.07-.07.11-.1.19-.14.27,0,0,0,0,0,0,0,0,0,0,0,0,0,0,0,0,0,0,0,.01.02.03.03.04Z"/>
          <path class="cls-3" d="m21.8,37.85s-.02.04-.03.05c-.03.08-.05.12-.05.14,0,0,0,0,0,0,.01,0,.04-.05.09-.14,0,0,0,0,0-.01,0-.01-.02-.03-.02-.04Z"/>
          <path class="cls-3" d="m21.97,38.15c.18.3.45.7.79,1.11.34.41.67.76.92,1,.25.24.42.37.43.36.01-.01-.14-.16-.38-.41-.24-.25-.56-.6-.89-1.02-.33-.41-.61-.8-.8-1.09-.07-.1-.13-.19-.18-.26,0-.01-.02-.03-.03-.04,0,0,0,0,0-.01-.06-.09-.1-.15-.11-.15,0,0,.03.08.1.2,0,.01.01.03.02.04,0,0,0,0,0,0,0,0,0,0,0,.01,0,0,0,0,0,0,.04.07.08.14.13.23Z"/>
          <path class="cls-3" d="m21.36,37.52c-.17-.23-.39-.48-.67-.74-.35-.33-.71-.58-.98-.75-.27-.16-.45-.24-.45-.23,0,.01.16.11.42.29.26.18.6.44.95.76.32.3.57.59.76.82,0,0,0,0,0,.01.02.02.04.04.05.06,0,.01.02.02.03.03,0,0,0,0,0,0s0,0,0,0c.17.22.28.37.29.36,0,0-.01-.04-.04-.09,0,0,0,0,0,0-.04-.08-.11-.19-.22-.34-.03-.04-.08-.09-.11-.14,0,0,0,0,0-.01,0,0,0,0,0,0,0,0-.01-.01-.01-.02,0,0,0,0,0,0Z"/>
          <path class="cls-3" d="m21.48,37.77s0,0,0,0c0,0-.04.06-.08.14,0,0,0,.01,0,.02,0,0,0,.01-.01.02,0,0,0,0,0,0-.04.07-.08.16-.14.27-.15.29-.38.67-.68,1.06-.31.39-.63.7-.87.91-.24.21-.41.33-.4.34,0,0,.18-.09.44-.29.26-.2.59-.51.9-.9.31-.39.53-.79.67-1.09.03-.06.05-.11.07-.16,0,0,0,0,0,0,0-.01.01-.03.02-.04,0-.01,0-.02,0-.03.06-.15.09-.25.08-.26,0,0,0,0,0,0Z"/>
          <path class="cls-3" d="m16.48,43.18s2.2.05,4.91.05,4.91-.02,4.91-.05-2.2-.05-4.91-.05-4.91.02-4.91.05Z"/>
          <path class="cls-3" d="m29.94,21.8c-.02.08-.03.15-.05.23,0,.02-.01.03-.02.05,0,0,0,.01,0,.02-.19.74-.47,1.33-.81,1.81-.02.03-.05.07-.07.1-.08.1-.15.2-.23.29-.78.91-1.72,1.31-2.29,1.47-.32.09-.52.11-.52.11,0,0,0,0,0,0,0,.29-.03.62-.05.97-.03.46-.08.94-.11,1.42-.03.36-.05.71-.07,1.04-.05,1.1-.35,2.23.06,3.25.46,1.11,1.58,1.92,2.77,2,1.2.08,2.42-.56,3.02-1.6.03-.05.04-.11.07-.16.4-.79.46-1.78-.01-2.53-.05-.08-.1-.15-.16-.22-.24-.32-.51-.62-.57-1.01-.02-.16,0-.32.04-.47.11-.44.4-.87.4-1.33,0-.64-.52-1.15-.81-1.72-1.02-2.02.93-4.66-.17-6.64,0,0,0,.18-.07.78,0,0,0,0,0,0-.05.43-.11,1.09-.35,2.13Z"/>
        </g>
      </g>
      <path class="cls-3" d="m44.44,22.29s-.02-.12-.04-.36c-.02-.26-.05-.61-.08-1.05-.02-.23-.03-.49-.05-.77-.03-.28-.09-.59-.15-.92-.11-.66-.21-1.44-.47-2.27-.39-1.7-1.2-3.71-2.46-5.84-1.27-2.12-3.1-4.33-5.59-6.21-2.48-1.86-5.61-3.44-9.22-4.07-3.58-.61-7.63-.5-11.48.96-.98.31-1.9.8-2.85,1.25-.9.54-1.84,1.04-2.68,1.72-.89.61-1.66,1.37-2.48,2.11-.73.81-1.51,1.61-2.14,2.53-1.3,1.81-2.43,3.81-3.12,6.02-.71,2.19-1.09,4.52-1.13,6.89.03,2.37.41,4.7,1.12,6.89.69,2.21,1.82,4.21,3.12,6.02.63.92,1.4,1.72,2.14,2.53.81.73,1.59,1.5,2.48,2.11.84.68,1.78,1.18,2.68,1.72.95.45,1.87.94,2.85,1.25,3.85,1.47,7.9,1.58,11.48.96,3.61-.64,6.74-2.22,9.22-4.07,2.49-1.88,4.32-4.09,5.59-6.21,1.26-2.13,2.06-4.14,2.46-5.84.26-.84.36-1.61.47-2.27.05-.33.11-.64.15-.92.02-.28.04-.54.05-.77.03-.44.06-.78.08-1.05.02-.24.04-.36.04-.36s.01.12,0,.36c0,.26-.02.61-.03,1.05,0,.23-.02.49-.03.78-.02.28-.08.59-.12.93-.09.67-.18,1.45-.43,2.3-.37,1.72-1.15,3.77-2.4,5.94-1.26,2.16-3.1,4.42-5.62,6.35-2.51,1.91-5.68,3.54-9.36,4.21-3.65.65-7.78.55-11.72-.94-1-.32-1.95-.81-2.92-1.27-.92-.55-1.89-1.06-2.74-1.75-.91-.62-1.71-1.4-2.54-2.15-.75-.83-1.54-1.64-2.19-2.59-1.33-1.85-2.5-3.9-3.2-6.16-.73-2.24-1.12-4.63-1.15-7.05.03-2.42.42-4.81,1.16-7.05.71-2.26,1.87-4.31,3.2-6.15.65-.94,1.44-1.76,2.19-2.59.83-.75,1.63-1.53,2.54-2.15.86-.69,1.82-1.2,2.74-1.75.97-.46,1.91-.96,2.92-1.27C18.69-.17,22.82-.27,26.47.38c3.68.67,6.85,2.3,9.36,4.21,2.52,1.93,4.35,4.19,5.62,6.35,1.25,2.17,2.04,4.21,2.4,5.94.24.85.33,1.63.43,2.3.04.34.1.64.12.93,0,.28.02.54.03.78.01.44.02.79.03,1.05,0,.24,0,.36,0,.36Z"/>
    </g>
  </g>
</svg>