<?xml version="1.0" encoding="UTF-8"?>
<svg id="Layer_2" data-name="Layer 2" xmlns="http://www.w3.org/2000/svg" viewBox="0 0 42.97 43.1">
  <defs>
    <style>
      .cls-1 {
        fill: none;
      }

      .cls-1, .cls-2, .cls-3, .cls-4, .cls-5, .cls-6, .cls-7, .cls-8, .cls-9, .cls-10, .cls-11 {
        stroke-width: 0px;
      }

      .cls-3 {
        fill: #263238;
      }

      .cls-4 {
        fill: #455a64;
      }

      .cls-5 {
        fill: #e0e0e0;
      }

      .cls-6 {
        fill: #fff;
      }

      .cls-7 {
        fill: #ffbe9d;
      }

      .cls-8 {
        fill: #fafafa;
      }

      .cls-9 {
        fill: #ebebeb;
      }

      .cls-10 {
        fill: #eb996e;
      }

      .cls-11 {
        fill: #00bcd4;
      }
    </style>
  </defs>
  <g id="Device">
    <g>
      <ellipse class="cls-6" cx="21.61" cy="21.47" rx="21.32" ry="21.27"/>
      <path class="cls-3" d="m42.96,21.55s-.02-.12-.04-.35c-.02-.26-.04-.59-.08-1.01-.02-.23-.03-.47-.05-.74-.03-.27-.09-.57-.14-.89-.11-.64-.21-1.39-.45-2.2-.38-1.64-1.16-3.58-2.38-5.64-1.23-2.05-3-4.18-5.4-6-2.4-1.8-5.42-3.32-8.91-3.94-3.46-.59-7.37-.48-11.09.93-.95.3-1.84.77-2.75,1.21-.87.52-1.78,1.01-2.59,1.66-.86.59-1.61,1.33-2.39,2.04-.71.79-1.45,1.55-2.07,2.45-1.26,1.74-2.35,3.68-3.01,5.81-.69,2.12-1.06,4.37-1.09,6.65.03,2.29.4,4.54,1.09,6.66.66,2.13,1.76,4.07,3.01,5.81.61.89,1.36,1.66,2.07,2.45.79.71,1.54,1.45,2.39,2.04.81.66,1.72,1.14,2.59,1.66.92.44,1.81.91,2.75,1.21,3.72,1.42,7.63,1.53,11.09.93,3.49-.61,6.51-2.14,8.91-3.94,2.4-1.81,4.17-3.95,5.4-6,1.22-2.06,1.99-4,2.38-5.64.25-.81.35-1.55.45-2.2.13-.64.17-1.19.19-1.63.03-.42.06-.76.08-1.01.02-.23.04-.35.04-.35,0,0,.01.12,0,.35,0,.26-.01.59-.03,1.02,0,.45-.03,1-.14,1.65-.09.65-.17,1.4-.41,2.22-.36,1.67-1.11,3.64-2.32,5.74-1.22,2.09-3,4.28-5.43,6.14-2.42,1.85-5.49,3.42-9.05,4.07-3.53.62-7.52.53-11.34-.91-.97-.31-1.88-.78-2.82-1.23-.89-.53-1.82-1.03-2.65-1.7-.88-.6-1.65-1.35-2.45-2.08-.73-.8-1.49-1.59-2.12-2.5-1.29-1.78-2.41-3.77-3.09-5.95C.41,26.2.03,23.89,0,21.55c.03-2.34.41-4.65,1.12-6.82.68-2.18,1.81-4.17,3.09-5.95.63-.91,1.39-1.7,2.12-2.5.8-.73,1.57-1.48,2.45-2.08.83-.67,1.76-1.16,2.65-1.7.94-.45,1.85-.92,2.82-1.23,3.81-1.43,7.8-1.53,11.34-.91,3.56.65,6.63,2.22,9.05,4.07,2.43,1.86,4.21,4.05,5.43,6.14,1.21,2.1,1.97,4.07,2.32,5.74.24.82.32,1.57.41,2.22.04.32.09.62.12.9,0,.27.02.52.03.75.01.43.02.76.03,1.02,0,.23,0,.35,0,.35Z"/>
    </g>
  </g>
  <g id="Layer_17" data-name="Layer 17">
    <g>
      <path class="cls-1" d="m38.35,18.45s.03,0,.07-.01c-.02,0-.04.01-.07.01Z"/>
      <path class="cls-1" d="m21.61.2C15.82.2,10.58,2.51,6.74,6.25h12.62c.34,0,.62.28.62.62v.28s-.01.06-.02.1h13.34c1.13,0,2.09.57,2.45,1.37h.47c.97,0,1.79.86,2.06,2.03.07,0,.14,0,.2.03.15.06.25.23.24.38,0,.15,0,.3,0,.44,0,.58,0,1.15,0,1.68,0,1.07,0,2.04,0,2.85,0,.81,0,1.46,0,1.92,0,.06,0,.11,0,.16,0,.05-.02.1-.03.14-.01.02-.03.03-.04.04-.02.03-.05.06-.08.08-.01,0-.02.03-.03.04-.01,0-.02,0-.04.01,0,0-.01,0-.02,0-.03,0-.06.02-.08.02-.03,0-.05,0-.05,0,0,0-.02,0-.05,0-.03,0-.08,0-.14,0-.12,0-.3,0-.52,0-.06,0-.12,0-.18-.01-.06-.02-.12-.06-.17-.11-.02-.02-.02-.06-.04-.08,0-.01-.01-.02-.02-.03-.01-.03-.03-.05-.04-.08,0-.08,0-.15,0-.23,0-.32,0-.69,0-1.09,0-.81,0-1.78,0-2.85,0-.54,0-1.1,0-1.68,0-.29,0-.59,0-.89,0-.08,0-.15,0-.23v-.11s0-.08.01-.12c.04-.16.2-.28.37-.28.14,0,.27,0,.4,0-.26-1-.94-1.72-1.75-1.72h-.36c.02.07.02.14.03.21h.09v.03c-.02,4.72-.03,8.87-.04,11.85,0,1.48-.01,2.68-.02,3.5,0,.41,0,.72,0,.94,0,.11,0,.19,0,.24,0,.05,0,.08,0,.08v1.89h.03s0,.03,0,.03c0,.91,0,1.68-.01,2.23,0,.27,0,.48,0,.63,0,.07,0,.13,0,.17,0,.04,0,.06,0,.06v.39h.21c.33,0,.6.27.6.6s-.27.6-.6.6h-.21v.6c0,1.13-1.17,2.05-2.61,2.05h-11.29s-.06,0-.19,0c-.13,0-.32,0-.59,0h0s0,0,0,0h-2.45c-.66,1.49-2.15,2.52-3.88,2.49-1.68-.02-3.11-1.05-3.75-2.49h-5.96c3.91,4.71,9.82,7.72,16.43,7.72,11.77,0,21.32-9.52,21.32-21.27S33.39.2,21.61.2Z"/>
      <path class="cls-11" d="m35.75,25.77l-2.96.04c0,.56,0,1.11,0,1.62,0,2.33,0,4.21,0,5.51,0,.65,0,1.15,0,1.49,0,.17,0,.3,0,.39,0,.09,0,.13,0,.13,0,0-.06,0-.19,0-.13,0-.32,0-.59,0,0,.02,0,.04,0,.04,0,0-.06,0-.17,0-.12,0-.29,0-.51,0-.45,0-1.12,0-1.97,0-1.72,0-4.22,0-7.32.01,0,0,0,0,0,0h11.29c1.44,0,2.61-.92,2.61-2.05v-.6h-1.68c-.33,0-.6-.27-.6-.6s.27-.6.6-.6h1.68v-.39s0,0-.02,0c-.02,0-.04,0-.07,0-.07,0-.17,0-.29,0-.13,0-.28,0-.46,0-.18,0-.39,0-.6-.07-.21-.07-.43-.19-.62-.38-.19-.19-.34-.44-.41-.73-.04-.14-.05-.3-.04-.46,0-.08.02-.16.03-.24.02-.08.04-.16.07-.23.11-.31.33-.58.62-.77.28-.18.61-.26.92-.25.31,0,.6,0,.88,0v-1.89s-.02,0-.05,0c-.03,0-.07,0-.12,0Z"/>
      <path class="cls-11" d="m21.16,9.14h.05s.03,0,.03,0h.75v-.02h.03c3.49,0,6.86,0,9.97,0h.03v.02h.78c1.06,0,2.1,0,3.1,0,0-.07-.01-.14-.03-.21h-3.06v-.31h2.95c-.36-.8-1.32-1.37-2.45-1.37h-13.34s0,.06-.02.09c.46,0,.71,0,.71,0s-.25,0-.71,0c-.08.25-.31.43-.58.43H5.31c-.37.44-.72.9-1.05,1.37,1.09,0,2.16,0,3.22,0h13.68Zm6.01-.71c3.26,0,5.9.01,5.9.03s-2.64.03-5.9.03-5.9-.01-5.9-.03,2.64-.03,5.9-.03Z"/>
      <rect class="cls-11" x="20.25" y="35.02" width=".98" height="0"/>
      <path class="cls-11" d="m21.22,24.84h0s0-.11,0-.31H.54c.09.61.2,1.21.34,1.8h20.35c0-.48,0-.98,0-1.49Z"/>
      <path class="cls-11" d="m9.7,35h-4.53s.01.01.02.02h4.51v-.02Z"/>
      <path class="cls-4" d="m21.21,12.92c0-1.22,0-2.46,0-3.73h-.05v3.07h-11.7c0,1.25,0,2.82,0,4.53,0,4.08-.01,7.39-.03,7.39s-.03-3.31-.03-7.39c0-1.71,0-3.28,0-4.53H2.42C1.09,15.02.32,18.09.3,21.35c.5-.71,1.1-1.55,1.75-2.46,1.76-2.46,3.19-4.44,3.2-4.43.01,0-1.4,2.01-3.16,4.46-.67.93-1.29,1.8-1.8,2.51,0,.01,0,.02,0,.04,0,1.04.1,2.06.25,3.06h20.67c-.02-1.83-.1-11.19,0-11.61ZM3.73,18.2c-1.64,2.37-2.98,4.28-2.99,4.28s1.31-1.94,2.94-4.31c1.64-2.37,2.98-4.28,2.99-4.28s-1.31,1.94-2.94,4.31Zm10.58-2.03c1.86-2.13,3.38-3.85,3.39-3.84.01,0-1.49,1.74-3.35,3.88-1.86,2.13-3.38,3.85-3.39,3.84-.01,0,1.49-1.74,3.35-3.88Zm1.37.56c-1.83,1.97-3.32,3.56-3.33,3.55s1.46-1.61,3.29-3.58c1.83-1.97,3.32-3.56,3.33-3.55.01.01-1.46,1.61-3.29,3.58Z"/>
      <path class="cls-4" d="m21.21,9.14h-.05s.03,0,.05,0h0Z"/>
      <path class="cls-3" d="m4.26,9.14s0,0,0,0h3.22c-1.06,0-2.13,0-3.22,0Z"/>
      <path class="cls-3" d="m21.21,9.14h-.05v.04h.05v-.04Z"/>
      <path class="cls-11" d="m19.97,7.25s.02-.06.02-.1v-.28c0-.34-.28-.62-.62-.62H6.74c-.22.22-.43.44-.64.67,1.04,0,2.22,0,3.48,0,4.07,0,7.38.01,7.38.03s-3.3.03-7.38.03c-1.28,0-2.48,0-3.53,0-.11.12-.22.23-.32.35,7.06,0,12.38.01,14.22.02,0-.03.01-.06.02-.09Z"/>
      <path class="cls-11" d="m19.95,7.35c-1.85,0-7.18.01-14.26.02-.12.14-.25.27-.37.41h14.05c.27,0,.5-.18.58-.43Z"/>
      <path class="cls-2" d="m19.26,35.02c.22-.55.42-1.17.42-1.79,0-2.65-2.15-4.8-4.8-4.8s-4.8,2.15-4.8,4.8c0,.63.12,1.23.34,1.78h-.73v.02h1.45c-.24-.53-.37-1.12-.36-1.74,0,0,0,0,0-.01h0c.04-2.3,1.93-4.14,4.24-4.1,2.3.03,4.14,1.92,4.11,4.23h0s0,0,0,.01c0,.58-.13,1.13-.35,1.62h1.47s-.99,0-.99,0Z"/>
      <path class="cls-4" d="m33.64,31.77c0,.33.27.6.6.6h1.89c.33,0,.6-.27.6-.6s-.27-.6-.6-.6h-1.89c-.33,0-.6.27-.6.6Z"/>
      <path class="cls-9" d="m35.92,30.54c0-.15,0-.37,0-.64,0-.54,0-1.3-.01-2.19-.27,0-.56,0-.86,0-.3,0-.62.07-.89.24-.28.18-.49.45-.6.75-.03.07-.05.15-.07.22-.01.08-.03.15-.03.23-.01.15,0,.3.04.44.07.28.22.53.39.71.18.18.4.31.6.38.21.07.41.08.59.08.17,0,.33,0,.45,0,.12,0,.22,0,.29,0,.03,0,.06,0,.08,0,.02,0,.03,0,.03,0,0,0,0-.02,0-.06,0-.04,0-.1,0-.17Z"/>
      <path class="cls-3" d="m34.12,27.91c-.29.19-.51.47-.62.77-.03.08-.05.15-.07.23-.01.08-.03.16-.03.24-.01.16,0,.31.04.46.07.29.23.54.41.73.19.19.41.31.62.38.21.07.42.08.6.07.18,0,.33,0,.46,0,.12,0,.22,0,.29,0,.03,0,.05,0,.07,0,.02,0,.02,0,.02,0s0,0-.03,0c-.02,0-.05,0-.08,0-.07,0-.17,0-.29,0-.13,0-.28,0-.45,0-.17,0-.38,0-.59-.08-.21-.07-.42-.19-.6-.38-.18-.19-.33-.43-.39-.71-.03-.14-.05-.29-.04-.44,0-.08.02-.15.03-.23.02-.07.04-.15.07-.22.11-.3.32-.56.6-.75.27-.17.58-.25.89-.24.3,0,.58,0,.86,0,0,.89,0,1.65.01,2.19,0,.27,0,.49,0,.64,0,.07,0,.13,0,.17,0,.04,0,.06,0,.06,0,0,0-.02,0-.06,0-.04,0-.1,0-.17,0-.15,0-.37,0-.63,0-.55,0-1.33.01-2.23v-.03s-.03,0-.03,0c-.28,0-.58,0-.88,0-.31-.01-.64.07-.92.25Z"/>
      <path class="cls-11" d="m32.81,8.93h3.42c.81,0,1.49.72,1.75,1.72h.06c.08,0,.15,0,.23,0,0,0,.02,0,.03,0-.28-1.17-1.09-2.03-2.06-2.03h-3.42v.31Z"/>
      <path class="cls-11" d="m38.52,18.4c.05-.03.11-.08.14-.16.04-.08.03-.18.03-.29,0-.46,0-1.11,0-1.92,0-.81,0-1.78,0-2.85,0-.54,0-1.1,0-1.68,0-.15,0-.29,0-.44.01-.14-.07-.28-.2-.33-.06-.03-.14-.02-.21-.02-.08,0-.15,0-.23,0h-.46c-.14,0-.28.1-.32.24-.02.07,0,.14-.01.22,0,.08,0,.15,0,.23,0,.3,0,.6,0,.89,0,.58,0,1.15,0,1.68,0,1.07,0,2.04,0,2.85,0,.4,0,.77,0,1.09,0,.08,0,.16,0,.23,0,.07.04.14.08.19.04.05.1.09.16.1.06.02.12.02.17.02.22,0,.4,0,.52,0,.06,0,.1,0,.14,0,.03,0,.05,0,.05,0,.02,0,.05,0,.07-.01.03,0,.06-.01.1-.04Zm-1-.8s-.03-1.36-.03-3.03.01-3.03.03-3.03.03,1.36.03,3.03-.01,3.03-.03,3.03Z"/>
      <path class="cls-11" d="m38.64,18.29s-.05.06-.08.08c.03-.02.06-.05.08-.08Z"/>
      <path class="cls-11" d="m37.26,18.25s-.01-.02-.02-.03c0,.01,0,.02.02.03Z"/>
      <path class="cls-11" d="m38.49,18.42s0,0-.02,0c0,0,.01,0,.02,0Z"/>
      <path class="cls-3" d="m38.04,10.65h-.06c-.13,0-.27,0-.4,0-.17,0-.33.12-.37.28-.01.04-.01.08-.01.12v.11c0,.08,0,.15,0,.23,0,.3,0,.6,0,.89,0,.58,0,1.15,0,1.68,0,1.07,0,2.04,0,2.85,0,.4,0,.77,0,1.09,0,.08,0,.16,0,.23,0,.03.03.05.04.08,0,.01,0,.02.02.03.01.03.02.06.04.08.05.05.11.09.17.11.06.02.13.01.18.01.22,0,.4,0,.52,0,.06,0,.1,0,.14,0,.03,0,.05,0,.05,0s-.02,0-.05,0c-.03,0-.08,0-.14,0-.12,0-.3,0-.52,0-.06,0-.12,0-.17-.02-.06-.02-.11-.05-.16-.1-.04-.05-.07-.12-.08-.19,0-.07,0-.15,0-.23,0-.32,0-.69,0-1.09,0-.81,0-1.78,0-2.85,0-.54,0-1.1,0-1.68,0-.29,0-.59,0-.89,0-.08,0-.15,0-.23,0-.08,0-.15.01-.22.03-.14.17-.24.32-.24h.46c.08,0,.15,0,.23,0,.08,0,.15,0,.21.02.13.05.21.19.2.33,0,.15,0,.3,0,.44,0,.58,0,1.15,0,1.68,0,1.07,0,2.04,0,2.85,0,.81,0,1.46,0,1.92,0,.11.01.22-.03.29-.03.08-.09.13-.14.16-.04.02-.07.03-.1.04-.04,0-.07.01-.07.01,0,0,.02,0,.05,0,.02,0,.05-.02.08-.02,0,0,0,0,.02,0,.01,0,.02,0,.04-.01.01,0,.02-.03.03-.04.03-.02.05-.05.08-.08.01-.02.03-.02.04-.04.02-.04.03-.09.03-.14,0-.05,0-.1,0-.16,0-.46,0-1.11,0-1.92,0-.81,0-1.78,0-2.85,0-.54,0-1.1,0-1.68,0-.15,0-.29,0-.44.01-.16-.08-.32-.24-.38-.07-.03-.14-.03-.2-.03,0,0-.02,0-.03,0-.08,0-.15,0-.23,0Z"/>
      <path class="cls-3" d="m15,30.41c1.62.02,2.91,1.35,2.89,2.96l1.24.02c.03-2.3-1.81-4.19-4.11-4.23-2.3-.03-4.2,1.8-4.24,4.1l1.24.02c.03-1.61,1.36-2.9,2.97-2.88Z"/>
      <path class="cls-3" d="m19.13,33.39h0l-1.24-.02s0,0,0,.01c-.02,1.62-1.35,2.91-2.97,2.89-1.62-.02-2.91-1.35-2.89-2.97,0,0,0,0,0-.01l-1.24-.02h0s0,0,0,.01c0,.62.13,1.21.36,1.74.64,1.44,2.07,2.47,3.75,2.49,1.73.02,3.23-1,3.88-2.49.22-.5.35-1.05.35-1.62,0,0,0,0,0-.01Z"/>
      <path class="cls-8" d="m14.93,35.13c-.99-.01-1.77-.83-1.76-1.81h0l-1.15-.02c-.02,1.62,1.27,2.95,2.89,2.97,1.62.02,2.95-1.27,2.97-2.89l-1.15-.02c-.01.99-.83,1.77-1.81,1.76Z"/>
      <path class="cls-5" d="m15,30.41c-1.62-.02-2.94,1.26-2.97,2.88,0,0,0,0,0,.01l1.15.02c.01-.99.83-1.77,1.81-1.76s1.77.83,1.76,1.81h0l1.15.02s0,0,0-.01c.02-1.61-1.27-2.94-2.89-2.96Z"/>
      <path class="cls-3" d="m14.93,35.13c.99.01,1.8-.77,1.81-1.76h0c.01-.99-.77-1.8-1.76-1.81s-1.8.77-1.81,1.76h0c-.01.99.77,1.8,1.76,1.81Z"/>
      <path class="cls-3" d="m20.66,7.34s-.25,0-.71,0c-1.84,0-7.16-.01-14.22-.02-.01.02-.03.03-.04.05,7.08,0,12.41-.01,14.26-.02.46,0,.71,0,.71,0Z"/>
      <path class="cls-3" d="m9.42,16.79c0,4.08.01,7.39.03,7.39s.03-3.31.03-7.39c0-1.71,0-3.28,0-4.53h-.04c0,1.25,0,2.82,0,4.53Z"/>
      <path class="cls-3" d="m.74,22.48s1.35-1.91,2.99-4.28c1.64-2.37,2.96-4.3,2.94-4.31s-1.35,1.91-2.99,4.28c-1.64,2.37-2.96,4.3-2.94,4.31Z"/>
      <path class="cls-3" d="m5.25,14.46s-1.45,1.97-3.2,4.43c-.65.91-1.25,1.75-1.75,2.46,0,.03,0,.05,0,.08.51-.71,1.13-1.58,1.8-2.51,1.76-2.46,3.17-4.45,3.16-4.46Z"/>
      <path class="cls-3" d="m17.7,12.34s-1.53,1.71-3.39,3.84c-1.86,2.13-3.36,3.87-3.35,3.88.01,0,1.53-1.71,3.39-3.84,1.86-2.13,3.36-3.87,3.35-3.88Z"/>
      <path class="cls-3" d="m15.63,16.7c-1.83,1.97-3.3,3.57-3.29,3.58s1.5-1.58,3.33-3.55c1.83-1.97,3.3-3.57,3.29-3.58-.01-.01-1.5,1.58-3.33,3.55Z"/>
      <path class="cls-11" d="m4.25,30.69c-.1,0-.2,0-.32,0-.15,0-.31,0-.49,0,.01.02.02.84.03,1.9.24.4.49.79.76,1.16,0-.28,0-.58,0-.91,0-1.19.01-2.15.03-2.16Z"/>
      <path class="cls-11" d="m8.54,32.12s.05,0,.12-.03c-.04,0-.08.03-.12.03Z"/>
      <path class="cls-11" d="m5.13,34.64c0-.28,0-.55,0-.81,0-1.03,0-1.86,0-2.44,0-.14,0-.27,0-.38,0-.11-.05-.2-.11-.24-.06-.05-.11-.07-.15-.08-.04,0-.06,0-.06,0,0,0-.02,0-.06,0-.04,0-.1,0-.17,0-.09,0-.21,0-.34,0,.01,0,.03.97.03,2.16,0,.35,0,.68,0,.98.25.35.51.7.78,1.04.05-.06.08-.13.07-.21Z"/>
      <path class="cls-11" d="m2.63,30.7s.01.18.02.45c.24.47.5.92.77,1.36,0-1.01.01-1.79.03-1.81-.24,0-.52,0-.81,0Z"/>
      <path class="cls-11" d="m2.43,30.7c.06.13.12.25.18.38,0-.23,0-.37.01-.38-.07,0-.13,0-.2,0Z"/>
      <path class="cls-11" d="m10.42,35c-.22-.55-.34-1.15-.34-1.78,0-2.65,2.15-4.8,4.8-4.8s4.8,2.15,4.8,4.8c0,.63-.2,1.24-.42,1.79h.99s.98,0,.98,0c0-1.31,0-4.42,0-8.69H.88c.36,1.51.87,2.96,1.53,4.33.61,0,1.13,0,1.52,0,.29,0,.51,0,.66,0,.07,0,.13,0,.17,0,.04,0,.06,0,.06,0,0,0,.02,0,.06,0,.04,0,.1.02.16.07.06.05.12.14.12.25,0,.11,0,.24,0,.38,0,.58,0,1.41,0,2.44,0,.26,0,.53,0,.81,0,.09-.03.17-.09.25.03.04.05.08.08.11h5.26Zm-1.32-3.17c-.08.12-.18.19-.27.23-.09.04-.17.05-.22.06-.03,0-.05,0-.06,0-.01,0-.02,0-.02,0,0,0-.03,0-.08,0-.06,0-.13,0-.22,0-.2,0-.48,0-.83,0-.17,0-.37,0-.57,0-.1,0-.22,0-.32-.05-.1-.04-.2-.11-.28-.21-.15-.18-.2-.47-.09-.71.1-.24.36-.42.64-.42.53,0,1.04,0,1.5,0,.12,0,.23,0,.34,0,.11.02.22.06.3.12.17.12.27.31.29.49.02.18-.03.34-.11.46Z"/>
      <path class="cls-6" d="m8.83,32.04c.09-.04.18-.12.26-.23.07-.11.12-.27.1-.44-.02-.17-.11-.34-.28-.46-.08-.06-.18-.09-.28-.11-.1-.01-.22,0-.33,0-.46,0-.97,0-1.5,0-.26,0-.5.16-.59.39-.1.22-.06.48.08.66.07.09.16.15.26.2.1.04.2.05.3.05.2,0,.4,0,.57,0,.34,0,.62,0,.83,0,.09,0,.17,0,.22,0,.05,0,.08,0,.08,0,.04,0,.08-.02.12-.03.05,0,.1-.02.16-.05Z"/>
      <path class="cls-3" d="m8.63,30.76c-.11-.01-.22,0-.34,0-.46,0-.97,0-1.5,0-.28,0-.54.18-.64.42-.11.24-.06.52.09.71.07.09.17.16.28.21.1.04.22.06.32.05.2,0,.4,0,.57,0,.34,0,.62,0,.83,0,.09,0,.17,0,.22,0,.05,0,.08,0,.08,0s-.03,0-.08,0c-.06,0-.13,0-.22,0-.2,0-.48,0-.83,0-.17,0-.37,0-.57,0-.1,0-.2,0-.3-.05-.1-.04-.19-.11-.26-.2-.14-.17-.18-.43-.08-.66.09-.22.33-.39.59-.39.53,0,1.04,0,1.5,0,.11,0,.23,0,.33,0,.1.01.2.05.28.11.16.11.26.29.28.46.02.17-.03.32-.1.44-.08.11-.17.19-.26.23-.07.03-.12.04-.16.05-.07.02-.13.02-.12.03,0,0,0,0,.02,0,.01,0,.03,0,.06,0,.05,0,.13-.02.22-.06.09-.04.19-.11.27-.23.08-.12.13-.28.11-.46-.02-.18-.12-.37-.29-.49-.09-.06-.19-.1-.3-.12Z"/>
      <path class="cls-3" d="m2.63,30.69s0,0,0,0c.29,0,.57,0,.81,0,0,0,0,0,0,0s0,0,0,0c.18,0,.34,0,.49,0,.12,0,.23,0,.32,0h0s0,0,0,0c.13,0,.25,0,.34,0,.07,0,.13,0,.17,0,.04,0,.06,0,.06,0,0,0-.02,0-.06,0-.04,0-.1,0-.17,0-.15,0-.38,0-.66,0-.39,0-.91,0-1.52,0,0,.01.01.02.02.03.07,0,.13,0,.2,0,0,0,0,0,0,0Z"/>
      <path class="cls-3" d="m5.17,34.64c0-.28,0-.55,0-.81,0-1.03,0-1.86,0-2.44,0-.14,0-.27,0-.38,0-.12-.06-.2-.12-.25-.06-.05-.12-.07-.16-.07-.04,0-.06,0-.06,0,0,0,.02,0,.06,0,.04,0,.09.03.15.08.06.05.11.13.11.24,0,.11,0,.24,0,.38,0,.58,0,1.41,0,2.44,0,.26,0,.53,0,.81,0,.08-.03.15-.07.21,0,.01.02.02.02.03.06-.07.1-.16.09-.25Z"/>
      <path class="cls-3" d="m2.63,30.69s0,0,0,0c0,.01-.01.15-.01.38.01.02.02.04.03.07,0-.27,0-.43-.02-.45,0,0,0,0,0,0Z"/>
      <path class="cls-3" d="m3.44,30.69s0,0,0,0c-.01.02-.02.8-.03,1.81.02.03.04.06.05.09,0-1.06-.01-1.88-.03-1.9,0,0,0,0,0,0Z"/>
      <path class="cls-3" d="m4.25,30.69h0s0,0,0,0c-.01,0-.03.97-.03,2.16,0,.33,0,.63,0,.91.02.02.03.04.05.06,0-.29,0-.62,0-.98,0-1.19-.01-2.15-.03-2.16Z"/>
      <path class="cls-3" d="m9.47,12.26h11.7v-3.11h0s-13.68,0-13.68,0h-3.22c-.7.98-1.31,2.02-1.84,3.12h7.05Z"/>
      <path class="cls-3" d="m37.5,14.57c0,1.67.01,3.03.03,3.03s.03-1.36.03-3.03-.01-3.03-.03-3.03-.03,1.36-.03,3.03Z"/>
      <path class="cls-6" d="m16.95,6.94s-3.3-.03-7.38-.03c-1.26,0-2.45,0-3.48,0-.01.02-.03.03-.04.05,1.05,0,2.25,0,3.53,0,4.07,0,7.38-.01,7.38-.03Z"/>
      <path class="cls-6" d="m33.07,8.45s-2.64-.03-5.9-.03-5.9.01-5.9.03,2.64.03,5.9.03,5.9-.01,5.9-.03Z"/>
      <path class="cls-8" d="m31.97,18.46h-.11s.11.08.11.08c0-.03,0-.05,0-.08,0,0,0,0,0,0Z"/>
      <path class="cls-8" d="m22.79,13.09c.02.05.03.14.04.25,0,0,0,0,0,0,.04-.08.02-.18,0-.27-.03-.09-.06-.17-.07-.27,0-.17.11-.33.27-.38-.16-.12-.17-.39-.02-.53.07-.06.16-.1.24-.15.04-.03.09-.06.12-.1l.19-.22c.14-.19.28-.38.5-.44.2-.06.41,0,.62,0,.15,0,.3-.06.45-.08.15-.02.32.02.41.14.05.07.07.17.12.24.11.15.34.17.43.33.07.13.01.29.04.44.03.16.16.27.27.4.11.12.2.29.14.44-.05.13-.21.2-.26.33-.04.1-.01.2-.01.31,0,.1-.04.23-.14.25l-.21.05s0,.09,0,.12c-.05.66-.71.72-.71.72,0,0,0,.26,0,.52l.03.05.02.18h0c.06,0,.09.03.14.05.04.02.08.05.12.07.08.05.15.11.22.19h0s0,.02,0,.02h0s0,.03,0,.04c.09.05.23.14.31.23.12.14,1.85,1.31,1.85,1.31l2.06.59.84.35h0c.06.02.12.02.22.03.29.01.82-.05.88-.05.01,0,.05,0,.09,0,0-.59,0-1.19,0-1.81,0-2.32,0-4.76,0-7.29-3.1,0-6.46,0-9.92,0,0,1.2,0,2.38,0,3.54.26.05.66.16.75.38Z"/>
      <path class="cls-8" d="m29.95,27.77h-.02s.14-.69.14-.69c.02-.13.05-.27.08-.43.01-.07.03-.15.04-.22l-.49-3.38s-.18,0-.47.02c0,.22,0,.48,0,.67,0,.37-.33.42-.39.43.18.31.14.68.14.68l-.4.97c.05.6.11,1.23.17,1.9v.03s-.03,0-.03,0h-.47v-.02c-.03-.31-.06-.61-.09-.9l-.4.97c.81,0,1.55,0,2.19,0,0,0,0,0,0-.01,0,0,0,0,0-.01Z"/>
      <path class="cls-8" d="m29.68,18.86s-.97-.11-1.56-.16c-.59-.05-.92-.26-.92-.26l-1.17-.67h0s.01.07.02.11c.06.41.12.79.17,1.07.02.13.03.24.05.33,0,.08.01.12,0,.12,0,0,0,0,0,0v.03c.51.27,1.05.55,1.63.86h.02s-.01.04-.01.04c-.02.05-.05.1-.08.14.04.02,1.05.31,1.11.39,0,0,.01.02.02.04.72.04,1.36.07,1.48.07.4,0,.62.21.69.52.05-.26.1-.5.14-.71.04-.23.11-.42.18-.57l-1.45-.16-.57.25c-.1.04-.22,0-.26-.1l-.04-.08c-.04-.1,0-.22.1-.26l1.58-.69c-.09-.06-.18-.13-.26-.21l-.04.12-.84-.19Z"/>
      <path class="cls-8" d="m31.99,34.96h0c0-.8,0-2.26,0-4.21,0-.86,0-1.85,0-2.93,0,0,0,0,0,0v.05s-.78-.04-.78-.04c-.33,0-.76,0-1.25,0,0,0,0,.03,0,.03,0,0,0-.02,0-.03-.83,0-1.84,0-2.94,0-2.65,0-4.8-.01-4.96-.03,0,2.64,0,5.05,0,7.17,3.09,0,5.57,0,7.29.01.86,0,1.53,0,1.98,0,.23,0,.4,0,.51,0,.12,0,.18,0,.18,0,0,0,0-.01,0-.04h0Zm-5.01-1.39c-2.71,0-4.91-.01-4.91-.03s2.2-.03,4.91-.03,4.91.01,4.91.03-2.2.03-4.91.03Zm-4.91-1.93s2.19-.03,4.89-.03,4.89.01,4.89.03-2.19.03-4.89.03-4.89-.01-4.89-.03Zm4.92-1.82c-2.71,0-4.91-.01-4.91-.03s2.2-.03,4.91-.03,4.91.01,4.91.03-2.2.03-4.91.03Z"/>
      <polygon class="cls-8" points="31.37 18.75 31.09 18.84 31.16 18.99 31.47 18.86 31.37 18.75"/>
      <path class="cls-8" d="m29.96,27.79c.18,0,.36,0,.52,0l-.52-.02s0,0,0,.01c0,0,0,0,0,.01Z"/>
      <path class="cls-8" d="m31.82,19.79s.05,0,.06,0c.01,0,.02,0,.02,0,0,0-.03,0-.08.02,0,0,0,0,0,0,.04-.01.1-.03.16-.04,0-.13,0-.25,0-.38-.02,0-.04,0-.06-.03-.03-.04-.03-.1-.03-.15h-.02s-.08.26-.08.26c0,0-.11.04-.16-.03-.03-.04-.03-.08-.03-.11l-.26.11s0,.04,0,.04c-.03.03-.06.13-.15.02,0,0,0,0,0,0l-.24.1.77.21s.06-.03.08-.04Z"/>
      <path class="cls-8" d="m23.74,22.65s0-.03,0-.04c.02-.06.08-.09.14-.1.02-.06.05-.13.08-.22-.13-.14-.22-.28-.29-.4-.07.37-.15.62-.21.75,0,0,0,0,.01.01h.03s.24-.01.24-.01Z"/>
      <path class="cls-8" d="m31.98,27.68c0-.08,0-.16,0-.24v.38s0,0,0,0c0-.05,0-.09,0-.14Z"/>
      <path class="cls-8" d="m23.6,14.55v-.18c-.28-.03-.57-.13-.76-.34,0,.27-.02.55-.03.75-.01.18-.16.31-.33.31,0,0,.39.34.46.51.26-.43.55-.78.55-.78l.12-.28Z"/>
      <path class="cls-3" d="m22.04,9.14v.03c0,1.21,0,2.39,0,3.55,0,0,0,0,0,0,0-1.17,0-2.35,0-3.54,3.47,0,6.82,0,9.92,0h0v-.03h.05v-.02h-.03c-3.12,0-6.49,0-9.97,0h-.03v.02h.05Z"/>
      <path class="cls-3" d="m31.98,30.75c0-.88,0-1.86,0-2.93,0,0,0,0,0,0,0,1.09,0,2.07,0,2.93Z"/>
      <path class="cls-3" d="m31.99,34.96s0,.04,0,.04c0,0,0-.01,0-.04h0Z"/>
      <path class="cls-3" d="m31.98,27.68s0,.09,0,.14c0,0,0,0,0,0,0-.18,0-.36,0-.55v.17c0,.08,0,.16,0,.24Z"/>
      <path class="cls-3" d="m31.3,35c-.45,0-1.12,0-1.98,0-1.71,0-4.2,0-7.29-.01,0-2.12,0-4.53,0-7.17,0,0,0,0,0,0,0,2.18,0,3.95,0,5.19,0,.65,0,1.15,0,1.5,0,.17,0,.3,0,.39,0,.08,0,.12,0,.13,3.1,0,5.6,0,7.32-.01.86,0,1.52,0,1.97,0,.22,0,.4,0,.51,0,.11,0,.17,0,.17,0,0,0-.06,0-.18,0-.12,0-.29,0-.51,0Z"/>
      <path class="cls-3" d="m31.97,19.76s0,0,0,0c0-.12,0-.25,0-.38,0,0,0,0,0,0,0,.13,0,.25,0,.38Z"/>
      <path class="cls-3" d="m31.97,18.53h0s0-.05,0-.08h0s0,.05,0,.08Z"/>
      <path class="cls-3" d="m31.97,18.27c0-.59,0-1.2,0-1.81,0,.62,0,1.22,0,1.81h0Z"/>
      <path class="cls-8" d="m32.79,18.81c0,.31,0,.61,0,.91.1,0,.2,0,.3,0l.33-1.18-.64.28Z"/>
      <path class="cls-8" d="m35.45,17.12c.1-.04.22,0,.26.1l.04.08c.04.1,0,.22-.1.26l-1.51.66-.53,1.49c1.08,0,2.32.02,2.32.02,0-2.83.01-6.48.02-10.55-1.01,0-2.06,0-3.14,0,0,.13,0,.25,0,.37,0,3.07,0,6,0,8.71l2.65-1.16Zm-1.32-2.49c-.53.89-.97,1.61-.99,1.6-.01,0,.41-.74.94-1.63.53-.89.97-1.61.99-1.6.01,0-.41.74-.94,1.63Zm-.87.21c.06-.09.14-.21.24-.35.2-.3.48-.71.77-1.18.29-.47.53-.9.71-1.22.08-.15.15-.28.21-.37.05-.09.08-.14.08-.13,0,0-.02.05-.06.14-.04.09-.11.22-.19.38-.17.32-.41.76-.7,1.23-.29.47-.57.88-.79,1.17-.11.15-.19.26-.26.34-.06.08-.1.12-.1.12,0,0,.03-.05.08-.13Z"/>
      <path class="cls-3" d="m32.8,9.17c0,.13,0,.27,0,.4,0-.12,0-.25,0-.37,1.08,0,2.13,0,3.14,0,0,4.07-.01,7.71-.02,10.55h0v6.03s0-.03,0-.08c0-.06,0-.14,0-.24,0-.22,0-.53,0-.94,0-.82,0-2.01.02-3.5.01-2.98.03-7.13.04-11.85v-.03s-.03,0-.03,0h-.06c-1,0-2.04,0-3.1,0v.03Z"/>
      <path class="cls-3" d="m35.87,25.77s.05,0,.05,0h-.17s.09,0,.12,0Z"/>
      <path class="cls-7" d="m31.88,18.26c-.07,0-.6.06-.88.05-.1,0-.16,0-.22-.02l-.22.64c.08.08.18.15.26.21l.34-.15-.07-.16.27-.09.11.11.5-.22s0-.07,0-.1h0s-.11-.08-.11-.08h.11s0,0,0,0h0c0-.06,0-.13,0-.19h0s-.08,0-.09,0Z"/>
      <path class="cls-7" d="m31.35,19.49s0-.02,0-.04l-.14.06s0,0,0,0c.08.11.11,0,.15-.02Z"/>
      <path class="cls-7" d="m31.63,19.44c.05.07.16.03.16.03l.08-.26-.27.12s0,.07.03.11Z"/>
      <path class="cls-7" d="m31.89,19.21s0,.11.03.15c.02.03.04.03.06.03,0,0,0,0,0,0,0-.07,0-.14,0-.22l-.08.04Z"/>
      <path class="cls-11" d="m25.87,16.96c0-.05-.01-.12-.02-.16-.01-.14-.02-.25-.03-.33,0-.08,0-.12,0-.12,0,0,.01.04.02.12.01.09.03.2.04.33.03.25.08.59.14.95h0s1.17.68,1.17.68c0,0,.33.21.92.26.59.05,1.56.16,1.56.16l.84.19.04-.12.22-.64h0s-.84-.36-.84-.36l-2.06-.59s-1.73-1.18-1.85-1.31c-.08-.09-.22-.18-.31-.23,0,.11,0,.22,0,.32l.16.84Z"/>
      <path class="cls-5" d="m28.57,25.82l.4-.97h-.49c.03.31.06.64.09.97Z"/>
      <path class="cls-5" d="m27,27.79c.26,0,.51,0,.76,0l.4-.97c-.07-.7-.13-1.36-.19-1.98h-5.94c0,.93,0,1.82,0,2.65,0,.11,0,.21,0,.32.13-.01,2.3-.03,4.97-.03Z"/>
      <path class="cls-3" d="m24.01,22.13c.08-.24.2-.55.33-.93l-.61.23s0,.06,0,.08c-.01.14-.04.26-.06.38.07.12.16.26.29.4.02-.05.04-.1.06-.16Z"/>
      <path class="cls-3" d="m27.48,21.11c-.03.06-.06.11-.09.17v.02s-.03,0-.03,0c-.15-.05-.32-.11-.48-.17-.17-.06-.32-.12-.49-.18-.43.32-.82.65-1.14.96-.18.18-.33.35-.46.52-.06.08-.1.15-.14.22h3.11c0-.09-.02-.18-.02-.25-.08-.17-.12-.34-.14-.48,0-.07-.01-.14,0-.21.01-.06.04-.12.06-.16.06-.09.13-.13.17-.16,0,0,0,0,.01,0-.07-.04-.18-.1-.26-.18l-.1-.09Z"/>
      <path class="cls-3" d="m27.62,21.71s0,.02,0,.02c0-.01,0-.03,0-.04,0,0,0,.01,0,.02Z"/>
      <path class="cls-3" d="m30.44,20.96c-.13,0-.76-.03-1.48-.07.07.16.22.72.22.78,0,.06-.14.28-.14.28,0,0,.13.18-.16.23l-.19.09s-.12-.03-.05-.16c0,0-.02,0-.02,0,0,0,0,0,0,0h-.15s-.16.04-.21-.02c0,0-.01,0-.03,0,0,.04,0,.08,0,.12.01.14.03.29.04.45h.53c.23,0,.42.19.42.42h0c.29-.01.47-.02.47-.02l.49,3.38c.14-.73.32-1.68.51-2.72.16-.82.31-1.58.43-2.22-.08-.32-.29-.52-.69-.52Z"/>
      <path class="cls-3" d="m25.05,21.18c.19-.18.42-.35.68-.48,0,0,0,0,0,0l-.6.22c-.02.09-.05.17-.07.26Z"/>
      <path class="cls-4" d="m23.74,22.65h-.27c.07.08.16.17.26.26l.07-.12s-.07-.08-.07-.14Z"/>
      <path class="cls-4" d="m27.76,22.65h-3.11s-.03.07-.05.11c.05.04.09.11.06.17-.03.09-.12.13-.21.1l-.08-.03-.16.37c.2.2.36.35.36.35,0,0,2.18-.09,3.29,0-.04-.4-.07-.76-.1-1.08Z"/>
      <path class="cls-4" d="m28.81,22.65h-.53c.03.34.07.74.11,1.18.22.07.36.2.45.34.06,0,.38-.06.39-.43,0-.19,0-.45,0-.67h0c0-.23-.19-.42-.42-.42Z"/>
      <path class="cls-3" d="m23.6,14.38v-.79c-.06.02-.41.04-.4-.36,0-.27.17-.32.3-.31-.02-.07-.04-.14-.04-.22-.04-.27-.03-.55.07-.81.01-.03.08-.18.14-.26,0,0,0,0,0-.01.03-.05.08-.08.12-.13,0,0-.02,0-.03,0,.04-.05.1-.08.15-.13.03-.02.05-.06.09-.08.13-.1.26-.18.41-.22.25-.08.53-.07.76.06.08.04.15.11.2.18.16.1.33.3.27.33l-.06-.07c.2.21.33.5.34.82.01.53.01,1.11,0,1.45l.21-.05c.1-.02.14-.15.14-.25,0-.1-.03-.21.01-.31.05-.13.21-.2.26-.33.06-.15-.03-.32-.14-.44-.11-.12-.24-.24-.27-.4-.03-.15.03-.31-.04-.44-.09-.16-.32-.18-.43-.33-.05-.07-.07-.16-.12-.24-.09-.12-.26-.16-.41-.14-.15.02-.3.07-.45.08-.21.01-.42-.05-.62,0-.22.06-.35.26-.5.44l-.19.22s-.08.07-.12.1c-.08.05-.17.08-.24.15-.14.14-.13.4.02.53-.16.05-.27.22-.27.38,0,.09.04.18.07.27.03.09.04.19,0,.27,0,0,0,0,0,0,.01.19.02.44.01.69.19.2.48.31.76.34Z"/>
      <path class="cls-3" d="m25.53,11.54s.01,0,.02.02l-.02-.02s0,0,0,0Z"/>
      <path class="cls-3" d="m23.51,12.8c-.05-.08-.06-.18-.06-.28,0-.31.06-.62.21-.89-.05.07-.13.23-.14.26-.1.26-.11.54-.07.81,0,.07.03.14.04.22.05,0,.09,0,.12.01-.04-.04-.08-.08-.11-.13Z"/>
      <path class="cls-7" d="m25.9,12.39c0-.32-.13-.6-.34-.82h0s-.01-.02-.02-.03c0,0-.04.08-.2.2,0,0-.02,0-.03,0-.01,0-.01.02-.03.03h0c-.19.07-.32.04-.51-.03-.12-.04-.23-.11-.35-.17-.12,0-.24.01-.34.09-.02.01-.03.03-.04.04-.05.06-.05.15-.04.22.02.08.05.15.07.22.04.14.03.29.02.43-.01.2-.03.41-.13.59-.05.08-.15.16-.23.07-.03-.04-.05-.09-.04-.14,0-.03-.02-.04-.02-.07,0,.18-.01.54-.01.55,0,0-.02,0-.03,0v.79s-.02.18-.02.18l.03-.07,1.54.65.03.05c0-.26,0-.52,0-.52v.22c-.66.02-.84-.53-.84-.53.42.3.84.3.84.3,0,0,.66-.06.71-.72,0-.03,0-.08,0-.12.02-.34.01-.91,0-1.45Zm-.48-.16s.08-.03.14-.03c.06,0,.11.03.13.05.03.03.04.05.03.06-.02.02-.09,0-.17-.01-.08,0-.16,0-.17-.02,0-.01,0-.03.04-.05Zm0,.35s.09-.04.15-.04c.06,0,.11.03.14.06.03.03.04.05.03.05-.01.01-.08-.05-.18-.05-.1,0-.18.04-.19.03,0,0,0-.03.04-.05Zm.02.28c.05,0,.09.04.09.09,0,.05-.04.09-.1.09-.05,0-.09-.04-.09-.09,0-.05.04-.09.1-.09Zm-.16.46c-.02-.06-.04-.13-.06-.2-.09-.29-.15-.52-.14-.52s.09.23.18.51c.02.07.04.14.06.2,0,.03.02.06,0,.1,0,.02-.03.03-.04.04-.02,0-.03,0-.04,0-.1,0-.17,0-.17,0,0,0,.06-.01.17-.02.03,0,.05,0,.06-.02,0-.02,0-.05-.01-.08Zm-.21.46s-.03.02-.08.02c-.05,0-.12-.02-.17-.07-.05-.05-.08-.12-.08-.16,0-.05.01-.07.02-.07.02,0,.01.11.1.19.09.08.21.08.21.09Zm-.5-1.19c-.1,0-.18.04-.19.03,0,0,0-.03.04-.05.03-.02.09-.04.15-.04.06,0,.11.03.14.06.03.03.04.05.03.05-.01.01-.08-.05-.18-.05Zm.09.33s-.04.09-.1.09c-.05,0-.09-.04-.09-.09,0-.05.04-.09.1-.09.05,0,.09.04.09.09Zm-.3-.73s.1-.05.17-.05c.07,0,.14.01.18.03.04.02.06.04.06.06-.01.03-.11,0-.23.01-.12,0-.22.03-.23,0,0-.01.01-.04.05-.06Z"/>
      <path class="cls-10" d="m25.18,14.89v-.22s-.41,0-.84-.3c0,0,.18.55.84.53Z"/>
      <path class="cls-3" d="m25.43,13.03c.05,0,.09-.04.1-.09,0-.05-.04-.09-.09-.09-.05,0-.09.04-.1.09,0,.05.04.09.09.09Z"/>
      <path class="cls-3" d="m25.74,12.65s0-.03-.03-.05c-.03-.03-.08-.05-.14-.06-.06,0-.12.02-.15.04-.03.02-.05.04-.04.05.01.01.09-.03.19-.03.1,0,.17.06.18.05Z"/>
      <path class="cls-3" d="m24.48,12.91s.04.09.09.09c.05,0,.09-.04.1-.09,0-.05-.04-.09-.09-.09-.05,0-.09.04-.1.09Z"/>
      <path class="cls-3" d="m24.72,12.58s-.08-.05-.14-.06c-.06,0-.12.02-.15.04-.03.02-.05.04-.04.05.01.01.09-.03.19-.03.1,0,.17.06.18.05,0,0,0-.03-.03-.05Z"/>
      <path class="cls-3" d="m25.07,13.43s.06,0,.17,0c.01,0,.03,0,.04,0,.02,0,.04-.02.04-.04.02-.04,0-.07,0-.1-.02-.06-.04-.13-.06-.2-.09-.29-.17-.51-.18-.51s.05.24.14.52c.02.07.04.14.06.2.01.03.02.06.01.08,0,.02-.03.02-.06.02-.1,0-.17.01-.17.02Z"/>
      <path class="cls-3" d="m24.75,13.55s.02.11.08.16c.05.05.12.07.17.07.05,0,.08-.01.08-.02,0-.02-.12-.01-.21-.09-.09-.08-.08-.19-.1-.19,0,0-.02.03-.02.07Z"/>
      <path class="cls-3" d="m24.54,12.24c.12,0,.22.01.23-.01,0-.01-.02-.04-.06-.06-.04-.02-.11-.04-.18-.03-.07,0-.13.03-.17.05-.04.02-.06.05-.05.06.01.03.11,0,.23,0Z"/>
      <path class="cls-3" d="m25.72,12.31s0-.03-.03-.06c-.03-.03-.08-.05-.13-.05-.06,0-.11,0-.14.03-.03.02-.04.04-.04.05.01.02.09,0,.17.02.08,0,.15.03.17.01Z"/>
      <path class="cls-7" d="m23.66,13.03s-.02-.08-.04-.11c-.03,0-.07-.01-.12-.01-.13,0-.29.04-.3.31-.01.4.34.38.41.36,0,0,.03,0,.03,0,0,0,0-.38.01-.55Zm-.16.4s-.04.02-.07,0c-.06-.02-.11-.11-.11-.2,0-.05.01-.09.03-.12.02-.03.05-.07.08-.07.02,0,.03,0,.04.01.01,0,.02.02.02.03,0,.02,0,.03,0,.03,0,0,0,0,0-.02,0-.01-.02-.03-.05-.02-.02,0-.05.03-.06.06-.02.03-.03.07-.03.11,0,.08.04.16.08.18.02,0,.05,0,.06,0,.01,0,.02-.01.02-.01,0,0,0,.01-.02.02Z"/>
      <path class="cls-10" d="m23.43,13.42s-.08-.1-.08-.18c0-.04,0-.08.03-.11.01-.03.04-.05.06-.06.02,0,.04,0,.05.02,0,.01,0,.02,0,.02,0,0,0,0,0-.03,0,0,0-.02-.02-.03-.01,0-.03-.01-.04-.01-.03,0-.07.03-.08.07-.02.04-.03.08-.03.12,0,.09.04.18.11.2.03,0,.06,0,.07,0,.01-.01.02-.02.02-.02,0,0,0,0-.02.01-.01,0-.04,0-.06,0Z"/>
      <path class="cls-3" d="m23.91,11.37s.06-.05.09-.08c-.03.02-.06.05-.09.08Z"/>
      <path class="cls-3" d="m25.3,11.75s.03,0,.03,0c.16-.12.2-.19.2-.2,0,0,0,0,0,0l.02.02h0s.06.08.06.08c.07-.04-.1-.23-.27-.33.03.04.06.08.07.12.03.12-.02.26-.13.32Z"/>
      <path class="cls-3" d="m23.51,12.8s.07.09.11.13c.02.03.03.07.04.11,0,.02.03.04.02.07,0,.05.01.1.04.14.08.09.18,0,.23-.07.1-.17.12-.38.13-.59,0-.14.02-.29-.02-.43-.02-.08-.05-.15-.07-.22-.02-.08-.01-.16.04-.22,0,0,.02-.02.04-.04.09-.08.22-.1.34-.09-.04-.02-.07-.04-.11-.05-.16-.06-.34-.07-.51-.03-.04.04-.09.07-.12.13,0,0,0,0,0,.01-.15.27-.21.58-.21.89,0,.1,0,.19.06.28Z"/>
      <path class="cls-3" d="m24.29,11.52s.07.03.11.05c.12.06.23.12.35.17.19.07.31.1.51.04h0s.02-.03.03-.03c.1-.06.16-.2.13-.32-.01-.05-.04-.08-.07-.12-.05-.07-.12-.14-.2-.18-.23-.12-.51-.13-.76-.06-.15.05-.28.13-.41.22-.03.02-.06.05-.09.08-.05.04-.1.08-.15.13,0,0,.02,0,.03,0,.17-.04.35-.03.51.03Z"/>
      <path class="cls-11" d="m26.23,19.28c-.02-.09-.04-.2-.06-.32-.05-.27-.12-.65-.18-1.07-.05-.35-.09-.66-.12-.92l-.16-.84c-.01.68-.03,1.35-.07,1.98-.02.32-.04.64-.08.94.22.12.47.25.71.38v-.03s-.02-.04-.03-.12Z"/>
      <path class="cls-11" d="m23.21,15.7s0,0,0,0c0,0,0,0,0,0Z"/>
      <path class="cls-11" d="m23.42,15.47s-.02.02-.04.03c-.02.01-.03.02-.05.04,0,0,0,.01-.01.01.04-.04.08-.08.13-.11,0,0-.01,0-.03.02Z"/>
      <path class="cls-11" d="m23.14,15.82s0,0,0,0c.03-.08.07-.15.11-.2,0,0,.01-.01.02-.02.02-.02.03-.05.05-.06.02-.02.04-.03.05-.04.02,0,.03-.02.04-.03.02-.01.03-.02.03-.02l1.1.37s.06.06.12.2c.07.14.15.35.21.64.03.14.06.3.09.47.03.17.06.36.1.56.02.13.05.28.08.43.06-.82.07-1.71.07-2.66v-.03s.02,0,.02,0l-.02-.18-.03-.05-.03-.05-1.54-.65-.03.07-.12.28s-.29.34-.55.78c0,0,.02.02.02.03,0,.03.05.25.1.57,0-.1.02-.2.04-.28.01-.04.03-.07.04-.1Zm.66-.84c.18.09.42.21.69.33.21.1.4.18.56.25.12-.23.12-.4.13-.4,0,0,0,.04,0,.12-.01.08-.04.19-.1.32v.02s-.03,0-.03,0c-.16-.06-.37-.15-.58-.25-.27-.13-.51-.25-.68-.35-.17-.1-.27-.16-.27-.17,0,0,.11.05.29.13Z"/>
      <path class="cls-11" d="m25.12,20.92l.6-.22c-.1-.04-.21-.07-.3-.11-.06-.03-.12-.05-.19-.08-.04.14-.08.29-.11.42Z"/>
      <path class="cls-11" d="m24.53,20.64c.04-.12.09-.26.13-.39-.03-.01-.06-.03-.09-.04-.05-.03-.11-.06-.16-.09l-.07-.05s-.04-.05-.06-.07c-.03-.05-.07-.1-.1-.15-.12-.2-.2-.41-.29-.61-.08-.2-.16-.4-.24-.59-.15-.38-.27-.74-.39-1.07.22,1.45.47,3.26.45,3.87l.61-.23c.06-.18.13-.36.2-.57Z"/>
      <path class="cls-3" d="m31.49,20.15c.05-.14.1-.23.22-.3.01,0,.02-.02.03-.02l-.77-.21-.96.42,1.45.16s.02-.03.03-.05Z"/>
      <path class="cls-3" d="m33.43,18.53l-.33,1.18c.16,0,.33,0,.5,0l.53-1.49-.7.31Z"/>
      <path class="cls-3" d="m31.82,19.8c-.05.02-.12.06-.19.14-.14.16-.25.46-.31.83-.14.76-.34,1.79-.55,2.94-.22,1.15-.42,2.18-.57,2.94-.07.37-.14.67-.18.89-.02.1-.04.17-.05.23l.52.02c.89,0,1.44.01,1.49.02v-.38s0-.17,0-.17c0-2.18,0-4.72,0-7.5,0,0,0,0,0,0-.06.01-.11.02-.16.04Z"/>
      <path class="cls-3" d="m29.95,27.77c.01-.06.02-.14.04-.23.02-.12.05-.28.08-.46l-.14.69h.02Z"/>
      <path class="cls-3" d="m31.98,27.87v-.05s-.31,0-.78.01l.78.04Z"/>
      <path class="cls-3" d="m35.92,19.74s-1.25-.02-2.32-.02c-.17,0-.34,0-.5,0-.11,0-.21,0-.3,0,0,2.22,0,4.27,0,6.1l2.96-.04h.17v-6.03h0Z"/>
      <path class="cls-3" d="m31.49,20.15c.04-.08.08-.16.13-.22.03-.04.06-.06.09-.08-.12.07-.17.16-.22.3Z"/>
      <path class="cls-4" d="m22.16,18.48v3.87s.24-.04.56-.1c.32-.06.41.1.64.3.03.02.06.06.11.1.06-.14.14-.39.21-.75.02-.12.04-.23.06-.38,0-.02,0-.06,0-.08.02-.6-.23-2.42-.45-3.87,0,0,0,0,0,0-.12-.33-.18-.64-.21-.92-.01-.16-.01-.3,0-.43-.05-.33-.09-.54-.1-.57,0,0-.01-.02-.02-.03-.07-.16-.46-.51-.46-.51.18,0,.32-.14.33-.31.01-.2.02-.48.03-.75,0-.26,0-.51-.01-.69,0-.11-.02-.2-.04-.25-.08-.22-.49-.33-.75-.38,0,0,0,0,0,0,0,1.88,0,3.7,0,5.42l.12.34Z"/>
      <path class="cls-3" d="m25.67,15.77s0,0,0,0c-.05-.07-.13-.12-.2-.17-.04-.03-.07-.05-.11-.07-.03-.02-.06-.03-.08-.03,0,1-.01,1.95-.08,2.82,0,0,0,0,0,.01.02.11.05.23.09.34,0,.03.02.06.03.08,0,0,.02,0,.03.02.02.01.03.03.04.04.03.06.04.12.04.18.03.01.06.03.09.05.04-.3.06-.6.08-.92.04-.74.06-1.52.08-2.33Z"/>
      <path class="cls-3" d="m24.03,22.14c-.06.17-.11.29-.14.37.02,0,.04,0,.06,0l.06.02c.07-.13.18-.31.33-.52.15-.22.35-.48.61-.74.02-.02.04-.03.06-.05.06-.23.13-.48.2-.74-.15-.06-.31-.13-.45-.2-.01,0-.03-.01-.04-.02-.04.13-.09.27-.13.39-.22.63-.41,1.14-.54,1.49Z"/>
      <path class="cls-4" d="m25.22,15.45c0,.94-.01,1.84-.07,2.66.01.07.02.13.04.2.07-.86.09-1.81.08-2.82.03,0,.06.02.08.03.04.02.08.05.11.07.07.05.14.11.2.17,0,0,0,0,0,0-.01.81-.04,1.59-.08,2.33-.02.32-.04.62-.08.92.01,0,.03.02.05.02.04-.3.06-.62.08-.94.03-.63.05-1.29.07-1.98,0-.11,0-.21,0-.32,0,0,0-.02,0-.03h0s0-.02,0-.02h0c-.06-.09-.14-.14-.22-.2-.04-.03-.08-.05-.12-.07-.04-.02-.08-.04-.14-.05h0s-.02,0-.02,0v.03Z"/>
      <path class="cls-4" d="m23.89,22.51c.03-.09.08-.21.14-.37.13-.35.32-.86.54-1.49.04-.12.09-.26.13-.39-.01,0-.02-.01-.04-.02-.04.13-.09.27-.13.39-.07.2-.14.39-.2.57-.13.37-.24.69-.33.93-.02.06-.04.11-.06.16-.03.08-.06.16-.08.22,0,0,0,0,.01,0Z"/>
      <path class="cls-4" d="m24.99,21.22s.04-.03.05-.05c.02-.09.05-.17.07-.26.04-.13.08-.28.11-.42-.01,0-.03-.01-.04-.02-.07.26-.13.51-.2.74Z"/>
      <path class="cls-3" d="m24.97,21.31c-.25.26-.45.51-.61.73-.15.21-.26.38-.34.51l.54.19s0,0,.01,0c.05-.11.11-.22.19-.33.13-.17.28-.35.46-.53.31-.31.69-.63,1.11-.95-.18-.07-.36-.13-.54-.2-.33.15-.61.37-.83.59Z"/>
      <path class="cls-4" d="m25.25,21.91c.32-.31.71-.64,1.14-.96-.02,0-.04-.01-.06-.02-.42.32-.8.64-1.11.95-.18.18-.33.36-.46.53-.08.11-.14.22-.19.33.01,0,.02.02.03.02.02-.03.03-.07.05-.11.04-.07.09-.15.14-.22.13-.17.28-.34.46-.52Z"/>
      <path class="cls-4" d="m24.99,21.22s-.04.03-.06.05c-.25.26-.45.52-.61.74-.15.21-.25.39-.33.52h.02c.08-.12.19-.29.34-.5.16-.22.36-.47.61-.73.22-.22.5-.43.83-.59-.02,0-.04-.02-.06-.02-.27.13-.49.3-.68.48-.02.02-.04.03-.05.05Z"/>
      <path class="cls-11" d="m23.26,15.61s.01-.01.02-.02c0,0-.01.01-.02.02Z"/>
      <path class="cls-11" d="m23.32,15.56s-.07.07-.1.13c0,0,0,0,0,0-.04.06-.07.14-.09.23-.05.19-.06.43-.03.7.03.27.09.59.22.91.12.33.25.69.4,1.07.07.19.15.39.24.59.09.2.18.41.29.61.06.1.12.2.22.26.05.03.1.06.15.09.05.03.11.05.16.08.22.1.45.2.68.29.47.19.95.37,1.46.54.16.05.31.11.46.16.17-.32.33-.63.49-.92-.9-.48-1.73-.93-2.45-1.31h-.01s0-.02,0-.02c0-.06-.01-.12-.04-.17,0-.01-.02-.02-.03-.03,0-.01-.02,0-.04-.03-.02-.03-.03-.06-.04-.09-.04-.12-.06-.23-.08-.34-.05-.22-.08-.44-.12-.64-.03-.2-.06-.39-.09-.56-.03-.17-.05-.33-.08-.47-.06-.28-.13-.5-.2-.63-.03-.07-.06-.12-.08-.15-.02-.03-.03-.05-.03-.05l-1.1-.37c-.05.03-.09.07-.13.11Z"/>
      <path class="cls-11" d="m23.14,15.82s0,0,0,0c0,0,0,0,0,0Z"/>
      <path class="cls-3" d="m23.9,19.23c.09.2.17.41.29.61.03.05.06.1.1.15.02.02.04.05.06.07l.07.05c.05.03.1.06.16.09.03.01.06.03.09.04.01,0,.02.01.04.02.01,0,.03.01.04.02.15.07.3.13.45.2.01,0,.03.01.04.02.06.03.12.06.19.08.1.04.21.08.3.11,0,0,0,0,0,0,.02,0,.04.02.06.02.18.07.36.13.54.2.02,0,.04.01.06.02.16.06.32.12.49.18.16.06.33.11.48.17h.02s.01-.01.01-.01c.03-.06.06-.11.09-.17l-.02-.02.36-.63s0,0,0,0c.02-.05.05-.1.08-.14v-.02s-.01-.01-.01-.01c-.58-.31-1.11-.59-1.62-.86-.24-.13-.49-.26-.71-.38-.01,0-.03-.02-.05-.02-.03-.01-.06-.03-.09-.05,0-.06-.01-.12-.04-.18,0-.01-.02-.03-.04-.04-.01-.01-.04-.02-.03-.02-.01-.02-.02-.05-.03-.08-.04-.11-.06-.23-.09-.34,0,0,0,0,0-.01-.01-.07-.03-.13-.04-.2-.03-.14-.06-.29-.08-.43-.03-.2-.07-.39-.1-.56-.03-.17-.05-.33-.09-.47-.06-.28-.14-.5-.21-.64-.07-.14-.12-.2-.12-.2,0,0,0,.02.03.05.02.03.05.08.08.15.06.14.14.35.2.63.03.14.05.3.08.47.03.17.06.36.09.56.03.2.07.41.12.64.02.11.05.23.08.34.01.03.02.06.04.09.03.03.03.02.04.03,0,0,.02.02.03.03.03.05.04.11.04.17h0s.01.02.01.02c.72.38,1.55.83,2.45,1.31-.16.3-.32.61-.49.92-.15-.05-.3-.1-.46-.16-.5-.18-.99-.36-1.46-.54-.23-.09-.46-.19-.68-.29-.05-.03-.11-.05-.16-.08-.05-.03-.1-.06-.15-.09-.1-.06-.16-.16-.22-.26-.11-.2-.2-.41-.29-.61-.09-.2-.16-.4-.24-.59-.15-.38-.28-.74-.4-1.07-.12-.33-.19-.64-.22-.91-.03-.27-.02-.52.03-.7.02-.09.06-.17.09-.23,0,0,0,0,0,0,.03-.06.07-.1.1-.13,0,0,0-.01.01-.01.02-.02.03-.03.05-.04.02-.01.03-.02.04-.03.02-.02.03-.02.03-.02,0,0-.01,0-.03.02-.01,0-.03.02-.04.03-.02,0-.04.02-.05.04-.02.01-.03.04-.05.06,0,0-.01.01-.02.02-.04.05-.08.12-.11.2,0,0,0,0,0,0-.01.04-.03.06-.04.1-.02.08-.04.18-.04.28,0,.13-.01.27,0,.43.03.28.09.59.21.92,0,0,0,0,0,0,.12.33.24.69.39,1.07.07.19.15.39.24.59Z"/>
      <path class="cls-3" d="m21.21,17.65c0-1.52,0-2.94,0-4.17,0-.19,0-.38,0-.56-.11.42-.02,9.78,0,11.61,0,.2,0,.31,0,.31h0s0-.03,0-.05c0-1.5-.01-4.14-.01-7.15Z"/>
      <path class="cls-3" d="m27.97,24.84c-.04-.4-.07-.77-.11-1.11-1.11-.09-3.29,0-3.29,0,0,0-.16-.16-.36-.35l-.12.28-.68-.24.31-.5c-.1-.09-.19-.18-.26-.25,0,0,0,0-.01-.01-.04-.04-.08-.08-.11-.1-.23-.2-.32-.35-.64-.3-.32.06-.56.1-.56.1v-3.87l-.12-.34c0,2.43,0,4.68,0,6.7h5.94Z"/>
      <path class="cls-3" d="m28.39,23.83c.03.32.06.66.09,1.02h.49s.05-.37-.14-.68c-.09-.14-.23-.27-.45-.34Z"/>
      <path class="cls-3" d="m28.03,21.77l-.1-.34s-.03-.02-.08-.04c0,0,0,0-.02,0-.04.03-.11.08-.16.16-.02.04-.04.08-.05.14,0,.01,0,.03,0,.04,0,.06,0,.11,0,.18.02.14.06.31.14.48h0s0,0,0,0c.12,1.17.31,3.1.53,5.3h.39c-.2-2.32-.38-4.34-.48-5.49h0s0,0,0,0c0-.05,0-.08,0-.13-.06,0-.16,0-.16-.05,0-.07-.03-.25-.03-.25Z"/>
      <path class="cls-4" d="m28.25,27.74h.5v-.03c-.06-.66-.12-1.3-.18-1.9-.03-.34-.06-.66-.09-.97-.03-.36-.06-.7-.09-1.02-.04-.44-.08-.83-.11-1.18-.01-.16-.03-.31-.04-.45,0-.05,0-.08,0-.12,0,0-.02,0-.03,0,0,.04,0,.08,0,.13h0s0,0,0,0c.1,1.15.28,3.17.48,5.49h-.39c-.22-2.2-.41-4.13-.53-5.3h0s0,0,0,0c-.08-.17-.12-.33-.14-.48,0-.06-.01-.12,0-.18,0,0,0-.02,0-.02,0,0,0-.01,0-.02.01-.05.03-.1.05-.14.05-.09.12-.13.16-.16,0,0,0,0,.02,0,0,0,0,0,0,0,0,0,0,0-.01,0-.04.03-.11.07-.17.16-.03.04-.05.1-.06.16-.01.06,0,.13,0,.21.02.15.06.31.14.48,0,.08.02.17.02.25.03.32.06.68.1,1.08.03.35.07.72.11,1.11.06.61.12,1.27.19,1.98.03.29.06.59.09.9v.02Z"/>
      <path class="cls-3" d="m24.46,15.37c.22.1.42.18.58.25h.02s0,0,0,0c.06-.12.09-.24.1-.32.01-.08,0-.12,0-.12-.01,0-.01.17-.13.4-.16-.07-.35-.15-.56-.25-.27-.13-.51-.25-.69-.33-.18-.09-.28-.14-.29-.13,0,0,.1.07.27.17.17.1.41.22.68.35Z"/>
      <path class="cls-3" d="m25.99,17.88c.06.42.13.8.18,1.07.02.13.05.24.06.32.02.08.03.12.03.12,0,0,0,0,0,0,0,0,0-.04,0-.12-.01-.09-.03-.2-.05-.33-.04-.29-.1-.66-.17-1.07,0-.04-.01-.08-.02-.12-.06-.37-.11-.71-.14-.95-.02-.13-.03-.24-.04-.33-.01-.08-.02-.12-.02-.12,0,0,0,.04,0,.12,0,.08.01.19.03.33,0,.05.01.11.02.16.03.26.07.57.12.92Z"/>
      <path class="cls-4" d="m31.47,18.86l-.31.14-.34.15-1.58.69c-.1.04-.15.16-.1.26l.04.08c.04.1.16.15.26.1l.57-.25.96-.42.24-.1.14-.06.26-.11.27-.12h.02s.08-.04.08-.04c0-.18,0-.35,0-.53l-.5.22Z"/>
      <path class="cls-4" d="m34.13,18.23l1.51-.66c.1-.04.15-.16.1-.26l-.04-.08c-.04-.1-.16-.15-.26-.1l-2.65,1.16c0,.18,0,.36,0,.53l.64-.28.7-.31Z"/>
      <path class="cls-7" d="m28.48,22.09h.15s.05-.03.11-.07c.07-.04.16-.13.14-.25-.04-.26-.06-.47-.05-.47.01,0,.06.2.1.47.01.07-.01.14-.05.18.02,0,.03-.01.05-.01.06,0,.1.03.09.05,0,.01-.05,0-.09,0-.04,0-.07,0-.08,0-.03.03-.06.06-.09.08-.06.03-.09.04-.11.04-.07.14.05.16.05.16l.19-.09c.29-.04.16-.23.16-.23,0,0,.14-.22.14-.28,0-.06-.15-.61-.22-.78,0-.02-.02-.03-.02-.04-.06-.08-1.07-.37-1.11-.39,0,0,0,0,0,0l-.36.63.02.02.1.09c.09.08.19.14.26.18,0,0,0,0,0,0,.04.02.08.04.08.04l.1.34s.02.18.03.25c0,.05.1.05.16.05.01,0,.02,0,.03,0,.02,0,.03,0,.03,0,.04.06.21.02.21.02Zm-.02-1.13s.07.01.1.08c.03.07.01.13,0,.13-.02,0-.02-.05-.05-.11-.02-.05-.06-.09-.05-.1Zm.21,1c-.02.07-.05.11-.05.11,0,0,0-.05.02-.11.01-.07.01-.16,0-.27-.04-.21-.11-.38-.09-.38,0,0,.03.04.06.1.03.07.07.16.08.27.02.11.01.22,0,.29Zm.13-.76s-.02-.06-.05-.13c-.02-.07-.06-.12-.05-.13,0-.01.07.03.1.11.03.08,0,.15,0,.15Zm-.57-.06c-.03-.07-.09-.1-.09-.11,0,0,.02,0,.05,0,.03.01.06.04.09.08.02.04.03.09.02.12,0,.03-.02.05-.03.04-.01,0,0-.07-.04-.14Zm.04.16s.08.16.09.38c.01.22-.04.39-.05.39-.02,0,.01-.17,0-.38,0-.21-.05-.38-.04-.38Z"/>
      <path class="cls-10" d="m28.3,22.06s.07-.17.05-.39c0-.22-.08-.38-.09-.38-.02,0,.03.17.04.38.01.21-.02.38,0,.38Z"/>
      <path class="cls-10" d="m28.53,21.3s.05.17.09.38c.02.1.02.2,0,.27,0,.07-.02.11-.02.11,0,0,.03-.03.05-.11.02-.07.03-.18,0-.29-.02-.11-.06-.2-.08-.27-.03-.07-.05-.1-.06-.1Z"/>
      <path class="cls-10" d="m28.85,21.97s0,0-.01,0c0,0,.01-.02.04-.03.04-.05.06-.12.05-.18-.04-.26-.09-.47-.1-.47-.02,0,0,.22.05.47.02.12-.07.21-.14.25-.06.04-.1.06-.11.07,0,0,0,0,0,0,0,0,.01,0,.02,0,.02,0,.06-.01.11-.04.03-.02.06-.05.09-.08Z"/>
      <path class="cls-10" d="m28.84,21.97s0,0,.01,0c.01,0,.04,0,.08,0,.05,0,.09,0,.09,0,0-.01-.03-.05-.09-.05-.02,0-.04,0-.05.01-.03.01-.05.02-.04.03Z"/>
      <path class="cls-10" d="m28.26,21.11s-.06-.07-.09-.08c-.03-.01-.05,0-.05,0,0,.01.06.04.09.11.04.07.03.13.04.14,0,0,.02-.01.03-.04,0-.03,0-.08-.02-.12Z"/>
      <path class="cls-10" d="m28.55,21.04c-.03-.07-.09-.1-.1-.08,0,.01.03.05.05.1.03.05.03.11.05.11.01,0,.04-.06,0-.13Z"/>
      <path class="cls-10" d="m28.69,20.93s.02.06.05.13c.03.07.03.13.05.13.01,0,.03-.07,0-.15-.03-.08-.09-.12-.1-.11Z"/>
      <path class="cls-11" d="m22.02,34.89c0-.09,0-.22,0-.39,0-.34,0-.85,0-1.5,0-1.3,0-3.19,0-5.53,0-4.66,0-11.11-.01-18.28h-.73c0,1.46,0,2.9,0,4.29,0,1.23,0,2.65,0,4.17,0,3.01,0,5.65-.01,7.15,0,5.04,0,8.75,0,10.21.26,0,.45,0,.58,0,.13,0,.19,0,.19,0,0,0,0-.05,0-.13Z"/>
      <path class="cls-3" d="m22.02,34.89c0-.09,0-.22,0-.39,0-.34,0-.85,0-1.5,0-1.24,0-3.02,0-5.19,0,0-.03,0-.03,0s.02,0,.03,0c0-.11,0-.21,0-.32,0-.82,0-1.72,0-2.65,0-2.02,0-4.27,0-6.7,0-1.73,0-3.54,0-5.42,0-1.16,0-2.34,0-3.55v-.03s-.03,0-.03,0h-.81v.05c0,1.27,0,2.51,0,3.73,0,.19,0,.38,0,.56,0-2.57.01-4.31.02-4.31s.02,1.74.02,4.31c0-1.4,0-2.83,0-4.29h.73c0,7.16,0,13.61.01,18.28,0,2.34,0,4.22,0,5.53,0,.65,0,1.16,0,1.5,0,.17,0,.3,0,.39,0,.09,0,.13,0,.13,0,0,0,0,0,0,0,0,0-.04,0-.13Z"/>
      <path class="cls-3" d="m21.24,35.02c0-1.46,0-5.17,0-10.21,0,.83,0,1.32-.01,1.32s-.01-.49-.01-1.33c0,.02,0,.03,0,.05,0,.51,0,1.01,0,1.49,0,4.26,0,7.38,0,8.69h0s0,0,0,0c.27,0,.46,0,.59,0,.13,0,.19,0,.19,0,0,0-.06,0-.19,0-.13,0-.32,0-.58,0Z"/>
      <path class="cls-3" d="m26.96,31.62c-2.7,0-4.89.01-4.89.03s2.19.03,4.89.03,4.89-.01,4.89-.03-2.19-.03-4.89-.03Z"/>
      <path class="cls-3" d="m22.07,33.55s2.2.03,4.91.03,4.91-.01,4.91-.03-2.2-.03-4.91-.03-4.91.01-4.91.03Z"/>
      <path class="cls-3" d="m31.98,27.81c-.05,0-.61-.01-1.49-.02-.16,0-.34,0-.52,0,0,.03,0,.03-.01.04.49,0,.92,0,1.25,0,.47,0,.74,0,.78-.01,0,0,0,0,0,0,0,0,0,0,0,0h0s0,0,0,0c0,0,0,0,0,0Z"/>
      <path class="cls-3" d="m27,27.84c1.1,0,2.11,0,2.94,0,0-.01,0-.02,0-.04-.63,0-1.38,0-2.19,0-.25,0-.5,0-.76,0-2.67,0-4.84.01-4.97.03,0,0-.03,0-.03,0s.02,0,.03,0c0,0,0,0,0,0,.16.01,2.31.03,4.96.03Z"/>
      <path class="cls-3" d="m22.08,29.8s2.2.03,4.91.03,4.91-.01,4.91-.03-2.2-.03-4.91-.03-4.91.01-4.91.03Z"/>
      <path class="cls-4" d="m29.96,27.78s0,0,0-.01c.01-.06.03-.13.05-.23.04-.22.1-.52.18-.89.15-.76.35-1.79.57-2.94.22-1.15.41-2.18.55-2.94.06-.37.18-.67.31-.83.07-.08.14-.12.19-.14,0,0,0,0,0,0,.05-.01.08-.02.08-.02,0,0,0,0-.02,0-.01,0-.04,0-.06,0-.02,0-.05.02-.08.04-.01,0-.02.01-.03.02-.03.02-.06.05-.09.08-.05.05-.08.14-.13.22,0,.02-.02.03-.03.05-.07.16-.14.34-.18.57-.04.21-.09.46-.14.71-.13.65-.27,1.4-.43,2.22-.2,1.04-.37,1.99-.51,2.72-.01.07-.03.15-.04.22-.03.16-.05.3-.08.43-.03.18-.06.33-.08.46-.02.1-.03.17-.04.23,0,0,0,0,0,.01,0,0,0,0,0,.01,0,.02,0,.03,0,.04,0,0,0,.03,0,.03,0,0,0-.02,0-.03,0-.01,0-.02.01-.04,0,0,0,0,0-.01Z"/>
      <path class="cls-3" d="m23.84,22.82s-.02-.02-.03-.03l-.07.12-.31.5.68.24.12-.28.16-.37-.54-.19Z"/>
      <path class="cls-11" d="m32.77,34.43c0-.34,0-.85,0-1.5,0-1.3,0-3.18,0-5.51,0-4.65,0-11.08-.01-18.23h-.73c-.01,12.53-.02,23.03-.02,25.76.26,0,.45,0,.58,0,.13,0,.19,0,.19,0,0,0,0-.05,0-.13,0-.09,0-.22,0-.39Z"/>
      <path class="cls-3" d="m31.99,9.14h-.03v.03h0c0,2.53,0,4.97,0,7.29,0,.61,0,1.22,0,1.81,0,.06,0,.13,0,.19,0,.03,0,.05,0,.08,0,.03,0,.07,0,.1,0,.18,0,.36,0,.53,0,.07,0,.14,0,.22,0,.13,0,.25,0,.38,0,2.78,0,5.31,0,7.5,0,.19,0,.37,0,.55h0c0,1.08,0,2.05,0,2.93,0,1.96,0,3.42,0,4.21h0s0,0,0,0h0c.27,0,.46,0,.59,0,.13,0,.19,0,.19,0,0,0-.06,0-.19,0-.13,0-.32,0-.58,0,0-2.73.01-13.22.02-25.76h.73c0,7.15,0,13.58.01,18.23,0,2.33,0,4.21,0,5.51,0,.65,0,1.15,0,1.5,0,.17,0,.3,0,.39,0,.09,0,.13,0,.13,0,0,0-.04,0-.13,0-.09,0-.22,0-.39,0-.34,0-.84,0-1.49,0-1.3,0-3.18,0-5.51,0-.52,0-1.06,0-1.62,0-1.83,0-3.88,0-6.1,0-.3,0-.6,0-.91,0-.18,0-.36,0-.53,0-2.71,0-5.64,0-8.71,0-.13,0-.26,0-.4v-.03h0-.81Z"/>
      <path class="cls-11" d="m24.57,22.73s0,0-.01,0l-.54-.19h-.02s-.06-.03-.06-.03c-.02,0-.04,0-.06,0,0,0,0,0-.01,0-.06,0-.12.04-.14.1,0,.01,0,.03,0,.04,0,.06.02.11.07.14.01,0,.02.02.03.03l.54.19.08.03c.09.03.18-.02.21-.1.02-.07,0-.13-.06-.17,0,0-.02-.02-.03-.02Z"/>
      <path class="cls-3" d="m33.14,16.23s.45-.71.99-1.6c.53-.89.95-1.62.94-1.63-.01,0-.45.71-.99,1.6-.53.89-.95,1.62-.94,1.63Z"/>
      <path class="cls-3" d="m33.53,14.51c.21-.29.5-.7.79-1.17.29-.47.53-.91.7-1.23.08-.16.15-.29.19-.38.04-.09.06-.14.06-.14,0,0-.03.05-.08.13-.05.1-.12.22-.21.37-.17.32-.42.75-.71,1.22-.29.47-.57.88-.77,1.18-.1.14-.18.26-.24.35-.06.08-.09.13-.08.13,0,0,.04-.04.1-.12.06-.08.15-.2.26-.34Z"/>
      <path class="cls-3" d="m21.22,24.8c0,.84,0,1.33.01,1.33s.01-.49.01-1.32c0-1.5.01-4.14.01-7.15,0-1.52,0-2.94,0-4.17,0-2.57-.01-4.31-.02-4.31s-.02,1.74-.02,4.31c0,1.23,0,2.65,0,4.17,0,3.01,0,5.64.01,7.15Z"/>
    </g>
  </g>
</svg>