<?xml version="1.0" encoding="UTF-8"?>
<svg xmlns="http://www.w3.org/2000/svg" xmlns:xlink="http://www.w3.org/1999/xlink" viewBox="0 0 44.7 44.58">
  <defs>
    <style>
      .cls-1 {
        fill: url(#linear-gradient-2);
      }

      .cls-1, .cls-2, .cls-3, .cls-4 {
        mix-blend-mode: multiply;
      }

      .cls-1, .cls-2, .cls-3, .cls-4, .cls-5, .cls-6, .cls-7, .cls-8, .cls-9 {
        stroke-width: 0px;
      }

      .cls-2 {
        fill: url(#linear-gradient-4);
      }

      .cls-3 {
        fill: url(#linear-gradient-3);
      }

      .cls-4 {
        fill: url(#linear-gradient);
      }

      .cls-10 {
        isolation: isolate;
      }

      .cls-5 {
        fill: #f8f9fc;
      }

      .cls-6 {
        fill: #263238;
      }

      .cls-7 {
        fill: #fff;
      }

      .cls-8 {
        fill: #00bcd4;
      }

      .cls-9 {
        fill: #69bad1;
      }
    </style>
    <linearGradient id="linear-gradient" x1="23.16" y1="19.53" x2="25.73" y2="23.99" gradientUnits="userSpaceOnUse">
      <stop offset=".08" stop-color="#a4a7a6"/>
      <stop offset=".09" stop-color="#a9abaa"/>
      <stop offset=".16" stop-color="#c3c5c4"/>
      <stop offset=".23" stop-color="#d9dada"/>
      <stop offset=".32" stop-color="#eaebea"/>
      <stop offset=".43" stop-color="#f6f6f6"/>
      <stop offset=".58" stop-color="#fdfdfd"/>
      <stop offset="1" stop-color="#fff"/>
    </linearGradient>
    <linearGradient id="linear-gradient-2" x1="21.99" y1="18.97" x2="19.93" y2="24.31" gradientUnits="userSpaceOnUse">
      <stop offset=".03" stop-color="#a4a7a6"/>
      <stop offset=".04" stop-color="#a9abaa"/>
      <stop offset=".11" stop-color="#c3c5c4"/>
      <stop offset=".19" stop-color="#d9dada"/>
      <stop offset=".28" stop-color="#eaebea"/>
      <stop offset=".4" stop-color="#f6f6f6"/>
      <stop offset=".56" stop-color="#fdfdfd"/>
      <stop offset="1" stop-color="#fff"/>
    </linearGradient>
    <linearGradient id="linear-gradient-3" x1="23.16" y1="19.53" x2="25.73" y2="23.99" xlink:href="#linear-gradient"/>
    <linearGradient id="linear-gradient-4" x1="21.99" y1="18.97" x2="19.93" y2="24.31" xlink:href="#linear-gradient-2"/>
  </defs>
  <g class="cls-10">
    <g id="Layer_2" data-name="Layer 2">
      <g id="Device">
        <g>
          <circle class="cls-5" cx="22.71" cy="22.39" r="21.99" transform="translate(-9.18 22.61) rotate(-45)"/>
          <path class="cls-6" d="m44.44,22.29s-.02-.12-.04-.36c-.02-.26-.05-.61-.08-1.05-.02-.23-.03-.49-.05-.77-.03-.28-.09-.59-.15-.92-.11-.66-.21-1.44-.47-2.27-.39-1.7-1.2-3.71-2.46-5.84-1.27-2.12-3.1-4.33-5.59-6.21-2.48-1.86-5.61-3.44-9.22-4.07-3.58-.61-7.63-.5-11.48.96-.98.31-1.9.8-2.85,1.25-.9.54-1.84,1.04-2.68,1.72-.89.61-1.66,1.37-2.48,2.11-.73.81-1.51,1.61-2.14,2.53-1.3,1.81-2.43,3.81-3.12,6.02-.71,2.19-1.09,4.52-1.13,6.89.03,2.37.41,4.7,1.12,6.89.69,2.21,1.82,4.21,3.12,6.02.63.92,1.4,1.72,2.14,2.53.81.73,1.59,1.5,2.48,2.11.84.68,1.78,1.18,2.68,1.72.95.45,1.87.94,2.85,1.25,3.85,1.47,7.9,1.58,11.48.96,3.61-.64,6.74-2.22,9.22-4.07,2.49-1.88,4.32-4.09,5.59-6.21,1.26-2.13,2.06-4.14,2.46-5.84.26-.84.36-1.61.47-2.27.05-.33.11-.64.15-.92.02-.28.04-.54.05-.77.03-.44.06-.78.08-1.05.02-.24.04-.36.04-.36s.01.12,0,.36c0,.26-.02.61-.03,1.05,0,.23-.02.49-.03.78-.02.28-.08.59-.12.93-.09.67-.18,1.45-.43,2.3-.37,1.72-1.15,3.77-2.4,5.94-1.26,2.16-3.1,4.42-5.62,6.35-2.51,1.91-5.68,3.54-9.36,4.21-3.65.65-7.78.55-11.72-.94-1-.32-1.95-.81-2.92-1.27-.92-.55-1.89-1.06-2.74-1.75-.91-.62-1.71-1.4-2.54-2.15-.75-.83-1.54-1.64-2.19-2.59-1.33-1.85-2.5-3.9-3.2-6.16-.73-2.24-1.12-4.63-1.15-7.05.03-2.42.42-4.81,1.16-7.05.71-2.26,1.87-4.31,3.2-6.15.65-.94,1.44-1.76,2.19-2.59.83-.75,1.63-1.53,2.54-2.15.86-.69,1.82-1.2,2.74-1.75.97-.46,1.91-.96,2.92-1.27C18.69-.17,22.82-.27,26.47.38c3.68.67,6.85,2.3,9.36,4.21,2.52,1.93,4.35,4.19,5.62,6.35,1.25,2.17,2.04,4.21,2.4,5.94.24.85.33,1.63.43,2.3.04.34.1.64.12.93,0,.28.02.54.03.78.01.44.02.79.03,1.05,0,.24,0,.36,0,.36Z"/>
        </g>
      </g>
      <g id="Layer_39" data-name="Layer 39">
        <g>
          <path class="cls-6" d="m28.05,39.84h-11.28c-1.36,0-2.46-1.16-2.46-2.59V7.53c0-1.43,1.11-2.58,2.46-2.58h11.28c1.36,0,2.46,1.16,2.46,2.59v29.72c0,1.43-1.11,2.58-2.46,2.58Z"/>
          <path class="cls-8" d="m28.05,6.01h-2.19c-.29,0-.53.26-.53.58v.42c0,.32-.24.58-.53.58h-4.26c-.29,0-.53-.26-.53-.59v-.42c0-.32-.24-.58-.53-.58h-.77s-1.91,0-1.91,0c-.95,0-1.72.81-1.72,1.81v29.01c0,1,.76,1.81,1.71,1.81h11.26c.95,0,1.72-.8,1.72-1.8V7.81c0-1-.76-1.81-1.71-1.81Z"/>
        </g>
        <g>
          <path class="cls-7" d="m18.14,35.89v.71c0,.06-.07.1-.12.07l-.56-.36s-.05-.1,0-.13l.56-.36c.05-.03.12,0,.12.07Z"/>
          <path class="cls-7" d="m22.73,36.24c0,.27-.22.49-.49.49s-.49-.22-.49-.49.22-.49.49-.49.49.22.49.49Z"/>
          <rect class="cls-7" x="26.24" y="35.81" width=".9" height=".91" rx=".45" ry=".45"/>
        </g>
      </g>
      <g id="Layer_40" data-name="Layer 40">
        <g>
          <path class="cls-9" d="m22.71,16.64c-2.33,0-4.23,1.89-4.23,4.23s1.89,4.23,4.23,4.23,4.23-1.89,4.23-4.23-1.89-4.23-4.23-4.23Zm0,6.03c-1,0-1.81-.81-1.81-1.81,0-.68.37-1.27.93-1.58l.88.49.88-.49c.55.31.93.9.93,1.58,0,1-.81,1.81-1.81,1.81Z"/>
          <path class="cls-4" d="m25.84,18.04l-2.25,1.24c.55.31.93.9.93,1.58,0,1-.81,1.81-1.81,1.81v2.4c2.33,0,4.21-1.89,4.21-4.21,0-1.08-.41-2.07-1.08-2.82Z"/>
          <path class="cls-1" d="m20.9,20.86c0-.68.37-1.27.93-1.58l-2.25-1.24c-.67.75-1.08,1.74-1.08,2.82,0,2.33,1.89,4.21,4.21,4.21v-2.4c-1,0-1.81-.81-1.81-1.81Z"/>
        </g>
        <g>
          <path class="cls-7" d="m22.71,16.64c-2.33,0-4.23,1.89-4.23,4.23s1.89,4.23,4.23,4.23,4.23-1.89,4.23-4.23-1.89-4.23-4.23-4.23Zm0,6.03c-1,0-1.81-.81-1.81-1.81,0-.68.37-1.27.93-1.58l.88.49.88-.49c.55.31.93.9.93,1.58,0,1-.81,1.81-1.81,1.81Z"/>
          <path class="cls-3" d="m25.84,18.04l-2.25,1.24c.55.31.93.9.93,1.58,0,1-.81,1.81-1.81,1.81v2.4c2.33,0,4.21-1.89,4.21-4.21,0-1.08-.41-2.07-1.08-2.82Z"/>
          <path class="cls-2" d="m20.9,20.86c0-.68.37-1.27.93-1.58l-2.25-1.24c-.67.75-1.08,1.74-1.08,2.82,0,2.33,1.89,4.21,4.21,4.21v-2.4c-1,0-1.81-.81-1.81-1.81Z"/>
        </g>
      </g>
    </g>
  </g>
</svg>