<?xml version="1.0" encoding="UTF-8"?>
<svg id="Layer_2" data-name="Layer 2" xmlns="http://www.w3.org/2000/svg" viewBox="0 0 42.97 43.1">
  <defs>
    <style>
      .cls-1 {
        fill: none;
      }

      .cls-1, .cls-2, .cls-3, .cls-4, .cls-5, .cls-6, .cls-7, .cls-8 {
        stroke-width: 0px;
      }

      .cls-2 {
        fill: #f8f9fc;
      }

      .cls-3 {
        fill: #263238;
      }

      .cls-4 {
        fill: #455a64;
      }

      .cls-5 {
        fill: #fff;
      }

      .cls-6 {
        fill: #ffbe9d;
      }

      .cls-7 {
        fill: #eb996e;
      }

      .cls-8 {
        fill: #00bcd4;
      }
    </style>
  </defs>
  <g id="Layer_28" data-name="Layer 28">
    <g>
      <g>
        <ellipse class="cls-2" cx="21.61" cy="21.47" rx="21.32" ry="21.27"/>
        <g>
          <path class="cls-1" d="m28.54,15.97s.1-.02.15-.03c-.05,0-.1.02-.15.03Z"/>
          <path class="cls-1" d="m28.41,16s0,0,0,0c0,0,.02,0,.03,0-.01,0-.02,0-.03,0Z"/>
          <path class="cls-1" d="m6.62,36.59c1.22-4.33,1.74-5.23,2.62-5.5l7.33-1.86h0s1.88-1.98,1.88-1.98c0,0,0,0,0,0l.26-.3v-.48s0,0,0,0h0s-4.05-.46-4.26-4.48c-.1-1.94,0-5.95.15-9.59.02-.38.07-.76.14-1.12-.59.02-1.19-.02-1.79-.11-1.12-.17-2.28-.7-2.28-1.86,0-.2.07-.38.18-.54.21-.32.55-.53.93-.59.7-.11,1.11-.62,1.11-.62-.27-.13-.53-.3-.75-.51-.45-.44-.71-1.12-.52-1.71.04-.11.1-.23.21-.27.18-.06.34.12.46.25.41.45.8.65,1.41.58.38-.04.75-.13,1.04-.32.01-.01.02-.03.03-.04.14-.15.28-.29.42-.43,0,0,0,0,0,0h0c1.02-1.04,1.91-1.76,2.82-2.14,1.34-.56,3.58-.8,4.99-.45,1.4.35,2.68,1.47,2.89,2.91.78-.67,1.96-.68,2.92-.31h.02c1.07.36,1.47,1.03,2.17,2.36,0,0,.51,1.18.49,2.1-.02.92-.58,2.11-1.18,2.74-.21,1.02-.36,2.9-.62,3.59,0,0,0,0,0,0,.66.13,1.3.6,1.32,1.94.02,2.58-2.41,2.26-2.72,2.15l-.14,5.88h0l.57.5c.02-.13.04-.2.04-.2l2.14,1.75h0s0,0,0,0l.13.11s.05.04.09.07c.15.11.39.26.66.5.04.03.08.09.11.13l2.79.68,3.57,1s.08.02.23.06c.16.04.39.1.68.18.3.08.67.17,1.1.32.11.04.22.08.34.12,1.48-2.9,2.33-6.17,2.33-9.64C42.93,9.72,33.39.2,21.61.2S.3,9.72.3,21.47c0,5.91,2.42,11.26,6.33,15.12Z"/>
          <polygon class="cls-5" points="16.57 29.23 16.57 29.23 16.57 29.23 16.57 29.23"/>
          <path class="cls-5" d="m22.54,31.65c-.13-.15-.27-.31-.4-.46-.13.16-.25.31-.38.46h.78s0,0,0,0Z"/>
          <path class="cls-5" d="m28.13,25.9h0v.41s-5.85,4.49-5.85,4.49l-3.58-3.22h0s0-.63,0-.63l-.26.3s-.15,1.21-.22,1.8c-.05.45-.09,1.4-.13,2.62.04.03.18.25.46.6.29.37.74.89,1.36,1.43.62-.78,1.35-1.71,2.15-2.72l.07-.09.08.09c.16.18.32.36.48.55.71.84,1.32,1.68,1.83,2.45.85-.72,1.57-1.33,2.12-1.79.25-.2.46-.38.63-.51.15-.12.23-.18.24-.17,0,0-.06.08-.2.21-.16.15-.36.33-.6.55-.55.49-1.29,1.15-2.15,1.91l-.08.07-.06-.09c-.17-.25-.36-.52-.55-.78l-.62,1.36-.12,7.93c.96-.07,1.9-.18,2.82-.37.96-6.5,2.48-14.55,2.74-15.9l-.57-.5Z"/>
          <path class="cls-5" d="m20.46,33.29c-.16.2-.32.4-.47.59l-.05.07-.06-.06c-.65-.58-1.1-1.15-1.39-1.55-.14-.2-.25-.37-.31-.48-.04-.07-.06-.11-.07-.14-.09,2.88-.14,7.32-.23,10.69.69.12,1.38.21,2.09.26l1.24-7.93-.74-1.45Z"/>
          <path class="cls-8" d="m21.2,34.73l-1.24,7.93c.55.04,1.09.08,1.65.08.52,0,1.02-.04,1.53-.08l.12-7.93h-2.05Z"/>
          <path class="cls-8" d="m21.77,31.66c-.47.58-.91,1.13-1.31,1.62l.74,1.45h2.05l.62-1.36c-.4-.56-.83-1.13-1.33-1.71h-.78Z"/>
          <path class="cls-3" d="m18.17,31.85c.07.11.17.28.31.48.29.41.74.97,1.39,1.55l.06.06.05-.07c.15-.19.31-.38.47-.59.4-.5.84-1.05,1.31-1.62.12-.15.25-.31.38-.46.13.15.26.3.4.46,0,0,0,0,0,0,.49.58.93,1.16,1.33,1.71.19.26.39.53.55.78l.06.09.08-.07c.86-.77,1.6-1.42,2.15-1.91.24-.22.44-.4.6-.55.14-.13.21-.2.2-.21,0,0-.09.05-.24.17-.17.14-.38.31-.63.51-.55.46-1.27,1.08-2.12,1.79-.5-.77-1.11-1.61-1.83-2.45-.16-.19-.32-.37-.48-.55l-.08-.09-.07.09c-.8,1.01-1.53,1.94-2.15,2.72-.62-.54-1.07-1.06-1.36-1.43-.27-.35-.42-.56-.46-.6,0,0,0,.02,0,.03.01.03.04.07.07.14Z"/>
          <path class="cls-8" d="m31.01,28.06l-.13-.11s.01.02.05.05c.02.01.05.04.08.06Z"/>
          <path class="cls-8" d="m38.24,30.43l-3.57-1-2.79-.68c.1.1.2.19.29.32.13.17.26.42.22.69-.02.27-.2.55-.48.69-.22.11-.45.23-.69.35.26.11.53.23.81.35.17.08.33.13.51.24.17.11.31.27.4.46.09.19.12.41.09.63-.04.22-.13.4-.2.6-.15.39-.3.79-.45,1.21-.62,1.65-1.3,3.47-2.02,5.39-.18.48-.35.95-.53,1.41,1.84-.77,3.55-1.8,5.09-3.03l3.32-7.64Zm-2.8,4.26c-.44,1.4-.61,2.58-.67,2.57-.03,0-.02-.3.05-.78.07-.48.2-1.14.42-1.85.22-.71.48-1.33.7-1.76.22-.43.38-.69.4-.67.05.03-.48,1.1-.91,2.49Z"/>
          <path class="cls-8" d="m32.21,34.24c.16-.41.31-.81.46-1.2.07-.2.16-.39.19-.56.03-.18,0-.37-.07-.53-.07-.16-.19-.3-.34-.4-.14-.09-.32-.16-.49-.23-.33-.15-.64-.29-.95-.42l-.14-.06.13-.07c.29-.14.56-.28.82-.4.25-.12.4-.35.43-.59.04-.24-.06-.45-.19-.63-.12-.18-.26-.32-.38-.45-.25-.25-.48-.41-.63-.53-.15-.11-.21-.2-.2-.21l-2.14-1.75s-.01.07-.04.2c-.26,1.35-1.78,9.4-2.74,15.9,1.26-.26,2.47-.64,3.63-1.11.19-.52.39-1.04.58-1.57.72-1.91,1.41-3.73,2.03-5.38Z"/>
          <path class="cls-3" d="m32.38,34.3c.16-.41.31-.81.45-1.21.07-.2.16-.38.2-.6.03-.22,0-.44-.09-.63-.09-.19-.23-.35-.4-.46-.18-.11-.35-.16-.51-.24-.28-.12-.55-.24-.81-.35.24-.12.47-.24.69-.35.28-.14.46-.42.48-.69.04-.27-.09-.53-.22-.69-.09-.13-.19-.22-.29-.32-.04-.04-.08-.09-.11-.13-.27-.24-.5-.4-.66-.5-.04-.03-.06-.04-.09-.07-.03-.02-.06-.04-.08-.06-.04-.03-.05-.05-.05-.05h0s0,0,0,0c-.01,0,.05.1.2.21.15.12.37.28.63.53.13.12.26.27.38.45.13.17.22.38.19.63-.03.24-.18.47-.43.59-.26.13-.54.26-.82.4l-.13.07.14.06c.3.14.62.28.95.42.16.08.34.14.49.23.14.1.26.24.34.4.07.16.1.35.07.53-.03.18-.13.37-.19.56-.15.39-.3.79-.46,1.2-.62,1.65-1.31,3.47-2.03,5.38-.2.53-.39,1.05-.58,1.57.08-.03.17-.06.25-.09.17-.46.35-.93.53-1.41.72-1.91,1.4-3.73,2.02-5.39Z"/>
          <path class="cls-8" d="m18.1,31.68c.04-1.22.08-2.16.13-2.62.07-.59.22-1.76.22-1.8,0,0,0,0,0,0l-1.88,1.98h0s0,0,0,0l-7.33,1.86.47,8.03s.03.02.05.03c-.06-1.75-.07-2.9-.04-2.9.03,0,.12,1.19.21,3,1.72,1.13,3.61,2.01,5.63,2.61-.05-.31-.1-.63-.14-.95-.27-1.83-.52-3.57-.72-5.17-.09-.8-.18-1.56-.2-2.29,0-.09,0-.18.01-.28,0-.03,0-.05.02-.08.01-.04.04-.07.05-.09.03-.03.07-.07.1-.1.15-.12.33-.18.5-.22.26-.04.51-.02.75.02-.19-.17-.37-.34-.52-.51-.1-.12-.19-.24-.27-.37-.07-.13-.14-.27-.12-.43.06-.29.21-.49.33-.69.13-.19.26-.36.37-.51.23-.3.43-.52.56-.67.13-.15.21-.22.21-.22,0,0-.06.09-.18.24-.12.16-.3.39-.52.69-.11.15-.23.32-.35.52-.11.19-.26.41-.3.65-.01.23.18.48.37.7.2.22.43.44.69.65l.25.2-.31-.07c-.29-.07-.61-.11-.92-.05-.15.03-.31.09-.43.19-.03.02-.05.06-.08.08-.02.02-.01.02-.02.03v.05c-.02.08-.02.17-.02.25.02.71.12,1.47.22,2.27.2,1.59.46,3.34.73,5.16.05.35.11.69.16,1.03.68.19,1.38.35,2.09.48.08-3.37.14-7.81.23-10.69,0,0,0-.02,0-.03Z"/>
          <path class="cls-3" d="m14.88,35.72c-.1-.8-.19-1.56-.22-2.27,0-.09,0-.18,0-.25v-.05s0,0,.03-.03c.03-.03.05-.06.08-.08.12-.1.27-.16.43-.19.31-.06.64-.02.92.05l.31.07-.25-.2c-.26-.21-.49-.43-.69-.65-.19-.22-.38-.47-.37-.7.04-.24.19-.46.3-.65.12-.19.24-.36.35-.52.22-.3.4-.53.52-.69.12-.16.19-.24.18-.24,0,0-.08.07-.21.22-.13.15-.32.37-.56.67-.12.15-.24.32-.37.51-.12.2-.28.4-.33.69-.02.16.05.3.12.43.07.13.17.25.27.37.15.18.34.35.52.51-.24-.04-.49-.07-.75-.02-.17.03-.35.09-.5.22-.04.03-.07.07-.1.1-.02.01-.04.05-.05.09,0,.03-.01.05-.02.08-.01.1-.01.19-.01.28.02.73.11,1.49.2,2.29.19,1.6.44,3.34.72,5.17.05.32.1.63.14.95.07.02.14.03.21.06-.05-.34-.11-.68-.16-1.03-.27-1.82-.53-3.57-.73-5.16Z"/>
          <path class="cls-8" d="m39.15,30.71c-.29-.09-.52-.15-.68-.2-.15-.05-.23-.08-.23-.08l-3.32,7.64c2.34-1.87,4.26-4.22,5.64-6.9-.11-.05-.22-.09-.33-.12-.42-.15-.8-.25-1.09-.34Z"/>
          <path class="cls-3" d="m39.16,30.67c-.29-.08-.52-.14-.68-.18-.15-.04-.23-.06-.23-.06,0,0,.08.03.23.08.16.05.38.11.68.2.3.09.67.19,1.09.34.11.04.22.08.33.12,0-.02.02-.04.03-.06-.12-.05-.23-.09-.34-.12-.43-.15-.8-.24-1.1-.32Z"/>
          <path class="cls-3" d="m35.94,32.87c-.22.43-.48,1.05-.7,1.76-.22.71-.35,1.37-.42,1.85-.07.48-.08.78-.05.78.06,0,.23-1.17.67-2.57.43-1.4.96-2.47.91-2.49-.02-.01-.19.24-.4.67Z"/>
          <path class="cls-8" d="m6.62,36.59c.95.94,1.98,1.79,3.09,2.53l-.47-8.03c-.88.27-1.4,1.17-2.62,5.5Z"/>
          <path class="cls-3" d="m9.76,39.15c.05.04.11.07.17.1-.09-1.81-.18-3-.21-3-.03,0-.02,1.15.04,2.9Z"/>
          <path class="cls-6" d="m23.87,24.71s-1.13,3.07-5.16,2.88h0s0,0,0,0l3.58,3.22,5.84-4.49v-.41s.15-5.88.15-5.88c-.02,0-.03-.01-.03-.02,0-.07,0-3.41,0-3.89-.27.28-.2.87-.75.65-.2-.08-.36-.25-.45-.45-1.07-2.44-1.48-5.17-1.21-7.82-.45-.47-.98-.84-1.57-1.11l.05.04c-1.13-.38-2.41-.75-3.47-.21-.82.42-1.3,1.28-1.91,1.98-.34.38-.71.74-1.1,1.04-.9.7-1.97.99-3.09,1.04-.07.37-.12.74-.14,1.12-.14,3.63-.25,7.64-.15,9.59.22,4.02,4.26,4.48,4.26,4.48h0s2.54.04,5.17-1.76Zm-1.09-8.26c-.32,0-.58-.26-.58-.57,0-.31.26-.56.58-.55.32,0,.58.26.58.57,0,.31-.26.56-.58.55Zm.25-2.71c-.62.02-1.05.37-1.12.3-.04-.03.02-.17.21-.33.18-.16.5-.31.89-.33.39-.02.73.11.93.25.21.14.28.27.25.31-.06.08-.54-.23-1.16-.19Zm-1.09-2.06c.24-.16.63-.3,1.07-.33.44-.03.84.05,1.1.17.26.12.39.26.37.34-.07.17-.69.06-1.42.13-.74.05-1.33.24-1.43.08-.04-.08.07-.23.31-.39Zm-.75,8.79c.53-.49.49-1.13.59-1.13.04,0,.12.15.11.42,0,.26-.13.65-.45.94-.32.3-.73.41-1.01.42-.29,0-.46-.07-.45-.11,0-.09.69-.06,1.21-.54Zm-5.28-8.55c.21-.15.57-.29.99-.32.42-.02.8.08,1.02.21.23.13.31.27.26.35-.12.15-.64.05-1.25.09-.61.02-1.11.19-1.25.05-.06-.07,0-.22.22-.37Zm-.12,2.23s.02-.17.21-.33c.18-.16.5-.31.89-.33.39-.02.73.11.93.25.21.14.28.27.25.31-.06.08-.54-.23-1.16-.19-.62.02-1.05.37-1.12.3Zm1.41,2.3c-.32,0-.58-.26-.58-.57,0-.31.26-.56.58-.55.32,0,.58.26.58.57,0,.31-.26.56-.58.55Zm1.35,2.47c-.08,0-.17,0-.27-.03-.1-.02-.22-.1-.27-.22-.09-.23,0-.44.06-.62.13-.39.26-.8.4-1.23.58-1.74,1.1-3.13,1.17-3.1.07.02-.34,1.45-.92,3.18-.15.43-.28.83-.42,1.22-.07.19-.13.36-.09.47.03.11.18.13.34.14.63.05,1.01.1,1.01.14,0,.04-.39.05-1.02.04Z"/>
          <path class="cls-7" d="m18.71,27.59c4.03.2,5.16-2.88,5.16-2.88-2.63,1.81-5.17,1.76-5.17,1.76h0v.48s0,.63,0,.63h0Z"/>
          <path class="cls-6" d="m28.69,15.94c-.06,0-.11.02-.15.03-.03,0-.06.01-.1.02-.01,0-.02,0-.03,0-.07.02-.12.07-.17.11,0,.48,0,3.82,0,3.89,0,0,.01.01.03.02.31.11,2.74.43,2.72-2.15-.01-1.35-.66-1.82-1.32-1.94-.52.01-.76-.02-.98,0Zm.66.91c.07-.05.16-.08.26-.07.21.01.41.21.5.42.11.22.18.48.17.77-.01.55-.29,1.08-.69,1.19-.19.05-.36,0-.44-.07-.09-.07-.1-.13-.09-.13.01,0,.05.03.13.07.08.04.22.06.36,0,.29-.11.53-.57.54-1.07,0-.25-.05-.49-.14-.68-.09-.2-.22-.34-.36-.36-.15-.03-.25.06-.28.13-.04.08-.02.13-.03.14,0,0-.06-.05-.04-.16.01-.05.04-.12.11-.17Z"/>
          <path class="cls-7" d="m29.31,17.04c.03-.08.14-.17.28-.13.15.02.28.16.36.36.09.2.15.43.14.68,0,.5-.25.96-.54,1.07-.14.05-.28.03-.36,0-.08-.04-.12-.08-.13-.07,0,0,0,.07.09.13.08.06.25.12.44.07.4-.12.68-.64.69-1.19,0-.28-.06-.55-.17-.77-.1-.22-.29-.41-.5-.42-.1-.01-.2.02-.26.07-.06.05-.1.12-.11.17-.02.11.03.17.04.16.01,0,0-.06.03-.14Z"/>
          <path class="cls-3" d="m18.92,9.2c.61-.69,1.09-1.56,1.91-1.98,1.06-.54,2.34-.17,3.47.21l-.05-.04c.59.26,1.13.64,1.57,1.11-.27,2.65.14,5.37,1.21,7.82.09.2.25.37.45.45.55.22.49-.37.75-.65.05-.05.1-.09.17-.11,0,0,0,0,0,0,.01,0,.02,0,.03,0,.04-.01.07-.02.1-.02.05-.01.11-.03.15-.03.23-.03.47,0,.98,0,0,0,0,0,0,0,.25-.69.4-2.58.62-3.59.6-.64,1.16-1.82,1.18-2.74.02-.92-.49-2.1-.49-2.1-.7-1.32-1.1-2-2.17-2.37h-.02c-.96-.36-2.14-.36-2.92.32-.21-1.43-1.48-2.55-2.89-2.91-1.4-.35-3.65-.11-4.99.45-.91.38-1.79,1.1-2.82,2.14h0s0,0,0,0c-.14.14-.27.28-.42.43-.01.01-.02.03-.03.04-.3.19-.66.28-1.04.32-.61.07-.99-.12-1.41-.58-.13-.14-.28-.31-.46-.25-.11.04-.18.15-.21.27-.2.6.07,1.27.52,1.71.22.21.47.38.75.51,0,0-.41.5-1.11.62-.38.06-.72.28-.93.59-.1.15-.18.33-.18.54,0,1.16,1.16,1.69,2.28,1.86.6.09,1.2.13,1.79.11,1.12-.05,2.19-.34,3.09-1.04.4-.31.77-.66,1.1-1.04Zm10.01,1.4l-.07.29c-.05.19-.09.39-.14.59-.11.45-.21.88-.31,1.29.88-.87,1.26-1.66,1.3-1.63.01,0-.08.24-.3.6-.22.36-.57.86-1.09,1.34l-.19.18.06-.26c.11-.48.24-1.01.37-1.57.03-.11.05-.21.07-.31-.27.25-.53.49-.77.71-.08.07-.17.14-.31.15-.14,0-.25-.11-.28-.2-.06-.2-.06-.35-.08-.51-.03-.31-.02-.55-.01-.72.01-.17.03-.26.04-.26.03,0,0,.37.09.96.02.14.04.32.1.47.03.07.08.11.14.11.06,0,.14-.06.21-.12.3-.29.62-.6.97-.92l.21-.2Zm-17.11-2.39s.22.11.6.25c.19.07.42.14.67.19.26.05.55.09.85.1.3,0,.59-.02.85-.06.26-.04.49-.1.68-.16.38-.12.6-.24.61-.22,0,0-.05.04-.15.09-.1.06-.25.12-.44.19-.19.07-.42.14-.69.19-.26.05-.56.07-.87.07-.31,0-.6-.05-.87-.11-.26-.06-.49-.13-.68-.21-.19-.08-.33-.15-.43-.21-.1-.06-.15-.09-.15-.1Zm5.09,1.46c-.79.6-1.68.87-2.42.93-.75.05-1.35-.12-1.73-.29-.1-.04-.18-.09-.25-.13-.07-.04-.13-.08-.17-.11-.04-.03-.07-.05-.1-.07-.02-.02-.03-.03-.03-.03,0-.01.19.14.57.3.38.16.97.32,1.71.26.73-.06,1.6-.33,2.37-.93.78-.58,1.47-1.43,2.03-2.41.28-.49.52-.99.78-1.46.26-.47.55-.91.91-1.25.35-.35.76-.61,1.19-.73.21-.06.43-.08.64-.07.21.01.4.05.58.11.36.12.64.32.86.52.22.2.36.42.46.61.09.19.14.35.16.45,0,.05.01.09.02.12,0,.03,0,.04,0,.04-.01,0-.03-.23-.21-.6-.1-.18-.25-.39-.46-.58-.21-.19-.5-.38-.85-.5-.17-.05-.36-.09-.56-.1-.2,0-.41.01-.61.08-.41.12-.81.37-1.15.72-.35.34-.63.77-.89,1.24-.26.46-.49.97-.78,1.46-.57.98-1.26,1.84-2.06,2.43Z"/>
          <path class="cls-4" d="m19.74,5.79c.26-.46.54-.9.89-1.24.34-.34.74-.6,1.15-.72.21-.06.41-.08.61-.08.2,0,.39.05.56.1.35.11.63.3.85.5.22.2.36.41.46.58.19.37.2.61.21.6,0,0,0-.01,0-.04,0-.03-.01-.07-.02-.12-.02-.11-.07-.26-.16-.45-.1-.18-.24-.4-.46-.61-.22-.2-.5-.4-.86-.52-.18-.06-.37-.1-.58-.11-.21,0-.42.01-.64.07-.43.12-.84.38-1.19.73-.36.35-.65.79-.91,1.25-.26.47-.49.97-.78,1.46-.56.97-1.25,1.83-2.03,2.41-.77.6-1.64.87-2.37.93-.74.06-1.33-.1-1.71-.26-.38-.16-.56-.31-.57-.3,0,0,.01.01.03.03.03.02.06.04.1.07.04.03.1.07.17.11.07.04.15.09.25.13.38.17.98.34,1.73.29.74-.05,1.63-.32,2.42-.93.8-.59,1.49-1.45,2.06-2.43.29-.49.52-.99.78-1.46Z"/>
          <path class="cls-4" d="m13.07,8.74c.26.06.56.1.87.11.31,0,.61-.02.87-.07.26-.05.5-.11.69-.19.19-.07.34-.14.44-.19.1-.05.15-.09.15-.09,0-.02-.23.1-.61.22-.19.06-.42.12-.68.16-.26.04-.55.07-.85.06-.3,0-.59-.05-.85-.1-.26-.06-.49-.12-.67-.19-.37-.14-.59-.26-.6-.25,0,0,.05.04.15.1.1.06.24.13.43.21.19.08.42.15.68.21Z"/>
          <path class="cls-4" d="m27.75,11.73c-.07.06-.15.12-.21.12-.06,0-.11-.04-.14-.11-.05-.14-.07-.33-.1-.47-.08-.6-.07-.96-.09-.96-.01,0-.03.09-.04.26-.01.17-.01.41.01.72.02.16.02.31.08.51.03.09.14.21.28.2.13,0,.22-.08.31-.15.24-.22.5-.47.77-.71-.02.1-.05.2-.07.31-.13.55-.25,1.08-.37,1.57l-.06.26.19-.18c.52-.49.87-.98,1.09-1.34.22-.36.31-.59.3-.6-.04-.03-.41.76-1.3,1.63.1-.41.2-.84.31-1.29.05-.2.1-.4.14-.59l.07-.29-.21.2c-.34.33-.67.64-.97.92Z"/>
          <path class="cls-3" d="m19.56,18.88s-.39-.09-1.01-.14c-.16,0-.31-.03-.34-.14-.04-.11.02-.29.09-.47.13-.39.27-.79.42-1.22.58-1.74.99-3.16.92-3.18-.07-.02-.59,1.37-1.17,3.1-.14.43-.27.84-.4,1.23-.05.18-.15.39-.06.62.05.12.17.2.27.22.1.03.19.02.27.03.63,0,1.02,0,1.02-.04Z"/>
          <path class="cls-3" d="m17.19,15.33c-.32,0-.58.24-.58.55,0,.31.26.56.58.57.32,0,.58-.24.58-.55,0-.31-.26-.57-.58-.57Z"/>
          <path class="cls-3" d="m18.07,14.04s-.05-.17-.25-.31c-.2-.14-.54-.27-.93-.25-.39.02-.71.18-.89.33-.19.16-.25.3-.21.33.07.07.5-.27,1.12-.3.62-.03,1.09.27,1.16.19Z"/>
          <path class="cls-3" d="m22.77,15.33c-.32,0-.58.24-.58.55,0,.31.26.56.58.57.32,0,.58-.24.58-.55,0-.31-.26-.57-.58-.57Z"/>
          <path class="cls-3" d="m23.93,13.62c-.2-.14-.54-.27-.93-.25-.39.02-.71.18-.89.33-.19.16-.24.3-.21.33.08.07.5-.27,1.12-.3.62-.03,1.09.27,1.16.19.03-.04-.05-.17-.25-.31Z"/>
          <path class="cls-3" d="m23.05,11.99c.74-.06,1.36.04,1.42-.13.03-.08-.1-.22-.37-.34-.26-.12-.66-.21-1.1-.17-.44.03-.82.18-1.07.33-.24.16-.35.32-.31.39.09.16.69-.04,1.43-.08Z"/>
          <path class="cls-3" d="m16.93,12.25c.61-.04,1.13.07,1.25-.09.05-.07-.03-.22-.26-.35-.23-.13-.6-.23-1.02-.21-.42.02-.78.16-.99.32-.21.15-.28.3-.22.37.13.14.64-.02,1.25-.05Z"/>
          <path class="cls-3" d="m20.41,21.13c.28,0,.69-.12,1.01-.42.32-.3.44-.68.45-.94,0-.27-.07-.42-.11-.42-.1,0-.06.64-.59,1.13-.52.49-1.21.45-1.21.54,0,.04.16.12.45.11Z"/>
        </g>
      </g>
      <path class="cls-3" d="m42.96,21.55s-.02-.12-.04-.35c-.02-.26-.04-.59-.08-1.01-.02-.23-.03-.47-.05-.74-.03-.27-.09-.57-.14-.89-.11-.64-.21-1.39-.45-2.2-.38-1.64-1.16-3.58-2.38-5.64-1.23-2.05-3-4.18-5.4-6-2.4-1.8-5.42-3.32-8.91-3.94-3.46-.59-7.37-.48-11.09.93-.95.3-1.84.77-2.75,1.21-.87.52-1.78,1.01-2.59,1.66-.86.59-1.61,1.33-2.39,2.04-.71.79-1.45,1.55-2.07,2.45-1.26,1.74-2.35,3.68-3.01,5.81-.69,2.12-1.06,4.37-1.09,6.65.03,2.29.4,4.54,1.09,6.66.66,2.13,1.76,4.07,3.01,5.81.61.89,1.36,1.66,2.07,2.45.79.71,1.54,1.45,2.39,2.04.81.66,1.72,1.14,2.59,1.66.92.44,1.81.91,2.75,1.21,3.72,1.42,7.63,1.53,11.09.93,3.49-.61,6.51-2.14,8.91-3.94,2.4-1.81,4.17-3.95,5.4-6,1.22-2.06,1.99-4,2.38-5.64.25-.81.35-1.55.45-2.2.13-.64.17-1.19.19-1.63.03-.42.06-.76.08-1.01.02-.23.04-.35.04-.35s.01.12,0,.35c0,.26-.01.59-.03,1.02,0,.45-.03,1-.14,1.65-.09.65-.17,1.4-.41,2.22-.36,1.67-1.11,3.64-2.32,5.74-1.22,2.09-3,4.28-5.43,6.14-2.42,1.85-5.49,3.42-9.05,4.07-3.53.62-7.52.53-11.34-.91-.97-.31-1.88-.78-2.82-1.23-.89-.53-1.82-1.03-2.65-1.7-.88-.6-1.65-1.35-2.45-2.08-.73-.8-1.49-1.59-2.12-2.5-1.29-1.78-2.41-3.77-3.09-5.95C.41,26.2.03,23.89,0,21.55c.03-2.34.41-4.65,1.12-6.82.68-2.18,1.81-4.17,3.09-5.95.63-.91,1.39-1.7,2.12-2.5.8-.73,1.57-1.48,2.45-2.08.83-.67,1.76-1.16,2.65-1.7.94-.45,1.85-.92,2.82-1.23,3.81-1.43,7.8-1.53,11.34-.91,3.56.65,6.63,2.22,9.05,4.07,2.43,1.86,4.21,4.05,5.43,6.14,1.21,2.1,1.97,4.07,2.32,5.74.24.82.32,1.57.41,2.22.04.33.09.62.12.9,0,.27.02.52.03.75.01.43.02.76.03,1.02,0,.23,0,.35,0,.35Z"/>
    </g>
  </g>
</svg>