<?xml version="1.0" encoding="UTF-8"?>
<svg id="Layer_2" data-name="Layer 2" xmlns="http://www.w3.org/2000/svg" viewBox="0 0 44.52 44.58">
  <defs>
    <style>
      .cls-1 {
        opacity: .1;
      }

      .cls-2 {
        opacity: .2;
      }

      .cls-3 {
        opacity: .3;
      }

      .cls-4, .cls-5, .cls-6, .cls-7 {
        stroke-width: 0px;
      }

      .cls-5 {
        fill: #263238;
      }

      .cls-6 {
        fill: #fff;
      }

      .cls-7 {
        fill: #00bcd4;
      }
    </style>
  </defs>
  <g id="Device">
    <g>
      <circle class="cls-6" cx="22.35" cy="22.41" r="22.16"/>
      <path class="cls-5" d="m44.44,22.29s-.02-.12-.04-.36c-.02-.26-.05-.61-.08-1.05-.02-.23-.03-.49-.05-.77-.03-.28-.09-.59-.15-.92-.11-.66-.21-1.44-.47-2.27-.39-1.7-1.2-3.71-2.46-5.84-1.27-2.12-3.1-4.33-5.59-6.21-2.48-1.86-5.61-3.44-9.22-4.07-3.58-.61-7.63-.5-11.48.96-.98.31-1.9.8-2.85,1.25-.9.54-1.84,1.04-2.68,1.72-.89.61-1.66,1.37-2.48,2.11-.73.81-1.51,1.61-2.14,2.53-1.3,1.81-2.43,3.81-3.12,6.02-.71,2.19-1.09,4.52-1.13,6.89.03,2.37.41,4.7,1.12,6.89.69,2.21,1.82,4.21,3.12,6.02.63.92,1.4,1.72,2.14,2.53.81.73,1.59,1.5,2.48,2.11.84.68,1.78,1.18,2.68,1.72.95.45,1.87.94,2.85,1.25,3.85,1.47,7.9,1.58,11.48.96,3.61-.64,6.74-2.22,9.22-4.07,2.49-1.88,4.32-4.09,5.59-6.21,1.26-2.13,2.06-4.14,2.46-5.84.26-.84.36-1.61.47-2.27.05-.33.11-.64.15-.92.02-.28.04-.54.05-.77.03-.44.06-.78.08-1.05.02-.24.04-.36.04-.36s.01.12,0,.36c0,.26-.02.61-.03,1.05,0,.23-.02.49-.03.78-.02.28-.08.59-.12.93-.09.67-.18,1.45-.43,2.3-.37,1.72-1.15,3.77-2.4,5.94-1.26,2.16-3.1,4.42-5.62,6.35-2.51,1.91-5.68,3.54-9.36,4.21-3.65.65-7.78.55-11.72-.94-1-.32-1.95-.81-2.92-1.27-.92-.55-1.89-1.06-2.74-1.75-.91-.62-1.71-1.4-2.54-2.15-.75-.83-1.54-1.64-2.19-2.59-1.33-1.85-2.5-3.9-3.2-6.16-.73-2.24-1.12-4.63-1.15-7.05.03-2.42.42-4.81,1.16-7.05.71-2.26,1.87-4.31,3.2-6.15.65-.94,1.44-1.76,2.19-2.59.83-.75,1.63-1.53,2.54-2.15.86-.69,1.82-1.2,2.74-1.75.97-.46,1.91-.96,2.92-1.27C18.69-.17,22.82-.27,26.47.38c3.68.67,6.85,2.3,9.36,4.21,2.52,1.93,4.35,4.19,5.62,6.35,1.25,2.17,2.04,4.21,2.4,5.94.24.85.33,1.63.43,2.3.04.34.1.64.12.93,0,.28.02.54.03.78.01.44.02.79.03,1.05,0,.24,0,.36,0,.36Z"/>
    </g>
  </g>
  <g id="Layer_17" data-name="Layer 17">
    <g>
      <g>
        <path class="cls-7" d="m29.53,35.99c-8.15,4.31-17.67,2.29-21.26-4.5-3.59-6.79.11-15.79,8.26-20.1,8.15-4.31,17.67-2.29,21.26,4.5,3.59,6.79-.11,15.79-8.26,20.1Z"/>
        <g class="cls-2">
          <path class="cls-4" d="m29.53,35.99c-8.15,4.31-17.67,2.29-21.26-4.5-3.59-6.79.11-15.79,8.26-20.1,8.15-4.31,17.67-2.29,21.26,4.5,3.59,6.79-.11,15.79-8.26,20.1Z"/>
        </g>
        <ellipse class="cls-7" cx="21.77" cy="21.3" rx="16.69" ry="13.91" transform="translate(-7.43 12.64) rotate(-27.85)"/>
        <g class="cls-1">
          <path class="cls-6" d="m37.9,19.49c.06-2.07-.37-4.11-1.36-5.99-3.59-6.79-13.11-8.81-21.26-4.5-3.33,1.76-5.92,4.3-7.57,7.16,2.84,2.93,6.26,5.25,10.07,6.76,3.77,1.49,7.7,1.89,11.57.52,2.67-.95,6.19-1.96,8.54-3.94Z"/>
        </g>
        <path class="cls-7" d="m26.84,30.23c-6.26,3.31-13.54,1.84-16.25-3.29-2.71-5.13.17-11.97,6.44-15.28,6.26-3.31,13.54-1.84,16.25,3.29,2.71,5.13-.17,11.97-6.44,15.28Z"/>
        <g class="cls-2">
          <path class="cls-4" d="m26.84,30.23c-6.26,3.31-13.54,1.84-16.25-3.29-2.71-5.13.17-11.97,6.44-15.28,6.26-3.31,13.54-1.84,16.25,3.29,2.71,5.13-.17,11.97-6.44,15.28Z"/>
        </g>
        <path class="cls-7" d="m26.81,30.82c-6.11,3.23-13.2,1.82-15.82-3.14-2.62-4.97.21-11.61,6.32-14.84,6.11-3.23,13.2-1.82,15.82,3.14,2.62,4.97-.21,11.61-6.32,14.84Z"/>
      </g>
      <g class="cls-2">
        <path class="cls-6" d="m26.81,30.82c-6.11,3.23-13.2,1.82-15.82-3.14-2.62-4.97.21-11.61,6.32-14.84,6.11-3.23,13.2-1.82,15.82,3.14,2.62,4.97-.21,11.61-6.32,14.84Z"/>
      </g>
      <g>
        <path class="cls-7" d="m23.61,21.61l2.94-1.55s0,0,0,.01c.16.44.24.93.25,1.46-.04.47-.15.82-.15.82l.11-.02,1.25-.2.29-.05.33-.71-.22-.14c.05-.68,0-1.39-.28-2.01l1.61-.85.19-.61-.41.21-.29-.55-1.64.87c-1.17-1.69-2.92-1.86-4.4-1.08-2.02,1.07-1.82,2.72-1.53,4.21l-2.91,1.54c-.36-.93-.4-2.02-.12-2.9l-1.74.26c-.34.95-.22,2.29.29,3.47l-1.22.64-.25-.45-.15.66.5.95,1.63-.86c1.19,1.69,2.93,1.88,4.41,1.1,2.02-1.07,1.79-2.74,1.51-4.23Zm-.2-1.11c-.11-.8-.05-1.47.65-1.84.64-.34,1.35-.27,1.94.47l-2.59,1.37Zm3.13-.44h0s0,0,0,0h0Zm-7.27,3.84l2.57-1.36c.12.82.05,1.51-.66,1.89-.63.33-1.31.23-1.92-.53Z"/>
        <g class="cls-3">
          <path class="cls-4" d="m23.61,21.61l2.94-1.55s0,0,0,.01c.16.44.24.93.25,1.46-.04.47-.15.82-.15.82l.11-.02,1.25-.2.29-.05.33-.71-.22-.14c.05-.68,0-1.39-.28-2.01l1.61-.85.19-.61-.41.21-.29-.55-1.64.87c-1.17-1.69-2.92-1.86-4.4-1.08-2.02,1.07-1.82,2.72-1.53,4.21l-2.91,1.54c-.36-.93-.4-2.02-.12-2.9l-1.74.26c-.34.95-.22,2.29.29,3.47l-1.22.64-.25-.45-.15.66.5.95,1.63-.86c1.19,1.69,2.93,1.88,4.41,1.1,2.02-1.07,1.79-2.74,1.51-4.23Zm-.2-1.11c-.11-.8-.05-1.47.65-1.84.64-.34,1.35-.27,1.94.47l-2.59,1.37Zm3.13-.44h0s0,0,0,0h0Zm-7.27,3.84l2.57-1.36c.12.82.05,1.51-.66,1.89-.63.33-1.31.23-1.92-.53Z"/>
        </g>
        <path class="cls-7" d="m17.88,24.13l-1.63.86-.5-.95,1.61-.85c-.51-1.18-.63-2.52-.29-3.47l1.74-.26c-.28.87-.25,1.96.12,2.9l2.91-1.54c-.29-1.49-.49-3.14,1.53-4.21,1.48-.78,3.23-.61,4.4,1.08l1.64-.87.5.95-1.62.85c.39.89.53,1.92.35,2.82l-1.72.3c.13-.85.03-1.63-.2-2.29l-2.94,1.55c.29,1.49.52,3.16-1.51,4.23-1.48.78-3.22.59-4.41-1.1Zm5.72-4.24l2.59-1.37c-.59-.74-1.3-.81-1.94-.47-.7.37-.76,1.03-.65,1.84Zm-2.22,3.93c.71-.38.78-1.06.66-1.89l-2.57,1.36c.61.76,1.29.86,1.92.53Z"/>
      </g>
      <path class="cls-5" d="m34.15,21.27s0,.1-.04.3c-.05.19-.08.49-.2.85-.19.73-.58,1.77-1.26,2.95-.67,1.18-1.68,2.47-3.03,3.66-.68.58-1.44,1.15-2.29,1.64-.85.49-1.78.91-2.76,1.23-1.97.62-3.96.95-5.76.82-1.81-.1-3.38-.68-4.52-1.43-1.15-.74-1.87-1.6-2.33-2.2-.22-.31-.37-.56-.48-.73-.1-.17-.16-.26-.15-.26,0,0,.07.08.19.24.12.16.28.4.51.7.48.57,1.21,1.4,2.35,2.1,1.13.71,2.66,1.26,4.43,1.34,1.76.11,3.71-.21,5.66-.83.97-.32,1.88-.73,2.71-1.2.84-.48,1.58-1.04,2.26-1.6,1.33-1.16,2.34-2.42,3.03-3.57.69-1.15,1.1-2.16,1.32-2.88.23-.71.32-1.12.34-1.12Z"/>
      <path class="cls-6" d="m13.74,10.12s.13-.13.39-.31c.26-.19.65-.44,1.16-.72,1-.56,2.47-1.22,4.17-1.65,1.71-.43,3.31-.56,4.46-.55.58,0,1.04.04,1.36.08.32.04.49.07.49.09,0,.05-.71,0-1.85.03-1.14.03-2.71.19-4.39.62-1.68.43-3.14,1.05-4.15,1.56-1.02.51-1.61.9-1.64.86Z"/>
      <path class="cls-6" d="m9.94,13.86c-.06-.05.32-.57.85-1.16.52-.59.99-1.03,1.05-.99.06.05-.32.57-.85,1.16-.52.59-.99,1.03-1.05.99Z"/>
      <path class="cls-6" d="m33.49,18.71s-.19-.6-.6-1.5c-.2-.45-.5-.97-.86-1.5-.38-.53-.84-1.08-1.39-1.6-.56-.51-1.14-.93-1.7-1.27-.56-.33-1.1-.58-1.56-.75-.93-.35-1.55-.44-1.54-.49,0-.02.16,0,.44.03.28.03.68.12,1.16.28.48.15,1.04.39,1.63.72.58.34,1.19.76,1.76,1.29.56.53,1.03,1.1,1.41,1.66.37.56.65,1.1.83,1.57.19.47.31.86.36,1.14.06.28.08.43.06.43Z"/>
      <path class="cls-6" d="m23.81,17.21s.03-.15.19-.31c.16-.16.45-.32.8-.38.35-.05.67.01.87.12.21.1.3.21.28.24-.04.07-.5-.19-1.11-.09-.61.09-.97.48-1.03.43Z"/>
      <path class="cls-6" d="m17.52,20.45s-.08-.03-.09-.12c-.01-.08.03-.2.12-.28.09-.08.21-.11.3-.09.08.02.12.07.11.1-.03.07-.13.1-.22.19-.1.08-.14.18-.21.2Z"/>
    </g>
  </g>
</svg>