<?xml version="1.0" encoding="UTF-8"?>
<svg id="Layer_2" data-name="Layer 2" xmlns="http://www.w3.org/2000/svg" viewBox="0 0 44.52 44.58">
  <defs>
    <style>
      .cls-1 {
        opacity: .3;
      }

      .cls-2, .cls-3, .cls-4, .cls-5 {
        stroke-width: 0px;
      }

      .cls-3 {
        fill: #263238;
      }

      .cls-4 {
        fill: #fff;
      }

      .cls-5 {
        fill: #00bcd4;
      }
    </style>
  </defs>
  <g id="Device">
    <g>
      <circle class="cls-4" cx="22.35" cy="22.41" r="22.16"/>
      <path class="cls-3" d="m44.44,22.29s-.02-.12-.04-.36c-.02-.26-.05-.61-.08-1.05-.02-.23-.03-.49-.05-.77-.03-.28-.09-.59-.15-.92-.11-.66-.21-1.44-.47-2.27-.39-1.7-1.2-3.71-2.46-5.84-1.27-2.12-3.1-4.33-5.59-6.21-2.48-1.86-5.61-3.44-9.22-4.07-3.58-.61-7.63-.5-11.48.96-.98.31-1.9.8-2.85,1.25-.9.54-1.84,1.04-2.68,1.72-.89.61-1.66,1.37-2.48,2.11-.73.81-1.51,1.61-2.14,2.53-1.3,1.81-2.43,3.81-3.12,6.02-.71,2.19-1.09,4.52-1.13,6.89.03,2.37.41,4.7,1.12,6.89.69,2.21,1.82,4.21,3.12,6.02.63.92,1.4,1.72,2.14,2.53.81.73,1.59,1.5,2.48,2.11.84.68,1.78,1.18,2.68,1.72.95.45,1.87.94,2.85,1.25,3.85,1.47,7.9,1.58,11.48.96,3.61-.64,6.74-2.22,9.22-4.07,2.49-1.88,4.32-4.09,5.59-6.21,1.26-2.13,2.06-4.14,2.46-5.84.26-.84.36-1.61.47-2.27.05-.33.11-.64.15-.92.02-.28.04-.54.05-.77.03-.44.06-.78.08-1.05.02-.24.04-.36.04-.36s.01.12,0,.36c0,.26-.02.61-.03,1.05,0,.23-.02.49-.03.78-.02.28-.08.59-.12.93-.09.67-.18,1.45-.43,2.3-.37,1.72-1.15,3.77-2.4,5.94-1.26,2.16-3.1,4.42-5.62,6.35-2.51,1.91-5.68,3.54-9.36,4.21-3.65.65-7.78.55-11.72-.94-1-.32-1.95-.81-2.92-1.27-.92-.55-1.89-1.06-2.74-1.75-.91-.62-1.71-1.4-2.54-2.15-.75-.83-1.54-1.64-2.19-2.59-1.33-1.85-2.5-3.9-3.2-6.16-.73-2.24-1.12-4.63-1.15-7.05.03-2.42.42-4.81,1.16-7.05.71-2.26,1.87-4.31,3.2-6.15.65-.94,1.44-1.76,2.19-2.59.83-.75,1.63-1.53,2.54-2.15.86-.69,1.82-1.2,2.74-1.75.97-.46,1.91-.96,2.92-1.27C18.69-.17,22.82-.27,26.47.38c3.68.67,6.85,2.3,9.36,4.21,2.52,1.93,4.35,4.19,5.62,6.35,1.25,2.17,2.04,4.21,2.4,5.94.24.85.33,1.63.43,2.3.04.34.1.64.12.93,0,.28.02.54.03.78.01.44.02.79.03,1.05,0,.24,0,.36,0,.36Z"/>
    </g>
  </g>
  <g id="Layer_26" data-name="Layer 26">
    <g>
      <path class="cls-3" d="m33.94,21.57c1.02,3.47,1.26,7.14.65,10.71-.08.44.12.89.58,1.02.4.11.94-.14,1.02-.58.67-3.87.46-7.83-.65-11.59-.3-1.02-1.9-.59-1.6.44h0Z"/>
      <path class="cls-5" d="m38.29,17.35c-.47-1.62-1.77-2.94-3.32-3.36.31-1.16-.18-2.49-.79-3.51-.61-1.01-1.72-1.74-2.84-1.93-1.17-.19-1.89-.09-3.02.27-.67-1.29-1.97-1.99-3.35-2.16-1.38-.17-2.87.61-3.43,1.96-.2-1.42-1.8-2.26-3.12-1.94-1.32.32-2.32,1.49-2.94,2.77l17.74,19.09c1.57.63,3.51-.03,4.46-1.5.94-1.47.8-3.62-.33-4.94,1.05-1.28,1.42-3.14.95-4.76Z"/>
      <rect class="cls-3" x="21.81" y="30.7" width="1.3" height="9.1" transform="translate(3.91 -2.2) rotate(6.15)"/>
      <rect class="cls-3" x="25.15" y="30.7" width="1.3" height="9.1" transform="translate(55.23 67.53) rotate(173.85)"/>
      <path class="cls-5" d="m9.3,11.87c.53-1.48,1.5-2.61,2.98-3.22,1.49-.62,3.18-.63,4.77-.35.65.12,1.32.29,1.83.72.5.43.79,1.18.5,1.78,1.38-.78,3.17-.77,4.55.01,1.38.79,2.29,2.33,2.31,3.91,1.44-.11,2.95.2,4.09,1.09,1.14.88,1.85,2.38,1.59,3.8.94-.08,1.84.52,2.34,1.32.5.8.66,1.76.73,2.71.04.58.05,1.18-.15,1.73-.09.27-.24.52-.3.8-.07.33-.03.68-.02,1.03.05,1.59-.74,3.17-2.04,4.09-1.29.92-3.05,1.14-4.54.58-1.65,1.7-4.6,1.91-6.47.46-1.22.41-2.51.7-3.78.54-.65-.08-1.29-.3-1.85-.65-.51-.32-.8-.94-1.28-1.24-.49-.3-1.04-.04-1.6-.04-.64,0-1.29-.17-1.86-.47-1.09-.57-1.9-1.64-2.2-2.83-.06-.24-.1-.5-.26-.7-.14-.18-.35-.29-.55-.4-1.23-.72-2.11-1.99-2.35-3.39s.17-2.9,1.09-3.98c0,0-.93-2.38-.05-4.52.87-2.13,2.51-2.78,2.51-2.78Z"/>
      <g class="cls-1">
        <path class="cls-2" d="m37.66,25.35c-.74,1.16-2.09,1.81-3.4,1.73-.32.98-.95,1.85-1.79,2.45-1.29.92-3.05,1.14-4.54.58-1.65,1.7-4.6,1.91-6.47.46-1.22.41-2.51.7-3.78.54-.65-.08-1.29-.3-1.85-.65-.51-.32-.8-.94-1.28-1.24-.49-.3-1.04-.04-1.6-.04-.64,0-1.29-.17-1.86-.47-1.09-.57-1.9-1.64-2.2-2.83-.06-.24-.1-.5-.26-.7-.14-.18-.35-.29-.55-.4-1.2-.7-2.08-1.95-2.34-3.32-.1.56-.11,1.13-.02,1.68.24,1.4,1.12,2.68,2.35,3.39.2.11.41.22.55.4.15.2.2.45.26.7.3,1.19,1.11,2.26,2.2,2.83.57.3,1.22.46,1.86.47.55,0,1.11-.26,1.6.04.48.29.77.92,1.28,1.24.56.35,1.2.57,1.85.65,1.27.16,2.57-.13,3.78-.54,1.87,1.45,4.82,1.24,6.47-.46,1.48.57,3.24.34,4.54-.58.84-.6,1.47-1.47,1.79-2.45,1.31.08,2.66-.57,3.4-1.73.58-.9.75-2.05.53-3.11-.1.48-.27.94-.53,1.34Z"/>
      </g>
      <path class="cls-3" d="m16.22,22.43s-.02-.02-.04-.05c-.03-.04-.06-.09-.11-.16-.09-.13-.25-.32-.46-.52-.21-.2-.5-.41-.84-.59-.35-.17-.76-.31-1.21-.35-.45-.04-.88.01-1.25.12-.37.11-.69.26-.94.42-.25.16-.43.31-.55.43-.06.06-.1.1-.13.13-.03.03-.05.05-.05.05,0,0,.01-.02.04-.05.03-.03.07-.08.13-.14.11-.12.3-.28.54-.45.25-.16.57-.33.95-.44.38-.11.81-.17,1.27-.13.45.04.87.18,1.22.36.35.18.64.4.85.6.21.21.36.4.45.54.05.07.08.13.1.16.02.04.03.06.03.06Z"/>
      <path class="cls-3" d="m17.62,28.38s0-.01,0-.04c0-.03,0-.06,0-.1,0-.05,0-.1.01-.17.01-.07.02-.14.04-.23.03-.17.08-.38.17-.61.09-.23.2-.49.37-.76.32-.53.84-1.11,1.57-1.51.36-.2.78-.34,1.23-.41.45-.07.92-.06,1.39.02.94.17,1.77.65,2.33,1.27.56.61.85,1.34.92,1.96.07.63-.07,1.14-.2,1.45-.14.32-.27.47-.27.47,0,0,0-.01.02-.03.01-.02.03-.05.05-.09.05-.08.11-.2.18-.36.13-.32.26-.82.19-1.44-.07-.61-.36-1.33-.92-1.94-.55-.61-1.37-1.08-2.3-1.25-.47-.08-.93-.09-1.37-.02-.44.07-.85.21-1.21.41-.73.39-1.24.96-1.56,1.48-.17.26-.28.52-.37.75-.08.23-.14.44-.17.61-.02.09-.03.16-.04.23,0,.07-.01.12-.02.17,0,.04,0,.08-.01.1,0,.02,0,.04,0,.04Z"/>
      <path class="cls-3" d="m30.65,29.53s-.01,0-.04.02c-.03.01-.07.04-.13.06-.11.05-.29.1-.51.13-.22.03-.49.03-.78-.04-.29-.06-.6-.19-.87-.39-.27-.21-.48-.47-.62-.73-.14-.26-.21-.52-.25-.74-.03-.22-.03-.4-.01-.53,0-.06.02-.11.02-.14,0-.03,0-.05.01-.05.01,0-.05.27.02.71.04.22.11.47.25.72.14.25.34.51.6.71.27.2.57.33.85.39.28.06.55.07.77.05.44-.05.68-.19.69-.17Z"/>
      <path class="cls-3" d="m15.39,10.09s0-.05.01-.13c.01-.08.04-.2.08-.35.04-.15.1-.32.17-.5.08-.18.17-.38.29-.58.12-.2.25-.37.37-.53.13-.15.25-.28.36-.38.11-.1.2-.18.27-.23.07-.05.11-.08.11-.07,0,0-.14.12-.35.33-.11.1-.23.24-.35.39-.12.15-.25.33-.37.52-.12.19-.21.39-.29.57-.08.18-.14.35-.18.49-.09.29-.12.47-.13.47Z"/>
      <path class="cls-3" d="m11.46,11.63s-.18-.04-.48-.07c-.15-.02-.32-.02-.52-.01-.2.01-.41.04-.63.09-.22.05-.42.13-.6.2-.18.08-.33.16-.46.24-.25.16-.39.29-.39.28,0,0,.03-.03.09-.09.03-.03.07-.06.12-.1.05-.04.1-.08.16-.12.12-.09.28-.17.46-.26.18-.08.39-.16.61-.21.22-.05.44-.08.64-.09.2,0,.38,0,.53.03.07,0,.14.02.2.03.06.01.11.02.15.04.08.02.12.04.12.04Z"/>
      <path class="cls-3" d="m11.46,19.96s-.01.01-.04.04c-.03.02-.07.06-.12.09-.11.08-.27.18-.49.28-.22.1-.49.19-.8.24-.31.05-.67.05-1.02-.02-.36-.07-.68-.21-.96-.37-.27-.16-.49-.35-.65-.53-.16-.17-.28-.33-.34-.45-.04-.06-.06-.1-.08-.13-.02-.03-.02-.05-.02-.05,0,0,.04.06.12.17.07.11.19.26.35.43.16.17.38.35.65.51.27.16.59.29.94.36.35.07.7.07,1.01.02.31-.04.58-.13.8-.22.22-.09.38-.19.49-.26.11-.07.17-.12.17-.11Z"/>
      <path class="cls-3" d="m9,24.67s-.07.18-.15.48c-.04.15-.08.33-.11.53-.03.2-.04.42-.04.66,0,.23.03.46.07.66.04.2.08.38.13.52.1.29.18.46.17.47,0,0-.03-.04-.07-.12-.02-.04-.04-.09-.07-.14-.02-.06-.05-.12-.08-.19-.05-.15-.1-.32-.14-.53-.04-.2-.07-.43-.07-.66,0-.24.01-.46.04-.67.03-.2.07-.38.12-.53.02-.07.05-.14.07-.2.02-.06.04-.11.06-.15.04-.08.06-.12.06-.12Z"/>
      <path class="cls-3" d="m15.52,31.91s-.02-.02-.04-.05c-.03-.04-.07-.09-.11-.16-.1-.14-.23-.34-.38-.61-.15-.27-.3-.6-.41-.98-.06-.19-.11-.4-.14-.61-.03-.22-.05-.44-.05-.67,0-.93.26-1.75.53-2.29.13-.27.26-.48.35-.62.05-.07.09-.12.11-.16.03-.04.04-.05.04-.05,0,0-.01.02-.03.06-.02.04-.06.09-.1.16-.09.14-.21.36-.33.63-.25.54-.5,1.36-.51,2.28,0,.23.02.45.05.67.03.21.08.42.14.61.11.38.26.71.4.98.14.27.27.47.36.62.04.07.08.12.11.16.02.04.04.06.03.06Z"/>
      <path class="cls-3" d="m14.5,27.66s-.04.02-.11.04c-.08.02-.19.02-.33,0-.14-.03-.29-.09-.45-.18-.16-.09-.33-.2-.48-.34-.32-.28-.52-.61-.63-.86-.05-.13-.09-.23-.11-.31-.02-.07-.03-.12-.02-.12,0,0,.05.16.17.41.12.24.32.56.63.84.15.14.32.25.47.34.16.09.3.15.44.18.26.07.43,0,.43,0Z"/>
      <path class="cls-3" d="m21.78,32.5s-.03-.01-.09-.05c-.06-.03-.14-.09-.24-.16-.19-.14-.45-.36-.68-.64-.23-.28-.39-.57-.49-.79-.05-.11-.08-.2-.1-.26-.02-.06-.03-.1-.03-.1,0,0,.06.13.17.35.1.21.27.5.5.78.23.28.47.5.66.64.19.15.31.22.31.23Z"/>
      <path class="cls-3" d="m28.52,29.37s0,.04.01.11c0,.07,0,.17,0,.29,0,.24-.01.59-.1.95-.08.37-.24.68-.37.89-.07.1-.12.18-.17.24-.04.05-.07.08-.07.08,0,0,.08-.13.21-.34.12-.21.27-.52.35-.88.08-.36.1-.7.11-.94,0-.24.01-.4.02-.4Z"/>
      <path class="cls-3" d="m32.78,24.17s.02,0,.05.02c.03.02.08.04.13.07.11.07.26.18.43.35.16.17.33.39.47.67.07.14.13.29.19.45.05.16.1.33.13.5.14.7.14,1.35.12,1.81,0,.23-.02.42-.03.55,0,.06,0,.11-.01.15,0,.03,0,.05,0,.05,0,0,0-.02,0-.05,0-.04,0-.09,0-.15,0-.14,0-.32.01-.55,0-.46,0-1.11-.14-1.8-.04-.17-.08-.34-.13-.5-.05-.16-.11-.31-.18-.44-.13-.27-.3-.5-.45-.67-.16-.17-.31-.28-.41-.36-.11-.07-.17-.11-.17-.11Z"/>
      <path class="cls-3" d="m31.6,25.28s.03-.03.1-.09c.07-.05.17-.13.28-.24.24-.2.54-.5.84-.87.3-.37.52-.74.66-1.02.07-.14.13-.25.17-.33.04-.08.06-.12.06-.12,0,0-.01.05-.04.13-.03.08-.08.2-.15.34-.14.28-.36.66-.66,1.03-.3.37-.61.67-.86.87-.12.1-.22.17-.3.22-.07.05-.11.08-.12.07Z"/>
      <path class="cls-3" d="m31,11.56s0,.01.02.04c.01.03.03.06.05.11.04.1.1.25.14.44.1.38.14.93,0,1.51-.15.58-.46,1.04-.73,1.33-.13.14-.25.25-.34.31-.04.03-.08.06-.1.07-.02.02-.04.02-.04.02,0,0,.04-.04.13-.11.08-.07.2-.18.32-.32.26-.29.56-.74.7-1.31.15-.57.11-1.12.02-1.49-.04-.19-.09-.34-.13-.44-.04-.1-.06-.16-.06-.16Z"/>
      <path class="cls-3" d="m32.78,12.55s-.1,0-.26.03c-.16.02-.37.08-.59.19-.22.11-.39.25-.5.37-.11.11-.17.2-.17.19,0,0,.04-.09.15-.22.11-.12.28-.27.5-.39.22-.11.45-.17.61-.18.16-.01.26,0,.26,0Z"/>
      <path class="cls-3" d="m36.02,23.49s0-.03.02-.07c.01-.05.04-.11.06-.2.05-.18.11-.43.15-.76.04-.32.05-.71,0-1.14-.05-.43-.17-.89-.38-1.34-.1-.23-.23-.44-.36-.63-.13-.19-.28-.37-.42-.53-.3-.31-.6-.55-.88-.72-.28-.17-.52-.28-.69-.34-.08-.04-.15-.05-.2-.07-.05-.02-.07-.03-.07-.03,0,0,.03,0,.07.02.05.01.12.03.2.06.17.06.42.16.7.33.28.17.6.41.9.72.15.16.29.34.43.53.13.2.26.41.36.64.21.46.33.93.38,1.36.05.43.04.83,0,1.15-.04.33-.11.58-.17.76-.03.09-.06.15-.07.2-.02.04-.03.07-.03.07Z"/>
      <path class="cls-3" d="m36.01,17.05s0,.1-.06.25c-.05.15-.15.35-.29.55-.14.2-.3.35-.43.45-.13.1-.22.14-.22.13-.01-.01.33-.22.61-.61.28-.39.38-.78.39-.77Z"/>
      <path class="cls-3" d="m25.46,8.82s.02.04.04.1c.01.03.03.08.04.13.01.05.03.11.04.17.02.13.04.28.05.45,0,.17,0,.36-.04.55-.03.19-.09.38-.15.54-.06.16-.13.3-.19.41-.03.06-.06.1-.09.15-.03.04-.05.08-.08.11-.04.06-.07.09-.07.08,0,0,.09-.13.21-.36.06-.11.12-.25.18-.41.06-.16.11-.34.14-.53.03-.19.04-.38.05-.54,0-.17-.01-.32-.03-.45-.04-.25-.09-.4-.08-.41Z"/>
      <g class="cls-1">
        <path class="cls-2" d="m25.59,26.75c.09-.22.12-.55-.1-.64-.15-.07-.32.03-.46.12-.44.29-.56.48-1,.76-.31.2-.76.42-1.1.26-.37-.17-.38-.69-.59-1.03-.07-.11-.17-.21-.3-.2-.14,0-.3.13-.32.26-.02.13.02.3.02.44.02.42.02.64-.02.97-.02.08-.03.17-.04.26-.36-.02-.73-.03-1.05-.05-.08,0-.17,0-.23.06-.04.05-.06.12-.06.19-.02.12-.03.23-.03.35-1.68,0-3.26-.09-4.74-.9-1.6-.88-2.36-2.29-2.36-4.27,0,0,0-.59-.84-.6-.94-.01-.92,1.03-.92,1.03-.17,2.14,1.24,4.19,3.1,5.27,1.81,1.06,3.97,1.34,6.07,1.34.04.06.1.1.16.13.13.07.28.07.42.05.38-.04.76-.14,1.12-.29.09.08.22.16.48.21.47.08.83.11,1.3.05.29-.04.75-.22.84-.5.03-.09.03-.18.07-.26,0,0,0,0,0,0,.03-.04.07-.07.1-.11.02-.02.04-.03.06-.05.2-.2.25-.81.04-.99.03-.04.06-.09.09-.13l-.07.07c.24-.36.2-.67-.12-.98,0,0,0-.01.01-.02l-.02.02s0,0,0,0c.25-.35.35-.41.5-.79Z"/>
      </g>
      <g>
        <path class="cls-3" d="m13.2,22.84c0,1.98.76,3.39,2.36,4.27,1.6.88,3.31.92,5.13.9.03.62.05,1.25.08,1.87-2.15,0-4.37-.26-6.23-1.34-1.86-1.08-3.27-3.12-3.1-5.27,0,0-.01-1.04.92-1.03.85.01.84.6.84.6Z"/>
        <g>
          <g>
            <path class="cls-4" d="m25.48,25.62c-.15-.07-.32.03-.46.12-.44.29-.56.48-1,.76-.31.2-.76.42-1.1.26-.37-.17-.38-.69-.59-1.03-.07-.11-.17-.21-.3-.2-.14,0-.3.13-.32.26-.02.13.02.3.02.44.02.42.02.64-.02.97-.04.33-.11.93.08,1.21.09.45.21.75.4,1.16.05.11-.11.03-.01.1.11.08.21.25.6.31.47.08.83.11,1.3.05.29-.04.75-.22.84-.5.03-.09.03-.18.07-.26.04-.07.1-.12.15-.17.2-.2.25-.83.02-1,.28-.38.25-.71-.09-1.04.25-.35.35-.41.5-.79.09-.22.12-.55-.1-.64Z"/>
            <path class="cls-4" d="m22.6,27.74c-.07.06-.12-.17-.21-.19-.54-.12-1.22-.11-1.76-.14-.08,0-.17,0-.23.06-.04.05-.06.12-.06.19-.07.55-.06,1.11.05,1.66.06.28.16.58.38.7.13.07.28.07.42.05.8-.08,1.58-.43,2.21-1l-.8-1.32Z"/>
          </g>
          <path class="cls-3" d="m22.19,29.71s-.03-.03-.06-.08c-.02-.03-.04-.06-.06-.1-.02-.04-.05-.09-.07-.14-.11-.21-.21-.53-.27-.89-.06-.36-.08-.69-.06-.93,0-.06,0-.11.02-.16,0-.05.01-.09.02-.12.01-.06.02-.1.03-.1,0,0-.02.15-.03.38,0,.23,0,.56.07.91.06.35.16.66.26.88.09.22.18.34.17.34Z"/>
          <path class="cls-3" d="m24.78,28.48s.12-.11.26-.25c.14-.14.22-.27.24-.27.01,0-.06.16-.2.3-.14.15-.29.22-.29.21Z"/>
          <path class="cls-3" d="m24.7,29.51s.12-.11.26-.25c.14-.14.22-.27.24-.27.01,0-.06.16-.2.3-.14.15-.29.22-.29.21Z"/>
          <path class="cls-3" d="m24.6,27.55s.12-.11.26-.25c.14-.14.22-.27.24-.27.01,0-.06.16-.2.3-.14.15-.29.22-.29.21Z"/>
        </g>
      </g>
      <g>
        <path class="cls-3" d="m20.41,17.66c-.03.23-.84.3-1.75.62-.91.3-1.6.73-1.76.57-.08-.08.01-.31.27-.59.25-.27.69-.58,1.23-.76.54-.18,1.07-.21,1.44-.14.37.06.58.19.57.3Z"/>
        <path class="cls-3" d="m29.09,13.92c-.18.18-.85-.02-1.65-.05-.81-.05-1.5.09-1.65-.1-.07-.09.04-.28.35-.44.3-.17.8-.3,1.35-.27.56.03,1.03.2,1.31.4.28.19.37.39.29.47Z"/>
      </g>
      <g>
        <path class="cls-4" d="m29.28,17.42c1.32.52,1.95,2.06,1.4,3.46-.55,1.4-2.06,2.11-3.38,1.59-1.32-.52-1.95-2.06-1.4-3.46.55-1.4,2.06-2.11,3.38-1.59Z"/>
        <path class="cls-3" d="m29.33,17.29c1.32.52,2.01,1.91,1.54,3.11-.47,1.2-1.92,1.76-3.24,1.25-1.32-.52-2.01-1.91-1.54-3.11.47-1.2,1.92-1.76,3.24-1.25Z"/>
      </g>
      <g>
        <path class="cls-4" d="m21.32,19.2c1.07.92,1.15,2.59.17,3.73-.98,1.14-2.64,1.31-3.71.38-1.07-.92-1.15-2.59-.17-3.73.98-1.14,2.64-1.31,3.71-.38Z"/>
        <path class="cls-3" d="m21.41,19.1c1.07.92,1.26,2.47.41,3.45-.84.98-2.4,1.02-3.47.1-1.07-.92-1.26-2.47-.41-3.45.84-.98,2.4-1.02,3.47-.1Z"/>
      </g>
      <g>
        <g class="cls-1">
          <path class="cls-2" d="m24.02,23.18c-.29.2-.26.48-.26.83,0,.17.05.29.15.42.1.13.26.22.42.22.28-.01.53-.25.65-.5.18-.37.23-.79.25-1.2-.35-.04-.93.03-1.22.24Z"/>
        </g>
        <path class="cls-3" d="m24.98,24.15s0,.01-.02.04c-.01.02-.03.06-.06.1-.06.08-.16.19-.31.3-.08.05-.17.09-.28.1-.11.01-.23-.02-.33-.1-.1-.08-.17-.19-.2-.32-.03-.13-.03-.27-.03-.41,0-.14.02-.28.07-.4.05-.13.14-.23.24-.3.2-.15.42-.2.6-.23.18-.02.33-.02.43-.02.1,0,.16,0,.16.01,0,0-.06,0-.16.01-.1,0-.25,0-.42.03-.17.03-.39.08-.57.23-.09.07-.17.17-.22.28-.05.12-.06.25-.07.38,0,.14,0,.27.03.39.03.12.1.23.18.3.09.07.2.1.3.09.1,0,.19-.05.27-.09.14-.1.25-.21.31-.28.06-.08.09-.12.1-.12Z"/>
      </g>
      <path class="cls-3" d="m20.51,38.33c-.85-.15-1.74-.16-2.58.04-.44.1-.87.24-1.23.51-.36.27-.65.55-.61.99h6.54c0-.79-1.27-1.39-2.11-1.54Z"/>
      <path class="cls-3" d="m27.74,38.31c.85-.15,1.74-.16,2.58.04.44.1.87.24,1.23.51s.62.58.59,1.02l-6.52-.02c0-.79,1.27-1.4,2.11-1.55Z"/>
      <path class="cls-3" d="m18.09,10.17s-.08-.03-.22-.09c-.14-.06-.35-.12-.62-.17-.27-.05-.59-.06-.94-.01-.35.05-.73.16-1.09.37-.35.21-.65.48-.86.76-.22.28-.37.57-.46.82-.09.25-.14.47-.16.62-.02.15-.03.23-.03.23,0,0,0-.02,0-.06,0-.04,0-.1.01-.17.02-.15.06-.37.15-.63.09-.26.24-.55.46-.84.22-.29.51-.56.88-.77.36-.21.75-.32,1.11-.37.36-.05.69-.03.95.02.27.05.48.12.62.18.07.03.12.06.16.08.04.02.05.03.05.03Z"/>
      <g class="cls-1">
        <path class="cls-2" d="m24.31,13.33c.1-.72-.15-1.48-.67-2-.51-.52-1.27-.78-2-.68,0-.71,0-1.41,0-2.12,0,0,.54.11.55,1.64,0,0,1.29-.12,2,1.1.71,1.23.12,2.06.12,2.06Z"/>
      </g>
      <path class="cls-3" d="m22.48,16.38s0-.03,0-.09c0-.03,0-.06,0-.1,0-.04,0-.09,0-.14,0-.21-.01-.53-.12-.89-.02-.09-.06-.18-.1-.28-.04-.1-.09-.19-.14-.29-.06-.1-.11-.2-.18-.3-.03-.05-.07-.1-.1-.15-.04-.05-.08-.1-.12-.14-.17-.19-.36-.38-.59-.53-.23-.15-.48-.28-.76-.36-.28-.08-.57-.11-.84-.1-.27,0-.54.06-.78.13-.06.02-.12.04-.18.06-.06.02-.11.05-.17.07-.11.04-.21.1-.31.15-.09.06-.19.11-.27.18-.08.06-.17.12-.23.19-.29.25-.47.51-.58.69-.03.04-.05.09-.07.12-.02.04-.03.07-.05.09-.03.05-.04.08-.04.08,0,0,0-.03.03-.08.01-.03.03-.06.04-.1.02-.04.04-.08.07-.13.1-.19.29-.45.57-.71.07-.07.15-.13.23-.19.08-.06.18-.12.27-.18.1-.05.2-.12.31-.16.06-.02.11-.05.17-.07.06-.02.12-.04.18-.06.25-.07.51-.13.79-.14.28,0,.57.02.86.1.28.09.55.22.78.37.23.15.43.35.6.54.04.05.08.1.12.15.04.05.07.1.11.15.07.1.12.2.18.3.05.1.1.2.14.3.03.1.08.19.1.29.1.37.12.69.11.9,0,.05,0,.1-.01.14,0,.04-.01.07-.01.1,0,.06-.01.09-.02.09Z"/>
      <path class="cls-3" d="m13.08,19.46s-.02,0-.05,0c-.03,0-.09-.02-.15-.04-.13-.04-.32-.11-.53-.24-.21-.13-.44-.31-.65-.56-.21-.25-.39-.57-.49-.93-.1-.36-.11-.73-.06-1.05.05-.32.15-.6.27-.82.12-.22.24-.38.33-.48.04-.05.08-.09.11-.11.03-.02.04-.04.04-.04,0,0-.05.06-.14.16-.09.1-.2.26-.31.48-.11.22-.21.49-.25.81-.05.32-.04.67.06,1.03.1.35.28.67.48.91.2.25.43.43.63.56.2.13.39.21.51.25.13.05.2.06.2.07Z"/>
      <path class="cls-3" d="m9.39,15.77s.11,0,.29.03c.18.03.41.11.66.23.25.12.45.27.58.38.13.12.21.2.2.21,0,0-.09-.07-.23-.18-.14-.11-.34-.25-.58-.37-.24-.12-.47-.19-.65-.24-.17-.04-.28-.06-.28-.07Z"/>
      <path class="cls-3" d="m24.05,14.26s-.11-.03-.29-.06c-.18-.03-.43-.05-.71-.02-.27.03-.51.12-.68.19-.16.08-.26.14-.26.13,0,0,.02-.02.06-.05.04-.03.11-.07.19-.11.16-.09.41-.18.69-.21.28-.03.54,0,.72.03.09.02.16.04.21.06.05.02.07.03.07.03Z"/>
      <g class="cls-1">
        <path class="cls-2" d="m23.25,13.73c-.38-.07-.79,0-1.13.19-.56-.96-1.72-1.54-2.82-1.42-1.11.12-1.98.97-2.32,2.03.57-1.06,1.55-1.48,2.58-1.5,1.03-.03,2.09.54,2.55,1.47.64-.37,1.44-.44,2.14-.19-.25-.3-.61-.5-1-.57Z"/>
      </g>
      <g class="cls-1">
        <path class="cls-2" d="m12.2,14.96c-.6.04-1.17.38-1.49.9-.4-.19-.87-.21-1.31-.09.67.06,1.33.4,1.77.92-.04-.71.38-1.42,1.02-1.72Z"/>
      </g>
      <g class="cls-1">
        <path class="cls-2" d="m36.37,19.36c-.58-.98-1.84-1.71-2.98-1.67h-.03c.9.34,1.92,1.05,2.46,2.16.42.87.6,1.98.43,2.93.58-.98.7-2.44.12-3.42Z"/>
      </g>
      <g>
        <g>
          <path class="cls-4" d="m36.7,33.98c.01-.08.02-.16.02-.25,0-.24.03-.45-.04-.72-.05-.19-.14-.38-.21-.46.14-.32.24-.66.27-1,.01-.13.02-.26-.04-.38-.11-.2-.37-.3-.62-.35-.48-.1-.99-.13-1.49-.06-.06,0-.13.02-.17.06-.06.05-.06.13-.06.2.01.25.05.67.02,1.08-.25.09-.48.24-.68.44,0,0,0,0,0,0-.22.22-.74.58-.74.58-.15.1-.24.2-.25.32,0,.11.05.21.14.27.31.2.99-.3.99-.3,0,0-.12.38-.3.65-.31.46-.07.08-.54.78-.05.07-.2.26-.14.46.06.21.21.23.41.15.34-.13.79-.61,1.08-.85-.08.1-.48.68-.55.78-.09.15-.19.27-.14.39.04.12.22.17.35.16.11,0,.19-.08.27-.15.22-.2.52-.56.71-.79-.09.21-.31.61-.36.83-.02.08-.08.25-.04.33.06.13.24.13.37.08.17-.07.4-.34.5-.49.1-.15.17-.32.23-.49,0,0-.03.12-.06.19-.03.07-.12.28-.12.36,0,.08-.09.37.04.45.17.11.31-.07.35-.12.29-.37.46-.87.58-1.21.1-.3.15-.62.19-.94Z"/>
          <path class="cls-3" d="m36.7,33.98s0,.02,0,.07c0,.05-.01.11-.02.19-.03.17-.06.42-.17.73-.05.15-.11.33-.19.51-.08.18-.17.38-.31.57-.07.09-.14.2-.27.24-.07.02-.14,0-.19-.05-.05-.06-.05-.13-.05-.2,0-.07.01-.13.02-.2,0-.02,0-.03,0-.05,0-.02,0-.04,0-.05,0-.03.02-.07.03-.1.02-.07.05-.13.08-.2.03-.06.05-.13.06-.2h.04c-.08.21-.16.42-.3.6-.07.09-.15.18-.24.26-.04.04-.09.08-.15.11-.05.03-.12.05-.18.06-.06,0-.13,0-.19-.03-.03-.02-.06-.04-.08-.07-.02-.03-.03-.07-.03-.1,0-.07.02-.13.04-.19.02-.06.03-.12.06-.18.09-.24.22-.48.33-.72l.04.02c-.16.19-.32.38-.49.57-.09.09-.18.19-.28.27-.05.04-.11.08-.18.1-.07.02-.14.01-.21,0-.07-.02-.14-.04-.19-.1-.05-.06-.06-.15-.03-.21.02-.07.06-.13.1-.19.04-.06.07-.11.12-.17.16-.23.32-.46.48-.69l.04.04c-.27.22-.52.49-.82.7-.08.05-.16.1-.24.14-.09.04-.18.07-.29.04-.05-.01-.1-.05-.13-.09-.03-.04-.05-.09-.06-.14-.03-.1,0-.2.04-.29.32-.55.78-1,.94-1.59l.04.03c-.13.09-.27.17-.42.24-.15.06-.3.12-.47.11-.08-.01-.16-.05-.22-.11-.06-.06-.08-.15-.08-.23,0-.08.05-.16.11-.22.05-.06.12-.1.18-.14.24-.17.49-.34.7-.54.2-.21.45-.37.71-.47l-.02.02c.02-.27.01-.54,0-.8,0-.07,0-.13-.01-.2,0-.06-.01-.13,0-.2,0-.03.02-.07.05-.09.03-.03.06-.04.09-.05.07-.02.13-.02.19-.03.5-.05.97-.01,1.4.08.21.05.42.11.57.26.07.08.11.18.12.27,0,.1,0,.19-.01.28-.05.36-.15.68-.27.94h0c.07.09.12.19.16.29.04.1.06.2.07.29.03.18.02.34.02.46,0,.12-.01.22-.02.28,0,.06-.01.1-.01.1,0,0,0-.03,0-.1,0-.06.01-.16.01-.28,0-.12,0-.28-.02-.46-.01-.09-.04-.19-.08-.28-.04-.1-.08-.2-.15-.3,0,0,0,0,0-.01.11-.26.22-.57.26-.93.01-.09.02-.18.01-.27,0-.09-.04-.18-.11-.25-.13-.14-.34-.21-.55-.25-.42-.09-.89-.12-1.38-.07-.06,0-.12.01-.18.03-.06.02-.1.06-.11.11-.01.06,0,.12,0,.19,0,.06,0,.13.01.2.01.26.02.53,0,.81,0,0,0,.02-.02.02-.26.09-.49.25-.69.46-.21.2-.45.37-.7.54-.06.04-.12.08-.17.14-.05.05-.09.12-.09.19,0,.07.02.14.06.19.05.05.11.09.18.1.15.01.3-.04.44-.1.14-.06.28-.15.41-.24h0s.03,0,.04,0c0,0,0,.02,0,.02-.05.15-.11.29-.17.43-.07.14-.16.27-.24.4-.04.06-.09.13-.14.19-.04.06-.09.13-.13.19l-.13.2c-.04.07-.09.13-.12.2-.04.08-.06.17-.04.25.02.08.07.17.15.18.08.02.17,0,.25-.04.08-.04.16-.08.23-.13.3-.21.55-.47.82-.7.01,0,.03,0,.04,0,0,0,0,.02,0,.03h0c-.16.23-.32.46-.48.69-.04.06-.08.11-.12.17-.04.06-.07.11-.09.17-.02.06-.01.12.03.17.04.05.1.07.16.08.06.01.13.02.19,0,.06-.02.11-.05.16-.09.1-.08.19-.18.27-.27.17-.19.33-.38.49-.57,0-.01.02-.01.03,0,0,0,.01.02,0,.03-.11.25-.24.48-.33.72-.02.06-.04.12-.06.18-.02.06-.03.12-.03.18,0,.06.03.1.08.13.05.03.11.03.17.03.12,0,.21-.08.3-.16.09-.08.16-.17.23-.25.14-.18.22-.39.3-.58,0,0,.01-.01.02-.01,0,0,.01.01.01.02-.02.07-.03.14-.06.21-.03.06-.05.13-.08.19-.01.03-.02.07-.03.1,0,.02,0,.03,0,.05,0,.02,0,.04,0,.05-.01.07-.02.13-.03.2,0,.06,0,.13.04.17.04.04.1.06.16.04.11-.03.19-.14.25-.23.13-.19.23-.38.31-.56.08-.18.14-.35.19-.51.11-.31.15-.56.18-.73.01-.08.02-.15.03-.19,0-.04.01-.07.01-.07Z"/>
        </g>
        <path class="cls-3" d="m36.49,32.56s-.1-.08-.27-.19c-.17-.11-.43-.25-.73-.31-.31-.06-.59-.03-.8,0-.2.03-.33.07-.33.06,0,0,.03-.01.08-.03.06-.02.14-.04.24-.06.2-.04.5-.07.81-.01.32.06.58.2.74.33.08.06.15.12.19.16.04.04.06.06.06.07Z"/>
      </g>
    </g>
  </g>
</svg>