<?xml version="1.0" encoding="UTF-8"?>
<svg id="Layer_2" data-name="Layer 2" xmlns="http://www.w3.org/2000/svg" viewBox="0 0 44.7 44.58">
  <defs>
    <style>
      .cls-1 {
        opacity: .3;
      }

      .cls-2, .cls-3, .cls-4, .cls-5, .cls-6 {
        stroke-width: 0px;
      }

      .cls-3 {
        fill: #f8f9fc;
      }

      .cls-4 {
        fill: #263238;
      }

      .cls-5 {
        fill: #fff;
      }

      .cls-6 {
        fill: #00bcd4;
      }
    </style>
  </defs>
  <g id="Device">
    <g>
      <circle class="cls-3" cx="22.71" cy="22.39" r="21.99" transform="translate(-9.18 22.61) rotate(-45)"/>
      <path class="cls-4" d="m44.44,22.29s-.02-.12-.04-.36c-.02-.26-.05-.61-.08-1.05-.02-.23-.03-.49-.05-.77-.03-.28-.09-.59-.15-.92-.11-.66-.21-1.44-.47-2.27-.39-1.7-1.2-3.71-2.46-5.84-1.27-2.12-3.1-4.33-5.59-6.21-2.48-1.86-5.61-3.44-9.22-4.07-3.58-.61-7.63-.5-11.48.96-.98.31-1.9.8-2.85,1.25-.9.54-1.84,1.04-2.68,1.72-.89.61-1.66,1.37-2.48,2.11-.73.81-1.51,1.61-2.14,2.53-1.3,1.81-2.43,3.81-3.12,6.02-.71,2.19-1.09,4.52-1.13,6.89.03,2.37.41,4.7,1.12,6.89.69,2.21,1.82,4.21,3.12,6.02.63.92,1.4,1.72,2.14,2.53.81.73,1.59,1.5,2.48,2.11.84.68,1.78,1.18,2.68,1.72.95.45,1.87.94,2.85,1.25,3.85,1.47,7.9,1.58,11.48.96,3.61-.64,6.74-2.22,9.22-4.07,2.49-1.88,4.32-4.09,5.59-6.21,1.26-2.13,2.06-4.14,2.46-5.84.26-.84.36-1.61.47-2.27.05-.33.11-.64.15-.92.02-.28.04-.54.05-.77.03-.44.06-.78.08-1.05.02-.24.04-.36.04-.36s.01.12,0,.36c0,.26-.02.61-.03,1.05,0,.23-.02.49-.03.78-.02.28-.08.59-.12.93-.09.67-.18,1.45-.43,2.3-.37,1.72-1.15,3.77-2.4,5.94-1.26,2.16-3.1,4.42-5.62,6.35-2.51,1.91-5.68,3.54-9.36,4.21-3.65.65-7.78.55-11.72-.94-1-.32-1.95-.81-2.92-1.27-.92-.55-1.89-1.06-2.74-1.75-.91-.62-1.71-1.4-2.54-2.15-.75-.83-1.54-1.64-2.19-2.59-1.33-1.85-2.5-3.9-3.2-6.16-.73-2.24-1.12-4.63-1.15-7.05.03-2.42.42-4.81,1.16-7.05.71-2.26,1.87-4.31,3.2-6.15.65-.94,1.44-1.76,2.19-2.59.83-.75,1.63-1.53,2.54-2.15.86-.69,1.82-1.2,2.74-1.75.97-.46,1.91-.96,2.92-1.27C18.69-.17,22.82-.27,26.47.38c3.68.67,6.85,2.3,9.36,4.21,2.52,1.93,4.35,4.19,5.62,6.35,1.25,2.17,2.04,4.21,2.4,5.94.24.85.33,1.63.43,2.3.04.34.1.64.12.93,0,.28.02.54.03.78.01.44.02.79.03,1.05,0,.24,0,.36,0,.36Z"/>
    </g>
  </g>
  <g id="Layer_33" data-name="Layer 33">
    <g>
      <path class="cls-6" d="m6.02,27.71l-.58-2.18,15.77,3.14,13.93-19.59,1.7,3.16c.26.49.26,1.08,0,1.57l-12.09,22.14c-.91,1.66-3,2.24-4.64,1.3l-12.21-7.09c-.93-.54-1.6-1.42-1.88-2.45Z"/>
      <g class="cls-1">
        <path class="cls-2" d="m6.02,27.71l-.58-2.18,15.77,3.14,13.93-19.59,1.7,3.16c.26.49.26,1.08,0,1.57l-12.09,22.14c-.91,1.66-3,2.24-4.64,1.3l-12.21-7.09c-.93-.54-1.6-1.42-1.88-2.45Z"/>
      </g>
      <path class="cls-6" d="m5.48,24.49l2.27-4.02c.33-.58,1.04-.8,1.64-.51l9.12,4.47c.61.3,1.34.06,1.65-.54L29.2,6.91c.34-.64,1.14-.85,1.76-.48l3.68,2.26c.57.35.76,1.08.44,1.66l-11.81,21.63c-.8,1.46-2.61,2-4.08,1.22l-13.21-7.01c-.62-.33-.85-1.11-.5-1.72Z"/>
      <path class="cls-5" d="m17.89,25.46s-.18-.06-.49-.19c-.34-.15-.78-.35-1.3-.59-1.09-.51-2.6-1.22-4.25-2.01-.41-.2-.82-.39-1.21-.58-.19-.09-.39-.19-.57-.28-.18-.09-.36-.15-.55-.17-.37-.04-.73.1-.98.32-.26.21-.38.53-.53.79-.29.5-.52.91-.71,1.24-.17.29-.27.45-.28.44s.07-.18.22-.48c.17-.33.39-.76.65-1.27.07-.13.14-.27.22-.42.08-.15.19-.3.33-.42.28-.25.68-.41,1.1-.38.21.01.43.09.61.18.19.09.38.18.58.27.39.19.8.38,1.21.58,1.66.8,3.15,1.53,4.23,2.06.51.26.94.48,1.27.65.3.16.46.25.46.26Z"/>
      <path class="cls-5" d="m21.23,24.73s1.87-3.81,4.28-8.46c2.41-4.65,4.41-8.4,4.45-8.37.05.02-1.87,3.81-4.28,8.46-2.41,4.65-4.4,8.4-4.45,8.37Z"/>
    </g>
  </g>
</svg>