<?xml version="1.0" encoding="UTF-8"?>
<svg id="Layer_2" data-name="Layer 2" xmlns="http://www.w3.org/2000/svg" viewBox="0 0 44.52 44.58">
  <defs>
    <style>
      .cls-1 {
        opacity: .2;
      }

      .cls-2 {
        opacity: .3;
      }

      .cls-3, .cls-4, .cls-5, .cls-6 {
        stroke-width: 0px;
      }

      .cls-4 {
        fill: #263238;
      }

      .cls-5 {
        fill: #fff;
      }

      .cls-6 {
        fill: #00bcd4;
      }
    </style>
  </defs>
  <g id="Device">
    <g>
      <circle class="cls-5" cx="22.35" cy="22.41" r="22.16"/>
      <path class="cls-4" d="m44.44,22.29s-.02-.12-.04-.36c-.02-.26-.05-.61-.08-1.05-.02-.23-.03-.49-.05-.77-.03-.28-.09-.59-.15-.92-.11-.66-.21-1.44-.47-2.27-.39-1.7-1.2-3.71-2.46-5.84-1.27-2.12-3.1-4.33-5.59-6.21-2.48-1.86-5.61-3.44-9.22-4.07-3.58-.61-7.63-.5-11.48.96-.98.31-1.9.8-2.85,1.25-.9.54-1.84,1.04-2.68,1.72-.89.61-1.66,1.37-2.48,2.11-.73.81-1.51,1.61-2.14,2.53-1.3,1.81-2.43,3.81-3.12,6.02-.71,2.19-1.09,4.52-1.13,6.89.03,2.37.41,4.7,1.12,6.89.69,2.21,1.82,4.21,3.12,6.02.63.92,1.4,1.72,2.14,2.53.81.73,1.59,1.5,2.48,2.11.84.68,1.78,1.18,2.68,1.72.95.45,1.87.94,2.85,1.25,3.85,1.47,7.9,1.58,11.48.96,3.61-.64,6.74-2.22,9.22-4.07,2.49-1.88,4.32-4.09,5.59-6.21,1.26-2.13,2.06-4.14,2.46-5.84.26-.84.36-1.61.47-2.27.05-.33.11-.64.15-.92.02-.28.04-.54.05-.77.03-.44.06-.78.08-1.05.02-.24.04-.36.04-.36s.01.12,0,.36c0,.26-.02.61-.03,1.05,0,.23-.02.49-.03.78-.02.28-.08.59-.12.93-.09.67-.18,1.45-.43,2.3-.37,1.72-1.15,3.77-2.4,5.94-1.26,2.16-3.1,4.42-5.62,6.35-2.51,1.91-5.68,3.54-9.36,4.21-3.65.65-7.78.55-11.72-.94-1-.32-1.95-.81-2.92-1.27-.92-.55-1.89-1.06-2.74-1.75-.91-.62-1.71-1.4-2.54-2.15-.75-.83-1.54-1.64-2.19-2.59-1.33-1.85-2.5-3.9-3.2-6.16-.73-2.24-1.12-4.63-1.15-7.05.03-2.42.42-4.81,1.16-7.05.71-2.26,1.87-4.31,3.2-6.15.65-.94,1.44-1.76,2.19-2.59.83-.75,1.63-1.53,2.54-2.15.86-.69,1.82-1.2,2.74-1.75.97-.46,1.91-.96,2.92-1.27C18.69-.17,22.82-.27,26.47.38c3.68.67,6.85,2.3,9.36,4.21,2.52,1.93,4.35,4.19,5.62,6.35,1.25,2.17,2.04,4.21,2.4,5.94.24.85.33,1.63.43,2.3.04.34.1.64.12.93,0,.28.02.54.03.78.01.44.02.79.03,1.05,0,.24,0,.36,0,.36Z"/>
    </g>
  </g>
  <g id="Layer_11" data-name="Layer 11">
    <g>
      <path class="cls-6" d="m22.29,34.16c-.71,1.95-2.87,2.95-4.82,2.24-1.95-.71-2.95-2.87-2.24-4.82.71-1.95,2.87-2.95,4.82-2.24,1.95.71,2.95,2.87,2.24,4.82Z"/>
      <g>
        <path class="cls-6" d="m5.17,27.98l27.13,9.89-1.09-2.83c-.67-1.75-.69-3.69-.05-5.46l2.68-7.36c1.99-5.46-.82-11.5-6.28-13.49h0c-5.46-1.99-11.5.82-13.49,6.28l-2.58,7.08c-.6,1.64-1.73,3.03-3.21,3.95l-3.12,1.94Z"/>
        <rect class="cls-6" x="24.41" y="6.85" width="6.02" height="2.83" rx="1.23" ry="1.23" transform="translate(10.26 31.2) rotate(-69.97)"/>
      </g>
      <path class="cls-4" d="m32.29,37.94c-.02.06-6.07-2.1-13.51-4.81-7.44-2.72-13.46-4.96-13.44-5.02.02-.06,6.07,2.1,13.51,4.82,7.44,2.71,13.46,4.96,13.44,5.02Z"/>
      <g class="cls-2">
        <path class="cls-3" d="m15.2,31.7s1.02,1.75,2.97,2.46c2.31.84,4.08.11,4.08.11l-7.05-2.57Z"/>
      </g>
      <g class="cls-1">
        <path class="cls-3" d="m33.39,20.4c.1-.32.2-.65.14-.98-.06-.33-.33-.65-.66-.64h0c-.37-.06-.73.16-.86.51-.43,1.16-1.38,3.73-2,5.23-.51,1.24-1.18,2.52-2.34,3.19-.9.52-2,.58-3.02.39-1.02-.18-1.98-.59-2.95-.96-1.22-.47-2.48-.88-3.78-1.04-.35-.04-.72-.06-1.03.08-.32.15-.57.51-.47.84.09.31.41.48.7.62,2.99,1.4,6.03,2.76,9.25,3.52.67.16,1.39.28,2.03.02.72-.3,1.15-1.03,1.51-1.72,1.49-2.88,2.55-5.96,3.5-9.07Z"/>
      </g>
      <g>
        <g class="cls-1">
          <path class="cls-5" d="m25.72,10.87c-.03-.67-.45-1.41-1.69-1.53-1.99-.2-3.71.35-5.37,1.48-1.67,1.13-2.92,2.87-3.46,4.81-.19.68-.28,1.45.1,2.04.58.89,1.98.85,2.84.22.86-.63,1.33-1.64,1.84-2.57.51-.93,1.16-1.89,2.16-2.24.81-.28,1.74-.13,2.49-.54.6-.33,1.11-.99,1.09-1.66Z"/>
        </g>
        <g class="cls-1">
          <path class="cls-5" d="m24.01,9.34s.02,0,.02,0c.01,0,.03,0,.04,0h-.06Z"/>
        </g>
      </g>
      <path class="cls-4" d="m32.68,12.61s-.41-.53-1.18-1.29c-.38-.38-.88-.79-1.46-1.19-.59-.39-1.27-.78-2.02-1.1-.76-.31-1.51-.53-2.2-.68-.7-.13-1.34-.2-1.87-.21-1.08-.03-1.74.1-1.75.05,0-.01.16-.05.46-.1.15-.03.33-.06.55-.07.22-.01.46-.04.74-.03.55-.01,1.2.05,1.91.17.71.14,1.48.35,2.25.67.77.33,1.46.73,2.05,1.14.59.42,1.08.85,1.45,1.25.2.19.35.39.49.55.14.16.25.31.34.44.17.25.26.39.25.4Z"/>
      <path class="cls-5" d="m12.77,19.66s.04-.2.14-.55c.11-.35.27-.86.48-1.48.43-1.23,1.07-2.96,2.19-4.65,1.11-1.69,2.56-2.9,3.75-3.49.59-.3,1.1-.48,1.46-.56.36-.09.56-.11.56-.1.01.05-.81.17-1.95.8-1.14.61-2.54,1.81-3.64,3.47-1.1,1.66-1.75,3.36-2.22,4.58-.22.58-.4,1.07-.55,1.45-.13.34-.21.53-.22.53Z"/>
      <path class="cls-5" d="m9.15,25.92c-.04-.05.75-.6,1.48-1.49.75-.89,1.14-1.76,1.2-1.73.05.01-.26.95-1.03,1.87-.76.92-1.63,1.4-1.65,1.35Z"/>
      <path class="cls-5" d="m18.14,35.85s-.25.03-.62-.08c-.37-.11-.87-.37-1.27-.83-.4-.45-.61-.98-.68-1.36-.07-.39-.04-.63-.01-.63.03,0,.05.23.16.59.1.36.31.83.69,1.25.37.42.82.68,1.17.83.34.15.57.19.57.22Z"/>
      <path class="cls-5" d="m27.92,5.63c.02.06-.43.25-.77.71-.35.46-.4.95-.46.94-.06.01-.1-.55.29-1.07.39-.53.94-.64.95-.58Z"/>
    </g>
  </g>
</svg>