<?xml version="1.0" encoding="UTF-8"?>
<svg id="Layer_2" data-name="Layer 2" xmlns="http://www.w3.org/2000/svg" viewBox="0 0 42.97 43.1">
  <defs>
    <style>
      .cls-1 {
        fill: #263238;
      }

      .cls-1, .cls-2, .cls-3, .cls-4 {
        stroke-width: 0px;
      }

      .cls-2 {
        fill: #e0e0e0;
      }

      .cls-3 {
        fill: #fff;
      }

      .cls-4 {
        fill: #00bcd4;
      }
    </style>
  </defs>
  <g id="Device">
    <g>
      <ellipse class="cls-3" cx="21.61" cy="21.47" rx="21.32" ry="21.27"/>
      <path class="cls-1" d="m42.96,21.55s-.02-.12-.04-.35c-.02-.26-.04-.59-.08-1.01-.02-.23-.03-.47-.05-.74-.03-.27-.09-.57-.14-.89-.11-.64-.21-1.39-.45-2.2-.38-1.64-1.16-3.58-2.38-5.64-1.23-2.05-3-4.18-5.4-6-2.4-1.8-5.42-3.32-8.91-3.94-3.46-.59-7.37-.48-11.09.93-.95.3-1.84.77-2.75,1.21-.87.52-1.78,1.01-2.59,1.66-.86.59-1.61,1.33-2.39,2.04-.71.79-1.45,1.55-2.07,2.45-1.26,1.74-2.35,3.68-3.01,5.81-.69,2.12-1.06,4.37-1.09,6.65.03,2.29.4,4.54,1.09,6.66.66,2.13,1.76,4.07,3.01,5.81.61.89,1.36,1.66,2.07,2.45.79.71,1.54,1.45,2.39,2.04.81.66,1.72,1.14,2.59,1.66.92.44,1.81.91,2.75,1.21,3.72,1.42,7.63,1.53,11.09.93,3.49-.61,6.51-2.14,8.91-3.94,2.4-1.81,4.17-3.95,5.4-6,1.22-2.06,1.99-4,2.38-5.64.25-.81.35-1.55.45-2.2.13-.64.17-1.19.19-1.63.03-.42.06-.76.08-1.01.02-.23.04-.35.04-.35,0,0,.01.12,0,.35,0,.26-.01.59-.03,1.02,0,.45-.03,1-.14,1.65-.09.65-.17,1.4-.41,2.22-.36,1.67-1.11,3.64-2.32,5.74-1.22,2.09-3,4.28-5.43,6.14-2.42,1.85-5.49,3.42-9.05,4.07-3.53.62-7.52.53-11.34-.91-.97-.31-1.88-.78-2.82-1.23-.89-.53-1.82-1.03-2.65-1.7-.88-.6-1.65-1.35-2.45-2.08-.73-.8-1.49-1.59-2.12-2.5-1.29-1.78-2.41-3.77-3.09-5.95C.41,26.2.03,23.89,0,21.55c.03-2.34.41-4.65,1.12-6.82.68-2.18,1.81-4.17,3.09-5.95.63-.91,1.39-1.7,2.12-2.5.8-.73,1.57-1.48,2.45-2.08.83-.67,1.76-1.16,2.65-1.7.94-.45,1.85-.92,2.82-1.23,3.81-1.43,7.8-1.53,11.34-.91,3.56.65,6.63,2.22,9.05,4.07,2.43,1.86,4.21,4.05,5.43,6.14,1.21,2.1,1.97,4.07,2.32,5.74.24.82.32,1.57.41,2.22.04.32.09.62.12.9,0,.27.02.52.03.75.01.43.02.76.03,1.02,0,.23,0,.35,0,.35Z"/>
    </g>
  </g>
  <g id="Layer_10" data-name="Layer 10">
    <g>
      <path class="cls-3" d="m32.55,7.18H10.9c-1.09,0-1.98.89-1.98,1.98v21.64c0,1.09.89,1.98,1.98,1.98h14.97l6.02,4.96v-4.96h.65c1.09,0,1.98-.89,1.98-1.98V9.16c0-1.09-.89-1.98-1.98-1.98Z"/>
      <g>
        <path class="cls-4" d="m14.3,7.18h15.65c2.53,0,4.58,2.05,4.58,4.58v3.33c0,.1-.08.17-.17.17H9.1c-.1,0-.17-.08-.17-.17v-2.54c0-2.97,2.41-5.37,5.37-5.37Z"/>
        <g>
          <path class="cls-1" d="m19.97,19.08v8.7h-2.01v-7.09h-1.74v-1.62h3.76Z"/>
          <path class="cls-1" d="m28.3,19.08v1.31l-3.23,7.4h-2.19l3.12-7.06h-2.88v1.42h-1.79v-3.06h6.98Z"/>
        </g>
        <path class="cls-1" d="m25.3,11.77s-1.76.08-3.93.08-3.93-.04-3.93-.08,1.76-.08,3.93-.08,3.93.04,3.93.08Z"/>
      </g>
      <path class="cls-1" d="m32.55,7.18s.04,0,.13,0c.09,0,.22.01.39.06.33.08.85.32,1.2.91.18.29.29.67.28,1.09,0,.41,0,.86,0,1.35,0,.97,0,2.09,0,3.34,0,2.5.01,5.54.02,9,0,1.73,0,3.58,0,5.52,0,.49,0,.98,0,1.47,0,.25,0,.5,0,.75,0,.25-.02.52-.11.77-.16.5-.53.94-1.02,1.18-.24.12-.51.2-.78.22-.27.02-.53,0-.8,0l.07-.07c0,1.56,0,3.24,0,4.96v.16s-.12-.1-.12-.1c-1.93-1.58-3.95-3.25-6.03-4.96l.05.02c-3.71,0-7.6,0-11.6,0-.91,0-1.82,0-2.72,0h-.68c-.23,0-.47-.05-.69-.13-.44-.16-.82-.47-1.05-.87-.12-.2-.21-.42-.25-.64-.05-.23-.04-.46-.04-.68,0-.44,0-.88,0-1.32,0-.88,0-1.74,0-2.6,0-3.44,0-6.76,0-9.93,0-1.58,0-3.12,0-4.62,0-.75,0-1.49,0-2.21,0-.36-.02-.72.04-1.09.07-.36.24-.71.48-.97.24-.27.56-.47.89-.58.34-.12.7-.1,1.04-.1.68,0,1.34,0,2,0,1.31,0,2.56,0,3.75,0,4.78.01,8.65.02,11.33.03,1.33,0,2.37.01,3.08.02.35,0,.62,0,.8,0,.18,0,.27,0,.27,0,0,0-.09,0-.27,0-.18,0-.45,0-.8,0-.71,0-1.75,0-3.08.02-2.68,0-6.55.02-11.33.03-1.2,0-2.45,0-3.75,0-.65,0-1.32,0-2,0-.34,0-.68-.02-1,.1-.32.11-.61.29-.83.55-.23.25-.38.57-.45.91-.06.34-.03.7-.03,1.07,0,.73,0,1.47,0,2.21,0,1.5,0,3.04,0,4.62,0,3.16,0,6.48,0,9.93,0,.86,0,1.73,0,2.6,0,.44,0,.88,0,1.32,0,.22,0,.44.04.64.04.21.12.41.23.59.22.37.57.66.97.8.4.16.85.11,1.3.12.9,0,1.81,0,2.72,0,4,0,7.89,0,11.6,0h.03l.02.02c2.08,1.71,4.1,3.38,6.02,4.96l-.12.06c0-1.72,0-3.4,0-4.96v-.07s.07,0,.07,0c.26,0,.53,0,.79,0,.25-.02.5-.09.72-.2.45-.23.79-.63.95-1.1.08-.23.1-.47.1-.73,0-.25,0-.5,0-.75,0-.5,0-.99,0-1.47,0-1.94,0-3.78,0-5.52,0-3.47.01-6.5.02-9,0-1.25,0-2.37,0-3.34-.03-.96.13-1.84-.26-2.42-.34-.58-.85-.82-1.17-.91-.34-.09-.52-.07-.52-.08Z"/>
      <g>
        <rect class="cls-2" x="24.69" y="4.67" width="1.67" height="5.78" rx=".81" ry=".81"/>
        <path class="cls-1" d="m25.55,10.45s.21.01.47-.19c.13-.1.25-.28.28-.51.01-.23,0-.52,0-.82,0-.62-.01-1.35-.02-2.15,0-.41,0-.83,0-1.27,0-.21-.07-.4-.21-.55-.15-.15-.35-.22-.57-.21-.21,0-.41.1-.55.25-.14.16-.19.35-.18.57,0,.44,0,.86,0,1.27,0,.8-.01,1.53-.02,2.15,0,.15,0,.3,0,.44,0,.14-.01.27,0,.38.04.23.18.39.31.49.28.19.49.14.49.16,0,0-.05.01-.14.01-.09,0-.23-.03-.38-.12-.15-.09-.31-.27-.37-.52-.03-.13-.02-.26-.02-.4,0-.14,0-.28,0-.44,0-.62-.01-1.35-.02-2.15,0-.41,0-.83,0-1.27-.02-.22.05-.49.22-.68.16-.19.41-.31.67-.31.25-.01.51.08.68.26.18.18.27.43.26.67,0,.44,0,.86,0,1.27,0,.8-.01,1.53-.02,2.15,0,.31,0,.58-.02.83-.04.26-.19.44-.33.54-.14.11-.28.14-.37.15-.09.01-.14,0-.14,0Z"/>
      </g>
      <g>
        <rect class="cls-2" x="16.87" y="4.67" width="1.67" height="5.78" rx=".81" ry=".81"/>
        <path class="cls-1" d="m17.73,10.45s.21.01.47-.19c.13-.1.25-.28.28-.51.01-.23,0-.52,0-.82,0-.62-.01-1.35-.02-2.15,0-.41,0-.83,0-1.27,0-.21-.07-.4-.21-.55-.15-.15-.35-.22-.57-.21-.21,0-.41.1-.55.25-.14.16-.19.35-.18.57,0,.44,0,.86,0,1.27,0,.8-.01,1.53-.02,2.15,0,.15,0,.3,0,.44,0,.14-.01.27,0,.38.04.23.18.39.31.49.28.19.49.14.49.16,0,0-.05.01-.14.01-.09,0-.23-.03-.38-.12-.15-.09-.31-.27-.37-.52-.03-.13-.02-.26-.02-.4,0-.14,0-.28,0-.44,0-.62-.01-1.35-.02-2.15,0-.41,0-.83,0-1.27-.02-.22.05-.49.22-.68.16-.19.41-.31.67-.31.25-.01.51.08.68.26.18.18.27.43.26.67,0,.44,0,.86,0,1.27,0,.8-.01,1.53-.02,2.15,0,.31,0,.58-.02.83-.04.26-.19.44-.33.54-.14.11-.28.14-.37.15-.09.01-.14,0-.14,0Z"/>
      </g>
    </g>
  </g>
</svg>