<?xml version="1.0" encoding="UTF-8"?>
<svg id="Layer_2" data-name="Layer 2" xmlns="http://www.w3.org/2000/svg" viewBox="0 0 42.97 43.1">
  <defs>
    <style>
      .cls-1 {
        fill: none;
      }

      .cls-1, .cls-2, .cls-3, .cls-4, .cls-5, .cls-6, .cls-7, .cls-8, .cls-9, .cls-10 {
        stroke-width: 0px;
      }

      .cls-3 {
        fill: #f8f9fc;
      }

      .cls-4 {
        fill: #263238;
      }

      .cls-5 {
        fill: #455a64;
      }

      .cls-6 {
        fill: #e0e0e0;
      }

      .cls-7 {
        fill: #fff;
      }

      .cls-8 {
        fill: #ffbe9d;
      }

      .cls-9 {
        fill: #eb996e;
      }

      .cls-10 {
        fill: #00bcd4;
      }
    </style>
  </defs>
  <g id="Layer_28" data-name="Layer 28">
    <g>
      <g>
        <ellipse class="cls-3" cx="21.61" cy="21.47" rx="21.32" ry="21.27"/>
        <g>
          <path class="cls-1" d="m23.5,18.49s.08.02.12.03c0,0,0,0,0,0-.04,0-.08-.01-.12-.02Z"/>
          <path class="cls-1" d="m8.3,19.09l.93-5.16c-.31.03-2.03-.14-1.64-1.97.24-1.14.93-1.3,1.49-1.21-.15-.38-.28-.77-.37-1.17-.16-.76-.14-1.58.21-2.28.21-.41.52-.76.68-1.18.23-.58.17-1.28.56-1.78.6-.77,1.82-.53,2.72-.91.7-.29,1.21-.97,1.95-1.17.64-.18,1.32.05,1.92.33.6.29,1.18.64,1.84.76.47.08.95.03,1.42.06.47.03.97.16,1.29.51.32.35.36.97-.01,1.27.83-.11,1.58.75,1.54,1.59-.05.84-.71,1.55-1.49,1.87-.31.12-.63.19-.96.23.05.48.07.98-.01,1.48-.04.26-.08.53-.13.79.05.06.11.1.15.17.24.34.36.78.35,1.22-.02.44-.18.87-.45,1.19-.16.2-.36.35-.57.47-.23,1.31-.46,2.47-.65,3.2-.74,2.9-3.77,2.65-3.77,2.65l-.05.53s.1-.08.15-.13l1.07.41c.51-.57,1.18-1,1.91-1.24.28-.85,1.56-1.06,2.14-1.16.75-.12,1.52-.15,2.28-.07.1,0,.22,0,.36.01.14.01.29.03.46.06.04-.64.12-1.25.18-1.81,0-.07.02-.15.03-.22-.04-.74-.06-1.48-.07-2.22-.01-.92-.41-2.18-.06-3.03.41-1,1.52-1.69,2.6-1.92.11-.24.29-.46.49-.62.8-.67,1.86-.91,2.91-.85,1.07-.14,2.2.08,3.18.57,1.38.69,2.48,1.86,3.3,3.17.04.06.07.13.11.19.02,0,.05,0,.05,0,0,0-.03,0-.05,0,.76,1.26,1.3,2.65,1.8,4.03.87,2.42,1.65,4.87,2.34,7.35.03.09.04.19.07.28.4-.04.65-.05.65-.05,0,0,.75,0,1.65.49.08-.75.12-1.5.12-2.27C42.93,9.8,33.39.28,21.61.28S.3,9.8.3,21.55c0,.21.03.42.03.63,2.54-1.62,7.88-3.06,7.98-3.08Z"/>
          <path class="cls-1" d="m20.17,13.63c.24-.3.39-.69.41-1.09.01-.41-.1-.81-.32-1.12-.01-.02-.04-.04-.05-.06-.15.9-.3,1.81-.45,2.66.15-.1.29-.23.41-.38Z"/>
          <path class="cls-4" d="m9.77,10.96c-.02-.06-.03-.12-.04-.18-.26-.02-.43-.05-.43-.07,0-.02.16-.04.4-.05-.04-.26-.04-.54-.02-.8.07-1.11.31-2.23.81-3.23.49-1,1.25-1.88,2.22-2.44,1.21-.7,2.7-.85,4.05-.5,1.35.35,2.55,1.18,3.44,2.26.41.5.76,1.07.88,1.71-.12.24-.41.42-.78.55.05.22.07.45.1.68.33-.04.65-.1.96-.23.78-.32,1.44-1.03,1.49-1.87.05-.84-.7-1.7-1.54-1.59.37-.29.33-.92.01-1.27-.32-.35-.82-.48-1.29-.51-.47-.03-.95.02-1.42-.06-.66-.11-1.24-.47-1.84-.76-.6-.29-1.28-.51-1.92-.33-.73.2-1.24.88-1.95,1.17-.9.38-2.12.14-2.72.91-.39.49-.33,1.19-.56,1.78-.17.42-.48.77-.68,1.18-.35.69-.37,1.52-.21,2.28.08.4.21.79.37,1.17.29.05.55.16.69.22h0Z"/>
          <path class="cls-8" d="m16.99,11.94s-.05-.03-.1-.08c0,.02-.02.04-.02.06-.04.12-.06.21-.07.29.04.26.07.54.11.83,0,.03,0,.05,0,.08.1.26.28.55.59.8.41.34,1.1.55,1.78.33.17-.05.33-.13.49-.24.15-.85.3-1.75.45-2.66-.21-.29-.49-.51-.79-.64-.66-.28-1.36-.13-1.8.18-.37.25-.57.57-.69.84,0,0,0,0,0,0,.06.1.07.18.05.19Zm1.11.8c-.23-.04-.38-.26-.34-.48.05-.22.27-.37.5-.32.23.04.38.26.34.48-.05.22-.27.37-.5.32Zm-.12-1.68c.17-.07.43-.11.71-.04.28.07.49.23.6.37.11.14.13.25.1.27-.06.04-.32-.27-.77-.38-.45-.11-.83.04-.87-.03-.02-.03.06-.12.23-.18Z"/>
          <path class="cls-8" d="m16.83,11.81s-.07-.06-.11-.09c.02.11.03.22.05.34,0-.05.02-.1.03-.16,0-.03.02-.06.03-.09Z"/>
          <path class="cls-8" d="m8.3,19.12c.99,2.8,4.28,3.48,6.61,1.74-2.68-.57-3.11-2.87-3.11-2.87,1.66,1.71,3.52,2.04,3.52,2.04,0,0,3.02.26,3.77-2.65.19-.73.41-1.88.65-3.2-.13.08-.27.15-.41.19-.74.23-1.47-.01-1.9-.39-.22-.19-.38-.41-.48-.61.02.2.05.4.07.59.01.14.05.31-.05.46-.05.08-.15.12-.23.12-.08,0-.14,0-.2-.02-.46-.09-.74-.15-.74-.18,0-.03.29,0,.76.05.12.02.23.02.27-.05.05-.08.03-.21,0-.36-.04-.3-.08-.62-.13-.95-.07-.53-.12-1.03-.16-1.43-.01,0-.02-.01-.03-.01-.25-.09-.47-.03-.54-.03-.04.41-.18.81-.43,1.12-.26.33-.61.55-.98.66-.74.23-1.47-.01-1.9-.39-.44-.38-.61-.84-.66-1.14-.03-.16-.03-.28-.03-.36,0-.08,0-.13.02-.13,0,0,0-.04,0-.13,0-.08.02-.21.06-.36,0-.01,0-.03.01-.04-.16.02-.46.02-.84.02-.07.14-.14.28-.22.42-.08.16-.18.33-.34.4-.28.12-.6-.1-.75-.37-.03-.05-.04-.1-.06-.15-.1.52-.55,2.73-.56,2.78,0,0-.02,0-.05.01l-.93,5.16s0,0,0,0v.03Zm5.96-4.46c.03-.21.11-.31.15-.3.07.01-.04.5.29.95.33.45.86.52.85.59,0,.03-.14.07-.36.02-.22-.04-.51-.19-.72-.46-.2-.27-.24-.58-.21-.79Z"/>
          <path class="cls-8" d="m12.74,12.88c.41.34,1.1.55,1.78.33.34-.11.66-.32.9-.62.24-.3.39-.69.41-1.09.01-.41-.1-.81-.32-1.12-.21-.32-.52-.56-.84-.69-.66-.28-1.36-.13-1.8.18-.4.27-.61.63-.72.91.02,0,.03.01.03.02,0,0-.02.01-.05.02,0,.02-.02.05-.03.07-.09.29-.09.47-.11.47.02,0,0,.17.07.47.07.29.25.73.67,1.07Zm1.16-1.06c-.23-.04-.38-.26-.34-.48.05-.22.27-.37.5-.32.23.04.38.26.34.48-.05.22-.27.37-.5.32Zm-.33-1.76c.17-.07.43-.11.71-.04.28.07.49.23.6.37.11.14.13.25.1.27-.06.04-.32-.27-.77-.38-.45-.11-.83.04-.87-.03-.02-.03.06-.12.23-.18Z"/>
          <path class="cls-8" d="m9.76,10.98s0,0,.01,0c0,0,0-.01,0-.02h0Z"/>
          <path class="cls-8" d="m17.6,8.16c-1.19-.41-1.6-1.2-2.33-1.9q-.47-.44-1.26-.56c-.64-.09-1.18.52-1.68.93.18,1.41-.39,2.77-1.04,4.05.36.02.64.04.79.07.09-.29.3-.68.72-.99.45-.34,1.2-.52,1.92-.23.35.14.69.4.92.74.24.34.36.78.35,1.22,0,0,0,0,0,0,.03-.02.06-.04.11-.06.1-.04.26-.05.43,0-.05-.52-.06-.85-.03-.86.03,0,.11.37.19.93.08.05.14.09.19.15.11-.28.31-.6.68-.87.45-.34,1.2-.52,1.92-.23.29.11.55.32.77.58.04-.26.09-.53.13-.79.08-.5.07-1,.01-1.48-.02-.23-.05-.46-.1-.68-.74.25-1.82.25-2.69-.05Zm-3.13.65c-.54-.08-1-.02-1.04-.15-.02-.06.08-.16.28-.23.2-.08.5-.12.82-.08.32.04.6.16.77.29.17.12.25.24.21.3-.07.11-.51-.06-1.05-.12Zm5.08,1.5c-.1.08-.39-.1-.76-.19-.37-.11-.7-.1-.75-.22-.02-.06.06-.15.22-.21.16-.06.4-.09.66-.02.25.07.45.22.55.35.11.14.12.25.08.29Z"/>
          <path class="cls-9" d="m14.91,20.87c.12-.09.24-.19.35-.3l.05-.53s-1.86-.34-3.52-2.04c0,0,.43,2.3,3.11,2.87Z"/>
          <path class="cls-4" d="m18.27,11.93c-.23-.04-.46.1-.5.32-.05.22.11.44.34.48.23.04.46-.1.5-.32.05-.22-.11-.44-.34-.48Z"/>
          <path class="cls-4" d="m18.63,11.27c.45.11.71.42.77.38.03-.02,0-.13-.1-.27-.11-.14-.32-.3-.6-.37-.28-.07-.54-.03-.71.04-.17.07-.24.15-.23.18.04.07.42-.08.87.03Z"/>
          <path class="cls-4" d="m14.07,11.02c-.23-.04-.46.1-.5.32-.05.22.11.44.34.48.23.04.46-.1.5-.32.05-.22-.11-.44-.34-.48Z"/>
          <path class="cls-4" d="m14.21,10.28c.45.11.71.42.77.38.03-.02,0-.13-.1-.27-.11-.14-.32-.3-.6-.37-.28-.07-.54-.03-.71.04-.17.07-.24.15-.23.18.04.07.42-.08.87.03Z"/>
          <path class="cls-4" d="m16.79,12.2c-.02.11-.03.18-.04.18.02,0,0,.17.07.47.02.08.05.17.08.26,0-.03,0-.05,0-.08-.04-.29-.07-.57-.11-.83Z"/>
          <path class="cls-4" d="m16.69,11.52c-.09-.57-.16-.94-.19-.93-.03,0-.01.34.03.86.01,0,.03,0,.04,0,.05.02.08.05.12.07Z"/>
          <path class="cls-4" d="m16.74,12.5c0-.08,0-.13.02-.13,0,0,0-.04,0-.13,0-.05,0-.12.02-.2-.02-.12-.03-.23-.05-.34-.05-.04-.11-.07-.18-.09.04.4.09.9.16,1.43.04.33.09.65.13.95.02.15.04.28,0,.36-.04.07-.15.07-.27.05-.46-.05-.75-.07-.76-.05,0,.03.28.09.74.18.06.01.12.02.2.02.08,0,.18-.04.23-.12.1-.16.06-.32.05-.46-.02-.19-.05-.39-.07-.59-.1-.2-.15-.38-.18-.53-.03-.16-.03-.28-.03-.36Z"/>
          <path class="cls-4" d="m15.18,15.91c.22.05.36.01.36-.02.01-.07-.52-.14-.85-.59-.33-.45-.21-.93-.29-.95-.03-.01-.12.1-.15.3-.03.2,0,.51.21.79.2.27.5.42.72.46Z"/>
          <path class="cls-4" d="m15.31,8.63c-.17-.12-.45-.24-.77-.29-.32-.04-.62,0-.82.08-.2.08-.3.17-.28.23.04.13.5.08,1.04.15.54.06.97.23,1.05.12.03-.05-.04-.17-.21-.3Z"/>
          <path class="cls-4" d="m18.92,9.66c-.25-.07-.5-.05-.66.02-.16.06-.23.15-.22.21.05.12.38.11.75.22.37.1.65.28.76.19.05-.04.03-.16-.08-.29-.1-.14-.3-.28-.55-.35Z"/>
          <path class="cls-8" d="m9.84,11.14c-.02-.05-.05-.11-.07-.16,0,0,0,0-.01,0-.14-.07-.39-.18-.69-.22-.56-.09-1.25.07-1.49,1.21-.38,1.83,1.33,2,1.64,1.97.03,0,.05,0,.05-.01.01-.05.46-2.26.56-2.78Zm-.91.56s.01-.04,0-.1c-.01-.06-.07-.14-.19-.14-.11,0-.23.08-.32.21-.09.13-.17.3-.2.48-.07.36.04.74.24.86.1.06.2.06.26.05.06-.01.1-.04.1-.03,0,0-.01.05-.09.08-.07.03-.2.05-.33-.01-.27-.14-.4-.57-.33-.97.04-.21.13-.39.24-.53.1-.14.27-.26.43-.23.08,0,.14.04.18.09.04.05.05.1.05.14,0,.09-.05.12-.05.11Z"/>
          <path class="cls-9" d="m8.75,11.36c-.16-.02-.33.09-.43.23-.11.14-.2.33-.24.53-.07.41.06.83.33.97.13.07.26.05.33.01.07-.04.09-.08.09-.08,0,0-.04.02-.1.03-.06.01-.17.01-.26-.05-.2-.12-.3-.5-.24-.86.03-.18.11-.35.2-.48.09-.13.21-.22.32-.21.11,0,.17.08.19.14.02.06,0,.1,0,.1,0,0,.05-.02.05-.11,0-.04-.01-.09-.05-.14-.04-.05-.11-.08-.18-.09Z"/>
          <path class="cls-4" d="m9.73,10.78c.01.06.02.12.04.18,0,0,0,.01,0,.02.02.06.05.11.07.16.02.05.04.1.06.15.15.26.47.49.75.37.16-.07.26-.24.34-.4.07-.14.14-.28.22-.42-.15,0-.31,0-.48,0-.39-.01-.75-.03-1.01-.05Z"/>
          <path class="cls-4" d="m10.74,10.67c.2,0,.38.01.55.02.65-1.28,1.22-2.65,1.04-4.05.5-.4,1.04-1.02,1.68-.93q.79.11,1.26.56c.74.7,1.14,1.48,2.33,1.9.86.3,1.95.3,2.69.05.37-.12.65-.3.78-.55-.12-.64-.47-1.21-.88-1.71-.88-1.08-2.09-1.91-3.44-2.26-1.35-.35-2.84-.2-4.05.5-.97.56-1.72,1.44-2.22,2.44-.49,1-.74,2.11-.81,3.23-.02.27-.02.54.02.8.26,0,.63,0,1.04,0Z"/>
          <path class="cls-4" d="m19.48,10.58c-.72-.29-1.47-.11-1.92.23-.37.26-.57.59-.68.87.02.02.04.04.06.06.12-.27.32-.59.69-.84.44-.31,1.14-.46,1.8-.18.3.12.58.35.79.64.02.02.04.04.05.06.22.32.33.72.32,1.12-.02.41-.17.8-.41,1.09-.12.15-.26.28-.41.38-.15.1-.32.18-.49.24-.68.22-1.37.01-1.78-.33-.31-.25-.49-.55-.59-.8-.04-.1-.07-.19-.08-.26-.07-.3-.06-.47-.07-.47,0,0-.01.04-.02.13,0,.08,0,.21.03.36.02.15.08.34.18.53.1.2.26.42.48.61.42.38,1.16.62,1.9.39.14-.04.27-.12.41-.19.21-.12.41-.27.57-.47.27-.32.43-.75.45-1.19.01-.44-.11-.88-.35-1.22-.04-.06-.1-.11-.15-.17-.22-.25-.48-.46-.77-.58Z"/>
          <path class="cls-4" d="m16.87,11.91s.02-.04.02-.06c-.02-.02-.03-.03-.05-.05,0,.03-.02.06-.03.09-.02.06-.02.11-.03.16-.01.08-.02.15-.02.2,0,.08,0,.13,0,.13.01,0,.02-.07.04-.18.01-.08.04-.17.07-.29Z"/>
          <path class="cls-4" d="m12.13,10.81s-.04,0-.08.01c0,.01-.01.03-.01.04-.04.15-.05.28-.06.36,0,.08,0,.13,0,.13.02,0,.02-.17.11-.47,0-.02.02-.05.03-.07Z"/>
          <path class="cls-4" d="m15.99,11.52s0,0,0,0c.01-.44-.11-.88-.35-1.22-.23-.35-.56-.6-.92-.74-.72-.29-1.47-.11-1.92.23-.42.3-.63.69-.72.99.03,0,.05,0,.07.01.11-.28.32-.63.72-.91.44-.31,1.14-.46,1.8-.18.33.13.63.37.84.69.22.32.33.72.32,1.12-.02.41-.17.8-.41,1.09-.24.3-.56.52-.9.62-.68.22-1.37.01-1.78-.33-.42-.34-.6-.78-.67-1.07-.07-.3-.06-.47-.07-.47,0,0-.01.04-.02.13,0,.08,0,.21.03.36.05.31.22.77.66,1.14.42.38,1.16.62,1.9.39.36-.11.72-.34.98-.66.25-.3.4-.7.43-1.12-.01,0-.03,0-.03,0,0-.01.01-.03.04-.06Z"/>
          <path class="cls-4" d="m16.83,11.81s.04.03.05.05c.05.05.09.09.1.08.02,0,.01-.09-.05-.19,0,0,0,0,0,0-.01-.02-.04-.04-.06-.06-.05-.06-.11-.1-.19-.15-.04-.02-.07-.05-.12-.07-.01,0-.03,0-.04,0-.17-.05-.33-.03-.43,0-.05.02-.09.04-.11.06-.03.02-.05.05-.04.06,0,0,.02,0,.03,0,.07,0,.29-.06.54.03.01,0,.02.01.03.01.07.03.13.06.18.09.04.03.08.06.11.09Z"/>
          <path class="cls-4" d="m12.18,10.79s-.01-.01-.03-.02c-.02,0-.04,0-.07-.01-.14-.02-.42-.05-.79-.07-.17,0-.36-.02-.55-.02-.41-.01-.78-.01-1.04,0-.25,0-.4.02-.4.05,0,.02.16.05.43.07.26.02.62.04,1.01.05.17,0,.33,0,.48,0,.38,0,.68,0,.84-.02.03,0,.06,0,.08-.01.03,0,.05-.01.05-.02Z"/>
          <path class="cls-6" d="m8.3,19.12h0s.01-.03.01-.03c0,0,0,0,0,0-.1.03-5.43,1.46-7.98,3.08.07,2.53.58,4.94,1.47,7.18l6.5-10.23Z"/>
          <path class="cls-6" d="m15.69,41.37s.31-1.54,1.07-5.09c.8-3.76,3.35-4.09,3.35-4.09l1.15-.36s.03.01.06.02l-.11-.56s.01,0,.02,0v-.02s-.96.16-1.89-.5c-.41.14-.84.23-1.28.23.2-.17.32-.43.31-.7-.56.38-1.27.54-1.94.44.21-.29.31-.66.28-1.01-.29.22-.66.33-1.03.31.78-.6.88-1.75.65-2.71-.23-.95-.72-1.84-.89-2.8-.19-1.07.04-2.21.62-3.13.13-.2.28-.38.44-.56l-1.07-.41s-.1.09-.15.13c-.12.1-.23.21-.35.3-2.33,1.74-5.62,1.05-6.61-1.74h0S1.79,29.35,1.79,29.35c1.84,4.66,5.27,8.51,9.63,10.89.02-.02.04-.03.05-.05.53-.53,1.01-1.08,1.41-1.59.4-.52.74-1,1.01-1.42.14-.21.25-.4.35-.57.1-.17.19-.32.25-.44.06-.11.12-.2.16-.28.04-.06.06-.1.06-.09s-.01.04-.04.1c-.04.08-.08.17-.14.29-.06.13-.14.28-.24.45-.1.17-.2.37-.34.58-.26.43-.59.91-.99,1.44-.41.52-.88,1.07-1.42,1.6,0,0-.02.02-.03.03.82.44,1.69.81,2.57,1.14.14-.09.28-.18.41-.27-.08.11-.18.21-.27.32.51.19,1.03.36,1.56.51l.05-.63h-.18Z"/>
          <path class="cls-2" d="m14.1,41.44s.1.04.15.05c.09-.11.18-.21.27-.32-.14.09-.28.18-.41.27Z"/>
          <path class="cls-4" d="m12.98,38.67c.4-.52.74-1.01.99-1.44.13-.21.24-.41.34-.58.1-.17.18-.32.24-.45.06-.12.1-.21.14-.29.03-.07.05-.1.04-.1s-.02.03-.06.09c-.04.07-.09.17-.16.28-.07.12-.15.27-.25.44-.1.17-.21.36-.35.57-.26.42-.6.9-1.01,1.42-.41.51-.88,1.05-1.41,1.59-.02.02-.04.03-.05.05.03.02.07.03.1.05,0,0,.02-.02.03-.03.54-.54,1.01-1.09,1.42-1.6Z"/>
          <path class="cls-4" d="m23.62,18.51c.08.02.17.03.25.06-.08-.02-.17-.05-.25-.06,0,0,0,0,0,0Z"/>
          <path class="cls-4" d="m27.38,22.66s-.01-.09-.02-.14c0,.05.01.09.02.14Z"/>
          <path class="cls-4" d="m24.24,18.68c-.07-.02-.14-.05-.21-.07.07.02.14.05.21.07Z"/>
          <path class="cls-4" d="m30.4,23.85h0l-.16-.77s-.01-.02-.02-.01c-.15.04-.53.12-.69.11-.42-.02-1.28-.16-2.11-.84.07.41.11.83.11,1.27,0,.68-.03,1.38.09,2.08.09.5.27.99.55,1.38.41-.25.84-.49,1.36-.64,0,0,.02.02.06.06l1.24-.5-.44-2.14Z"/>
          <path class="cls-4" d="m25.72,19.4c-.33-1.07-.74-2.63-1.14-4.19-.48-1.94.22-3.97,1.69-5.19,0,0,0,0,0-.01-.11-.25-.08-.51.04-.76-1.08.23-2.19.93-2.6,1.92-.35.85.05,2.11.06,3.03.01.74.02,1.48.07,2.22,0,.07-.02.14-.03.22-.07.56-.14,1.17-.18,1.81.47.08,1.05.26,1.65.63.15.09.29.21.44.32Z"/>
          <path class="cls-8" d="m35.9,29.76c-.39-.33-.52-.88-.53-1.39,0-.02,0-.04,0-.05-.16.07-.33.15-.51.19-1.88.49-3.53-.66-4.03-2.52h0s-1.24.5-1.24.5c.52.53,4.43,4.44,6.18,4.1.38-.07.68-.27.93-.54-.29,0-.58-.09-.81-.28Z"/>
          <path class="cls-5" d="m41.15,23.33s-.25.02-.65.05c.05.22.09.45.05.67-.09.45-.46.81-.88.99-.18.08-.38.13-.57.17.02.14.03.28.04.42.09,1.13-.08,2.3-.66,3.26-.27.44-.64.84-1.11,1.04-.2.09-.43.12-.65.11-.25.27-.55.47-.93.54-1.75.33-5.66-3.58-6.18-4.1-.04-.04-.06-.06-.06-.06-.52.16-.95.39-1.36.64.12.17.25.32.41.45l.07.06-.08.04c-.28.13-.6.07-.84-.09.15.36.39.66.69.85l.08.05-.08.04c-.42.2-.9.19-1.28,0,.07.29.14.57.2.84v.06s-.04,0-.04,0c-.23-.03-.4-.17-.52-.33-.1-.14-.16-.29-.2-.43-.06.13-.13.25-.22.35l.25,1.4h0s.05,0,.05,0c0,0,3.46-.71,5.35,1.3.13.14.26.28.38.43-.04-.27-.08-.5-.08-.57,0-.18-.13-.59.17-.67.3-.07.35.5.35.5l.42,1.78s0-.77,0-.9c0-.13-.07-.53-.06-.76.01-.23.12-.39.25-.41.24-.05.31.12.31.12l.17,1.58s.03.74.07.77c.03.04.21-.38.21-.38l.04-.54s-.08-.73.13-.82c.21-.09.28.04.28.04l.14,1.33-.1,1.59-.13.61c.21.4.33.65.33.65l-.25.13c.18.48.42,1.09.65,1.71,1.3-1.09,2.45-2.34,3.46-3.7-.07-.31-.13-.49-.11-.5,0,0,.04.09.1.26.02.05.04.12.05.18.79-1.08,1.48-2.24,2.07-3.46-.14-.26-.23-.44-.23-.47,0-.17.52-6.84.52-6.84Z"/>
          <path class="cls-5" d="m31.73,37.63l-.67.34.32,1.53.1.89c.1-.05.21-.1.32-.16l-.65-2.3.59-.31Z"/>
          <path class="cls-5" d="m40.63,30.18s.09.2.23.47c.18-.37.35-.75.51-1.14-.02-.01-.03-.02-.03-.02s.02,0,.04.01c.72-1.79,1.22-3.69,1.43-5.68-.9-.5-1.65-.49-1.65-.49,0,0-.52,6.67-.52,6.84Z"/>
          <path class="cls-4" d="m41.37,29.51s0,0,0,0c-.02,0-.03-.02-.04-.01s.01.01.03.02Z"/>
          <path class="cls-4" d="m38.64,33.66s.04.19.11.5c.01-.02.03-.04.04-.06-.02-.06-.04-.13-.05-.18-.06-.17-.1-.26-.1-.26Z"/>
          <path class="cls-8" d="m30.4,23.85l.44,2.14h0c.5,1.86,2.14,3.01,4.03,2.52.18-.05.35-.12.51-.19,0-.49.09-.99.06-1.48-.01-.18-.04-.35-.07-.52-.29-.32-.67-.77-1.08-1.37-.43-.64-.91-1.45-1.24-2.44,0,0,0-.01,0-.02-.46.57-1.25,1.14-2.63,1.37Z"/>
          <path class="cls-8" d="m34.65,24.34c-.82-2.07-1.04-4.31-1.43-6.49-.05-.28-.1-.57-.16-.85.04.69.06,1.42.08,2.15.03.76.09,1.48.2,2.15.1-.1.21-.18.31-.29,0,0-.02.34-.21.79.04.18.08.35.13.52.29.94.7,1.73,1.07,2.38.16.27.31.52.45.74-.14-.37-.3-.73-.45-1.1Z"/>
          <path class="cls-8" d="m30.22,23.07s.02,0,.02.01v-.02s1.18-.22,2.58-1.32c-.19-.8-.27-1.68-.3-2.57-.04-1.17-.03-2.28-.15-3.26-.11-.98-.35-1.84-.65-2.51-.3-.67-.67-1.16-.95-1.46-.07-.07-.14-.14-.19-.2,0,0-.02-.02-.03-.03-1.1-.35-2.19-.7-3.29-1.04-.39-.12-.83-.29-1-.66-1.47,1.22-2.17,3.25-1.69,5.19.39,1.57.81,3.13,1.14,4.19.65.52,1.25,1.27,1.57,2.25.07.21.11.45.14.67.83.68,1.68.82,2.11.84.15,0,.54-.07.69-.11Zm.43-7.35c-.22.04-.44-.09-.48-.3-.05-.21.1-.41.32-.46.22-.05.43.09.48.3.05.21-.1.41-.32.46Zm.48-1.52c-.03.06-.4-.07-.82.04-.42.11-.67.41-.73.37-.03-.02,0-.12.1-.25.1-.13.3-.29.56-.36.26-.07.52-.03.67.03.16.06.23.14.22.17Zm-1.89-1.22c.16-.12.42-.24.73-.28.31-.04.59,0,.78.06.19.07.29.16.27.21-.04.12-.48.08-.99.16-.51.07-.92.23-.99.13-.03-.05.04-.16.2-.28Zm-4.11,1.47s-.03-.15.07-.28c.1-.13.28-.27.52-.34.24-.07.47-.05.62,0,.15.06.22.14.21.2-.04.12-.36.11-.71.22-.35.1-.62.27-.72.2Zm.26,1.17s0-.12.1-.25c.1-.13.3-.29.56-.36.26-.07.52-.03.67.03.16.06.23.14.22.17-.03.06-.4-.07-.82.04-.42.11-.67.41-.73.37Zm1.28,1.06c-.22.04-.44-.09-.48-.3-.05-.21.1-.41.32-.46.22-.04.43.09.48.3.05.21-.1.41-.32.46Zm1.46,1.63c-.05.01-.12.03-.19.02-.07,0-.17-.04-.22-.11-.1-.15-.06-.3-.05-.44.03-.29.06-.59.1-.9.15-1.28.31-2.31.36-2.31.05,0-.03,1.05-.18,2.33-.04.31-.08.61-.11.9-.02.14-.04.27,0,.34.04.07.14.06.26.05.44-.06.72-.08.72-.06,0,.02-.26.09-.7.18Zm.95,1.25s.16-.09.36-.2c-.05-.02-.11-.05-.15-.09-.04-.04-.06-.11-.04-.16v-.02c.12-.24.36-.42.63-.46.06,0,.12,0,.18,0,.09-.29.05-.54.1-.55.03-.01.11.09.14.28.01.09.01.2-.01.32.05.02.1.03.14.07.15.12.23.32.16.49-.07.19-.3.29-.52.28-.13,0-.26-.04-.38-.08-.09.05-.19.09-.27.11-.21.05-.34.02-.34-.01Z"/>
          <path class="cls-8" d="m27.14,21.56c.04.12.07.25.11.37-.02-.08-.03-.17-.05-.25-.01-.05-.04-.08-.05-.13Z"/>
          <path class="cls-4" d="m26.51,15.92c-.22.05-.36.25-.32.46.05.21.26.34.48.3.22-.05.36-.25.32-.46-.05-.21-.26-.34-.48-.3Z"/>
          <path class="cls-4" d="m26.94,15.2s-.06-.11-.22-.17c-.16-.06-.41-.1-.67-.03-.26.07-.46.22-.56.36-.11.13-.13.24-.1.25.06.04.3-.26.73-.37.42-.12.79.02.82-.04Z"/>
          <path class="cls-4" d="m30.97,15.26c-.05-.21-.26-.34-.48-.3-.22.04-.36.25-.32.46.05.21.26.34.48.3.22-.04.36-.25.32-.46Z"/>
          <path class="cls-4" d="m30.24,14c-.26.07-.46.22-.56.36-.1.13-.13.24-.1.25.06.04.31-.26.73-.37.42-.12.79.02.82-.04.02-.03-.06-.11-.22-.17-.16-.06-.41-.1-.67-.03Z"/>
          <path class="cls-4" d="m28.12,18.18c-.11.02-.22.02-.26-.05-.05-.07-.03-.2,0-.34.04-.29.07-.59.11-.9.15-1.28.23-2.32.18-2.33-.05,0-.21,1.03-.36,2.31-.03.31-.07.62-.1.9,0,.13-.05.29.05.44.05.07.14.11.22.11.07,0,.14-.01.19-.02.44-.09.7-.16.7-.18,0-.02-.28,0-.72.06Z"/>
          <path class="cls-9" d="m33.34,21.3c.03.17.06.34.1.5.19-.45.21-.79.21-.79-.1.11-.21.19-.31.29Z"/>
          <path class="cls-9" d="m30.24,23.06v.02s.16.77.16.77h0c1.38-.23,2.17-.8,2.63-1.37-.08-.24-.15-.48-.21-.73-1.4,1.1-2.58,1.32-2.58,1.32Z"/>
          <path class="cls-9" d="m29.7,19.46c.12.04.25.08.38.08.22,0,.45-.09.52-.28.07-.17-.01-.37-.16-.49-.04-.03-.09-.05-.14-.07-.03.14-.08.28-.18.42-.12.16-.26.26-.41.34Z"/>
          <path class="cls-9" d="m29.89,18.99c.09-.12.14-.24.17-.35-.06,0-.12-.01-.18,0-.27.04-.51.22-.61.46v.02c-.04.05-.02.11.02.16.04.04.1.07.15.09.15-.08.31-.19.44-.37Z"/>
          <path class="cls-4" d="m30.11,19.12c.1-.14.16-.29.18-.42.02-.12.03-.23.01-.32-.03-.2-.11-.29-.14-.28-.05.01,0,.25-.1.55-.03.11-.08.23-.17.35-.13.18-.29.29-.44.37-.2.11-.37.16-.36.2,0,.03.13.06.34.01.08-.02.17-.06.27-.11.15-.08.29-.18.41-.34Z"/>
          <path class="cls-4" d="m30.04,13.13c.51-.08.95-.04.99-.16.02-.06-.08-.15-.27-.21-.19-.07-.47-.11-.78-.06-.31.05-.57.16-.73.28-.16.12-.23.23-.2.28.07.1.48-.06.99-.13Z"/>
          <path class="cls-4" d="m26.56,14.03c.02-.06-.05-.14-.21-.2-.15-.06-.38-.07-.62,0-.24.07-.43.21-.52.34-.1.13-.12.24-.07.28.1.08.37-.1.72-.2.35-.11.67-.11.71-.22Z"/>
          <path class="cls-4" d="m26.27,10.01s0,0,0,.01c.18.37.61.54,1,.66,1.1.35,2.19.7,3.29,1.04,0,0,.02.02.03.03.06.06.12.13.19.2.28.3.65.79.95,1.46.3.67.54,1.53.65,2.51.12.98.1,2.08.15,3.26.03.89.11,1.76.3,2.57.06.25.13.5.21.73,0,0,0,.01,0,.02.34.99.81,1.8,1.24,2.44.41.6.8,1.06,1.08,1.37.04.17.06.34.07.52.03.49-.06.99-.06,1.48,0,.02,0,.04,0,.05,0,.51.14,1.06.53,1.39.23.19.51.27.81.28.22,0,.45-.03.65-.11.47-.2.84-.6,1.11-1.04.59-.96.75-2.14.66-3.26-.01-.14-.03-.28-.04-.42.2-.04.39-.09.57-.17.42-.18.8-.54.88-.99.04-.22,0-.45-.05-.67-.02-.09-.04-.19-.07-.28-.69-2.48-1.47-4.93-2.34-7.35-.5-1.39-1.04-2.77-1.8-4.03-.02,0-.02,0-.05,0-.07,0-.17-.01-.29-.02-.12,0-.28-.02-.45-.04-.18-.02-.38-.03-.6-.07-.44-.05-.97-.14-1.55-.25-.58-.11-1.21-.26-1.87-.44-.65-.19-1.27-.39-1.82-.6-.55-.21-1.04-.41-1.45-.6-.2-.09-.38-.18-.54-.26-.16-.08-.3-.15-.41-.2-.11-.06-.19-.1-.25-.13-.06-.03-.09-.05-.09-.05s.03.01.09.04c.06.03.15.07.26.12.11.06.25.12.41.2.16.07.34.16.55.25.41.18.9.38,1.45.59.55.2,1.17.41,1.82.59.65.18,1.28.33,1.86.45.58.11,1.1.2,1.54.26.22.03.42.05.6.07.18.02.33.04.45.05.12.01.21.02.29.03.03,0,.03,0,.05,0-.04-.06-.07-.13-.11-.19-.82-1.31-1.92-2.49-3.3-3.17-.98-.49-2.11-.71-3.18-.57-1.06-.06-2.11.17-2.91.85-.2.17-.38.39-.49.62-.11.25-.15.51-.04.76Zm8.38,14.7c-.38-.65-.79-1.45-1.07-2.38-.05-.17-.09-.34-.13-.52-.04-.16-.07-.33-.1-.5-.12-.67-.18-1.39-.2-2.15-.03-.74-.04-1.46-.08-2.15.06.28.11.57.16.85.39,2.19.62,4.43,1.43,6.49.14.37.31.73.45,1.1-.14-.22-.29-.47-.45-.74Zm3.08.62c.15.7.23,1.28.27,1.68.02.2.03.36.04.46,0,.05,0,.09,0,.12,0,.03,0,.04,0,.04,0,0,0-.01,0-.04,0-.03,0-.07-.01-.12-.01-.11-.02-.26-.05-.46-.05-.4-.13-.97-.29-1.67-.15-.7-.38-1.52-.67-2.43-.29-.9-.63-1.89-.98-2.93-.7-2.07-1.33-3.95-1.79-5.31-.23-.68-.41-1.23-.54-1.61-.06-.19-.11-.34-.14-.44-.01-.05-.03-.09-.04-.11,0-.03-.01-.04-.01-.04,0,0,0,.01.02.04.01.03.02.07.04.11.04.1.09.25.15.44.13.38.32.93.56,1.61.46,1.36,1.1,3.24,1.81,5.31.35,1.04.69,2.02.98,2.93.29.91.51,1.73.66,2.43Zm-9.54-14.84c.1.05.21.11.32.16.11.06.23.11.35.17.24.12.5.22.78.34.56.22,1.18.43,1.86.6.51.13,1.01.21,1.48.28,0,0,0-.02,0-.02,0,0,0,.01,0,.02.14.02.29.05.43.06.3.03.58.06.85.07.13,0,.26.02.39.02.12,0,.24,0,.36,0,.23,0,.43,0,.61,0,.09,0,.17,0,.25,0,.08,0,.15-.01.21-.01.12,0,.22-.01.29-.02.07,0,.1,0,.1,0,0,0-.03,0-.1.01-.07,0-.17.02-.29.03-.06,0-.13.01-.21.02-.08,0-.16,0-.25.01-.18,0-.39.02-.61.02-.11,0-.23,0-.36,0-.12,0-.25-.01-.39-.02-.27,0-.55-.04-.85-.06-.13-.01-.27-.04-.4-.06,0,0,0,0,0,.02.02.07.05.16.09.27.07.24.17.58.3,1.01.24.85.55,2.03.86,3.35.3,1.32.54,2.52.7,3.39.08.44.14.79.18,1.03.02.12.03.21.04.28,0,.06.01.1.01.1,0,0,0-.03-.02-.1-.01-.07-.03-.16-.05-.28-.05-.25-.11-.6-.19-1.03-.17-.87-.41-2.07-.71-3.38-.3-1.31-.61-2.5-.84-3.35-.12-.42-.21-.77-.28-1.01-.03-.12-.06-.21-.07-.27,0-.01,0,0,0-.02-.48-.07-.99-.15-1.51-.28-.67-.17-1.3-.39-1.86-.61-.28-.12-.54-.23-.78-.35-.12-.06-.24-.11-.35-.17-.11-.06-.21-.11-.32-.17-.2-.1-.38-.21-.53-.31-.08-.05-.15-.09-.22-.13-.06-.04-.12-.08-.18-.12-.1-.07-.18-.12-.24-.16-.06-.04-.08-.06-.08-.06,0,0,.03.02.09.05.06.04.14.09.25.15.05.03.11.07.18.11.07.04.14.08.22.13.16.09.33.2.54.3Z"/>
          <path class="cls-5" d="m35.96,11.67c-.12-.01-.28-.03-.45-.05-.18-.02-.38-.04-.6-.07-.44-.06-.96-.14-1.54-.26-.58-.12-1.21-.26-1.86-.45-.65-.19-1.27-.39-1.82-.59-.55-.21-1.04-.4-1.45-.59-.21-.09-.39-.17-.55-.25-.16-.07-.3-.14-.41-.2-.11-.05-.19-.09-.26-.12-.06-.03-.09-.04-.09-.04s.03.02.09.05c.06.03.15.08.25.13.11.06.25.13.41.2.16.08.34.17.54.26.41.19.9.39,1.45.6.55.2,1.17.41,1.82.6.66.18,1.29.33,1.87.44.58.11,1.1.19,1.55.25.22.03.42.05.6.07.18.02.33.03.45.04.12,0,.22.01.29.02.03,0,.04,0,.05,0,.01,0,.05,0,.05,0,0,0-.03,0-.05,0-.02,0-.02,0-.05,0-.07,0-.17-.02-.29-.03Z"/>
          <path class="cls-7" d="m27.25,9.95c-.1-.06-.19-.12-.25-.15-.06-.03-.09-.05-.09-.05,0,0,.03.02.08.06.06.04.14.1.24.16.05.04.11.07.18.12.07.04.14.08.22.13.16.09.33.2.53.31.1.05.21.11.32.17.11.06.23.11.35.17.24.12.5.23.78.35.56.22,1.19.44,1.86.61.52.13,1.03.22,1.51.28,0-.03-.01-.05-.01-.06-.47-.07-.97-.16-1.48-.28-.67-.17-1.3-.38-1.86-.6-.28-.12-.54-.22-.78-.34-.12-.06-.24-.11-.35-.17-.11-.06-.22-.11-.32-.16-.2-.1-.38-.21-.54-.3-.08-.05-.15-.09-.22-.13-.07-.04-.12-.08-.18-.11Z"/>
          <path class="cls-7" d="m33.4,12.16c.3.03.58.06.85.06.13,0,.26.01.39.02.12,0,.24,0,.36,0,.23,0,.43-.01.61-.02.09,0,.17,0,.25-.01.08,0,.15-.01.21-.02.12-.01.22-.02.29-.03.07,0,.1-.01.1-.01,0,0-.04,0-.1,0-.07,0-.17.01-.29.02-.06,0-.13,0-.21.01-.08,0-.16,0-.25,0-.18,0-.38.02-.61,0-.11,0-.23,0-.36,0-.12,0-.25-.01-.39-.02-.27,0-.55-.04-.85-.07-.14-.02-.29-.04-.43-.06,0,0,.01.03.02.06.13.02.28.04.4.06Z"/>
          <path class="cls-5" d="m34.28,14.65c-.23-.68-.42-1.22-.56-1.61-.07-.19-.12-.33-.15-.44-.02-.05-.03-.08-.04-.11,0-.03-.02-.04-.02-.04,0,0,0,.01.01.04,0,.03.02.07.04.11.03.1.08.25.14.44.13.38.31.93.54,1.61.46,1.36,1.09,3.24,1.79,5.31.35,1.04.69,2.02.98,2.93.29.9.52,1.73.67,2.43.16.7.24,1.27.29,1.67.03.2.04.35.05.46,0,.05,0,.09.01.12,0,.03,0,.04,0,.04,0,0,0-.01,0-.04,0-.03,0-.07,0-.12,0-.11-.02-.26-.04-.46-.04-.4-.12-.98-.27-1.68-.15-.7-.37-1.53-.66-2.43-.28-.91-.63-1.89-.98-2.93-.71-2.07-1.35-3.95-1.81-5.31Z"/>
          <path class="cls-5" d="m32.99,12.12c.02.07.04.16.07.27.07.24.16.59.28,1.01.23.85.54,2.04.84,3.35.3,1.31.55,2.51.71,3.38.08.43.15.78.19,1.03.02.12.04.21.05.28.01.06.02.1.02.1,0,0,0-.03-.01-.1-.01-.07-.02-.16-.04-.28-.04-.24-.1-.6-.18-1.03-.16-.87-.39-2.07-.7-3.39-.3-1.32-.62-2.5-.86-3.35-.12-.43-.22-.77-.3-1.01-.04-.11-.06-.2-.09-.27,0-.01,0,0,0-.02-.01-.03-.02-.05-.02-.06,0,0,0-.02,0-.02,0,0,0,.01,0,.02,0,0,0,.03.01.06,0,.01,0,0,0,.02Z"/>
          <path class="cls-4" d="m15.42,24.54c.17.97.66,1.85.89,2.8.23.95.13,2.11-.65,2.71.36.02.74-.09,1.03-.31.04.36-.06.73-.28,1.01.67.1,1.38-.06,1.94-.44.01.26-.1.53-.31.7.43,0,.87-.09,1.28-.23-.47-.33-.93-.87-1.27-1.74-.5-1.3-.81-3.27-1.08-5.09-.17-1.12.45-2.4,1.38-3.15-.13-.3-.16-.68.03-1.18,0,0,0,0,0,0-.73.24-1.39.67-1.91,1.24-.16.18-.31.36-.44.56-.59.92-.81,2.06-.62,3.13Z"/>
          <path class="cls-8" d="m26.01,29.29c-.24.18-.47.27-.67.33,0,0,0,0-.01,0-.02,0-.05.01-.07.02-.15.04-.28.07-.37.07-.11.01-.16.02-.16.01.29-.56.43-1.2.4-1.83-.15.2-.39.34-.64.36.3-.32.41-.77.39-1.2-.02-.43-.15-.85-.27-1.27-.18-.58-.36-1.17-.54-1.75-.06-.2-.13-.4-.27-.55-.17-.18-.43-.25-.67-.32-.19-.05-.38-.1-.57-.16.03.03.05.07.05.09-.02.12-.37.07-.76.13-.39.06-.7.21-.76.1-.03-.05.01-.16.13-.28.11-.12.31-.23.54-.26.03,0,.06,0,.09,0-.54-.18-1.07-.38-1.57-.66-.62-.35-1.59-.63-1.91-1.34-.93.76-1.54,2.03-1.38,3.15.27,1.83.58,3.79,1.08,5.09.34.87.8,1.41,1.27,1.74.93.66,1.89.5,1.89.5v.02c.09-.01,1.87-.3,3.4-1.73,0,0-.51,1.97-3.1,2.37.51.17,1.68.48,2.76.17,1.79-.51,2.34-1.77,2.34-1.77l-.25-1.4c-.12.14-.24.26-.37.36Zm-4.7-4.9c.09-.11.27-.24.5-.29.23-.05.45,0,.59.05.14.06.2.13.18.16-.03.05-.35-.08-.72,0-.37.08-.59.33-.65.29-.03-.02,0-.11.09-.22Zm.23,3.74c.29-.36.2-.77.26-.78.03,0,.09.08.11.26.02.17-.02.42-.19.64-.17.22-.42.33-.6.37-.18.03-.3,0-.3-.02,0-.06.43-.1.72-.47Zm-1.71-.58c.03.05.12.05.22.04.39-.04.62-.05.63-.03,0,.02-.23.07-.62.13-.05,0-.1.02-.17.01-.06,0-.14-.03-.18-.09-.08-.11-.04-.23-.02-.33.04-.21.09-.44.13-.67.2-.95.4-1.72.44-1.72.02.12-.22,1.49-.28,1.73-.05.23-.1.46-.15.67-.03.1-.05.2-.01.25Zm-2.34-3.55s-.01-.16.09-.28c.1-.12.28-.24.51-.28.22-.04.44.01.57.09.13.08.19.18.17.23-.05.12-.34.07-.67.13-.33.05-.59.19-.67.1Zm.28,1.28s0-.11.09-.22c.09-.11.27-.24.5-.29.23-.05.45,0,.59.05.14.06.2.13.18.16-.03.05-.35-.08-.72,0-.37.08-.59.33-.65.29Zm1.22.88c-.19.03-.38-.09-.41-.28-.03-.18.1-.36.29-.39.19-.03.38.09.41.28.03.18-.1.36-.29.39Zm2.74-.95c-.03-.18.1-.36.29-.39.19-.03.38.09.41.28s-.1.36-.29.39c-.19.03-.38-.09-.41-.28Z"/>
          <path class="cls-4" d="m18.88,25.49c-.19.03-.32.2-.29.39.03.18.22.31.41.28.19-.03.32-.2.29-.39-.03-.18-.22-.31-.41-.28Z"/>
          <path class="cls-4" d="m19.13,24.98s-.05-.1-.18-.16c-.14-.06-.35-.1-.59-.05-.23.05-.41.18-.5.29-.1.11-.12.2-.09.22.05.04.27-.21.65-.29.37-.08.69.05.72,0Z"/>
          <path class="cls-4" d="m22.43,25.1c-.03-.18-.22-.31-.41-.28-.19.03-.32.2-.29.39.03.18.22.31.41.28.19-.03.32-.2.29-.39Z"/>
          <path class="cls-4" d="m21.86,24.32c.37-.08.69.05.72,0,.02-.02-.05-.1-.18-.16-.14-.06-.35-.1-.59-.05-.23.05-.41.18-.5.29-.1.11-.12.2-.09.22.05.04.27-.21.65-.29Z"/>
          <path class="cls-4" d="m19.98,26.63c.06-.24.3-1.61.28-1.73-.04,0-.24.77-.44,1.72-.05.23-.09.46-.13.67-.02.1-.05.22.02.33.04.05.12.08.18.09.06,0,.12,0,.17-.01.38-.06.62-.11.62-.13,0-.02-.24,0-.63.03-.1.01-.19.01-.22-.04-.04-.05-.01-.15.01-.25.05-.21.1-.44.15-.67Z"/>
          <path class="cls-9" d="m24.62,29.56c-1.53,1.43-3.31,1.72-3.4,1.73,0,0-.02,0-.02,0l.11.56s.11.04.21.08c2.58-.4,3.1-2.37,3.1-2.37Z"/>
          <path class="cls-4" d="m21.11,28.62c.18-.03.43-.14.6-.37.17-.22.21-.48.19-.64-.02-.17-.09-.26-.11-.26-.06,0,.02.41-.26.78-.28.36-.73.41-.72.47,0,.03.11.06.3.02Z"/>
          <path class="cls-4" d="m21.2,23.06c-.12.12-.16.23-.13.28.07.11.37-.05.76-.1.39-.07.74-.01.76-.13,0-.02-.02-.06-.05-.09-.24-.07-.48-.14-.71-.22-.03,0-.06,0-.09,0-.24.04-.43.15-.54.26Z"/>
          <path class="cls-4" d="m18.82,23.77c.02-.06-.04-.15-.17-.23-.13-.08-.34-.13-.57-.09-.22.04-.41.16-.51.28-.1.12-.13.23-.09.28.08.09.34-.05.67-.1.33-.06.62-.01.67-.13Z"/>
          <path class="cls-4" d="m18.36,20.79c.31.71,1.29.99,1.91,1.34.5.28,1.02.49,1.57.66.24.08.47.15.71.22.19.05.38.11.57.16.24.06.5.13.67.32.14.15.21.35.27.55.18.58.36,1.17.54,1.75.13.41.26.83.27,1.27.02.43-.1.89-.39,1.2.25-.02.49-.16.64-.36.03.63-.1,1.27-.4,1.83,0-.01.22-.02.6-.14.19-.06.42-.16.65-.34.22-.17.46-.42.59-.76l.04-.1.03.1c.04.16.1.33.22.48.09.13.24.23.4.27-.07-.27-.14-.55-.21-.85l-.03-.11.09.06c.34.2.79.21,1.2.05-.34-.25-.62-.61-.74-1.05l-.08-.27.17.22c.17.22.51.33.8.24-.52-.45-.81-1.13-.93-1.83-.13-.72-.09-1.43-.09-2.1,0-.32-.01-.63-.04-.94,0-.05-.01-.09-.02-.14-.03-.2-.07-.4-.12-.59-.03-.13-.06-.25-.11-.37-.39-1.11-1.14-1.94-1.9-2.42-.35-.22-.68-.36-1-.47-.07-.02-.14-.05-.21-.07-.05-.02-.1-.02-.15-.04-.08-.02-.17-.04-.25-.06-.04,0-.08-.02-.12-.03-.12-.02-.24-.04-.34-.05-.26-.03-.46-.02-.6-.03-.06,0-.12,0-.16,0-.04,0-.05,0-.05,0,0,0,.16-.03.46-.03-.76-.08-1.52-.05-2.28.07-.58.1-1.86.31-2.14,1.16,0,0,0,0,0,0-.19.5-.16.88-.03,1.18Zm7.2,1.28c.31.26.55.57.73.9.35.65.46,1.33.49,1.87.03.55-.01,1-.04,1.31-.02.15-.03.27-.04.35-.01.08-.02.12-.02.12,0,0,0-.04,0-.12,0-.09.01-.21.02-.35.02-.31.04-.75,0-1.3-.04-.54-.15-1.2-.5-1.83-.17-.31-.4-.62-.7-.86-.3-.25-.66-.44-1.05-.58-.79-.27-1.59-.34-2.31-.41-.72-.06-1.38-.16-1.91-.31-.53-.15-.93-.37-1.18-.56-.12-.09-.22-.17-.27-.23-.06-.06-.09-.09-.08-.09,0,0,.13.11.38.29.25.17.65.38,1.18.52.53.15,1.18.23,1.9.29.72.06,1.53.13,2.34.41.4.14.77.34,1.08.6Z"/>
          <path class="cls-4" d="m25.26,29.64s.05-.01.07-.02c-.03,0-.05.01-.07.02Z"/>
          <path class="cls-5" d="m22.4,18.41s.09,0,.16,0c.14,0,.34,0,.6.03.1.01.22.03.34.05.04,0,.08.01.12.02.08.02.17.04.25.06.05.01.1.02.15.04.07.02.14.05.21.07.32.11.65.25,1,.47.75.47,1.51,1.3,1.9,2.42.02.04.04.08.05.13.03.08.03.17.05.25.05.19.1.38.12.59,0,.05.02.09.02.14.03.3.04.62.04.94,0,.67-.04,1.38.09,2.1.12.7.41,1.38.93,1.83-.29.09-.63-.01-.8-.24l-.17-.22.08.27c.12.44.4.81.74,1.05-.4.16-.86.15-1.2-.05l-.09-.06.03.11c.07.3.14.58.21.85-.16-.04-.31-.14-.4-.27-.11-.15-.18-.31-.22-.48l-.03-.1-.04.1c-.13.33-.37.58-.59.76-.23.18-.46.28-.65.34-.38.12-.61.13-.6.14,0,0,.05,0,.16-.01.09,0,.22-.03.37-.07.02,0,.04-.01.07-.02,0,0,0,0,.01,0,.19-.06.43-.16.67-.33.13-.1.25-.22.37-.36.08-.1.15-.22.22-.35.04.15.1.3.2.43.12.16.29.3.52.33h.06s-.01-.05-.01-.05c-.06-.27-.13-.55-.2-.84.38.19.86.19,1.28,0l.08-.04-.08-.05c-.3-.2-.55-.5-.69-.85.23.17.55.22.84.09l.08-.04-.07-.06c-.16-.13-.29-.28-.41-.45-.28-.4-.46-.88-.55-1.38-.12-.7-.09-1.4-.09-2.08,0-.43-.04-.86-.11-1.27-.04-.23-.07-.46-.14-.67-.32-.98-.92-1.74-1.57-2.25-.15-.12-.29-.23-.44-.32-.6-.37-1.18-.54-1.65-.63-.17-.03-.32-.05-.46-.06-.14-.01-.26-.01-.36-.01-.3,0-.46.03-.46.03,0,0,.02,0,.05,0Z"/>
          <path class="cls-5" d="m24.48,21.47c-.81-.28-1.62-.34-2.34-.41-.72-.06-1.37-.14-1.9-.29-.53-.14-.93-.35-1.18-.52-.25-.17-.37-.3-.38-.29,0,0,.03.03.08.09.06.06.15.14.27.23.25.18.65.4,1.18.56.53.16,1.19.25,1.91.31.72.07,1.52.14,2.31.41.39.14.75.33,1.05.58.3.25.53.55.7.86.35.63.46,1.29.5,1.83.04.55.01.99,0,1.3,0,.14-.02.26-.02.35,0,.08,0,.12,0,.12,0,0,.01-.04.02-.12.01-.08.03-.2.04-.35.03-.31.07-.75.04-1.31-.03-.55-.14-1.22-.49-1.87-.17-.32-.41-.64-.73-.9-.31-.26-.68-.46-1.08-.6Z"/>
          <path class="cls-8" d="m19.14,41.37h-3.27l-.05.63c1.1.31,2.23.54,3.39.67,0-.12,0-.22-.01-.34-.01-.31-.03-.64-.05-.96Z"/>
          <path class="cls-10" d="m16.76,36.28c-.75,3.55-1.07,5.09-1.07,5.09h3.45c0-.07,0-.14-.01-.22-.02-.24-.06-.48-.09-.71-.92-1.11-1.22-2.7-.76-4.06l.03-.06c-.03-.19-.06-.36-.08-.49-.02-.14-.04-.25-.05-.34-.01-.08-.01-.12,0-.12,0,0,.01.04.03.12.02.09.04.2.07.33.06.31.15.72.26,1.23.19.95.49,2.24.66,3.69l-.1-2.84,1.02-5.71s-2.56.34-3.35,4.09Z"/>
          <path class="cls-10" d="m34.64,36.15l.25-.13s-.12-.25-.33-.65l-.08.35c.05.12.1.26.17.43Z"/>
          <path class="cls-10" d="m29.51,30.51l1.55,7.46.67-.34.58-.31c-.08-.31-.15-.51-.16-.57l-.03-.07c-.15-.15-.92-.97-1.04-1.27l-.49-2.07s.18-.29.51,0c.17.14.34.42.38.5,0,0,0,0,0,0,.02,0,.1.12.21.33.03.06.08.13.11.2l.1-.29-.21-1.42s-.18-1.02.05-.98c.22.04.39.3.47.74.08.44.18.99.18.99,0,0,.04.17.12-.16.05-.2-.03-.73-.1-1.15-.13-.15-.25-.3-.38-.43-1.9-2.01-5.35-1.3-5.35-1.3l2.84.17Z"/>
          <path class="cls-10" d="m31.06,37.97l-1.55-7.46-2.84-.17h-.05s0,0,0,0c0,0-.55,1.25-2.34,1.77-1.08.31-2.25,0-2.76-.17-.1-.03-.16-.06-.21-.08-.03-.01-.06-.02-.06-.02l-1.15.36-1.02,5.71.1,2.84c.02.14.04.27.05.4.04.41.05.8.06,1.18,0,.13,0,.24.01.36.76.08,1.53.13,2.3.13,3.56,0,6.92-.88,9.87-2.43l-.1-.89-.32-1.53Z"/>
          <path class="cls-4" d="m19.24,41.15c-.01-.14-.03-.27-.05-.4-.16-1.45-.47-2.74-.66-3.69-.11-.51-.19-.93-.26-1.23-.03-.14-.05-.25-.07-.33-.02-.08-.03-.12-.03-.12,0,0,0,.04,0,.12.01.09.03.2.05.34.02.13.05.3.08.49l.02-.04c.37,1.39.62,2.81.76,4.23-.02-.02-.04-.05-.05-.07.03.24.06.47.09.71,0,.07,0,.14.01.22.02.33.04.65.05.96,0,.12,0,.23.01.34.04,0,.07.01.11.02,0-.12,0-.24-.01-.36-.01-.38-.02-.78-.06-1.18Z"/>
          <path class="cls-2" d="m19.04,40.44s.03.05.05.07c-.14-1.43-.39-2.85-.76-4.23l-.02.04-.03.06c-.46,1.36-.15,2.95.76,4.06Z"/>
          <path class="cls-8" d="m32.38,37.56c-.02-.09-.04-.17-.06-.25l-.58.31-.59.31.65,2.3c.26-.14.5-.3.74-.45,0-.04,0-.08,0-.12.05-.83-.04-1.58-.17-2.11Z"/>
          <path class="cls-8" d="m34.48,35.72l-.11.5-.74.22-1.47.26s-.02-.02-.03-.03l.03.07s0-.03,0-.03c0,0,.05.07.1.22.06.14.13.35.2.62.15.53.25,1.3.2,2.13,0,.02,0,.03,0,.04.92-.56,1.81-1.17,2.64-1.86-.23-.62-.47-1.24-.65-1.71-.06-.16-.12-.3-.17-.43Z"/>
          <path class="cls-8" d="m32.51,33.23c-.08.33-.12.16-.12.16,0,0-.1-.56-.18-.99-.08-.44-.24-.7-.47-.74-.22-.04-.05.98-.05.98l.21,1.42-.1.29c.03.05.05.1.09.16.03.03.03.04.07.05.03.01.07.02.11.02.08,0,.18.02.27.04.37.09.64.34.78.55.14.21.16.36.15.37-.02,0-.07-.14-.21-.32-.14-.18-.4-.4-.74-.49-.09-.02-.17-.03-.26-.04-.04,0-.09-.01-.13-.03-.02-.01-.04,0-.07-.03-.03-.02-.04-.04-.05-.06-.09-.14-.14-.27-.19-.39-.09-.22-.14-.36-.13-.37-.04-.08-.21-.35-.38-.5-.33-.28-.51,0-.51,0l.49,2.07c.12.31.89,1.12,1.04,1.27.02.02.03.03.03.03l1.47-.26.74-.22.11-.5.08-.35.13-.61.1-1.59-.14-1.33s-.06-.13-.28-.04c-.21.09-.13.82-.13.82l-.04.54s-.17.41-.21.38c-.03-.04-.07-.77-.07-.77l-.17-1.58s-.07-.17-.31-.12c-.13.03-.24.18-.25.41-.01.23.06.63.06.76,0,.13,0,.9,0,.9l-.42-1.78s-.05-.58-.35-.5c-.3.07-.16.49-.17.67,0,.07.03.3.08.57.07.42.15.95.1,1.15Z"/>
          <path class="cls-9" d="m32.46,37.54c-.07-.27-.15-.48-.2-.62-.06-.14-.1-.22-.1-.22,0,0,0,.02,0,.03.01.06.08.26.16.57.02.08.04.16.06.25.13.53.22,1.28.17,2.11,0,.04,0,.08,0,.12.04-.02.08-.05.11-.07,0-.02,0-.03,0-.04.05-.84-.06-1.61-.2-2.13Z"/>
          <path class="cls-9" d="m31.81,34.57s.02.04.05.06c.03.02.05.02.07.03.04.01.09.02.13.03.09.01.17.02.26.04.34.09.6.31.74.49.14.18.19.33.21.32.01,0-.01-.16-.15-.37-.13-.2-.4-.45-.78-.55-.09-.03-.19-.03-.27-.04-.04,0-.08-.01-.11-.02-.04-.01-.04-.02-.07-.05-.04-.05-.06-.1-.09-.16-.04-.07-.08-.14-.11-.2-.11-.21-.19-.34-.21-.33,0,0,0,0,0,0-.01,0,.04.14.13.37.05.11.1.24.19.39Z"/>
        </g>
      </g>
      <path class="cls-4" d="m42.96,21.55s-.02-.12-.04-.35c-.02-.26-.04-.59-.08-1.01-.02-.23-.03-.47-.05-.74-.03-.27-.09-.57-.14-.89-.11-.64-.21-1.39-.45-2.2-.38-1.64-1.16-3.58-2.38-5.64-1.23-2.05-3-4.18-5.4-6-2.4-1.8-5.42-3.32-8.91-3.94-3.46-.59-7.37-.48-11.09.93-.95.3-1.84.77-2.75,1.21-.87.52-1.78,1.01-2.59,1.66-.86.59-1.61,1.33-2.39,2.04-.71.79-1.45,1.55-2.07,2.45-1.26,1.74-2.35,3.68-3.01,5.81-.69,2.12-1.06,4.37-1.09,6.65.03,2.29.4,4.54,1.09,6.66.66,2.13,1.76,4.07,3.01,5.81.61.89,1.36,1.66,2.07,2.45.79.71,1.54,1.45,2.39,2.04.81.66,1.72,1.14,2.59,1.66.92.44,1.81.91,2.75,1.21,3.72,1.42,7.63,1.53,11.09.93,3.49-.61,6.51-2.14,8.91-3.94,2.4-1.81,4.17-3.95,5.4-6,1.22-2.06,1.99-4,2.38-5.64.25-.81.35-1.55.45-2.2.13-.64.17-1.19.19-1.63.03-.42.06-.76.08-1.01.02-.23.04-.35.04-.35s.01.12,0,.35c0,.26-.01.59-.03,1.02,0,.45-.03,1-.14,1.65-.09.65-.17,1.4-.41,2.22-.36,1.67-1.11,3.64-2.32,5.74-1.22,2.09-3,4.28-5.43,6.14-2.42,1.85-5.49,3.42-9.05,4.07-3.53.62-7.52.53-11.34-.91-.97-.31-1.88-.78-2.82-1.23-.89-.53-1.82-1.03-2.65-1.7-.88-.6-1.65-1.35-2.45-2.08-.73-.8-1.49-1.59-2.12-2.5-1.29-1.78-2.41-3.77-3.09-5.95C.41,26.2.03,23.89,0,21.55c.03-2.34.41-4.65,1.12-6.82.68-2.18,1.81-4.17,3.09-5.95.63-.91,1.39-1.7,2.12-2.5.8-.73,1.57-1.48,2.45-2.08.83-.67,1.76-1.16,2.65-1.7.94-.45,1.85-.92,2.82-1.23,3.81-1.43,7.8-1.53,11.34-.91,3.56.65,6.63,2.22,9.05,4.07,2.43,1.86,4.21,4.05,5.43,6.14,1.21,2.1,1.97,4.07,2.32,5.74.24.82.32,1.57.41,2.22.04.33.09.62.12.9,0,.27.02.52.03.75.01.43.02.76.03,1.02,0,.23,0,.35,0,.35Z"/>
    </g>
  </g>
</svg>