<?xml version="1.0" encoding="UTF-8"?>
<svg id="Layer_2" data-name="Layer 2" xmlns="http://www.w3.org/2000/svg" viewBox="0 0 42.97 43.1">
  <defs>
    <style>
      .cls-1 {
        fill: #263238;
      }

      .cls-1, .cls-2, .cls-3, .cls-4, .cls-5, .cls-6, .cls-7, .cls-8 {
        stroke-width: 0px;
      }

      .cls-2 {
        fill: #455a64;
      }

      .cls-3 {
        fill: #e0e0e0;
      }

      .cls-4 {
        fill: #fff;
      }

      .cls-5 {
        fill: #ffbe9d;
      }

      .cls-6 {
        fill: #ebebeb;
      }

      .cls-7 {
        fill: #eb996e;
      }

      .cls-8 {
        fill: #00bcd4;
      }
    </style>
  </defs>
  <g id="Device">
    <g>
      <g>
        <ellipse class="cls-4" cx="21.61" cy="21.47" rx="21.32" ry="21.27"/>
        <g>
          <g>
            <path class="cls-6" d="m11.66,26.79l5.58-.47,13.63,2.3,1.61,10.26-.23,1.19c-6.59,3.66-13.96,3.57-20.21.46l-.39-13.74"/>
            <path class="cls-6" d="m27.96,28.45s4.29-.85,7.07,3.11c1.7,2.42,2.53,4.03,2.53,4.03-2.41,2.25-4.08,4.2-7.11,5.32l-2.5-12.45Z"/>
          </g>
          <path class="cls-6" d="m11.66,26.79s-3.69.45-5.12,3.6c-1.43,3.14-1.76,4.13-1.76,4.13,1.91,2.29,4.33,4.84,7.3,5.86,0,0,.69-7.76.78-10,.1-2.46.19-3.67-1.2-3.6Z"/>
        </g>
        <g>
          <g>
            <path class="cls-1" d="m15.04,6.65c1.99-2.43,4.67-3.83,7.81-3.88,1.77-.03,2.51.34,3.79.68,1.28.34,2.43,1.03,3.19,2.11.91,1.28,1.67,2.72,1.84,4.28.18,1.6.35,3.21.23,4.82-.12,1.61-.56,3.23-1.51,4.53l-4.1.71c-2.26.08-4.56.15-6.76-.36-2.2-.52-4.35-1.7-5.53-3.63-1.64-2.68-.96-6.83,1.03-9.26Z"/>
            <path class="cls-3" d="m29.15,21.49s.07.1.24.21c.18.11.46.24.84.28.38.04.85,0,1.3-.26.45-.25.82-.73.98-1.3.15-.57.08-1.17-.19-1.61-.26-.45-.65-.73-.99-.88-.35-.15-.66-.19-.87-.18-.21,0-.32.05-.32.06,0,.05.48-.05,1.12.27.31.16.65.44.87.84.22.4.29.93.15,1.44-.14.51-.46.94-.86,1.17-.39.24-.82.3-1.17.29-.72-.04-1.08-.37-1.1-.33Z"/>
            <path class="cls-1" d="m11.06,18.52c.1-.92.59-1.83,1.39-2.3s1.92-.42,2.59.22l.64.77c1.01.43,1.64,1.57,1.52,2.66-.12,1.09-.96,2.05-2.01,2.37-1.05.32-2.25.01-3.05-.74-.8-.75-1.19-1.89-1.07-2.98Z"/>
            <path class="cls-2" d="m11.88,21.27s-.25-.28-.22-.81c.03-.52.42-1.21.94-1.84.53-.63,1.16-1.06,1.64-1.31.48-.26.81-.35.8-.38,0-.02-.35.03-.86.26-.51.22-1.18.65-1.73,1.31-.28.33-.5.67-.66,1.01-.16.33-.27.67-.26.96,0,.29.09.52.18.65.09.13.17.18.18.17Z"/>
            <path class="cls-2" d="m13.86,22.48c.07,0-.21-1.24.18-2.7.37-1.47,1.22-2.41,1.17-2.44-.02-.02-.25.19-.54.61-.29.41-.62,1.04-.82,1.79-.19.75-.22,1.46-.16,1.96.05.5.15.8.17.79Z"/>
            <g>
              <path class="cls-5" d="m26.25,27.72s-.02-3.8-.02-3.79c0,0,3.34-.37,4.26-4.64.46-2.13.54-5.65.52-8.53-.02-2.6-2.24-6.13-5.45-6.14l-1.43-.17-5.46,2.17c-.79.04-1.42.68-1.44,1.46l-.16,18.25,9.13,12.79.05-11.41h0Z"/>
              <path class="cls-7" d="m24.07,18.29c.03-.23.16-.42.32-.56.32-.27.79-.3,1.13-.06s.54.72.47,1.17h0c-.19.26-.49.44-.81.47-.05,0-.1,0-.15,0-.25,0-.5-.09-.69-.27s-.31-.47-.27-.75Z"/>
              <g>
                <path class="cls-1" d="m30,13.71c0,.29-.26.53-.56.53-.31,0-.55-.24-.54-.53,0-.29.26-.53.56-.53.31,0,.55.24.54.53Z"/>
                <path class="cls-1" d="m29.95,12.36c-.07.07-.48-.26-1.07-.3-.6-.04-1.05.24-1.11.17-.03-.03.05-.16.25-.29.2-.13.52-.24.89-.22.37.02.68.18.85.33.18.15.23.28.19.31Z"/>
                <path class="cls-1" d="m26.21,16.87s.37-.08.98-.12c.15,0,.3-.03.33-.13.04-.11-.01-.28-.08-.46-.12-.38-.25-.77-.39-1.18-.53-1.68-.91-3.06-.84-3.08.07-.02.56,1.32,1.09,3.01.13.41.25.81.37,1.19.05.18.14.38.05.6-.05.11-.16.19-.26.21-.1.02-.18.02-.26.02-.61,0-.98-.02-.98-.05Z"/>
                <path class="cls-7" d="m26.23,23.93s-2.92.03-5.7-1.86c0,0,1.38,3.07,5.72,2.91l-.02-1.05Z"/>
                <path class="cls-1" d="m24.43,17.18c.1,0,.06.65.59,1.13.53.49,1.22.46,1.22.55,0,.04-.16.12-.45.11-.29,0-.7-.12-1.02-.42-.32-.3-.45-.68-.45-.95,0-.27.07-.43.12-.42Z"/>
                <path class="cls-1" d="m29.84,10.12c-.11.14-.56.02-1.1.03-.54,0-.99.13-1.1,0-.05-.07.02-.21.21-.34.19-.14.51-.25.88-.26.37,0,.69.11.88.24.19.13.26.27.22.34Z"/>
                <path class="cls-1" d="m23.17,13.67c-.02.29.22.55.53.57.3.02.56-.2.58-.49.02-.29-.22-.55-.52-.57-.31-.02-.57.2-.58.49Z"/>
                <path class="cls-1" d="m21.78,12.15c.07.07.49-.23,1.09-.22.6,0,1.03.32,1.1.25.03-.03-.04-.16-.22-.31-.19-.14-.5-.28-.88-.29-.37,0-.69.13-.87.26-.19.14-.25.27-.22.3Z"/>
                <path class="cls-1" d="m21.44,10.87c.12.14.58,0,1.13,0,.55-.01,1.02.11,1.13-.03.05-.07-.02-.2-.23-.34-.2-.13-.54-.24-.92-.24-.38,0-.71.12-.91.26-.2.14-.26.27-.21.34Z"/>
              </g>
              <g>
                <path class="cls-5" d="m17.98,15.33c.02-.32-.31-1.1-.63-1.17-.84-.18-2.37-.19-2.51,1.96-.18,2.94,2.81,2.51,2.82,2.43,0-.07.25-2.11.31-3.22Z"/>
                <path class="cls-7" d="m16.92,17.42s-.05.03-.14.07c-.09.03-.23.05-.38-.02-.3-.13-.54-.64-.52-1.17,0-.27.08-.52.19-.72.1-.21.25-.35.41-.37.16-.03.26.07.29.16.03.08.01.14.03.15,0,0,.07-.05.05-.17,0-.06-.04-.13-.1-.19-.07-.06-.17-.1-.28-.09-.23,0-.45.2-.56.42-.13.23-.22.51-.23.81-.02.59.25,1.17.67,1.31.2.07.38.01.47-.05.1-.07.12-.13.11-.14Z"/>
              </g>
            </g>
            <path class="cls-1" d="m17.23,14.17l.75.77c3.23-3.09,9.54-10.81,9.19-10.35,0,0-2.21-.91-4.62-.5-2.4.41-6.96,1.61-6.89,4.44.07,2.83,1.56,5.64,1.56,5.64Z"/>
            <path class="cls-3" d="m17.3,21.49s-.07.1-.24.21c-.18.11-.46.24-.84.28-.38.04-.85,0-1.3-.26-.45-.25-.82-.73-.98-1.3-.15-.57-.08-1.17.19-1.61.26-.45.65-.73.99-.88.35-.15.66-.19.87-.18.21,0,.32.05.32.06,0,.05-.48-.05-1.12.27-.31.16-.65.44-.87.84-.22.4-.29.93-.15,1.44.14.51.46.94.86,1.17.39.24.82.3,1.17.29.72-.04,1.08-.37,1.1-.33Z"/>
          </g>
          <path class="cls-2" d="m12.95,13.52s.01-.06.05-.17c.04-.11.1-.27.2-.46.2-.39.6-.91,1.23-1.38.62-.48,1.49-.88,2.48-1.19.98-.32,2.1-.57,3.18-1.04,1.1-.45,2.07-1.03,2.91-1.63.83-.6,1.52-1.23,2.05-1.79.54-.56.92-1.06,1.19-1.41.12-.17.22-.3.3-.41.07-.09.11-.14.11-.14s-.03.06-.09.15c-.06.1-.15.24-.27.42-.25.36-.63.87-1.16,1.44-.53.58-1.21,1.22-2.05,1.83-.84.61-1.82,1.2-2.93,1.65-1.1.47-2.22.72-3.2,1.03-.98.3-1.83.68-2.46,1.14-.63.45-1.03.95-1.24,1.32-.22.38-.28.61-.3.6Z"/>
          <path class="cls-2" d="m13.81,13.98s-.03-.24.11-.64c.14-.4.49-.94,1.11-1.38.61-.46,1.49-.74,2.46-.96.97-.21,2.02-.49,3.05-.97,1.03-.48,1.96-1.05,2.72-1.68.77-.62,1.39-1.26,1.87-1.83.48-.57.81-1.08,1.04-1.43.1-.17.18-.3.25-.41.06-.09.09-.14.1-.14s-.02.06-.07.15c-.06.11-.13.25-.23.43-.22.36-.53.88-1.01,1.46-.47.59-1.09,1.24-1.86,1.87-.77.63-1.7,1.22-2.75,1.71-1.04.49-2.12.76-3.08.97-.96.21-1.82.48-2.43.91-.61.42-.96.94-1.11,1.32-.16.38-.15.62-.17.62Z"/>
        </g>
        <path class="cls-1" d="m12.09,40.74c-.05,0-.1-1.3-.1-2.91s.04-2.91.1-2.91.1,1.3.1,2.91-.04,2.91-.1,2.91Z"/>
        <path class="cls-1" d="m32.26,40.29s0-.39.03-1.02c.03-.63.07-1.5-.08-2.44-.15-.94-.46-1.75-.68-2.34-.23-.59-.37-.95-.34-.96.02-.01.21.33.47.91.25.58.59,1.4.75,2.36.15.97.09,1.85.03,2.48-.07.63-.15,1.01-.17,1.01Z"/>
      </g>
      <path class="cls-1" d="m42.96,21.55s-.02-.12-.04-.35c-.02-.26-.04-.59-.08-1.01-.02-.23-.03-.47-.05-.74-.03-.27-.09-.57-.14-.89-.11-.64-.21-1.39-.45-2.2-.38-1.64-1.16-3.58-2.38-5.64-1.23-2.05-3-4.18-5.4-6-2.4-1.8-5.42-3.32-8.91-3.94-3.46-.59-7.37-.48-11.09.93-.95.3-1.84.77-2.75,1.21-.87.52-1.78,1.01-2.59,1.66-.86.59-1.61,1.33-2.39,2.04-.71.79-1.45,1.55-2.07,2.45-1.26,1.74-2.35,3.68-3.01,5.81-.69,2.12-1.06,4.37-1.09,6.65.03,2.29.4,4.54,1.09,6.66.66,2.13,1.76,4.07,3.01,5.81.61.89,1.36,1.66,2.07,2.45.79.71,1.54,1.45,2.39,2.04.81.66,1.72,1.14,2.59,1.66.92.44,1.81.91,2.75,1.21,3.72,1.42,7.63,1.53,11.09.93,3.49-.61,6.51-2.14,8.91-3.94,2.4-1.81,4.17-3.95,5.4-6,1.22-2.06,1.99-4,2.38-5.64.25-.81.35-1.55.45-2.2.13-.64.17-1.19.19-1.63.03-.42.06-.76.08-1.01.02-.23.04-.35.04-.35s.01.12,0,.35c0,.26-.01.59-.03,1.02,0,.45-.03,1-.14,1.65-.09.65-.17,1.4-.41,2.22-.36,1.67-1.11,3.64-2.32,5.74-1.22,2.09-3,4.28-5.43,6.14-2.42,1.85-5.49,3.42-9.05,4.07-3.53.62-7.52.53-11.34-.91-.97-.31-1.88-.78-2.82-1.23-.89-.53-1.82-1.03-2.65-1.7-.88-.6-1.65-1.35-2.45-2.08-.73-.8-1.49-1.59-2.12-2.5-1.29-1.78-2.41-3.77-3.09-5.95C.41,26.2.03,23.89,0,21.55c.03-2.34.41-4.65,1.12-6.82.68-2.18,1.81-4.17,3.09-5.95.63-.91,1.39-1.7,2.12-2.5.8-.73,1.57-1.48,2.45-2.08.83-.67,1.76-1.16,2.65-1.7.94-.45,1.85-.92,2.82-1.23,3.81-1.43,7.8-1.53,11.34-.91,3.56.65,6.63,2.22,9.05,4.07,2.43,1.86,4.21,4.05,5.43,6.14,1.21,2.1,1.97,4.07,2.32,5.74.24.82.32,1.57.41,2.22.04.33.09.62.12.9,0,.27.02.52.03.75.01.43.02.76.03,1.02,0,.23,0,.35,0,.35Z"/>
    </g>
  </g>
  <g id="Layer_8" data-name="Layer 8">
    <g>
      <g>
        <g>
          <path class="cls-4" d="m15.77,34.88h3.32c.1,0,.17.08.17.17v2.3c0,.1-.08.17-.17.17h-3.32c-.1,0-.17-.08-.17-.17v-2.3c0-.1.08-.17.17-.17Z" transform="translate(-2.49 1.31) rotate(-4.01)"/>
          <path class="cls-1" d="m15.86,37.64s-.05.02-.12-.03c-.04-.02-.07-.07-.08-.14,0-.06-.01-.13-.02-.21-.03-.33-.07-.78-.11-1.33-.01-.14-.02-.29-.03-.44,0-.08-.01-.15-.02-.23,0-.04-.01-.08,0-.13,0-.05.04-.1.08-.13.04-.03.1-.05.14-.05h.13c.08-.02.17-.02.26-.03.17-.01.35-.03.54-.04.73-.05,1.54-.11,2.38-.17.07,0,.14.02.19.08.05.05.06.14.06.18,0,.11.01.21.02.31.01.21.03.41.04.61.03.4.05.79.08,1.16v.14s0,.12-.03.16c-.03.05-.09.08-.14.09-.06,0-.09,0-.14.01-.17.01-.34.02-.51.03-.32.02-.63.04-.91.06-.54.03-.99.06-1.31.07-.14,0-.26.01-.36.01-.08,0-.12,0-.13,0s.04-.01.12-.02c.09,0,.21-.02.36-.04.33-.03.77-.07,1.31-.11.28-.02.58-.05.91-.07.16-.01.33-.03.5-.04h.13s.06-.03.08-.06c.02-.03.03-.05.02-.1v-.14c-.04-.37-.07-.76-.1-1.16-.01-.2-.03-.41-.04-.61,0-.1-.01-.21-.02-.31,0-.06,0-.08-.03-.11-.02-.03-.06-.04-.09-.04-.84.06-1.65.11-2.38.16-.18.01-.36.02-.54.04-.09,0-.17.01-.26.02h-.13s-.06.02-.09.04c-.05.04-.05.1-.04.18,0,.08,0,.16.01.23,0,.15.02.3.03.44.03.55.06,1,.07,1.33,0,.08,0,.15,0,.21,0,.06.03.1.06.12.06.05.11.04.11.05Z"/>
        </g>
        <path class="cls-8" d="m16.21,36.37c.02.22.21.39.43.38s.39-.21.37-.43-.21-.39-.43-.38-.39.21-.37.43Z"/>
        <rect class="cls-3" x="17.27" y="36.11" width="1.5" height=".26" rx=".13" ry=".13" transform="translate(38.52 71.13) rotate(175.99)"/>
      </g>
      <polyline class="cls-1" points="17.65 35.27 17.96 34.2 16.62 34.29 17.02 35.32 17.65 35.27"/>
    </g>
  </g>
</svg>