<?xml version="1.0" encoding="UTF-8"?>
<svg id="Layer_2" data-name="Layer 2" xmlns="http://www.w3.org/2000/svg" viewBox="0 0 44.52 44.58">
  <defs>
    <style>
      .cls-1 {
        opacity: .2;
      }

      .cls-2 {
        fill: #263238;
      }

      .cls-2, .cls-3, .cls-4 {
        stroke-width: 0px;
      }

      .cls-3 {
        fill: #fff;
      }

      .cls-4 {
        fill: #00bcd4;
      }
    </style>
  </defs>
  <g id="Device">
    <g>
      <circle class="cls-3" cx="22.35" cy="22.41" r="22.16"/>
      <path class="cls-2" d="m44.44,22.29s-.02-.12-.04-.36c-.02-.26-.05-.61-.08-1.05-.02-.23-.03-.49-.05-.77-.03-.28-.09-.59-.15-.92-.11-.66-.21-1.44-.47-2.27-.39-1.7-1.2-3.71-2.46-5.84-1.27-2.12-3.1-4.33-5.59-6.21-2.48-1.86-5.61-3.44-9.22-4.07-3.58-.61-7.63-.5-11.48.96-.98.31-1.9.8-2.85,1.25-.9.54-1.84,1.04-2.68,1.72-.89.61-1.66,1.37-2.48,2.11-.73.81-1.51,1.61-2.14,2.53-1.3,1.81-2.43,3.81-3.12,6.02-.71,2.19-1.09,4.52-1.13,6.89.03,2.37.41,4.7,1.12,6.89.69,2.21,1.82,4.21,3.12,6.02.63.92,1.4,1.72,2.14,2.53.81.73,1.59,1.5,2.48,2.11.84.68,1.78,1.18,2.68,1.72.95.45,1.87.94,2.85,1.25,3.85,1.47,7.9,1.58,11.48.96,3.61-.64,6.74-2.22,9.22-4.07,2.49-1.88,4.32-4.09,5.59-6.21,1.26-2.13,2.06-4.14,2.46-5.84.26-.84.36-1.61.47-2.27.05-.33.11-.64.15-.92.02-.28.04-.54.05-.77.03-.44.06-.78.08-1.05.02-.24.04-.36.04-.36s.01.12,0,.36c0,.26-.02.61-.03,1.05,0,.23-.02.49-.03.78-.02.28-.08.59-.12.93-.09.67-.18,1.45-.43,2.3-.37,1.72-1.15,3.77-2.4,5.94-1.26,2.16-3.1,4.42-5.62,6.35-2.51,1.91-5.68,3.54-9.36,4.21-3.65.65-7.78.55-11.72-.94-1-.32-1.95-.81-2.92-1.27-.92-.55-1.89-1.06-2.74-1.75-.91-.62-1.71-1.4-2.54-2.15-.75-.83-1.54-1.64-2.19-2.59-1.33-1.85-2.5-3.9-3.2-6.16-.73-2.24-1.12-4.63-1.15-7.05.03-2.42.42-4.81,1.16-7.05.71-2.26,1.87-4.31,3.2-6.15.65-.94,1.44-1.76,2.19-2.59.83-.75,1.63-1.53,2.54-2.15.86-.69,1.82-1.2,2.74-1.75.97-.46,1.91-.96,2.92-1.27C18.69-.17,22.82-.27,26.47.38c3.68.67,6.85,2.3,9.36,4.21,2.52,1.93,4.35,4.19,5.62,6.35,1.25,2.17,2.04,4.21,2.4,5.94.24.85.33,1.63.43,2.3.04.34.1.64.12.93,0,.28.02.54.03.78.01.44.02.79.03,1.05,0,.24,0,.36,0,.36Z"/>
    </g>
  </g>
  <g id="Layer_22" data-name="Layer 22">
    <g>
      <g>
        <rect class="cls-4" x="7.43" y="12.56" width="29.84" height="18.93" rx=".91" ry=".91" transform="translate(-3.74 4.6) rotate(-10.84)"/>
        <g>
          <path class="cls-3" d="m11.56,18.85c.05.24-.12.41-.48.48l-.71.14-.26-1.38.67-.13c.34-.07.55.04.59.26.03.14-.02.26-.12.34.16.02.28.12.32.29Zm-1.09-.58l.06.32.32-.06c.16-.03.23-.1.21-.21-.02-.11-.12-.15-.27-.12l-.32.06Zm.76.61c-.02-.12-.12-.15-.29-.12l-.37.07.07.34.37-.07c.17-.03.24-.1.22-.22Z"/>
          <path class="cls-3" d="m12.72,18.72l-.64.12-.07.32-.33.06.35-1.49.31-.06.88,1.26-.33.06-.18-.27Zm-.15-.22l-.32-.49-.12.57.44-.08Z"/>
          <path class="cls-3" d="m14.37,17.28l.26,1.38-.26.05-.85-.7.16.84-.31.06-.26-1.38.26-.05.84.7-.16-.84.31-.06Z"/>
          <path class="cls-3" d="m15.36,17.96l-.15.23.07.35-.32.06-.26-1.38.32-.06.12.64.49-.76.35-.07-.45.72.75.65-.37.07-.54-.46Z"/>
        </g>
        <g>
          <path class="cls-3" d="m12.39,24.63l-.25.05.06.33-.13.02-.06-.33-.71.14-.02-.09.51-.97.14-.03-.49.94.55-.11-.06-.29.13-.02.06.29.25-.05.02.12Z"/>
          <path class="cls-3" d="m13.32,24.42c.04.21-.08.4-.39.46-.18.03-.37,0-.49-.08l.04-.12c.1.07.26.1.42.07.21-.04.31-.16.28-.32-.03-.15-.15-.23-.39-.19l-.09.02-.02-.1.27-.51-.65.12-.02-.12.81-.16.02.09-.27.52c.27-.04.44.08.47.28Z"/>
          <path class="cls-3" d="m14.33,24.21c.04.21-.08.41-.39.47-.18.03-.37,0-.48-.08l.04-.12c.1.07.25.1.42.07.21-.04.31-.17.28-.32-.03-.16-.15-.24-.47-.18l-.27.05-.06-.65.69-.13.02.12-.58.11.03.41.16-.03c.38-.07.55.05.6.27Z"/>
          <path class="cls-3" d="m15.45,23.99c.05.24-.11.42-.36.47-.34.06-.56-.13-.64-.53-.08-.43.11-.7.45-.76.11-.02.22-.02.31.01l-.03.11c-.07-.03-.16-.03-.26-.01-.27.05-.41.26-.35.6,0,.03.01.06.03.1.04-.15.17-.26.34-.29.25-.05.45.07.5.3Zm-.13.03c-.03-.17-.17-.25-.37-.21-.19.04-.3.18-.27.34.03.14.17.25.39.21.18-.03.29-.17.26-.33Z"/>
          <path class="cls-3" d="m18.25,23.85l-.38-.34-.23.45-.14.03.28-.56-.45-.39.14-.03.36.32.21-.43.14-.03-.27.53.47.41-.15.03Z"/>
          <path class="cls-3" d="m19.21,23.66l-.38-.34-.23.45-.14.03.28-.56-.45-.39.14-.03.36.32.21-.43.14-.03-.27.53.47.41-.15.03Z"/>
          <path class="cls-3" d="m20.17,23.48l-.38-.34-.23.45-.14.03.28-.56-.45-.39.14-.03.36.32.21-.43.14-.03-.27.53.47.41-.15.03Z"/>
          <path class="cls-3" d="m21.14,23.29l-.38-.34-.23.45-.14.03.28-.56-.45-.39.14-.03.36.32.21-.43.14-.03-.27.53.47.41-.15.03Z"/>
          <path class="cls-3" d="m24.46,22.66l-.38-.34-.23.45-.14.03.28-.56-.45-.39.14-.03.36.32.21-.43.14-.03-.27.53.47.41-.15.03Z"/>
          <path class="cls-3" d="m25.43,22.47l-.38-.34-.23.45-.14.03.28-.56-.45-.39.14-.03.36.32.21-.43.14-.03-.27.53.47.41-.15.03Z"/>
          <path class="cls-3" d="m26.39,22.29l-.38-.34-.23.45-.14.03.28-.56-.45-.39.14-.03.36.32.21-.43.14-.03-.27.53.47.41-.15.03Z"/>
          <path class="cls-3" d="m27.35,22.1l-.38-.34-.23.45-.14.03.28-.56-.45-.39.14-.03.36.32.21-.43.14-.03-.27.53.47.41-.15.03Z"/>
          <path class="cls-3" d="m30.1,20.27l.24,1.26-.13.02-.22-1.15-.3.06-.02-.12.43-.08Z"/>
          <path class="cls-3" d="m31.41,20.95c.04.21-.08.4-.39.46-.18.03-.37,0-.49-.08l.04-.12c.1.07.26.1.42.07.21-.04.31-.16.28-.32-.03-.15-.15-.23-.39-.19l-.09.02-.02-.1.27-.51-.65.12-.02-.12.81-.16.02.09-.27.52c.27-.04.44.08.47.28Z"/>
          <path class="cls-3" d="m32.67,20.74l-.25.05.06.33-.13.02-.06-.33-.71.14-.02-.09.51-.97.14-.03-.49.94.55-.11-.06-.29.13-.02.06.29.25-.05.02.12Z"/>
          <path class="cls-3" d="m33.69,20.77l.02.12-.89.17-.02-.09.43-.61c.12-.17.13-.26.11-.34-.03-.15-.15-.22-.34-.18-.15.03-.25.1-.32.21l-.11-.06c.08-.13.22-.23.41-.27.26-.05.44.05.48.26.02.12,0,.24-.13.43l-.35.5.69-.13Z"/>
        </g>
        <g>
          <path class="cls-3" d="m11.21,27.91c-.03-.18.08-.34.27-.37.1-.02.2,0,.27.06l-.07.1s-.1-.05-.17-.04c-.11.02-.18.12-.16.23.02.11.12.18.23.16.06-.01.11-.05.14-.1l.11.07c-.04.08-.12.14-.23.16-.19.04-.35-.07-.39-.25Z"/>
          <path class="cls-3" d="m12.3,27.88l-.28.05-.03.14-.14.03.15-.65.14-.03.38.55-.15.03-.08-.12Zm-.06-.1l-.14-.21-.05.25.19-.04Z"/>
          <path class="cls-3" d="m12.97,27.89l-.15-.15h0s-.12.02-.12.02l.03.17-.14.03-.12-.6.26-.05c.16-.03.28.03.3.17.02.09-.02.17-.09.21l.17.17-.15.03Zm-.22-.46l-.11.02.04.21.11-.02c.09-.02.12-.06.11-.13-.01-.07-.06-.1-.15-.08Z"/>
          <path class="cls-3" d="m13.17,27.79l.03-.11c.06.03.14.04.21.02.08-.02.11-.05.1-.09-.02-.11-.36.03-.4-.19-.02-.1.05-.2.22-.24.08-.01.16-.01.22.01l-.02.11c-.06-.02-.12-.03-.18-.02-.08.02-.11.05-.1.09.02.11.36-.03.4.19.02.1-.05.2-.22.24-.1.02-.2,0-.26-.02Z"/>
          <path class="cls-3" d="m14.46,26.98l.12.6-.14.03-.05-.25-.27.05.05.25-.14.03-.12-.6.14-.03.05.24.27-.05-.05-.24.14-.03Z"/>
          <path class="cls-3" d="m14.62,27.26c-.03-.18.08-.34.27-.37.19-.04.35.07.39.25.03.18-.08.34-.27.37-.19.04-.36-.07-.39-.25Zm.52-.1c-.02-.11-.12-.18-.23-.16-.11.02-.17.11-.15.23.02.11.12.18.23.16.11-.02.17-.11.15-.23Z"/>
          <path class="cls-3" d="m15.33,26.81l.14-.03.09.49.3-.06.02.11-.44.08-.12-.6Z"/>
          <path class="cls-3" d="m15.85,26.71l.27-.05c.2-.04.36.06.39.24.03.18-.08.33-.27.36l-.27.05-.12-.6Zm.36.44c.12-.02.18-.11.16-.22-.02-.12-.11-.17-.23-.15l-.13.02.07.37.13-.02Z"/>
          <path class="cls-3" d="m17.12,26.98l.02.11-.47.09-.12-.6.46-.09.02.11-.32.06.03.13.28-.05.02.11-.28.05.03.14.33-.06Z"/>
          <path class="cls-3" d="m17.64,26.99l-.15-.15h0s-.12.02-.12.02l.03.17-.14.03-.12-.6.26-.05c.16-.03.28.03.3.17.02.09-.02.17-.09.21l.17.17-.15.03Zm-.22-.46l-.11.02.04.21.11-.02c.09-.02.12-.06.11-.13-.01-.07-.06-.1-.15-.08Z"/>
        </g>
        <path class="cls-3" d="m11.81,28.88h8.32c.22,0,.39.18.39.39h0c0,.22-.18.39-.39.39h-8.32c-.22,0-.39-.18-.39-.39h0c0-.22.18-.39.39-.39Z" transform="translate(-5.22 3.52) rotate(-10.84)"/>
        <rect class="cls-3" x="30.2" y="25.67" width="5.06" height=".79" rx=".39" ry=".39" transform="translate(-4.32 6.62) rotate(-10.84)"/>
      </g>
      <g class="cls-1">
        <path class="cls-3" d="m34.25,10.1L6.89,15.35c-.54.1-.89.62-.79,1.16l.94,4.91c1.96.87,4.38.63,6.4-.21,2.38-.99,4.39-2.7,6.51-4.18,2.11-1.48,4.5-2.81,7.08-2.86,2.44-.05,4.73,1.04,7.07,1.72.76.22,1.56.39,2.36.46l-1.04-5.45c-.1-.54-.62-.89-1.16-.79Z"/>
      </g>
    </g>
  </g>
</svg>