<?xml version="1.0" encoding="UTF-8"?>
<svg id="Layer_2" data-name="Layer 2" xmlns="http://www.w3.org/2000/svg" viewBox="0 0 44.52 44.58">
  <defs>
    <style>
      .cls-1, .cls-2, .cls-3, .cls-4, .cls-5, .cls-6, .cls-7, .cls-8, .cls-9, .cls-10, .cls-11, .cls-12, .cls-13 {
        stroke-width: 0px;
      }

      .cls-1, .cls-14, .cls-6 {
        opacity: .3;
      }

      .cls-2 {
        fill: none;
      }

      .cls-3, .cls-11 {
        fill: #f5f5f5;
      }

      .cls-3, .cls-13 {
        opacity: .2;
      }

      .cls-4 {
        opacity: .5;
      }

      .cls-6, .cls-10 {
        fill: #fff;
      }

      .cls-7 {
        fill: #263238;
      }

      .cls-8 {
        fill: #455a64;
      }

      .cls-9 {
        fill: #e0e0e0;
      }

      .cls-12 {
        fill: #00bcd4;
      }
    </style>
  </defs>
  <g id="Device">
    <g>
      <circle class="cls-10" cx="22.35" cy="22.41" r="22.16"/>
      <path class="cls-7" d="m44.44,22.29s-.02-.12-.04-.36c-.02-.26-.05-.61-.08-1.05-.02-.23-.03-.49-.05-.77-.03-.28-.09-.59-.15-.92-.11-.66-.21-1.44-.47-2.27-.39-1.7-1.2-3.71-2.46-5.84-1.27-2.12-3.1-4.33-5.59-6.21-2.48-1.86-5.61-3.44-9.22-4.07-3.58-.61-7.63-.5-11.48.96-.98.31-1.9.8-2.85,1.25-.9.54-1.84,1.04-2.68,1.72-.89.61-1.66,1.37-2.48,2.11-.73.81-1.51,1.61-2.14,2.53-1.3,1.81-2.43,3.81-3.12,6.02-.71,2.19-1.09,4.52-1.13,6.89.03,2.37.41,4.7,1.12,6.89.69,2.21,1.82,4.21,3.12,6.02.63.92,1.4,1.72,2.14,2.53.81.73,1.59,1.5,2.48,2.11.84.68,1.78,1.18,2.68,1.72.95.45,1.87.94,2.85,1.25,3.85,1.47,7.9,1.58,11.48.96,3.61-.64,6.74-2.22,9.22-4.07,2.49-1.88,4.32-4.09,5.59-6.21,1.26-2.13,2.06-4.14,2.46-5.84.26-.84.36-1.61.47-2.27.05-.33.11-.64.15-.92.02-.28.04-.54.05-.77.03-.44.06-.78.08-1.05.02-.24.04-.36.04-.36s.01.12,0,.36c0,.26-.02.61-.03,1.05,0,.23-.02.49-.03.78-.02.28-.08.59-.12.93-.09.67-.18,1.45-.43,2.3-.37,1.72-1.15,3.77-2.4,5.94-1.26,2.16-3.1,4.42-5.62,6.35-2.51,1.91-5.68,3.54-9.36,4.21-3.65.65-7.78.55-11.72-.94-1-.32-1.95-.81-2.92-1.27-.92-.55-1.89-1.06-2.74-1.75-.91-.62-1.71-1.4-2.54-2.15-.75-.83-1.54-1.64-2.19-2.59-1.33-1.85-2.5-3.9-3.2-6.16-.73-2.24-1.12-4.63-1.15-7.05.03-2.42.42-4.81,1.16-7.05.71-2.26,1.87-4.31,3.2-6.15.65-.94,1.44-1.76,2.19-2.59.83-.75,1.63-1.53,2.54-2.15.86-.69,1.82-1.2,2.74-1.75.97-.46,1.91-.96,2.92-1.27C18.69-.17,22.82-.27,26.47.38c3.68.67,6.85,2.3,9.36,4.21,2.52,1.93,4.35,4.19,5.62,6.35,1.25,2.17,2.04,4.21,2.4,5.94.24.85.33,1.63.43,2.3.04.34.1.64.12.93,0,.28.02.54.03.78.01.44.02.79.03,1.05,0,.24,0,.36,0,.36Z"/>
    </g>
  </g>
  <g id="Layer_18" data-name="Layer 18">
    <g>
      <g>
        <ellipse class="cls-8" cx="9.51" cy="24.31" rx="2.74" ry="3.02" transform="translate(-6.33 3.56) rotate(-16)"/>
        <ellipse class="cls-12" cx="10.17" cy="24.31" rx="2.45" ry="4.1" transform="translate(-7.47 4.74) rotate(-19.34)"/>
        <ellipse class="cls-12" cx="15.99" cy="22.4" rx="2.86" ry="4.49" transform="translate(-6.51 6.56) rotate(-19.34)"/>
        <path class="cls-12" d="m16.88,33.5c-1.01-2.08-.69-5.41-.69-5.41,0,0-.08-.61,0-.86.08-.25,1.29-.6,1.29-.6l-2.88-8.51-6.03,2.42,1.92,7.64s.3,2.96.51,4.31c.21,1.35.5,3.24.78,3.96.27.72,1.54.8,2.21.88.67.08,3.22-1.16,3.48-1.54s.41-.21-.6-2.29Z"/>
        <ellipse class="cls-1" cx="15.99" cy="22.4" rx="2.86" ry="4.49" transform="translate(-6.51 6.56) rotate(-19.34)"/>
        <path class="cls-9" d="m14.46,18.68s2.97-1.76,4.5-3.5c1.25-1.42,2.96-3.81,2.96-3.81l7.87,16.53s-4.1-1.57-7.87-1.6c-3.6-.03-4.96-.01-4.96-.01l-2.5-7.6Z"/>
        <ellipse class="cls-9" cx="16.04" cy="22.38" rx="2.25" ry="4.04" transform="translate(-6.5 6.57) rotate(-19.34)"/>
        <g class="cls-14">
          <path class="cls-10" d="m14.24,23.89c2.78-1.68,5.78-3.03,9.12-2.61-.83-1.91-1.33-3.97-1.49-6.04-2.11,2.89-4.83,5.53-8.3,6.42,0,0,.14.88.28,1.28.14.4.39.97.39.97Z"/>
        </g>
        <g>
          <path class="cls-2" d="m14.96,35.15c-.05.02-.11.04-.16.05.05-.02.11-.04.16-.05Z"/>
          <path class="cls-2" d="m14.67,35.25c-.05.02-.11.04-.16.06.05-.02.11-.04.16-.06Z"/>
          <path class="cls-2" d="m14.38,35.35c-.06.02-.11.04-.17.06.06-.02.11-.04.17-.06Z"/>
          <path class="cls-2" d="m15.25,35.05c-.05.02-.11.03-.16.05.05-.02.11-.04.16-.05Z"/>
          <path class="cls-2" d="m15.94,34.84c-.09.03-.18.05-.27.08.09-.03.18-.05.27-.08Z"/>
          <path class="cls-2" d="m15.55,34.96c-.06.02-.12.04-.17.05.06-.02.12-.04.17-.05Z"/>
          <path class="cls-2" d="m13.41,35.74c-.06.03-.12.05-.18.08.06-.03.12-.05.18-.08Z"/>
          <path class="cls-2" d="m12.53,36.14c-.05.03-.11.05-.16.08.05-.03.11-.05.16-.08Z"/>
          <path class="cls-2" d="m14.09,35.46c-.07.03-.14.05-.21.08.07-.03.14-.05.21-.08Z"/>
          <path class="cls-2" d="m12.81,36c-.05.02-.11.05-.16.08.05-.03.11-.05.16-.08Z"/>
          <path class="cls-2" d="m12.25,36.28c-.06.03-.11.06-.16.09.05-.03.11-.06.16-.09Z"/>
          <path class="cls-2" d="m13.79,35.57c-.09.04-.19.08-.28.11.09-.04.19-.08.28-.11Z"/>
          <path class="cls-2" d="m13.11,35.87c-.05.02-.11.05-.16.07.05-.03.11-.05.16-.07Z"/>
          <path class="cls-3" d="m12.25,36.28s.08-.04.12-.06c.05-.03.11-.05.16-.08.04-.02.08-.04.13-.06.05-.03.11-.05.16-.08.04-.02.08-.04.13-.06.05-.03.11-.05.16-.07.04-.02.08-.04.12-.06.06-.03.12-.05.18-.08.04-.02.07-.03.11-.05.09-.04.19-.08.28-.11.03-.01.06-.02.09-.03.07-.03.14-.05.21-.08.04-.02.08-.03.12-.05.06-.02.11-.04.17-.06.04-.02.09-.03.13-.05.05-.02.11-.04.16-.06.04-.02.09-.03.13-.05.05-.02.11-.04.16-.05.04-.01.09-.03.13-.04.05-.02.11-.04.16-.05.04-.01.08-.03.13-.04.06-.02.12-.04.17-.05.04-.01.08-.02.11-.03.09-.03.18-.05.27-.08,0,0,0,0,0,0-.07-.17-.67-1.4-1.33-3.24-.71-1.97-.26-4.75-.42-4.88-.16-.13-3.69,1.46-3.69,1.46h0s.3,2.96.51,4.31c.21,1.35.5,3.24.78,3.96,0,.02.02.04.03.07.05-.03.1-.06.15-.09.04-.02.07-.04.11-.06.05-.03.11-.06.16-.09Z"/>
          <g class="cls-14">
            <path class="cls-5" d="m15.94,34.84s0,0,0,0c-.09.03-.18.05-.27.08-.04.01-.08.02-.11.03-.06.02-.12.04-.17.05-.04.01-.08.03-.13.04-.05.02-.11.03-.16.05-.04.01-.09.03-.13.04-.05.02-.11.04-.16.05-.04.02-.09.03-.13.05-.05.02-.11.04-.16.06-.04.02-.09.03-.13.05-.06.02-.11.04-.17.06-.04.02-.08.03-.12.05-.07.03-.14.05-.21.08-.03.01-.06.02-.09.03-.09.04-.19.08-.28.11-.04.02-.07.03-.11.05-.06.03-.12.05-.18.08-.04.02-.08.04-.12.06-.05.02-.11.05-.16.07-.04.02-.09.04-.13.06-.05.02-.11.05-.16.08-.04.02-.08.04-.13.06-.05.03-.11.05-.16.08-.04.02-.08.04-.12.06-.06.03-.11.06-.16.09-.04.02-.08.04-.11.06-.05.03-.1.06-.15.09.32.65,1.53.74,2.18.82.67.08,3.22-1.16,3.48-1.54.14-.2.25-.25.16-.57-.56-.14-1.07-.26-1.69-.39,0,0,0,0,0,0Z"/>
          </g>
        </g>
        <path class="cls-11" d="m15.08,27.44s-.24.02-.3.09c-.06.06-.15,3.11.15,3.61.02.03-.02.02.15.13.17.11.98.45,1.22.29.25-.16.83-.68.79-.9-.04-.22-.26-.38-.52-.88-.23-.45-.32-1.89-.32-1.89-.09-.04-1.03-.47-1.17-.45Z"/>
        <g>
          <path class="cls-1" d="m17.1,30.68s0,0,0,0c-.04-.22-.26-.38-.52-.88-.23-.45-.32-1.89-.32-1.89-.08-.04-.88-.4-1.12-.45.01.08.19,1.02.34,1.71.14.62.42,1.05.5,1.15.02-.01.03-.02.03-.01.05.01.79.21,1.09.38Z"/>
          <path class="cls-4" d="m16.01,30.3s-.02,0-.03.01c-.16.1-.8.74-.97.91.02.01.05.03.08.05.17.11.98.45,1.22.29.21-.14.67-.54.77-.79.01-.04.02-.07.02-.1-.3-.17-1.04-.37-1.09-.38Z"/>
        </g>
        <path class="cls-7" d="m17.43,35.22s-.02,0-.06,0c-.04,0-.09-.01-.16-.03-.14-.03-.34-.08-.59-.16-.12-.04-.26-.07-.41-.1-.15-.03-.31-.05-.47-.02-.33.06-.67.23-1.04.35-.74.26-1.39.54-1.85.77-.23.11-.41.21-.54.28-.06.03-.11.06-.15.08-.03.02-.05.03-.05.03s.02-.01.05-.03c.03-.02.08-.05.14-.09.12-.07.31-.17.53-.29.46-.24,1.11-.53,1.85-.78.37-.12.71-.29,1.05-.35.08-.01.17-.02.25-.01.08,0,.16.02.23.03.15.03.28.07.41.11.25.08.44.14.58.17.07.02.12.03.16.03.04,0,.06.01.06.01Z"/>
        <path class="cls-7" d="m16.02,30.31s-.05.05-.15.13c-.09.08-.22.19-.36.32-.14.13-.26.24-.35.33-.09.09-.14.14-.15.13,0,0,.04-.06.13-.15.08-.09.2-.21.34-.34.14-.13.27-.23.37-.31.1-.07.16-.12.17-.11Z"/>
        <path class="cls-7" d="m15.84,30.1s-.02-.03-.06-.08c-.03-.05-.08-.14-.13-.24-.1-.21-.18-.52-.25-.86-.07-.34-.13-.65-.16-.88-.02-.11-.02-.21-.03-.27,0-.06,0-.1,0-.1,0,0,0,.03.02.1.01.07.03.16.04.27.04.23.1.53.17.87.07.34.15.65.23.86.08.21.16.33.16.33Z"/>
        <path class="cls-7" d="m17.02,30.64s-.23-.09-.51-.19c-.28-.09-.52-.14-.52-.15,0,0,.06,0,.16.02.1.02.23.05.37.1.14.05.27.1.36.15.09.04.14.08.14.08Z"/>
        <g class="cls-14">
          <path class="cls-10" d="m12.54,21.2c-.09.5-.05,1.02.12,1.49,0,0-3.05.97-4.51,1.61-.24-.39-.33-.86-.27-1.32l4.66-1.79Z"/>
        </g>
        <path class="cls-7" d="m14.5,18.16s0,0-.03.01c-.02,0-.05.02-.08.03-.07.03-.17.08-.3.16-.24.16-.56.47-.79.95-.23.47-.38,1.1-.38,1.8-.01.7.12,1.47.38,2.23.27.76.65,1.44,1.09,1.98.44.54.94.94,1.42,1.16.48.23.92.27,1.21.25.15-.01.26-.04.33-.06.04-.01.06-.02.09-.02.02,0,.03,0,.03,0s0,0-.03.01c-.02,0-.05.02-.08.03-.07.02-.19.05-.33.07-.29.03-.74,0-1.22-.24-.48-.22-.99-.62-1.44-1.17-.45-.54-.83-1.22-1.1-1.99-.27-.76-.39-1.54-.38-2.24,0-.7.16-1.33.39-1.81.23-.48.56-.79.81-.95.13-.08.23-.13.3-.16.04-.01.06-.02.08-.03.02,0,.03,0,.03,0Z"/>
        <path class="cls-7" d="m16.21,27.27s-.03,0-.08,0c-.05,0-.12,0-.21-.02-.18-.02-.43-.07-.69-.14-.27-.07-.5-.16-.67-.23-.08-.03-.15-.06-.2-.09-.05-.02-.07-.04-.07-.04,0,0,.11.04.27.1.17.06.4.14.67.21.26.07.51.12.69.15.18.03.29.04.29.05Z"/>
        <path class="cls-7" d="m13.97,26.71s-.77.35-1.73.76c-.96.41-1.74.73-1.75.72,0-.01.77-.35,1.73-.76.96-.41,1.74-.73,1.75-.72Z"/>
        <path class="cls-7" d="m21.91,11.37s0,0-.01.02c-.01.02-.03.04-.04.07-.04.06-.1.14-.18.25-.16.22-.38.53-.67.91-.28.38-.63.84-1.02,1.33-.2.25-.4.51-.62.77-.11.13-.22.27-.34.4-.12.13-.24.26-.36.4-.51.52-1.05.97-1.54,1.35-.5.39-.96.71-1.36.98-.4.27-.72.47-.95.61-.11.07-.2.12-.26.16-.03.02-.05.03-.07.04-.02,0-.02.01-.02.01,0,0,0,0,.02-.02.02-.01.04-.03.07-.04.06-.04.15-.09.26-.16.22-.14.55-.35.94-.62.39-.27.86-.6,1.35-.99.5-.39,1.03-.83,1.54-1.35.12-.13.25-.26.36-.4.12-.13.23-.27.34-.4.22-.26.43-.52.62-.77.39-.49.74-.95,1.02-1.33.28-.38.52-.69.68-.9.08-.11.14-.19.18-.25.02-.03.04-.05.05-.06.01-.01.02-.02.02-.02Z"/>
        <path class="cls-7" d="m16.96,26.28s0,0,.02,0c.02,0,.04,0,.07,0,.07,0,.16,0,.28,0,.25,0,.6,0,1.03,0,.87,0,2.07,0,3.39,0,1.33,0,2.52.18,3.37.34.43.08.77.16,1,.21.12.03.21.05.27.07.03,0,.05.01.07.02.02,0,.02,0,.02,0,0,0,0,0-.02,0-.02,0-.04,0-.07-.01-.07-.01-.16-.03-.27-.06-.24-.05-.58-.12-1.01-.2-.85-.15-2.04-.33-3.36-.32-1.32,0-2.52,0-3.39-.01-.43,0-.78,0-1.03,0-.12,0-.21,0-.28,0-.03,0-.05,0-.07,0-.02,0-.02,0-.02,0Z"/>
      </g>
      <path class="cls-1" d="m32.28,16.8l-10.51-5.27-.64.89c-.28,2.17,0,4.9.93,7.72.89,2.72,2.22,5.03,3.67,6.61l2.1.51,4.45-10.47Z"/>
      <g>
        <ellipse class="cls-12" cx="27.56" cy="18.27" rx="5.38" ry="10.94" transform="translate(-4.32 9.5) rotate(-18.16)"/>
        <ellipse class="cls-9" cx="27.72" cy="18.3" rx="3.6" ry="9.01" transform="translate(-4.32 9.55) rotate(-18.16)"/>
        <path class="cls-1" d="m32.07,16.99c-1.6-4.86-4.58-8.25-6.66-7.57-.24.08-.46.21-.66.39.05-.02.11-.05.16-.06,1.89-.62,4.67,2.71,6.23,7.44,1.55,4.73,1.28,9.06-.61,9.68-.28.09-.59.1-.9.02.55.25,1.08.31,1.56.15,2.08-.68,2.47-5.18.88-10.04Z"/>
        <path class="cls-12" d="m23.75,17.62l4.92-1.06.89,2.72-4.47,2.37s-1.26-2.79-1.34-4.02Z"/>
        <path class="cls-13" d="m25.12,17.32c-.08.03-.99,1.63-.36,2.55.63.92,1.3,1.25,1.3,1.25l-.91.49-.95-2.52-.45-1.48,1.37-.3Z"/>
        <path class="cls-12" d="m29.8,17.69c.25.75.14,1.46-.24,1.59-.38.12-.89-.38-1.13-1.13-.25-.75-.14-1.46.24-1.59.38-.12.89.38,1.13,1.13Z"/>
        <path class="cls-7" d="m29.8,17.69s-.01-.02-.03-.07c-.02-.04-.04-.11-.08-.19-.04-.08-.08-.18-.15-.28-.06-.11-.15-.22-.26-.33-.11-.11-.25-.22-.42-.26-.09-.02-.18,0-.26.04-.08.05-.14.13-.19.22-.09.18-.11.41-.1.63.01.22.06.45.13.68.08.23.18.44.3.63.13.18.27.35.45.45.09.05.19.08.28.07.09,0,.18-.06.24-.12.12-.13.17-.31.19-.46.02-.15.02-.3,0-.42-.01-.12-.03-.23-.05-.32-.02-.09-.03-.15-.05-.2-.01-.04-.02-.07-.02-.07,0,0,0,.02.02.07.02.04.03.11.06.2.02.09.04.19.05.32.01.12.02.27,0,.43-.02.16-.06.33-.19.48-.06.07-.16.13-.26.14-.1.01-.21-.02-.3-.07-.19-.1-.34-.27-.47-.46-.13-.19-.23-.41-.3-.63-.07-.23-.12-.46-.13-.69,0-.23.01-.45.11-.65.04-.1.11-.18.2-.23.09-.05.2-.06.29-.04.19.04.33.16.44.27.11.12.19.23.25.34.06.11.11.21.14.29.03.08.06.15.07.19.01.04.02.07.02.07Z"/>
        <ellipse class="cls-1" cx="29.12" cy="17.91" rx=".41" ry=".82" transform="translate(-4.13 9.97) rotate(-18.16)"/>
        <path class="cls-7" d="m24.92,9.74s-.02,0-.05.02c-.03.02-.08.03-.14.06-.12.06-.3.17-.47.37-.36.38-.68,1.1-.82,2.02-.07.46-.11.97-.11,1.53,0,.55.04,1.14.11,1.75.15,1.23.45,2.56.89,3.92.45,1.36,1,2.61,1.6,3.69.3.54.62,1.04.95,1.48.33.44.66.83.99,1.16.66.66,1.34,1.05,1.86,1.14.26.05.46.04.6.01.07-.01.12-.03.15-.03.03,0,.05-.01.05-.01,0,0-.07.02-.2.05-.14.02-.34.04-.6,0-.26-.05-.56-.16-.89-.35-.32-.19-.66-.45-.99-.78-.34-.33-.67-.72-1-1.16-.33-.45-.65-.94-.95-1.48-.61-1.08-1.16-2.34-1.61-3.7-.44-1.36-.74-2.7-.89-3.93-.07-.62-.11-1.21-.11-1.76,0-.55.04-1.07.12-1.53.07-.46.19-.88.33-1.22.15-.34.32-.62.5-.81.18-.19.36-.3.48-.36.13-.06.2-.08.2-.08Z"/>
        <path class="cls-13" d="m24.67,20.45l4.04-1.71s.31.53.71.55l-4.27,2.33-.48-1.17Z"/>
        <path class="cls-6" d="m21.99,13.62s-.21.94,0,1.3h.75v-1.3h-.75Z"/>
        <g class="cls-14">
          <path class="cls-10" d="m25.36,7.76c-.61.11-1.18.39-1.67.83-1.24,1.05-1.75,2.88-1.74,4.48.25-.06.6-.13.82,0,.06-.81.14-1.62.43-2.38.29-.75.82-1.45,1.57-1.75.61-.25,1.3-.21,1.94-.03,1.42.41,2.52,1.48,3.5,2.61-1.5-2.18-3.26-3.57-4.85-3.75Z"/>
        </g>
        <path class="cls-10" d="m32.73,25.97s0,.02-.02.06c-.02.04-.04.09-.07.16-.07.13-.18.32-.35.53-.17.21-.4.44-.69.64-.15.1-.31.19-.49.26-.18.07-.38.12-.58.15-.41.05-.81-.05-1.13-.2-.33-.15-.59-.33-.8-.49-.21-.16-.38-.31-.49-.41-.06-.05-.1-.09-.13-.12-.03-.03-.04-.04-.04-.04,0,0,.02.01.05.04.03.03.08.07.13.11.11.1.28.24.49.4.21.16.48.34.8.48.32.14.71.24,1.11.19.2-.03.39-.08.57-.15.18-.07.34-.16.49-.25.29-.19.52-.42.69-.62.17-.21.28-.39.36-.52.04-.06.06-.12.08-.15.02-.03.03-.05.03-.05Z"/>
        <g class="cls-14">
          <path class="cls-5" d="m26.47,22.98c-1.24-2.63-2.06-5.46-2.42-8.35-.12-.96-.18-1.93-.04-2.89.1-.66.31-1.32.64-1.9-1.68.88-1.88,5.05-.39,9.59,1.55,4.73,4.34,8.06,6.23,7.44.07-.02.13-.05.19-.08-.96-.05-1.86-.55-2.54-1.23-.73-.73-1.23-1.65-1.67-2.58Z"/>
        </g>
      </g>
    </g>
    <polygon class="cls-12" points="33.01 16.93 37.95 16.04 37.19 14.96 39.9 13.82 35.58 14.34 36.36 15.53 33.01 16.93"/>
    <polygon class="cls-12" points="32.55 13.75 35.69 11.24 34.47 10.71 35.56 8.73 33.01 10.87 34.06 11.37 32.55 13.75"/>
    <polygon class="cls-12" points="34.19 19.6 37.34 22.11 37.42 21.17 39.52 22.03 36.81 19.84 36.72 20.84 34.19 19.6"/>
  </g>
</svg>