<?xml version="1.0" encoding="UTF-8"?>
<svg id="Layer_2" data-name="Layer 2" xmlns="http://www.w3.org/2000/svg" viewBox="0 0 211.11 157.08">
  <defs>
    <style>
      .cls-1 {
        fill: #555;
        stroke-width: 0px;
      }
    </style>
  </defs>
  <path class="cls-1" d="m90.87,80.19c2.6-11.04,5.15-21.88,7.71-32.73,1.01-4.28,2.01-8.56,3.05-12.84.67-2.74,1.39-3.32,4.18-3.37,1.98-.04,3.97-.04,5.94.05,2.12.09,2.88.76,3.41,2.86.73,2.91,1.39,5.84,2.08,8.76,2.94,12.44,5.87,24.89,8.81,37.33.02.09.06.18.16.52.38-1.42.72-2.62,1.03-3.83,3.58-13.9,7.16-27.79,10.74-41.69.89-3.46,1.6-4,5.21-4,1.71,0,3.42-.01,5.13,0,1.67.02,2.35.69,1.96,2.29-.66,2.71-1.49,5.38-2.32,8.05-4.89,15.72-9.8,31.42-14.71,47.14-1.07,3.44-1.65,3.87-5.24,3.86-1.95,0-3.89-.04-5.84-.07-1.51-.03-2.45-.86-2.82-2.24-.69-2.57-1.29-5.16-1.91-7.74-2.96-12.3-5.91-24.6-8.86-36.9-.06-.23-.14-.45-.29-.91-.68,2.82-1.3,5.42-1.92,8.02-2.88,12.04-5.75,24.07-8.63,36.11-.1.4-.22.79-.35,1.17-.64,1.85-1.36,2.42-3.3,2.45-2.25.04-4.51-.01-6.77.02-1.74.03-2.86-.8-3.38-2.41-.94-2.92-1.85-5.85-2.74-8.78-4.57-15.03-9.14-30.06-13.7-45.1-.31-1.04-.6-2.11-.71-3.18-.13-1.17.43-1.75,1.6-1.76,2.56-.02,5.12.02,7.69.05,1.31.02,2.25.67,2.62,1.91.87,2.98,1.69,5.96,2.45,8.97,3.16,12.35,6.28,24.71,9.43,37.07.06.25.16.5.31.93Z"/>
  <path class="cls-1" d="m103.31,153.63c-34.51-.7-65.57-11.29-92.87-32.57-2.61-2.04-5.08-4.26-7.61-6.4-.23-.2-.46-.42-.64-.66-.53-.72-.72-1.51-.18-2.28.54-.77,1.35-.92,2.19-.59.66.26,1.29.61,1.91.96,18.57,10.55,38.35,17.86,59.24,22.22,13.44,2.81,27.03,4.28,40.76,4.38,8.45.06,16.86-.44,25.24-1.47,18.29-2.23,35.96-6.83,53.01-13.79.73-.3,1.44-.62,2.18-.88,1.72-.6,3.47-.03,4.21,1.33.72,1.32.3,2.91-1.27,4-2.89,2-5.78,4.02-8.8,5.81-13.38,7.95-27.85,13.11-43.02,16.39-11.32,2.44-22.77,3.7-34.37,3.55Z"/>
  <path class="cls-1" d="m49.52,84.57c-2.55,2.93-5.33,5.33-8.72,6.93-6.01,2.84-12.26,3.45-18.64,1.57-6.72-1.98-11.26-7.86-11.76-14.85-.31-4.31.14-8.48,2.47-12.23,3.1-4.99,7.76-7.75,13.38-8.99,5.88-1.3,11.75-.74,17.6.31,1.61.29,3.2.64,4.91.98-.06-3.88.31-7.71-.75-11.45-1.28-4.55-4.13-6.78-9.28-7.48-6.96-.95-13.49.62-19.89,3.14-.79.31-1.6.6-2.42.8-1.17.29-1.88-.1-1.94-1.27-.09-1.9-.06-3.82.06-5.72.07-1.05.95-1.68,1.84-2.04,2.55-1.05,5.08-2.18,7.72-2.95,7.18-2.1,14.46-2.39,21.76-.6,8.11,1.98,12.48,7.4,13.74,15.46.34,2.18.45,4.42.47,6.63.06,6.87,0,13.74.04,20.61.01,1.73.04,3.52.48,5.18.6,2.29,1.49,4.51,2.45,6.68.99,2.24.86,3.06-1.2,4.44-1.22.82-2.43,1.64-3.67,2.44-1.7,1.1-2.99,1.03-4.23-.55-1.3-1.65-2.38-3.48-3.52-5.25-.33-.51-.55-1.08-.89-1.76Zm-.34-18.62c-3.11-.46-5.91-.99-8.75-1.27-3.5-.34-7.02-.44-10.48.5-3.95,1.08-6.65,3.44-7.35,7.61-.24,1.46-.22,3-.08,4.48.36,3.87,2.84,6.74,6.65,7.42,5.38.96,10.37-.14,14.76-3.5,2.14-1.64,3.81-3.72,4.27-6.42.49-2.84.64-5.73.96-8.83Z"/>
  <path class="cls-1" d="m176.1,94.43c-5.53-.07-10.85-1.13-16.03-3.01-.22-.08-.44-.19-.66-.27-2.92-1.08-4.62-2.94-4.15-6.27.12-.87,0-1.78.11-2.66.12-1.02.78-1.53,1.79-1.35.73.13,1.46.36,2.14.66,6.05,2.66,12.38,3.79,18.97,3.33,2.78-.19,5.48-.76,7.82-2.42,4.62-3.28,4.41-9.96-.61-12.54-3.07-1.57-6.47-2.48-9.73-3.67-3.42-1.25-7.01-2.15-10.24-3.76-6.4-3.19-9.65-8.58-9.49-15.8.11-5.08,2.53-9.05,6.43-12.17,3.95-3.16,8.56-4.6,13.53-4.96,5.55-.4,10.96.41,16.23,2.21.51.18,1.02.39,1.52.6,2.54,1.05,3.99,2.78,3.66,5.69-.11.98-.04,1.98-.16,2.96-.12.92-.75,1.41-1.67,1.23-.79-.15-1.58-.42-2.32-.74-5.79-2.52-11.8-3.27-18.03-2.33-1.04.16-2.07.46-3.05.84-2.66,1.03-4.34,2.9-4.65,5.82-.33,3.1.87,5.44,3.52,7.07,2.7,1.66,5.73,2.5,8.7,3.5,3.81,1.28,7.7,2.38,11.38,3.96,12.49,5.39,12.19,21.02,3.48,28.21-4.01,3.32-8.72,4.84-13.77,5.52-1.55.21-3.13.23-4.7.34Z"/>
  <path class="cls-1" d="m188.35,114.76c-5.01.47-10.07.95-15.13,1.42-.44.04-.89.1-1.33.09-1.32-.03-1.84-.98-1.07-2.08.34-.49.83-.9,1.33-1.24,4.4-3,9.34-4.6,14.55-5.42,5.88-.93,11.76-.97,17.61.33.8.18,1.57.45,2.35.68,1.83.54,2.57,1.83,2.67,3.67.24,4.43-.6,8.7-1.88,12.9-2.07,6.78-5.17,12.99-10.31,18.02-.63.62-1.28,1.29-2.05,1.67-.55.27-1.44.35-1.96.08-.71-.36-.42-1.19-.18-1.85,1.72-4.78,3.59-9.5,5.11-14.34.85-2.71,1.3-5.58,1.57-8.41.26-2.79-.79-4.05-3.57-4.59-2.5-.48-5.06-.62-7.69-.91Z"/>
</svg>