<?xml version="1.0" encoding="UTF-8"?>
<svg xmlns="http://www.w3.org/2000/svg" xmlns:xlink="http://www.w3.org/1999/xlink" viewBox="0 0 67.65 67.43">
  <defs>
    <style>
      .cls-1 {
        mask: url(#mask-11);
      }

      .cls-2 {
        mask: url(#mask-10);
      }

      .cls-3 {
        fill: url(#linear-gradient-2);
      }

      .cls-3, .cls-4, .cls-5, .cls-6, .cls-7, .cls-8, .cls-9, .cls-10, .cls-11, .cls-12 {
        stroke-width: 0px;
      }

      .cls-3, .cls-4, .cls-5, .cls-7, .cls-9 {
        mix-blend-mode: multiply;
      }

      .cls-4 {
        fill: url(#linear-gradient-4);
      }

      .cls-5 {
        fill: url(#linear-gradient-3);
      }

      .cls-13 {
        filter: url(#luminosity-noclip-6);
      }

      .cls-14 {
        filter: url(#luminosity-noclip-8);
      }

      .cls-15 {
        filter: url(#luminosity-noclip-2);
      }

      .cls-16 {
        filter: url(#luminosity-noclip-4);
      }

      .cls-17 {
        clip-path: url(#clippath);
      }

      .cls-6 {
        fill: none;
      }

      .cls-18 {
        mask: url(#mask);
      }

      .cls-7 {
        fill: url(#linear-gradient);
      }

      .cls-19 {
        filter: url(#luminosity-noclip-10);
      }

      .cls-8 {
        fill: url(#linear-gradient-5);
      }

      .cls-8, .cls-20 {
        mix-blend-mode: screen;
      }

      .cls-9 {
        fill: url(#radial-gradient);
        opacity: .2;
      }

      .cls-21 {
        isolation: isolate;
      }

      .cls-22 {
        mask: url(#mask-3);
      }

      .cls-23 {
        mask: url(#mask-2);
      }

      .cls-24 {
        mask: url(#mask-5);
      }

      .cls-25 {
        mask: url(#mask-4);
      }

      .cls-26 {
        mask: url(#mask-1);
      }

      .cls-27 {
        mask: url(#mask-7);
      }

      .cls-28 {
        mask: url(#mask-6);
      }

      .cls-29 {
        mask: url(#mask-8);
      }

      .cls-30 {
        mask: url(#mask-9);
      }

      .cls-10 {
        fill: #2057a7;
      }

      .cls-11 {
        fill: #d81f2a;
      }

      .cls-12 {
        fill: #fff;
      }
    </style>
    <clipPath id="clippath">
      <circle class="cls-6" cx="33.83" cy="33.71" r="33.71" transform="translate(-4.82 61.77) rotate(-80.88)"/>
    </clipPath>
    <radialGradient id="radial-gradient" cx="33.28" cy="31.51" fx="33.28" fy="31.51" r="33.93" gradientTransform="translate(.65 2.41)" gradientUnits="userSpaceOnUse">
      <stop offset=".88" stop-color="#fff"/>
      <stop offset=".89" stop-color="#f5f5f5"/>
      <stop offset=".91" stop-color="#dbdada"/>
      <stop offset=".93" stop-color="#b0aeaf"/>
      <stop offset=".96" stop-color="#757273"/>
      <stop offset="1" stop-color="#2a2627"/>
      <stop offset="1" stop-color="#231f20"/>
    </radialGradient>
    <filter id="luminosity-noclip" x="5.21" y="-8227.26" width="56.84" height="32766" color-interpolation-filters="sRGB" filterUnits="userSpaceOnUse">
      <feFlood flood-color="#fff" result="bg"/>
      <feBlend in="SourceGraphic" in2="bg"/>
    </filter>
    <mask id="mask-1" x="5.21" y="-8227.26" width="56.84" height="32766" maskUnits="userSpaceOnUse"/>
    <linearGradient id="linear-gradient" x1="227.01" y1="2.63" x2="227.01" y2="42.35" gradientTransform="translate(260.64) rotate(-180) scale(1 -1)" gradientUnits="userSpaceOnUse">
      <stop offset="0" stop-color="#fff"/>
      <stop offset=".2" stop-color="#c8c8c8"/>
      <stop offset=".49" stop-color="#7e7e7e"/>
      <stop offset=".73" stop-color="#484848"/>
      <stop offset=".9" stop-color="#262626"/>
      <stop offset="1" stop-color="#1a1a1a"/>
    </linearGradient>
    <mask id="mask" x="5.21" y="1.66" width="56.84" height="41.57" maskUnits="userSpaceOnUse">
      <g class="cls-26">
        <path class="cls-7" d="m33.63,1.66c13.05,0,24.14,7.76,28.42,18.62-4.28,10.86-15.37,22.95-28.42,22.95S9.49,31.14,5.21,20.28C9.49,9.42,20.58,1.66,33.63,1.66Z"/>
      </g>
    </mask>
    <filter id="luminosity-noclip-2" x="5.21" y="1.66" width="56.84" height="41.57" color-interpolation-filters="sRGB" filterUnits="userSpaceOnUse">
      <feFlood flood-color="#fff" result="bg"/>
      <feBlend in="SourceGraphic" in2="bg"/>
    </filter>
    <filter id="luminosity-noclip-3" x="5.21" y="-8227.26" width="56.84" height="32766" color-interpolation-filters="sRGB" filterUnits="userSpaceOnUse">
      <feFlood flood-color="#fff" result="bg"/>
      <feBlend in="SourceGraphic" in2="bg"/>
    </filter>
    <mask id="mask-3" x="5.21" y="-8227.26" width="56.84" height="32766" maskUnits="userSpaceOnUse"/>
    <linearGradient id="linear-gradient-2" x1="33.63" y1="2.14" x2="33.63" y2="42.98" gradientUnits="userSpaceOnUse">
      <stop offset="0" stop-color="#fff"/>
      <stop offset=".09" stop-color="#f0f0f0"/>
      <stop offset=".27" stop-color="#c9c9c9"/>
      <stop offset=".52" stop-color="#8a8a8a"/>
      <stop offset=".83" stop-color="#343434"/>
      <stop offset="1" stop-color="#000"/>
    </linearGradient>
    <mask id="mask-2" x="5.21" y="1.66" width="56.84" height="41.57" maskUnits="userSpaceOnUse">
      <g class="cls-15">
        <g class="cls-22">
          <path class="cls-3" d="m33.63,1.66c13.05,0,24.14,7.76,28.42,18.62-4.28,10.86-15.37,22.95-28.42,22.95S9.49,31.14,5.21,20.28C9.49,9.42,20.58,1.66,33.63,1.66Z"/>
        </g>
      </g>
    </mask>
    <filter id="luminosity-noclip-4" x="5.21" y="1.66" width="56.84" height="41.57" color-interpolation-filters="sRGB" filterUnits="userSpaceOnUse">
      <feFlood flood-color="#fff" result="bg"/>
      <feBlend in="SourceGraphic" in2="bg"/>
    </filter>
    <filter id="luminosity-noclip-5" x="5.21" y="-8227.26" width="56.84" height="32766" color-interpolation-filters="sRGB" filterUnits="userSpaceOnUse">
      <feFlood flood-color="#fff" result="bg"/>
      <feBlend in="SourceGraphic" in2="bg"/>
    </filter>
    <mask id="mask-5" x="5.21" y="-8227.26" width="56.84" height="32766" maskUnits="userSpaceOnUse"/>
    <mask id="mask-4" x="5.21" y="1.66" width="56.84" height="41.57" maskUnits="userSpaceOnUse">
      <g class="cls-16">
        <g class="cls-24">
          <path class="cls-3" d="m33.63,1.66c13.05,0,24.14,7.76,28.42,18.62-4.28,10.86-15.37,22.95-28.42,22.95S9.49,31.14,5.21,20.28C9.49,9.42,20.58,1.66,33.63,1.66Z"/>
        </g>
      </g>
    </mask>
    <filter id="luminosity-noclip-6" x="5.21" y="1.66" width="56.84" height="41.57" color-interpolation-filters="sRGB" filterUnits="userSpaceOnUse">
      <feFlood flood-color="#fff" result="bg"/>
      <feBlend in="SourceGraphic" in2="bg"/>
    </filter>
    <filter id="luminosity-noclip-7" x="5.21" y="-8227.26" width="56.84" height="32766" color-interpolation-filters="sRGB" filterUnits="userSpaceOnUse">
      <feFlood flood-color="#fff" result="bg"/>
      <feBlend in="SourceGraphic" in2="bg"/>
    </filter>
    <mask id="mask-7" x="5.21" y="-8227.26" width="56.84" height="32766" maskUnits="userSpaceOnUse"/>
    <mask id="mask-6" x="5.21" y="1.66" width="56.84" height="41.57" maskUnits="userSpaceOnUse">
      <g class="cls-13">
        <g class="cls-27">
          <path class="cls-3" d="m33.63,1.66c13.05,0,24.14,7.76,28.42,18.62-4.28,10.86-15.37,22.95-28.42,22.95S9.49,31.14,5.21,20.28C9.49,9.42,20.58,1.66,33.63,1.66Z"/>
        </g>
      </g>
    </mask>
    <filter id="luminosity-noclip-8" x="6.34" y="1.66" width="54.55" height="27.11" color-interpolation-filters="sRGB" filterUnits="userSpaceOnUse">
      <feFlood flood-color="#fff" result="bg"/>
      <feBlend in="SourceGraphic" in2="bg"/>
    </filter>
    <filter id="luminosity-noclip-9" x="6.37" y="-8227.26" width="54.52" height="32766" color-interpolation-filters="sRGB" filterUnits="userSpaceOnUse">
      <feFlood flood-color="#fff" result="bg"/>
      <feBlend in="SourceGraphic" in2="bg"/>
    </filter>
    <mask id="mask-9" x="6.37" y="-8227.26" width="54.52" height="32766" maskUnits="userSpaceOnUse"/>
    <linearGradient id="linear-gradient-3" x1="33.63" y1="1.97" x2="33.63" y2="28.48" gradientUnits="userSpaceOnUse">
      <stop offset="0" stop-color="#fff"/>
      <stop offset=".12" stop-color="#fafafa"/>
      <stop offset=".26" stop-color="#eee"/>
      <stop offset=".39" stop-color="#d8d8d8"/>
      <stop offset=".53" stop-color="#bbb"/>
      <stop offset=".66" stop-color="#959595"/>
      <stop offset=".8" stop-color="#666"/>
      <stop offset=".94" stop-color="#303030"/>
      <stop offset=".99" stop-color="#1a1a1a"/>
    </linearGradient>
    <mask id="mask-8" x="6.34" y="1.66" width="54.55" height="27.11" maskUnits="userSpaceOnUse">
      <g class="cls-14">
        <g class="cls-30">
          <path class="cls-5" d="m33.63,1.66c10.55,0,19.81,5.07,25.24,12.75,2.39,3.38,2.78,7.78.53,11.25-5.34,8.24-14.87-3.21-25.77-3.21s-20.43,11.45-25.77,3.21c-2.25-3.47-1.86-7.87.53-11.25C13.81,6.73,23.08,1.66,33.63,1.66Z"/>
        </g>
      </g>
    </mask>
    <filter id="luminosity-noclip-10" x="6.34" y="1.66" width="54.4" height="27.11" color-interpolation-filters="sRGB" filterUnits="userSpaceOnUse">
      <feFlood flood-color="#fff" result="bg"/>
      <feBlend in="SourceGraphic" in2="bg"/>
    </filter>
    <filter id="luminosity-noclip-11" x="6.34" y="-8227.26" width="54.4" height="32766" color-interpolation-filters="sRGB" filterUnits="userSpaceOnUse">
      <feFlood flood-color="#fff" result="bg"/>
      <feBlend in="SourceGraphic" in2="bg"/>
    </filter>
    <mask id="mask-11" x="6.34" y="-8227.26" width="54.4" height="32766" maskUnits="userSpaceOnUse"/>
    <linearGradient id="linear-gradient-4" x1="33.54" y1="1.97" x2="33.54" y2="28.61" gradientUnits="userSpaceOnUse">
      <stop offset="0" stop-color="#fff"/>
      <stop offset=".13" stop-color="#fafafa"/>
      <stop offset=".27" stop-color="#eee"/>
      <stop offset=".41" stop-color="#d8d8d8"/>
      <stop offset=".56" stop-color="#bbb"/>
      <stop offset=".71" stop-color="#959595"/>
      <stop offset=".85" stop-color="#676767"/>
      <stop offset=".99" stop-color="#333"/>
    </linearGradient>
    <mask id="mask-10" x="6.34" y="1.66" width="54.4" height="27.11" maskUnits="userSpaceOnUse">
      <g class="cls-19">
        <g class="cls-1">
          <path class="cls-4" d="m33.63,1.66c10.55,0,19.81,5.07,25.24,12.74,3.62,5.12,2.09,14.49-5.4,14.19-6.94-.29-12.58-6.15-19.84-6.15-5.88,0-11.37,4.89-17.12,6.09-8.52,1.78-13.07-7.12-8.12-14.13C13.81,6.73,23.08,1.66,33.63,1.66Z"/>
        </g>
      </g>
    </mask>
    <linearGradient id="linear-gradient-5" x1="33.54" y1="1.97" x2="33.54" y2="28.61" gradientUnits="userSpaceOnUse">
      <stop offset="0" stop-color="#fff"/>
      <stop offset=".99" stop-color="#fff"/>
    </linearGradient>
  </defs>
  <g class="cls-21">
    <g id="Layer_2" data-name="Layer 2">
      <g id="Layer_1-2" data-name="Layer 1">
        <g>
          <g class="cls-17">
            <g>
              <rect class="cls-10" x="-3.26" y="-3.37" width="24.72" height="74.17"/>
              <rect class="cls-12" x="21.47" y="-3.37" width="24.72" height="74.17"/>
              <rect class="cls-11" x="46.19" y="-3.37" width="24.72" height="74.17"/>
            </g>
          </g>
          <g>
            <path class="cls-9" d="m45.81,2.2C42.08.79,38.05.01,33.83.01s-8.22.77-11.93,2.16C9.1,6.98,0,19.29,0,33.72s9.1,26.74,21.89,31.54c3.71,1.4,7.73,2.16,11.93,2.16s8.26-.78,11.98-2.18c12.77-4.82,21.84-17.11,21.84-31.52S58.58,7.02,45.81,2.2Z"/>
            <g class="cls-18">
              <g class="cls-20">
                <g class="cls-23">
                  <g class="cls-25">
                    <g class="cls-28">
                      <g class="cls-29">
                        <g class="cls-2">
                          <path class="cls-8" d="m33.63,1.66c10.55,0,19.81,5.07,25.24,12.74,3.62,5.12,2.09,14.49-5.4,14.19-6.94-.29-12.58-6.15-19.84-6.15-5.88,0-11.37,4.89-17.12,6.09-8.52,1.78-13.07-7.12-8.12-14.13C13.81,6.73,23.08,1.66,33.63,1.66Z"/>
                        </g>
                      </g>
                    </g>
                  </g>
                </g>
              </g>
            </g>
          </g>
        </g>
      </g>
    </g>
  </g>
</svg>