<?xml version="1.0" encoding="UTF-8"?>
<svg id="Layer_5" data-name="Layer 5" xmlns="http://www.w3.org/2000/svg" viewBox="0 0 238.73 157.08">
  <defs>
    <style>
      .cls-1 {
        fill: #555;
        stroke-width: 0px;
      }
    </style>
  </defs>
  <path class="cls-1" d="m59.09,56.34h-27.68v8.21h19.63c-.97,11.5-10.55,16.43-19.6,16.43-11.92.05-21.62-9.57-21.67-21.48,0-.13,0-.26,0-.38,0-12.43,9.63-22.01,21.7-22.01,9.31,0,14.8,5.94,14.8,5.94l5.75-5.96s-7.38-8.22-20.85-8.22C14.03,28.87.77,43.34.77,58.97s12.48,30.25,30.84,30.25c16.15,0,27.98-11.07,27.98-27.43,0-3.45-.5-5.45-.5-5.45h0Z"/>
  <path id="A" class="cls-1" d="m81.77,50.39c-11.36,0-19.5,8.88-19.5,19.23s7.89,19.55,19.63,19.55c10.63,0,19.33-8.12,19.33-19.33,0-12.82-10.13-19.46-19.46-19.46h0Zm.11,7.62c5.58,0,10.88,4.52,10.88,11.79s-5.27,11.77-10.9,11.77c-6.19,0-11.05-4.96-11.05-11.82s4.82-11.74,11.1-11.74h-.02Z"/>
  <path id="A-2" data-name="A" class="cls-1" d="m124.18,50.39c-11.36,0-19.5,8.88-19.5,19.23s7.89,19.55,19.63,19.55c10.63,0,19.33-8.12,19.33-19.33,0-12.82-10.13-19.46-19.46-19.46h0Zm.11,7.62c5.58,0,10.88,4.52,10.88,11.79s-5.27,11.77-10.9,11.77c-6.19,0-11.05-4.96-11.05-11.82s4.82-11.74,11.1-11.74h-.02Z"/>
  <path class="cls-1" d="m165.77,50.41c-10.43,0-18.62,9.13-18.62,19.38,0,11.67,9.5,19.42,18.44,19.42,5.53,0,8.47-2.2,10.61-4.71v3.82c0,6.69-4.06,10.7-10.2,10.7s-8.9-4.41-9.95-6.9l-7.45,3.1c2.64,5.59,7.97,11.42,17.47,11.42,10.39,0,18.27-6.53,18.27-20.22v-34.83h-8.1v3.29c-2.5-2.7-5.92-4.45-10.46-4.45h0Zm.75,7.61c5.11,0,10.36,4.36,10.36,11.82s-5.24,11.75-10.47,11.75c-5.56,0-10.73-4.51-10.73-11.68s5.37-11.89,10.84-11.89h0Z"/>
  <path class="cls-1" d="m220.53,50.37c-9.83,0-18.09,7.83-18.09,19.37,0,12.22,9.2,19.46,19.01,19.46,8.21,0,13.26-4.49,16.25-8.51l-6.71-4.46c-1.74,2.7-4.65,5.34-9.5,5.34-5.45,0-7.96-2.98-9.51-5.88l26.01-10.79-1.33-3.16c-2.51-6.19-8.37-11.36-16.13-11.36h0Zm.34,7.46c3.54,0,6.09,1.88,7.18,4.14l-17.37,7.26c-.75-5.62,4.58-11.4,10.17-11.4h.02Z"/>
  <path class="cls-1" d="m190.03,88.05h8.54V30.88h-8.54v57.17Z"/>
</svg>