<?xml version="1.0" encoding="UTF-8"?>
<svg id="Layer_6" data-name="Layer 6" xmlns="http://www.w3.org/2000/svg" viewBox="0 0 275.58 157.08">
  <defs>
    <style>
      .cls-1 {
        fill: #555;
        stroke-width: 0px;
      }
    </style>
  </defs>
  <path class="cls-1" d="m156.55,43.45c1.46,0,2.87-.57,3.91-1.56,1.04-.99,1.65-2.4,1.7-3.82,0-1.46-.61-2.87-1.65-3.91s-2.45-1.65-3.91-1.65c-1.46.05-2.83.61-3.86,1.7-1.04,1.04-1.6,2.45-1.56,3.86,0,1.41.57,2.78,1.6,3.82.99.94,2.36,1.51,3.77,1.56h0Zm37.98,5.18h13.48v1.08c-.75.14-1.46.38-2.12.75-1.23.57-3.68,3.35-5.61,8.01-3.2,8.06-6.55,17.63-10.09,28.56l-1.32,4.15c-.57,1.89-1.08,3.11-1.32,3.82-.24.75-.57,1.89-1.13,3.25-.33,1.04-.75,2.07-1.27,3.02-.66,1.23-1.89,3.72-2.87,4.48-1.56,1.32-3.86,2.78-6.74,2.54-5.61,0-9.8-4.15-9.85-9.05,0-3.35,2.12-5.56,5.33-5.56,2.31,0,4.34,1.23,4.34,3.82,0,1.89-1.89,3.82-1.89,4.81,0,2.54,1.46,3.72,4.34,3.72,2.31,0,4.19-1.46,5.61-4.38,1.89-3.35,2.07-7.02.47-11.12l-11.83-31.1c-2.73-7.16-4.76-9.52-7.3-9.8v-1.08h18.66v1.08c-2.22.24-3.35,1.56-3.35,3.91,0,1.7.66,4.34,1.89,7.68l2.22,6.03c2.54,6.55,4.62,12.25,5.66,15.83,2.4-7.45,4.62-13.95,6.74-19.65,1.56-4.24,2.31-7.26,2.31-9.05,0-3.2-1.74-4.67-4.34-4.67v-1.08h0Zm-129.74,39.73c-2.4-.42-4.43-2.54-4.43-7.02V27.24l-13.57,2.92v1.13c2.31-.24,4.62,1.79,4.62,6.13v43.92c0,4.24-2.31,6.69-4.62,7.02-.24.05-.42.05-.66.09-1.18.09-2.36-.14-3.44-.61-1.84-.8-3.35-2.21-4.62-4.29l-6.27-9.94c-1.32-2.12-3.3-3.72-5.61-4.62s-4.85-1.04-7.26-.38l7.07-7.78c5.33-5.89,10.27-9.61,14.94-11.17v-1.08h-15.55v1.08c4.01,1.56,3.77,5-.85,10.37l-9.9,11.5V27.24l-13.57,2.92v1.13c2.31,0,4.62,2.26,4.62,6.27v43.73c0,4.85-2.26,6.74-4.62,7.07v1.08h18v-1.08c-2.97-.42-4.43-2.69-4.43-7.02v-8.06l3.86-4.24,9.33,15.27c2.22,3.68,4.29,5.14,7.54,5.14h31.29v-.85s-.85-.05-1.89-.24h0Zm37.33-5.14v-18.29c-.19-11.92-5.23-17.39-16.78-17.39-3.68-.05-7.26,1.18-10.18,3.44-3.06,2.31-4.52,4.9-4.52,7.92s1.65,5.14,4.34,5.14c2.87,0,4.95-1.65,4.95-3.91,0-1.7-1.13-4.1-1.13-5.7,0-2.92,2.21-5.47,6.08-5.47,4.95,0,8.48,3.68,8.48,11.83v4.9l-4.1.99c-2.12.42-3.96.85-5.33,1.23-1.41.42-3.2.99-5.33,1.79-4.29,1.65-6.55,3.2-8.53,6.13-.99,1.41-1.46,3.11-1.46,4.81,0,6.79,4.76,9.9,11.4,9.9,5.28,0,10.84-2.78,13.38-8.01.05,1.65.42,3.25,1.18,4.76,2.78,5.61,12.02,2.31,12.02,2.31v-1.08c-4.15.61-4.48-4.15-4.48-5.28h0Zm-8.77-5.66c0,2.69-.99,4.9-2.97,6.46-1.89,1.56-3.86,2.36-5.94,2.36-4.01,0-6.65-2.59-6.65-7.45,0-2.26,1.27-4.38,2.31-5.61.85-.85,1.79-1.56,2.87-2.03,1.41-.75,2.07-1.13,3.06-1.56l3.77-1.37c1.89-.75,3.02-1.13,3.53-1.37v10.56h0Zm181.54-28.94h-31.95v-21.4h31.95l-6.69,10.7,6.69,10.7h0Zm-64.99,35.58c-3.96-4.05-6.17-9.52-6.08-15.22-.05-2.78.47-5.56,1.51-8.15s2.59-4.95,4.57-6.97c4.05-4.24,8.95-6.36,14.75-6.36s10.6,2.12,14.66,6.36c1.98,1.98,3.58,4.34,4.62,6.93,1.08,2.59,1.6,5.37,1.56,8.2.05,2.83-.47,5.61-1.56,8.2s-2.64,5-4.62,6.97c-4.05,4.15-8.95,6.32-14.66,6.32-5.75.05-10.7-2.07-14.75-6.27h0Zm22.15-29.64c-1.6-3.16-3.77-5-6.27-5.51-5.09-1.04-9.57,4.19-11.26,12.44-.71,3.72-.9,7.49-.52,11.22.38,3.77,1.41,7.4,3.11,10.79,1.65,3.16,3.77,5,6.27,5.51,5.09,1.04,9.71-4.38,11.4-12.72,1.41-6.97.71-15.46-2.73-21.73h0Z"/>
  <path class="cls-1" d="m161.31,81.34v-32.71h-28.94v.99c3.86.57,5.7,3.49,3.96,8.15-9.05,24.41-8.48,23.33-9.05,25.26-.57-1.89-1.89-6.5-4.01-12.3-2.12-5.8-3.53-9.61-4.1-11.36-2.21-6.79-1.46-9.28,2.12-9.71v-1.08h-18.76v1.08c2.78.57,5.28,3.77,7.3,9.47l2.87,7.45c3.16,8.01,6.88,19.09,8.11,22.86h6.22c2.03-5.8,10.04-28.98,11.12-31.34,1.18-2.69,2.5-4.71,3.96-6.13.71-.75,1.56-1.37,2.54-1.74.94-.38,1.98-.61,3.02-.57,0,0,4.52,0,4.52,4.34v27.38c0,4.57-2.22,6.69-4.52,7.02v1.08h17.91v-1.08c-2.31-.38-4.29-2.5-4.29-7.07h0Z"/>
</svg>