<?xml version="1.0" encoding="utf-8"?>
<!-- Generator: Adobe Illustrator 27.9.0, SVG Export Plug-In . SVG Version: 6.00 Build 0)  -->
<svg version="1.1" id="Layer_1" xmlns="http://www.w3.org/2000/svg" xmlns:xlink="http://www.w3.org/1999/xlink" x="0px" y="0px"
	 viewBox="0 0 229.5 60" style="enable-background:new 0 0 229.5 60;" xml:space="preserve">
<style type="text/css">
	.st0{fill:#00BCD4;}
	.st1{fill:#FFFFFF;}
	.st2{fill:url(#SVGID_1_);}
	.st3{fill:url(#SVGID_00000079484141943197607020000005043683341704031400_);}
	.st4{fill:#111111;}
</style>
<g>
	<g id="Layer_1_00000003820728749192937620000015463638170361358979_">
		<path class="st0" d="M0,30c0-9.3,0-14,1.5-17.6c2-4.9,5.9-8.8,10.8-10.8C16,0,20.7,0,30,0l0,0c9.3,0,14,0,17.7,1.5
			c4.9,2,8.8,5.9,10.8,10.8C60,16,60,20.7,60,30l0,0c0,9.3,0,14-1.5,17.6c-2,4.9-5.9,8.8-10.8,10.8C44,60,39.3,60,30,60l0,0
			c-9.3,0-14,0-17.6-1.5c-4.9-2-8.8-5.9-10.8-10.8C0,44,0,39.3,0,30L0,30L0,30z"/>
		<g>
			<path class="st1" d="M30,11.2c-10.4,0-18.8,8.4-18.8,18.8S19.6,48.8,30,48.8S48.8,40.4,48.8,30S40.4,11.2,30,11.2z M30,38
				c-4.4,0-8-3.6-8-8c0-3,1.7-5.6,4.1-7l3.9,2.2l3.9-2.2c2.5,1.4,4.1,4,4.1,7C38,34.4,34.4,38,30,38z"/>
			
				<linearGradient id="SVGID_1_" gradientUnits="userSpaceOnUse" x1="31.9943" y1="37.9042" x2="43.3923" y2="18.1576" gradientTransform="matrix(1 0 0 -1 0 62)">
				<stop  offset="8.000000e-02" style="stop-color:#A5AAA8"/>
				<stop  offset="9.000000e-02" style="stop-color:#A9AEAC"/>
				<stop  offset="0.16" style="stop-color:#C3C7C5"/>
				<stop  offset="0.23" style="stop-color:#D9DBDA"/>
				<stop  offset="0.32" style="stop-color:#EAEBEB"/>
				<stop  offset="0.43" style="stop-color:#F6F6F6"/>
				<stop  offset="0.58" style="stop-color:#FDFDFD"/>
				<stop  offset="1" style="stop-color:#FFFFFF"/>
			</linearGradient>
			<path class="st2" d="M43.9,17.5l-10,5.5c2.5,1.4,4.1,4,4.1,7c0,4.4-3.6,8-8,8v10.7c10.3,0,18.7-8.4,18.7-18.7
				C48.7,25.2,46.9,20.8,43.9,17.5z"/>
			
				<linearGradient id="SVGID_00000171708520329138934270000011139513164954039736_" gradientUnits="userSpaceOnUse" x1="26.8027" y1="40.4099" x2="17.7013" y2="16.6962" gradientTransform="matrix(1 0 0 -1 0 62)">
				<stop  offset="3.000000e-02" style="stop-color:#A5AAA8"/>
				<stop  offset="4.000000e-02" style="stop-color:#A9AEAC"/>
				<stop  offset="0.11" style="stop-color:#C3C7C5"/>
				<stop  offset="0.19" style="stop-color:#D9DBDA"/>
				<stop  offset="0.28" style="stop-color:#EAEBEB"/>
				<stop  offset="0.4" style="stop-color:#F6F6F6"/>
				<stop  offset="0.56" style="stop-color:#FDFDFD"/>
				<stop  offset="1" style="stop-color:#FFFFFF"/>
			</linearGradient>
			<path style="fill:url(#SVGID_00000171708520329138934270000011139513164954039736_);" d="M22,30c0-3,1.7-5.6,4.1-7l-10-5.5
				c-3,3.3-4.8,7.7-4.8,12.5c0,10.3,8.4,18.7,18.7,18.7V38C25.6,38,22,34.4,22,30z"/>
		</g>
		<g>
			<path class="st4" d="M80.9,18.7c6.7,0,11.2,4.5,11.2,11.1s-4.5,11.1-11.2,11.1s-11.2-4.5-11.2-11.1S74.2,18.7,80.9,18.7z
				 M80.9,36.6c3.8,0,6.4-2.8,6.4-6.8s-2.6-6.8-6.4-6.8s-6.4,2.8-6.4,6.8S77.1,36.6,80.9,36.6z"/>
			<path class="st4" d="M104.1,27.5c6.5,0,9.1,2,9.1,6.3c0,4.6-3.4,7.1-9.5,7.1c-4,0-7.1-1-8.9-3c-0.4-0.4-0.6-1-0.6-1.7
				c0-1.3,0.9-2.2,2.2-2.2c0.5,0,1,0.2,1.5,0.6c1.5,1.3,3.7,2.1,6.2,2.1c2.7,0,4.3-1,4.3-2.6c0-1.4-1.1-2-5-2
				c-6.5-0.1-8.9-2-8.9-6.2s3.6-7.1,9.4-7.1c3.2,0,5.8,0.8,7.6,2.3c0.5,0.4,0.8,1.1,0.8,1.9c0,1.3-0.9,2.2-2.2,2.2
				c-0.5,0-1-0.2-1.4-0.5c-1.5-1.1-3.2-1.6-5.1-1.6c-2.5,0-4.2,1-4.2,2.6C99.3,26.9,100.5,27.5,104.1,27.5z"/>
			<path class="st4" d="M135.5,36.8c-1.8,2.4-5,4.1-9,4.1c-6.6,0-11.2-4.5-11.2-11.1s4.6-11.1,11.2-11.1c3.6,0,6.6,1.3,8.7,3.6
				c0.4,0.4,0.6,1,0.6,1.7c0,1.3-1,2.3-2.3,2.3c-0.8,0-1.5-0.3-1.9-0.9c-1.1-1.5-2.8-2.4-5-2.4c-3.8,0-6.4,2.8-6.4,6.8
				s2.6,6.8,6.4,6.8c2.3,0,4-1,5.2-2.6c0.4-0.6,1.1-1,1.9-1c1.4,0,2.3,1,2.3,2.3C136,35.9,135.8,36.4,135.5,36.8L135.5,36.8z"/>
			<path class="st4" d="M158.5,21.5v16.7c0,1.6-0.9,2.6-2.4,2.6s-2.4-1-2.4-2.6v-6.3h-10.6v6.3c0,1.6-0.9,2.6-2.4,2.6
				s-2.4-1-2.4-2.6V21.5c0-1.6,0.9-2.6,2.4-2.6s2.4,1,2.4,2.6v6.1h10.6v-6.1c0-1.6,0.9-2.6,2.4-2.6S158.5,19.9,158.5,21.5z"/>
			<path class="st4" d="M172.7,18.7c6.7,0,11.2,4.5,11.2,11.1s-4.5,11.1-11.2,11.1s-11.2-4.5-11.2-11.1S166,18.7,172.7,18.7z
				 M172.7,36.6c3.8,0,6.4-2.8,6.4-6.8s-2.6-6.8-6.4-6.8s-6.4,2.8-6.4,6.8S168.9,36.6,172.7,36.6z"/>
			<path class="st4" d="M197.4,18.7c6.7,0,11.2,4.5,11.2,11.1s-4.5,11.1-11.2,11.1s-11.2-4.5-11.2-11.1S190.7,18.7,197.4,18.7z
				 M197.4,36.6c3.8,0,6.4-2.8,6.4-6.8s-2.6-6.8-6.4-6.8s-6.4,2.8-6.4,6.8S193.6,36.6,197.4,36.6z"/>
			<path class="st4" d="M227.1,36.2c1.4,0,2.3,0.8,2.3,2.2s-0.9,2.2-2.3,2.2h-13c-1.6,0-2.6-1-2.6-2.6V21.4c0-1.6,0.9-2.5,2.4-2.5
				s2.4,1,2.4,2.5v14.8L227.1,36.2L227.1,36.2z"/>
		</g>
	</g>
</g>
</svg>
