<?xml version="1.0" encoding="UTF-8"?>
<svg id="Layer_3" data-name="Layer 3" xmlns="http://www.w3.org/2000/svg" viewBox="0 0 478.59 157.08">
  <defs>
    <style>
      .cls-1 {
        fill: #555;
        stroke-width: 0px;
      }
    </style>
  </defs>
  <path class="cls-1" d="m103.48,9.58c-.03,15.04-.05,30.07-.08,45.11,0,.92,0,1.84,0,2.93h-48.3V9.58h48.38Z"/>
  <path class="cls-1" d="m55.1,110.99v-48.05h48.38v48.05h-48.38Z"/>
  <path class="cls-1" d="m2.21,62.84h47.77v48.15H2.06c0-11.35,0-22.69.03-34.04,0-4.71.08-9.41.12-14.11Z"/>
  <path class="cls-1" d="m49.98,9.58v48.03c-.74.05-1.27.12-1.8.12-14.85,0-29.71,0-44.56,0-.53,0-1.06-.13-1.59-.21.01-15.98.02-31.96.03-47.94h47.92Z"/>
  <path class="cls-1" d="m477.98,55.17h-10.7c0,2.47,0,4.62,0,6.76,0,4.57-.02,9.15,0,13.72.04,6.6,3.02,8.72,9.23,6.61.21-.07.44-.08,1.02-.18,0,2.52.07,4.94-.06,7.36-.02.45-.81,1.08-1.35,1.23-3.87,1.06-7.81,1.3-11.69.14-4.34-1.3-7.19-5.06-7.35-10.24-.21-6.89-.07-13.79-.08-20.68,0-1.31,0-2.62,0-4.13h-15.27v34.71h-10.53v-34.87h-7.16v-8.57h6.92c.16-2.99.16-5.76.48-8.49.86-7.29,6.75-12.72,14.05-13.12q7.54-.42,7.51,6.97c0,.69,0,1.37,0,2.32-1.08-.27-1.93-.5-2.79-.69-4.76-1.05-8.18,1.46-8.47,6.3-.12,2.07-.02,4.16-.02,6.4h15.27v-9.66c3.46-1.03,6.76-2.01,10.32-3.07v12.67c3.68.21,7.19.41,10.69.62v7.91Z"/>
  <path class="cls-1" d="m2.21,62.84c-.04,4.7-.11,9.41-.12,14.11-.02,11.35-.02,22.69-.03,34.04-.16-.62-.44-1.24-.45-1.86-.03-15.51-.02-31.01-.02-46.52.2.08.41.15.61.23Z"/>
  <path class="cls-1" d="m2.06,9.58c-.01,15.98-.02,31.96-.03,47.94,0,0-.22.02-.22.02l-.21-.05c0-15.36,0-30.71.02-46.07,0-.62.29-1.23.45-1.85Z"/>
  <path class="cls-1" d="m166.82,75.14c4.93-12.02,9.63-23.47,14.32-34.92,1.2-2.93,2.35-5.89,3.65-8.78.28-.63,1.1-1.44,1.69-1.46,4.33-.12,8.66-.07,13.14-.07v60.6h-10.37v-46.48c-.16-.05-.31-.1-.47-.15-.34.75-.7,1.5-1,2.26-5.58,14.1-11.19,28.19-16.69,42.31-.63,1.62-1.34,2.28-3.13,2.24-4.86-.11-4.87-.02-6.69-4.53-5.43-13.41-10.85-26.82-16.28-40.23-.28-.7-.59-1.39-1.31-2.04v46.59h-9.63V29.92c4.82,0,9.53-.07,14.24.08.57.02,1.33,1.11,1.63,1.85,5.31,13.54,10.56,27.1,15.82,40.66.27.69.57,1.38,1.09,2.62Z"/>
  <path class="cls-1" d="m422.68,71.06c-.18,6.93-3.27,14.79-12.45,18.8-6.67,2.91-13.65,2.88-20.35,0-8.05-3.45-11.32-10.33-11.7-18.57-.17-3.71.3-7.66,1.46-11.18,3.49-10.57,12.34-14.64,22.86-13.97,13.07.83,20.18,8.96,20.18,24.92Zm-10.21-2.38c-.26-1.66-.42-3.67-.9-5.61-1.3-5.25-4.6-8.12-9.45-8.44-5.89-.39-9.97,1.97-12.02,7.11-1.68,4.23-1.8,8.6-.64,12.99,1.52,5.77,5.58,8.61,11.93,8.44,5.57-.15,9.27-3.33,10.42-9.06.33-1.66.42-3.37.67-5.43Z"/>
  <path class="cls-1" d="m339.57,68.68c-.14,7.73-2.41,14.45-8.91,19.24-7.97,5.86-25.15,5.94-32.1-4.77-6.6-10.17-4.05-26.55,5.24-33.17,7.83-5.58,25.26-6.23,32.07,4.79,2.35,3.8,3.81,8.84,3.7,13.92Zm-10.31.19c-.19-1.57-.3-3.27-.61-4.93-1.02-5.55-4.49-8.91-9.48-9.29-6.27-.48-10.82,2.09-12.42,7.77-.88,3.12-1.02,6.57-.85,9.84.32,6.41,4.58,10.6,10.5,10.9,7.12.36,11.08-2.75,12.33-9.76.26-1.44.34-2.91.53-4.52Z"/>
  <path class="cls-1" d="m344.41,79.93c3.49,1.12,6.8,2.33,10.2,3.21,1.44.37,3.18.36,4.57-.1,1.39-.46,3.24-1.51,3.57-2.67.37-1.33-.29-3.45-1.26-4.54-1.22-1.36-3.2-2.08-4.9-2.98-2.12-1.12-4.41-1.95-6.41-3.25-7.42-4.83-7.7-15.2-.57-20.46,5.42-4,11.53-4.05,17.79-2.71,3.72.8,3.71.85,3.71,4.59,0,1.93,0,3.86,0,6.23-.99-.47-1.72-.78-2.41-1.14-2.89-1.5-5.93-2.23-9.2-1.89-2.08.22-3.76,1.04-4.33,3.23-.61,2.35.18,4.29,2.44,5.46,3.02,1.56,6.18,2.85,9.21,4.4,4.63,2.37,7.1,6.18,6.88,11.44-.23,5.45-3.21,9.17-8.09,11.21-6.63,2.77-13.35,1.97-19.98-.2-.5-.16-1.12-.92-1.14-1.41-.11-2.91-.05-5.82-.05-8.42Z"/>
  <path class="cls-1" d="m261.2,79.51c0,2.49-.15,4.74.04,6.95.17,1.95-.55,2.97-2.35,3.57-8.99,2.99-20.79,2.59-27.36-6.1-5.87-7.77-5.84-16.3-2.33-24.86,3.25-7.93,9.58-12.02,18.12-12.83,4.25-.41,8.36-.05,12.27,1.61.69.29,1.4,1.39,1.45,2.16.18,2.54.07,5.1.07,7.97-8.29-4.44-16.14-5.73-21.74,3.59-3.24,5.4-1.95,14.11,2.02,18.05,4.66,4.63,11.04,4.66,19.8-.11Z"/>
  <path class="cls-1" d="m279.1,52.92c3.06-4.99,7.3-6.89,12.74-6.57,1.7.1,2.65.64,2.5,2.66-.19,2.61-.05,5.24-.05,8-.51-.16-.8-.23-1.09-.33-7.69-2.71-13.41.86-13.83,9.07-.37,7.26-.16,14.56-.2,21.84,0,.92,0,1.85,0,2.97h-10.29v-43.4h10.21v5.77Z"/>
  <path class="cls-1" d="m219.66,90.54h-9.91v-43.29h9.91v43.29Z"/>
  <path class="cls-1" d="m214.84,28.63c3.49.03,6.21,2.61,6.23,5.88.02,3.34-2.79,5.87-6.48,5.84-3.49-.03-6.05-2.57-6.04-5.99.02-3.29,2.74-5.77,6.28-5.74Z"/>
</svg>