<?xml version="1.0" encoding="UTF-8"?>
<svg xmlns="http://www.w3.org/2000/svg" xmlns:xlink="http://www.w3.org/1999/xlink" viewBox="0 0 67.65 67.65">
  <defs>
    <style>
      .cls-1 {
        mask: url(#mask-11);
      }

      .cls-2 {
        mask: url(#mask-10);
      }

      .cls-3 {
        fill: url(#linear-gradient-2);
      }

      .cls-3, .cls-4, .cls-5, .cls-6, .cls-7, .cls-8, .cls-9, .cls-10, .cls-11, .cls-12 {
        stroke-width: 0px;
      }

      .cls-3, .cls-4, .cls-5, .cls-7, .cls-9 {
        mix-blend-mode: multiply;
      }

      .cls-4 {
        fill: url(#linear-gradient-4);
      }

      .cls-5 {
        fill: url(#linear-gradient-3);
      }

      .cls-13 {
        filter: url(#luminosity-noclip-6);
      }

      .cls-14 {
        filter: url(#luminosity-noclip-8);
      }

      .cls-15 {
        filter: url(#luminosity-noclip-2);
      }

      .cls-16 {
        filter: url(#luminosity-noclip-4);
      }

      .cls-17 {
        clip-path: url(#clippath);
      }

      .cls-6 {
        fill: none;
      }

      .cls-18 {
        mask: url(#mask);
      }

      .cls-7 {
        fill: url(#linear-gradient);
      }

      .cls-19 {
        filter: url(#luminosity-noclip-10);
      }

      .cls-8 {
        fill: url(#linear-gradient-5);
      }

      .cls-8, .cls-20 {
        mix-blend-mode: screen;
      }

      .cls-9 {
        fill: url(#radial-gradient);
        opacity: .2;
      }

      .cls-21 {
        isolation: isolate;
      }

      .cls-22 {
        mask: url(#mask-3);
      }

      .cls-23 {
        mask: url(#mask-2);
      }

      .cls-24 {
        mask: url(#mask-5);
      }

      .cls-25 {
        mask: url(#mask-4);
      }

      .cls-26 {
        mask: url(#mask-1);
      }

      .cls-27 {
        mask: url(#mask-7);
      }

      .cls-28 {
        mask: url(#mask-6);
      }

      .cls-29 {
        mask: url(#mask-8);
      }

      .cls-30 {
        mask: url(#mask-9);
      }

      .cls-10 {
        fill: #34479e;
      }

      .cls-11 {
        fill: #fff;
      }

      .cls-12 {
        fill: #e91e25;
      }
    </style>
    <clipPath id="clippath">
      <path class="cls-6" d="m67.54,33.9c0,18.62-15.09,33.71-33.71,33.71S.11,52.52.11,33.9,15.21.18,33.83.18s33.71,15.09,33.71,33.71Z"/>
    </clipPath>
    <radialGradient id="radial-gradient" cx="33.54" cy="33.28" fx="33.54" fy="33.28" r="33.93" gradientTransform="translate(.38 .64)" gradientUnits="userSpaceOnUse">
      <stop offset=".88" stop-color="#fff"/>
      <stop offset=".89" stop-color="#f5f5f5"/>
      <stop offset=".91" stop-color="#dbdada"/>
      <stop offset=".93" stop-color="#b0aeaf"/>
      <stop offset=".96" stop-color="#757273"/>
      <stop offset="1" stop-color="#2a2627"/>
      <stop offset="1" stop-color="#231f20"/>
    </radialGradient>
    <filter id="luminosity-noclip" x="5.21" y="-8317.98" width="56.84" height="32766" color-interpolation-filters="sRGB" filterUnits="userSpaceOnUse">
      <feFlood flood-color="#fff" result="bg"/>
      <feBlend in="SourceGraphic" in2="bg"/>
    </filter>
    <mask id="mask-1" x="5.21" y="-8317.98" width="56.84" height="32766" maskUnits="userSpaceOnUse"/>
    <linearGradient id="linear-gradient" x1="42.73" y1="2.63" x2="42.73" y2="42.49" gradientTransform="translate(76.36) rotate(-180) scale(1 -1)" gradientUnits="userSpaceOnUse">
      <stop offset="0" stop-color="#fff"/>
      <stop offset=".2" stop-color="#c8c8c8"/>
      <stop offset=".49" stop-color="#7e7e7e"/>
      <stop offset=".73" stop-color="#484848"/>
      <stop offset=".9" stop-color="#262626"/>
      <stop offset="1" stop-color="#1a1a1a"/>
    </linearGradient>
    <mask id="mask" x="5.21" y="1.65" width="56.84" height="41.71" maskUnits="userSpaceOnUse">
      <g class="cls-26">
        <path class="cls-7" d="m33.63,1.65c13.05,0,24.14,7.78,28.42,18.68-4.28,10.9-15.37,23.03-28.42,23.03S9.49,31.24,5.21,20.34C9.49,9.44,20.58,1.65,33.63,1.65Z"/>
      </g>
    </mask>
    <filter id="luminosity-noclip-2" x="5.21" y="1.65" width="56.84" height="41.71" color-interpolation-filters="sRGB" filterUnits="userSpaceOnUse">
      <feFlood flood-color="#fff" result="bg"/>
      <feBlend in="SourceGraphic" in2="bg"/>
    </filter>
    <filter id="luminosity-noclip-3" x="5.21" y="-8317.98" width="56.84" height="32766" color-interpolation-filters="sRGB" filterUnits="userSpaceOnUse">
      <feFlood flood-color="#fff" result="bg"/>
      <feBlend in="SourceGraphic" in2="bg"/>
    </filter>
    <mask id="mask-3" x="5.21" y="-8317.98" width="56.84" height="32766" maskUnits="userSpaceOnUse"/>
    <linearGradient id="linear-gradient-2" x1="33.63" y1="2.13" x2="33.63" y2="43.12" gradientUnits="userSpaceOnUse">
      <stop offset="0" stop-color="#fff"/>
      <stop offset=".09" stop-color="#f0f0f0"/>
      <stop offset=".27" stop-color="#c9c9c9"/>
      <stop offset=".52" stop-color="#8a8a8a"/>
      <stop offset=".83" stop-color="#343434"/>
      <stop offset="1" stop-color="#000"/>
    </linearGradient>
    <mask id="mask-2" x="5.21" y="1.65" width="56.84" height="41.71" maskUnits="userSpaceOnUse">
      <g class="cls-15">
        <g class="cls-22">
          <path class="cls-3" d="m33.63,1.65c13.05,0,24.14,7.78,28.42,18.68-4.28,10.9-15.37,23.03-28.42,23.03S9.49,31.24,5.21,20.34C9.49,9.44,20.58,1.65,33.63,1.65Z"/>
        </g>
      </g>
    </mask>
    <filter id="luminosity-noclip-4" x="5.21" y="1.65" width="56.84" height="41.71" color-interpolation-filters="sRGB" filterUnits="userSpaceOnUse">
      <feFlood flood-color="#fff" result="bg"/>
      <feBlend in="SourceGraphic" in2="bg"/>
    </filter>
    <filter id="luminosity-noclip-5" x="5.21" y="-8317.98" width="56.84" height="32766" color-interpolation-filters="sRGB" filterUnits="userSpaceOnUse">
      <feFlood flood-color="#fff" result="bg"/>
      <feBlend in="SourceGraphic" in2="bg"/>
    </filter>
    <mask id="mask-5" x="5.21" y="-8317.98" width="56.84" height="32766" maskUnits="userSpaceOnUse"/>
    <mask id="mask-4" x="5.21" y="1.65" width="56.84" height="41.71" maskUnits="userSpaceOnUse">
      <g class="cls-16">
        <g class="cls-24">
          <path class="cls-3" d="m33.63,1.65c13.05,0,24.14,7.78,28.42,18.68-4.28,10.9-15.37,23.03-28.42,23.03S9.49,31.24,5.21,20.34C9.49,9.44,20.58,1.65,33.63,1.65Z"/>
        </g>
      </g>
    </mask>
    <filter id="luminosity-noclip-6" x="5.21" y="1.65" width="56.84" height="41.71" color-interpolation-filters="sRGB" filterUnits="userSpaceOnUse">
      <feFlood flood-color="#fff" result="bg"/>
      <feBlend in="SourceGraphic" in2="bg"/>
    </filter>
    <filter id="luminosity-noclip-7" x="5.21" y="-8317.98" width="56.84" height="32766" color-interpolation-filters="sRGB" filterUnits="userSpaceOnUse">
      <feFlood flood-color="#fff" result="bg"/>
      <feBlend in="SourceGraphic" in2="bg"/>
    </filter>
    <mask id="mask-7" x="5.21" y="-8317.98" width="56.84" height="32766" maskUnits="userSpaceOnUse"/>
    <mask id="mask-6" x="5.21" y="1.65" width="56.84" height="41.71" maskUnits="userSpaceOnUse">
      <g class="cls-13">
        <g class="cls-27">
          <path class="cls-3" d="m33.63,1.65c13.05,0,24.14,7.78,28.42,18.68-4.28,10.9-15.37,23.03-28.42,23.03S9.49,31.24,5.21,20.34C9.49,9.44,20.58,1.65,33.63,1.65Z"/>
        </g>
      </g>
    </mask>
    <filter id="luminosity-noclip-8" x="6.34" y="1.65" width="54.55" height="27.2" color-interpolation-filters="sRGB" filterUnits="userSpaceOnUse">
      <feFlood flood-color="#fff" result="bg"/>
      <feBlend in="SourceGraphic" in2="bg"/>
    </filter>
    <filter id="luminosity-noclip-9" x="6.37" y="-8317.98" width="54.52" height="32766" color-interpolation-filters="sRGB" filterUnits="userSpaceOnUse">
      <feFlood flood-color="#fff" result="bg"/>
      <feBlend in="SourceGraphic" in2="bg"/>
    </filter>
    <mask id="mask-9" x="6.37" y="-8317.98" width="54.52" height="32766" maskUnits="userSpaceOnUse"/>
    <linearGradient id="linear-gradient-3" x1="33.63" y1="1.97" x2="33.63" y2="28.57" gradientUnits="userSpaceOnUse">
      <stop offset="0" stop-color="#fff"/>
      <stop offset=".12" stop-color="#fafafa"/>
      <stop offset=".26" stop-color="#eee"/>
      <stop offset=".39" stop-color="#d8d8d8"/>
      <stop offset=".53" stop-color="#bbb"/>
      <stop offset=".66" stop-color="#959595"/>
      <stop offset=".8" stop-color="#666"/>
      <stop offset=".94" stop-color="#303030"/>
      <stop offset=".99" stop-color="#1a1a1a"/>
    </linearGradient>
    <mask id="mask-8" x="6.34" y="1.65" width="54.55" height="27.2" maskUnits="userSpaceOnUse">
      <g class="cls-14">
        <g class="cls-30">
          <path class="cls-5" d="m33.63,1.65c10.55,0,19.81,5.09,25.24,12.79,2.39,3.4,2.78,7.81.53,11.29-5.34,8.27-14.87-3.23-25.77-3.23s-20.43,11.49-25.77,3.23c-2.25-3.48-1.86-7.9.53-11.29C13.81,6.74,23.08,1.65,33.63,1.65Z"/>
        </g>
      </g>
    </mask>
    <filter id="luminosity-noclip-10" x="6.34" y="1.65" width="54.4" height="27.2" color-interpolation-filters="sRGB" filterUnits="userSpaceOnUse">
      <feFlood flood-color="#fff" result="bg"/>
      <feBlend in="SourceGraphic" in2="bg"/>
    </filter>
    <filter id="luminosity-noclip-11" x="6.34" y="-8317.98" width="54.4" height="32766" color-interpolation-filters="sRGB" filterUnits="userSpaceOnUse">
      <feFlood flood-color="#fff" result="bg"/>
      <feBlend in="SourceGraphic" in2="bg"/>
    </filter>
    <mask id="mask-11" x="6.34" y="-8317.98" width="54.4" height="32766" maskUnits="userSpaceOnUse"/>
    <linearGradient id="linear-gradient-4" x1="33.54" y1="1.97" x2="33.54" y2="28.7" gradientUnits="userSpaceOnUse">
      <stop offset="0" stop-color="#fff"/>
      <stop offset=".13" stop-color="#fafafa"/>
      <stop offset=".27" stop-color="#eee"/>
      <stop offset=".41" stop-color="#d8d8d8"/>
      <stop offset=".56" stop-color="#bbb"/>
      <stop offset=".71" stop-color="#959595"/>
      <stop offset=".85" stop-color="#676767"/>
      <stop offset=".99" stop-color="#333"/>
    </linearGradient>
    <mask id="mask-10" x="6.34" y="1.65" width="54.4" height="27.2" maskUnits="userSpaceOnUse">
      <g class="cls-19">
        <g class="cls-1">
          <path class="cls-4" d="m33.63,1.65c10.55,0,19.81,5.08,25.24,12.79,3.62,5.13,2.09,14.55-5.4,14.24-6.94-.29-12.58-6.17-19.84-6.17-5.88,0-11.37,4.91-17.12,6.11-8.52,1.79-13.07-7.15-8.12-14.18C13.81,6.74,23.08,1.65,33.63,1.65Z"/>
        </g>
      </g>
    </mask>
    <linearGradient id="linear-gradient-5" x1="33.54" y1="1.97" x2="33.54" y2="28.7" gradientUnits="userSpaceOnUse">
      <stop offset="0" stop-color="#fff"/>
      <stop offset=".99" stop-color="#fff"/>
    </linearGradient>
  </defs>
  <g class="cls-21">
    <g id="Layer_2" data-name="Layer 2">
      <g id="Layer_1-2" data-name="Layer 1">
        <g>
          <g class="cls-17">
            <g>
              <g>
                <g>
                  <polygon class="cls-11" points=".29 5.7 .84 6.82 2.09 7.01 1.19 7.88 1.4 9.12 .29 8.54 -.83 9.12 -.62 7.88 -1.52 7.01 -.27 6.82 .29 5.7"/>
                  <polygon class="cls-11" points="8.77 5.7 9.32 6.82 10.57 7.01 9.67 7.88 9.88 9.12 8.77 8.54 7.65 9.12 7.87 7.88 6.97 7.01 8.21 6.82 8.77 5.7"/>
                  <polygon class="cls-11" points="17.25 5.7 17.81 6.82 19.05 7.01 18.15 7.88 18.36 9.12 17.25 8.54 16.14 9.12 16.35 7.88 15.45 7.01 16.7 6.82 17.25 5.7"/>
                  <polygon class="cls-11" points="25.73 5.7 26.29 6.82 27.54 7.01 26.64 7.88 26.85 9.12 25.73 8.54 24.62 9.12 24.83 7.88 23.93 7.01 25.18 6.82 25.73 5.7"/>
                </g>
                <g>
                  <polygon class="cls-11" points=".29 13.01 .84 14.14 2.09 14.32 1.19 15.19 1.4 16.43 .29 15.85 -.83 16.43 -.62 15.19 -1.52 14.32 -.27 14.14 .29 13.01"/>
                  <polygon class="cls-11" points="8.77 13.01 9.32 14.14 10.57 14.32 9.67 15.19 9.88 16.43 8.77 15.85 7.65 16.43 7.87 15.19 6.97 14.32 8.21 14.14 8.77 13.01"/>
                  <polygon class="cls-11" points="17.25 13.01 17.81 14.14 19.05 14.32 18.15 15.19 18.36 16.43 17.25 15.85 16.14 16.43 16.35 15.19 15.45 14.32 16.7 14.14 17.25 13.01"/>
                  <polygon class="cls-11" points="25.73 13.01 26.29 14.14 27.54 14.32 26.64 15.19 26.85 16.43 25.73 15.85 24.62 16.43 24.83 15.19 23.93 14.32 25.18 14.14 25.73 13.01"/>
                </g>
                <g>
                  <polygon class="cls-11" points=".29 20.32 .84 21.44 2.09 21.63 1.19 22.5 1.4 23.74 .29 23.16 -.83 23.74 -.62 22.5 -1.52 21.63 -.27 21.44 .29 20.32"/>
                  <polygon class="cls-11" points="8.77 20.32 9.32 21.44 10.57 21.63 9.67 22.5 9.88 23.74 8.77 23.16 7.65 23.74 7.87 22.5 6.97 21.63 8.21 21.44 8.77 20.32"/>
                  <polygon class="cls-11" points="17.25 20.32 17.81 21.44 19.05 21.63 18.15 22.5 18.36 23.74 17.25 23.16 16.14 23.74 16.35 22.5 15.45 21.63 16.7 21.44 17.25 20.32"/>
                  <polygon class="cls-11" points="25.73 20.32 26.29 21.44 27.54 21.63 26.64 22.5 26.85 23.74 25.73 23.16 24.62 23.74 24.83 22.5 23.93 21.63 25.18 21.44 25.73 20.32"/>
                </g>
                <g>
                  <polygon class="cls-11" points=".29 27.63 .84 28.76 2.09 28.94 1.19 29.81 1.4 31.05 .29 30.47 -.83 31.05 -.62 29.81 -1.52 28.94 -.27 28.76 .29 27.63"/>
                  <polygon class="cls-11" points="8.77 27.63 9.32 28.76 10.57 28.94 9.67 29.81 9.88 31.05 8.77 30.47 7.65 31.05 7.87 29.81 6.97 28.94 8.21 28.76 8.77 27.63"/>
                  <polygon class="cls-11" points="17.25 27.63 17.81 28.76 19.05 28.94 18.15 29.81 18.36 31.05 17.25 30.47 16.14 31.05 16.35 29.81 15.45 28.94 16.7 28.76 17.25 27.63"/>
                  <polygon class="cls-11" points="25.73 27.63 26.29 28.76 27.54 28.94 26.64 29.81 26.85 31.05 25.73 30.47 24.62 31.05 24.83 29.81 23.93 28.94 25.18 28.76 25.73 27.63"/>
                </g>
              </g>
              <rect class="cls-11" x="-16.88" y=".18" width="101.41" height="67.43"/>
              <rect class="cls-10" x="-16.88" y=".18" width="51.29" height="36.39"/>
              <g>
                <rect class="cls-12" x="34.41" y=".18" width="50.11" height="5.34"/>
                <rect class="cls-12" x="34.41" y="10.53" width="50.11" height="5.34"/>
                <rect class="cls-12" x="34.41" y="20.88" width="50.11" height="5.34"/>
                <rect class="cls-12" x="34.41" y="31.23" width="50.11" height="5.34"/>
                <rect class="cls-12" x="-16.88" y="41.57" width="101.41" height="5.34"/>
                <rect class="cls-12" x="-16.88" y="51.92" width="101.41" height="5.34"/>
                <rect class="cls-12" x="-16.88" y="62.27" width="101.41" height="5.34"/>
              </g>
              <g>
                <g>
                  <polygon class="cls-11" points="5.23 4.26 6.45 3.37 4.95 3.37 4.48 1.93 4.01 3.37 2.5 3.37 3.73 4.26 3.26 5.69 4.48 4.81 5.7 5.69 5.23 4.26"/>
                  <polygon class="cls-11" points="13.73 4.26 14.95 3.37 13.44 3.37 12.98 1.93 12.51 3.37 11 3.37 12.22 4.26 11.75 5.69 12.98 4.81 14.2 5.69 13.73 4.26"/>
                  <polygon class="cls-11" points="22.23 4.26 23.45 3.37 21.94 3.37 21.47 1.93 21 3.37 19.5 3.37 20.72 4.26 20.25 5.69 21.47 4.81 22.69 5.69 22.23 4.26"/>
                  <polygon class="cls-11" points="30.72 4.26 31.94 3.37 30.43 3.37 29.97 1.93 29.5 3.37 27.99 3.37 29.21 4.26 28.75 5.69 29.97 4.81 31.19 5.69 30.72 4.26"/>
                </g>
                <polygon class="cls-11" points=".99 7.9 2.21 7.01 .7 7.01 .23 5.58 -.23 7.01 -1.74 7.01 -.52 7.9 -.99 9.33 .23 8.44 1.45 9.33 .99 7.9"/>
                <polygon class="cls-11" points="9.48 7.9 10.7 7.01 9.19 7.01 8.73 5.58 8.26 7.01 6.75 7.01 7.97 7.9 7.51 9.33 8.73 8.44 9.95 9.33 9.48 7.9"/>
                <polygon class="cls-11" points="17.98 7.9 19.2 7.01 17.69 7.01 17.22 5.58 16.76 7.01 15.25 7.01 16.47 7.9 16 9.33 17.22 8.44 18.44 9.33 17.98 7.9"/>
                <polygon class="cls-11" points="26.47 7.9 27.69 7.01 26.19 7.01 25.72 5.58 25.25 7.01 23.74 7.01 24.96 7.9 24.5 9.33 25.72 8.44 26.94 9.33 26.47 7.9"/>
                <polygon class="cls-11" points="5.23 11.54 6.45 10.65 4.95 10.65 4.48 9.22 4.01 10.65 2.5 10.65 3.73 11.54 3.26 12.97 4.48 12.09 5.7 12.97 5.23 11.54"/>
                <polygon class="cls-11" points="13.73 11.54 14.95 10.65 13.44 10.65 12.98 9.22 12.51 10.65 11 10.65 12.22 11.54 11.75 12.97 12.98 12.09 14.2 12.97 13.73 11.54"/>
                <polygon class="cls-11" points="22.23 11.54 23.45 10.65 21.94 10.65 21.47 9.22 21 10.65 19.5 10.65 20.72 11.54 20.25 12.97 21.47 12.09 22.69 12.97 22.23 11.54"/>
                <polygon class="cls-11" points="30.72 11.54 31.94 10.65 30.43 10.65 29.97 9.22 29.5 10.65 27.99 10.65 29.21 11.54 28.75 12.97 29.97 12.09 31.19 12.97 30.72 11.54"/>
                <polygon class="cls-11" points=".99 15.18 2.21 14.29 .7 14.29 .23 12.86 -.23 14.29 -1.74 14.29 -.52 15.18 -.99 16.62 .23 15.73 1.45 16.62 .99 15.18"/>
                <polygon class="cls-11" points="9.48 15.18 10.7 14.29 9.19 14.29 8.73 12.86 8.26 14.29 6.75 14.29 7.97 15.18 7.51 16.62 8.73 15.73 9.95 16.62 9.48 15.18"/>
                <polygon class="cls-11" points="17.98 15.18 19.2 14.29 17.69 14.29 17.22 12.86 16.76 14.29 15.25 14.29 16.47 15.18 16 16.62 17.22 15.73 18.44 16.62 17.98 15.18"/>
                <polygon class="cls-11" points="26.47 15.18 27.69 14.29 26.19 14.29 25.72 12.86 25.25 14.29 23.74 14.29 24.96 15.18 24.5 16.62 25.72 15.73 26.94 16.62 26.47 15.18"/>
                <polygon class="cls-11" points="5.23 18.82 6.45 17.93 4.95 17.93 4.48 16.5 4.01 17.93 2.5 17.93 3.73 18.82 3.26 20.26 4.48 19.37 5.7 20.26 5.23 18.82"/>
                <polygon class="cls-11" points="13.73 18.82 14.95 17.93 13.44 17.93 12.98 16.5 12.51 17.93 11 17.93 12.22 18.82 11.75 20.26 12.98 19.37 14.2 20.26 13.73 18.82"/>
                <polygon class="cls-11" points="22.23 18.82 23.45 17.93 21.94 17.93 21.47 16.5 21 17.93 19.5 17.93 20.72 18.82 20.25 20.26 21.47 19.37 22.69 20.26 22.23 18.82"/>
                <polygon class="cls-11" points="30.72 18.82 31.94 17.93 30.43 17.93 29.97 16.5 29.5 17.93 27.99 17.93 29.21 18.82 28.75 20.26 29.97 19.37 31.19 20.26 30.72 18.82"/>
                <polygon class="cls-11" points=".99 22.46 2.21 21.58 .7 21.58 .23 20.14 -.23 21.58 -1.74 21.58 -.52 22.46 -.99 23.9 .23 23.01 1.45 23.9 .99 22.46"/>
                <polygon class="cls-11" points="9.48 22.46 10.7 21.58 9.19 21.58 8.73 20.14 8.26 21.58 6.75 21.58 7.97 22.46 7.51 23.9 8.73 23.01 9.95 23.9 9.48 22.46"/>
                <polygon class="cls-11" points="17.98 22.46 19.2 21.58 17.69 21.58 17.22 20.14 16.76 21.58 15.25 21.58 16.47 22.46 16 23.9 17.22 23.01 18.44 23.9 17.98 22.46"/>
                <polygon class="cls-11" points="26.47 22.46 27.69 21.58 26.19 21.58 25.72 20.14 25.25 21.58 23.74 21.58 24.96 22.46 24.5 23.9 25.72 23.01 26.94 23.9 26.47 22.46"/>
                <polygon class="cls-11" points="5.23 26.1 6.45 25.22 4.95 25.22 4.48 23.78 4.01 25.22 2.5 25.22 3.73 26.1 3.26 27.54 4.48 26.65 5.7 27.54 5.23 26.1"/>
                <polygon class="cls-11" points="13.73 26.1 14.95 25.22 13.44 25.22 12.98 23.78 12.51 25.22 11 25.22 12.22 26.1 11.75 27.54 12.98 26.65 14.2 27.54 13.73 26.1"/>
                <polygon class="cls-11" points="22.23 26.1 23.45 25.22 21.94 25.22 21.47 23.78 21 25.22 19.5 25.22 20.72 26.1 20.25 27.54 21.47 26.65 22.69 27.54 22.23 26.1"/>
                <polygon class="cls-11" points="30.72 26.1 31.94 25.22 30.43 25.22 29.97 23.78 29.5 25.22 27.99 25.22 29.21 26.1 28.75 27.54 29.97 26.65 31.19 27.54 30.72 26.1"/>
                <polygon class="cls-11" points=".99 29.74 2.21 28.86 .7 28.86 .23 27.42 -.23 28.86 -1.74 28.86 -.52 29.74 -.99 31.18 .23 30.29 1.45 31.18 .99 29.74"/>
                <polygon class="cls-11" points="9.48 29.74 10.7 28.86 9.19 28.86 8.73 27.42 8.26 28.86 6.75 28.86 7.97 29.74 7.51 31.18 8.73 30.29 9.95 31.18 9.48 29.74"/>
                <polygon class="cls-11" points="17.98 29.74 19.2 28.86 17.69 28.86 17.22 27.42 16.76 28.86 15.25 28.86 16.47 29.74 16 31.18 17.22 30.29 18.44 31.18 17.98 29.74"/>
                <polygon class="cls-11" points="26.47 29.74 27.69 28.86 26.19 28.86 25.72 27.42 25.25 28.86 23.74 28.86 24.96 29.74 24.5 31.18 25.72 30.29 26.94 31.18 26.47 29.74"/>
                <polygon class="cls-11" points="5.23 33.39 6.45 32.5 4.95 32.5 4.48 31.06 4.01 32.5 2.5 32.5 3.73 33.39 3.26 34.82 4.48 33.93 5.7 34.82 5.23 33.39"/>
                <polygon class="cls-11" points="13.73 33.39 14.95 32.5 13.44 32.5 12.98 31.06 12.51 32.5 11 32.5 12.22 33.39 11.75 34.82 12.98 33.93 14.2 34.82 13.73 33.39"/>
                <polygon class="cls-11" points="22.23 33.39 23.45 32.5 21.94 32.5 21.47 31.06 21 32.5 19.5 32.5 20.72 33.39 20.25 34.82 21.47 33.93 22.69 34.82 22.23 33.39"/>
                <polygon class="cls-11" points="30.72 33.39 31.94 32.5 30.43 32.5 29.97 31.06 29.5 32.5 27.99 32.5 29.21 33.39 28.75 34.82 29.97 33.93 31.19 34.82 30.72 33.39"/>
              </g>
            </g>
          </g>
          <g>
            <path class="cls-9" d="m45.81,2.19c-3.73-1.41-7.76-2.19-11.98-2.19s-8.22.77-11.93,2.17C9.1,7,0,19.35,0,33.83s9.1,26.83,21.89,31.65c3.71,1.4,7.73,2.17,11.93,2.17s8.26-.78,11.98-2.19c12.77-4.84,21.84-17.17,21.84-31.64S58.58,7.03,45.81,2.19Z"/>
            <g class="cls-18">
              <g class="cls-20">
                <g class="cls-23">
                  <g class="cls-25">
                    <g class="cls-28">
                      <g class="cls-29">
                        <g class="cls-2">
                          <path class="cls-8" d="m33.63,1.65c10.55,0,19.81,5.08,25.24,12.79,3.62,5.13,2.09,14.55-5.4,14.24-6.94-.29-12.58-6.17-19.84-6.17-5.88,0-11.37,4.91-17.12,6.11-8.52,1.79-13.07-7.15-8.12-14.18C13.81,6.74,23.08,1.65,33.63,1.65Z"/>
                        </g>
                      </g>
                    </g>
                  </g>
                </g>
              </g>
            </g>
          </g>
        </g>
      </g>
    </g>
  </g>
</svg>