<?xml version="1.0" encoding="UTF-8"?>
<svg id="Layer_1" data-name="Layer 1" xmlns="http://www.w3.org/2000/svg" viewBox="0 0 271.91 157.08">
  <defs>
    <style>
      .cls-1 {
        fill: #555;
        stroke-width: 0px;
      }
    </style>
  </defs>
  <path class="cls-1" d="m248.21,29c1.09.21,2.18.39,3.26.64,10.13,2.28,17.66,10.83,18.65,21.16.08.81.13,1.62.13,2.43,0,11.76,0,23.52,0,35.28v.74c-6.78.76-11.74-2.87-11.92-9.08-.22-7.8-.11-15.62-.22-23.43-.03-2.29-.07-4.63-.59-6.84-1.11-4.74-4.4-7.49-9.05-8.56-5.18-1.2-10.74,1.5-13.15,6.24-.82,1.61-1.08,3.34-1.22,5.11-.11,1.39-.18,2.79-.18,4.19-.01,10.47,0,20.94,0,31.41,0,.33,0,.66,0,.98-4.88.37-8.96-.96-10.98-5.31-.59-1.28-.89-2.79-.95-4.21-.17-3.77-.15-7.55-.17-11.33-.03-4.51,0-9.02-.06-13.52-.01-1.28-.16-2.57-.29-3.85-.71-6.93-8.76-12.24-16.37-9.02-4.47,1.89-7.09,5.32-7.21,10.23-.19,8.09-.15,16.18-.26,24.27-.03,1.87-.1,3.77-.44,5.59-.72,3.78-3.81,6.54-7.64,7.01-1.28.16-2.57.19-3.97.29-.02-.37-.05-.66-.05-.96,0-19.57,0-39.14,0-58.71,0-.25.03-.5.04-.75.45,0,.9,0,1.35,0,.18.06.35.13.53.17,3.01.54,5.87,1.46,8.23,3.52.43.38.7.35,1.14.06,2.18-1.41,4.54-2.42,7.06-3.04,1.18-.29,2.39-.48,3.59-.72,1.52,0,3.03,0,4.55,0,.15.05.29.14.44.16,4.18.48,8,1.92,11.39,4.4,1.44,1.05,2.73,2.31,4.12,3.5.09-.08.23-.21.36-.34,3.42-3.63,7.56-6.01,12.42-7.12.91-.21,1.83-.4,2.74-.6,1.57,0,3.14,0,4.71,0Z"/>
  <path class="cls-1" d="m48.87,29c.59.11,1.18.23,1.77.32,4.02.67,7.1,3.91,7.51,7.95.08.78.05,1.57.17,2.34.17,1.07-.22,1.8-.99,2.55-11.49,11.42-22.94,22.87-34.41,34.31-.23.23-.54.38-.81.56.07.1.14.21.21.31.29,0,.59,0,.88,0,9.15.01,18.29.01,27.44.06,1.25,0,2.54.13,3.74.44,4.05,1.05,6.7,4.51,6.92,8.89.04.86,0,1.72,0,2.69h-.91c-14.56,0-29.12.02-43.68-.03-2,0-4.06-.13-5.99-.6-3.87-.95-6.44-4.36-6.64-8.34,0-.2.02-.4-.03-.59-.54-1.93.4-3.16,1.73-4.47,11.24-11.12,22.4-22.31,33.59-33.47.23-.23.45-.47.81-.84-.45,0-.75,0-1.04,0-8.5,0-17,.01-25.5-.01-1.48,0-2.99-.02-4.45-.25-4.51-.68-7.51-3.83-8.12-8.38-.03-.2-.12-.4-.18-.6v-2.86c2.81,0,5.61,0,8.42,0,.29.06.58.16.87.16,11.82,0,23.64,0,35.46,0,.29,0,.58-.1.87-.16.79,0,1.57,0,2.36,0Z"/>
  <path class="cls-1" d="m154.94,29c1.17.22,2.34.42,3.5.66,12.21,2.53,21.6,12.31,23.63,24.61,2.7,16.33-8.27,31.83-24.52,34.67-16.14,2.82-31.56-7.54-34.94-23.46-3.5-16.49,7.14-32.58,23.76-35.92,1-.2,2.01-.37,3.01-.56,1.85,0,3.7,0,5.56,0Zm-20.88,30.19c0,9.99,8.12,18.14,18.12,18.16,10.03.02,18.23-8.15,18.22-18.16,0-9.98-8.16-18.1-18.17-18.1-10.02,0-18.16,8.11-18.16,18.09Z"/>
  <path class="cls-1" d="m91.3,29c1.42.27,2.85.45,4.24.82,11.99,3.16,19.73,10.72,22.6,22.74,3.32,13.9-3.61,28.06-16.67,33.95-11.56,5.21-22.56,3.67-32.42-4.36-5.93-4.83-9.32-11.25-10.37-18.81-2.1-15.14,7.29-29.2,22.17-33.3,1.48-.41,3.02-.58,4.53-.87.18-.03.35-.11.53-.17,1.8,0,3.59,0,5.39,0Zm-20.77,30.17c-.01,10.01,8.05,18.13,18.07,18.18,10.02.06,18.2-8.1,18.2-18.14,0-9.98-8.07-18.09-18.04-18.12-10.1-.03-18.23,8.02-18.24,18.07Z"/>
  <path class="cls-1" d="m187.45,29.16c-.18-.03-.35-.11-.53-.17"/>
  <path class="cls-1" d="m207.47,29c-1.2.24-2.4.43-3.59.72-2.52.61-4.88,1.62-7.06,3.04"/>
  <path class="cls-1" d="m46.52,29c-.29.06-.58.16-.87.16-11.82,0-23.64,0-35.46,0-.29,0-.58-.1-.87-.16,12.4,0,24.8,0,37.21,0Z"/>
</svg>